{
	"patcher" : 	{
		"fileversion" : 1,
		"rect" : [ 325.0, 224.0, 470.0, 329.0 ],
		"bglocked" : 0,
		"defrect" : [ 325.0, 224.0, 470.0, 329.0 ],
		"openrect" : [ 0.0, 0.0, 0.0, 0.0 ],
		"openinpresentation" : 0,
		"default_fontsize" : 12.0,
		"default_fontface" : 0,
		"default_fontname" : "Arial",
		"gridonopen" : 0,
		"gridsize" : [ 15.0, 15.0 ],
		"gridsnaponopen" : 0,
		"toolbarvisible" : 0,
		"boxanimatetime" : 200,
		"imprint" : 0,
		"enablehscroll" : 1,
		"enablevscroll" : 1,
		"devicewidth" : 0.0,
		"title" : "BOUNCING #1 OSC-route Mapping",
		"boxes" : [ 			{
				"box" : 				{
					"maxclass" : "newobj",
					"text" : "tosymbol",
					"fontname" : "Arial",
					"numinlets" : 1,
					"id" : "obj-39",
					"numoutlets" : 1,
					"outlettype" : [ "" ],
					"fontsize" : 9.0,
					"hidden" : 1,
					"patching_rect" : [ 616.0, 57.0, 47.0, 17.0 ]
				}

			}
, 			{
				"box" : 				{
					"maxclass" : "newobj",
					"text" : "t dump",
					"fontname" : "Arial",
					"numinlets" : 1,
					"id" : "obj-1",
					"numoutlets" : 1,
					"outlettype" : [ "dump" ],
					"fontsize" : 9.0,
					"hidden" : 1,
					"patching_rect" : [ 625.0, 163.0, 40.0, 17.0 ]
				}

			}
, 			{
				"box" : 				{
					"maxclass" : "newobj",
					"text" : "delay 500",
					"fontname" : "Arial",
					"numinlets" : 2,
					"id" : "obj-2",
					"numoutlets" : 1,
					"outlettype" : [ "bang" ],
					"fontsize" : 9.0,
					"hidden" : 1,
					"patching_rect" : [ 625.0, 145.0, 55.0, 17.0 ]
				}

			}
, 			{
				"box" : 				{
					"maxclass" : "outlet",
					"varname" : "outlet_dropstophit",
					"numinlets" : 1,
					"id" : "obj-3",
					"numoutlets" : 0,
					"hidden" : 1,
					"patching_rect" : [ 307.0, 334.0, 15.0, 15.0 ],
					"comment" : "drop stop hit"
				}

			}
, 			{
				"box" : 				{
					"maxclass" : "outlet",
					"varname" : "outlet_hammermass",
					"numinlets" : 1,
					"id" : "obj-4",
					"numoutlets" : 0,
					"hidden" : 1,
					"patching_rect" : [ 199.0, 334.0, 15.0, 15.0 ],
					"comment" : "Hammer mass"
				}

			}
, 			{
				"box" : 				{
					"maxclass" : "newobj",
					"text" : "p readme",
					"fontname" : "Arial",
					"numinlets" : 0,
					"id" : "obj-5",
					"numoutlets" : 0,
					"fontsize" : 9.0,
					"patching_rect" : [ 326.0, 300.0, 51.0, 17.0 ],
					"patcher" : 					{
						"fileversion" : 1,
						"rect" : [ 259.0, 119.0, 462.0, 243.0 ],
						"bglocked" : 0,
						"defrect" : [ 259.0, 119.0, 462.0, 243.0 ],
						"openrect" : [ 0.0, 0.0, 0.0, 0.0 ],
						"openinpresentation" : 0,
						"default_fontsize" : 12.0,
						"default_fontface" : 0,
						"default_fontname" : "Arial",
						"gridonopen" : 0,
						"gridsize" : [ 15.0, 15.0 ],
						"gridsnaponopen" : 0,
						"toolbarvisible" : 1,
						"boxanimatetime" : 200,
						"imprint" : 0,
						"enablehscroll" : 1,
						"enablevscroll" : 1,
						"devicewidth" : 0.0,
						"boxes" : [ 							{
								"box" : 								{
									"maxclass" : "comment",
									"text" : "4) In the edited OSC routing patch it is required to scale all incoming OSC messages to 0.-100. range.",
									"linecount" : 2,
									"fontname" : "Arial",
									"numinlets" : 1,
									"id" : "obj-1",
									"numoutlets" : 0,
									"fontsize" : 10.0,
									"patching_rect" : [ 14.0, 168.0, 407.0, 29.0 ]
								}

							}
, 							{
								"box" : 								{
									"maxclass" : "panel",
									"rounded" : 0,
									"numinlets" : 1,
									"id" : "obj-2",
									"numoutlets" : 0,
									"bgcolor" : [ 0.67451, 0.945098, 0.611765, 1.0 ],
									"patching_rect" : [ 184.0, 168.0, 66.0, 13.0 ]
								}

							}
, 							{
								"box" : 								{
									"maxclass" : "comment",
									"text" : "2) DISPLAY BOX (purple color): click on the box to load and edit the correspondent OSC routing Max patch. \"OSC routing\" configuration Max patch must be saved in SDT_contents/Library/Bouncing/MIDI_OSC_bouncing/bnc_OSC_route.",
									"linecount" : 3,
									"fontname" : "Arial",
									"numinlets" : 1,
									"id" : "obj-3",
									"numoutlets" : 0,
									"fontsize" : 10.0,
									"patching_rect" : [ 14.0, 85.0, 408.0, 41.0 ]
								}

							}
, 							{
								"box" : 								{
									"maxclass" : "comment",
									"text" : "1) DROP-DOWN MENU: navigate menu items to select the available OSC routing configuraiton. The selected configuration is displayed in the box below.",
									"linecount" : 2,
									"fontname" : "Arial",
									"numinlets" : 1,
									"id" : "obj-4",
									"numoutlets" : 0,
									"fontsize" : 10.0,
									"patching_rect" : [ 14.0, 50.0, 415.0, 29.0 ]
								}

							}
, 							{
								"box" : 								{
									"maxclass" : "comment",
									"text" : "3) CLICK TO UPDATE LIST: click on the box to update menu items in the drop-down menu.",
									"linecount" : 2,
									"fontname" : "Arial",
									"numinlets" : 1,
									"id" : "obj-5",
									"numoutlets" : 0,
									"fontsize" : 10.0,
									"patching_rect" : [ 14.0, 133.0, 407.0, 29.0 ]
								}

							}
, 							{
								"box" : 								{
									"maxclass" : "panel",
									"rounded" : 0,
									"numinlets" : 1,
									"id" : "obj-6",
									"numoutlets" : 0,
									"bgcolor" : [ 0.752941, 0.717647, 0.960784, 1.0 ],
									"patching_rect" : [ 14.0, 50.0, 119.0, 13.0 ]
								}

							}
, 							{
								"box" : 								{
									"maxclass" : "panel",
									"rounded" : 0,
									"numinlets" : 1,
									"id" : "obj-7",
									"numoutlets" : 0,
									"bgcolor" : [ 0.752941, 0.717647, 0.960784, 1.0 ],
									"patching_rect" : [ 14.0, 133.0, 133.0, 13.0 ]
								}

							}
, 							{
								"box" : 								{
									"maxclass" : "comment",
									"text" : "Bouncing N OSC route mapping",
									"fontname" : "Arial Black",
									"numinlets" : 1,
									"id" : "obj-8",
									"numoutlets" : 0,
									"fontsize" : 12.0,
									"patching_rect" : [ 13.0, 15.0, 343.0, 23.0 ]
								}

							}
, 							{
								"box" : 								{
									"maxclass" : "panel",
									"rounded" : 0,
									"numinlets" : 1,
									"id" : "obj-9",
									"numoutlets" : 0,
									"bgcolor" : [ 0.67451, 0.945098, 0.611765, 1.0 ],
									"patching_rect" : [ 14.0, 112.0, 330.0, 13.0 ]
								}

							}
, 							{
								"box" : 								{
									"maxclass" : "panel",
									"rounded" : 0,
									"numinlets" : 1,
									"id" : "obj-10",
									"numoutlets" : 0,
									"bgcolor" : [ 0.752941, 0.717647, 0.960784, 1.0 ],
									"patching_rect" : [ 14.0, 85.0, 162.0, 13.0 ]
								}

							}
, 							{
								"box" : 								{
									"maxclass" : "panel",
									"rounded" : 0,
									"numinlets" : 1,
									"id" : "obj-11",
									"numoutlets" : 0,
									"bgcolor" : [ 0.67451, 0.945098, 0.611765, 1.0 ],
									"patching_rect" : [ 28.0, 183.0, 96.0, 13.0 ]
								}

							}
 ],
						"lines" : [  ]
					}
,
					"saved_object_attributes" : 					{
						"fontname" : "Arial",
						"default_fontsize" : 12.0,
						"fontface" : 0,
						"fontsize" : 12.0,
						"globalpatchername" : "",
						"default_fontface" : 0,
						"default_fontname" : "Arial"
					}

				}

			}
, 			{
				"box" : 				{
					"maxclass" : "outlet",
					"varname" : "outlet_presinterp",
					"numinlets" : 1,
					"id" : "obj-6",
					"numoutlets" : 0,
					"hidden" : 1,
					"patching_rect" : [ 118.0, 334.0, 15.0, 15.0 ],
					"comment" : "preset interpolation"
				}

			}
, 			{
				"box" : 				{
					"maxclass" : "outlet",
					"varname" : "outlet_shapereg",
					"numinlets" : 1,
					"id" : "obj-7",
					"numoutlets" : 0,
					"hidden" : 1,
					"patching_rect" : [ 37.0, 334.0, 15.0, 15.0 ],
					"comment" : "shape regularity"
				}

			}
, 			{
				"box" : 				{
					"maxclass" : "outlet",
					"varname" : "outlet_elastic",
					"numinlets" : 1,
					"id" : "obj-8",
					"numoutlets" : 0,
					"hidden" : 1,
					"patching_rect" : [ 10.0, 334.0, 15.0, 15.0 ],
					"comment" : "elasticity"
				}

			}
, 			{
				"box" : 				{
					"maxclass" : "outlet",
					"varname" : "outlet_contstiff",
					"numinlets" : 1,
					"id" : "obj-9",
					"numoutlets" : 0,
					"hidden" : 1,
					"patching_rect" : [ 145.0, 334.0, 15.0, 15.0 ],
					"comment" : "contact stiffness"
				}

			}
, 			{
				"box" : 				{
					"maxclass" : "outlet",
					"varname" : "outlet_globgain",
					"numinlets" : 1,
					"id" : "obj-10",
					"numoutlets" : 0,
					"hidden" : 1,
					"patching_rect" : [ 280.0, 334.0, 15.0, 15.0 ],
					"comment" : "global gain"
				}

			}
, 			{
				"box" : 				{
					"maxclass" : "outlet",
					"varname" : "outlet_globdec",
					"numinlets" : 1,
					"id" : "obj-11",
					"numoutlets" : 0,
					"hidden" : 1,
					"patching_rect" : [ 253.0, 334.0, 15.0, 15.0 ],
					"comment" : "global decay"
				}

			}
, 			{
				"box" : 				{
					"maxclass" : "outlet",
					"varname" : "outlet_globfreq",
					"numinlets" : 1,
					"id" : "obj-12",
					"numoutlets" : 0,
					"hidden" : 1,
					"patching_rect" : [ 226.0, 334.0, 15.0, 15.0 ],
					"comment" : "Global frequency"
				}

			}
, 			{
				"box" : 				{
					"maxclass" : "outlet",
					"varname" : "outlet_contsurf",
					"numinlets" : 1,
					"id" : "obj-13",
					"numoutlets" : 0,
					"hidden" : 1,
					"patching_rect" : [ 172.0, 334.0, 15.0, 15.0 ],
					"comment" : "contact surface"
				}

			}
, 			{
				"box" : 				{
					"maxclass" : "outlet",
					"varname" : "outlet_fallingheight",
					"numinlets" : 1,
					"id" : "obj-14",
					"numoutlets" : 0,
					"hidden" : 1,
					"patching_rect" : [ 91.0, 334.0, 15.0, 15.0 ],
					"comment" : "falling height"
				}

			}
, 			{
				"box" : 				{
					"maxclass" : "message",
					"text" : "title BOUNCING #1 OSC-route Mapping",
					"linecount" : 2,
					"fontname" : "Arial",
					"numinlets" : 2,
					"id" : "obj-15",
					"numoutlets" : 1,
					"outlettype" : [ "" ],
					"fontsize" : 9.0,
					"hidden" : 1,
					"patching_rect" : [ 350.0, -12.0, 109.0, 25.0 ]
				}

			}
, 			{
				"box" : 				{
					"maxclass" : "newobj",
					"text" : "t dump s",
					"fontname" : "Arial",
					"numinlets" : 1,
					"id" : "obj-16",
					"numoutlets" : 2,
					"outlettype" : [ "dump", "" ],
					"fontsize" : 9.0,
					"hidden" : 1,
					"patching_rect" : [ 500.0, 174.0, 48.0, 17.0 ]
				}

			}
, 			{
				"box" : 				{
					"maxclass" : "newobj",
					"text" : "sprintf nsub 1 11 %s",
					"fontname" : "Arial",
					"numinlets" : 1,
					"id" : "obj-17",
					"numoutlets" : 1,
					"outlettype" : [ "" ],
					"fontsize" : 9.0,
					"hidden" : 1,
					"patching_rect" : [ 500.0, 153.0, 105.0, 17.0 ]
				}

			}
, 			{
				"box" : 				{
					"maxclass" : "newobj",
					"text" : "coll bnc_osc_route_replace",
					"fontname" : "Courier",
					"numinlets" : 1,
					"id" : "obj-18",
					"numoutlets" : 4,
					"outlettype" : [ "", "", "", "" ],
					"fontsize" : 10.0,
					"hidden" : 1,
					"patching_rect" : [ 500.0, 199.0, 166.0, 16.0 ],
					"saved_object_attributes" : 					{
						"embed" : 0
					}

				}

			}
, 			{
				"box" : 				{
					"maxclass" : "newobj",
					"text" : "pcontrol",
					"fontname" : "Arial",
					"numinlets" : 1,
					"id" : "obj-19",
					"numoutlets" : 1,
					"outlettype" : [ "" ],
					"fontsize" : 9.0,
					"hidden" : 1,
					"patching_rect" : [ 326.0, 281.0, 47.0, 17.0 ]
				}

			}
, 			{
				"box" : 				{
					"maxclass" : "message",
					"text" : "bnc_OSCdefault_map.mxb",
					"fontname" : "Arial",
					"numinlets" : 2,
					"id" : "obj-20",
					"numoutlets" : 1,
					"outlettype" : [ "" ],
					"fontsize" : 9.0,
					"bgcolor" : [ 0.6, 0.4, 0.6, 1.0 ],
					"patching_rect" : [ 324.0, 227.0, 133.0, 15.0 ]
				}

			}
, 			{
				"box" : 				{
					"maxclass" : "newobj",
					"text" : "prepend set",
					"fontname" : "Arial",
					"numinlets" : 1,
					"id" : "obj-21",
					"numoutlets" : 1,
					"outlettype" : [ "" ],
					"fontsize" : 9.0,
					"hidden" : 1,
					"patching_rect" : [ 436.0, 153.0, 60.0, 17.0 ]
				}

			}
, 			{
				"box" : 				{
					"maxclass" : "newobj",
					"text" : "strippath",
					"fontname" : "Arial",
					"numinlets" : 1,
					"color" : [ 1.0, 0.890196, 0.090196, 1.0 ],
					"id" : "obj-22",
					"numoutlets" : 2,
					"outlettype" : [ "", "int" ],
					"fontsize" : 9.0,
					"hidden" : 1,
					"patching_rect" : [ 500.0, 130.0, 49.0, 17.0 ]
				}

			}
, 			{
				"box" : 				{
					"maxclass" : "newobj",
					"text" : "prepend load",
					"fontname" : "Arial",
					"numinlets" : 1,
					"id" : "obj-23",
					"numoutlets" : 1,
					"outlettype" : [ "" ],
					"fontsize" : 9.0,
					"hidden" : 1,
					"patching_rect" : [ 326.0, 257.0, 66.0, 17.0 ]
				}

			}
, 			{
				"box" : 				{
					"maxclass" : "newobj",
					"text" : "t bang",
					"fontname" : "Arial",
					"numinlets" : 1,
					"id" : "obj-24",
					"numoutlets" : 1,
					"outlettype" : [ "bang" ],
					"fontsize" : 9.0,
					"hidden" : 1,
					"patching_rect" : [ 428.0, 58.0, 37.0, 17.0 ]
				}

			}
, 			{
				"box" : 				{
					"maxclass" : "newobj",
					"text" : "sprintf %sbnc_OSC_route/",
					"fontname" : "Arial",
					"numinlets" : 1,
					"id" : "obj-25",
					"numoutlets" : 1,
					"outlettype" : [ "" ],
					"fontsize" : 9.0,
					"hidden" : 1,
					"patching_rect" : [ 616.0, 36.0, 133.0, 17.0 ]
				}

			}
, 			{
				"box" : 				{
					"maxclass" : "newobj",
					"text" : "loadbang",
					"fontname" : "Arial",
					"numinlets" : 1,
					"id" : "obj-26",
					"numoutlets" : 1,
					"outlettype" : [ "bang" ],
					"fontsize" : 9.0,
					"hidden" : 1,
					"patching_rect" : [ 485.0, -35.0, 48.0, 17.0 ]
				}

			}
, 			{
				"box" : 				{
					"maxclass" : "newobj",
					"text" : "pack depth 4",
					"fontname" : "Arial",
					"numinlets" : 2,
					"id" : "obj-27",
					"numoutlets" : 1,
					"outlettype" : [ "" ],
					"fontsize" : 9.0,
					"hidden" : 1,
					"patching_rect" : [ 428.0, 79.0, 66.0, 17.0 ]
				}

			}
, 			{
				"box" : 				{
					"maxclass" : "message",
					"text" : "click to update list",
					"fontname" : "Arial",
					"numinlets" : 2,
					"id" : "obj-28",
					"numoutlets" : 1,
					"outlettype" : [ "" ],
					"fontsize" : 9.0,
					"patching_rect" : [ 327.0, 22.0, 93.0, 15.0 ]
				}

			}
, 			{
				"box" : 				{
					"maxclass" : "umenu",
					"fontname" : "Arial",
					"textcolor" : [ 1.0, 1.0, 1.0, 1.0 ],
					"numinlets" : 1,
					"framecolor" : [ 0.015686, 0.015686, 0.015686, 1.0 ],
					"id" : "obj-29",
					"numoutlets" : 3,
					"bgcolor2" : [ 0.647059, 0.647059, 0.647059, 1.0 ],
					"discolor" : [ 0.647059, 0.647059, 0.647059, 1.0 ],
					"depth" : 4,
					"outlettype" : [ "int", "", "" ],
					"fontsize" : 12.0,
					"togcolor" : [ 0.552941, 0.552941, 0.552941, 1.0 ],
					"autopopulate" : 1,
					"bgcolor" : [ 0.411765, 0.090196, 0.090196, 1.0 ],
					"textcolor2" : [ 1.0, 1.0, 1.0, 1.0 ],
					"types" : [  ],
					"patching_rect" : [ 327.0, 103.0, 121.0, 20.0 ],
					"items" : "bnc_OSCdefault_map.maxpat",
					"prefix" : "Macintosh HD:/Users/sdellemo/Documents/01_SoundDesignToolKit/SDT_contents/Library/Bouncing/MIDI_OSC_bouncing/bnc_OSC_route/",
					"hltcolor" : [ 0.411765, 0.090196, 0.090196, 1.0 ]
				}

			}
, 			{
				"box" : 				{
					"maxclass" : "newobj",
					"text" : "prepend prefix",
					"fontname" : "Arial",
					"numinlets" : 1,
					"id" : "obj-30",
					"numoutlets" : 1,
					"outlettype" : [ "" ],
					"fontsize" : 9.0,
					"hidden" : 1,
					"patching_rect" : [ 616.0, 81.0, 76.0, 17.0 ]
				}

			}
, 			{
				"box" : 				{
					"maxclass" : "message",
					"text" : "autopopulate 1",
					"fontname" : "Arial",
					"numinlets" : 2,
					"id" : "obj-31",
					"numoutlets" : 1,
					"outlettype" : [ "" ],
					"fontsize" : 9.0,
					"hidden" : 1,
					"patching_rect" : [ 485.0, -1.0, 75.0, 15.0 ]
				}

			}
, 			{
				"box" : 				{
					"maxclass" : "message",
					"text" : "path",
					"fontname" : "Arial",
					"numinlets" : 2,
					"id" : "obj-32",
					"numoutlets" : 1,
					"outlettype" : [ "" ],
					"fontsize" : 9.0,
					"hidden" : 1,
					"patching_rect" : [ 565.0, -1.0, 29.0, 15.0 ]
				}

			}
, 			{
				"box" : 				{
					"maxclass" : "newobj",
					"text" : "thispatcher",
					"fontname" : "Arial",
					"numinlets" : 1,
					"id" : "obj-33",
					"numoutlets" : 2,
					"outlettype" : [ "", "" ],
					"fontsize" : 9.0,
					"hidden" : 1,
					"patching_rect" : [ 565.0, 16.0, 61.0, 17.0 ],
					"save" : [ "#N", "thispatcher", ";", "#Q", "end", ";" ]
				}

			}
, 			{
				"box" : 				{
					"maxclass" : "outlet",
					"varname" : "outlet_weight",
					"numinlets" : 1,
					"id" : "obj-34",
					"numoutlets" : 0,
					"hidden" : 1,
					"patching_rect" : [ 64.0, 334.0, 15.0, 15.0 ],
					"comment" : "weight"
				}

			}
, 			{
				"box" : 				{
					"maxclass" : "inlet",
					"varname" : "inlet_OSCraw",
					"numinlets" : 0,
					"id" : "obj-35",
					"numoutlets" : 1,
					"outlettype" : [ "" ],
					"hidden" : 1,
					"patching_rect" : [ 10.0, -44.0, 15.0, 15.0 ],
					"comment" : "inlet_up"
				}

			}
, 			{
				"box" : 				{
					"maxclass" : "comment",
					"text" : "click to load and edit OSC-route mapping patch.",
					"linecount" : 2,
					"fontname" : "Arial",
					"numinlets" : 1,
					"id" : "obj-36",
					"numoutlets" : 0,
					"fontsize" : 9.0,
					"patching_rect" : [ 327.0, 197.0, 121.0, 27.0 ]
				}

			}
, 			{
				"box" : 				{
					"maxclass" : "comment",
					"text" : "choose your control mapping patch",
					"linecount" : 2,
					"fontname" : "Arial",
					"numinlets" : 1,
					"id" : "obj-37",
					"numoutlets" : 0,
					"fontsize" : 9.0,
					"patching_rect" : [ 328.0, 127.0, 100.0, 27.0 ]
				}

			}
, 			{
				"box" : 				{
					"maxclass" : "bpatcher",
					"varname" : "bnc_OSCroute_map",
					"numinlets" : 1,
					"id" : "obj-38",
					"numoutlets" : 12,
					"name" : "bnc_OSCdefault_map.maxpat",
					"args" : [  ],
					"outlettype" : [ "", "", "", "", "", "", "", "", "", "", "", "" ],
					"border" : 1,
					"patching_rect" : [ 10.0, 10.0, 310.0, 310.0 ],
					"lockeddragscroll" : 1
				}

			}
 ],
		"lines" : [ 			{
				"patchline" : 				{
					"source" : [ "obj-38", 0 ],
					"destination" : [ "obj-8", 0 ],
					"hidden" : 1,
					"midpoints" : [  ]
				}

			}
, 			{
				"patchline" : 				{
					"source" : [ "obj-38", 1 ],
					"destination" : [ "obj-7", 0 ],
					"hidden" : 1,
					"midpoints" : [  ]
				}

			}
, 			{
				"patchline" : 				{
					"source" : [ "obj-38", 2 ],
					"destination" : [ "obj-34", 0 ],
					"hidden" : 1,
					"midpoints" : [  ]
				}

			}
, 			{
				"patchline" : 				{
					"source" : [ "obj-38", 3 ],
					"destination" : [ "obj-14", 0 ],
					"hidden" : 1,
					"midpoints" : [  ]
				}

			}
, 			{
				"patchline" : 				{
					"source" : [ "obj-38", 4 ],
					"destination" : [ "obj-6", 0 ],
					"hidden" : 1,
					"midpoints" : [  ]
				}

			}
, 			{
				"patchline" : 				{
					"source" : [ "obj-38", 5 ],
					"destination" : [ "obj-9", 0 ],
					"hidden" : 1,
					"midpoints" : [  ]
				}

			}
, 			{
				"patchline" : 				{
					"source" : [ "obj-38", 6 ],
					"destination" : [ "obj-13", 0 ],
					"hidden" : 1,
					"midpoints" : [  ]
				}

			}
, 			{
				"patchline" : 				{
					"source" : [ "obj-38", 7 ],
					"destination" : [ "obj-4", 0 ],
					"hidden" : 1,
					"midpoints" : [  ]
				}

			}
, 			{
				"patchline" : 				{
					"source" : [ "obj-38", 8 ],
					"destination" : [ "obj-12", 0 ],
					"hidden" : 1,
					"midpoints" : [  ]
				}

			}
, 			{
				"patchline" : 				{
					"source" : [ "obj-38", 9 ],
					"destination" : [ "obj-11", 0 ],
					"hidden" : 1,
					"midpoints" : [  ]
				}

			}
, 			{
				"patchline" : 				{
					"source" : [ "obj-38", 10 ],
					"destination" : [ "obj-10", 0 ],
					"hidden" : 1,
					"midpoints" : [  ]
				}

			}
, 			{
				"patchline" : 				{
					"source" : [ "obj-38", 11 ],
					"destination" : [ "obj-3", 0 ],
					"hidden" : 1,
					"midpoints" : [  ]
				}

			}
, 			{
				"patchline" : 				{
					"source" : [ "obj-35", 0 ],
					"destination" : [ "obj-38", 0 ],
					"hidden" : 1,
					"midpoints" : [  ]
				}

			}
, 			{
				"patchline" : 				{
					"source" : [ "obj-2", 0 ],
					"destination" : [ "obj-1", 0 ],
					"hidden" : 1,
					"midpoints" : [  ]
				}

			}
, 			{
				"patchline" : 				{
					"source" : [ "obj-26", 0 ],
					"destination" : [ "obj-2", 0 ],
					"hidden" : 1,
					"midpoints" : [ 494.5, -12.0, 634.5, -12.0 ]
				}

			}
, 			{
				"patchline" : 				{
					"source" : [ "obj-33", 1 ],
					"destination" : [ "obj-25", 0 ],
					"hidden" : 1,
					"midpoints" : [  ]
				}

			}
, 			{
				"patchline" : 				{
					"source" : [ "obj-32", 0 ],
					"destination" : [ "obj-33", 0 ],
					"hidden" : 1,
					"midpoints" : [  ]
				}

			}
, 			{
				"patchline" : 				{
					"source" : [ "obj-15", 0 ],
					"destination" : [ "obj-33", 0 ],
					"hidden" : 1,
					"midpoints" : [ 359.5, 17.0, 574.5, 17.0 ]
				}

			}
, 			{
				"patchline" : 				{
					"source" : [ "obj-18", 0 ],
					"destination" : [ "obj-33", 0 ],
					"hidden" : 1,
					"midpoints" : [ 509.5, 221.0, 710.0, 221.0, 710.0, 14.0, 574.5, 14.0 ]
				}

			}
, 			{
				"patchline" : 				{
					"source" : [ "obj-26", 0 ],
					"destination" : [ "obj-32", 0 ],
					"hidden" : 1,
					"midpoints" : [ 494.5, -5.0, 574.5, -5.0 ]
				}

			}
, 			{
				"patchline" : 				{
					"source" : [ "obj-16", 1 ],
					"destination" : [ "obj-18", 0 ],
					"hidden" : 1,
					"midpoints" : [  ]
				}

			}
, 			{
				"patchline" : 				{
					"source" : [ "obj-16", 0 ],
					"destination" : [ "obj-18", 0 ],
					"hidden" : 1,
					"midpoints" : [  ]
				}

			}
, 			{
				"patchline" : 				{
					"source" : [ "obj-1", 0 ],
					"destination" : [ "obj-18", 0 ],
					"hidden" : 1,
					"midpoints" : [ 634.5, 190.0, 509.5, 190.0 ]
				}

			}
, 			{
				"patchline" : 				{
					"source" : [ "obj-17", 0 ],
					"destination" : [ "obj-16", 0 ],
					"hidden" : 1,
					"midpoints" : [  ]
				}

			}
, 			{
				"patchline" : 				{
					"source" : [ "obj-22", 0 ],
					"destination" : [ "obj-17", 0 ],
					"hidden" : 1,
					"midpoints" : [  ]
				}

			}
, 			{
				"patchline" : 				{
					"source" : [ "obj-29", 1 ],
					"destination" : [ "obj-22", 0 ],
					"hidden" : 1,
					"midpoints" : [ 387.5, 128.0, 509.5, 128.0 ]
				}

			}
, 			{
				"patchline" : 				{
					"source" : [ "obj-26", 0 ],
					"destination" : [ "obj-31", 0 ],
					"hidden" : 1,
					"midpoints" : [  ]
				}

			}
, 			{
				"patchline" : 				{
					"source" : [ "obj-22", 0 ],
					"destination" : [ "obj-21", 0 ],
					"hidden" : 1,
					"midpoints" : [ 509.5, 151.0, 445.5, 151.0 ]
				}

			}
, 			{
				"patchline" : 				{
					"source" : [ "obj-24", 0 ],
					"destination" : [ "obj-27", 0 ],
					"hidden" : 1,
					"midpoints" : [  ]
				}

			}
, 			{
				"patchline" : 				{
					"source" : [ "obj-28", 0 ],
					"destination" : [ "obj-24", 0 ],
					"hidden" : 1,
					"midpoints" : [ 336.5, 54.0, 363.0, 54.0, 363.0, 54.0, 437.5, 54.0 ]
				}

			}
, 			{
				"patchline" : 				{
					"source" : [ "obj-26", 0 ],
					"destination" : [ "obj-15", 0 ],
					"hidden" : 1,
					"midpoints" : [ 494.5, -15.0, 359.5, -15.0 ]
				}

			}
, 			{
				"patchline" : 				{
					"source" : [ "obj-30", 0 ],
					"destination" : [ "obj-29", 0 ],
					"hidden" : 1,
					"midpoints" : [ 625.5, 109.0, 336.5, 109.0 ]
				}

			}
, 			{
				"patchline" : 				{
					"source" : [ "obj-31", 0 ],
					"destination" : [ "obj-29", 0 ],
					"hidden" : 1,
					"midpoints" : [  ]
				}

			}
, 			{
				"patchline" : 				{
					"source" : [ "obj-27", 0 ],
					"destination" : [ "obj-29", 0 ],
					"hidden" : 1,
					"midpoints" : [ 437.5, 99.0, 336.5, 99.0 ]
				}

			}
, 			{
				"patchline" : 				{
					"source" : [ "obj-23", 0 ],
					"destination" : [ "obj-19", 0 ],
					"hidden" : 1,
					"midpoints" : [  ]
				}

			}
, 			{
				"patchline" : 				{
					"source" : [ "obj-20", 0 ],
					"destination" : [ "obj-23", 0 ],
					"hidden" : 1,
					"midpoints" : [ 333.5, 248.0, 335.5, 248.0 ]
				}

			}
, 			{
				"patchline" : 				{
					"source" : [ "obj-21", 0 ],
					"destination" : [ "obj-20", 0 ],
					"hidden" : 1,
					"midpoints" : [ 445.5, 174.0, 333.5, 174.0 ]
				}

			}
, 			{
				"patchline" : 				{
					"source" : [ "obj-25", 0 ],
					"destination" : [ "obj-39", 0 ],
					"hidden" : 1,
					"midpoints" : [  ]
				}

			}
, 			{
				"patchline" : 				{
					"source" : [ "obj-39", 0 ],
					"destination" : [ "obj-30", 0 ],
					"hidden" : 1,
					"midpoints" : [  ]
				}

			}
 ]
	}

}
