#N canvas 143 297 179 262 10;
#X obj 1 186 flywing;
#X obj 58 186 flywing;
#X obj 20 242 dac~;
#X obj 45 1 noise~;
#X obj 118 30 noise~;
#X obj 118 50 lop~ 5;
#X obj 118 70 lop~ 5;
#X obj 102 148 +~;
#X obj 45 41 lop~ 4;
#X obj 45 21 lop~ 4;
#X obj 45 61 *~ 700;
#X obj 118 117 *~ 3;
#X obj 58 141 +~ 5;
#X obj 58 117 *~ 40;
#X obj 45 81 +~ 220;
#X obj 20 217 *~ 0.1;
#X connect 0 0 15 0;
#X connect 1 0 15 0;
#X connect 3 0 9 0;
#X connect 4 0 5 0;
#X connect 5 0 6 0;
#X connect 6 0 11 0;
#X connect 6 0 13 0;
#X connect 7 0 1 1;
#X connect 8 0 10 0;
#X connect 9 0 8 0;
#X connect 10 0 14 0;
#X connect 11 0 7 1;
#X connect 12 0 1 0;
#X connect 12 0 0 0;
#X connect 13 0 12 0;
#X connect 14 0 0 1;
#X connect 14 0 7 0;
#X connect 15 0 2 0;
#X connect 15 0 2 1;
