#N canvas 52 107 315 419 10;
#X obj 2 5 noise~;
#X obj 37 398 dac~;
#X obj 2 26 hip~ 5000;
#X obj 2 47 hip~ 5000;
#X obj 2 68 lop~ 8000;
#X obj 2 89 lop~ 8000;
#X obj 37 161 *~;
#X obj 9 111 bp~ 7500 40;
#X obj 2 134 bp~ 5500 40;
#X obj 53 276 sig~ 1;
#X obj 53 302 /~;
#X obj 102 276 +~ 1;
#X obj 102 254 *~;
#X obj 37 323 *~;
#X obj 84 134 osc~ 500;
#X obj 37 368 *~ 0.7;
#X obj 37 346 hip~ 4000;
#X obj 103 208 osc~ 2;
#X obj 103 229 *~ 67;
#X obj 103 185 unpack f f;
#X obj 103 163 r calltype;
#X msg 190 162 \; calltype 30 3;
#X msg 190 128 \; calltype 8 6;
#X msg 190 93 \; calltype 0.5 128;
#X obj 144 44 random 3;
#X obj 144 64 sel 0 1 2;
#X obj 144 23 metro 5000;
#X obj 144 2 loadbang;
#X connect 0 0 2 0;
#X connect 2 0 3 0;
#X connect 3 0 4 0;
#X connect 4 0 5 0;
#X connect 5 0 7 0;
#X connect 5 0 8 0;
#X connect 6 0 13 0;
#X connect 7 0 6 0;
#X connect 8 0 6 0;
#X connect 9 0 10 0;
#X connect 10 0 13 1;
#X connect 11 0 10 1;
#X connect 12 0 11 0;
#X connect 13 0 16 0;
#X connect 14 0 6 1;
#X connect 15 0 1 0;
#X connect 15 0 1 1;
#X connect 16 0 15 0;
#X connect 17 0 18 0;
#X connect 18 0 12 0;
#X connect 18 0 12 1;
#X connect 19 0 17 0;
#X connect 19 1 18 1;
#X connect 20 0 19 0;
#X connect 24 0 25 0;
#X connect 25 0 21 0;
#X connect 25 1 22 0;
#X connect 25 2 23 0;
#X connect 26 0 24 0;
#X connect 27 0 26 0;
