#N canvas 549 250 181 353 10;
#X obj 2 329 dac~;
#X obj 51 0 noise~;
#X obj 3 79 +~ 1;
#X obj 88 98 +~ 1;
#X obj 88 56 lop~ 5;
#X obj 88 35 lop~ 5;
#X obj 3 142 hip~ 12000;
#X obj 3 163 hip~ 12000;
#X obj 3 121 phasor~;
#X obj 3 100 *~ -120;
#X obj 88 140 osc~;
#X obj 88 77 *~ 0;
#X obj 88 161 clip~ 0 1;
#X obj 14 196 bp~ 5000 30;
#X obj 98 196 bp~ 6000 30;
#X obj 87 221 bp~ 8000 30;
#X obj 3 221 bp~ 7000 30;
#X obj 2 282 *~;
#X obj 2 261 *~ 2;
#X obj 2 303 bp~ 6000 5;
#X obj 88 119 *~ -12;
#X obj 3 37 bp~ 120 40;
#X obj 3 58 *~ 190;
#X connect 1 0 5 0;
#X connect 1 0 21 0;
#X connect 2 0 9 0;
#X connect 3 0 20 0;
#X connect 4 0 11 0;
#X connect 5 0 4 0;
#X connect 6 0 7 0;
#X connect 7 0 13 0;
#X connect 7 0 14 0;
#X connect 7 0 15 0;
#X connect 7 0 16 0;
#X connect 8 0 6 0;
#X connect 9 0 8 0;
#X connect 10 0 12 0;
#X connect 11 0 3 0;
#X connect 12 0 17 1;
#X connect 13 0 18 0;
#X connect 14 0 18 0;
#X connect 15 0 18 0;
#X connect 16 0 18 0;
#X connect 17 0 19 0;
#X connect 18 0 17 0;
#X connect 19 0 0 0;
#X connect 19 0 0 1;
#X connect 20 0 10 0;
#X connect 21 0 22 0;
#X connect 22 0 2 0;
