#N canvas 52 107 265 434 10;
#X obj 17 7 noise~;
#X obj 98 410 dac~;
#X obj 17 75 hip~ 5000;
#X obj 17 96 hip~ 5000;
#X obj 17 117 lop~ 8000;
#X obj 17 138 lop~ 8000;
#X obj 99 216 *~;
#X obj 187 216 *~;
#X obj 99 317 *~;
#X obj 116 271 +~;
#X obj 99 337 bp~ 6000 7;
#X obj 99 358 hip~ 4000;
#X obj 99 240 *~;
#X obj 99 168 *~ -90;
#X obj 99 144 +~ 1;
#X obj 143 96 lop~ 2;
#X obj 143 72 lop~ 2;
#X obj 99 120 *~ 30;
#X obj 187 120 *~ 10;
#X obj 187 144 +~ 1;
#X obj 187 168 *~ -20;
#X obj 99 192 phasor~;
#X obj 187 192 phasor~;
#X obj 116 295 lop~ 70;
#X obj 99 380 *~ 0.2;
#X connect 0 0 2 0;
#X connect 0 0 16 0;
#X connect 2 0 3 0;
#X connect 3 0 4 0;
#X connect 4 0 5 0;
#X connect 5 0 8 0;
#X connect 6 0 12 0;
#X connect 6 0 12 1;
#X connect 7 0 9 1;
#X connect 8 0 10 0;
#X connect 9 0 23 0;
#X connect 10 0 11 0;
#X connect 11 0 24 0;
#X connect 12 0 9 0;
#X connect 13 0 21 0;
#X connect 14 0 13 0;
#X connect 15 0 17 0;
#X connect 15 0 18 0;
#X connect 16 0 15 0;
#X connect 17 0 14 0;
#X connect 18 0 19 0;
#X connect 19 0 20 0;
#X connect 20 0 22 0;
#X connect 21 0 6 0;
#X connect 21 0 6 1;
#X connect 22 0 7 0;
#X connect 22 0 7 1;
#X connect 23 0 8 1;
#X connect 24 0 1 0;
#X connect 24 0 1 1;
