#N canvas 425 0 211 422 10;
#X obj 50 43 f;
#X obj 80 43 + 1;
#X obj 50 84 moses 7;
#X obj 4 385 dac~;
#X obj 50 64 mod 41;
#X obj 50 3 loadbang;
#X obj 5 332 hip~ 4000;
#X obj 50 104 + 2;
#X obj 50 125 / 9;
#X obj 106 227 bp~ 9000 500;
#X obj 5 354 *~ 0.5;
#X msg 50 146 0 \, \$1 0.1 0 \, 0 0 0.1;
#X obj 50 168 vline~;
#X obj 5 227 bp~ 4500 1200;
#X obj 16 248 bp~ 4550 1200;
#X obj 34 269 bp~ 4600 1200;
#X obj 50 190 lop~ 1000;
#X obj 107 296 *~ 42;
#X obj 5 299 *~ 100;
#X obj 50 23 metro 17;
#X connect 0 0 1 0;
#X connect 0 0 4 0;
#X connect 1 0 0 1;
#X connect 2 0 7 0;
#X connect 4 0 2 0;
#X connect 5 0 19 0;
#X connect 6 0 10 0;
#X connect 7 0 8 0;
#X connect 8 0 11 0;
#X connect 9 0 17 0;
#X connect 10 0 3 1;
#X connect 10 0 3 0;
#X connect 11 0 12 0;
#X connect 12 0 16 0;
#X connect 13 0 18 0;
#X connect 14 0 18 0;
#X connect 15 0 18 0;
#X connect 16 0 9 0;
#X connect 16 0 13 0;
#X connect 16 0 14 0;
#X connect 16 0 15 0;
#X connect 17 0 6 0;
#X connect 18 0 6 0;
#X connect 19 0 0 0;
