#N canvas 115 38 318 718 10;
#X obj 129 597 dac~;
#X obj 170 175 -~ 0.5;
#X obj 170 195 *~ 2;
#X obj 138 229 min~ 0;
#X obj 195 228 max~ 0;
#X obj 195 251 *~;
#X obj 96 326 wrap~;
#X obj 96 349 cos~;
#X obj 96 370 *~;
#X obj 129 468 +~;
#X obj 96 413 +~;
#X obj 195 274 *~;
#X obj 96 304 *~;
#X obj 96 391 *~ 0.5;
#X obj 19 249 nbx 5 14 -1e+37 1e+37 0 0 empty empty wing-resonance
0 -12 1 10 -262144 -1 -1 96 256;
#X obj 19 268 / 100;
#X obj 129 495 hip~ 700;
#X obj 167 7 phasor~;
#X obj 209 37 *~ -1;
#X obj 209 58 +~ 1;
#X obj 145 101 min~;
#X obj 211 102 min~;
#X obj 170 133 min~;
#X obj 145 70 *~ 0.2;
#X obj 170 155 *~ 6;
#X obj 167 -23 nbx 5 14 -1e+37 1e+37 0 0 empty empty wing-frequency
0 -12 1 10 -262144 -1 -1 756 256;
#N canvas 0 0 450 300 grapha 0;
#X obj 100 100 cnv 15 100 100 empty empty empty 20 12 0 14 -262144
-66577 0;
#N canvas 0 0 450 300 graph3 0;
#X array A 100 float 0;
#X coords 0 1 99 -1 100 100 1;
#X restore 100 100 graph;
#X obj 210 209 tabwrite~ A;
#X obj 289 155 inlet~;
#X obj 210 130 loadbang;
#X obj 278 131 bng 15 250 50 0 empty empty empty 0 -6 0 8 -262144 -1
-1;
#X obj 217 178 s b;
#X obj 210 155 metro 50;
#X connect 3 0 2 0;
#X connect 4 0 7 0;
#X connect 5 0 7 0;
#X connect 7 0 2 0;
#X connect 7 0 6 0;
#X coords 0 -1 1 1 100 100 1 100 100;
#X restore 19 -4 pd grapha;
#N canvas 0 0 450 300 grapha 0;
#X obj 100 100 cnv 15 100 100 empty empty empty 20 12 0 14 -262144
-66577 0;
#N canvas 0 0 450 300 graph3 0;
#X array B 100 float 0;
#X coords 0 1 99 -1 100 100 1;
#X restore 100 100 graph;
#X obj 289 155 inlet~;
#X obj 210 182 tabwrite~ B;
#X obj 210 156 r b;
#X connect 2 0 3 0;
#X connect 4 0 3 0;
#X coords 0 -1 1 1 100 100 1 100 100;
#X restore 22 122 pd grapha;
#N canvas 0 0 450 300 grapha 0;
#X obj 100 100 cnv 15 100 100 empty empty empty 20 12 0 14 -262144
-66577 0;
#N canvas 0 0 450 300 graph3 0;
#X array C 100 float 0;
#X coords 0 1 99 -1 100 100 1;
#X restore 100 100 graph;
#X obj 289 155 inlet~;
#X obj 210 156 r b;
#X obj 210 182 tabwrite~ C;
#X connect 2 0 4 0;
#X connect 3 0 4 0;
#X coords 0 -1 1 1 100 100 1 100 100;
#X restore 203 308 pd grapha;
#N canvas 0 0 450 300 grapha 0;
#X obj 100 100 cnv 15 100 100 empty empty empty 20 12 0 14 -262144
-66577 0;
#N canvas 0 0 450 300 graph3 0;
#X array D 100 float 0;
#X coords 0 1 99 -1 100 100 1;
#X restore 100 100 graph;
#X obj 289 155 inlet~;
#X obj 210 156 r b;
#X obj 210 182 tabwrite~ D;
#X connect 2 0 4 0;
#X connect 3 0 4 0;
#X coords 0 -1 1 1 100 100 1 100 100;
#X restore 18 469 pd grapha;
#N canvas 0 0 450 300 grapha 0;
#X obj 100 100 cnv 15 100 100 empty empty empty 20 12 0 14 -262144
-66577 0;
#N canvas 0 0 450 300 graph3 0;
#X array E 100 float 0;
#X coords 0 1 99 -1 100 100 1;
#X restore 100 100 graph;
#X obj 289 155 inlet~;
#X obj 210 156 r b;
#X obj 210 182 tabwrite~ E;
#X connect 2 0 4 0;
#X connect 3 0 4 0;
#X coords 0 -1 1 1 100 100 1 100 100;
#X restore 173 556 pd grapha;
#X obj 129 519 *~ 0.5;
#X text 232 258 upstroke;
#X text 10 314 downstroke;
#X text 11 360 overshoot;
#X obj 146 442 *~ 2;
#X connect 1 0 2 0;
#X connect 2 0 3 0;
#X connect 2 0 4 0;
#X connect 3 0 8 1;
#X connect 3 0 10 1;
#X connect 3 0 12 1;
#X connect 3 0 27 0;
#X connect 4 0 5 0;
#X connect 4 0 5 1;
#X connect 5 0 11 0;
#X connect 5 0 11 1;
#X connect 6 0 7 0;
#X connect 7 0 8 0;
#X connect 8 0 13 0;
#X connect 9 0 16 0;
#X connect 10 0 9 0;
#X connect 10 0 29 0;
#X connect 11 0 28 0;
#X connect 11 0 35 0;
#X connect 12 0 6 0;
#X connect 13 0 10 0;
#X connect 14 0 15 0;
#X connect 15 0 12 0;
#X connect 16 0 31 0;
#X connect 17 0 18 0;
#X connect 17 0 21 0;
#X connect 17 0 23 0;
#X connect 18 0 19 0;
#X connect 19 0 20 1;
#X connect 19 0 21 1;
#X connect 20 0 22 0;
#X connect 21 0 22 1;
#X connect 22 0 24 0;
#X connect 23 0 20 0;
#X connect 24 0 1 0;
#X connect 24 0 26 0;
#X connect 25 0 17 0;
#X connect 31 0 0 0;
#X connect 31 0 0 1;
#X connect 31 0 30 0;
#X connect 35 0 9 1;
