#N canvas 0 0 229 602 10;
#X obj 97 151 -~ 0.5;
#X obj 97 171 *~ 2;
#X obj 65 205 min~ 0;
#X obj 122 204 max~ 0;
#X obj 122 227 *~;
#X obj 4 305 wrap~;
#X obj 4 328 cos~;
#X obj 4 349 *~;
#X obj 56 444 +~;
#X obj 4 392 +~;
#X obj 122 250 *~;
#X obj 4 283 *~;
#X obj 4 370 *~ 0.5;
#X obj 56 471 hip~ 700;
#X obj 94 -17 phasor~;
#X obj 136 13 *~ -1;
#X obj 136 34 +~ 1;
#X obj 72 77 min~;
#X obj 138 78 min~;
#X obj 97 109 min~;
#X obj 72 46 *~ 0.2;
#X obj 97 131 *~ 6;
#X obj 73 418 *~ 2;
#X obj 4 173 inlet~ res;
#X obj 94 -40 inlet~ freq;
#X obj 56 496 outlet~;
#X connect 0 0 1 0;
#X connect 1 0 2 0;
#X connect 1 0 3 0;
#X connect 2 0 7 1;
#X connect 2 0 9 1;
#X connect 2 0 11 1;
#X connect 3 0 4 0;
#X connect 3 0 4 1;
#X connect 4 0 10 0;
#X connect 4 0 10 1;
#X connect 5 0 6 0;
#X connect 6 0 7 0;
#X connect 7 0 12 0;
#X connect 8 0 13 0;
#X connect 9 0 8 0;
#X connect 10 0 22 0;
#X connect 11 0 5 0;
#X connect 12 0 9 0;
#X connect 13 0 25 0;
#X connect 14 0 15 0;
#X connect 14 0 18 0;
#X connect 14 0 20 0;
#X connect 15 0 16 0;
#X connect 16 0 17 1;
#X connect 16 0 18 1;
#X connect 17 0 19 0;
#X connect 18 0 19 1;
#X connect 19 0 21 0;
#X connect 20 0 17 0;
#X connect 21 0 0 0;
#X connect 22 0 8 1;
#X connect 23 0 11 0;
#X connect 24 0 14 0;
