#N canvas 201 224 129 338 10;
#N canvas 0 0 450 300 grapha 0;
#X obj 100 100 cnv 15 100 100 empty empty empty 20 12 0 14 -262144
-66577 0;
#N canvas 0 0 450 300 graph3 0;
#X array A 100 float 0;
#X coords 0 1 99 -1 100 100 1;
#X restore 100 100 graph;
#X obj 210 209 tabwrite~ A;
#X obj 289 155 inlet~;
#X obj 210 130 loadbang;
#X obj 278 131 bng 15 250 50 0 empty empty empty 0 -6 0 8 -262144 -1
-1;
#X obj 217 178 s b;
#X obj 210 155 metro 200;
#X connect 3 0 2 0;
#X connect 4 0 7 0;
#X connect 5 0 7 0;
#X connect 7 0 2 0;
#X connect 7 0 6 0;
#X coords 0 -1 1 1 100 100 1 100 100;
#X restore 28 75 pd grapha;
#N canvas 0 0 450 300 grapha 0;
#X obj 100 100 cnv 15 100 100 empty empty empty 20 12 0 14 -262144
-66577 0;
#N canvas 0 0 450 300 graph3 0;
#X array B 100 float 0;
#X coords 0 1 99 -1 100 100 1;
#X restore 100 100 graph;
#X obj 289 155 inlet~;
#X obj 210 182 tabwrite~ B;
#X obj 210 156 r b;
#X connect 2 0 3 0;
#X connect 4 0 3 0;
#X coords 0 -1 1 1 100 100 1 100 100;
#X restore 28 237 pd grapha;
#X obj 0 0 osc~ 670;
#X obj 0 42 clip~ -0.9 0.9;
#X obj 0 204 *~ 0.06;
#X obj 0 182 rpole~ 0.999;
#X obj 0 21 *~ 10000;
#X connect 2 0 6 0;
#X connect 3 0 0 0;
#X connect 3 0 5 0;
#X connect 4 0 1 0;
#X connect 5 0 4 0;
#X connect 6 0 3 0;
