#N canvas 178 88 286 307 10;
#X obj 16 102 *~ 2;
#X obj 0 153 *~ 0.5;
#X obj 0 129 *~;
#X obj 148 31 *~;
#X obj 132 54 *~;
#X obj 132 107 +~;
#X obj 132 154 *~ 0.45;
#X obj 132 131 +~;
#X obj 208 30 *~ -5;
#X obj 132 75 *~ -18;
#X obj 180 57 *~ 23;
#N canvas 0 0 450 300 grapha 0;
#X obj 100 100 cnv 15 100 100 empty empty empty 20 12 0 14 -262144
-66577 0;
#N canvas 0 0 450 300 graph3 0;
#X array A 100 float 0;
#X coords 0 1 99 -1 100 100 1;
#X restore 100 100 graph;
#X obj 210 209 tabwrite~ A;
#X obj 289 155 inlet~;
#X obj 210 130 loadbang;
#X obj 278 131 bng 15 250 50 0 empty empty empty 0 -6 0 8 -262144 -1
-1;
#X obj 217 178 s b;
#X obj 210 155 metro 200;
#X connect 3 0 2 0;
#X connect 4 0 7 0;
#X connect 5 0 7 0;
#X connect 7 0 2 0;
#X connect 7 0 6 0;
#X coords 0 -1 1 1 100 100 1 100 100;
#X restore 25 184 pd grapha;
#N canvas 0 0 450 300 grapha 0;
#X obj 100 100 cnv 15 100 100 empty empty empty 20 12 0 14 -262144
-66577 0;
#N canvas 0 0 450 300 graph3 0;
#X array B 100 float 0;
#X coords 0 1 99 -1 100 100 1;
#X restore 100 100 graph;
#X obj 289 155 inlet~;
#X obj 210 182 tabwrite~ B;
#X obj 210 156 r b;
#X connect 2 0 3 0;
#X connect 4 0 3 0;
#X coords 0 -1 1 1 100 100 1 100 100;
#X restore 156 184 pd grapha;
#X obj 0 67 phasor~ 670;
#X obj 132 0 phasor~ 670;
#X text 45 289 x * 2x;
#X text 143 289 -18x^3 + 23x^2 - 5x;
#X connect 0 0 2 1;
#X connect 1 0 11 0;
#X connect 2 0 1 0;
#X connect 3 0 4 1;
#X connect 3 0 10 0;
#X connect 4 0 9 0;
#X connect 5 0 7 0;
#X connect 6 0 12 0;
#X connect 7 0 6 0;
#X connect 8 0 7 1;
#X connect 9 0 5 0;
#X connect 10 0 5 1;
#X connect 13 0 0 0;
#X connect 13 0 2 0;
#X connect 14 0 3 0;
#X connect 14 0 3 1;
#X connect 14 0 4 0;
#X connect 14 0 8 0;
