#N canvas 49 132 228 303 10;
#X obj -1 46 *~;
#N canvas 0 0 450 300 grapha 0;
#X obj 100 100 cnv 15 100 100 empty empty empty 20 12 0 14 -262144
-66577 0;
#N canvas 0 0 450 300 graph3 0;
#X array A 1000 float 0;
#X coords 0 1 999 -1 100 100 1;
#X restore 100 100 graph;
#X obj 210 209 tabwrite~ A;
#X obj 289 155 inlet~;
#X obj 210 181 r b;
#X connect 3 0 2 0;
#X connect 4 0 2 0;
#X coords 0 -1 1 1 100 100 1 100 100;
#X restore 125 86 pd grapha;
#N canvas 0 0 450 300 grapha 0;
#X obj 100 100 cnv 15 100 100 empty empty empty 20 12 0 14 -262144
-66577 0;
#N canvas 0 0 450 300 graph3 0;
#X array B 1000 float 0;
#X coords 0 1 999 -1 100 100 1;
#X restore 100 100 graph;
#X obj 289 155 inlet~;
#X obj 210 182 tabwrite~ B;
#X obj 210 156 r b;
#X connect 2 0 3 0;
#X connect 4 0 3 0;
#X coords 0 -1 1 1 100 100 1 100 100;
#X restore 125 201 pd grapha;
#X obj -1 90 delwrite~ d1 100;
#X obj 140 8 bng 15 250 50 0 empty empty empty 0 -6 0 8 -262144 -1
-1;
#X obj 140 33 s b;
#X obj -1 149 delread~ d1 10;
#X obj -1 21 vline~;
#X msg -1 0 1 0 1 \, 0 15 1;
#X connect 0 0 3 0;
#X connect 0 0 1 0;
#X connect 4 0 5 0;
#X connect 4 0 8 0;
#X connect 6 0 2 0;
#X connect 7 0 0 0;
#X connect 7 0 0 1;
#X connect 8 0 7 0;
