#N canvas 229 98 421 334 10;
#X obj 188 28 -~ 0.5;
#X obj 188 112 +~;
#X obj 204 84 *~ -2;
#X obj 188 138 -~ 0.25;
#X obj 188 0 phasor~ 1290;
#X obj 188 160 *~ 4;
#X obj 204 56 clip~ -0.5 0;
#N canvas 0 0 450 300 grapha 0;
#X obj 100 100 cnv 15 100 100 empty empty empty 20 12 0 14 -262144
-66577 0;
#N canvas 0 0 450 300 graph3 0;
#X array A 100 float 0;
#X coords 0 1 99 -1 100 100 1;
#X restore 100 100 graph;
#X obj 210 209 tabwrite~ A;
#X obj 210 130 loadbang;
#X obj 278 131 bng 15 250 50 0 empty empty empty 0 -6 0 8 -262144 -1
-1;
#X obj 217 178 s b;
#X obj 210 155 metro 200;
#X obj 289 155 r~ A;
#X connect 3 0 6 0;
#X connect 4 0 6 0;
#X connect 6 0 2 0;
#X connect 6 0 5 0;
#X connect 7 0 2 0;
#X coords 0 -1 1 1 100 100 1 100 100;
#X restore 2 226 pd grapha;
#N canvas 0 0 450 300 grapha 0;
#X obj 100 100 cnv 15 100 100 empty empty empty 20 12 0 14 -262144
-66577 0;
#N canvas 0 0 450 300 graph3 0;
#X array B 100 float 0;
#X coords 0 1 99 -1 100 100 1;
#X restore 100 100 graph;
#X obj 210 182 tabwrite~ B;
#X obj 210 156 r b;
#X obj 289 155 r~ B;
#X connect 3 0 2 0;
#X connect 4 0 2 0;
#X coords 0 -1 1 1 100 100 1 100 100;
#X restore 107 226 pd grapha;
#N canvas 0 0 450 300 grapha 0;
#X obj 100 100 cnv 15 100 100 empty empty empty 20 12 0 14 -262144
-66577 0;
#N canvas 0 0 450 300 graph3 0;
#X array C 100 float 0;
#X coords 0 1 99 -1 100 100 1;
#X restore 100 100 graph;
#X obj 210 156 r b;
#X obj 210 182 tabwrite~ C;
#X obj 289 155 r~ C;
#X connect 2 0 3 0;
#X connect 4 0 3 0;
#X coords 0 -1 1 1 100 100 1 100 100;
#X restore 210 226 pd grapha;
#N canvas 0 0 450 300 grapha 0;
#X obj 100 100 cnv 15 100 100 empty empty empty 20 12 0 14 -262144
-66577 0;
#N canvas 0 0 450 300 graph3 0;
#X array D 100 float 0;
#X coords 0 1 99 -1 100 100 1;
#X restore 100 100 graph;
#X obj 210 156 r b;
#X obj 210 182 tabwrite~ D;
#X obj 289 155 r~ D;
#X connect 2 0 3 0;
#X connect 4 0 3 0;
#X coords 0 -1 1 1 100 100 1 100 100;
#X restore 314 226 pd grapha;
#X obj 188 183 s~ D;
#X obj 238 27 s~ A;
#X obj 156 64 s~ B;
#X obj 221 112 s~ C;
#X connect 0 0 1 0;
#X connect 0 0 6 0;
#X connect 0 0 13 0;
#X connect 1 0 3 0;
#X connect 2 0 1 1;
#X connect 2 0 14 0;
#X connect 3 0 5 0;
#X connect 4 0 0 0;
#X connect 4 0 12 0;
#X connect 5 0 11 0;
#X connect 6 0 2 0;
