#N canvas 582 508 73 100 10;
#X obj -2 18 osc~ \$1;
#X obj -2 39 *~ 1e+09;
#X obj -2 60 clip~ -1 1;
#X obj -2 80 outlet~;
#X obj -2 -2 inlet~;
#X connect 0 0 1 0;
#X connect 1 0 2 0;
#X connect 2 0 3 0;
#X connect 4 0 0 0;
