#N canvas 90 121 317 510 10;
#X obj 84 82 phasor~;
#X obj 97 0 hsl 128 15 0 1 0 1 empty empty walkspeed 32 7 1 8 -262144
-1 -1 0 1;
#X obj 0 72 > 0;
#X obj 102 471 dac~;
#X obj 85 161 min~;
#X obj 86 277 wrap~;
#X obj 101 184 sig~ 1;
#X obj 101 209 /~;
#X obj 86 232 *~;
#X obj 191 210 min~;
#X obj 191 325 wrap~;
#X obj 206 233 sig~ 1;
#X obj 206 258 /~;
#X obj 191 281 *~;
#X obj 190 155 wrap~;
#X obj 70 417 *~;
#X obj 159 416 *~;
#X obj 70 393 osc~ 456;
#X obj 159 392 osc~ 600;
#X obj 94 24 sig~;
#X obj 190 133 +~ 0.5;
#X obj 141 60 sig~ 1;
#X obj 142 83 -~;
#X obj 85 60 *~ 6;
#X obj 86 255 +~ 1e-05;
#X obj 191 303 +~ 1e-05;
#X obj 8 94 s active;
#X obj 102 309 r active;
#X obj 175 349 *~;
#X obj 86 351 *~;
#X obj 0 138 sel 1;
#X msg 0 159 0;
#X obj 0 180 s bashphase;
#X obj 128 36 r bashphase;
#X obj 0 117 change;
#X text 33 367 ---------------------------------;
#X text 193 418 test oscils;
#X obj 159 440 *~ 0.1;
#X obj 70 439 *~ 0.1;
#X connect 0 0 4 0;
#X connect 0 0 20 0;
#X connect 1 0 2 0;
#X connect 1 0 19 0;
#X connect 2 0 26 0;
#X connect 2 0 34 0;
#X connect 4 0 8 0;
#X connect 5 0 29 0;
#X connect 6 0 7 0;
#X connect 7 0 8 1;
#X connect 8 0 24 0;
#X connect 9 0 13 0;
#X connect 10 0 28 1;
#X connect 11 0 12 0;
#X connect 12 0 13 1;
#X connect 13 0 25 0;
#X connect 14 0 9 0;
#X connect 15 0 38 0;
#X connect 16 0 37 0;
#X connect 17 0 15 0;
#X connect 18 0 16 0;
#X connect 19 0 22 1;
#X connect 19 0 23 0;
#X connect 20 0 14 0;
#X connect 21 0 22 0;
#X connect 22 0 4 1;
#X connect 22 0 7 1;
#X connect 22 0 9 1;
#X connect 22 0 12 1;
#X connect 23 0 0 0;
#X connect 24 0 5 0;
#X connect 25 0 10 0;
#X connect 27 0 29 1;
#X connect 27 0 28 0;
#X connect 28 0 16 1;
#X connect 29 0 15 1;
#X connect 30 0 31 0;
#X connect 31 0 32 0;
#X connect 33 0 0 1;
#X connect 34 0 30 0;
#X connect 37 0 3 1;
#X connect 38 0 3 0;
