#N canvas 52 286 339 524 10;
#X obj 97 164 phasor~;
#X obj 13 154 > 0;
#X obj 98 243 min~;
#X obj 99 359 wrap~;
#X obj 114 266 sig~ 1;
#X obj 114 291 /~;
#X obj 99 314 *~;
#X obj 228 287 min~;
#X obj 228 402 wrap~;
#X obj 243 310 sig~ 1;
#X obj 243 335 /~;
#X obj 228 358 *~;
#X obj 227 232 wrap~;
#X obj 99 43 sig~;
#X obj 154 119 sig~ 1;
#X obj 155 165 -~;
#X obj 99 337 +~ 1e-05;
#X obj 228 380 +~ 1e-05;
#X obj 21 176 s active;
#X obj 162 336 r active;
#X obj 212 429 *~;
#X obj 99 433 *~;
#X obj 13 220 sel 1;
#X msg 13 241 0;
#X obj 13 262 s bashphase;
#X obj 141 98 r bashphase;
#X obj 13 199 change;
#X obj 99 19 inlet;
#X obj 98 455 outlet~ l;
#X obj 211 454 outlet~ r;
#X obj 98 68 lop~ 1;
#X obj 227 210 +~ 0.5;
#X obj 98 142 *~ 3;
#X obj 171 142 +~ 0.02;
#X obj 98 122 +~ 0.2;
#X obj 162 381 line~;
#X msg 162 359 \$1 500;
#X connect 0 0 2 0;
#X connect 0 0 31 0;
#X connect 1 0 18 0;
#X connect 1 0 26 0;
#X connect 2 0 6 0;
#X connect 3 0 21 0;
#X connect 4 0 5 0;
#X connect 5 0 6 1;
#X connect 6 0 16 0;
#X connect 7 0 11 0;
#X connect 8 0 20 1;
#X connect 9 0 10 0;
#X connect 10 0 11 1;
#X connect 11 0 17 0;
#X connect 12 0 7 0;
#X connect 13 0 30 0;
#X connect 14 0 15 0;
#X connect 15 0 2 1;
#X connect 15 0 5 1;
#X connect 15 0 7 1;
#X connect 15 0 10 1;
#X connect 16 0 3 0;
#X connect 17 0 8 0;
#X connect 19 0 36 0;
#X connect 20 0 29 0;
#X connect 21 0 28 0;
#X connect 22 0 23 0;
#X connect 23 0 24 0;
#X connect 25 0 0 1;
#X connect 26 0 22 0;
#X connect 27 0 13 0;
#X connect 27 0 1 0;
#X connect 30 0 33 0;
#X connect 30 0 34 0;
#X connect 31 0 12 0;
#X connect 32 0 0 0;
#X connect 33 0 15 1;
#X connect 34 0 32 0;
#X connect 35 0 21 1;
#X connect 35 0 20 0;
#X connect 36 0 35 0;
