{
	"patcher" : 	{
		"fileversion" : 1,
		"rect" : [ 104.0, 60.0, 568.0, 437.0 ],
		"bglocked" : 0,
		"defrect" : [ 104.0, 60.0, 568.0, 437.0 ],
		"openrect" : [ 0.0, 0.0, 0.0, 0.0 ],
		"openinpresentation" : 0,
		"default_fontsize" : 12.0,
		"default_fontface" : 0,
		"default_fontname" : "Arial",
		"gridonopen" : 0,
		"gridsize" : [ 15.0, 15.0 ],
		"gridsnaponopen" : 0,
		"toolbarvisible" : 0,
		"boxanimatetime" : 200,
		"imprint" : 0,
		"enablehscroll" : 1,
		"enablevscroll" : 1,
		"devicewidth" : 0.0,
		"boxes" : [ 			{
				"box" : 				{
					"maxclass" : "newobj",
					"text" : "tosymbol",
					"fontname" : "Arial",
					"numinlets" : 1,
					"id" : "obj-28",
					"numoutlets" : 1,
					"outlettype" : [ "" ],
					"fontsize" : 9.0,
					"hidden" : 1,
					"patching_rect" : [ 714.0, 54.0, 47.0, 17.0 ]
				}

			}
, 			{
				"box" : 				{
					"maxclass" : "newobj",
					"text" : "p readme",
					"fontname" : "Arial",
					"numinlets" : 0,
					"id" : "obj-1",
					"numoutlets" : 0,
					"fontsize" : 9.0,
					"patching_rect" : [ 437.0, 380.0, 51.0, 17.0 ],
					"patcher" : 					{
						"fileversion" : 1,
						"rect" : [ 167.0, 342.0, 430.0, 246.0 ],
						"bglocked" : 0,
						"defrect" : [ 167.0, 342.0, 430.0, 246.0 ],
						"openrect" : [ 0.0, 0.0, 0.0, 0.0 ],
						"openinpresentation" : 0,
						"default_fontsize" : 12.0,
						"default_fontface" : 0,
						"default_fontname" : "Arial",
						"gridonopen" : 0,
						"gridsize" : [ 15.0, 15.0 ],
						"gridsnaponopen" : 0,
						"toolbarvisible" : 1,
						"boxanimatetime" : 200,
						"imprint" : 0,
						"enablehscroll" : 1,
						"enablevscroll" : 1,
						"devicewidth" : 0.0,
						"boxes" : [ 							{
								"box" : 								{
									"maxclass" : "comment",
									"text" : "1) DROP-DOWN MENU: navigate menu items to select the available control mapping. The selected mapping is displayed in the box below",
									"linecount" : 2,
									"fontname" : "Arial",
									"numinlets" : 1,
									"id" : "obj-1",
									"numoutlets" : 0,
									"fontsize" : 10.0,
									"patching_rect" : [ 16.0, 56.0, 378.0, 29.0 ]
								}

							}
, 							{
								"box" : 								{
									"maxclass" : "comment",
									"text" : "3) CLICK TO UPDATE LIST: click on the box to update control mapping menu items in the drop-down menu.",
									"linecount" : 2,
									"fontname" : "Arial",
									"numinlets" : 1,
									"id" : "obj-2",
									"numoutlets" : 0,
									"fontsize" : 10.0,
									"patching_rect" : [ 16.0, 152.0, 378.0, 29.0 ]
								}

							}
, 							{
								"box" : 								{
									"maxclass" : "panel",
									"rounded" : 0,
									"numinlets" : 1,
									"id" : "obj-3",
									"numoutlets" : 0,
									"bgcolor" : [ 0.752941, 0.717647, 0.960784, 1.0 ],
									"patching_rect" : [ 16.0, 56.0, 119.0, 13.0 ]
								}

							}
, 							{
								"box" : 								{
									"maxclass" : "panel",
									"rounded" : 0,
									"numinlets" : 1,
									"id" : "obj-4",
									"numoutlets" : 0,
									"bgcolor" : [ 0.752941, 0.717647, 0.960784, 1.0 ],
									"patching_rect" : [ 16.0, 91.0, 162.0, 13.0 ]
								}

							}
, 							{
								"box" : 								{
									"maxclass" : "panel",
									"rounded" : 0,
									"numinlets" : 1,
									"id" : "obj-5",
									"numoutlets" : 0,
									"bgcolor" : [ 0.752941, 0.717647, 0.960784, 1.0 ],
									"patching_rect" : [ 16.0, 152.0, 133.0, 13.0 ]
								}

							}
, 							{
								"box" : 								{
									"maxclass" : "comment",
									"text" : "Splash N Bang to drop MIDI control mapping",
									"fontname" : "Arial Black",
									"numinlets" : 1,
									"id" : "obj-6",
									"numoutlets" : 0,
									"fontsize" : 12.0,
									"patching_rect" : [ 15.0, 21.0, 362.0, 23.0 ]
								}

							}
, 							{
								"box" : 								{
									"maxclass" : "comment",
									"text" : "2) DISPLAY BOX (purple color): click on the box to load and edit the correspondent control mapping patch. \"bang to splash\" mapping Max patch must be saved in SDT_contents/Library/Splash/MIDI_OSC_onebubble/splash_bang.",
									"linecount" : 4,
									"fontname" : "Arial",
									"numinlets" : 1,
									"id" : "obj-7",
									"numoutlets" : 0,
									"fontsize" : 10.0,
									"patching_rect" : [ 16.0, 91.0, 365.0, 52.0 ]
								}

							}
, 							{
								"box" : 								{
									"maxclass" : "panel",
									"rounded" : 0,
									"numinlets" : 1,
									"id" : "obj-8",
									"numoutlets" : 0,
									"bgcolor" : [ 0.67451, 0.945098, 0.611765, 1.0 ],
									"patching_rect" : [ 57.0, 119.0, 333.0, 15.0 ]
								}

							}
 ],
						"lines" : [  ]
					}
,
					"saved_object_attributes" : 					{
						"fontname" : "Arial",
						"default_fontsize" : 12.0,
						"fontface" : 0,
						"fontsize" : 12.0,
						"globalpatchername" : "",
						"default_fontface" : 0,
						"default_fontname" : "Arial"
					}

				}

			}
, 			{
				"box" : 				{
					"maxclass" : "message",
					"text" : "title SPLASH #1 Bang to Splash Control Mapping",
					"linecount" : 2,
					"fontname" : "Arial",
					"numinlets" : 2,
					"id" : "obj-2",
					"numoutlets" : 1,
					"outlettype" : [ "" ],
					"fontsize" : 9.0,
					"hidden" : 1,
					"patching_rect" : [ 441.0, -14.0, 125.0, 25.0 ]
				}

			}
, 			{
				"box" : 				{
					"maxclass" : "newobj",
					"text" : "t dump s",
					"fontname" : "Arial",
					"numinlets" : 1,
					"id" : "obj-3",
					"numoutlets" : 2,
					"outlettype" : [ "dump", "" ],
					"fontsize" : 9.0,
					"hidden" : 1,
					"patching_rect" : [ 598.0, 172.0, 48.0, 17.0 ]
				}

			}
, 			{
				"box" : 				{
					"maxclass" : "newobj",
					"text" : "sprintf nsub 1 11 %s",
					"fontname" : "Arial",
					"numinlets" : 1,
					"id" : "obj-4",
					"numoutlets" : 1,
					"outlettype" : [ "" ],
					"fontsize" : 9.0,
					"hidden" : 1,
					"patching_rect" : [ 598.0, 151.0, 105.0, 17.0 ]
				}

			}
, 			{
				"box" : 				{
					"maxclass" : "newobj",
					"text" : "coll splash_bang_replace",
					"fontname" : "Courier",
					"numinlets" : 1,
					"id" : "obj-5",
					"numoutlets" : 4,
					"outlettype" : [ "", "", "", "" ],
					"fontsize" : 10.0,
					"hidden" : 1,
					"patching_rect" : [ 598.0, 197.0, 154.0, 16.0 ],
					"saved_object_attributes" : 					{
						"embed" : 0
					}

				}

			}
, 			{
				"box" : 				{
					"maxclass" : "newobj",
					"text" : "pcontrol",
					"fontname" : "Arial",
					"numinlets" : 1,
					"id" : "obj-6",
					"numoutlets" : 1,
					"outlettype" : [ "" ],
					"fontsize" : 9.0,
					"hidden" : 1,
					"patching_rect" : [ 427.0, 359.0, 47.0, 17.0 ]
				}

			}
, 			{
				"box" : 				{
					"maxclass" : "message",
					"text" : "crump_bangmap.mxb",
					"fontname" : "Arial",
					"numinlets" : 2,
					"id" : "obj-7",
					"numoutlets" : 1,
					"outlettype" : [ "" ],
					"fontsize" : 9.0,
					"bgcolor" : [ 0.6, 0.4, 0.6, 1.0 ],
					"patching_rect" : [ 427.0, 280.0, 99.0, 15.0 ]
				}

			}
, 			{
				"box" : 				{
					"maxclass" : "newobj",
					"text" : "prepend set",
					"fontname" : "Arial",
					"numinlets" : 1,
					"id" : "obj-8",
					"numoutlets" : 1,
					"outlettype" : [ "" ],
					"fontsize" : 9.0,
					"hidden" : 1,
					"patching_rect" : [ 534.0, 151.0, 60.0, 17.0 ]
				}

			}
, 			{
				"box" : 				{
					"maxclass" : "newobj",
					"text" : "strippath",
					"fontname" : "Arial",
					"numinlets" : 1,
					"color" : [ 1.0, 0.890196, 0.090196, 1.0 ],
					"id" : "obj-9",
					"numoutlets" : 2,
					"outlettype" : [ "", "int" ],
					"fontsize" : 9.0,
					"hidden" : 1,
					"patching_rect" : [ 598.0, 128.0, 49.0, 17.0 ]
				}

			}
, 			{
				"box" : 				{
					"maxclass" : "newobj",
					"text" : "prepend load",
					"fontname" : "Arial",
					"numinlets" : 1,
					"id" : "obj-10",
					"numoutlets" : 1,
					"outlettype" : [ "" ],
					"fontsize" : 9.0,
					"hidden" : 1,
					"patching_rect" : [ 427.0, 335.0, 66.0, 17.0 ]
				}

			}
, 			{
				"box" : 				{
					"maxclass" : "newobj",
					"text" : "t bang",
					"fontname" : "Arial",
					"numinlets" : 1,
					"id" : "obj-11",
					"numoutlets" : 1,
					"outlettype" : [ "bang" ],
					"fontsize" : 9.0,
					"hidden" : 1,
					"patching_rect" : [ 526.0, 56.0, 37.0, 17.0 ]
				}

			}
, 			{
				"box" : 				{
					"maxclass" : "newobj",
					"text" : "sprintf %ssplash_bang/",
					"fontname" : "Arial",
					"numinlets" : 1,
					"id" : "obj-12",
					"numoutlets" : 1,
					"outlettype" : [ "" ],
					"fontsize" : 9.0,
					"hidden" : 1,
					"patching_rect" : [ 714.0, 34.0, 118.0, 17.0 ]
				}

			}
, 			{
				"box" : 				{
					"maxclass" : "newobj",
					"text" : "loadbang",
					"fontname" : "Arial",
					"numinlets" : 1,
					"id" : "obj-13",
					"numoutlets" : 1,
					"outlettype" : [ "bang" ],
					"fontsize" : 9.0,
					"hidden" : 1,
					"patching_rect" : [ 583.0, -37.0, 48.0, 17.0 ]
				}

			}
, 			{
				"box" : 				{
					"maxclass" : "newobj",
					"text" : "pack depth 4",
					"fontname" : "Arial",
					"numinlets" : 2,
					"id" : "obj-14",
					"numoutlets" : 1,
					"outlettype" : [ "" ],
					"fontsize" : 9.0,
					"hidden" : 1,
					"patching_rect" : [ 526.0, 77.0, 66.0, 17.0 ]
				}

			}
, 			{
				"box" : 				{
					"maxclass" : "message",
					"text" : "click to update list",
					"fontname" : "Arial",
					"numinlets" : 2,
					"id" : "obj-15",
					"numoutlets" : 1,
					"outlettype" : [ "" ],
					"fontsize" : 9.0,
					"patching_rect" : [ 425.0, 20.0, 93.0, 15.0 ]
				}

			}
, 			{
				"box" : 				{
					"maxclass" : "umenu",
					"fontname" : "Arial",
					"textcolor" : [ 1.0, 1.0, 1.0, 1.0 ],
					"numinlets" : 1,
					"framecolor" : [ 0.015686, 0.015686, 0.015686, 1.0 ],
					"id" : "obj-16",
					"numoutlets" : 3,
					"bgcolor2" : [ 0.647059, 0.647059, 0.647059, 1.0 ],
					"discolor" : [ 0.647059, 0.647059, 0.647059, 1.0 ],
					"depth" : 4,
					"outlettype" : [ "int", "", "" ],
					"fontsize" : 12.0,
					"togcolor" : [ 0.552941, 0.552941, 0.552941, 1.0 ],
					"autopopulate" : 1,
					"bgcolor" : [ 0.411765, 0.090196, 0.090196, 1.0 ],
					"textcolor2" : [ 1.0, 1.0, 1.0, 1.0 ],
					"types" : [  ],
					"patching_rect" : [ 425.0, 101.0, 121.0, 20.0 ],
					"items" : "splash_bangmap.maxpat",
					"prefix" : "Macintosh",
					"hltcolor" : [ 0.411765, 0.090196, 0.090196, 1.0 ]
				}

			}
, 			{
				"box" : 				{
					"maxclass" : "newobj",
					"text" : "prepend prefix",
					"fontname" : "Arial",
					"numinlets" : 1,
					"id" : "obj-17",
					"numoutlets" : 1,
					"outlettype" : [ "" ],
					"fontsize" : 9.0,
					"hidden" : 1,
					"patching_rect" : [ 714.0, 77.0, 76.0, 17.0 ]
				}

			}
, 			{
				"box" : 				{
					"maxclass" : "message",
					"text" : "autopopulate 1",
					"fontname" : "Arial",
					"numinlets" : 2,
					"id" : "obj-18",
					"numoutlets" : 1,
					"outlettype" : [ "" ],
					"fontsize" : 9.0,
					"hidden" : 1,
					"patching_rect" : [ 583.0, -3.0, 75.0, 15.0 ]
				}

			}
, 			{
				"box" : 				{
					"maxclass" : "message",
					"text" : "path",
					"fontname" : "Arial",
					"numinlets" : 2,
					"id" : "obj-19",
					"numoutlets" : 1,
					"outlettype" : [ "" ],
					"fontsize" : 9.0,
					"hidden" : 1,
					"patching_rect" : [ 663.0, -3.0, 29.0, 15.0 ]
				}

			}
, 			{
				"box" : 				{
					"maxclass" : "newobj",
					"text" : "thispatcher",
					"fontname" : "Arial",
					"numinlets" : 1,
					"id" : "obj-20",
					"numoutlets" : 2,
					"outlettype" : [ "", "" ],
					"fontsize" : 9.0,
					"hidden" : 1,
					"patching_rect" : [ 663.0, 14.0, 61.0, 17.0 ],
					"save" : [ "#N", "thispatcher", ";", "#Q", "end", ";" ]
				}

			}
, 			{
				"box" : 				{
					"maxclass" : "outlet",
					"varname" : "outlet_bottom",
					"numinlets" : 1,
					"id" : "obj-21",
					"numoutlets" : 0,
					"hidden" : 1,
					"patching_rect" : [ 11.0, 488.0, 15.0, 15.0 ],
					"comment" : ""
				}

			}
, 			{
				"box" : 				{
					"maxclass" : "inlet",
					"varname" : "inlet_up",
					"numinlets" : 0,
					"id" : "obj-22",
					"numoutlets" : 1,
					"outlettype" : [ "" ],
					"hidden" : 1,
					"patching_rect" : [ 11.0, -37.0, 15.0, 15.0 ],
					"comment" : "inlet_up"
				}

			}
, 			{
				"box" : 				{
					"maxclass" : "comment",
					"text" : "click to load and edit mapping patch.",
					"linecount" : 2,
					"fontname" : "Arial",
					"numinlets" : 1,
					"id" : "obj-23",
					"numoutlets" : 0,
					"fontsize" : 9.0,
					"patching_rect" : [ 430.0, 250.0, 100.0, 27.0 ]
				}

			}
, 			{
				"box" : 				{
					"maxclass" : "comment",
					"text" : "choose your control mapping patch",
					"linecount" : 2,
					"fontname" : "Arial",
					"numinlets" : 1,
					"id" : "obj-24",
					"numoutlets" : 0,
					"fontsize" : 9.0,
					"patching_rect" : [ 426.0, 125.0, 100.0, 27.0 ]
				}

			}
, 			{
				"box" : 				{
					"maxclass" : "bpatcher",
					"varname" : "splash_bang_MIDI_map",
					"numinlets" : 1,
					"id" : "obj-25",
					"numoutlets" : 1,
					"name" : "crump_bangmap.maxpat",
					"args" : [  ],
					"outlettype" : [ "bang" ],
					"border" : 1,
					"patching_rect" : [ 10.0, 11.0, 410.0, 410.0 ],
					"lockeddragscroll" : 1
				}

			}
 ],
		"lines" : [ 			{
				"patchline" : 				{
					"source" : [ "obj-28", 0 ],
					"destination" : [ "obj-17", 0 ],
					"hidden" : 1,
					"midpoints" : [  ]
				}

			}
, 			{
				"patchline" : 				{
					"source" : [ "obj-12", 0 ],
					"destination" : [ "obj-28", 0 ],
					"hidden" : 1,
					"midpoints" : [  ]
				}

			}
, 			{
				"patchline" : 				{
					"source" : [ "obj-25", 0 ],
					"destination" : [ "obj-21", 0 ],
					"hidden" : 1,
					"midpoints" : [  ]
				}

			}
, 			{
				"patchline" : 				{
					"source" : [ "obj-17", 0 ],
					"destination" : [ "obj-16", 0 ],
					"hidden" : 1,
					"midpoints" : [ 723.5, 107.0, 434.5, 107.0 ]
				}

			}
, 			{
				"patchline" : 				{
					"source" : [ "obj-18", 0 ],
					"destination" : [ "obj-16", 0 ],
					"hidden" : 1,
					"midpoints" : [  ]
				}

			}
, 			{
				"patchline" : 				{
					"source" : [ "obj-14", 0 ],
					"destination" : [ "obj-16", 0 ],
					"hidden" : 1,
					"midpoints" : [ 535.5, 97.0, 434.5, 97.0 ]
				}

			}
, 			{
				"patchline" : 				{
					"source" : [ "obj-8", 0 ],
					"destination" : [ "obj-7", 0 ],
					"hidden" : 1,
					"midpoints" : [ 543.5, 172.0, 436.5, 172.0 ]
				}

			}
, 			{
				"patchline" : 				{
					"source" : [ "obj-7", 0 ],
					"destination" : [ "obj-10", 0 ],
					"hidden" : 1,
					"midpoints" : [ 436.5, 326.0, 436.5, 326.0 ]
				}

			}
, 			{
				"patchline" : 				{
					"source" : [ "obj-10", 0 ],
					"destination" : [ "obj-6", 0 ],
					"hidden" : 1,
					"midpoints" : [  ]
				}

			}
, 			{
				"patchline" : 				{
					"source" : [ "obj-13", 0 ],
					"destination" : [ "obj-2", 0 ],
					"hidden" : 1,
					"midpoints" : [ 592.5, -17.0, 450.5, -17.0 ]
				}

			}
, 			{
				"patchline" : 				{
					"source" : [ "obj-15", 0 ],
					"destination" : [ "obj-11", 0 ],
					"hidden" : 1,
					"midpoints" : [ 434.5, 52.0, 461.0, 52.0, 461.0, 52.0, 535.5, 52.0 ]
				}

			}
, 			{
				"patchline" : 				{
					"source" : [ "obj-11", 0 ],
					"destination" : [ "obj-14", 0 ],
					"hidden" : 1,
					"midpoints" : [  ]
				}

			}
, 			{
				"patchline" : 				{
					"source" : [ "obj-9", 0 ],
					"destination" : [ "obj-8", 0 ],
					"hidden" : 1,
					"midpoints" : [ 607.5, 149.0, 543.5, 149.0 ]
				}

			}
, 			{
				"patchline" : 				{
					"source" : [ "obj-13", 0 ],
					"destination" : [ "obj-18", 0 ],
					"hidden" : 1,
					"midpoints" : [  ]
				}

			}
, 			{
				"patchline" : 				{
					"source" : [ "obj-16", 1 ],
					"destination" : [ "obj-9", 0 ],
					"hidden" : 1,
					"midpoints" : [ 485.5, 126.0, 607.5, 126.0 ]
				}

			}
, 			{
				"patchline" : 				{
					"source" : [ "obj-9", 0 ],
					"destination" : [ "obj-4", 0 ],
					"hidden" : 1,
					"midpoints" : [  ]
				}

			}
, 			{
				"patchline" : 				{
					"source" : [ "obj-4", 0 ],
					"destination" : [ "obj-3", 0 ],
					"hidden" : 1,
					"midpoints" : [  ]
				}

			}
, 			{
				"patchline" : 				{
					"source" : [ "obj-3", 0 ],
					"destination" : [ "obj-5", 0 ],
					"hidden" : 1,
					"midpoints" : [  ]
				}

			}
, 			{
				"patchline" : 				{
					"source" : [ "obj-3", 1 ],
					"destination" : [ "obj-5", 0 ],
					"hidden" : 1,
					"midpoints" : [  ]
				}

			}
, 			{
				"patchline" : 				{
					"source" : [ "obj-13", 0 ],
					"destination" : [ "obj-19", 0 ],
					"hidden" : 1,
					"midpoints" : [ 592.5, -7.0, 672.5, -7.0 ]
				}

			}
, 			{
				"patchline" : 				{
					"source" : [ "obj-5", 0 ],
					"destination" : [ "obj-20", 0 ],
					"hidden" : 1,
					"midpoints" : [ 607.5, 219.0, 808.0, 219.0, 808.0, 12.0, 672.5, 12.0 ]
				}

			}
, 			{
				"patchline" : 				{
					"source" : [ "obj-19", 0 ],
					"destination" : [ "obj-20", 0 ],
					"hidden" : 1,
					"midpoints" : [  ]
				}

			}
, 			{
				"patchline" : 				{
					"source" : [ "obj-2", 0 ],
					"destination" : [ "obj-20", 0 ],
					"hidden" : 1,
					"midpoints" : [ 450.5, 15.0, 672.5, 15.0 ]
				}

			}
, 			{
				"patchline" : 				{
					"source" : [ "obj-20", 1 ],
					"destination" : [ "obj-12", 0 ],
					"hidden" : 1,
					"midpoints" : [  ]
				}

			}
 ]
	}

}
