{
	"patcher" : 	{
		"fileversion" : 1,
		"appversion" : 		{
			"major" : 5,
			"minor" : 1,
			"revision" : 9
		}
,
		"rect" : [ 25.0, 69.0, 640.0, 480.0 ],
		"bglocked" : 0,
		"defrect" : [ 25.0, 69.0, 640.0, 480.0 ],
		"openrect" : [ 0.0, 0.0, 0.0, 0.0 ],
		"openinpresentation" : 0,
		"default_fontsize" : 12.0,
		"default_fontface" : 0,
		"default_fontname" : "Arial",
		"gridonopen" : 0,
		"gridsize" : [ 15.0, 15.0 ],
		"gridsnaponopen" : 0,
		"toolbarvisible" : 1,
		"boxanimatetime" : 200,
		"imprint" : 0,
		"enablehscroll" : 1,
		"enablevscroll" : 1,
		"devicewidth" : 0.0,
		"boxes" : [ 			{
				"box" : 				{
					"maxclass" : "comment",
					"text" : "Energy smoothing parameter",
					"fontsize" : 12.0,
					"presentation_rect" : [ 358.0, 43.0, 0.0, 0.0 ],
					"numinlets" : 1,
					"numoutlets" : 0,
					"patching_rect" : [ 325.0, 43.0, 165.0, 20.0 ],
					"id" : "obj-14",
					"fontname" : "Arial"
				}

			}
, 			{
				"box" : 				{
					"maxclass" : "comment",
					"text" : "Calibration",
					"fontsize" : 12.0,
					"presentation_rect" : [ 199.0, 45.0, 0.0, 0.0 ],
					"numinlets" : 1,
					"numoutlets" : 0,
					"patching_rect" : [ 199.0, 45.0, 68.0, 20.0 ],
					"id" : "obj-13",
					"fontname" : "Arial"
				}

			}
, 			{
				"box" : 				{
					"maxclass" : "comment",
					"text" : "On/Off",
					"fontsize" : 12.0,
					"numinlets" : 1,
					"numoutlets" : 0,
					"patching_rect" : [ 52.0, 45.0, 46.0, 20.0 ],
					"id" : "obj-12",
					"fontname" : "Arial"
				}

			}
, 			{
				"box" : 				{
					"maxclass" : "button",
					"presentation_rect" : [ 350.0, 142.0, 0.0, 0.0 ],
					"numinlets" : 1,
					"numoutlets" : 1,
					"patching_rect" : [ 363.0, 142.0, 20.0, 20.0 ],
					"id" : "obj-10",
					"outlettype" : [ "bang" ]
				}

			}
, 			{
				"box" : 				{
					"maxclass" : "multislider",
					"setminmax" : [ 0.0, 50.0 ],
					"setstyle" : 3,
					"presentation_rect" : [ 211.0, 170.0, 0.0, 0.0 ],
					"numinlets" : 1,
					"numoutlets" : 2,
					"patching_rect" : [ 213.0, 142.0, 132.0, 89.0 ],
					"id" : "obj-9",
					"outlettype" : [ "", "" ]
				}

			}
, 			{
				"box" : 				{
					"maxclass" : "multislider",
					"numinlets" : 1,
					"size" : 3,
					"numoutlets" : 2,
					"patching_rect" : [ 63.0, 142.0, 132.0, 89.0 ],
					"id" : "obj-8",
					"outlettype" : [ "", "" ]
				}

			}
, 			{
				"box" : 				{
					"maxclass" : "flonum",
					"fontsize" : 12.0,
					"numinlets" : 1,
					"numoutlets" : 2,
					"patching_rect" : [ 363.0, 72.0, 50.0, 20.0 ],
					"id" : "obj-7",
					"fontname" : "Arial",
					"minimum" : 1.0,
					"outlettype" : [ "float", "bang" ]
				}

			}
, 			{
				"box" : 				{
					"maxclass" : "button",
					"numinlets" : 1,
					"numoutlets" : 1,
					"patching_rect" : [ 213.0, 72.0, 20.0, 20.0 ],
					"id" : "obj-5",
					"outlettype" : [ "bang" ]
				}

			}
, 			{
				"box" : 				{
					"maxclass" : "toggle",
					"numinlets" : 1,
					"numoutlets" : 1,
					"patching_rect" : [ 63.0, 72.0, 20.0, 20.0 ],
					"id" : "obj-3",
					"outlettype" : [ "int" ]
				}

			}
, 			{
				"box" : 				{
					"maxclass" : "newobj",
					"text" : "TouchOsc 8001 20",
					"fontsize" : 12.0,
					"numinlets" : 3,
					"numoutlets" : 3,
					"patching_rect" : [ 63.0, 114.0, 319.0, 20.0 ],
					"id" : "obj-1",
					"fontname" : "Arial",
					"outlettype" : [ "", "float", "" ]
				}

			}
 ],
		"lines" : [ 			{
				"patchline" : 				{
					"source" : [ "obj-3", 0 ],
					"destination" : [ "obj-1", 0 ],
					"hidden" : 0,
					"midpoints" : [  ]
				}

			}
, 			{
				"patchline" : 				{
					"source" : [ "obj-5", 0 ],
					"destination" : [ "obj-1", 1 ],
					"hidden" : 0,
					"midpoints" : [  ]
				}

			}
, 			{
				"patchline" : 				{
					"source" : [ "obj-7", 0 ],
					"destination" : [ "obj-1", 2 ],
					"hidden" : 0,
					"midpoints" : [  ]
				}

			}
, 			{
				"patchline" : 				{
					"source" : [ "obj-1", 0 ],
					"destination" : [ "obj-8", 0 ],
					"hidden" : 0,
					"midpoints" : [  ]
				}

			}
, 			{
				"patchline" : 				{
					"source" : [ "obj-1", 1 ],
					"destination" : [ "obj-9", 0 ],
					"hidden" : 0,
					"midpoints" : [  ]
				}

			}
, 			{
				"patchline" : 				{
					"source" : [ "obj-1", 2 ],
					"destination" : [ "obj-10", 0 ],
					"hidden" : 0,
					"midpoints" : [  ]
				}

			}
 ]
	}

}
