{
	"patcher" : 	{
		"fileversion" : 1,
		"rect" : [ 47.0, 184.0, 275.0, 236.0 ],
		"bglocked" : 0,
		"defrect" : [ 47.0, 184.0, 275.0, 236.0 ],
		"openrect" : [ 0.0, 0.0, 0.0, 0.0 ],
		"openinpresentation" : 0,
		"default_fontsize" : 12.0,
		"default_fontface" : 0,
		"default_fontname" : "Arial",
		"gridonopen" : 0,
		"gridsize" : [ 15.0, 15.0 ],
		"gridsnaponopen" : 0,
		"toolbarvisible" : 1,
		"boxanimatetime" : 200,
		"imprint" : 0,
		"enablehscroll" : 1,
		"enablevscroll" : 1,
		"devicewidth" : 0.0,
		"boxes" : [ 			{
				"box" : 				{
					"maxclass" : "newobj",
					"text" : "p set_display_physical_parameters",
					"outlettype" : [ "", "", "", "", "", "", "", "", "", "", "", "", "", "", "" ],
					"patching_rect" : [ 30.0, -37.0, 235.0, 17.0 ],
					"id" : "obj-1",
					"fontname" : "Arial",
					"hidden" : 1,
					"numinlets" : 8,
					"numoutlets" : 15,
					"fontsize" : 9.0,
					"patcher" : 					{
						"fileversion" : 1,
						"rect" : [ 563.0, 413.0, 833.0, 418.0 ],
						"bglocked" : 0,
						"defrect" : [ 563.0, 413.0, 833.0, 418.0 ],
						"openrect" : [ 0.0, 0.0, 0.0, 0.0 ],
						"openinpresentation" : 0,
						"default_fontsize" : 12.0,
						"default_fontface" : 0,
						"default_fontname" : "Arial",
						"gridonopen" : 0,
						"gridsize" : [ 15.0, 15.0 ],
						"gridsnaponopen" : 0,
						"toolbarvisible" : 1,
						"boxanimatetime" : 200,
						"imprint" : 0,
						"enablehscroll" : 1,
						"enablevscroll" : 1,
						"devicewidth" : 0.0,
						"boxes" : [ 							{
								"box" : 								{
									"maxclass" : "inlet",
									"outlettype" : [ "" ],
									"patching_rect" : [ 260.0, 28.0, 15.0, 15.0 ],
									"id" : "obj-1",
									"numinlets" : 0,
									"numoutlets" : 1,
									"comment" : ""
								}

							}
, 							{
								"box" : 								{
									"maxclass" : "inlet",
									"outlettype" : [ "" ],
									"patching_rect" : [ 155.0, 27.0, 15.0, 15.0 ],
									"id" : "obj-2",
									"numinlets" : 0,
									"numoutlets" : 1,
									"comment" : ""
								}

							}
, 							{
								"box" : 								{
									"maxclass" : "inlet",
									"outlettype" : [ "" ],
									"patching_rect" : [ 68.0, 27.0, 15.0, 15.0 ],
									"id" : "obj-3",
									"numinlets" : 0,
									"numoutlets" : 1,
									"comment" : ""
								}

							}
, 							{
								"box" : 								{
									"maxclass" : "outlet",
									"patching_rect" : [ 504.0, 168.0, 15.0, 15.0 ],
									"id" : "obj-4",
									"numinlets" : 1,
									"numoutlets" : 0,
									"comment" : "HL - Surface roughness mbox"
								}

							}
, 							{
								"box" : 								{
									"maxclass" : "newobj",
									"text" : "prepend set",
									"outlettype" : [ "" ],
									"patching_rect" : [ 504.0, 127.0, 62.0, 17.0 ],
									"id" : "obj-5",
									"fontname" : "Arial",
									"numinlets" : 1,
									"numoutlets" : 1,
									"fontsize" : 9.0
								}

							}
, 							{
								"box" : 								{
									"maxclass" : "outlet",
									"patching_rect" : [ 432.0, 168.0, 15.0, 15.0 ],
									"id" : "obj-6",
									"numinlets" : 1,
									"numoutlets" : 0,
									"comment" : "HL - Bristle Visocsity mbox"
								}

							}
, 							{
								"box" : 								{
									"maxclass" : "newobj",
									"text" : "prepend set",
									"outlettype" : [ "" ],
									"patching_rect" : [ 432.0, 127.0, 62.0, 17.0 ],
									"id" : "obj-7",
									"fontname" : "Arial",
									"numinlets" : 1,
									"numoutlets" : 1,
									"fontsize" : 9.0
								}

							}
, 							{
								"box" : 								{
									"maxclass" : "outlet",
									"patching_rect" : [ 353.0, 168.0, 15.0, 15.0 ],
									"id" : "obj-8",
									"numinlets" : 1,
									"numoutlets" : 0,
									"comment" : "HL - Bristle stiffness mbox"
								}

							}
, 							{
								"box" : 								{
									"maxclass" : "newobj",
									"text" : "prepend set",
									"outlettype" : [ "" ],
									"patching_rect" : [ 353.0, 127.0, 62.0, 17.0 ],
									"id" : "obj-9",
									"fontname" : "Arial",
									"numinlets" : 1,
									"numoutlets" : 1,
									"fontsize" : 9.0
								}

							}
, 							{
								"box" : 								{
									"maxclass" : "outlet",
									"patching_rect" : [ 246.0, 169.0, 15.0, 15.0 ],
									"id" : "obj-10",
									"numinlets" : 1,
									"numoutlets" : 0,
									"comment" : "HL - Hammer mas mbox"
								}

							}
, 							{
								"box" : 								{
									"maxclass" : "newobj",
									"text" : "prepend set",
									"outlettype" : [ "" ],
									"patching_rect" : [ 246.0, 127.0, 62.0, 17.0 ],
									"id" : "obj-11",
									"fontname" : "Arial",
									"numinlets" : 1,
									"numoutlets" : 1,
									"fontsize" : 9.0
								}

							}
, 							{
								"box" : 								{
									"maxclass" : "newobj",
									"text" : "p r_mass_calc",
									"outlettype" : [ "" ],
									"patching_rect" : [ 246.0, 103.0, 76.0, 17.0 ],
									"id" : "obj-12",
									"fontname" : "Arial",
									"hidden" : 1,
									"numinlets" : 1,
									"numoutlets" : 1,
									"fontsize" : 9.0,
									"patcher" : 									{
										"fileversion" : 1,
										"rect" : [ 30.0, 89.0, 308.0, 272.0 ],
										"bglocked" : 0,
										"defrect" : [ 30.0, 89.0, 308.0, 272.0 ],
										"openrect" : [ 0.0, 0.0, 0.0, 0.0 ],
										"openinpresentation" : 0,
										"default_fontsize" : 12.0,
										"default_fontface" : 0,
										"default_fontname" : "Arial",
										"gridonopen" : 0,
										"gridsize" : [ 15.0, 15.0 ],
										"gridsnaponopen" : 0,
										"toolbarvisible" : 1,
										"boxanimatetime" : 200,
										"imprint" : 0,
										"enablehscroll" : 1,
										"enablevscroll" : 1,
										"devicewidth" : 0.0,
										"boxes" : [ 											{
												"box" : 												{
													"maxclass" : "outlet",
													"patching_rect" : [ 79.0, 177.0, 15.0, 15.0 ],
													"id" : "obj-1",
													"numinlets" : 1,
													"numoutlets" : 0,
													"comment" : ""
												}

											}
, 											{
												"box" : 												{
													"maxclass" : "inlet",
													"outlettype" : [ "" ],
													"patching_rect" : [ 79.0, 41.0, 15.0, 15.0 ],
													"id" : "obj-2",
													"numinlets" : 0,
													"numoutlets" : 1,
													"comment" : ""
												}

											}
, 											{
												"box" : 												{
													"maxclass" : "newobj",
													"text" : "expr pow($f1 \\, -1)",
													"linecount" : 2,
													"outlettype" : [ "" ],
													"patching_rect" : [ 79.0, 85.0, 78.0, 27.0 ],
													"id" : "obj-3",
													"fontname" : "Arial",
													"hidden" : 1,
													"numinlets" : 1,
													"numoutlets" : 1,
													"fontsize" : 9.0
												}

											}
, 											{
												"box" : 												{
													"maxclass" : "newobj",
													"text" : "scale 0. 100. 50. 400. 1.06",
													"outlettype" : [ "" ],
													"patching_rect" : [ 79.0, 60.0, 135.0, 17.0 ],
													"id" : "obj-4",
													"fontname" : "Arial",
													"hidden" : 1,
													"numinlets" : 6,
													"numoutlets" : 1,
													"fontsize" : 9.0
												}

											}
 ],
										"lines" : [ 											{
												"patchline" : 												{
													"source" : [ "obj-3", 0 ],
													"destination" : [ "obj-1", 0 ],
													"hidden" : 0,
													"midpoints" : [  ]
												}

											}
, 											{
												"patchline" : 												{
													"source" : [ "obj-4", 0 ],
													"destination" : [ "obj-3", 0 ],
													"hidden" : 1,
													"midpoints" : [  ]
												}

											}
, 											{
												"patchline" : 												{
													"source" : [ "obj-2", 0 ],
													"destination" : [ "obj-4", 0 ],
													"hidden" : 0,
													"midpoints" : [  ]
												}

											}
 ]
									}
,
									"saved_object_attributes" : 									{
										"default_fontface" : 0,
										"default_fontname" : "Arial",
										"fontname" : "Arial",
										"default_fontsize" : 12.0,
										"globalpatchername" : "",
										"fontface" : 0,
										"fontsize" : 12.0
									}

								}

							}
, 							{
								"box" : 								{
									"maxclass" : "outlet",
									"patching_rect" : [ 141.0, 168.0, 15.0, 15.0 ],
									"id" : "obj-13",
									"numinlets" : 1,
									"numoutlets" : 0,
									"comment" : "HL - Press on rub mbox"
								}

							}
, 							{
								"box" : 								{
									"maxclass" : "newobj",
									"text" : "prepend set",
									"outlettype" : [ "" ],
									"patching_rect" : [ 141.0, 127.0, 62.0, 17.0 ],
									"id" : "obj-14",
									"fontname" : "Arial",
									"numinlets" : 1,
									"numoutlets" : 1,
									"fontsize" : 9.0
								}

							}
, 							{
								"box" : 								{
									"maxclass" : "outlet",
									"patching_rect" : [ 53.0, 167.0, 15.0, 15.0 ],
									"id" : "obj-15",
									"numinlets" : 1,
									"numoutlets" : 0,
									"comment" : "HL - ext rub f m.box"
								}

							}
, 							{
								"box" : 								{
									"maxclass" : "newobj",
									"text" : "expr ($f1- 50.)*2.",
									"outlettype" : [ "" ],
									"patching_rect" : [ 53.0, 103.0, 97.0, 17.0 ],
									"id" : "obj-16",
									"fontname" : "Arial",
									"numinlets" : 1,
									"numoutlets" : 1,
									"fontsize" : 9.0
								}

							}
, 							{
								"box" : 								{
									"maxclass" : "newobj",
									"text" : "prepend set",
									"outlettype" : [ "" ],
									"patching_rect" : [ 53.0, 127.0, 62.0, 17.0 ],
									"id" : "obj-17",
									"fontname" : "Arial",
									"numinlets" : 1,
									"numoutlets" : 1,
									"fontsize" : 9.0
								}

							}
, 							{
								"box" : 								{
									"maxclass" : "newobj",
									"text" : "unpack 0. 0. 0.",
									"outlettype" : [ "float", "float", "float" ],
									"patching_rect" : [ 378.0, 48.0, 76.0, 17.0 ],
									"id" : "obj-18",
									"fontname" : "Arial",
									"numinlets" : 1,
									"numoutlets" : 3,
									"fontsize" : 9.0
								}

							}
, 							{
								"box" : 								{
									"maxclass" : "outlet",
									"patching_rect" : [ 485.0, 168.0, 15.0, 15.0 ],
									"id" : "obj-19",
									"numinlets" : 1,
									"numoutlets" : 0,
									"comment" : "HL - Surface roughness slider"
								}

							}
, 							{
								"box" : 								{
									"maxclass" : "newobj",
									"text" : "prepend set 1",
									"outlettype" : [ "" ],
									"patching_rect" : [ 485.0, 75.0, 71.0, 17.0 ],
									"id" : "obj-20",
									"fontname" : "Arial",
									"numinlets" : 1,
									"numoutlets" : 1,
									"fontsize" : 9.0
								}

							}
, 							{
								"box" : 								{
									"maxclass" : "inlet",
									"outlettype" : [ "" ],
									"patching_rect" : [ 114.0, 27.0, 15.0, 15.0 ],
									"id" : "obj-21",
									"numinlets" : 0,
									"numoutlets" : 1,
									"comment" : "HL - Pressure on rubber"
								}

							}
, 							{
								"box" : 								{
									"maxclass" : "newobj",
									"text" : "prepend set 1",
									"outlettype" : [ "" ],
									"patching_rect" : [ 114.0, 75.0, 71.0, 17.0 ],
									"id" : "obj-22",
									"fontname" : "Arial",
									"numinlets" : 1,
									"numoutlets" : 1,
									"fontsize" : 9.0
								}

							}
, 							{
								"box" : 								{
									"maxclass" : "outlet",
									"patching_rect" : [ 114.0, 167.0, 15.0, 15.0 ],
									"id" : "obj-23",
									"numinlets" : 1,
									"numoutlets" : 0,
									"comment" : "to high level - press on rub (prep set)"
								}

							}
, 							{
								"box" : 								{
									"maxclass" : "inlet",
									"outlettype" : [ "" ],
									"patching_rect" : [ 33.0, 27.0, 15.0, 15.0 ],
									"id" : "obj-24",
									"numinlets" : 0,
									"numoutlets" : 1,
									"comment" : "HL - Rubbiing force"
								}

							}
, 							{
								"box" : 								{
									"maxclass" : "newobj",
									"text" : "prepend set 1",
									"outlettype" : [ "" ],
									"patching_rect" : [ 33.0, 75.0, 71.0, 17.0 ],
									"id" : "obj-25",
									"fontname" : "Arial",
									"numinlets" : 1,
									"numoutlets" : 1,
									"fontsize" : 9.0
								}

							}
, 							{
								"box" : 								{
									"maxclass" : "outlet",
									"patching_rect" : [ 33.0, 167.0, 15.0, 15.0 ],
									"id" : "obj-26",
									"numinlets" : 1,
									"numoutlets" : 0,
									"comment" : "to high level - ext rub f (prep set)"
								}

							}
, 							{
								"box" : 								{
									"maxclass" : "newobj",
									"text" : "unpack 0. 0. 0.",
									"outlettype" : [ "float", "float", "float" ],
									"patching_rect" : [ 629.0, 48.0, 76.0, 17.0 ],
									"id" : "obj-27",
									"fontname" : "Arial",
									"numinlets" : 1,
									"numoutlets" : 3,
									"fontsize" : 9.0
								}

							}
, 							{
								"box" : 								{
									"maxclass" : "inlet",
									"outlettype" : [ "" ],
									"patching_rect" : [ 629.0, 29.0, 15.0, 15.0 ],
									"id" : "obj-28",
									"numinlets" : 0,
									"numoutlets" : 1,
									"comment" : "HL - global freq/dec/gain value (list)"
								}

							}
, 							{
								"box" : 								{
									"maxclass" : "inlet",
									"outlettype" : [ "" ],
									"patching_rect" : [ 378.0, 28.0, 15.0, 15.0 ],
									"id" : "obj-29",
									"numinlets" : 0,
									"numoutlets" : 1,
									"comment" : "HL - unpack [stiffness - viscosity - roughness]"
								}

							}
, 							{
								"box" : 								{
									"maxclass" : "outlet",
									"patching_rect" : [ 729.0, 170.0, 15.0, 15.0 ],
									"id" : "obj-30",
									"numinlets" : 1,
									"numoutlets" : 0,
									"comment" : "set global gain value"
								}

							}
, 							{
								"box" : 								{
									"maxclass" : "outlet",
									"patching_rect" : [ 662.0, 170.0, 15.0, 15.0 ],
									"id" : "obj-31",
									"numinlets" : 1,
									"numoutlets" : 0,
									"comment" : "set global decay value"
								}

							}
, 							{
								"box" : 								{
									"maxclass" : "outlet",
									"patching_rect" : [ 591.0, 170.0, 15.0, 15.0 ],
									"id" : "obj-32",
									"numinlets" : 1,
									"numoutlets" : 0,
									"comment" : "set global frequency value"
								}

							}
, 							{
								"box" : 								{
									"maxclass" : "outlet",
									"patching_rect" : [ 411.0, 168.0, 15.0, 15.0 ],
									"id" : "obj-33",
									"numinlets" : 1,
									"numoutlets" : 0,
									"comment" : "HL - Bristle viscosity slider"
								}

							}
, 							{
								"box" : 								{
									"maxclass" : "outlet",
									"patching_rect" : [ 334.0, 168.0, 15.0, 15.0 ],
									"id" : "obj-34",
									"numinlets" : 1,
									"numoutlets" : 0,
									"comment" : "HL - Bristle stiffness slider"
								}

							}
, 							{
								"box" : 								{
									"maxclass" : "newobj",
									"text" : "prepend set",
									"outlettype" : [ "" ],
									"patching_rect" : [ 729.0, 75.0, 62.0, 17.0 ],
									"id" : "obj-35",
									"fontname" : "Arial",
									"numinlets" : 1,
									"numoutlets" : 1,
									"fontsize" : 9.0
								}

							}
, 							{
								"box" : 								{
									"maxclass" : "newobj",
									"text" : "prepend set",
									"outlettype" : [ "" ],
									"patching_rect" : [ 662.0, 75.0, 62.0, 17.0 ],
									"id" : "obj-36",
									"fontname" : "Arial",
									"numinlets" : 1,
									"numoutlets" : 1,
									"fontsize" : 9.0
								}

							}
, 							{
								"box" : 								{
									"maxclass" : "newobj",
									"text" : "prepend set",
									"outlettype" : [ "" ],
									"patching_rect" : [ 591.0, 75.0, 62.0, 17.0 ],
									"id" : "obj-37",
									"fontname" : "Arial",
									"numinlets" : 1,
									"numoutlets" : 1,
									"fontsize" : 9.0
								}

							}
, 							{
								"box" : 								{
									"maxclass" : "newobj",
									"text" : "prepend set 1",
									"outlettype" : [ "" ],
									"patching_rect" : [ 411.0, 75.0, 71.0, 17.0 ],
									"id" : "obj-38",
									"fontname" : "Arial",
									"numinlets" : 1,
									"numoutlets" : 1,
									"fontsize" : 9.0
								}

							}
, 							{
								"box" : 								{
									"maxclass" : "newobj",
									"text" : "prepend set 1",
									"outlettype" : [ "" ],
									"patching_rect" : [ 334.0, 75.0, 71.0, 17.0 ],
									"id" : "obj-39",
									"fontname" : "Arial",
									"numinlets" : 1,
									"numoutlets" : 1,
									"fontsize" : 9.0
								}

							}
, 							{
								"box" : 								{
									"maxclass" : "newobj",
									"text" : "prepend set 1",
									"outlettype" : [ "" ],
									"patching_rect" : [ 229.0, 75.0, 71.0, 17.0 ],
									"id" : "obj-40",
									"fontname" : "Arial",
									"numinlets" : 1,
									"numoutlets" : 1,
									"fontsize" : 9.0
								}

							}
, 							{
								"box" : 								{
									"maxclass" : "inlet",
									"outlettype" : [ "" ],
									"patching_rect" : [ 229.0, 29.0, 15.0, 15.0 ],
									"id" : "obj-41",
									"numinlets" : 0,
									"numoutlets" : 1,
									"comment" : "HL - rubber mass"
								}

							}
, 							{
								"box" : 								{
									"maxclass" : "outlet",
									"patching_rect" : [ 229.0, 169.0, 15.0, 15.0 ],
									"id" : "obj-42",
									"numinlets" : 1,
									"numoutlets" : 0,
									"comment" : "set hammer mass slid value"
								}

							}
 ],
						"lines" : [ 							{
								"patchline" : 								{
									"source" : [ "obj-35", 0 ],
									"destination" : [ "obj-30", 0 ],
									"hidden" : 0,
									"midpoints" : [  ]
								}

							}
, 							{
								"patchline" : 								{
									"source" : [ "obj-27", 2 ],
									"destination" : [ "obj-35", 0 ],
									"hidden" : 0,
									"midpoints" : [ 695.5, 69.0, 738.5, 69.0 ]
								}

							}
, 							{
								"patchline" : 								{
									"source" : [ "obj-36", 0 ],
									"destination" : [ "obj-31", 0 ],
									"hidden" : 0,
									"midpoints" : [  ]
								}

							}
, 							{
								"patchline" : 								{
									"source" : [ "obj-27", 1 ],
									"destination" : [ "obj-36", 0 ],
									"hidden" : 0,
									"midpoints" : [  ]
								}

							}
, 							{
								"patchline" : 								{
									"source" : [ "obj-28", 0 ],
									"destination" : [ "obj-27", 0 ],
									"hidden" : 0,
									"midpoints" : [  ]
								}

							}
, 							{
								"patchline" : 								{
									"source" : [ "obj-37", 0 ],
									"destination" : [ "obj-32", 0 ],
									"hidden" : 0,
									"midpoints" : [  ]
								}

							}
, 							{
								"patchline" : 								{
									"source" : [ "obj-27", 0 ],
									"destination" : [ "obj-37", 0 ],
									"hidden" : 0,
									"midpoints" : [ 638.5, 69.0, 600.5, 69.0 ]
								}

							}
, 							{
								"patchline" : 								{
									"source" : [ "obj-5", 0 ],
									"destination" : [ "obj-4", 0 ],
									"hidden" : 0,
									"midpoints" : [  ]
								}

							}
, 							{
								"patchline" : 								{
									"source" : [ "obj-18", 2 ],
									"destination" : [ "obj-5", 0 ],
									"hidden" : 0,
									"midpoints" : [ 444.5, 100.0, 513.5, 100.0 ]
								}

							}
, 							{
								"patchline" : 								{
									"source" : [ "obj-20", 0 ],
									"destination" : [ "obj-19", 0 ],
									"hidden" : 0,
									"midpoints" : [  ]
								}

							}
, 							{
								"patchline" : 								{
									"source" : [ "obj-18", 2 ],
									"destination" : [ "obj-20", 0 ],
									"hidden" : 0,
									"midpoints" : [ 444.5, 68.0, 494.5, 68.0 ]
								}

							}
, 							{
								"patchline" : 								{
									"source" : [ "obj-7", 0 ],
									"destination" : [ "obj-6", 0 ],
									"hidden" : 0,
									"midpoints" : [  ]
								}

							}
, 							{
								"patchline" : 								{
									"source" : [ "obj-18", 1 ],
									"destination" : [ "obj-7", 0 ],
									"hidden" : 0,
									"midpoints" : [ 416.0, 97.0, 441.5, 97.0 ]
								}

							}
, 							{
								"patchline" : 								{
									"source" : [ "obj-38", 0 ],
									"destination" : [ "obj-33", 0 ],
									"hidden" : 0,
									"midpoints" : [  ]
								}

							}
, 							{
								"patchline" : 								{
									"source" : [ "obj-18", 1 ],
									"destination" : [ "obj-38", 0 ],
									"hidden" : 0,
									"midpoints" : [  ]
								}

							}
, 							{
								"patchline" : 								{
									"source" : [ "obj-29", 0 ],
									"destination" : [ "obj-18", 0 ],
									"hidden" : 0,
									"midpoints" : [  ]
								}

							}
, 							{
								"patchline" : 								{
									"source" : [ "obj-9", 0 ],
									"destination" : [ "obj-8", 0 ],
									"hidden" : 0,
									"midpoints" : [  ]
								}

							}
, 							{
								"patchline" : 								{
									"source" : [ "obj-18", 0 ],
									"destination" : [ "obj-9", 0 ],
									"hidden" : 0,
									"midpoints" : [ 387.5, 104.0, 362.5, 104.0 ]
								}

							}
, 							{
								"patchline" : 								{
									"source" : [ "obj-39", 0 ],
									"destination" : [ "obj-34", 0 ],
									"hidden" : 0,
									"midpoints" : [  ]
								}

							}
, 							{
								"patchline" : 								{
									"source" : [ "obj-18", 0 ],
									"destination" : [ "obj-39", 0 ],
									"hidden" : 0,
									"midpoints" : [ 387.5, 67.0, 343.5, 67.0 ]
								}

							}
, 							{
								"patchline" : 								{
									"source" : [ "obj-11", 0 ],
									"destination" : [ "obj-10", 0 ],
									"hidden" : 0,
									"midpoints" : [  ]
								}

							}
, 							{
								"patchline" : 								{
									"source" : [ "obj-12", 0 ],
									"destination" : [ "obj-11", 0 ],
									"hidden" : 0,
									"midpoints" : [  ]
								}

							}
, 							{
								"patchline" : 								{
									"source" : [ "obj-41", 0 ],
									"destination" : [ "obj-12", 0 ],
									"hidden" : 0,
									"midpoints" : [ 238.0, 59.0, 255.5, 59.0 ]
								}

							}
, 							{
								"patchline" : 								{
									"source" : [ "obj-1", 0 ],
									"destination" : [ "obj-12", 0 ],
									"hidden" : 0,
									"midpoints" : [  ]
								}

							}
, 							{
								"patchline" : 								{
									"source" : [ "obj-40", 0 ],
									"destination" : [ "obj-42", 0 ],
									"hidden" : 0,
									"midpoints" : [  ]
								}

							}
, 							{
								"patchline" : 								{
									"source" : [ "obj-41", 0 ],
									"destination" : [ "obj-40", 0 ],
									"hidden" : 0,
									"midpoints" : [ 238.0, 48.0, 238.5, 48.0 ]
								}

							}
, 							{
								"patchline" : 								{
									"source" : [ "obj-14", 0 ],
									"destination" : [ "obj-13", 0 ],
									"hidden" : 0,
									"midpoints" : [  ]
								}

							}
, 							{
								"patchline" : 								{
									"source" : [ "obj-2", 0 ],
									"destination" : [ "obj-14", 0 ],
									"hidden" : 0,
									"midpoints" : [  ]
								}

							}
, 							{
								"patchline" : 								{
									"source" : [ "obj-21", 0 ],
									"destination" : [ "obj-14", 0 ],
									"hidden" : 0,
									"midpoints" : [ 123.0, 58.0, 150.5, 58.0 ]
								}

							}
, 							{
								"patchline" : 								{
									"source" : [ "obj-22", 0 ],
									"destination" : [ "obj-23", 0 ],
									"hidden" : 0,
									"midpoints" : [  ]
								}

							}
, 							{
								"patchline" : 								{
									"source" : [ "obj-21", 0 ],
									"destination" : [ "obj-22", 0 ],
									"hidden" : 0,
									"midpoints" : [  ]
								}

							}
, 							{
								"patchline" : 								{
									"source" : [ "obj-17", 0 ],
									"destination" : [ "obj-15", 0 ],
									"hidden" : 0,
									"midpoints" : [  ]
								}

							}
, 							{
								"patchline" : 								{
									"source" : [ "obj-16", 0 ],
									"destination" : [ "obj-17", 0 ],
									"hidden" : 0,
									"midpoints" : [  ]
								}

							}
, 							{
								"patchline" : 								{
									"source" : [ "obj-3", 0 ],
									"destination" : [ "obj-16", 0 ],
									"hidden" : 0,
									"midpoints" : [  ]
								}

							}
, 							{
								"patchline" : 								{
									"source" : [ "obj-24", 0 ],
									"destination" : [ "obj-16", 0 ],
									"hidden" : 0,
									"midpoints" : [ 42.0, 53.0, 62.5, 53.0 ]
								}

							}
, 							{
								"patchline" : 								{
									"source" : [ "obj-25", 0 ],
									"destination" : [ "obj-26", 0 ],
									"hidden" : 0,
									"midpoints" : [  ]
								}

							}
, 							{
								"patchline" : 								{
									"source" : [ "obj-24", 0 ],
									"destination" : [ "obj-25", 0 ],
									"hidden" : 0,
									"midpoints" : [  ]
								}

							}
 ]
					}
,
					"saved_object_attributes" : 					{
						"default_fontface" : 0,
						"default_fontname" : "Arial",
						"fontname" : "Arial",
						"default_fontsize" : 12.0,
						"globalpatchername" : "",
						"fontface" : 0,
						"fontsize" : 12.0
					}

				}

			}
, 			{
				"box" : 				{
					"maxclass" : "comment",
					"text" : "Pressure on Rubber",
					"linecount" : 2,
					"patching_rect" : [ 153.0, 197.0, 56.0, 29.0 ],
					"id" : "obj-2",
					"fontname" : "Arial",
					"numinlets" : 1,
					"numoutlets" : 0,
					"fontsize" : 10.0
				}

			}
, 			{
				"box" : 				{
					"maxclass" : "comment",
					"text" : "Rubbing Force",
					"linecount" : 2,
					"patching_rect" : [ 99.0, 197.0, 49.0, 29.0 ],
					"id" : "obj-3",
					"fontname" : "Arial",
					"numinlets" : 1,
					"numoutlets" : 0,
					"fontsize" : 10.0
				}

			}
, 			{
				"box" : 				{
					"maxclass" : "outlet",
					"patching_rect" : [ 123.0, 338.0, 15.0, 15.0 ],
					"id" : "obj-4",
					"hidden" : 1,
					"numinlets" : 1,
					"numoutlets" : 0,
					"comment" : "pressure on rubber - slider"
				}

			}
, 			{
				"box" : 				{
					"maxclass" : "outlet",
					"patching_rect" : [ 104.0, 338.0, 15.0, 15.0 ],
					"id" : "obj-5",
					"hidden" : 1,
					"numinlets" : 1,
					"numoutlets" : 0,
					"comment" : "rubbing force - slider"
				}

			}
, 			{
				"box" : 				{
					"maxclass" : "message",
					"text" : "0.",
					"outlettype" : [ "" ],
					"patching_rect" : [ 150.0, 301.0, 59.0, 15.0 ],
					"ignoreclick" : 1,
					"id" : "obj-6",
					"fontname" : "Arial",
					"numinlets" : 2,
					"numoutlets" : 1,
					"fontsize" : 9.0
				}

			}
, 			{
				"box" : 				{
					"maxclass" : "message",
					"text" : "-100.",
					"outlettype" : [ "" ],
					"patching_rect" : [ 88.0, 301.0, 74.0, 15.0 ],
					"ignoreclick" : 1,
					"id" : "obj-7",
					"fontname" : "Arial",
					"numinlets" : 2,
					"numoutlets" : 1,
					"fontsize" : 9.0
				}

			}
, 			{
				"box" : 				{
					"maxclass" : "outlet",
					"patching_rect" : [ 46.0, 338.0, 15.0, 15.0 ],
					"id" : "obj-8",
					"hidden" : 1,
					"numinlets" : 1,
					"numoutlets" : 0,
					"comment" : "Surface roughness - slider"
				}

			}
, 			{
				"box" : 				{
					"maxclass" : "inlet",
					"outlettype" : [ "" ],
					"patching_rect" : [ 254.0, -60.0, 15.0, 15.0 ],
					"id" : "obj-9",
					"hidden" : 1,
					"numinlets" : 0,
					"numoutlets" : 1,
					"comment" : "Global factors - list"
				}

			}
, 			{
				"box" : 				{
					"maxclass" : "multislider",
					"outlettype" : [ "", "" ],
					"candicane6" : [ 0.733333, 0.035294, 0.788235, 1.0 ],
					"candicane5" : [ 0.584314, 0.827451, 0.431373, 1.0 ],
					"setminmax" : [ 0.0, 100.0 ],
					"slidercolor" : [ 1.0, 1.0, 1.0, 1.0 ],
					"bordercolor" : [ 1.0, 1.0, 1.0, 1.0 ],
					"candicane4" : [ 0.439216, 0.619608, 0.070588, 1.0 ],
					"patching_rect" : [ 173.0, 228.0, 13.0, 69.0 ],
					"contdata" : 1,
					"id" : "obj-10",
					"peakcolor" : [ 0.498039, 0.498039, 0.498039, 1.0 ],
					"candicane3" : [ 0.290196, 0.411765, 0.713726, 1.0 ],
					"numinlets" : 1,
					"candicane8" : [ 0.027451, 0.447059, 0.501961, 1.0 ],
					"bgcolor" : [ 0.796078, 0.607843, 0.376471, 1.0 ],
					"candicane2" : [ 0.145098, 0.203922, 0.356863, 1.0 ],
					"numoutlets" : 2,
					"candicane7" : [ 0.878431, 0.243137, 0.145098, 1.0 ]
				}

			}
, 			{
				"box" : 				{
					"maxclass" : "multislider",
					"outlettype" : [ "", "" ],
					"candicane6" : [ 0.733333, 0.035294, 0.788235, 1.0 ],
					"candicane5" : [ 0.584314, 0.827451, 0.431373, 1.0 ],
					"setminmax" : [ 0.0, 100.0 ],
					"slidercolor" : [ 1.0, 1.0, 1.0, 1.0 ],
					"bordercolor" : [ 1.0, 1.0, 1.0, 1.0 ],
					"candicane4" : [ 0.439216, 0.619608, 0.070588, 1.0 ],
					"patching_rect" : [ 119.0, 228.0, 13.0, 69.0 ],
					"contdata" : 1,
					"id" : "obj-11",
					"peakcolor" : [ 0.498039, 0.498039, 0.498039, 1.0 ],
					"candicane3" : [ 0.290196, 0.411765, 0.713726, 1.0 ],
					"numinlets" : 1,
					"candicane8" : [ 0.027451, 0.447059, 0.501961, 1.0 ],
					"bgcolor" : [ 0.396078, 0.396078, 0.796078, 1.0 ],
					"candicane2" : [ 0.145098, 0.203922, 0.356863, 1.0 ],
					"numoutlets" : 2,
					"candicane7" : [ 0.878431, 0.243137, 0.145098, 1.0 ]
				}

			}
, 			{
				"box" : 				{
					"maxclass" : "multislider",
					"outlettype" : [ "", "" ],
					"candicane6" : [ 0.733333, 0.035294, 0.788235, 1.0 ],
					"candicane5" : [ 0.584314, 0.827451, 0.431373, 1.0 ],
					"setminmax" : [ 0.0, 100.0 ],
					"slidercolor" : [ 1.0, 1.0, 1.0, 1.0 ],
					"bordercolor" : [ 1.0, 1.0, 1.0, 1.0 ],
					"candicane4" : [ 0.439216, 0.619608, 0.070588, 1.0 ],
					"patching_rect" : [ 161.0, 40.0, 13.0, 124.0 ],
					"contdata" : 1,
					"id" : "obj-12",
					"peakcolor" : [ 0.498039, 0.498039, 0.498039, 1.0 ],
					"candicane3" : [ 0.290196, 0.411765, 0.713726, 1.0 ],
					"numinlets" : 1,
					"candicane8" : [ 0.027451, 0.447059, 0.501961, 1.0 ],
					"bgcolor" : [ 0.313726, 0.854902, 0.486275, 1.0 ],
					"candicane2" : [ 0.145098, 0.203922, 0.356863, 1.0 ],
					"numoutlets" : 2,
					"candicane7" : [ 0.878431, 0.243137, 0.145098, 1.0 ]
				}

			}
, 			{
				"box" : 				{
					"maxclass" : "message",
					"text" : "0.",
					"outlettype" : [ "" ],
					"patching_rect" : [ 135.0, 166.0, 69.0, 15.0 ],
					"ignoreclick" : 1,
					"id" : "obj-13",
					"fontname" : "Arial",
					"numinlets" : 2,
					"numoutlets" : 1,
					"fontsize" : 9.0
				}

			}
, 			{
				"box" : 				{
					"maxclass" : "comment",
					"text" : "Surface Roughness",
					"linecount" : 2,
					"patching_rect" : [ 148.0, 11.0, 59.0, 29.0 ],
					"id" : "obj-14",
					"fontname" : "Arial",
					"numinlets" : 1,
					"numoutlets" : 0,
					"fontsize" : 10.0
				}

			}
, 			{
				"box" : 				{
					"maxclass" : "outlet",
					"patching_rect" : [ 252.0, 336.0, 15.0, 15.0 ],
					"id" : "obj-15",
					"hidden" : 1,
					"numinlets" : 1,
					"numoutlets" : 0,
					"comment" : "global gain factor"
				}

			}
, 			{
				"box" : 				{
					"maxclass" : "outlet",
					"patching_rect" : [ 235.0, 336.0, 15.0, 15.0 ],
					"id" : "obj-16",
					"hidden" : 1,
					"numinlets" : 1,
					"numoutlets" : 0,
					"comment" : "global decay factor"
				}

			}
, 			{
				"box" : 				{
					"maxclass" : "outlet",
					"patching_rect" : [ 218.0, 336.0, 15.0, 15.0 ],
					"id" : "obj-17",
					"hidden" : 1,
					"numinlets" : 1,
					"numoutlets" : 0,
					"comment" : "global frequency factor"
				}

			}
, 			{
				"box" : 				{
					"maxclass" : "outlet",
					"patching_rect" : [ 27.0, 338.0, 15.0, 15.0 ],
					"id" : "obj-18",
					"hidden" : 1,
					"numinlets" : 1,
					"numoutlets" : 0,
					"comment" : "bristle viscosity - slider"
				}

			}
, 			{
				"box" : 				{
					"maxclass" : "outlet",
					"patching_rect" : [ 9.0, 338.0, 15.0, 15.0 ],
					"id" : "obj-19",
					"hidden" : 1,
					"numinlets" : 1,
					"numoutlets" : 0,
					"comment" : "bristle stiffness - slider"
				}

			}
, 			{
				"box" : 				{
					"maxclass" : "outlet",
					"patching_rect" : [ -17.0, 338.0, 15.0, 15.0 ],
					"id" : "obj-20",
					"hidden" : 1,
					"numinlets" : 1,
					"numoutlets" : 0,
					"comment" : "rubber mass - slider"
				}

			}
, 			{
				"box" : 				{
					"maxclass" : "inlet",
					"outlettype" : [ "" ],
					"patching_rect" : [ 94.0, -60.0, 15.0, 15.0 ],
					"id" : "obj-21",
					"hidden" : 1,
					"numinlets" : 0,
					"numoutlets" : 1,
					"comment" : "Pressure on rubber"
				}

			}
, 			{
				"box" : 				{
					"maxclass" : "inlet",
					"outlettype" : [ "" ],
					"patching_rect" : [ 30.0, -60.0, 15.0, 15.0 ],
					"id" : "obj-22",
					"hidden" : 1,
					"numinlets" : 0,
					"numoutlets" : 1,
					"comment" : "Rubbing force"
				}

			}
, 			{
				"box" : 				{
					"maxclass" : "inlet",
					"outlettype" : [ "" ],
					"patching_rect" : [ 222.0, -60.0, 15.0, 15.0 ],
					"id" : "obj-23",
					"hidden" : 1,
					"numinlets" : 0,
					"numoutlets" : 1,
					"comment" : "phisycal params - list"
				}

			}
, 			{
				"box" : 				{
					"maxclass" : "inlet",
					"outlettype" : [ "" ],
					"patching_rect" : [ 158.0, -60.0, 15.0, 15.0 ],
					"id" : "obj-24",
					"hidden" : 1,
					"numinlets" : 0,
					"numoutlets" : 1,
					"comment" : "Hammer mass"
				}

			}
, 			{
				"box" : 				{
					"maxclass" : "flonum",
					"varname" : "Mo2_Gfreq_fact",
					"outlettype" : [ "float", "bang" ],
					"triscale" : 0.9,
					"minimum" : 0.01,
					"patching_rect" : [ 232.0, 40.0, 48.0, 20.0 ],
					"maximum" : 2.0,
					"id" : "obj-25",
					"fontname" : "Arial",
					"numinlets" : 1,
					"bgcolor" : [ 1.0, 0.890196, 0.090196, 1.0 ],
					"htextcolor" : [ 0.870588, 0.870588, 0.870588, 1.0 ],
					"numoutlets" : 2,
					"fontsize" : 12.0
				}

			}
, 			{
				"box" : 				{
					"maxclass" : "comment",
					"text" : "Rubber Mass",
					"linecount" : 2,
					"patching_rect" : [ 9.0, 198.0, 59.0, 29.0 ],
					"id" : "obj-26",
					"fontname" : "Arial",
					"numinlets" : 1,
					"numoutlets" : 0,
					"fontsize" : 10.0
				}

			}
, 			{
				"box" : 				{
					"maxclass" : "comment",
					"text" : "Frequency",
					"patching_rect" : [ 232.0, 22.0, 71.0, 18.0 ],
					"id" : "obj-27",
					"fontname" : "Arial",
					"numinlets" : 1,
					"numoutlets" : 0,
					"fontsize" : 10.0
				}

			}
, 			{
				"box" : 				{
					"maxclass" : "comment",
					"text" : "Gain",
					"patching_rect" : [ 231.0, 147.0, 42.0, 18.0 ],
					"id" : "obj-28",
					"fontname" : "Arial",
					"numinlets" : 1,
					"numoutlets" : 0,
					"fontsize" : 10.0
				}

			}
, 			{
				"box" : 				{
					"maxclass" : "flonum",
					"varname" : "Mo2_Ggain_fact",
					"outlettype" : [ "float", "bang" ],
					"triscale" : 0.9,
					"minimum" : 0.1,
					"patching_rect" : [ 232.0, 164.0, 50.0, 20.0 ],
					"maximum" : 2.0,
					"id" : "obj-29",
					"fontname" : "Arial",
					"numinlets" : 1,
					"bgcolor" : [ 1.0, 0.360784, 0.682353, 1.0 ],
					"htextcolor" : [ 0.870588, 0.870588, 0.870588, 1.0 ],
					"numoutlets" : 2,
					"fontsize" : 12.0
				}

			}
, 			{
				"box" : 				{
					"maxclass" : "comment",
					"text" : "Decay",
					"patching_rect" : [ 231.0, 84.0, 51.0, 18.0 ],
					"id" : "obj-30",
					"fontname" : "Arial",
					"numinlets" : 1,
					"numoutlets" : 0,
					"fontsize" : 10.0
				}

			}
, 			{
				"box" : 				{
					"maxclass" : "flonum",
					"varname" : "Mo2_Gdec_fact",
					"outlettype" : [ "float", "bang" ],
					"triscale" : 0.9,
					"minimum" : 0.001,
					"patching_rect" : [ 232.0, 102.0, 49.0, 20.0 ],
					"maximum" : 2.0,
					"id" : "obj-31",
					"fontname" : "Arial",
					"numinlets" : 1,
					"bgcolor" : [ 0.611765, 0.701961, 1.0, 1.0 ],
					"htextcolor" : [ 0.870588, 0.870588, 0.870588, 1.0 ],
					"numoutlets" : 2,
					"fontsize" : 12.0
				}

			}
, 			{
				"box" : 				{
					"maxclass" : "multislider",
					"outlettype" : [ "", "" ],
					"candicane6" : [ 0.733333, 0.035294, 0.788235, 1.0 ],
					"candicane5" : [ 0.584314, 0.827451, 0.431373, 1.0 ],
					"setminmax" : [ 0.0, 100.0 ],
					"slidercolor" : [ 1.0, 1.0, 1.0, 1.0 ],
					"bordercolor" : [ 1.0, 1.0, 1.0, 1.0 ],
					"candicane4" : [ 0.439216, 0.619608, 0.070588, 1.0 ],
					"patching_rect" : [ 97.0, 40.0, 13.0, 124.0 ],
					"contdata" : 1,
					"id" : "obj-32",
					"peakcolor" : [ 0.498039, 0.498039, 0.498039, 1.0 ],
					"candicane3" : [ 0.290196, 0.411765, 0.713726, 1.0 ],
					"numinlets" : 1,
					"candicane8" : [ 0.027451, 0.447059, 0.501961, 1.0 ],
					"bgcolor" : [ 0.313726, 0.854902, 0.486275, 1.0 ],
					"candicane2" : [ 0.145098, 0.203922, 0.356863, 1.0 ],
					"numoutlets" : 2,
					"candicane7" : [ 0.878431, 0.243137, 0.145098, 1.0 ]
				}

			}
, 			{
				"box" : 				{
					"maxclass" : "comment",
					"text" : "Kg",
					"patching_rect" : [ 59.0, 248.0, 28.0, 18.0 ],
					"id" : "obj-33",
					"fontname" : "Arial",
					"numinlets" : 1,
					"numoutlets" : 0,
					"fontsize" : 10.0
				}

			}
, 			{
				"box" : 				{
					"maxclass" : "multislider",
					"outlettype" : [ "", "" ],
					"candicane6" : [ 0.733333, 0.035294, 0.788235, 1.0 ],
					"candicane5" : [ 0.584314, 0.827451, 0.431373, 1.0 ],
					"setminmax" : [ 0.0, 100.0 ],
					"slidercolor" : [ 1.0, 1.0, 1.0, 1.0 ],
					"bordercolor" : [ 1.0, 1.0, 1.0, 1.0 ],
					"candicane4" : [ 0.439216, 0.619608, 0.070588, 1.0 ],
					"patching_rect" : [ 28.0, 40.0, 13.0, 124.0 ],
					"contdata" : 1,
					"id" : "obj-34",
					"peakcolor" : [ 0.498039, 0.498039, 0.498039, 1.0 ],
					"candicane3" : [ 0.290196, 0.411765, 0.713726, 1.0 ],
					"numinlets" : 1,
					"candicane8" : [ 0.027451, 0.447059, 0.501961, 1.0 ],
					"bgcolor" : [ 0.313726, 0.854902, 0.486275, 1.0 ],
					"candicane2" : [ 0.145098, 0.203922, 0.356863, 1.0 ],
					"numoutlets" : 2,
					"candicane7" : [ 0.878431, 0.243137, 0.145098, 1.0 ]
				}

			}
, 			{
				"box" : 				{
					"maxclass" : "multislider",
					"outlettype" : [ "", "" ],
					"candicane6" : [ 0.733333, 0.035294, 0.788235, 1.0 ],
					"candicane5" : [ 0.584314, 0.827451, 0.431373, 1.0 ],
					"setminmax" : [ 0.0, 100.0 ],
					"slidercolor" : [ 1.0, 1.0, 1.0, 1.0 ],
					"bordercolor" : [ 1.0, 1.0, 1.0, 1.0 ],
					"candicane4" : [ 0.439216, 0.619608, 0.070588, 1.0 ],
					"patching_rect" : [ 9.0, 228.0, 98.0, 15.0 ],
					"contdata" : 1,
					"id" : "obj-35",
					"peakcolor" : [ 0.498039, 0.498039, 0.498039, 1.0 ],
					"candicane3" : [ 0.290196, 0.411765, 0.713726, 1.0 ],
					"numinlets" : 1,
					"candicane8" : [ 0.027451, 0.447059, 0.501961, 1.0 ],
					"bgcolor" : [ 0.964706, 0.568627, 0.568627, 1.0 ],
					"orientation" : 0,
					"candicane2" : [ 0.145098, 0.203922, 0.356863, 1.0 ],
					"numoutlets" : 2,
					"candicane7" : [ 0.878431, 0.243137, 0.145098, 1.0 ]
				}

			}
, 			{
				"box" : 				{
					"maxclass" : "message",
					"text" : "0.",
					"outlettype" : [ "" ],
					"patching_rect" : [ 8.0, 166.0, 59.0, 15.0 ],
					"ignoreclick" : 1,
					"id" : "obj-36",
					"fontname" : "Arial",
					"numinlets" : 2,
					"numoutlets" : 1,
					"fontsize" : 9.0
				}

			}
, 			{
				"box" : 				{
					"maxclass" : "message",
					"text" : "0.",
					"outlettype" : [ "" ],
					"patching_rect" : [ 71.0, 166.0, 59.0, 15.0 ],
					"ignoreclick" : 1,
					"id" : "obj-37",
					"fontname" : "Arial",
					"numinlets" : 2,
					"numoutlets" : 1,
					"fontsize" : 9.0
				}

			}
, 			{
				"box" : 				{
					"maxclass" : "comment",
					"text" : "Bristle Viscosity",
					"linecount" : 2,
					"patching_rect" : [ 84.0, 11.0, 53.0, 29.0 ],
					"id" : "obj-38",
					"fontname" : "Arial",
					"numinlets" : 1,
					"numoutlets" : 0,
					"fontsize" : 10.0
				}

			}
, 			{
				"box" : 				{
					"maxclass" : "comment",
					"text" : "Bristle Stiffness",
					"linecount" : 2,
					"patching_rect" : [ 11.0, 11.0, 58.0, 29.0 ],
					"id" : "obj-39",
					"fontname" : "Arial",
					"numinlets" : 1,
					"numoutlets" : 0,
					"fontsize" : 10.0
				}

			}
, 			{
				"box" : 				{
					"maxclass" : "message",
					"text" : "0.0025",
					"outlettype" : [ "" ],
					"patching_rect" : [ 9.0, 247.0, 50.0, 15.0 ],
					"ignoreclick" : 1,
					"id" : "obj-40",
					"fontname" : "Arial",
					"numinlets" : 2,
					"numoutlets" : 1,
					"fontsize" : 9.0
				}

			}
, 			{
				"box" : 				{
					"maxclass" : "panel",
					"bordercolor" : [ 0.745098, 0.745098, 0.745098, 1.0 ],
					"patching_rect" : [ 1.0, 1.0, 210.0, 189.0 ],
					"id" : "obj-41",
					"rounded" : 3,
					"numinlets" : 1,
					"bgcolor" : [ 0.890196, 0.870588, 1.0, 1.0 ],
					"numoutlets" : 0,
					"border" : 1
				}

			}
, 			{
				"box" : 				{
					"maxclass" : "panel",
					"bordercolor" : [ 0.745098, 0.745098, 0.745098, 1.0 ],
					"patching_rect" : [ 220.0, 1.0, 81.0, 322.0 ],
					"id" : "obj-42",
					"rounded" : 3,
					"numinlets" : 1,
					"bgcolor" : [ 0.890196, 0.870588, 1.0, 1.0 ],
					"numoutlets" : 0,
					"border" : 1
				}

			}
, 			{
				"box" : 				{
					"maxclass" : "panel",
					"bordercolor" : [ 0.745098, 0.745098, 0.745098, 1.0 ],
					"patching_rect" : [ 1.0, 193.0, 210.0, 130.0 ],
					"id" : "obj-43",
					"rounded" : 3,
					"numinlets" : 1,
					"bgcolor" : [ 0.890196, 0.870588, 1.0, 1.0 ],
					"numoutlets" : 0,
					"border" : 1
				}

			}
 ],
		"lines" : [ 			{
				"patchline" : 				{
					"source" : [ "obj-9", 0 ],
					"destination" : [ "obj-1", 7 ],
					"hidden" : 1,
					"midpoints" : [  ]
				}

			}
, 			{
				"patchline" : 				{
					"source" : [ "obj-29", 0 ],
					"destination" : [ "obj-15", 0 ],
					"hidden" : 1,
					"color" : [ 1.0, 0.360784, 0.682353, 1.0 ],
					"midpoints" : [ 241.5, 332.0, 261.0, 332.0 ]
				}

			}
, 			{
				"patchline" : 				{
					"source" : [ "obj-31", 0 ],
					"destination" : [ "obj-16", 0 ],
					"hidden" : 1,
					"color" : [ 0.611765, 0.701961, 1.0, 1.0 ],
					"midpoints" : [ 241.5, 162.0, 227.0, 162.0, 227.0, 332.0, 244.0, 332.0 ]
				}

			}
, 			{
				"patchline" : 				{
					"source" : [ "obj-1", 14 ],
					"destination" : [ "obj-29", 0 ],
					"hidden" : 1,
					"color" : [ 1.0, 0.360784, 0.682353, 1.0 ],
					"midpoints" : [ 255.5, -3.0, 241.5, -3.0 ]
				}

			}
, 			{
				"patchline" : 				{
					"source" : [ "obj-1", 13 ],
					"destination" : [ "obj-31", 0 ],
					"hidden" : 1,
					"color" : [ 0.611765, 0.701961, 1.0, 1.0 ],
					"midpoints" : [ 240.071426, -6.0, 241.5, -6.0 ]
				}

			}
, 			{
				"patchline" : 				{
					"source" : [ "obj-1", 12 ],
					"destination" : [ "obj-25", 0 ],
					"hidden" : 1,
					"color" : [ 1.0, 0.890196, 0.090196, 1.0 ],
					"midpoints" : [ 224.642853, -7.0, 241.5, -7.0 ]
				}

			}
, 			{
				"patchline" : 				{
					"source" : [ "obj-23", 0 ],
					"destination" : [ "obj-1", 6 ],
					"hidden" : 1,
					"midpoints" : [  ]
				}

			}
, 			{
				"patchline" : 				{
					"source" : [ "obj-25", 0 ],
					"destination" : [ "obj-17", 0 ],
					"hidden" : 1,
					"color" : [ 1.0, 0.890196, 0.090196, 1.0 ],
					"midpoints" : [ 241.5, 82.0, 227.0, 82.0 ]
				}

			}
, 			{
				"patchline" : 				{
					"source" : [ "obj-35", 0 ],
					"destination" : [ "obj-1", 5 ],
					"hidden" : 1,
					"midpoints" : [ 18.5, 325.0, 328.0, 325.0, 328.0, -39.0, 193.785721, -39.0 ]
				}

			}
, 			{
				"patchline" : 				{
					"source" : [ "obj-1", 2 ],
					"destination" : [ "obj-10", 0 ],
					"hidden" : 1,
					"color" : [ 0.8, 0.611765, 0.380392, 1.0 ],
					"midpoints" : [ 70.35714, -11.0, -32.0, -11.0, -32.0, 214.0, 180.0, 214.0 ]
				}

			}
, 			{
				"patchline" : 				{
					"source" : [ "obj-1", 10 ],
					"destination" : [ "obj-12", 0 ],
					"hidden" : 1,
					"color" : [ 0.156863, 0.8, 0.54902, 1.0 ],
					"midpoints" : [ 193.785721, -7.0, 168.0, -7.0 ]
				}

			}
, 			{
				"patchline" : 				{
					"source" : [ "obj-24", 0 ],
					"destination" : [ "obj-1", 4 ],
					"hidden" : 1,
					"midpoints" : [  ]
				}

			}
, 			{
				"patchline" : 				{
					"source" : [ "obj-1", 3 ],
					"destination" : [ "obj-6", 0 ],
					"hidden" : 1,
					"color" : [ 0.8, 0.611765, 0.380392, 1.0 ],
					"midpoints" : [ 85.785713, -11.0, -32.0, -11.0, -32.0, 214.0, 159.5, 214.0 ]
				}

			}
, 			{
				"patchline" : 				{
					"source" : [ "obj-1", 11 ],
					"destination" : [ "obj-13", 0 ],
					"hidden" : 1,
					"color" : [ 0.156863, 0.8, 0.54902, 1.0 ],
					"midpoints" : [ 209.214279, -7.0, 144.5, -7.0 ]
				}

			}
, 			{
				"patchline" : 				{
					"source" : [ "obj-10", 0 ],
					"destination" : [ "obj-1", 3 ],
					"hidden" : 1,
					"midpoints" : [ 177.5, 325.0, 324.0, 325.0, 324.0, 324.0, 324.0, -39.0, 132.071426, -39.0 ]
				}

			}
, 			{
				"patchline" : 				{
					"source" : [ "obj-10", 0 ],
					"destination" : [ "obj-4", 0 ],
					"hidden" : 1,
					"midpoints" : [ 177.5, 325.0, 132.0, 325.0 ]
				}

			}
, 			{
				"patchline" : 				{
					"source" : [ "obj-1", 0 ],
					"destination" : [ "obj-11", 0 ],
					"hidden" : 1,
					"color" : [ 0.4, 0.4, 0.8, 1.0 ],
					"midpoints" : [ 39.5, -11.0, -32.0, -11.0, -32.0, 214.0, 126.0, 214.0 ]
				}

			}
, 			{
				"patchline" : 				{
					"source" : [ "obj-11", 0 ],
					"destination" : [ "obj-5", 0 ],
					"hidden" : 1,
					"midpoints" : [ 123.5, 325.0, 113.0, 325.0 ]
				}

			}
, 			{
				"patchline" : 				{
					"source" : [ "obj-1", 8 ],
					"destination" : [ "obj-32", 0 ],
					"hidden" : 1,
					"color" : [ 0.156863, 0.8, 0.54902, 1.0 ],
					"midpoints" : [ 162.928574, -7.0, 104.0, -7.0 ]
				}

			}
, 			{
				"patchline" : 				{
					"source" : [ "obj-21", 0 ],
					"destination" : [ "obj-1", 2 ],
					"hidden" : 1,
					"midpoints" : [  ]
				}

			}
, 			{
				"patchline" : 				{
					"source" : [ "obj-1", 1 ],
					"destination" : [ "obj-7", 0 ],
					"hidden" : 1,
					"color" : [ 0.4, 0.4, 0.8, 1.0 ],
					"midpoints" : [ 54.92857, -11.0, -32.0, -11.0, -32.0, 214.0, 97.5, 214.0 ]
				}

			}
, 			{
				"patchline" : 				{
					"source" : [ "obj-1", 9 ],
					"destination" : [ "obj-37", 0 ],
					"hidden" : 1,
					"color" : [ 0.156863, 0.8, 0.54902, 1.0 ],
					"midpoints" : [ 178.357147, -7.0, 80.5, -7.0 ]
				}

			}
, 			{
				"patchline" : 				{
					"source" : [ "obj-11", 0 ],
					"destination" : [ "obj-1", 1 ],
					"hidden" : 1,
					"midpoints" : [ 123.5, 325.0, 324.0, 325.0, 324.0, -39.0, 70.35714, -39.0 ]
				}

			}
, 			{
				"patchline" : 				{
					"source" : [ "obj-12", 0 ],
					"destination" : [ "obj-8", 0 ],
					"hidden" : 1,
					"midpoints" : [ 165.5, 184.0, 114.0, 184.0, 114.0, 321.0, 55.0, 321.0 ]
				}

			}
, 			{
				"patchline" : 				{
					"source" : [ "obj-22", 0 ],
					"destination" : [ "obj-1", 0 ],
					"hidden" : 1,
					"midpoints" : [  ]
				}

			}
, 			{
				"patchline" : 				{
					"source" : [ "obj-1", 6 ],
					"destination" : [ "obj-34", 0 ],
					"hidden" : 1,
					"color" : [ 0.156863, 0.8, 0.54902, 1.0 ],
					"midpoints" : [ 132.071426, -7.0, 35.0, -7.0 ]
				}

			}
, 			{
				"patchline" : 				{
					"source" : [ "obj-32", 0 ],
					"destination" : [ "obj-18", 0 ],
					"hidden" : 1,
					"midpoints" : [ 101.5, 184.0, 112.0, 184.0, 112.0, 318.0, 36.0, 318.0 ]
				}

			}
, 			{
				"patchline" : 				{
					"source" : [ "obj-34", 0 ],
					"destination" : [ "obj-19", 0 ],
					"hidden" : 1,
					"midpoints" : [ 32.5, 191.0, 110.0, 191.0, 110.0, 315.0, 18.0, 315.0 ]
				}

			}
, 			{
				"patchline" : 				{
					"source" : [ "obj-1", 5 ],
					"destination" : [ "obj-40", 0 ],
					"hidden" : 1,
					"color" : [ 1.0, 0.541176, 0.843137, 1.0 ],
					"midpoints" : [ 116.64286, -11.0, -32.0, -11.0, -32.0, 214.0, 18.5, 214.0 ]
				}

			}
, 			{
				"patchline" : 				{
					"source" : [ "obj-1", 4 ],
					"destination" : [ "obj-35", 0 ],
					"hidden" : 1,
					"color" : [ 1.0, 0.541176, 0.843137, 1.0 ],
					"midpoints" : [ 101.214287, -11.0, -32.0, -11.0, -32.0, 214.0, 18.5, 214.0 ]
				}

			}
, 			{
				"patchline" : 				{
					"source" : [ "obj-1", 7 ],
					"destination" : [ "obj-36", 0 ],
					"hidden" : 1,
					"color" : [ 0.156863, 0.8, 0.54902, 1.0 ],
					"midpoints" : [ 147.5, -7.0, 17.5, -7.0 ]
				}

			}
, 			{
				"patchline" : 				{
					"source" : [ "obj-35", 0 ],
					"destination" : [ "obj-20", 0 ],
					"hidden" : 1,
					"midpoints" : [ 18.5, 310.0, -8.0, 310.0 ]
				}

			}
 ]
	}

}
