#N canvas 238 258 151 314 10;
#X obj 21 197 pow~;
#X obj 64 66 *~ 2;
#X obj 20 120 sig~ 1;
#X obj 20 147 -~;
#X obj 90 122 -~ 1;
#X obj 37 292 outlet~ signal;
#X obj 36 99 min~ 1;
#X obj 90 99 max~ 1;
#X obj 64 44 vline~;
#X msg 64 22 0 \, 1 \$1 0;
#X obj 64 -1 inlet time;
#X obj 44 169 sig~ 6;
#X obj 37 226 +~;
#X obj 37 248 *~ -1;
#X obj 37 270 +~ 1;
#X connect 0 0 12 0;
#X connect 1 0 6 0;
#X connect 1 0 7 0;
#X connect 2 0 3 0;
#X connect 3 0 0 0;
#X connect 4 0 12 1;
#X connect 6 0 3 1;
#X connect 7 0 4 0;
#X connect 8 0 1 0;
#X connect 9 0 8 0;
#X connect 10 0 9 0;
#X connect 11 0 0 1;
#X connect 12 0 13 0;
#X connect 13 0 14 0;
#X connect 14 0 5 0;
