#N canvas 164 347 568 208 10;
#X obj 64 106 inlet~;
#X obj 181 103 inlet~;
#X obj 112 403 outlet~;
#X obj 225 404 outlet~;
#X obj 250 192 *~;
#X obj 328 194 *~;
#X obj 290 223 +~;
#X obj 290 256 *~ 2;
#X obj 368 268 +;
#X obj 368 237 t b;
#X obj 302 293 /~;
#X text 122 106 V+_1;
#X text 238 104 V+_2;
#X text 306 310 V_J;
#X obj 114 355 -~;
#X obj 225 360 -~;
#X text 111 425 V-_1;
#X text 225 427 V-_2;
#X text 21 469 2-port scattering junction;
#X obj 334 4 loadbang;
#X obj 240 4 r \$1-R1;
#X obj 401 7 r \$1-R2;
#X floatatom 249 70 5 1 60 2 R1 - -;
#X floatatom 387 71 5 1 60 2 R2 - -;
#X obj 300 30 \$2;
#X obj 337 28 \$3;
#X obj 295 55 sel 0;
#X obj 296 76 f 1;
#X obj 339 54 sel 0;
#X obj 338 76 f 1;
#X text 20 490 Creation arguments: 2port <ID> <R1> <R2>;
#X text 20 506 R1 & R2 default to 1;
#X text 20 523 External control s/r: <ID>-R1 = Resistance 1 <ID>-R2
= Resistance 2;
#X connect 0 0 4 0;
#X connect 0 0 14 1;
#X connect 1 0 15 1;
#X connect 1 0 5 0;
#X connect 4 0 6 0;
#X connect 5 0 6 1;
#X connect 6 0 7 0;
#X connect 7 0 10 0;
#X connect 8 0 10 1;
#X connect 9 0 8 0;
#X connect 10 0 14 0;
#X connect 10 0 15 0;
#X connect 14 0 2 0;
#X connect 15 0 3 0;
#X connect 19 0 24 0;
#X connect 19 0 25 0;
#X connect 20 0 22 0;
#X connect 21 0 23 0;
#X connect 22 0 8 0;
#X connect 22 0 4 1;
#X connect 23 0 8 1;
#X connect 23 0 9 0;
#X connect 23 0 5 1;
#X connect 24 0 26 0;
#X connect 25 0 28 0;
#X connect 26 0 27 0;
#X connect 26 1 22 0;
#X connect 27 0 22 0;
#X connect 28 0 29 0;
#X connect 28 1 23 0;
#X connect 29 0 23 0;
#X coords 0 0 0.0018018 0.0020202 170 70 1;
