#N canvas 404 171 530 380 12;
#X obj 52 43 inlet~;
#X obj 74 217 outlet~;
#X obj 54 143 inlet;
#X text 106 43 <- arg 1: signal;
#X text 109 135 <- arg 2: delay (ms);
#X obj 341 153 block~ 1;
#X obj 73 181 delread~ \$0-del \$2;
#X obj 52 76 delwrite~ \$0-del 1000;
#X connect 0 0 7 0;
#X connect 2 0 6 0;
#X connect 6 0 1 0;
