#N canvas 417 199 556 250 10;
#X obj 272 253 +~;
#X obj 433 218 *~ 0.5;
#X obj 696 62 inlet~;
#X obj 273 157 inlet~;
#X obj 543 389 outlet~;
#X obj 130 396 pack 0 30;
#X obj 54 421 line;
#X obj 131 422 line;
#X obj 64 353 *;
#X obj 126 357 *;
#X obj 173 314 -;
#X obj 16 273 t b;
#X obj 17 35 hsl 70 10 0 1 0 1 empty empty Input_Position -2 -9 1 7
-114372 -1 -1 2070 1;
#X msg 150 279 1;
#X obj 128 324 t b;
#X obj 15 166 s \$0-pos;
#X obj 156 210 r \$0-pos;
#X obj 512 251 +~;
#X obj 513 155 inlet~;
#X obj 314 388 outlet~;
#X floatatom 15 55 5 0 50 1 ms - -;
#X floatatom 83 56 8 0 20000 1 Hz - -;
#X obj 105 74 f2T;
#X obj 52 394 pack 0 30;
#X obj 237 89 f2T;
#X msg 226 116 set \$1;
#X obj 54 228 r \$0-z;
#X text 227 157 IN 1;
#X text 466 154 IN 2;
#X text 492 390 OUT 2;
#X text 269 390 OUT 1;
#X obj 228 24 r \$1-z;
#X obj 227 1 r \$1-pos;
#X text 757 45 IN 3;
#X obj 60 302 f 0;
#X obj 381 170 r \$0-z1;
#X obj 380 272 r \$0-z2;
#X obj 621 167 r \$0-z2;
#X obj 620 270 r \$0-z1;
#X obj 79 452 s \$0-z1;
#X obj 139 452 s \$0-z2;
#X obj 513 302 dline~ \$0-zL1 0;
#X obj 273 304 dline~ \$0-zR2 0;
#X obj 272 197 dline~ \$0-zR1 0;
#X obj 512 195 dline~ \$0-zL2 0;
#X obj 107 5 loadbang;
#X obj 101 25 \$2;
#X text 28 493 Bidirectional Delay Line with variable input;
#X text 26 505 Creation arguments: dline-IN <ID> <delay in ms>;
#X text 756 59 <- Variable input (for excitation);
#X text 26 517 External control s/r: <ID>-z = delay in ms \, <ID>-pos
= input position [0-1];
#X obj 139 25 \$3;
#X obj 170 36 sel 0;
#X obj 178 59 f 0.5;
#X obj 102 93 * 2;
#X obj 263 87 / 2;
#X msg 99 121 set \$1;
#X obj 36 118 s \$0-z;
#X obj 26 79 s \$0-zms;
#X obj 233 62 r \$0-zms;
#X obj 367 32 block~ 64;
#X connect 0 0 42 0;
#X connect 1 0 0 1;
#X connect 1 0 17 1;
#X connect 2 0 1 0;
#X connect 3 0 43 0;
#X connect 5 0 7 0;
#X connect 6 0 39 0;
#X connect 7 0 40 0;
#X connect 8 0 23 0;
#X connect 9 0 5 0;
#X connect 10 0 9 1;
#X connect 10 0 14 0;
#X connect 11 0 34 0;
#X connect 12 0 15 0;
#X connect 13 0 10 0;
#X connect 14 0 9 0;
#X connect 16 0 10 1;
#X connect 16 0 13 0;
#X connect 16 0 8 1;
#X connect 16 0 11 0;
#X connect 17 0 41 0;
#X connect 18 0 44 0;
#X connect 20 0 58 0;
#X connect 20 0 57 0;
#X connect 21 0 22 0;
#X connect 22 0 54 0;
#X connect 23 0 6 0;
#X connect 24 0 55 0;
#X connect 25 0 21 0;
#X connect 26 0 34 0;
#X connect 31 0 20 0;
#X connect 32 0 12 0;
#X connect 34 0 8 0;
#X connect 34 0 9 0;
#X connect 35 0 43 1;
#X connect 36 0 42 1;
#X connect 37 0 44 1;
#X connect 38 0 41 1;
#X connect 41 0 19 0;
#X connect 42 0 4 0;
#X connect 43 0 0 0;
#X connect 44 0 17 0;
#X connect 45 0 46 0;
#X connect 45 0 51 0;
#X connect 46 0 20 0;
#X connect 51 0 52 0;
#X connect 52 0 53 0;
#X connect 52 1 12 0;
#X connect 53 0 12 0;
#X connect 54 0 56 0;
#X connect 54 0 57 0;
#X connect 55 0 25 0;
#X connect 56 0 20 0;
#X connect 59 0 24 0;
#X coords 0 0 1 1 170 80 1 0 0;
