#N canvas 166 132 216 190 10;
#X obj 139 3 hsl 64 12 0 1 0 1 empty empty engine-speed -2 6 1 8 -262144
-1 -1 2700 1;
#X obj 65 141 *~ 0.25;
#N canvas 492 478 713 375 fourstroke 1;
#X obj 51 340 outlet~;
#X obj 166 340 outlet~;
#X obj 287 340 outlet~;
#X obj 399 340 outlet~;
#X obj 277 10 inlet~;
#X obj 277 157 sig~;
#X obj 98 83 -~ 0.75;
#X obj 215 83 -~ 0.5;
#X obj 334 83 -~ 0.25;
#X obj 51 294 sig~ 1;
#X obj 51 320 /~;
#X obj 98 295 +~ 1;
#X obj 98 275 *~;
#X obj 98 253 *~;
#X obj 166 294 sig~ 1;
#X obj 166 320 /~;
#X obj 215 295 +~ 1;
#X obj 215 275 *~;
#X obj 215 252 *~;
#X obj 287 294 sig~ 1;
#X obj 287 320 /~;
#X obj 334 295 +~ 1;
#X obj 334 274 *~;
#X obj 334 251 *~;
#X obj 399 294 sig~ 1;
#X obj 399 320 /~;
#X obj 446 295 +~ 1;
#X obj 446 274 *~;
#X obj 446 250 *~;
#X obj 576 -13 noise~;
#X obj 462 227 +~;
#X obj 350 229 +~;
#X obj 231 231 +~;
#X obj 114 231 +~;
#X obj 446 65 +~;
#X obj 334 62 +~;
#X obj 215 61 +~;
#X obj 98 61 +~;
#X obj 130 210 vd~ b 5;
#X obj 247 211 vd~ b 10;
#X obj 366 209 vd~ b 15;
#X obj 478 207 vd~ b 20;
#X obj 606 88 delwrite~ a 20;
#X obj 114 -15 delread~ a 5;
#X obj 231 -14 delread~ a 10;
#X obj 350 -14 delread~ a 15;
#X obj 462 -13 delread~ a 20;
#X obj 547 112 delwrite~ b 20;
#X obj 576 8 lop~ 20;
#X obj 576 30 lop~ 20;
#X obj 98 104 cos~;
#X obj 215 103 cos~;
#X obj 334 103 cos~;
#X obj 446 102 cos~;
#X obj 19 7 swap 1;
#X obj 19 29 -;
#X obj 18 72 + 2;
#X obj 19 51 * 3;
#X obj 19 -15 inlet speed;
#X obj 606 63 *~ 0.5;
#X obj 547 62 *~ 10;
#X connect 4 0 37 0;
#X connect 4 0 36 0;
#X connect 4 0 35 0;
#X connect 4 0 34 0;
#X connect 5 0 30 0;
#X connect 5 0 33 0;
#X connect 5 0 32 0;
#X connect 5 0 31 0;
#X connect 6 0 50 0;
#X connect 7 0 51 0;
#X connect 8 0 52 0;
#X connect 9 0 10 0;
#X connect 10 0 0 0;
#X connect 11 0 10 1;
#X connect 12 0 11 0;
#X connect 13 0 12 0;
#X connect 13 0 12 1;
#X connect 14 0 15 0;
#X connect 15 0 1 0;
#X connect 16 0 15 1;
#X connect 17 0 16 0;
#X connect 18 0 17 0;
#X connect 18 0 17 1;
#X connect 19 0 20 0;
#X connect 20 0 2 0;
#X connect 21 0 20 1;
#X connect 22 0 21 0;
#X connect 23 0 22 0;
#X connect 23 0 22 1;
#X connect 24 0 25 0;
#X connect 25 0 3 0;
#X connect 26 0 25 1;
#X connect 27 0 26 0;
#X connect 28 0 27 0;
#X connect 28 0 27 1;
#X connect 29 0 48 0;
#X connect 30 0 28 1;
#X connect 31 0 23 1;
#X connect 32 0 18 1;
#X connect 33 0 13 1;
#X connect 34 0 53 0;
#X connect 35 0 8 0;
#X connect 36 0 7 0;
#X connect 37 0 6 0;
#X connect 38 0 33 1;
#X connect 39 0 32 1;
#X connect 40 0 31 1;
#X connect 41 0 30 1;
#X connect 43 0 37 1;
#X connect 44 0 36 1;
#X connect 45 0 35 1;
#X connect 46 0 34 1;
#X connect 48 0 49 0;
#X connect 49 0 59 0;
#X connect 49 0 60 0;
#X connect 50 0 13 0;
#X connect 51 0 18 0;
#X connect 52 0 23 0;
#X connect 53 0 28 0;
#X connect 54 0 55 0;
#X connect 54 1 55 1;
#X connect 55 0 57 0;
#X connect 56 0 5 0;
#X connect 57 0 56 0;
#X connect 58 0 54 0;
#X connect 59 0 42 0;
#X connect 60 0 47 0;
#X restore 1 110 pd fourstroke engine;
#X obj 136 85 phasor~;
#X obj 136 42 sig~;
#X obj 136 64 lop~ 0.8;
#X obj 65 168 dac~;
#X obj 136 21 * 40;
#X connect 0 0 2 0;
#X connect 0 0 7 0;
#X connect 1 0 6 0;
#X connect 1 0 6 1;
#X connect 2 0 1 0;
#X connect 2 1 1 0;
#X connect 2 2 1 0;
#X connect 2 3 1 0;
#X connect 3 0 2 1;
#X connect 4 0 5 0;
#X connect 5 0 3 0;
#X connect 7 0 4 0;
