#N canvas 177 163 719 304 12;
#X obj 65 137 inlet~;
#X obj 66 213 outlet~;
#X text 8 137 IN 1;
#X text 9 215 OUT 2;
#N canvas 0 0 462 312 R(z) 0;
#X obj 50 21 inlet~;
#X obj 58 261 outlet~;
#X obj 59 193 lop~ 500;
#X obj 58 231 hip~ 20;
#X obj 136 22 inlet;
#X obj 60 156 *~ -1;
#X connect 0 0 5 0;
#X connect 2 0 3 0;
#X connect 3 0 1 0;
#X connect 4 0 2 1;
#X connect 5 0 2 0;
#X restore 65 174 pd R(z);
#X obj 48 26 vsl 10 30 60 7000 0 1 empty empty freq 0 -8 1 7 -208622
-42246 -1 1708 1;
#X obj 169 7 inlet;
#X obj 100 5 r \$1-f;
#X floatatom 119 60 5 0 0 1 Hz - -;
#X msg 136 86 set \$1;
#X obj 3 6 loadbang;
#X obj 28 28 \$2;
#X text 16 266 Termination;
#X text 15 280 Creation arguments: Term <ID> <damping freq>;
#X text 14 298 External control s/r: <ID>-f = damping frequency;
#X obj 358 23 block~ 64;
#X connect 0 0 4 0;
#X connect 4 0 1 0;
#X connect 5 0 9 0;
#X connect 5 0 4 1;
#X connect 6 0 5 0;
#X connect 7 0 5 0;
#X connect 8 0 5 0;
#X connect 9 0 8 0;
#X connect 10 0 11 0;
#X connect 11 0 5 0;
#X coords 0 0 1 1 80 70 1 0 0;
