{
	"patcher" : 	{
		"fileversion" : 1,
		"rect" : [ 503.0, 154.0, 215.0, 238.0 ],
		"bglocked" : 0,
		"defrect" : [ 503.0, 154.0, 215.0, 238.0 ],
		"openrect" : [ 0.0, 0.0, 0.0, 0.0 ],
		"openinpresentation" : 0,
		"default_fontsize" : 12.0,
		"default_fontface" : 0,
		"default_fontname" : "Arial",
		"gridonopen" : 0,
		"gridsize" : [ 15.0, 15.0 ],
		"gridsnaponopen" : 0,
		"toolbarvisible" : 1,
		"boxanimatetime" : 200,
		"imprint" : 0,
		"enablehscroll" : 1,
		"enablevscroll" : 1,
		"devicewidth" : 0.0,
		"boxes" : [ 			{
				"box" : 				{
					"maxclass" : "outlet",
					"patching_rect" : [ 245.0, 220.0, 15.0, 15.0 ],
					"id" : "obj-1",
					"hidden" : 1,
					"numinlets" : 1,
					"numoutlets" : 0,
					"comment" : "bubble frequency"
				}

			}
, 			{
				"box" : 				{
					"maxclass" : "outlet",
					"patching_rect" : [ 161.0, 220.0, 15.0, 15.0 ],
					"id" : "obj-2",
					"hidden" : 1,
					"numinlets" : 1,
					"numoutlets" : 0,
					"comment" : "envelope"
				}

			}
, 			{
				"box" : 				{
					"maxclass" : "outlet",
					"patching_rect" : [ 98.0, 220.0, 15.0, 15.0 ],
					"id" : "obj-3",
					"hidden" : 1,
					"numinlets" : 1,
					"numoutlets" : 0,
					"comment" : "blasting slope"
				}

			}
, 			{
				"box" : 				{
					"maxclass" : "outlet",
					"patching_rect" : [ 35.0, 220.0, 15.0, 15.0 ],
					"id" : "obj-4",
					"hidden" : 1,
					"numinlets" : 1,
					"numoutlets" : 0,
					"comment" : "bubble radius"
				}

			}
, 			{
				"box" : 				{
					"maxclass" : "inlet",
					"outlettype" : [ "" ],
					"patching_rect" : [ 272.0, -74.0, 15.0, 15.0 ],
					"id" : "obj-5",
					"hidden" : 1,
					"numinlets" : 0,
					"numoutlets" : 1,
					"comment" : ""
				}

			}
, 			{
				"box" : 				{
					"maxclass" : "inlet",
					"outlettype" : [ "" ],
					"patching_rect" : [ 226.0, -74.0, 15.0, 15.0 ],
					"id" : "obj-6",
					"hidden" : 1,
					"numinlets" : 0,
					"numoutlets" : 1,
					"comment" : ""
				}

			}
, 			{
				"box" : 				{
					"maxclass" : "inlet",
					"outlettype" : [ "" ],
					"patching_rect" : [ 180.0, -74.0, 15.0, 15.0 ],
					"id" : "obj-7",
					"hidden" : 1,
					"numinlets" : 0,
					"numoutlets" : 1,
					"comment" : ""
				}

			}
, 			{
				"box" : 				{
					"maxclass" : "inlet",
					"outlettype" : [ "" ],
					"patching_rect" : [ 134.0, -74.0, 15.0, 15.0 ],
					"id" : "obj-8",
					"hidden" : 1,
					"numinlets" : 0,
					"numoutlets" : 1,
					"comment" : ""
				}

			}
, 			{
				"box" : 				{
					"maxclass" : "message",
					"text" : "0",
					"outlettype" : [ "" ],
					"patching_rect" : [ 235.0, 175.0, 34.0, 15.0 ],
					"id" : "obj-9",
					"fontname" : "Arial",
					"numinlets" : 2,
					"bgcolor" : [ 1.0, 0.890196, 0.090196, 1.0 ],
					"numoutlets" : 1,
					"fontsize" : 9.0
				}

			}
, 			{
				"box" : 				{
					"maxclass" : "message",
					"text" : "4.878049",
					"outlettype" : [ "" ],
					"patching_rect" : [ 140.0, 175.0, 58.0, 15.0 ],
					"id" : "obj-10",
					"fontname" : "Arial",
					"numinlets" : 2,
					"bgcolor" : [ 0.4, 0.4, 0.8, 1.0 ],
					"numoutlets" : 1,
					"fontsize" : 9.0
				}

			}
, 			{
				"box" : 				{
					"maxclass" : "message",
					"text" : "0.",
					"outlettype" : [ "" ],
					"patching_rect" : [ 76.0, 175.0, 58.0, 15.0 ],
					"id" : "obj-11",
					"fontname" : "Arial",
					"numinlets" : 2,
					"bgcolor" : [ 0.611765, 0.701961, 1.0, 1.0 ],
					"numoutlets" : 1,
					"fontsize" : 9.0
				}

			}
, 			{
				"box" : 				{
					"maxclass" : "message",
					"text" : "0.",
					"outlettype" : [ "" ],
					"patching_rect" : [ 12.0, 175.0, 58.0, 15.0 ],
					"id" : "obj-12",
					"fontname" : "Arial",
					"numinlets" : 2,
					"bgcolor" : [ 0.156863, 0.8, 0.54902, 1.0 ],
					"numoutlets" : 1,
					"fontsize" : 9.0
				}

			}
, 			{
				"box" : 				{
					"maxclass" : "comment",
					"text" : "Bubble Frequency",
					"linecount" : 2,
					"patching_rect" : [ 225.0, 13.0, 56.0, 29.0 ],
					"id" : "obj-13",
					"fontname" : "Arial",
					"numinlets" : 1,
					"numoutlets" : 0,
					"fontsize" : 10.0
				}

			}
, 			{
				"box" : 				{
					"maxclass" : "comment",
					"text" : "Envelope Smoothness",
					"linecount" : 2,
					"patching_rect" : [ 141.0, 13.0, 65.0, 29.0 ],
					"id" : "obj-14",
					"fontname" : "Arial",
					"numinlets" : 1,
					"numoutlets" : 0,
					"fontsize" : 10.0
				}

			}
, 			{
				"box" : 				{
					"maxclass" : "comment",
					"text" : "Blasting Slope",
					"linecount" : 2,
					"patching_rect" : [ 80.0, 13.0, 51.0, 29.0 ],
					"id" : "obj-15",
					"fontname" : "Arial",
					"numinlets" : 1,
					"numoutlets" : 0,
					"fontsize" : 10.0
				}

			}
, 			{
				"box" : 				{
					"maxclass" : "newobj",
					"text" : "p set_display_physical_parameters",
					"outlettype" : [ "", "", "", "", "", "", "", "" ],
					"patching_rect" : [ 134.0, -52.0, 172.0, 17.0 ],
					"id" : "obj-16",
					"fontname" : "Arial",
					"hidden" : 1,
					"numinlets" : 8,
					"numoutlets" : 8,
					"fontsize" : 9.0,
					"patcher" : 					{
						"fileversion" : 1,
						"rect" : [ 569.0, 517.0, 542.0, 247.0 ],
						"bglocked" : 0,
						"defrect" : [ 569.0, 517.0, 542.0, 247.0 ],
						"openrect" : [ 0.0, 0.0, 0.0, 0.0 ],
						"openinpresentation" : 0,
						"default_fontsize" : 12.0,
						"default_fontface" : 0,
						"default_fontname" : "Arial",
						"gridonopen" : 0,
						"gridsize" : [ 15.0, 15.0 ],
						"gridsnaponopen" : 0,
						"toolbarvisible" : 1,
						"boxanimatetime" : 200,
						"imprint" : 0,
						"enablehscroll" : 1,
						"enablevscroll" : 1,
						"devicewidth" : 0.0,
						"boxes" : [ 							{
								"box" : 								{
									"maxclass" : "newobj",
									"text" : "/ 2",
									"outlettype" : [ "int" ],
									"patching_rect" : [ 403.0, 105.0, 27.0, 17.0 ],
									"id" : "obj-1",
									"fontname" : "Arial",
									"numinlets" : 2,
									"numoutlets" : 1,
									"fontsize" : 9.0
								}

							}
, 							{
								"box" : 								{
									"maxclass" : "inlet",
									"outlettype" : [ "" ],
									"patching_rect" : [ 428.0, 46.0, 15.0, 15.0 ],
									"id" : "obj-2",
									"numinlets" : 0,
									"numoutlets" : 1,
									"comment" : "bubble frequency"
								}

							}
, 							{
								"box" : 								{
									"maxclass" : "newobj",
									"text" : "prepend set",
									"outlettype" : [ "" ],
									"patching_rect" : [ 402.0, 124.0, 62.0, 17.0 ],
									"id" : "obj-3",
									"fontname" : "Arial",
									"numinlets" : 1,
									"numoutlets" : 1,
									"fontsize" : 9.0
								}

							}
, 							{
								"box" : 								{
									"maxclass" : "outlet",
									"patching_rect" : [ 402.0, 148.0, 15.0, 15.0 ],
									"id" : "obj-4",
									"numinlets" : 1,
									"numoutlets" : 0,
									"comment" : "frequency m.box"
								}

							}
, 							{
								"box" : 								{
									"maxclass" : "inlet",
									"outlettype" : [ "" ],
									"patching_rect" : [ 384.0, 46.0, 15.0, 15.0 ],
									"id" : "obj-5",
									"numinlets" : 0,
									"numoutlets" : 1,
									"comment" : "bubble frequency from low level"
								}

							}
, 							{
								"box" : 								{
									"maxclass" : "outlet",
									"patching_rect" : [ 384.0, 148.0, 15.0, 15.0 ],
									"id" : "obj-6",
									"numinlets" : 1,
									"numoutlets" : 0,
									"comment" : "frequency slider"
								}

							}
, 							{
								"box" : 								{
									"maxclass" : "newobj",
									"text" : "prepend set 1",
									"outlettype" : [ "" ],
									"patching_rect" : [ 384.0, 77.0, 71.0, 17.0 ],
									"id" : "obj-7",
									"fontname" : "Arial",
									"numinlets" : 1,
									"numoutlets" : 1,
									"fontsize" : 9.0
								}

							}
, 							{
								"box" : 								{
									"maxclass" : "inlet",
									"outlettype" : [ "" ],
									"patching_rect" : [ 341.0, 47.0, 15.0, 15.0 ],
									"id" : "obj-8",
									"numinlets" : 0,
									"numoutlets" : 1,
									"comment" : "envelope smoothness"
								}

							}
, 							{
								"box" : 								{
									"maxclass" : "newobj",
									"text" : "prepend set",
									"outlettype" : [ "" ],
									"patching_rect" : [ 315.0, 125.0, 62.0, 17.0 ],
									"id" : "obj-9",
									"fontname" : "Arial",
									"numinlets" : 1,
									"numoutlets" : 1,
									"fontsize" : 9.0
								}

							}
, 							{
								"box" : 								{
									"maxclass" : "outlet",
									"patching_rect" : [ 315.0, 148.0, 15.0, 15.0 ],
									"id" : "obj-10",
									"numinlets" : 1,
									"numoutlets" : 0,
									"comment" : "envelope mbox"
								}

							}
, 							{
								"box" : 								{
									"maxclass" : "inlet",
									"outlettype" : [ "" ],
									"patching_rect" : [ 297.0, 47.0, 15.0, 15.0 ],
									"id" : "obj-11",
									"numinlets" : 0,
									"numoutlets" : 1,
									"comment" : "envelope smoothness from low level"
								}

							}
, 							{
								"box" : 								{
									"maxclass" : "outlet",
									"patching_rect" : [ 297.0, 148.0, 15.0, 15.0 ],
									"id" : "obj-12",
									"numinlets" : 1,
									"numoutlets" : 0,
									"comment" : "envelope slide"
								}

							}
, 							{
								"box" : 								{
									"maxclass" : "newobj",
									"text" : "prepend set 1",
									"outlettype" : [ "" ],
									"patching_rect" : [ 297.0, 78.0, 71.0, 17.0 ],
									"id" : "obj-13",
									"fontname" : "Arial",
									"numinlets" : 1,
									"numoutlets" : 1,
									"fontsize" : 9.0
								}

							}
, 							{
								"box" : 								{
									"maxclass" : "inlet",
									"outlettype" : [ "" ],
									"patching_rect" : [ 243.0, 48.0, 15.0, 15.0 ],
									"id" : "obj-14",
									"numinlets" : 0,
									"numoutlets" : 1,
									"comment" : "blasting slope"
								}

							}
, 							{
								"box" : 								{
									"maxclass" : "inlet",
									"outlettype" : [ "" ],
									"patching_rect" : [ 128.0, 48.0, 15.0, 15.0 ],
									"id" : "obj-15",
									"numinlets" : 0,
									"numoutlets" : 1,
									"comment" : "bubble radius"
								}

							}
, 							{
								"box" : 								{
									"maxclass" : "newobj",
									"text" : "prepend set",
									"outlettype" : [ "" ],
									"patching_rect" : [ 118.0, 127.0, 62.0, 17.0 ],
									"id" : "obj-16",
									"fontname" : "Arial",
									"numinlets" : 1,
									"numoutlets" : 1,
									"fontsize" : 9.0
								}

							}
, 							{
								"box" : 								{
									"maxclass" : "newobj",
									"text" : "prepend set",
									"outlettype" : [ "" ],
									"patching_rect" : [ 217.0, 126.0, 62.0, 17.0 ],
									"id" : "obj-17",
									"fontname" : "Arial",
									"numinlets" : 1,
									"numoutlets" : 1,
									"fontsize" : 9.0
								}

							}
, 							{
								"box" : 								{
									"maxclass" : "outlet",
									"patching_rect" : [ 217.0, 148.0, 15.0, 15.0 ],
									"id" : "obj-18",
									"numinlets" : 1,
									"numoutlets" : 0,
									"comment" : "blasting slope mbox"
								}

							}
, 							{
								"box" : 								{
									"maxclass" : "outlet",
									"patching_rect" : [ 118.0, 148.0, 15.0, 15.0 ],
									"id" : "obj-19",
									"numinlets" : 1,
									"numoutlets" : 0,
									"comment" : "radius mbox"
								}

							}
, 							{
								"box" : 								{
									"maxclass" : "inlet",
									"outlettype" : [ "" ],
									"patching_rect" : [ 199.0, 48.0, 15.0, 15.0 ],
									"id" : "obj-20",
									"numinlets" : 0,
									"numoutlets" : 1,
									"comment" : "blasting slope from low level"
								}

							}
, 							{
								"box" : 								{
									"maxclass" : "inlet",
									"outlettype" : [ "" ],
									"patching_rect" : [ 95.0, 48.0, 15.0, 15.0 ],
									"id" : "obj-21",
									"numinlets" : 0,
									"numoutlets" : 1,
									"comment" : "bubble radius from low level"
								}

							}
, 							{
								"box" : 								{
									"maxclass" : "outlet",
									"patching_rect" : [ 199.0, 148.0, 15.0, 15.0 ],
									"id" : "obj-22",
									"numinlets" : 1,
									"numoutlets" : 0,
									"comment" : "blasting slope slider"
								}

							}
, 							{
								"box" : 								{
									"maxclass" : "outlet",
									"patching_rect" : [ 95.0, 148.0, 15.0, 15.0 ],
									"id" : "obj-23",
									"numinlets" : 1,
									"numoutlets" : 0,
									"comment" : "radius slider"
								}

							}
, 							{
								"box" : 								{
									"maxclass" : "newobj",
									"text" : "prepend set 1",
									"outlettype" : [ "" ],
									"patching_rect" : [ 199.0, 79.0, 71.0, 17.0 ],
									"id" : "obj-24",
									"fontname" : "Arial",
									"numinlets" : 1,
									"numoutlets" : 1,
									"fontsize" : 9.0
								}

							}
, 							{
								"box" : 								{
									"maxclass" : "newobj",
									"text" : "prepend set 1",
									"outlettype" : [ "" ],
									"patching_rect" : [ 95.0, 79.0, 71.0, 17.0 ],
									"id" : "obj-25",
									"fontname" : "Arial",
									"numinlets" : 1,
									"numoutlets" : 1,
									"fontsize" : 9.0
								}

							}
 ],
						"lines" : [ 							{
								"patchline" : 								{
									"source" : [ "obj-5", 0 ],
									"destination" : [ "obj-1", 0 ],
									"hidden" : 0,
									"midpoints" : [ 393.0, 74.0, 412.5, 74.0 ]
								}

							}
, 							{
								"patchline" : 								{
									"source" : [ "obj-2", 0 ],
									"destination" : [ "obj-1", 0 ],
									"hidden" : 0,
									"midpoints" : [  ]
								}

							}
, 							{
								"patchline" : 								{
									"source" : [ "obj-3", 0 ],
									"destination" : [ "obj-4", 0 ],
									"hidden" : 0,
									"midpoints" : [  ]
								}

							}
, 							{
								"patchline" : 								{
									"source" : [ "obj-1", 0 ],
									"destination" : [ "obj-3", 0 ],
									"hidden" : 0,
									"midpoints" : [  ]
								}

							}
, 							{
								"patchline" : 								{
									"source" : [ "obj-7", 0 ],
									"destination" : [ "obj-6", 0 ],
									"hidden" : 0,
									"midpoints" : [  ]
								}

							}
, 							{
								"patchline" : 								{
									"source" : [ "obj-5", 0 ],
									"destination" : [ "obj-7", 0 ],
									"hidden" : 0,
									"midpoints" : [  ]
								}

							}
, 							{
								"patchline" : 								{
									"source" : [ "obj-9", 0 ],
									"destination" : [ "obj-10", 0 ],
									"hidden" : 0,
									"midpoints" : [  ]
								}

							}
, 							{
								"patchline" : 								{
									"source" : [ "obj-11", 0 ],
									"destination" : [ "obj-9", 0 ],
									"hidden" : 0,
									"midpoints" : [ 306.0, 76.0, 324.5, 76.0 ]
								}

							}
, 							{
								"patchline" : 								{
									"source" : [ "obj-8", 0 ],
									"destination" : [ "obj-9", 0 ],
									"hidden" : 0,
									"midpoints" : [  ]
								}

							}
, 							{
								"patchline" : 								{
									"source" : [ "obj-13", 0 ],
									"destination" : [ "obj-12", 0 ],
									"hidden" : 0,
									"midpoints" : [  ]
								}

							}
, 							{
								"patchline" : 								{
									"source" : [ "obj-11", 0 ],
									"destination" : [ "obj-13", 0 ],
									"hidden" : 0,
									"midpoints" : [  ]
								}

							}
, 							{
								"patchline" : 								{
									"source" : [ "obj-17", 0 ],
									"destination" : [ "obj-18", 0 ],
									"hidden" : 0,
									"midpoints" : [  ]
								}

							}
, 							{
								"patchline" : 								{
									"source" : [ "obj-20", 0 ],
									"destination" : [ "obj-17", 0 ],
									"hidden" : 0,
									"midpoints" : [ 208.0, 77.0, 226.5, 77.0 ]
								}

							}
, 							{
								"patchline" : 								{
									"source" : [ "obj-14", 0 ],
									"destination" : [ "obj-17", 0 ],
									"hidden" : 0,
									"midpoints" : [  ]
								}

							}
, 							{
								"patchline" : 								{
									"source" : [ "obj-24", 0 ],
									"destination" : [ "obj-22", 0 ],
									"hidden" : 0,
									"midpoints" : [  ]
								}

							}
, 							{
								"patchline" : 								{
									"source" : [ "obj-20", 0 ],
									"destination" : [ "obj-24", 0 ],
									"hidden" : 0,
									"midpoints" : [  ]
								}

							}
, 							{
								"patchline" : 								{
									"source" : [ "obj-16", 0 ],
									"destination" : [ "obj-19", 0 ],
									"hidden" : 0,
									"midpoints" : [  ]
								}

							}
, 							{
								"patchline" : 								{
									"source" : [ "obj-21", 0 ],
									"destination" : [ "obj-16", 0 ],
									"hidden" : 0,
									"midpoints" : [ 104.0, 80.0, 127.5, 80.0 ]
								}

							}
, 							{
								"patchline" : 								{
									"source" : [ "obj-15", 0 ],
									"destination" : [ "obj-16", 0 ],
									"hidden" : 0,
									"midpoints" : [  ]
								}

							}
, 							{
								"patchline" : 								{
									"source" : [ "obj-25", 0 ],
									"destination" : [ "obj-23", 0 ],
									"hidden" : 0,
									"midpoints" : [  ]
								}

							}
, 							{
								"patchline" : 								{
									"source" : [ "obj-21", 0 ],
									"destination" : [ "obj-25", 0 ],
									"hidden" : 0,
									"midpoints" : [  ]
								}

							}
 ]
					}
,
					"saved_object_attributes" : 					{
						"default_fontface" : 0,
						"default_fontname" : "Arial",
						"fontname" : "Arial",
						"default_fontsize" : 12.0,
						"globalpatchername" : "",
						"fontface" : 0,
						"fontsize" : 12.0
					}

				}

			}
, 			{
				"box" : 				{
					"maxclass" : "multislider",
					"outlettype" : [ "", "" ],
					"candicane6" : [ 0.733333, 0.035294, 0.788235, 1.0 ],
					"candicane5" : [ 0.584314, 0.827451, 0.431373, 1.0 ],
					"setminmax" : [ 0.0, 100.0 ],
					"slidercolor" : [ 1.0, 1.0, 1.0, 1.0 ],
					"bordercolor" : [ 1.0, 1.0, 1.0, 1.0 ],
					"candicane4" : [ 0.439216, 0.619608, 0.070588, 1.0 ],
					"patching_rect" : [ 35.0, 42.0, 14.0, 125.0 ],
					"contdata" : 1,
					"id" : "obj-17",
					"peakcolor" : [ 0.498039, 0.498039, 0.498039, 1.0 ],
					"candicane3" : [ 0.290196, 0.411765, 0.713726, 1.0 ],
					"numinlets" : 1,
					"candicane8" : [ 0.027451, 0.447059, 0.501961, 1.0 ],
					"bgcolor" : [ 0.156863, 0.8, 0.54902, 1.0 ],
					"candicane2" : [ 0.145098, 0.203922, 0.356863, 1.0 ],
					"numoutlets" : 2,
					"candicane7" : [ 0.878431, 0.243137, 0.145098, 1.0 ]
				}

			}
, 			{
				"box" : 				{
					"maxclass" : "multislider",
					"outlettype" : [ "", "" ],
					"candicane6" : [ 0.733333, 0.035294, 0.788235, 1.0 ],
					"candicane5" : [ 0.584314, 0.827451, 0.431373, 1.0 ],
					"setminmax" : [ 0.0, 100.0 ],
					"slidercolor" : [ 1.0, 1.0, 1.0, 1.0 ],
					"bordercolor" : [ 1.0, 1.0, 1.0, 1.0 ],
					"candicane4" : [ 0.439216, 0.619608, 0.070588, 1.0 ],
					"patching_rect" : [ 98.0, 42.0, 14.0, 125.0 ],
					"contdata" : 1,
					"id" : "obj-18",
					"peakcolor" : [ 0.498039, 0.498039, 0.498039, 1.0 ],
					"candicane3" : [ 0.290196, 0.411765, 0.713726, 1.0 ],
					"numinlets" : 1,
					"candicane8" : [ 0.027451, 0.447059, 0.501961, 1.0 ],
					"bgcolor" : [ 0.611765, 0.701961, 1.0, 1.0 ],
					"candicane2" : [ 0.145098, 0.203922, 0.356863, 1.0 ],
					"numoutlets" : 2,
					"candicane7" : [ 0.878431, 0.243137, 0.145098, 1.0 ]
				}

			}
, 			{
				"box" : 				{
					"maxclass" : "multislider",
					"outlettype" : [ "", "" ],
					"candicane6" : [ 0.733333, 0.035294, 0.788235, 1.0 ],
					"candicane5" : [ 0.584314, 0.827451, 0.431373, 1.0 ],
					"setminmax" : [ 0.0, 100.0 ],
					"slidercolor" : [ 1.0, 1.0, 1.0, 1.0 ],
					"bordercolor" : [ 1.0, 1.0, 1.0, 1.0 ],
					"candicane4" : [ 0.439216, 0.619608, 0.070588, 1.0 ],
					"patching_rect" : [ 161.0, 42.0, 14.0, 125.0 ],
					"contdata" : 1,
					"id" : "obj-19",
					"peakcolor" : [ 0.498039, 0.498039, 0.498039, 1.0 ],
					"candicane3" : [ 0.290196, 0.411765, 0.713726, 1.0 ],
					"numinlets" : 1,
					"candicane8" : [ 0.027451, 0.447059, 0.501961, 1.0 ],
					"bgcolor" : [ 0.4, 0.4, 0.8, 1.0 ],
					"candicane2" : [ 0.145098, 0.203922, 0.356863, 1.0 ],
					"numoutlets" : 2,
					"candicane7" : [ 0.878431, 0.243137, 0.145098, 1.0 ]
				}

			}
, 			{
				"box" : 				{
					"maxclass" : "multislider",
					"outlettype" : [ "", "" ],
					"candicane6" : [ 0.733333, 0.035294, 0.788235, 1.0 ],
					"candicane5" : [ 0.584314, 0.827451, 0.431373, 1.0 ],
					"setminmax" : [ 0.0, 100.0 ],
					"slidercolor" : [ 1.0, 1.0, 1.0, 1.0 ],
					"bordercolor" : [ 1.0, 1.0, 1.0, 1.0 ],
					"candicane4" : [ 0.439216, 0.619608, 0.070588, 1.0 ],
					"patching_rect" : [ 245.0, 42.0, 14.0, 125.0 ],
					"contdata" : 1,
					"id" : "obj-20",
					"peakcolor" : [ 0.498039, 0.498039, 0.498039, 1.0 ],
					"candicane3" : [ 0.290196, 0.411765, 0.713726, 1.0 ],
					"numinlets" : 1,
					"candicane8" : [ 0.027451, 0.447059, 0.501961, 1.0 ],
					"bgcolor" : [ 1.0, 0.890196, 0.090196, 1.0 ],
					"candicane2" : [ 0.145098, 0.203922, 0.356863, 1.0 ],
					"numoutlets" : 2,
					"candicane7" : [ 0.878431, 0.243137, 0.145098, 1.0 ]
				}

			}
, 			{
				"box" : 				{
					"maxclass" : "comment",
					"text" : "Bubble Radius",
					"linecount" : 2,
					"patching_rect" : [ 22.0, 13.0, 44.0, 29.0 ],
					"id" : "obj-21",
					"fontname" : "Arial",
					"numinlets" : 1,
					"numoutlets" : 0,
					"fontsize" : 10.0
				}

			}
, 			{
				"box" : 				{
					"maxclass" : "panel",
					"bordercolor" : [ 0.745098, 0.745098, 0.745098, 1.0 ],
					"patching_rect" : [ 1.0, 1.0, 287.0, 198.0 ],
					"id" : "obj-22",
					"rounded" : 3,
					"numinlets" : 1,
					"bgcolor" : [ 0.890196, 0.870588, 1.0, 1.0 ],
					"numoutlets" : 0,
					"border" : 1
				}

			}
 ],
		"lines" : [ 			{
				"patchline" : 				{
					"source" : [ "obj-20", 0 ],
					"destination" : [ "obj-16", 7 ],
					"hidden" : 1,
					"color" : [ 1.0, 0.890196, 0.090196, 1.0 ],
					"midpoints" : [ 250.0, 170.0, 9.0, 170.0, 9.0, -83.0, 296.5, -83.0 ]
				}

			}
, 			{
				"patchline" : 				{
					"source" : [ "obj-5", 0 ],
					"destination" : [ "obj-16", 6 ],
					"hidden" : 1,
					"midpoints" : [  ]
				}

			}
, 			{
				"patchline" : 				{
					"source" : [ "obj-19", 0 ],
					"destination" : [ "obj-16", 5 ],
					"hidden" : 1,
					"color" : [ 0.4, 0.4, 0.8, 1.0 ],
					"midpoints" : [ 166.0, 170.0, 9.0, 170.0, 9.0, -83.0, 252.785721, -83.0 ]
				}

			}
, 			{
				"patchline" : 				{
					"source" : [ "obj-20", 0 ],
					"destination" : [ "obj-1", 0 ],
					"hidden" : 1,
					"midpoints" : [  ]
				}

			}
, 			{
				"patchline" : 				{
					"source" : [ "obj-16", 6 ],
					"destination" : [ "obj-20", 0 ],
					"hidden" : 1,
					"midpoints" : [ 274.642853, -27.0, 253.0, -27.0 ]
				}

			}
, 			{
				"patchline" : 				{
					"source" : [ "obj-16", 7 ],
					"destination" : [ "obj-9", 0 ],
					"hidden" : 1,
					"midpoints" : [ 296.5, -27.0, 244.5, -27.0 ]
				}

			}
, 			{
				"patchline" : 				{
					"source" : [ "obj-6", 0 ],
					"destination" : [ "obj-16", 4 ],
					"hidden" : 1,
					"midpoints" : [  ]
				}

			}
, 			{
				"patchline" : 				{
					"source" : [ "obj-18", 0 ],
					"destination" : [ "obj-16", 3 ],
					"hidden" : 1,
					"color" : [ 0.611765, 0.701961, 1.0, 1.0 ],
					"midpoints" : [ 103.0, 170.0, 9.0, 170.0, 9.0, -83.0, 209.071426, -83.0 ]
				}

			}
, 			{
				"patchline" : 				{
					"source" : [ "obj-7", 0 ],
					"destination" : [ "obj-16", 2 ],
					"hidden" : 1,
					"midpoints" : [  ]
				}

			}
, 			{
				"patchline" : 				{
					"source" : [ "obj-19", 0 ],
					"destination" : [ "obj-2", 0 ],
					"hidden" : 1,
					"midpoints" : [  ]
				}

			}
, 			{
				"patchline" : 				{
					"source" : [ "obj-16", 4 ],
					"destination" : [ "obj-19", 0 ],
					"hidden" : 1,
					"midpoints" : [ 230.928574, -27.0, 169.0, -27.0 ]
				}

			}
, 			{
				"patchline" : 				{
					"source" : [ "obj-17", 0 ],
					"destination" : [ "obj-16", 1 ],
					"hidden" : 1,
					"color" : [ 0.156863, 0.8, 0.54902, 1.0 ],
					"midpoints" : [ 40.0, 170.0, 9.0, 170.0, 9.0, -83.0, 165.357147, -83.0 ]
				}

			}
, 			{
				"patchline" : 				{
					"source" : [ "obj-16", 5 ],
					"destination" : [ "obj-10", 0 ],
					"hidden" : 1,
					"midpoints" : [ 252.785721, -27.0, 149.5, -27.0 ]
				}

			}
, 			{
				"patchline" : 				{
					"source" : [ "obj-8", 0 ],
					"destination" : [ "obj-16", 0 ],
					"hidden" : 1,
					"midpoints" : [  ]
				}

			}
, 			{
				"patchline" : 				{
					"source" : [ "obj-18", 0 ],
					"destination" : [ "obj-3", 0 ],
					"hidden" : 1,
					"midpoints" : [  ]
				}

			}
, 			{
				"patchline" : 				{
					"source" : [ "obj-16", 2 ],
					"destination" : [ "obj-18", 0 ],
					"hidden" : 1,
					"midpoints" : [ 187.214279, -27.0, 106.0, -27.0 ]
				}

			}
, 			{
				"patchline" : 				{
					"source" : [ "obj-16", 3 ],
					"destination" : [ "obj-11", 0 ],
					"hidden" : 1,
					"midpoints" : [ 209.071426, -27.0, 85.5, -27.0 ]
				}

			}
, 			{
				"patchline" : 				{
					"source" : [ "obj-17", 0 ],
					"destination" : [ "obj-4", 0 ],
					"hidden" : 1,
					"midpoints" : [  ]
				}

			}
, 			{
				"patchline" : 				{
					"source" : [ "obj-16", 0 ],
					"destination" : [ "obj-17", 0 ],
					"hidden" : 1,
					"midpoints" : [ 143.5, -27.0, 43.0, -27.0 ]
				}

			}
, 			{
				"patchline" : 				{
					"source" : [ "obj-16", 1 ],
					"destination" : [ "obj-12", 0 ],
					"hidden" : 1,
					"midpoints" : [ 165.357147, -27.0, 21.5, -27.0 ]
				}

			}
 ]
	}

}
