{
	"patcher" : 	{
		"fileversion" : 1,
		"rect" : [ 103.0, 268.0, 605.0, 238.0 ],
		"bglocked" : 0,
		"defrect" : [ 103.0, 268.0, 605.0, 238.0 ],
		"openrect" : [ 0.0, 0.0, 0.0, 0.0 ],
		"openinpresentation" : 0,
		"default_fontsize" : 12.0,
		"default_fontface" : 0,
		"default_fontname" : "Arial",
		"gridonopen" : 0,
		"gridsize" : [ 15.0, 15.0 ],
		"gridsnaponopen" : 0,
		"toolbarvisible" : 1,
		"boxanimatetime" : 200,
		"imprint" : 0,
		"enablehscroll" : 1,
		"enablevscroll" : 1,
		"devicewidth" : 0.0,
		"boxes" : [ 			{
				"box" : 				{
					"maxclass" : "inlet",
					"numinlets" : 0,
					"id" : "obj-1",
					"numoutlets" : 1,
					"outlettype" : [ "" ],
					"hidden" : 1,
					"patching_rect" : [ 88.0, -78.0, 15.0, 15.0 ],
					"comment" : "slope var"
				}

			}
, 			{
				"box" : 				{
					"maxclass" : "inlet",
					"numinlets" : 0,
					"id" : "obj-2",
					"numoutlets" : 1,
					"outlettype" : [ "" ],
					"hidden" : 1,
					"patching_rect" : [ 34.0, -78.0, 15.0, 15.0 ],
					"comment" : "radius var"
				}

			}
, 			{
				"box" : 				{
					"maxclass" : "outlet",
					"numinlets" : 1,
					"id" : "obj-3",
					"numoutlets" : 0,
					"hidden" : 1,
					"patching_rect" : [ -18.0, 400.0, 15.0, 15.0 ],
					"comment" : "sound out"
				}

			}
, 			{
				"box" : 				{
					"maxclass" : "button",
					"numinlets" : 1,
					"id" : "obj-4",
					"numoutlets" : 1,
					"outlettype" : [ "bang" ],
					"hidden" : 1,
					"patching_rect" : [ -18.0, 339.0, 13.0, 13.0 ]
				}

			}
, 			{
				"box" : 				{
					"maxclass" : "newobj",
					"text" : "*~ 80",
					"fontname" : "Arial",
					"numinlets" : 2,
					"id" : "obj-5",
					"numoutlets" : 1,
					"outlettype" : [ "signal" ],
					"fontsize" : 9.0,
					"hidden" : 1,
					"patching_rect" : [ -18.0, 376.0, 38.0, 17.0 ]
				}

			}
, 			{
				"box" : 				{
					"maxclass" : "newobj",
					"text" : "bubblestream~",
					"fontname" : "Arial",
					"numinlets" : 8,
					"id" : "obj-6",
					"numoutlets" : 1,
					"outlettype" : [ "signal" ],
					"fontsize" : 9.0,
					"hidden" : 1,
					"patching_rect" : [ -18.0, 354.0, 187.0, 17.0 ]
				}

			}
, 			{
				"box" : 				{
					"maxclass" : "newobj",
					"text" : "p bubble_scale",
					"fontname" : "Arial",
					"numinlets" : 7,
					"id" : "obj-7",
					"numoutlets" : 7,
					"outlettype" : [ "", "", "", "", "", "", "" ],
					"fontsize" : 9.0,
					"hidden" : 1,
					"patching_rect" : [ 7.0, 294.0, 162.0, 17.0 ],
					"patcher" : 					{
						"fileversion" : 1,
						"rect" : [ 272.0, 220.0, 818.0, 225.0 ],
						"bglocked" : 0,
						"defrect" : [ 272.0, 220.0, 818.0, 225.0 ],
						"openrect" : [ 0.0, 0.0, 0.0, 0.0 ],
						"openinpresentation" : 0,
						"default_fontsize" : 12.0,
						"default_fontface" : 0,
						"default_fontname" : "Arial",
						"gridonopen" : 0,
						"gridsize" : [ 15.0, 15.0 ],
						"gridsnaponopen" : 0,
						"toolbarvisible" : 1,
						"boxanimatetime" : 200,
						"imprint" : 0,
						"enablehscroll" : 1,
						"enablevscroll" : 1,
						"devicewidth" : 0.0,
						"boxes" : [ 							{
								"box" : 								{
									"maxclass" : "outlet",
									"numinlets" : 1,
									"id" : "obj-1",
									"numoutlets" : 0,
									"patching_rect" : [ 685.0, 115.0, 15.0, 15.0 ],
									"comment" : "bubble frequency"
								}

							}
, 							{
								"box" : 								{
									"maxclass" : "outlet",
									"numinlets" : 1,
									"id" : "obj-2",
									"numoutlets" : 0,
									"patching_rect" : [ 564.0, 115.0, 15.0, 15.0 ],
									"comment" : "envelope"
								}

							}
, 							{
								"box" : 								{
									"maxclass" : "outlet",
									"numinlets" : 1,
									"id" : "obj-3",
									"numoutlets" : 0,
									"patching_rect" : [ 448.0, 115.0, 15.0, 15.0 ],
									"comment" : "ampl var"
								}

							}
, 							{
								"box" : 								{
									"maxclass" : "outlet",
									"numinlets" : 1,
									"id" : "obj-4",
									"numoutlets" : 0,
									"patching_rect" : [ 334.0, 115.0, 15.0, 15.0 ],
									"comment" : "slope var"
								}

							}
, 							{
								"box" : 								{
									"maxclass" : "outlet",
									"numinlets" : 1,
									"id" : "obj-5",
									"numoutlets" : 0,
									"patching_rect" : [ 234.0, 115.0, 15.0, 15.0 ],
									"comment" : "blasting slope"
								}

							}
, 							{
								"box" : 								{
									"maxclass" : "outlet",
									"numinlets" : 1,
									"id" : "obj-6",
									"numoutlets" : 0,
									"patching_rect" : [ 132.0, 115.0, 15.0, 15.0 ],
									"comment" : "radius var"
								}

							}
, 							{
								"box" : 								{
									"maxclass" : "outlet",
									"numinlets" : 1,
									"id" : "obj-7",
									"numoutlets" : 0,
									"patching_rect" : [ 15.0, 115.0, 15.0, 15.0 ],
									"comment" : "bubble radius"
								}

							}
, 							{
								"box" : 								{
									"maxclass" : "inlet",
									"numinlets" : 0,
									"id" : "obj-8",
									"numoutlets" : 1,
									"outlettype" : [ "" ],
									"patching_rect" : [ 685.0, 60.0, 15.0, 15.0 ],
									"comment" : ""
								}

							}
, 							{
								"box" : 								{
									"maxclass" : "inlet",
									"numinlets" : 0,
									"id" : "obj-9",
									"numoutlets" : 1,
									"outlettype" : [ "" ],
									"patching_rect" : [ 564.0, 60.0, 15.0, 15.0 ],
									"comment" : ""
								}

							}
, 							{
								"box" : 								{
									"maxclass" : "inlet",
									"numinlets" : 0,
									"id" : "obj-10",
									"numoutlets" : 1,
									"outlettype" : [ "" ],
									"patching_rect" : [ 448.0, 60.0, 15.0, 15.0 ],
									"comment" : ""
								}

							}
, 							{
								"box" : 								{
									"maxclass" : "inlet",
									"numinlets" : 0,
									"id" : "obj-11",
									"numoutlets" : 1,
									"outlettype" : [ "" ],
									"patching_rect" : [ 334.0, 60.0, 15.0, 15.0 ],
									"comment" : ""
								}

							}
, 							{
								"box" : 								{
									"maxclass" : "inlet",
									"numinlets" : 0,
									"id" : "obj-12",
									"numoutlets" : 1,
									"outlettype" : [ "" ],
									"patching_rect" : [ 234.0, 60.0, 15.0, 15.0 ],
									"comment" : ""
								}

							}
, 							{
								"box" : 								{
									"maxclass" : "inlet",
									"numinlets" : 0,
									"id" : "obj-13",
									"numoutlets" : 1,
									"outlettype" : [ "" ],
									"patching_rect" : [ 132.0, 60.0, 15.0, 15.0 ],
									"comment" : ""
								}

							}
, 							{
								"box" : 								{
									"maxclass" : "inlet",
									"numinlets" : 0,
									"id" : "obj-14",
									"numoutlets" : 1,
									"outlettype" : [ "" ],
									"patching_rect" : [ 15.0, 60.0, 15.0, 15.0 ],
									"comment" : ""
								}

							}
, 							{
								"box" : 								{
									"maxclass" : "newobj",
									"text" : "scale 0. 100. 0. 1.",
									"fontname" : "Arial",
									"numinlets" : 6,
									"id" : "obj-15",
									"numoutlets" : 1,
									"outlettype" : [ "" ],
									"fontsize" : 9.0,
									"hidden" : 1,
									"patching_rect" : [ 334.0, 83.0, 93.0, 17.0 ]
								}

							}
, 							{
								"box" : 								{
									"maxclass" : "newobj",
									"text" : "scale 0. 100. 0. 1.",
									"fontname" : "Arial",
									"numinlets" : 6,
									"id" : "obj-16",
									"numoutlets" : 1,
									"outlettype" : [ "" ],
									"fontsize" : 9.0,
									"hidden" : 1,
									"patching_rect" : [ 132.0, 83.0, 93.0, 17.0 ]
								}

							}
, 							{
								"box" : 								{
									"maxclass" : "newobj",
									"text" : "scale 0. 100. 0 50",
									"fontname" : "Arial",
									"numinlets" : 6,
									"id" : "obj-17",
									"numoutlets" : 1,
									"outlettype" : [ "" ],
									"fontsize" : 9.0,
									"hidden" : 1,
									"patching_rect" : [ 685.0, 83.0, 93.0, 17.0 ]
								}

							}
, 							{
								"box" : 								{
									"maxclass" : "newobj",
									"text" : "scale 0. 100. 0.01 1.",
									"fontname" : "Arial",
									"numinlets" : 6,
									"id" : "obj-18",
									"numoutlets" : 1,
									"outlettype" : [ "" ],
									"fontsize" : 9.0,
									"hidden" : 1,
									"patching_rect" : [ 564.0, 83.0, 105.0, 17.0 ]
								}

							}
, 							{
								"box" : 								{
									"maxclass" : "newobj",
									"text" : "scale 0. 100. 0. 1.",
									"fontname" : "Arial",
									"numinlets" : 6,
									"id" : "obj-19",
									"numoutlets" : 1,
									"outlettype" : [ "" ],
									"fontsize" : 9.0,
									"hidden" : 1,
									"patching_rect" : [ 448.0, 83.0, 93.0, 17.0 ]
								}

							}
, 							{
								"box" : 								{
									"maxclass" : "newobj",
									"text" : "scale 0. 100. 0. 1.",
									"fontname" : "Arial",
									"numinlets" : 6,
									"id" : "obj-20",
									"numoutlets" : 1,
									"outlettype" : [ "" ],
									"fontsize" : 9.0,
									"hidden" : 1,
									"patching_rect" : [ 234.0, 83.0, 93.0, 17.0 ]
								}

							}
, 							{
								"box" : 								{
									"maxclass" : "newobj",
									"text" : "scale 0. 100. 2. 14.7",
									"fontname" : "Arial",
									"numinlets" : 6,
									"id" : "obj-21",
									"numoutlets" : 1,
									"outlettype" : [ "" ],
									"fontsize" : 9.0,
									"hidden" : 1,
									"patching_rect" : [ 15.0, 83.0, 105.0, 17.0 ]
								}

							}
 ],
						"lines" : [ 							{
								"patchline" : 								{
									"source" : [ "obj-17", 0 ],
									"destination" : [ "obj-1", 0 ],
									"hidden" : 0,
									"midpoints" : [  ]
								}

							}
, 							{
								"patchline" : 								{
									"source" : [ "obj-8", 0 ],
									"destination" : [ "obj-17", 0 ],
									"hidden" : 0,
									"midpoints" : [  ]
								}

							}
, 							{
								"patchline" : 								{
									"source" : [ "obj-18", 0 ],
									"destination" : [ "obj-2", 0 ],
									"hidden" : 0,
									"midpoints" : [  ]
								}

							}
, 							{
								"patchline" : 								{
									"source" : [ "obj-9", 0 ],
									"destination" : [ "obj-18", 0 ],
									"hidden" : 0,
									"midpoints" : [  ]
								}

							}
, 							{
								"patchline" : 								{
									"source" : [ "obj-19", 0 ],
									"destination" : [ "obj-3", 0 ],
									"hidden" : 0,
									"midpoints" : [  ]
								}

							}
, 							{
								"patchline" : 								{
									"source" : [ "obj-10", 0 ],
									"destination" : [ "obj-19", 0 ],
									"hidden" : 0,
									"midpoints" : [  ]
								}

							}
, 							{
								"patchline" : 								{
									"source" : [ "obj-15", 0 ],
									"destination" : [ "obj-4", 0 ],
									"hidden" : 0,
									"midpoints" : [  ]
								}

							}
, 							{
								"patchline" : 								{
									"source" : [ "obj-11", 0 ],
									"destination" : [ "obj-15", 0 ],
									"hidden" : 0,
									"midpoints" : [  ]
								}

							}
, 							{
								"patchline" : 								{
									"source" : [ "obj-20", 0 ],
									"destination" : [ "obj-5", 0 ],
									"hidden" : 0,
									"midpoints" : [  ]
								}

							}
, 							{
								"patchline" : 								{
									"source" : [ "obj-12", 0 ],
									"destination" : [ "obj-20", 0 ],
									"hidden" : 0,
									"midpoints" : [  ]
								}

							}
, 							{
								"patchline" : 								{
									"source" : [ "obj-16", 0 ],
									"destination" : [ "obj-6", 0 ],
									"hidden" : 0,
									"midpoints" : [  ]
								}

							}
, 							{
								"patchline" : 								{
									"source" : [ "obj-13", 0 ],
									"destination" : [ "obj-16", 0 ],
									"hidden" : 0,
									"midpoints" : [  ]
								}

							}
, 							{
								"patchline" : 								{
									"source" : [ "obj-21", 0 ],
									"destination" : [ "obj-7", 0 ],
									"hidden" : 0,
									"midpoints" : [  ]
								}

							}
, 							{
								"patchline" : 								{
									"source" : [ "obj-14", 0 ],
									"destination" : [ "obj-21", 0 ],
									"hidden" : 0,
									"midpoints" : [  ]
								}

							}
 ]
					}
,
					"saved_object_attributes" : 					{
						"fontname" : "Arial",
						"default_fontsize" : 12.0,
						"fontface" : 0,
						"fontsize" : 12.0,
						"globalpatchername" : "",
						"default_fontface" : 0,
						"default_fontname" : "Arial"
					}

				}

			}
, 			{
				"box" : 				{
					"maxclass" : "newobj",
					"text" : "prepend set",
					"fontname" : "Arial",
					"numinlets" : 1,
					"id" : "obj-8",
					"numoutlets" : 1,
					"outlettype" : [ "" ],
					"fontsize" : 9.0,
					"hidden" : 1,
					"patching_rect" : [ 182.0, 293.0, 62.0, 17.0 ]
				}

			}
, 			{
				"box" : 				{
					"maxclass" : "inlet",
					"numinlets" : 0,
					"id" : "obj-9",
					"numoutlets" : 1,
					"outlettype" : [ "" ],
					"hidden" : 1,
					"patching_rect" : [ 142.0, -78.0, 15.0, 15.0 ],
					"comment" : "bubble frequency"
				}

			}
, 			{
				"box" : 				{
					"maxclass" : "inlet",
					"numinlets" : 0,
					"id" : "obj-10",
					"numoutlets" : 1,
					"outlettype" : [ "" ],
					"hidden" : 1,
					"patching_rect" : [ 115.0, -78.0, 15.0, 15.0 ],
					"comment" : "envelope"
				}

			}
, 			{
				"box" : 				{
					"maxclass" : "inlet",
					"numinlets" : 0,
					"id" : "obj-11",
					"numoutlets" : 1,
					"outlettype" : [ "" ],
					"hidden" : 1,
					"patching_rect" : [ 61.0, -78.0, 15.0, 15.0 ],
					"comment" : "balsting slope"
				}

			}
, 			{
				"box" : 				{
					"maxclass" : "inlet",
					"numinlets" : 0,
					"id" : "obj-12",
					"numoutlets" : 1,
					"outlettype" : [ "" ],
					"hidden" : 1,
					"patching_rect" : [ 7.0, -78.0, 15.0, 15.0 ],
					"comment" : "bubble radius"
				}

			}
, 			{
				"box" : 				{
					"maxclass" : "comment",
					"text" : "Bubblestream on/off",
					"fontname" : "Arial Black",
					"numinlets" : 1,
					"id" : "obj-13",
					"numoutlets" : 0,
					"fontsize" : 9.0,
					"patching_rect" : [ 331.0, 167.0, 115.0, 19.0 ]
				}

			}
, 			{
				"box" : 				{
					"maxclass" : "toggle",
					"numinlets" : 1,
					"id" : "obj-14",
					"numoutlets" : 1,
					"outlettype" : [ "int" ],
					"patching_rect" : [ 365.0, 185.0, 34.0, 34.0 ]
				}

			}
, 			{
				"box" : 				{
					"maxclass" : "inlet",
					"numinlets" : 0,
					"id" : "obj-15",
					"numoutlets" : 1,
					"outlettype" : [ "" ],
					"hidden" : 1,
					"patching_rect" : [ 304.0, -78.0, 15.0, 15.0 ],
					"comment" : "Preset interpolation (floating)"
				}

			}
, 			{
				"box" : 				{
					"maxclass" : "newobj",
					"varname" : "03_bbstream_lowlevel",
					"text" : "03_bbstream_lowlevel #1",
					"fontname" : "Arial",
					"numinlets" : 13,
					"id" : "obj-16",
					"numoutlets" : 14,
					"outlettype" : [ "", "", "", "", "", "", "", "int", "float", "int", "set", "clear", "int", "float" ],
					"fontsize" : 9.0,
					"hidden" : 1,
					"patching_rect" : [ 7.0, 256.0, 337.0, 17.0 ]
				}

			}
, 			{
				"box" : 				{
					"maxclass" : "comment",
					"text" : "Physical paramters",
					"fontname" : "Arial Black",
					"numinlets" : 1,
					"id" : "obj-17",
					"numoutlets" : 0,
					"fontsize" : 12.0,
					"patching_rect" : [ 81.0, 1.0, 136.0, 23.0 ]
				}

			}
, 			{
				"box" : 				{
					"maxclass" : "bpatcher",
					"numinlets" : 4,
					"id" : "obj-18",
					"numoutlets" : 4,
					"name" : "04_bbstream_physparams.maxpat",
					"args" : [  ],
					"outlettype" : [ "", "", "", "" ],
					"patching_rect" : [ 1.0, 25.0, 290.0, 201.0 ]
				}

			}
, 			{
				"box" : 				{
					"maxclass" : "newobj",
					"text" : "prepend set",
					"fontname" : "Arial",
					"numinlets" : 1,
					"id" : "obj-19",
					"numoutlets" : 1,
					"outlettype" : [ "" ],
					"fontsize" : 9.0,
					"hidden" : 1,
					"patching_rect" : [ 575.0, 254.0, 62.0, 17.0 ]
				}

			}
, 			{
				"box" : 				{
					"maxclass" : "newobj",
					"text" : "i",
					"fontname" : "Arial",
					"numinlets" : 2,
					"id" : "obj-20",
					"numoutlets" : 1,
					"outlettype" : [ "int" ],
					"fontsize" : 9.0,
					"hidden" : 1,
					"patching_rect" : [ 575.0, 235.0, 27.0, 17.0 ]
				}

			}
, 			{
				"box" : 				{
					"maxclass" : "newobj",
					"text" : "pipe 500",
					"fontname" : "Arial",
					"numinlets" : 2,
					"id" : "obj-21",
					"numoutlets" : 1,
					"outlettype" : [ "" ],
					"fontsize" : 9.0,
					"hidden" : 1,
					"patching_rect" : [ 673.0, -19.0, 49.0, 17.0 ]
				}

			}
, 			{
				"box" : 				{
					"maxclass" : "newobj",
					"text" : "p updatefield",
					"fontname" : "Arial",
					"numinlets" : 1,
					"id" : "obj-22",
					"numoutlets" : 2,
					"outlettype" : [ "", "" ],
					"fontsize" : 9.0,
					"hidden" : 1,
					"patching_rect" : [ 663.0, 81.0, 67.0, 17.0 ],
					"patcher" : 					{
						"fileversion" : 1,
						"rect" : [ 182.0, 252.0, 600.0, 426.0 ],
						"bglocked" : 0,
						"defrect" : [ 182.0, 252.0, 600.0, 426.0 ],
						"openrect" : [ 0.0, 0.0, 0.0, 0.0 ],
						"openinpresentation" : 0,
						"default_fontsize" : 12.0,
						"default_fontface" : 0,
						"default_fontname" : "Arial",
						"gridonopen" : 0,
						"gridsize" : [ 15.0, 15.0 ],
						"gridsnaponopen" : 0,
						"toolbarvisible" : 1,
						"boxanimatetime" : 200,
						"imprint" : 0,
						"enablehscroll" : 1,
						"enablevscroll" : 1,
						"devicewidth" : 0.0,
						"boxes" : [ 							{
								"box" : 								{
									"maxclass" : "newobj",
									"text" : "tosymbol",
									"fontname" : "Arial",
									"numinlets" : 1,
									"id" : "obj-15",
									"numoutlets" : 1,
									"outlettype" : [ "" ],
									"fontsize" : 9.0,
									"patching_rect" : [ 67.0, 210.0, 47.0, 17.0 ]
								}

							}
, 							{
								"box" : 								{
									"maxclass" : "inlet",
									"numinlets" : 0,
									"id" : "obj-1",
									"numoutlets" : 1,
									"outlettype" : [ "bang" ],
									"patching_rect" : [ 291.0, 53.0, 15.0, 15.0 ],
									"comment" : ""
								}

							}
, 							{
								"box" : 								{
									"maxclass" : "newobj",
									"text" : "t bang",
									"fontname" : "Arial",
									"numinlets" : 1,
									"id" : "obj-2",
									"numoutlets" : 1,
									"outlettype" : [ "bang" ],
									"fontsize" : 9.0,
									"patching_rect" : [ 292.0, 89.0, 37.0, 17.0 ]
								}

							}
, 							{
								"box" : 								{
									"maxclass" : "newobj",
									"text" : "pack depth 4",
									"fontname" : "Arial",
									"numinlets" : 2,
									"id" : "obj-3",
									"numoutlets" : 1,
									"outlettype" : [ "" ],
									"fontsize" : 9.0,
									"patching_rect" : [ 292.0, 110.0, 66.0, 17.0 ]
								}

							}
, 							{
								"box" : 								{
									"maxclass" : "newobj",
									"text" : "loadbang",
									"fontname" : "Arial",
									"numinlets" : 1,
									"id" : "obj-4",
									"numoutlets" : 1,
									"outlettype" : [ "bang" ],
									"fontsize" : 9.0,
									"patching_rect" : [ 109.0, 50.0, 48.0, 17.0 ]
								}

							}
, 							{
								"box" : 								{
									"maxclass" : "button",
									"numinlets" : 1,
									"id" : "obj-5",
									"numoutlets" : 1,
									"outlettype" : [ "bang" ],
									"patching_rect" : [ 50.0, 155.0, 15.0, 15.0 ]
								}

							}
, 							{
								"box" : 								{
									"maxclass" : "message",
									"text" : "\"Macintosh HD:/Users/sdellemo/Documents/01_SoundDesignToolKit/SDT_contents\"",
									"fontname" : "Arial",
									"numinlets" : 2,
									"id" : "obj-6",
									"numoutlets" : 1,
									"outlettype" : [ "" ],
									"fontsize" : 9.0,
									"patching_rect" : [ 67.0, 174.0, 376.0, 15.0 ]
								}

							}
, 							{
								"box" : 								{
									"maxclass" : "newobj",
									"text" : "prepend set",
									"fontname" : "Arial",
									"numinlets" : 1,
									"id" : "obj-7",
									"numoutlets" : 1,
									"outlettype" : [ "" ],
									"fontsize" : 9.0,
									"patching_rect" : [ 67.0, 131.0, 60.0, 17.0 ]
								}

							}
, 							{
								"box" : 								{
									"maxclass" : "message",
									"text" : "SDT_contents",
									"fontname" : "Arial",
									"numinlets" : 2,
									"id" : "obj-8",
									"numoutlets" : 1,
									"outlettype" : [ "" ],
									"fontsize" : 9.0,
									"patching_rect" : [ 67.0, 83.0, 72.0, 15.0 ]
								}

							}
, 							{
								"box" : 								{
									"maxclass" : "newobj",
									"text" : "absolutepath",
									"fontname" : "Arial",
									"numinlets" : 1,
									"color" : [ 1.0, 0.890196, 0.090196, 1.0 ],
									"id" : "obj-9",
									"numoutlets" : 1,
									"outlettype" : [ "" ],
									"fontsize" : 9.0,
									"patching_rect" : [ 67.0, 102.0, 64.0, 17.0 ]
								}

							}
, 							{
								"box" : 								{
									"maxclass" : "newobj",
									"text" : "sprintf %s/Presets/Bubblestream/Timbral",
									"fontname" : "Arial",
									"numinlets" : 1,
									"id" : "obj-10",
									"numoutlets" : 1,
									"outlettype" : [ "" ],
									"fontsize" : 9.0,
									"patching_rect" : [ 67.0, 192.0, 207.0, 17.0 ]
								}

							}
, 							{
								"box" : 								{
									"maxclass" : "newobj",
									"text" : "prepend prefix",
									"fontname" : "Arial",
									"numinlets" : 1,
									"id" : "obj-11",
									"numoutlets" : 1,
									"outlettype" : [ "" ],
									"fontsize" : 9.0,
									"patching_rect" : [ 67.0, 229.0, 76.0, 17.0 ]
								}

							}
, 							{
								"box" : 								{
									"maxclass" : "message",
									"text" : "autopopulate 1",
									"fontname" : "Arial",
									"numinlets" : 2,
									"id" : "obj-12",
									"numoutlets" : 1,
									"outlettype" : [ "" ],
									"fontsize" : 9.0,
									"patching_rect" : [ 145.0, 83.0, 75.0, 15.0 ]
								}

							}
, 							{
								"box" : 								{
									"maxclass" : "outlet",
									"numinlets" : 1,
									"id" : "obj-13",
									"numoutlets" : 0,
									"patching_rect" : [ 144.0, 251.0, 15.0, 15.0 ],
									"comment" : ""
								}

							}
, 							{
								"box" : 								{
									"maxclass" : "outlet",
									"numinlets" : 1,
									"id" : "obj-14",
									"numoutlets" : 0,
									"patching_rect" : [ 67.0, 251.0, 15.0, 15.0 ],
									"comment" : ""
								}

							}
 ],
						"lines" : [ 							{
								"patchline" : 								{
									"source" : [ "obj-15", 0 ],
									"destination" : [ "obj-11", 0 ],
									"hidden" : 0,
									"midpoints" : [  ]
								}

							}
, 							{
								"patchline" : 								{
									"source" : [ "obj-10", 0 ],
									"destination" : [ "obj-15", 0 ],
									"hidden" : 0,
									"midpoints" : [  ]
								}

							}
, 							{
								"patchline" : 								{
									"source" : [ "obj-2", 0 ],
									"destination" : [ "obj-3", 0 ],
									"hidden" : 0,
									"midpoints" : [  ]
								}

							}
, 							{
								"patchline" : 								{
									"source" : [ "obj-1", 0 ],
									"destination" : [ "obj-2", 0 ],
									"hidden" : 0,
									"midpoints" : [  ]
								}

							}
, 							{
								"patchline" : 								{
									"source" : [ "obj-4", 0 ],
									"destination" : [ "obj-12", 0 ],
									"hidden" : 0,
									"midpoints" : [  ]
								}

							}
, 							{
								"patchline" : 								{
									"source" : [ "obj-12", 0 ],
									"destination" : [ "obj-13", 0 ],
									"hidden" : 0,
									"midpoints" : [  ]
								}

							}
, 							{
								"patchline" : 								{
									"source" : [ "obj-3", 0 ],
									"destination" : [ "obj-13", 0 ],
									"hidden" : 0,
									"midpoints" : [ 301.5, 235.0, 153.0, 235.0 ]
								}

							}
, 							{
								"patchline" : 								{
									"source" : [ "obj-11", 0 ],
									"destination" : [ "obj-14", 0 ],
									"hidden" : 0,
									"midpoints" : [  ]
								}

							}
, 							{
								"patchline" : 								{
									"source" : [ "obj-6", 0 ],
									"destination" : [ "obj-10", 0 ],
									"hidden" : 0,
									"midpoints" : [  ]
								}

							}
, 							{
								"patchline" : 								{
									"source" : [ "obj-5", 0 ],
									"destination" : [ "obj-6", 0 ],
									"hidden" : 0,
									"midpoints" : [  ]
								}

							}
, 							{
								"patchline" : 								{
									"source" : [ "obj-7", 0 ],
									"destination" : [ "obj-6", 0 ],
									"hidden" : 0,
									"midpoints" : [  ]
								}

							}
, 							{
								"patchline" : 								{
									"source" : [ "obj-9", 0 ],
									"destination" : [ "obj-7", 0 ],
									"hidden" : 0,
									"midpoints" : [  ]
								}

							}
, 							{
								"patchline" : 								{
									"source" : [ "obj-8", 0 ],
									"destination" : [ "obj-9", 0 ],
									"hidden" : 0,
									"midpoints" : [  ]
								}

							}
, 							{
								"patchline" : 								{
									"source" : [ "obj-4", 0 ],
									"destination" : [ "obj-8", 0 ],
									"hidden" : 0,
									"midpoints" : [  ]
								}

							}
, 							{
								"patchline" : 								{
									"source" : [ "obj-7", 0 ],
									"destination" : [ "obj-5", 0 ],
									"hidden" : 0,
									"midpoints" : [  ]
								}

							}
 ]
					}
,
					"saved_object_attributes" : 					{
						"fontname" : "Arial",
						"default_fontsize" : 12.0,
						"fontface" : 0,
						"fontsize" : 12.0,
						"globalpatchername" : "",
						"default_fontface" : 0,
						"default_fontname" : "Arial"
					}

				}

			}
, 			{
				"box" : 				{
					"maxclass" : "comment",
					"text" : "bang to update available presets files",
					"fontname" : "Arial",
					"numinlets" : 1,
					"id" : "obj-23",
					"numoutlets" : 0,
					"fontsize" : 9.0,
					"patching_rect" : [ 491.0, 67.0, 172.0, 17.0 ]
				}

			}
, 			{
				"box" : 				{
					"maxclass" : "button",
					"numinlets" : 1,
					"id" : "obj-24",
					"numoutlets" : 1,
					"outlettype" : [ "bang" ],
					"patching_rect" : [ 623.0, 81.0, 18.0, 18.0 ]
				}

			}
, 			{
				"box" : 				{
					"maxclass" : "umenu",
					"fontname" : "Arial",
					"textcolor" : [ 1.0, 1.0, 1.0, 1.0 ],
					"numinlets" : 1,
					"framecolor" : [ 1.0, 1.0, 1.0, 1.0 ],
					"id" : "obj-25",
					"numoutlets" : 3,
					"bgcolor2" : [ 0.647059, 0.647059, 0.647059, 1.0 ],
					"discolor" : [ 0.647059, 0.647059, 0.647059, 1.0 ],
					"depth" : 4,
					"outlettype" : [ "int", "", "" ],
					"fontsize" : 12.0,
					"togcolor" : [ 0.552941, 0.552941, 0.552941, 1.0 ],
					"autopopulate" : 1,
					"bgcolor" : [ 0.517647, 0.517647, 0.517647, 1.0 ],
					"textcolor2" : [ 1.0, 1.0, 1.0, 1.0 ],
					"types" : [  ],
					"patching_rect" : [ 502.0, 80.0, 123.0, 20.0 ],
					"items" : [ ".svn", ",", ".svn/all-wcprops", ",", ".svn/entries", ",", ".svn/format", ",", ".svn/prop-base", ",", ".svn/props", ",", ".svn/text-base", ",", ".svn/text-base/Impact_preset.xml.svn-base", ",", ".svn/tmp", ",", ".svn/tmp/prop-base", ",", ".svn/tmp/props", ",", ".svn/tmp/text-base", ",", "Impact_preset.xml" ],
					"prefix" : "Macintosh",
					"hltcolor" : [ 0.517647, 0.517647, 0.517647, 1.0 ]
				}

			}
, 			{
				"box" : 				{
					"maxclass" : "newobj",
					"text" : "prepend set",
					"fontname" : "Arial",
					"numinlets" : 1,
					"id" : "obj-26",
					"numoutlets" : 1,
					"outlettype" : [ "" ],
					"fontsize" : 9.0,
					"hidden" : 1,
					"patching_rect" : [ 299.0, 291.0, 62.0, 17.0 ]
				}

			}
, 			{
				"box" : 				{
					"maxclass" : "newobj",
					"text" : "prepend set",
					"fontname" : "Arial",
					"numinlets" : 1,
					"id" : "obj-27",
					"numoutlets" : 1,
					"outlettype" : [ "" ],
					"fontsize" : 9.0,
					"hidden" : 1,
					"patching_rect" : [ 378.0, 291.0, 62.0, 17.0 ]
				}

			}
, 			{
				"box" : 				{
					"maxclass" : "comment",
					"text" : "Recall a preset",
					"fontname" : "Arial Black",
					"numinlets" : 1,
					"id" : "obj-28",
					"numoutlets" : 0,
					"fontsize" : 9.0,
					"patching_rect" : [ 525.0, 28.0, 84.0, 19.0 ]
				}

			}
, 			{
				"box" : 				{
					"maxclass" : "comment",
					"text" : "Delete a preset",
					"fontname" : "Arial Black",
					"numinlets" : 1,
					"id" : "obj-29",
					"numoutlets" : 0,
					"fontsize" : 9.0,
					"patching_rect" : [ 343.0, 111.0, 87.0, 19.0 ]
				}

			}
, 			{
				"box" : 				{
					"maxclass" : "newobj",
					"text" : "pipe 500",
					"fontname" : "Arial",
					"numinlets" : 2,
					"id" : "obj-30",
					"numoutlets" : 1,
					"outlettype" : [ "" ],
					"fontsize" : 9.0,
					"hidden" : 1,
					"patching_rect" : [ 683.0, -39.0, 49.0, 17.0 ]
				}

			}
, 			{
				"box" : 				{
					"maxclass" : "hint",
					"hint" : "Write timbral presets file on disk",
					"numinlets" : 1,
					"id" : "obj-31",
					"numoutlets" : 0,
					"hidden" : 1,
					"patching_rect" : [ 380.0, 84.0, 50.0, 13.0 ]
				}

			}
, 			{
				"box" : 				{
					"maxclass" : "hint",
					"hint" : "Read timbral presets file from disk",
					"numinlets" : 1,
					"id" : "obj-32",
					"numoutlets" : 0,
					"hidden" : 1,
					"patching_rect" : [ 345.0, 84.0, 32.0, 15.0 ]
				}

			}
, 			{
				"box" : 				{
					"maxclass" : "newobj",
					"text" : "loadmess 1",
					"fontname" : "Arial",
					"numinlets" : 1,
					"id" : "obj-33",
					"numoutlets" : 1,
					"outlettype" : [ "" ],
					"fontsize" : 9.0,
					"hidden" : 1,
					"patching_rect" : [ 683.0, -61.0, 60.0, 17.0 ]
				}

			}
, 			{
				"box" : 				{
					"maxclass" : "message",
					"text" : "close",
					"fontname" : "Arial",
					"numinlets" : 2,
					"id" : "obj-34",
					"numoutlets" : 1,
					"outlettype" : [ "" ],
					"fontsize" : 9.0,
					"hidden" : 1,
					"bgcolor" : [ 0.760784, 0.709804, 0.811765, 1.0 ],
					"patching_rect" : [ 639.0, 214.0, 33.0, 15.0 ]
				}

			}
, 			{
				"box" : 				{
					"maxclass" : "message",
					"text" : "open",
					"fontname" : "Arial",
					"numinlets" : 2,
					"id" : "obj-35",
					"numoutlets" : 1,
					"outlettype" : [ "" ],
					"fontsize" : 9.0,
					"hidden" : 1,
					"bgcolor" : [ 0.760784, 0.709804, 0.811765, 1.0 ],
					"patching_rect" : [ 673.0, 214.0, 30.0, 15.0 ]
				}

			}
, 			{
				"box" : 				{
					"maxclass" : "newobj",
					"text" : "pcontrol",
					"fontname" : "Arial",
					"numinlets" : 1,
					"color" : [ 0.760784, 0.709804, 0.811765, 1.0 ],
					"id" : "obj-36",
					"numoutlets" : 1,
					"outlettype" : [ "" ],
					"fontsize" : 9.0,
					"hidden" : 1,
					"patching_rect" : [ 639.0, 233.0, 47.0, 17.0 ]
				}

			}
, 			{
				"box" : 				{
					"maxclass" : "ubutton",
					"toggle" : 1,
					"numinlets" : 1,
					"handoff" : "",
					"id" : "obj-37",
					"numoutlets" : 4,
					"outlettype" : [ "bang", "bang", "", "int" ],
					"patching_rect" : [ 515.0, 186.0, 123.0, 20.0 ]
				}

			}
, 			{
				"box" : 				{
					"maxclass" : "comment",
					"text" : "Low level interface",
					"fontname" : "Arial",
					"numinlets" : 1,
					"id" : "obj-38",
					"numoutlets" : 0,
					"fontsize" : 12.0,
					"patching_rect" : [ 518.0, 188.0, 120.0, 20.0 ]
				}

			}
, 			{
				"box" : 				{
					"maxclass" : "panel",
					"rounded" : 3,
					"numinlets" : 1,
					"id" : "obj-39",
					"numoutlets" : 0,
					"shadow" : 1,
					"bordercolor" : [ 0.745098, 0.745098, 0.745098, 1.0 ],
					"bgcolor" : [ 1.0, 0.74902, 0.74902, 1.0 ],
					"border" : 1,
					"patching_rect" : [ 514.0, 183.0, 127.0, 26.0 ]
				}

			}
, 			{
				"box" : 				{
					"maxclass" : "newobj",
					"text" : "p edit_modes",
					"fontname" : "Arial",
					"numinlets" : 2,
					"id" : "obj-40",
					"numoutlets" : 1,
					"outlettype" : [ "" ],
					"fontsize" : 9.0,
					"hidden" : 1,
					"patching_rect" : [ 525.0, 181.0, 69.0, 17.0 ],
					"patcher" : 					{
						"fileversion" : 1,
						"rect" : [ 179.0, 110.0, 269.0, 251.0 ],
						"bglocked" : 0,
						"defrect" : [ 179.0, 110.0, 269.0, 251.0 ],
						"openrect" : [ 0.0, 0.0, 0.0, 0.0 ],
						"openinpresentation" : 0,
						"default_fontsize" : 12.0,
						"default_fontface" : 0,
						"default_fontname" : "Arial",
						"gridonopen" : 0,
						"gridsize" : [ 15.0, 15.0 ],
						"gridsnaponopen" : 0,
						"toolbarvisible" : 1,
						"boxanimatetime" : 200,
						"imprint" : 0,
						"enablehscroll" : 1,
						"enablevscroll" : 1,
						"devicewidth" : 0.0,
						"boxes" : [ 							{
								"box" : 								{
									"maxclass" : "message",
									"text" : "brgb 255 43 43",
									"fontname" : "Arial",
									"numinlets" : 2,
									"id" : "obj-1",
									"numoutlets" : 1,
									"outlettype" : [ "" ],
									"fontsize" : 9.0,
									"hidden" : 1,
									"patching_rect" : [ 154.0, 96.0, 81.0, 15.0 ]
								}

							}
, 							{
								"box" : 								{
									"maxclass" : "message",
									"text" : "brgb 255 191 191",
									"fontname" : "Arial",
									"numinlets" : 2,
									"id" : "obj-2",
									"numoutlets" : 1,
									"outlettype" : [ "" ],
									"fontsize" : 9.0,
									"hidden" : 1,
									"patching_rect" : [ 45.0, 96.0, 93.0, 15.0 ]
								}

							}
, 							{
								"box" : 								{
									"maxclass" : "outlet",
									"numinlets" : 1,
									"id" : "obj-3",
									"numoutlets" : 0,
									"patching_rect" : [ 45.0, 173.0, 15.0, 15.0 ],
									"comment" : ""
								}

							}
, 							{
								"box" : 								{
									"maxclass" : "inlet",
									"numinlets" : 0,
									"id" : "obj-4",
									"numoutlets" : 1,
									"outlettype" : [ "bang" ],
									"patching_rect" : [ 45.0, 61.0, 15.0, 15.0 ],
									"comment" : ""
								}

							}
, 							{
								"box" : 								{
									"maxclass" : "inlet",
									"numinlets" : 0,
									"id" : "obj-5",
									"numoutlets" : 1,
									"outlettype" : [ "bang" ],
									"patching_rect" : [ 154.0, 61.0, 15.0, 15.0 ],
									"comment" : ""
								}

							}
, 							{
								"box" : 								{
									"maxclass" : "message",
									"text" : "shadow 1",
									"fontname" : "Arial",
									"numinlets" : 2,
									"id" : "obj-6",
									"numoutlets" : 1,
									"outlettype" : [ "" ],
									"fontsize" : 9.0,
									"hidden" : 1,
									"patching_rect" : [ 45.0, 115.0, 52.0, 15.0 ]
								}

							}
, 							{
								"box" : 								{
									"maxclass" : "message",
									"text" : "shadow -2",
									"fontname" : "Arial",
									"numinlets" : 2,
									"id" : "obj-7",
									"numoutlets" : 1,
									"outlettype" : [ "" ],
									"fontsize" : 9.0,
									"hidden" : 1,
									"patching_rect" : [ 154.0, 115.0, 57.0, 15.0 ]
								}

							}
 ],
						"lines" : [ 							{
								"patchline" : 								{
									"source" : [ "obj-5", 0 ],
									"destination" : [ "obj-7", 0 ],
									"hidden" : 0,
									"midpoints" : [  ]
								}

							}
, 							{
								"patchline" : 								{
									"source" : [ "obj-5", 0 ],
									"destination" : [ "obj-1", 0 ],
									"hidden" : 0,
									"midpoints" : [  ]
								}

							}
, 							{
								"patchline" : 								{
									"source" : [ "obj-6", 0 ],
									"destination" : [ "obj-3", 0 ],
									"hidden" : 0,
									"midpoints" : [  ]
								}

							}
, 							{
								"patchline" : 								{
									"source" : [ "obj-2", 0 ],
									"destination" : [ "obj-3", 0 ],
									"hidden" : 0,
									"midpoints" : [  ]
								}

							}
, 							{
								"patchline" : 								{
									"source" : [ "obj-7", 0 ],
									"destination" : [ "obj-3", 0 ],
									"hidden" : 0,
									"midpoints" : [ 163.5, 160.0, 54.0, 160.0 ]
								}

							}
, 							{
								"patchline" : 								{
									"source" : [ "obj-1", 0 ],
									"destination" : [ "obj-3", 0 ],
									"hidden" : 0,
									"midpoints" : [  ]
								}

							}
, 							{
								"patchline" : 								{
									"source" : [ "obj-4", 0 ],
									"destination" : [ "obj-6", 0 ],
									"hidden" : 0,
									"midpoints" : [  ]
								}

							}
, 							{
								"patchline" : 								{
									"source" : [ "obj-4", 0 ],
									"destination" : [ "obj-2", 0 ],
									"hidden" : 0,
									"midpoints" : [  ]
								}

							}
 ]
					}
,
					"saved_object_attributes" : 					{
						"fontname" : "Arial",
						"default_fontsize" : 12.0,
						"fontface" : 0,
						"fontsize" : 12.0,
						"globalpatchername" : "",
						"default_fontface" : 0,
						"default_fontname" : "Arial"
					}

				}

			}
, 			{
				"box" : 				{
					"maxclass" : "message",
					"text" : "read",
					"fontname" : "Arial",
					"numinlets" : 2,
					"id" : "obj-41",
					"numoutlets" : 1,
					"outlettype" : [ "" ],
					"fontsize" : 9.0,
					"hidden" : 1,
					"patching_rect" : [ 345.0, 83.0, 30.0, 15.0 ]
				}

			}
, 			{
				"box" : 				{
					"maxclass" : "message",
					"text" : "writegain",
					"fontname" : "Arial",
					"numinlets" : 2,
					"id" : "obj-42",
					"numoutlets" : 1,
					"outlettype" : [ "" ],
					"fontsize" : 9.0,
					"hidden" : 1,
					"patching_rect" : [ 380.0, 83.0, 51.0, 15.0 ]
				}

			}
, 			{
				"box" : 				{
					"maxclass" : "hint",
					"hint" : "Drag number box to interpolate between adjacent presets",
					"numinlets" : 1,
					"id" : "obj-43",
					"numoutlets" : 0,
					"patching_rect" : [ 539.0, 130.0, 46.0, 19.0 ]
				}

			}
, 			{
				"box" : 				{
					"maxclass" : "hint",
					"hint" : "Enter index + bang to delete preset",
					"numinlets" : 1,
					"id" : "obj-44",
					"numoutlets" : 0,
					"patching_rect" : [ 353.0, 133.0, 61.0, 19.0 ]
				}

			}
, 			{
				"box" : 				{
					"maxclass" : "hint",
					"hint" : "Toggle off + enter index + preset name to store preset",
					"numinlets" : 1,
					"id" : "obj-45",
					"numoutlets" : 0,
					"patching_rect" : [ 314.0, 46.0, 142.0, 20.0 ]
				}

			}
, 			{
				"box" : 				{
					"maxclass" : "comment",
					"text" : "Preset interpolation",
					"fontname" : "Arial Black",
					"numinlets" : 1,
					"id" : "obj-46",
					"numoutlets" : 0,
					"fontsize" : 9.0,
					"patching_rect" : [ 515.0, 111.0, 107.0, 19.0 ]
				}

			}
, 			{
				"box" : 				{
					"maxclass" : "comment",
					"text" : "Save a new preset",
					"fontname" : "Arial Black",
					"numinlets" : 1,
					"id" : "obj-47",
					"numoutlets" : 0,
					"fontsize" : 9.0,
					"patching_rect" : [ 340.0, 28.0, 99.0, 19.0 ]
				}

			}
, 			{
				"box" : 				{
					"maxclass" : "newobj",
					"text" : "p checkitems",
					"fontname" : "Arial",
					"numinlets" : 2,
					"id" : "obj-48",
					"numoutlets" : 3,
					"outlettype" : [ "", "int", "" ],
					"fontsize" : 9.0,
					"hidden" : 1,
					"patching_rect" : [ 498.0, 67.0, 91.0, 17.0 ],
					"patcher" : 					{
						"fileversion" : 1,
						"rect" : [ 10.0, 59.0, 385.0, 199.0 ],
						"bglocked" : 0,
						"defrect" : [ 10.0, 59.0, 385.0, 199.0 ],
						"openrect" : [ 0.0, 0.0, 0.0, 0.0 ],
						"openinpresentation" : 0,
						"default_fontsize" : 12.0,
						"default_fontface" : 0,
						"default_fontname" : "Arial",
						"gridonopen" : 0,
						"gridsize" : [ 15.0, 15.0 ],
						"gridsnaponopen" : 0,
						"toolbarvisible" : 1,
						"boxanimatetime" : 200,
						"imprint" : 0,
						"enablehscroll" : 1,
						"enablevscroll" : 1,
						"devicewidth" : 0.0,
						"boxes" : [ 							{
								"box" : 								{
									"maxclass" : "newobj",
									"text" : "prepend set",
									"fontname" : "Arial",
									"numinlets" : 1,
									"id" : "obj-1",
									"numoutlets" : 1,
									"outlettype" : [ "" ],
									"fontsize" : 9.0,
									"patching_rect" : [ 3.0, 74.0, 62.0, 17.0 ]
								}

							}
, 							{
								"box" : 								{
									"maxclass" : "outlet",
									"numinlets" : 1,
									"id" : "obj-2",
									"numoutlets" : 0,
									"patching_rect" : [ 2.0, 94.0, 15.0, 15.0 ],
									"comment" : ""
								}

							}
, 							{
								"box" : 								{
									"maxclass" : "newobj",
									"text" : "t i i",
									"fontname" : "Arial",
									"numinlets" : 1,
									"id" : "obj-3",
									"numoutlets" : 2,
									"outlettype" : [ "int", "int" ],
									"fontsize" : 9.0,
									"hidden" : 1,
									"patching_rect" : [ 50.0, 50.0, 27.0, 17.0 ]
								}

							}
, 							{
								"box" : 								{
									"maxclass" : "message",
									"text" : "clearchecks, checkitem $1 -1",
									"fontname" : "Arial",
									"numinlets" : 2,
									"id" : "obj-4",
									"numoutlets" : 1,
									"outlettype" : [ "" ],
									"fontsize" : 9.0,
									"hidden" : 1,
									"patching_rect" : [ 92.0, 51.0, 143.0, 15.0 ]
								}

							}
, 							{
								"box" : 								{
									"maxclass" : "inlet",
									"numinlets" : 0,
									"id" : "obj-5",
									"numoutlets" : 1,
									"outlettype" : [ "int" ],
									"patching_rect" : [ 50.0, 30.0, 15.0, 15.0 ],
									"comment" : ""
								}

							}
, 							{
								"box" : 								{
									"maxclass" : "inlet",
									"numinlets" : 0,
									"id" : "obj-6",
									"numoutlets" : 1,
									"outlettype" : [ "int" ],
									"patching_rect" : [ 92.0, 31.0, 15.0, 15.0 ],
									"comment" : ""
								}

							}
, 							{
								"box" : 								{
									"maxclass" : "outlet",
									"numinlets" : 1,
									"id" : "obj-7",
									"numoutlets" : 0,
									"patching_rect" : [ 92.0, 92.0, 15.0, 15.0 ],
									"comment" : ""
								}

							}
, 							{
								"box" : 								{
									"maxclass" : "outlet",
									"numinlets" : 1,
									"id" : "obj-8",
									"numoutlets" : 0,
									"patching_rect" : [ 50.0, 93.0, 15.0, 15.0 ],
									"comment" : ""
								}

							}
 ],
						"lines" : [ 							{
								"patchline" : 								{
									"source" : [ "obj-4", 0 ],
									"destination" : [ "obj-7", 0 ],
									"hidden" : 0,
									"midpoints" : [  ]
								}

							}
, 							{
								"patchline" : 								{
									"source" : [ "obj-6", 0 ],
									"destination" : [ "obj-4", 0 ],
									"hidden" : 0,
									"midpoints" : [  ]
								}

							}
, 							{
								"patchline" : 								{
									"source" : [ "obj-3", 0 ],
									"destination" : [ "obj-8", 0 ],
									"hidden" : 0,
									"midpoints" : [  ]
								}

							}
, 							{
								"patchline" : 								{
									"source" : [ "obj-3", 1 ],
									"destination" : [ "obj-8", 0 ],
									"hidden" : 0,
									"midpoints" : [  ]
								}

							}
, 							{
								"patchline" : 								{
									"source" : [ "obj-5", 0 ],
									"destination" : [ "obj-3", 0 ],
									"hidden" : 0,
									"midpoints" : [  ]
								}

							}
, 							{
								"patchline" : 								{
									"source" : [ "obj-3", 1 ],
									"destination" : [ "obj-1", 0 ],
									"hidden" : 0,
									"midpoints" : [ 67.5, 71.0, 12.5, 71.0 ]
								}

							}
, 							{
								"patchline" : 								{
									"source" : [ "obj-1", 0 ],
									"destination" : [ "obj-2", 0 ],
									"hidden" : 0,
									"midpoints" : [  ]
								}

							}
 ]
					}
,
					"saved_object_attributes" : 					{
						"fontname" : "Arial",
						"default_fontsize" : 12.0,
						"fontface" : 0,
						"fontsize" : 12.0,
						"globalpatchername" : "",
						"default_fontface" : 0,
						"default_fontname" : "Arial"
					}

				}

			}
, 			{
				"box" : 				{
					"maxclass" : "message",
					"text" : "1",
					"fontname" : "Arial",
					"numinlets" : 2,
					"id" : "obj-49",
					"numoutlets" : 1,
					"ignoreclick" : 1,
					"outlettype" : [ "" ],
					"fontsize" : 12.0,
					"patching_rect" : [ 493.0, 46.0, 26.0, 18.0 ]
				}

			}
, 			{
				"box" : 				{
					"maxclass" : "umenu",
					"fontname" : "Arial",
					"textcolor" : [ 1.0, 1.0, 1.0, 1.0 ],
					"numinlets" : 1,
					"framecolor" : [ 0.015686, 0.015686, 0.015686, 1.0 ],
					"id" : "obj-50",
					"numoutlets" : 3,
					"bgcolor2" : [ 0.647059, 0.647059, 0.647059, 1.0 ],
					"discolor" : [ 0.647059, 0.647059, 0.647059, 1.0 ],
					"outlettype" : [ "int", "", "" ],
					"fontsize" : 12.0,
					"togcolor" : [ 0.552941, 0.552941, 0.552941, 1.0 ],
					"bgcolor" : [ 0.411765, 0.090196, 0.090196, 1.0 ],
					"textcolor2" : [ 1.0, 1.0, 1.0, 1.0 ],
					"types" : [  ],
					"patching_rect" : [ 523.0, 46.0, 121.0, 20.0 ],
					"items" : [ "(undefined)", ",", "dripping", ",", "burbling", ",", "bbstream", ",", "bathing", ",", "dripping", ",", "bubble_CIM_01" ],
					"hltcolor" : [ 0.411765, 0.090196, 0.090196, 1.0 ]
				}

			}
, 			{
				"box" : 				{
					"maxclass" : "toggle",
					"numinlets" : 1,
					"id" : "obj-51",
					"numoutlets" : 1,
					"outlettype" : [ "int" ],
					"patching_rect" : [ 434.0, 46.0, 22.0, 22.0 ]
				}

			}
, 			{
				"box" : 				{
					"maxclass" : "message",
					"text" : "readonly $1",
					"fontname" : "Arial",
					"numinlets" : 2,
					"id" : "obj-52",
					"numoutlets" : 1,
					"outlettype" : [ "" ],
					"fontsize" : 9.0,
					"hidden" : 1,
					"patching_rect" : [ 364.0, 49.0, 62.0, 15.0 ]
				}

			}
, 			{
				"box" : 				{
					"maxclass" : "button",
					"numinlets" : 1,
					"fgcolor" : [ 0.6, 0.6, 1.0, 1.0 ],
					"id" : "obj-53",
					"numoutlets" : 1,
					"outlettype" : [ "bang" ],
					"patching_rect" : [ 396.0, 135.0, 19.0, 19.0 ]
				}

			}
, 			{
				"box" : 				{
					"maxclass" : "number",
					"fontname" : "Arial",
					"textcolor" : [ 1.0, 1.0, 1.0, 1.0 ],
					"numinlets" : 1,
					"triangle" : 0,
					"id" : "obj-54",
					"numoutlets" : 2,
					"outlettype" : [ "int", "bang" ],
					"fontsize" : 12.0,
					"triscale" : 0.9,
					"bgcolor" : [ 0.411765, 0.090196, 0.090196, 1.0 ],
					"patching_rect" : [ 352.0, 135.0, 45.0, 20.0 ],
					"htextcolor" : [ 0.870588, 0.870588, 0.870588, 1.0 ]
				}

			}
, 			{
				"box" : 				{
					"maxclass" : "flonum",
					"fontname" : "Arial",
					"numinlets" : 1,
					"minimum" : 1.0,
					"id" : "obj-55",
					"numoutlets" : 2,
					"outlettype" : [ "float", "bang" ],
					"fontsize" : 12.0,
					"triscale" : 0.9,
					"patching_rect" : [ 538.0, 133.0, 47.0, 20.0 ],
					"htextcolor" : [ 0.870588, 0.870588, 0.870588, 1.0 ]
				}

			}
, 			{
				"box" : 				{
					"maxclass" : "textedit",
					"fontname" : "Geneva",
					"numinlets" : 1,
					"readonly" : 1,
					"id" : "obj-56",
					"numoutlets" : 4,
					"outlettype" : [ "", "int", "", "" ],
					"fontsize" : 12.0,
					"keymode" : 1,
					"patching_rect" : [ 313.0, 46.0, 120.0, 22.0 ]
				}

			}
, 			{
				"box" : 				{
					"maxclass" : "comment",
					"text" : "Timbral palette",
					"fontname" : "Arial Black",
					"numinlets" : 1,
					"id" : "obj-57",
					"numoutlets" : 0,
					"fontsize" : 12.0,
					"patching_rect" : [ 409.0, 1.0, 130.0, 23.0 ]
				}

			}
, 			{
				"box" : 				{
					"maxclass" : "panel",
					"rounded" : 3,
					"numinlets" : 1,
					"id" : "obj-58",
					"numoutlets" : 0,
					"bordercolor" : [ 0.745098, 0.745098, 0.745098, 1.0 ],
					"bgcolor" : [ 0.890196, 0.870588, 1.0, 1.0 ],
					"border" : 1,
					"patching_rect" : [ 293.0, 26.0, 184.0, 77.0 ]
				}

			}
, 			{
				"box" : 				{
					"maxclass" : "panel",
					"rounded" : 3,
					"numinlets" : 1,
					"id" : "obj-59",
					"numoutlets" : 0,
					"bordercolor" : [ 0.745098, 0.745098, 0.745098, 1.0 ],
					"bgcolor" : [ 0.890196, 0.870588, 1.0, 1.0 ],
					"border" : 1,
					"patching_rect" : [ 481.0, 26.0, 185.0, 77.0 ]
				}

			}
, 			{
				"box" : 				{
					"maxclass" : "panel",
					"rounded" : 3,
					"numinlets" : 1,
					"id" : "obj-60",
					"numoutlets" : 0,
					"bordercolor" : [ 0.745098, 0.745098, 0.745098, 1.0 ],
					"bgcolor" : [ 0.890196, 0.870588, 1.0, 1.0 ],
					"border" : 1,
					"patching_rect" : [ 481.0, 107.0, 185.0, 56.0 ]
				}

			}
, 			{
				"box" : 				{
					"maxclass" : "panel",
					"rounded" : 3,
					"numinlets" : 1,
					"id" : "obj-61",
					"numoutlets" : 0,
					"bordercolor" : [ 0.745098, 0.745098, 0.745098, 1.0 ],
					"bgcolor" : [ 0.890196, 0.870588, 1.0, 1.0 ],
					"border" : 1,
					"patching_rect" : [ 293.0, 107.0, 184.0, 56.0 ]
				}

			}
 ],
		"lines" : [ 			{
				"patchline" : 				{
					"source" : [ "obj-33", 0 ],
					"destination" : [ "obj-30", 0 ],
					"hidden" : 1,
					"midpoints" : [  ]
				}

			}
, 			{
				"patchline" : 				{
					"source" : [ "obj-37", 1 ],
					"destination" : [ "obj-35", 0 ],
					"hidden" : 1,
					"color" : [ 0.760784, 0.709804, 0.811765, 1.0 ],
					"midpoints" : [ 559.166687, 206.0, 649.0, 206.0, 649.0, 210.0, 682.5, 210.0 ]
				}

			}
, 			{
				"patchline" : 				{
					"source" : [ "obj-30", 0 ],
					"destination" : [ "obj-21", 0 ],
					"hidden" : 1,
					"midpoints" : [  ]
				}

			}
, 			{
				"patchline" : 				{
					"source" : [ "obj-24", 0 ],
					"destination" : [ "obj-22", 0 ],
					"hidden" : 1,
					"midpoints" : [ 632.5, 101.0, 660.0, 101.0, 660.0, 79.0, 672.5, 79.0 ]
				}

			}
, 			{
				"patchline" : 				{
					"source" : [ "obj-35", 0 ],
					"destination" : [ "obj-36", 0 ],
					"hidden" : 1,
					"color" : [ 0.760784, 0.709804, 0.811765, 1.0 ],
					"midpoints" : [  ]
				}

			}
, 			{
				"patchline" : 				{
					"source" : [ "obj-34", 0 ],
					"destination" : [ "obj-36", 0 ],
					"hidden" : 1,
					"color" : [ 0.760784, 0.709804, 0.811765, 1.0 ],
					"midpoints" : [  ]
				}

			}
, 			{
				"patchline" : 				{
					"source" : [ "obj-37", 0 ],
					"destination" : [ "obj-34", 0 ],
					"hidden" : 1,
					"color" : [ 0.760784, 0.709804, 0.811765, 1.0 ],
					"midpoints" : [ 524.5, 206.0, 649.0, 206.0, 649.0, 211.0, 648.5, 211.0 ]
				}

			}
, 			{
				"patchline" : 				{
					"source" : [ "obj-37", 1 ],
					"destination" : [ "obj-40", 1 ],
					"hidden" : 1,
					"midpoints" : [  ]
				}

			}
, 			{
				"patchline" : 				{
					"source" : [ "obj-50", 0 ],
					"destination" : [ "obj-48", 1 ],
					"hidden" : 1,
					"midpoints" : [  ]
				}

			}
, 			{
				"patchline" : 				{
					"source" : [ "obj-20", 0 ],
					"destination" : [ "obj-19", 0 ],
					"hidden" : 1,
					"midpoints" : [  ]
				}

			}
, 			{
				"patchline" : 				{
					"source" : [ "obj-55", 0 ],
					"destination" : [ "obj-20", 0 ],
					"hidden" : 1,
					"midpoints" : [ 547.5, 225.0, 584.5, 225.0 ]
				}

			}
, 			{
				"patchline" : 				{
					"source" : [ "obj-27", 0 ],
					"destination" : [ "obj-55", 0 ],
					"hidden" : 1,
					"midpoints" : [ 387.5, 312.0, 694.0, 312.0, 694.0, 136.0, 547.5, 136.0 ]
				}

			}
, 			{
				"patchline" : 				{
					"source" : [ "obj-48", 1 ],
					"destination" : [ "obj-55", 0 ],
					"hidden" : 1,
					"midpoints" : [  ]
				}

			}
, 			{
				"patchline" : 				{
					"source" : [ "obj-37", 0 ],
					"destination" : [ "obj-40", 0 ],
					"hidden" : 1,
					"midpoints" : [  ]
				}

			}
, 			{
				"patchline" : 				{
					"source" : [ "obj-21", 0 ],
					"destination" : [ "obj-50", 0 ],
					"hidden" : 1,
					"midpoints" : [  ]
				}

			}
, 			{
				"patchline" : 				{
					"source" : [ "obj-48", 2 ],
					"destination" : [ "obj-50", 0 ],
					"hidden" : 1,
					"midpoints" : [  ]
				}

			}
, 			{
				"patchline" : 				{
					"source" : [ "obj-16", 11 ],
					"destination" : [ "obj-50", 0 ],
					"hidden" : 1,
					"midpoints" : [ 285.576935, 312.0, 739.0, 312.0, 739.0, 37.0, 532.5, 37.0 ]
				}

			}
, 			{
				"patchline" : 				{
					"source" : [ "obj-30", 0 ],
					"destination" : [ "obj-50", 0 ],
					"hidden" : 1,
					"midpoints" : [  ]
				}

			}
, 			{
				"patchline" : 				{
					"source" : [ "obj-26", 0 ],
					"destination" : [ "obj-50", 0 ],
					"hidden" : 1,
					"midpoints" : [ 308.5, 312.0, 739.0, 312.0, 739.0, 37.0, 532.5, 37.0 ]
				}

			}
, 			{
				"patchline" : 				{
					"source" : [ "obj-19", 0 ],
					"destination" : [ "obj-50", 0 ],
					"hidden" : 1,
					"midpoints" : [ 584.5, 274.0, 739.0, 274.0, 739.0, 37.0, 532.5, 37.0 ]
				}

			}
, 			{
				"patchline" : 				{
					"source" : [ "obj-40", 0 ],
					"destination" : [ "obj-39", 0 ],
					"hidden" : 1,
					"midpoints" : [  ]
				}

			}
, 			{
				"patchline" : 				{
					"source" : [ "obj-22", 1 ],
					"destination" : [ "obj-25", 0 ],
					"hidden" : 1,
					"midpoints" : [ 720.5, 104.0, 732.0, 104.0, 732.0, 79.0, 511.5, 79.0 ]
				}

			}
, 			{
				"patchline" : 				{
					"source" : [ "obj-22", 0 ],
					"destination" : [ "obj-25", 0 ],
					"hidden" : 1,
					"midpoints" : [ 672.5, 104.0, 732.0, 104.0, 732.0, 79.0, 511.5, 79.0 ]
				}

			}
, 			{
				"patchline" : 				{
					"source" : [ "obj-50", 0 ],
					"destination" : [ "obj-48", 0 ],
					"hidden" : 1,
					"midpoints" : [  ]
				}

			}
, 			{
				"patchline" : 				{
					"source" : [ "obj-48", 0 ],
					"destination" : [ "obj-49", 0 ],
					"hidden" : 1,
					"midpoints" : [  ]
				}

			}
, 			{
				"patchline" : 				{
					"source" : [ "obj-26", 0 ],
					"destination" : [ "obj-49", 0 ],
					"hidden" : 1,
					"midpoints" : [ 308.5, 312.0, 739.0, 312.0, 739.0, 37.0, 502.5, 37.0 ]
				}

			}
, 			{
				"patchline" : 				{
					"source" : [ "obj-19", 0 ],
					"destination" : [ "obj-49", 0 ],
					"hidden" : 1,
					"midpoints" : [ 584.5, 274.0, 739.0, 274.0, 739.0, 99.0, 502.5, 99.0 ]
				}

			}
, 			{
				"patchline" : 				{
					"source" : [ "obj-16", 9 ],
					"destination" : [ "obj-51", 0 ],
					"hidden" : 1,
					"midpoints" : [ 236.653839, 312.0, 739.0, 312.0, 739.0, 37.0, 443.5, 37.0 ]
				}

			}
, 			{
				"patchline" : 				{
					"source" : [ "obj-33", 0 ],
					"destination" : [ "obj-51", 0 ],
					"hidden" : 1,
					"midpoints" : [ 692.5, 0.0, 443.5, 0.0 ]
				}

			}
, 			{
				"patchline" : 				{
					"source" : [ "obj-16", 13 ],
					"destination" : [ "obj-27", 0 ],
					"hidden" : 1,
					"midpoints" : [ 334.5, 283.0, 387.5, 283.0 ]
				}

			}
, 			{
				"patchline" : 				{
					"source" : [ "obj-8", 0 ],
					"destination" : [ "obj-14", 0 ],
					"hidden" : 1,
					"midpoints" : [ 191.5, 312.0, 452.0, 312.0, 452.0, 182.0, 374.5, 182.0 ]
				}

			}
, 			{
				"patchline" : 				{
					"source" : [ "obj-51", 0 ],
					"destination" : [ "obj-52", 0 ],
					"hidden" : 1,
					"midpoints" : [  ]
				}

			}
, 			{
				"patchline" : 				{
					"source" : [ "obj-25", 1 ],
					"destination" : [ "obj-16", 12 ],
					"hidden" : 1,
					"midpoints" : [ 563.5, 245.0, 334.5, 245.0 ]
				}

			}
, 			{
				"patchline" : 				{
					"source" : [ "obj-36", 0 ],
					"destination" : [ "obj-16", 12 ],
					"hidden" : 1,
					"midpoints" : [ 648.5, 262.0, 334.5, 262.0 ]
				}

			}
, 			{
				"patchline" : 				{
					"source" : [ "obj-52", 0 ],
					"destination" : [ "obj-56", 0 ],
					"hidden" : 1,
					"midpoints" : [  ]
				}

			}
, 			{
				"patchline" : 				{
					"source" : [ "obj-16", 10 ],
					"destination" : [ "obj-56", 0 ],
					"hidden" : 1,
					"midpoints" : [ 261.115387, 312.0, 739.0, 312.0, 739.0, 37.0, 322.5, 37.0 ]
				}

			}
, 			{
				"patchline" : 				{
					"source" : [ "obj-15", 0 ],
					"destination" : [ "obj-16", 11 ],
					"hidden" : 1,
					"midpoints" : [  ]
				}

			}
, 			{
				"patchline" : 				{
					"source" : [ "obj-55", 0 ],
					"destination" : [ "obj-16", 11 ],
					"hidden" : 1,
					"midpoints" : [ 547.5, 245.0, 308.0, 245.0 ]
				}

			}
, 			{
				"patchline" : 				{
					"source" : [ "obj-16", 12 ],
					"destination" : [ "obj-26", 0 ],
					"hidden" : 1,
					"midpoints" : [ 310.038452, 283.0, 308.5, 283.0 ]
				}

			}
, 			{
				"patchline" : 				{
					"source" : [ "obj-16", 6 ],
					"destination" : [ "obj-18", 3 ],
					"hidden" : 1,
					"midpoints" : [ 163.269226, 286.0, -50.0, 286.0, -50.0, 14.0, 281.5, 14.0 ]
				}

			}
, 			{
				"patchline" : 				{
					"source" : [ "obj-54", 0 ],
					"destination" : [ "obj-16", 10 ],
					"hidden" : 1,
					"midpoints" : [ 361.5, 245.0, 281.5, 245.0 ]
				}

			}
, 			{
				"patchline" : 				{
					"source" : [ "obj-53", 0 ],
					"destination" : [ "obj-16", 10 ],
					"hidden" : 1,
					"midpoints" : [ 405.5, 245.0, 281.5, 245.0 ]
				}

			}
, 			{
				"patchline" : 				{
					"source" : [ "obj-50", 0 ],
					"destination" : [ "obj-16", 8 ],
					"hidden" : 1,
					"midpoints" : [ 532.5, 245.0, 228.5, 245.0 ]
				}

			}
, 			{
				"patchline" : 				{
					"source" : [ "obj-56", 0 ],
					"destination" : [ "obj-16", 7 ],
					"hidden" : 1,
					"midpoints" : [ 322.5, 245.0, 202.0, 245.0 ]
				}

			}
, 			{
				"patchline" : 				{
					"source" : [ "obj-16", 5 ],
					"destination" : [ "obj-18", 2 ],
					"hidden" : 1,
					"midpoints" : [ 138.807693, 286.0, -50.0, 286.0, -50.0, 14.0, 191.166672, 14.0 ]
				}

			}
, 			{
				"patchline" : 				{
					"source" : [ "obj-16", 7 ],
					"destination" : [ "obj-8", 0 ],
					"hidden" : 1,
					"midpoints" : [  ]
				}

			}
, 			{
				"patchline" : 				{
					"source" : [ "obj-14", 0 ],
					"destination" : [ "obj-16", 6 ],
					"hidden" : 1,
					"midpoints" : [ 374.5, 245.0, 175.5, 245.0 ]
				}

			}
, 			{
				"patchline" : 				{
					"source" : [ "obj-7", 6 ],
					"destination" : [ "obj-6", 7 ],
					"hidden" : 1,
					"color" : [ 1.0, 0.890196, 0.090196, 1.0 ],
					"midpoints" : [  ]
				}

			}
, 			{
				"patchline" : 				{
					"source" : [ "obj-16", 6 ],
					"destination" : [ "obj-7", 6 ],
					"hidden" : 1,
					"color" : [ 1.0, 0.890196, 0.090196, 1.0 ],
					"midpoints" : [  ]
				}

			}
, 			{
				"patchline" : 				{
					"source" : [ "obj-18", 3 ],
					"destination" : [ "obj-16", 5 ],
					"hidden" : 1,
					"midpoints" : [ 281.5, 245.0, 149.0, 245.0 ]
				}

			}
, 			{
				"patchline" : 				{
					"source" : [ "obj-9", 0 ],
					"destination" : [ "obj-16", 5 ],
					"hidden" : 1,
					"midpoints" : [  ]
				}

			}
, 			{
				"patchline" : 				{
					"source" : [ "obj-7", 5 ],
					"destination" : [ "obj-6", 6 ],
					"hidden" : 1,
					"color" : [ 0.4, 0.4, 0.8, 1.0 ],
					"midpoints" : [  ]
				}

			}
, 			{
				"patchline" : 				{
					"source" : [ "obj-16", 5 ],
					"destination" : [ "obj-7", 5 ],
					"hidden" : 1,
					"color" : [ 0.4, 0.4, 0.8, 1.0 ],
					"midpoints" : [  ]
				}

			}
, 			{
				"patchline" : 				{
					"source" : [ "obj-18", 2 ],
					"destination" : [ "obj-16", 4 ],
					"hidden" : 1,
					"midpoints" : [ 191.166672, 245.0, 122.5, 245.0 ]
				}

			}
, 			{
				"patchline" : 				{
					"source" : [ "obj-10", 0 ],
					"destination" : [ "obj-16", 4 ],
					"hidden" : 1,
					"midpoints" : [ 124.0, -56.0, 122.5, -56.0 ]
				}

			}
, 			{
				"patchline" : 				{
					"source" : [ "obj-7", 4 ],
					"destination" : [ "obj-6", 5 ],
					"hidden" : 1,
					"color" : [ 0.8, 0.611765, 0.380392, 1.0 ],
					"midpoints" : [  ]
				}

			}
, 			{
				"patchline" : 				{
					"source" : [ "obj-16", 4 ],
					"destination" : [ "obj-7", 4 ],
					"hidden" : 1,
					"color" : [ 0.8, 0.611765, 0.380392, 1.0 ],
					"midpoints" : [  ]
				}

			}
, 			{
				"patchline" : 				{
					"source" : [ "obj-16", 2 ],
					"destination" : [ "obj-18", 1 ],
					"hidden" : 1,
					"midpoints" : [ 65.42308, 286.0, -50.0, 286.0, -50.0, 14.0, 100.833336, 14.0 ]
				}

			}
, 			{
				"patchline" : 				{
					"source" : [ "obj-1", 0 ],
					"destination" : [ "obj-16", 3 ],
					"hidden" : 1,
					"midpoints" : [ 97.0, 245.0, 96.0, 245.0 ]
				}

			}
, 			{
				"patchline" : 				{
					"source" : [ "obj-7", 3 ],
					"destination" : [ "obj-6", 4 ],
					"hidden" : 1,
					"color" : [ 0.611765, 0.701961, 1.0, 1.0 ],
					"midpoints" : [  ]
				}

			}
, 			{
				"patchline" : 				{
					"source" : [ "obj-16", 3 ],
					"destination" : [ "obj-7", 3 ],
					"hidden" : 1,
					"color" : [ 0.611765, 0.701961, 1.0, 1.0 ],
					"midpoints" : [  ]
				}

			}
, 			{
				"patchline" : 				{
					"source" : [ "obj-18", 1 ],
					"destination" : [ "obj-16", 2 ],
					"hidden" : 1,
					"midpoints" : [ 100.833336, 245.0, 69.5, 245.0 ]
				}

			}
, 			{
				"patchline" : 				{
					"source" : [ "obj-11", 0 ],
					"destination" : [ "obj-16", 2 ],
					"hidden" : 1,
					"midpoints" : [  ]
				}

			}
, 			{
				"patchline" : 				{
					"source" : [ "obj-7", 2 ],
					"destination" : [ "obj-6", 3 ],
					"hidden" : 1,
					"color" : [ 0.611765, 0.701961, 1.0, 1.0 ],
					"midpoints" : [  ]
				}

			}
, 			{
				"patchline" : 				{
					"source" : [ "obj-16", 2 ],
					"destination" : [ "obj-7", 2 ],
					"hidden" : 1,
					"color" : [ 0.611765, 0.701961, 1.0, 1.0 ],
					"midpoints" : [  ]
				}

			}
, 			{
				"patchline" : 				{
					"source" : [ "obj-2", 0 ],
					"destination" : [ "obj-16", 1 ],
					"hidden" : 1,
					"midpoints" : [  ]
				}

			}
, 			{
				"patchline" : 				{
					"source" : [ "obj-7", 1 ],
					"destination" : [ "obj-6", 2 ],
					"hidden" : 1,
					"color" : [ 0.156863, 0.8, 0.54902, 1.0 ],
					"midpoints" : [  ]
				}

			}
, 			{
				"patchline" : 				{
					"source" : [ "obj-16", 1 ],
					"destination" : [ "obj-7", 1 ],
					"hidden" : 1,
					"color" : [ 0.156863, 0.8, 0.54902, 1.0 ],
					"midpoints" : [  ]
				}

			}
, 			{
				"patchline" : 				{
					"source" : [ "obj-16", 8 ],
					"destination" : [ "obj-5", 1 ],
					"hidden" : 1,
					"color" : [ 0.6667, 0.6667, 0.6667, 1.0 ],
					"midpoints" : [ 212.192307, 374.0, 10.5, 374.0 ]
				}

			}
, 			{
				"patchline" : 				{
					"source" : [ "obj-7", 0 ],
					"destination" : [ "obj-6", 1 ],
					"hidden" : 1,
					"color" : [ 0.156863, 0.8, 0.54902, 1.0 ],
					"midpoints" : [  ]
				}

			}
, 			{
				"patchline" : 				{
					"source" : [ "obj-16", 0 ],
					"destination" : [ "obj-7", 0 ],
					"hidden" : 1,
					"color" : [ 0.156863, 0.8, 0.54902, 1.0 ],
					"midpoints" : [  ]
				}

			}
, 			{
				"patchline" : 				{
					"source" : [ "obj-18", 0 ],
					"destination" : [ "obj-16", 0 ],
					"hidden" : 1,
					"midpoints" : [ 10.5, 237.0, 16.5, 237.0 ]
				}

			}
, 			{
				"patchline" : 				{
					"source" : [ "obj-12", 0 ],
					"destination" : [ "obj-16", 0 ],
					"hidden" : 1,
					"midpoints" : [  ]
				}

			}
, 			{
				"patchline" : 				{
					"source" : [ "obj-16", 0 ],
					"destination" : [ "obj-18", 0 ],
					"hidden" : 1,
					"midpoints" : [ 16.5, 286.0, -50.0, 286.0, -50.0, 14.0, 10.5, 14.0 ]
				}

			}
, 			{
				"patchline" : 				{
					"source" : [ "obj-5", 0 ],
					"destination" : [ "obj-3", 0 ],
					"hidden" : 1,
					"midpoints" : [  ]
				}

			}
, 			{
				"patchline" : 				{
					"source" : [ "obj-6", 0 ],
					"destination" : [ "obj-5", 0 ],
					"hidden" : 1,
					"midpoints" : [  ]
				}

			}
, 			{
				"patchline" : 				{
					"source" : [ "obj-4", 0 ],
					"destination" : [ "obj-6", 0 ],
					"hidden" : 1,
					"midpoints" : [  ]
				}

			}
, 			{
				"patchline" : 				{
					"source" : [ "obj-16", 7 ],
					"destination" : [ "obj-4", 0 ],
					"hidden" : 1,
					"color" : [ 1.0, 0.360784, 0.682353, 1.0 ],
					"midpoints" : [ 187.730774, 330.0, -11.0, 330.0 ]
				}

			}
 ],
		"parameters" : 		{

		}

	}

}
