{
	"patcher" : 	{
		"fileversion" : 1,
		"rect" : [ 552.0, 248.0, 358.0, 237.0 ],
		"bglocked" : 0,
		"defrect" : [ 552.0, 248.0, 358.0, 237.0 ],
		"openrect" : [ 0.0, 0.0, 0.0, 0.0 ],
		"openinpresentation" : 0,
		"default_fontsize" : 12.0,
		"default_fontface" : 0,
		"default_fontname" : "Arial",
		"gridonopen" : 0,
		"gridsize" : [ 15.0, 15.0 ],
		"gridsnaponopen" : 0,
		"toolbarvisible" : 1,
		"boxanimatetime" : 200,
		"imprint" : 0,
		"enablehscroll" : 1,
		"enablevscroll" : 1,
		"devicewidth" : 0.0,
		"boxes" : [ 			{
				"box" : 				{
					"maxclass" : "flonum",
					"bgcolor" : [ 0.866667, 0.866667, 0.866667, 1.0 ],
					"numinlets" : 1,
					"fontname" : "Arial",
					"numoutlets" : 2,
					"triscale" : 0.9,
					"outlettype" : [ "float", "bang" ],
					"id" : "obj-1",
					"htextcolor" : [ 0.870588, 0.870588, 0.870588, 1.0 ],
					"fontsize" : 9.0,
					"patching_rect" : [ 204.0, 148.0, 50.0, 17.0 ]
				}

			}
, 			{
				"box" : 				{
					"maxclass" : "ftm.mess",
					"ftm_scope" : 1,
					"numinlets" : 2,
					"#init" : "",
					"fontname" : "Arial",
					"numoutlets" : 1,
					"#loadbang" : 0,
					"outlettype" : [ "" ],
					"id" : "obj-2",
					"text" : [ "_(abs -8 )" ],
					"#triggerall" : 0,
					"fontsize" : 9.0,
					"#untuple" : 0,
					"patching_rect" : [ 204.0, 125.0, 50.0, 15.0 ]
				}

			}
, 			{
				"box" : 				{
					"maxclass" : "flonum",
					"bgcolor" : [ 0.866667, 0.866667, 0.866667, 1.0 ],
					"numinlets" : 1,
					"fontname" : "Arial",
					"numoutlets" : 2,
					"triscale" : 0.9,
					"outlettype" : [ "float", "bang" ],
					"id" : "obj-3",
					"htextcolor" : [ 0.870588, 0.870588, 0.870588, 1.0 ],
					"fontsize" : 9.0,
					"patching_rect" : [ 72.0, 148.0, 52.0, 17.0 ]
				}

			}
, 			{
				"box" : 				{
					"maxclass" : "flonum",
					"bgcolor" : [ 0.866667, 0.866667, 0.866667, 1.0 ],
					"numinlets" : 1,
					"fontname" : "Arial",
					"numoutlets" : 2,
					"triscale" : 0.9,
					"outlettype" : [ "float", "bang" ],
					"id" : "obj-4",
					"htextcolor" : [ 0.870588, 0.870588, 0.870588, 1.0 ],
					"fontsize" : 9.0,
					"patching_rect" : [ 103.0, 90.0, 49.0, 17.0 ]
				}

			}
, 			{
				"box" : 				{
					"maxclass" : "flonum",
					"bgcolor" : [ 0.866667, 0.866667, 0.866667, 1.0 ],
					"numinlets" : 1,
					"fontname" : "Arial",
					"numoutlets" : 2,
					"triscale" : 0.9,
					"outlettype" : [ "float", "bang" ],
					"id" : "obj-5",
					"htextcolor" : [ 0.870588, 0.870588, 0.870588, 1.0 ],
					"fontsize" : 9.0,
					"patching_rect" : [ 136.0, 148.0, 51.0, 17.0 ]
				}

			}
, 			{
				"box" : 				{
					"maxclass" : "newobj",
					"text" : "abs 0.",
					"numinlets" : 1,
					"fontname" : "Arial",
					"numoutlets" : 1,
					"outlettype" : [ "float" ],
					"id" : "obj-6",
					"fontsize" : 9.0,
					"patching_rect" : [ 136.0, 125.0, 37.0, 17.0 ]
				}

			}
, 			{
				"box" : 				{
					"maxclass" : "ftm.mess",
					"ftm_scope" : 2,
					"numinlets" : 2,
					"#init" : "",
					"fontname" : "Arial",
					"numoutlets" : 1,
					"#loadbang" : 0,
					"outlettype" : [ "" ],
					"id" : "obj-7",
					"text" : [ "_(abs $1)" ],
					"#triggerall" : 0,
					"fontsize" : 9.0,
					"#untuple" : 0,
					"patching_rect" : [ 72.0, 125.0, 50.0, 15.0 ]
				}

			}
, 			{
				"box" : 				{
					"maxclass" : "comment",
					"text" : "(abs )",
					"numinlets" : 1,
					"frgb" : [ 0.082353, 0.219608, 0.035294, 1.0 ],
					"fontname" : "Arial",
					"numoutlets" : 0,
					"id" : "obj-8",
					"textcolor" : [ 0.082353, 0.219608, 0.035294, 1.0 ],
					"fontsize" : 18.0,
					"patching_rect" : [ 61.0, 21.0, 63.0, 27.0 ]
				}

			}
, 			{
				"box" : 				{
					"maxclass" : "comment",
					"text" : "Absolute value of input for integers and floats",
					"numinlets" : 1,
					"fontname" : "Arial",
					"numoutlets" : 0,
					"id" : "obj-9",
					"fontsize" : 9.0,
					"patching_rect" : [ 61.0, 46.0, 220.0, 17.0 ]
				}

			}
, 			{
				"box" : 				{
					"maxclass" : "fpic",
					"numinlets" : 1,
					"embed" : 1,
					"numoutlets" : 0,
					"id" : "obj-10",
					"patching_rect" : [ 5.0, 9.0, 46.0, 67.0 ],
					"data" : [ 107, "", "IBkSG0fBZn....PCIgDQRA...3B...vPHX....v3Seyr....DLmPIQEBHf.B7g.YHB...HRRDEDUnEX6AGS.....BCZ8O09YJ.J...............favrF.ALyVdhA.....IUjSD4pPfIH" ]
				}

			}
, 			{
				"box" : 				{
					"maxclass" : "panel",
					"bgcolor" : [ 0.937255, 0.937255, 0.937255, 1.0 ],
					"numinlets" : 1,
					"bordercolor" : [ 1.0, 1.0, 1.0, 1.0 ],
					"rounded" : 25,
					"numoutlets" : 0,
					"border" : 1,
					"id" : "obj-11",
					"patching_rect" : [ 54.0, 9.0, 269.0, 68.0 ]
				}

			}
 ],
		"lines" : [ 			{
				"patchline" : 				{
					"source" : [ "obj-4", 0 ],
					"destination" : [ "obj-7", 0 ],
					"hidden" : 0,
					"midpoints" : [  ]
				}

			}
, 			{
				"patchline" : 				{
					"source" : [ "obj-7", 0 ],
					"destination" : [ "obj-3", 0 ],
					"hidden" : 0,
					"midpoints" : [  ]
				}

			}
, 			{
				"patchline" : 				{
					"source" : [ "obj-4", 0 ],
					"destination" : [ "obj-6", 0 ],
					"hidden" : 0,
					"midpoints" : [  ]
				}

			}
, 			{
				"patchline" : 				{
					"source" : [ "obj-6", 0 ],
					"destination" : [ "obj-5", 0 ],
					"hidden" : 0,
					"midpoints" : [  ]
				}

			}
, 			{
				"patchline" : 				{
					"source" : [ "obj-2", 0 ],
					"destination" : [ "obj-1", 0 ],
					"hidden" : 0,
					"midpoints" : [  ]
				}

			}
 ]
	}

}
