{
	"patcher" : 	{
		"fileversion" : 1,
		"rect" : [ 265.0, 117.0, 531.0, 306.0 ],
		"bglocked" : 0,
		"defrect" : [ 265.0, 117.0, 531.0, 306.0 ],
		"openrect" : [ 0.0, 0.0, 0.0, 0.0 ],
		"openinpresentation" : 0,
		"default_fontsize" : 12.0,
		"default_fontface" : 0,
		"default_fontname" : "Arial",
		"gridonopen" : 0,
		"gridsize" : [ 15.0, 15.0 ],
		"gridsnaponopen" : 0,
		"toolbarvisible" : 1,
		"boxanimatetime" : 200,
		"imprint" : 0,
		"enablehscroll" : 1,
		"enablevscroll" : 1,
		"devicewidth" : 0.0,
		"boxes" : [ 			{
				"box" : 				{
					"fontname" : "Helvetica",
					"fontsize" : 13.0,
					"id" : "obj-2",
					"maxclass" : "newobj",
					"numinlets" : 0,
					"numoutlets" : 0,
					"patcher" : 					{
						"fileversion" : 1,
						"rect" : [ 338.0, 303.0, 666.0, 469.0 ],
						"bglocked" : 0,
						"defrect" : [ 338.0, 303.0, 666.0, 469.0 ],
						"openrect" : [ 0.0, 0.0, 0.0, 0.0 ],
						"openinpresentation" : 0,
						"default_fontsize" : 10.0,
						"default_fontface" : 0,
						"default_fontname" : "Geneva",
						"gridonopen" : 0,
						"gridsize" : [ 10.0, 10.0 ],
						"gridsnaponopen" : 0,
						"toolbarvisible" : 1,
						"boxanimatetime" : 200,
						"imprint" : 0,
						"enablehscroll" : 1,
						"enablevscroll" : 1,
						"devicewidth" : 0.0,
						"boxes" : [ 							{
								"box" : 								{
									"fontname" : "Geneva",
									"fontsize" : 10.0,
									"id" : "obj-20",
									"maxclass" : "newobj",
									"numinlets" : 1,
									"numoutlets" : 2,
									"outlettype" : [ "", "" ],
									"patching_rect" : [ 350.0, 440.0, 100.0, 20.0 ],
									"text" : "route view"
								}

							}
, 							{
								"box" : 								{
									"id" : "obj-12",
									"maxclass" : "button",
									"numinlets" : 1,
									"numoutlets" : 1,
									"outlettype" : [ "bang" ],
									"patching_rect" : [ 100.0, 160.0, 20.0, 20.0 ]
								}

							}
, 							{
								"box" : 								{
									"#init" : "",
									"#loadbang" : 0,
									"#triggerall" : 0,
									"#untuple" : 0,
									"fontname" : "Geneva",
									"fontsize" : 10.0,
									"ftm_objref_conv" : 0,
									"ftm_scope" : 1,
									"id" : "obj-10",
									"linecount" : 4,
									"maxclass" : "ftm.mess",
									"numinlets" : 2,
									"numoutlets" : 1,
									"outlettype" : [ "" ],
									"patching_rect" : [ 190.0, 220.0, 129.0, 58.0 ],
									"presentation_linecount" : 4,
									"presentation_rect" : [ 190.0, 220.0, 129.0, 58.0 ],
									"text" : [ "_set $1 multiwave,", "_view 0 layout juxtaposed,", "_view 0 shape zeropeaks,", "_view 0 bounds 0 1" ]
								}

							}
, 							{
								"box" : 								{
									"alignviewbounds" : 0,
									"autoupdate" : 120.0,
									"bgcolor" : [ 1.0, 1.0, 1.0, 1.0 ],
									"cursor_color" : [ 1.0, 1.0, 1.0, 1.0 ],
									"cursor_position" : -1.0,
									"cursor_size" : 3,
									"cursor_visible" : 1,
									"domain_bounds" : [ 0.0, 0.0 ],
									"domainruler_bgcolor" : [ 1.0, 1.0, 1.0, 1.0 ],
									"domainruler_fgcolor" : [ 0.0, 0.0, 0.0, 1.0 ],
									"domainruler_grid" : 0,
									"domainruler_position" : 0,
									"domainruler_size" : 15,
									"domainruler_unit" : 0,
									"domainruler_visible" : 0,
									"domainscrollbar_color" : [ 1.0, 1.0, 1.0, 1.0 ],
									"domainscrollbar_size" : 10,
									"domainscrollbar_visible" : 1,
									"ftm_objref_conv" : 0,
									"ftm_scope" : 0,
									"id" : "obj-8",
									"layout" : 0,
									"maxclass" : "ftm.editor",
									"numinlets" : 1,
									"numoutlets" : 1,
									"opacity" : 0.0,
									"orientation" : 0,
									"outlettype" : [ "" ],
									"outputmouse" : 0,
									"outputvalues" : 1,
									"patching_rect" : [ 350.0, 10.0, 275.0, 424.0 ],
									"rangeruler_grid" : 0,
									"rangeruler_size" : 35,
									"rangeruler_visible" : 0,
									"region_begin" : 0.0,
									"region_color" : [ 0.8, 0.7, 0.7, 1.0 ],
									"region_end" : 0.0,
									"split_color" : [ 1.0, 0.0, 0.0, 1.0 ],
									"split_size" : 2,
									"split_visible" : 1,
									"tabs_position" : 0,
									"tabs_size" : 20,
									"tabs_visible" : 1,
									"toolbar_bgcolor" : [ 1.0, 1.0, 1.0, 1.0 ],
									"toolbar_position" : 1,
									"toolbar_size" : 30,
									"toolbar_visible" : 1,
									"windresize" : 0
								}

							}
, 							{
								"box" : 								{
									"fontname" : "Geneva",
									"fontsize" : 10.0,
									"id" : "obj-6",
									"maxclass" : "newobj",
									"numinlets" : 1,
									"numoutlets" : 1,
									"outlettype" : [ "bang" ],
									"patching_rect" : [ 100.0, 130.0, 100.0, 20.0 ],
									"text" : "loadbang"
								}

							}
, 							{
								"box" : 								{
									"fontname" : "Geneva",
									"fontsize" : 10.0,
									"id" : "obj-5",
									"maxclass" : "message",
									"numinlets" : 2,
									"numoutlets" : 1,
									"outlettype" : [ "" ],
									"patching_rect" : [ 30.0, 375.0, 90.0, 18.0 ],
									"text" : "7. 0. 7. 7."
								}

							}
, 							{
								"box" : 								{
									"fontname" : "Helvetica",
									"fontsize" : 10.0,
									"id" : "obj-17",
									"linecount" : 2,
									"maxclass" : "comment",
									"numinlets" : 1,
									"numoutlets" : 0,
									"patching_rect" : [ 50.0, 300.0, 148.0, 26.0 ],
									"text" : "arguments: number of classes, number of pdfs"
								}

							}
, 							{
								"box" : 								{
									"fontname" : "Helvetica",
									"fontsize" : 10.0,
									"id" : "obj-7",
									"maxclass" : "comment",
									"numinlets" : 1,
									"numoutlets" : 0,
									"patching_rect" : [ 160.0, 375.0, 149.0, 16.0 ],
									"text" : "get the resulting class index list"
								}

							}
, 							{
								"box" : 								{
									"fontname" : "Helvetica",
									"fontsize" : 10.0,
									"id" : "obj-4",
									"linecount" : 2,
									"maxclass" : "comment",
									"numinlets" : 1,
									"numoutlets" : 0,
									"patching_rect" : [ 60.0, 30.0, 147.0, 26.0 ],
									"text" : "get a random value based on the given pdf"
								}

							}
, 							{
								"box" : 								{
									"id" : "obj-29",
									"maxclass" : "button",
									"numinlets" : 1,
									"numoutlets" : 1,
									"outlettype" : [ "bang" ],
									"patching_rect" : [ 30.0, 30.0, 20.0, 20.0 ]
								}

							}
, 							{
								"box" : 								{
									"fontname" : "Helvetica",
									"fontsize" : 13.0,
									"id" : "obj-11",
									"maxclass" : "newobj",
									"numinlets" : 2,
									"numoutlets" : 1,
									"outlettype" : [ "" ],
									"patching_rect" : [ 30.0, 340.0, 89.0, 19.0 ],
									"text" : "mnm.pdf 8 4"
								}

							}
, 							{
								"box" : 								{
									"description" : "fmat 8 4",
									"editor_interface" : "",
									"fontname" : "Geneva",
									"fontsize" : 10.0,
									"ftm_objref_conv" : 0,
									"ftm_scope" : 0,
									"id" : "obj-2",
									"maxclass" : "ftm.object",
									"name" : "multipdf",
									"numinlets" : 1,
									"numoutlets" : 2,
									"outlettype" : [ "", "" ],
									"patching_rect" : [ 100.0, 190.0, 103.122063, 19.0 ],
									"persistence" : 0,
									"presentation_rect" : [ 100.0, 190.0, 103.122063, 19.0 ],
									"scope" : 0,
									"text" : "fmat 8 4"
								}

							}
 ],
						"lines" : [ 							{
								"patchline" : 								{
									"destination" : [ "obj-8", 0 ],
									"hidden" : 0,
									"midpoints" : [ 199.5, 287.0, 344.5, 287.0, 344.5, 5.0, 359.5, 5.0 ],
									"source" : [ "obj-10", 0 ]
								}

							}
, 							{
								"patchline" : 								{
									"destination" : [ "obj-5", 1 ],
									"hidden" : 0,
									"midpoints" : [ 39.5, 366.5, 110.5, 366.5 ],
									"source" : [ "obj-11", 0 ]
								}

							}
, 							{
								"patchline" : 								{
									"destination" : [ "obj-2", 0 ],
									"hidden" : 0,
									"midpoints" : [  ],
									"source" : [ "obj-12", 0 ]
								}

							}
, 							{
								"patchline" : 								{
									"destination" : [ "obj-10", 0 ],
									"hidden" : 0,
									"midpoints" : [  ],
									"source" : [ "obj-2", 0 ]
								}

							}
, 							{
								"patchline" : 								{
									"destination" : [ "obj-11", 1 ],
									"hidden" : 0,
									"midpoints" : [  ],
									"source" : [ "obj-2", 0 ]
								}

							}
, 							{
								"patchline" : 								{
									"destination" : [ "obj-12", 0 ],
									"hidden" : 0,
									"midpoints" : [ 359.5, 462.0, 336.0, 462.0, 336.0, 162.0, 120.0, 162.0, 120.0, 156.0, 109.5, 156.0 ],
									"source" : [ "obj-20", 0 ]
								}

							}
, 							{
								"patchline" : 								{
									"destination" : [ "obj-11", 0 ],
									"hidden" : 0,
									"midpoints" : [  ],
									"source" : [ "obj-29", 0 ]
								}

							}
, 							{
								"patchline" : 								{
									"destination" : [ "obj-12", 0 ],
									"hidden" : 0,
									"midpoints" : [  ],
									"source" : [ "obj-6", 0 ]
								}

							}
, 							{
								"patchline" : 								{
									"destination" : [ "obj-20", 0 ],
									"hidden" : 0,
									"midpoints" : [  ],
									"source" : [ "obj-8", 0 ]
								}

							}
 ]
					}
,
					"patching_rect" : [ 15.0, 270.0, 145.0, 19.0 ],
					"saved_object_attributes" : 					{
						"default_fontface" : 0,
						"default_fontname" : "Geneva",
						"fontname" : "Geneva",
						"default_fontsize" : 10.0,
						"globalpatchername" : "",
						"fontface" : 0,
						"fontsize" : 10.0
					}
,
					"text" : "p drawing-multiple-pdfs"
				}

			}
, 			{
				"box" : 				{
					"fontname" : "Helvetica",
					"fontsize" : 10.0,
					"id" : "obj-23",
					"maxclass" : "comment",
					"numinlets" : 1,
					"numoutlets" : 0,
					"patching_rect" : [ 345.0, 216.0, 144.0, 16.0 ],
					"text" : "the normalized pdf really used"
				}

			}
, 			{
				"box" : 				{
					"fontname" : "Helvetica",
					"fontsize" : 10.0,
					"id" : "obj-17",
					"maxclass" : "comment",
					"numinlets" : 1,
					"numoutlets" : 0,
					"patching_rect" : [ 45.0, 150.0, 139.0, 16.0 ],
					"text" : "argument: number of classes"
				}

			}
, 			{
				"box" : 				{
					"contdata" : 1,
					"id" : "obj-16",
					"maxclass" : "multislider",
					"numinlets" : 1,
					"numoutlets" : 2,
					"outlettype" : [ "", "" ],
					"patching_rect" : [ 198.0, 204.0, 146.0, 42.0 ],
					"setminmax" : [ 0.0, 1.0 ],
					"setstyle" : 1,
					"size" : 8
				}

			}
, 			{
				"box" : 				{
					"fontname" : "Helvetica",
					"fontsize" : 10.0,
					"id" : "obj-15",
					"maxclass" : "newobj",
					"numinlets" : 1,
					"numoutlets" : 1,
					"outlettype" : [ "" ],
					"patching_rect" : [ 198.0, 186.0, 39.0, 16.0 ],
					"saved_object_attributes" : 					{
						"ftm_objref_conv" : 0,
						"ftm_scope" : 0
					}
,
					"text" : "ftm.list"
				}

			}
, 			{
				"box" : 				{
					"#init" : "",
					"#loadbang" : 0,
					"#triggerall" : 0,
					"#untuple" : 0,
					"fontname" : "Helvetica",
					"fontsize" : 10.0,
					"ftm_objref_conv" : 0,
					"ftm_scope" : 2,
					"id" : "obj-14",
					"maxclass" : "ftm.mess",
					"numinlets" : 2,
					"numoutlets" : 1,
					"outlettype" : [ "" ],
					"patching_rect" : [ 198.0, 171.0, 76.576172, 14.0 ],
					"presentation_rect" : [ 198.0, 171.0, 76.576172, 14.0 ],
					"text" : [ "_($1 normsum 1)" ]
				}

			}
, 			{
				"box" : 				{
					"fontname" : "Helvetica",
					"fontsize" : 10.0,
					"id" : "obj-1",
					"maxclass" : "newobj",
					"numinlets" : 1,
					"numoutlets" : 1,
					"outlettype" : [ "" ],
					"patching_rect" : [ 198.0, 151.0, 66.0, 16.0 ],
					"text" : "mnm.list2col"
				}

			}
, 			{
				"box" : 				{
					"fontname" : "Helvetica",
					"fontsize" : 10.0,
					"id" : "obj-7",
					"linecount" : 2,
					"maxclass" : "comment",
					"numinlets" : 1,
					"numoutlets" : 0,
					"patching_rect" : [ 75.0, 210.0, 89.0, 26.0 ],
					"text" : "get the resulting class index"
				}

			}
, 			{
				"box" : 				{
					"fontname" : "Helvetica",
					"fontsize" : 10.0,
					"id" : "obj-5",
					"maxclass" : "comment",
					"numinlets" : 1,
					"numoutlets" : 0,
					"patching_rect" : [ 344.0, 117.0, 169.0, 16.0 ],
					"text" : "send the probability density function"
				}

			}
, 			{
				"box" : 				{
					"fontname" : "Helvetica",
					"fontsize" : 10.0,
					"id" : "obj-4",
					"linecount" : 2,
					"maxclass" : "comment",
					"numinlets" : 1,
					"numoutlets" : 0,
					"patching_rect" : [ 45.0, 105.0, 147.0, 26.0 ],
					"text" : "get a random value based on the given pdf"
				}

			}
, 			{
				"box" : 				{
					"fontname" : "Helvetica",
					"fontsize" : 10.0,
					"id" : "obj-10",
					"maxclass" : "comment",
					"numinlets" : 1,
					"numoutlets" : 0,
					"patching_rect" : [ 68.0, 72.0, 139.0, 16.0 ],
					"text" : "syntax: mnm.pdf <elements>"
				}

			}
, 			{
				"box" : 				{
					"fontname" : "Helvetica",
					"fontsize" : 10.0,
					"id" : "obj-18",
					"maxclass" : "comment",
					"numinlets" : 1,
					"numoutlets" : 0,
					"patching_rect" : [ 67.0, 11.0, 100.0, 16.0 ],
					"text" : "MnM object set"
				}

			}
, 			{
				"box" : 				{
					"id" : "obj-19",
					"maxclass" : "fpic",
					"numinlets" : 1,
					"numoutlets" : 0,
					"patching_rect" : [ 13.0, 10.0, 54.0, 72.0 ],
					"pic" : "MnM.jpg"
				}

			}
, 			{
				"box" : 				{
					"fontname" : "Helvetica",
					"fontsize" : 10.0,
					"id" : "obj-20",
					"maxclass" : "comment",
					"numinlets" : 1,
					"numoutlets" : 0,
					"patching_rect" : [ 68.0, 59.0, 256.0, 16.0 ],
					"text" : "distcrete probability density function given by histogram"
				}

			}
, 			{
				"box" : 				{
					"fontname" : "Helvetica",
					"fontsize" : 10.0,
					"id" : "obj-21",
					"maxclass" : "comment",
					"numinlets" : 1,
					"numoutlets" : 0,
					"patching_rect" : [ 68.0, 27.0, 82.0, 16.0 ],
					"text" : "mnm.pdf"
				}

			}
, 			{
				"box" : 				{
					"id" : "obj-29",
					"maxclass" : "button",
					"numinlets" : 1,
					"numoutlets" : 1,
					"outlettype" : [ "bang" ],
					"patching_rect" : [ 15.0, 105.0, 20.0, 20.0 ]
				}

			}
, 			{
				"box" : 				{
					"fontname" : "Helvetica",
					"fontsize" : 10.0,
					"id" : "obj-26",
					"maxclass" : "number",
					"numinlets" : 1,
					"numoutlets" : 2,
					"outlettype" : [ "int", "bang" ],
					"patching_rect" : [ 15.0, 210.0, 49.0, 16.0 ]
				}

			}
, 			{
				"box" : 				{
					"fontname" : "Helvetica",
					"fontsize" : 13.0,
					"id" : "obj-11",
					"maxclass" : "newobj",
					"numinlets" : 2,
					"numoutlets" : 1,
					"outlettype" : [ "" ],
					"patching_rect" : [ 15.0, 180.0, 89.0, 19.0 ],
					"text" : "mnm.pdf 8"
				}

			}
, 			{
				"box" : 				{
					"contdata" : 1,
					"id" : "obj-9",
					"maxclass" : "multislider",
					"numinlets" : 1,
					"numoutlets" : 2,
					"outlettype" : [ "", "" ],
					"patching_rect" : [ 198.0, 107.0, 146.0, 42.0 ],
					"setminmax" : [ 0.0, 1.0 ],
					"setstyle" : 1,
					"size" : 8
				}

			}
 ],
		"lines" : [ 			{
				"patchline" : 				{
					"destination" : [ "obj-11", 1 ],
					"hidden" : 0,
					"midpoints" : [ 207.5, 169.5, 94.5, 169.5 ],
					"source" : [ "obj-1", 0 ]
				}

			}
, 			{
				"patchline" : 				{
					"destination" : [ "obj-14", 0 ],
					"hidden" : 0,
					"midpoints" : [ 207.5, 173.5, 207.5, 173.5 ],
					"source" : [ "obj-1", 0 ]
				}

			}
, 			{
				"patchline" : 				{
					"destination" : [ "obj-26", 0 ],
					"hidden" : 0,
					"midpoints" : [  ],
					"source" : [ "obj-11", 0 ]
				}

			}
, 			{
				"patchline" : 				{
					"destination" : [ "obj-15", 0 ],
					"hidden" : 0,
					"midpoints" : [  ],
					"source" : [ "obj-14", 0 ]
				}

			}
, 			{
				"patchline" : 				{
					"destination" : [ "obj-16", 0 ],
					"hidden" : 0,
					"midpoints" : [  ],
					"source" : [ "obj-15", 0 ]
				}

			}
, 			{
				"patchline" : 				{
					"destination" : [ "obj-11", 0 ],
					"hidden" : 0,
					"midpoints" : [  ],
					"source" : [ "obj-29", 0 ]
				}

			}
, 			{
				"patchline" : 				{
					"destination" : [ "obj-1", 0 ],
					"hidden" : 0,
					"midpoints" : [  ],
					"source" : [ "obj-9", 0 ]
				}

			}
 ]
	}

}
