#N canvas 0 0 793 382 10;
#X floatatom 104 112 5 0 0 0 - - -;
#X floatatom 143 112 5 0 0 0 - - -;
#X floatatom 182 112 5 0 0 0 - - -;
#X floatatom 220 112 5 0 0 0 - - -;
#X floatatom 259 112 5 0 0 0 - - -;
#X floatatom 297 112 5 0 0 0 - - -;
#X floatatom 336 113 5 0 0 0 - - -;
#X floatatom 374 113 5 0 0 0 - - -;
#X obj 145 199 pack f f f f f f f f;
#X obj 130 141 t b f;
#X obj 174 142 t b f;
#X obj 220 140 t b f;
#X obj 264 142 t b f;
#X obj 308 143 t b f;
#X obj 355 143 t b f;
#X obj 399 145 t b f;
#X obj 145 228 outlet;
#X obj 176 39 inlet;
#X obj 174 67 unpack f f f f f f f f;
#X connect 0 0 8 0;
#X connect 1 0 9 0;
#X connect 2 0 10 0;
#X connect 3 0 11 0;
#X connect 4 0 12 0;
#X connect 5 0 13 0;
#X connect 6 0 14 0;
#X connect 7 0 15 0;
#X connect 8 0 16 0;
#X connect 9 0 8 0;
#X connect 9 1 8 1;
#X connect 10 0 8 0;
#X connect 10 1 8 2;
#X connect 11 0 8 0;
#X connect 11 1 8 3;
#X connect 12 0 8 0;
#X connect 12 1 8 4;
#X connect 13 0 8 0;
#X connect 13 1 8 5;
#X connect 14 0 8 0;
#X connect 14 1 8 6;
#X connect 15 0 8 0;
#X connect 15 1 8 7;
#X connect 17 0 18 0;
#X connect 18 0 0 0;
#X connect 18 1 1 0;
#X connect 18 2 2 0;
#X connect 18 3 3 0;
#X connect 18 4 4 0;
#X connect 18 5 5 0;
#X connect 18 6 6 0;
#X connect 18 7 7 0;
#X coords 0 -1 1 1 320 30 1 100 100;
