#N canvas 0 0 450 300 10;
#X obj 20 195 bp~ 1 1;
#X obj 77 195 bp~ 1 1;
#X obj 135 195 bp~ 1 1;
#X obj 192 195 bp~ 1 1;
#X obj 249 195 bp~ 1 1;
#X obj 306 195 bp~ 1 1;
#X obj 364 195 bp~ 1 1;
#X obj 421 195 bp~ 1 1;
#X obj 411 56 inlet res;
#X obj 171 55 inlet~;
#X obj 236 54 unpack f f f f f f f f;
#X obj 237 27 inlet fs;
#X obj 173 267 outlet~;
#X connect 0 0 12 0;
#X connect 1 0 12 0;
#X connect 2 0 12 0;
#X connect 3 0 12 0;
#X connect 4 0 12 0;
#X connect 5 0 12 0;
#X connect 6 0 12 0;
#X connect 7 0 12 0;
#X connect 8 0 7 2;
#X connect 8 0 6 2;
#X connect 8 0 5 2;
#X connect 8 0 4 2;
#X connect 8 0 3 2;
#X connect 8 0 2 2;
#X connect 8 0 1 2;
#X connect 8 0 0 2;
#X connect 9 0 0 0;
#X connect 9 0 1 0;
#X connect 9 0 2 0;
#X connect 9 0 3 0;
#X connect 9 0 4 0;
#X connect 9 0 5 0;
#X connect 9 0 6 0;
#X connect 9 0 7 0;
#X connect 10 0 0 1;
#X connect 10 1 1 1;
#X connect 10 2 2 1;
#X connect 10 3 3 1;
#X connect 10 4 4 1;
#X connect 10 5 5 1;
#X connect 10 6 6 1;
#X connect 10 7 7 1;
#X connect 11 0 10 0;
