#N canvas 0 0 673 915 10;
#X obj 157 -247 bng 15 250 50 0 empty empty empty 0 -6 0 8 -262144
-1 -1;
#N canvas 0 0 450 300 chirp 0;
#X obj 24 200 cos~;
#X obj 47 86 vline~;
#X obj 24 177 -~ 0.25;
#X obj 24 154 wrap~;
#X obj 24 131 pow~;
#X obj -8 86 sig~ 64;
#X obj 47 13 inlet;
#X obj 24 243 outlet~;
#X msg 47 64 0 \, 1 0 0 \, 0 \$1;
#X obj 24 221 hip~ 1;
#X obj 47 109 *~ 1.05;
#X obj 47 39 f 12;
#X obj 96 13 inlet dilate;
#X connect 0 0 9 0;
#X connect 1 0 10 0;
#X connect 2 0 0 0;
#X connect 3 0 2 0;
#X connect 4 0 3 0;
#X connect 5 0 4 0;
#X connect 6 0 11 0;
#X connect 8 0 1 0;
#X connect 9 0 7 0;
#X connect 10 0 4 1;
#X connect 11 0 8 0;
#X connect 12 0 11 1;
#X restore 200 -47 pd chirp impulse;
#N canvas 0 0 517 456 boomer 0;
#X obj -30 -2 noise~;
#X obj -31 50 lop~ 70;
#X obj -32 75 lop~ 70;
#X obj -32 121 hip~ 1;
#X obj -31 206 *~;
#X obj 32 121 ead~ 100 9000;
#X obj -32 98 *~ 40;
#X obj 115 96 + 600;
#X obj 115 73 * 12000;
#X obj 37 -10 * 200;
#X obj -30 20 bp~ 70 1;
#X obj -31 171 *~;
#X obj 32 93 *~ 0.5;
#X obj -15 148 +~ 0.35;
#X obj 25 -73 swap 1;
#X obj 25 -37 -;
#X obj 33 -136 inlet trigger;
#X obj -45 -136 inlet size;
#X obj -45 -112 t f f f;
#X obj -32 234 outlet~;
#X obj 38 11 + 10;
#X connect 0 0 10 0;
#X connect 1 0 2 0;
#X connect 2 0 6 0;
#X connect 3 0 11 0;
#X connect 4 0 19 0;
#X connect 5 0 4 1;
#X connect 6 0 3 0;
#X connect 7 0 5 2;
#X connect 8 0 7 0;
#X connect 9 0 20 0;
#X connect 10 0 1 0;
#X connect 11 0 4 0;
#X connect 12 0 13 0;
#X connect 13 0 11 1;
#X connect 14 0 15 0;
#X connect 14 1 15 1;
#X connect 15 0 9 0;
#X connect 16 0 5 0;
#X connect 17 0 18 0;
#X connect 18 0 14 0;
#X connect 18 1 12 0;
#X connect 18 2 8 0;
#X connect 20 0 10 1;
#X connect 20 0 1 1;
#X connect 20 0 2 1;
#X restore 388 113 pd boomer;
#X obj 388 92 r size;
#N canvas 0 0 581 513 rippernoise 0;
#X obj 63 -37 noise~;
#X obj 108 327 *~;
#X obj 161 -141 inlet;
#X obj 161 -117 t b f f;
#X obj 108 350 outlet~;
#X obj 368 -61 inlet dec;
#X obj 316 34 vline~;
#X msg 316 11 0 \, 1 \$1 0 \, 0 \$2 \$1;
#X obj 317 -14 pack f f;
#X obj 316 -37 f;
#X obj 108 16 vcf~ 7000 2;
#X obj 108 110 *~;
#X msg 205 -22 3;
#X obj 332 -82 inlet atk;
#X obj 204 -43 loadbang;
#X obj 123 87 +~ 0;
#X obj 108 135 wrap~;
#X obj 107 194 max~;
#X obj 107 161 -~ 1;
#X obj 144 159 *~ -1;
#X obj 107 244 +~ 0.5;
#X obj 107 219 *~ 2;
#X obj 124 65 *~ 7;
#X obj 108 271 cos~;
#X obj 143 -11 +~ 20;
#X obj 144 -34 *~ 120;
#X obj 294 82 pow~;
#X obj 293 60 sig~ 6;
#X obj 347 82 pow~;
#X obj 346 60 sig~ 100;
#X obj 108 295 vcf~ 7000 2;
#X obj 205 258 +~ 20;
#X obj 260 235 loadbang;
#X msg 261 256 1;
#X obj 205 235 *~ 3000;
#X obj 368 -40 * 10;
#X connect 0 0 10 0;
#X connect 1 0 4 0;
#X connect 2 0 3 0;
#X connect 3 0 9 0;
#X connect 5 0 35 0;
#X connect 6 0 26 1;
#X connect 6 0 28 1;
#X connect 7 0 6 0;
#X connect 8 0 7 0;
#X connect 9 0 8 0;
#X connect 10 0 11 0;
#X connect 11 0 16 0;
#X connect 12 0 10 2;
#X connect 13 0 9 1;
#X connect 14 0 12 0;
#X connect 15 0 11 1;
#X connect 16 0 18 0;
#X connect 16 0 19 0;
#X connect 17 0 21 0;
#X connect 18 0 17 0;
#X connect 19 0 17 1;
#X connect 20 0 23 0;
#X connect 21 0 20 0;
#X connect 22 0 15 0;
#X connect 23 0 30 0;
#X connect 24 0 10 1;
#X connect 25 0 24 0;
#X connect 26 0 22 0;
#X connect 26 0 1 1;
#X connect 27 0 26 0;
#X connect 28 0 25 0;
#X connect 28 0 34 0;
#X connect 29 0 28 0;
#X connect 30 0 1 0;
#X connect 31 0 30 1;
#X connect 32 0 33 0;
#X connect 33 0 30 2;
#X connect 34 0 31 0;
#X connect 35 0 8 1;
#X restore 165 106 pd rippernoise;
#N canvas 0 0 939 708 pressurewave 0;
#X obj 147 419 lop~ 10000;
#X obj 148 393 hip~ 10;
#X obj 217 189 ead~ 0 3;
#X obj 119 222 delwrite~ \$0-variabledelay 10000;
#X obj 149 339 vd~ \$0-variabledelay;
#X obj 119 191 inlet~ sound;
#X obj 176 94 inlet trigger;
#X obj 148 503 outlet~;
#X obj 281 137 inlet fall;
#X obj 205 137 inlet rise;
#X obj 147 287 *~ 200;
#X obj 148 314 +~ 50;
#X connect 0 0 7 0;
#X connect 1 0 0 0;
#X connect 2 0 10 0;
#X connect 4 0 1 0;
#X connect 5 0 3 0;
#X connect 6 0 2 0;
#X connect 8 0 2 2;
#X connect 9 0 2 1;
#X connect 10 0 11 0;
#X connect 11 0 4 0;
#X restore 207 337 pd pressurewave;
#X obj 207 565 throw~ verbo;
#N canvas 0 0 496 431 nwave 0;
#X obj 150 192 vline~;
#X obj 150 146 pack f f;
#X obj 201 121 + 1;
#X msg 150 168 1 1 0 \, -1 \$1 1 \, 0 1 \$2;
#X obj 171 94 t a a a;
#X obj 128 317 outlet~;
#X obj 171 37 inlet;
#X obj 171 70 f 12;
#X obj 166 219 sdel~;
#X obj 166 245 lop~ 400;
#X obj 219 36 inlet dur;
#X obj 291 35 inlet reflection;
#X obj 166 269 *~ 1.5;
#X obj 95 246 lop~ 2000;
#X connect 0 0 8 0;
#X connect 0 0 13 0;
#X connect 1 0 3 0;
#X connect 2 0 1 1;
#X connect 3 0 0 0;
#X connect 4 0 1 0;
#X connect 4 1 2 0;
#X connect 6 0 7 0;
#X connect 7 0 4 0;
#X connect 8 0 9 0;
#X connect 9 0 12 0;
#X connect 10 0 7 1;
#X connect 11 0 8 1;
#X connect 12 0 5 0;
#X connect 13 0 5 0;
#X restore 77 -44 pd nwave;
#X floatatom 102 -83 5 0 0 0 - - -;
#X obj 56 437 combsweep;
#X obj 225 479 bp-programmer;
#X obj 207 541 bpar8~;
#N canvas 29 29 205 209 random 0;
#X obj 3 189 outlet;
#X obj 3 165 list append;
#X obj 176 147 t l;
#X obj 75 141 list prepend;
#X obj 75 76 until;
#X msg 74 53 8;
#X obj 76 97 random 3000;
#X obj 75 117 + 100;
#X obj 52 1 inlet;
#X obj 52 26 t b b b;
#X connect 1 0 0 0;
#X connect 2 0 3 1;
#X connect 3 0 2 0;
#X connect 3 0 1 1;
#X connect 4 0 6 0;
#X connect 5 0 4 0;
#X connect 6 0 7 0;
#X connect 7 0 3 0;
#X connect 8 0 9 0;
#X connect 9 0 1 0;
#X connect 9 1 5 0;
#X connect 9 2 3 1;
#X restore 225 457 pd random 800 to 5k;
#X floatatom 244 522 5 0 0 0 - - -;
#X obj 389 150 *~ 0.4;
#X obj 446 88 r boom;
#X obj 263 -147 s boom;
#X obj 318 -146 s sweep;
#X obj 56 413 r sweep;
#X obj 57 287 catch~ mix;
#X obj 390 172 throw~ mix;
#X obj 57 519 dac~;
#X floatatom 127 403 5 1 100 0 - - -;
#X obj 427 133 tgl 15 0 empty empty empty 0 -6 0 8 -262144 -1 -1 0.4
0.4;
#X obj 167 172 throw~ mix;
#X obj 150 452 *~ 0.1;
#X floatatom 334 -190 5 0 0 0 - - -;
#X obj 318 -167 del;
#X floatatom 279 -187 5 0 0 0 - - -;
#X obj 263 -168 del;
#X obj 52 -148 s chirp;
#X floatatom 68 -189 5 0 0 0 - - -;
#X obj 52 -170 del;
#X floatatom 174 -189 5 0 0 0 - - -;
#X obj 158 -170 del;
#X obj 158 -147 s noise;
#X obj 165 56 r noise;
#X obj 200 -71 r chirp;
#X floatatom 13 -188 5 0 0 0 - - -;
#X obj -3 -169 del;
#X obj -3 -148 s nwave;
#X obj 77 -104 r nwave;
#X obj 57 372 sdel~;
#X obj 347 -167 s sweepd;
#X obj 85 349 r sweepd;
#X obj 150 496 sdel~;
#X floatatom 180 473 5 0 0 0 - - -;
#X obj 3 376 dac~;
#X obj 92 -23 tgl 15 0 empty empty empty 0 -6 0 8 -262144 -1 -1 1 1
;
#X obj 216 -25 tgl 15 0 empty empty empty 0 -6 0 8 -262144 -1 -1 1
1;
#X obj 166 145 *~ 0.4;
#X obj 203 126 tgl 15 0 empty empty empty 0 -6 0 8 -262144 -1 -1 0.4
0.4;
#X obj 464 -145 s shake;
#X obj 520 -145 s eq;
#X obj 225 435 r eq;
#X obj 488 411 dac~;
#X obj 454 342 s~ udly;
#X obj 457 364 catch~ la;
#X obj 528 363 catch~ ra;
#X obj 453 278 tgl 15 0 empty empty empty 0 -6 0 8 -262144 -1 -1 1
1;
#X obj 453 257 r delayoff;
#X obj 454 320 catch~ verbo;
#N canvas 265 516 939 349 big 0;
#X obj 492 51 switch~;
#X obj 491 29 inlet;
#X obj 99 46 udly 3000;
#X obj 109 56 udly 3000;
#X obj 119 66 udly 3000;
#X obj 129 76 udly 3000;
#X obj 139 86 udly 3000;
#X obj 149 96 udly 3000;
#X obj 159 106 udly 3000;
#X obj 171 122 udly 3000;
#X obj 183 43 udly 3000;
#X obj 193 53 udly 3000;
#X obj 203 63 udly 3000;
#X obj 213 73 udly 3000;
#X obj 223 83 udly 3000;
#X obj 233 93 udly 3000;
#X obj 243 103 udly 3000;
#X obj 253 113 udly 3000;
#X obj 270 37 udly 3000;
#X obj 280 47 udly 3000;
#X obj 290 57 udly 3000;
#X obj 300 67 udly 3000;
#X obj 310 77 udly 3000;
#X obj 320 87 udly 3000;
#X obj 330 97 udly 3000;
#X obj 340 107 udly 3000;
#X connect 1 0 0 0;
#X restore 453 298 pd big box of delays;
#X obj 411 -167 del 3;
#X obj 240 273 r warp;
#X obj 411 -145 s warp;
#X floatatom 441 -186 5 0 0 0 - - -;
#X obj 207 411 dac~;
#X obj 2 335 *~ 0.4;
#X obj 40 318 tgl 15 0 empty empty empty 0 -6 0 8 -262144 -1 -1 0.4
0.4;
#X obj 75 472 tgl 15 0 empty empty empty 0 -6 0 8 -262144 -1 -1 0.6
0.6;
#X floatatom 273 295 5 0 0 0 - - -;
#X floatatom 307 312 5 0 0 0 - - -;
#X obj 148 -278 metro 2000;
#X obj 148 -300 tgl 15 0 empty empty empty 0 -6 0 8 -262144 -1 -1 0
1;
#X floatatom 258 83 5 1 10000 0 - - -;
#X obj 359 321 catch~ shock;
#X obj 76 20 throw~ shock;
#X obj 201 23 throw~ shock;
#X obj 358 344 *~ 0.3;
#X obj 359 373 dac~;
#X floatatom 128 -65 5 0 0 0 - - -;
#X obj 77 -6 *~;
#X floatatom 307 -67 5 0 0 0 - - -;
#X obj 200 -7 *~;
#N canvas 222 235 450 300 fire 0;
#X obj 59 64 hip~ 25;
#X obj 59 10 hip~ 25;
#X obj 59 -32 bp~ 30 5;
#X obj 59 -53 noise~;
#X obj 59 120 outlet~;
#X obj 173 31 vline~;
#X msg 173 8 0 \, 1 \$1 0 \, 0 \$2 \$1;
#X obj 173 -13 pack f f;
#X obj 173 -35 f;
#X obj 189 -62 inlet attack;
#X obj 224 -36 inlet decay;
#X obj 173 -84 inlet trig;
#X obj 60 36 cos~;
#X obj 59 -11 *~ 14;
#X obj 59 94 *~;
#X connect 0 0 14 0;
#X connect 1 0 12 0;
#X connect 2 0 13 0;
#X connect 3 0 2 0;
#X connect 5 0 14 1;
#X connect 6 0 5 0;
#X connect 7 0 6 0;
#X connect 8 0 7 0;
#X connect 9 0 8 1;
#X connect 10 0 7 1;
#X connect 11 0 8 0;
#X connect 12 0 0 0;
#X connect 13 0 1 0;
#X connect 14 0 4 0;
#X restore 298 107 pd fire;
#X floatatom 320 73 5 0 0 0 - - -;
#X floatatom 342 90 5 0 0 0 - - -;
#X obj 298 53 r fire;
#X obj 296 174 throw~ mix;
#X floatatom 230 -188 5 0 0 0 - - -;
#X obj 214 -169 del;
#X obj 214 -147 s fire;
#X obj 297 148 *~ 0.4;
#X obj 334 129 tgl 15 0 empty empty empty 0 -6 0 8 -262144 -1 -1 0.4
0.4;
#X obj 57 492 *~;
#X floatatom 117 88 5 0 0 0 - - -;
#X obj 75 172 throw~ mix;
#X obj 76 146 *~ 0.4;
#X obj 113 127 tgl 15 0 empty empty empty 0 -6 0 8 -262144 -1 -1 0
0.4;
#N canvas 222 235 450 300 mid 0;
#X obj 27 74 *~;
#X obj 80 -1 vline~;
#X obj 160 65 osc~;
#X obj 160 -1 vline~;
#X obj 144 90 *~;
#X obj 160 43 +~ 20;
#X obj 160 21 *~ 7000;
#X msg 160 -24 1 \, 0 10 0;
#X obj 80 24 *~;
#X obj 80 48 *~;
#X obj 27 95 *~ 0.5;
#X obj 27 26 noise~;
#X obj 126 -55 inlet;
#X obj 78 157 outlet~;
#X msg 80 -24 1 \, 0 2000 0;
#X obj 78 132 spark6formant;
#X obj 215 -56 inlet f;
#X connect 0 0 10 0;
#X connect 1 0 8 0;
#X connect 1 0 8 1;
#X connect 2 0 4 1;
#X connect 3 0 4 0;
#X connect 3 0 6 0;
#X connect 4 0 15 0;
#X connect 5 0 2 0;
#X connect 6 0 5 0;
#X connect 7 0 3 0;
#X connect 8 0 9 0;
#X connect 8 0 9 1;
#X connect 9 0 0 1;
#X connect 10 0 15 0;
#X connect 11 0 0 0;
#X connect 12 0 7 0;
#X connect 12 0 14 0;
#X connect 14 0 1 0;
#X connect 15 0 13 0;
#X connect 16 0 15 1;
#X restore 77 105 pd mid;
#X obj 77 51 r mid;
#X floatatom 126 -188 5 0 0 0 - - -;
#X obj 110 -170 del;
#X obj 110 -148 s mid;
#X obj 221 357 tgl 15 0 empty empty empty 0 -6 0 8 -262144 -1 -1 0.2
0.2;
#X obj 207 374 *~;
#X floatatom 211 82 5 1 500 0 - - -;
#X obj 148 -224 t b b b b b b b b b b b b b;
#X connect 0 0 108 0;
#X connect 1 0 84 0;
#X connect 2 0 14 0;
#X connect 3 0 2 0;
#X connect 4 0 50 0;
#X connect 5 0 106 0;
#X connect 7 0 82 0;
#X connect 8 0 7 1;
#X connect 9 0 95 0;
#X connect 10 0 11 1;
#X connect 11 0 6 0;
#X connect 12 0 10 0;
#X connect 13 0 11 2;
#X connect 14 0 20 0;
#X connect 15 0 2 1;
#X connect 18 0 9 0;
#X connect 19 0 42 0;
#X connect 19 0 25 0;
#X connect 19 0 68 0;
#X connect 19 0 5 0;
#X connect 22 0 9 1;
#X connect 23 0 14 1;
#X connect 25 0 45 0;
#X connect 26 0 27 1;
#X connect 26 0 43 0;
#X connect 27 0 17 0;
#X connect 28 0 29 1;
#X connect 29 0 16 0;
#X connect 31 0 32 1;
#X connect 32 0 30 0;
#X connect 33 0 34 1;
#X connect 34 0 35 0;
#X connect 36 0 4 0;
#X connect 37 0 1 0;
#X connect 38 0 39 1;
#X connect 39 0 40 0;
#X connect 41 0 7 0;
#X connect 42 0 9 2;
#X connect 44 0 42 1;
#X connect 45 0 11 0;
#X connect 46 0 45 1;
#X connect 48 0 82 1;
#X connect 49 0 84 1;
#X connect 50 0 24 0;
#X connect 51 0 50 1;
#X connect 54 0 12 0;
#X connect 57 0 55 0;
#X connect 58 0 55 1;
#X connect 59 0 62 0;
#X connect 60 0 59 0;
#X connect 61 0 56 0;
#X connect 63 0 65 0;
#X connect 64 0 5 1;
#X connect 66 0 63 1;
#X connect 68 0 47 0;
#X connect 68 0 47 1;
#X connect 69 0 68 1;
#X connect 70 0 95 1;
#X connect 71 0 5 2;
#X connect 72 0 5 3;
#X connect 73 0 108 0;
#X connect 74 0 73 0;
#X connect 75 0 4 2;
#X connect 76 0 79 0;
#X connect 79 0 80 0;
#X connect 79 0 80 1;
#X connect 81 0 7 2;
#X connect 82 0 77 0;
#X connect 83 0 1 1;
#X connect 84 0 78 0;
#X connect 85 0 93 0;
#X connect 86 0 85 1;
#X connect 87 0 85 2;
#X connect 88 0 85 0;
#X connect 90 0 91 1;
#X connect 91 0 92 0;
#X connect 93 0 89 0;
#X connect 94 0 93 1;
#X connect 95 0 21 0;
#X connect 95 0 21 1;
#X connect 96 0 100 1;
#X connect 98 0 97 0;
#X connect 99 0 98 1;
#X connect 100 0 98 0;
#X connect 101 0 100 0;
#X connect 102 0 103 1;
#X connect 103 0 104 0;
#X connect 105 0 106 1;
#X connect 106 0 67 0;
#X connect 106 0 67 1;
#X connect 107 0 4 1;
#X connect 108 0 39 0;
#X connect 108 1 32 0;
#X connect 108 2 103 0;
#X connect 108 3 34 0;
#X connect 108 4 91 0;
#X connect 108 5 29 0;
#X connect 108 6 27 0;
#X connect 108 7 63 0;
#X connect 108 8 52 0;
#X connect 108 9 53 0;
