#N canvas 333 144 670 446 10;
#X obj 181 300 vline~;
#X obj 195 226 pack f f;
#X obj 246 201 + 1;
#X msg 181 271 1 1 0 \, -1 \$1 1 \, 0 1 \$2;
#X obj 216 174 t a a a;
#X obj 216 152 f;
#X obj 181 396 throw~ verbo;
#X msg 215 119 200;
#X obj 306 191 bp-programmer;
#X obj 180 326 bpar8~;
#X obj 306 150 bng 15 250 50 0 empty empty empty 0 -6 0 8 -262144 -1
-1;
#N canvas 29 29 205 209 random 0;
#X obj 3 189 outlet;
#X obj 3 165 list append;
#X obj 176 147 t l;
#X obj 75 141 list prepend;
#X obj 75 76 until;
#X msg 74 53 8;
#X obj 76 97 random 3000;
#X obj 75 117 + 100;
#X obj 52 1 inlet;
#X obj 52 26 t b b b;
#X connect 1 0 0 0;
#X connect 2 0 3 1;
#X connect 3 0 2 0;
#X connect 3 0 1 1;
#X connect 4 0 6 0;
#X connect 5 0 4 0;
#X connect 6 0 7 0;
#X connect 7 0 3 0;
#X connect 8 0 9 0;
#X connect 9 0 1 0;
#X connect 9 1 5 0;
#X connect 9 2 3 1;
#X restore 306 169 pd random 800 to 5k;
#X floatatom 247 303 5 0 0 0 - - -;
#X connect 0 0 9 0;
#X connect 1 0 3 0;
#X connect 2 0 1 1;
#X connect 3 0 0 0;
#X connect 4 0 1 0;
#X connect 4 1 2 0;
#X connect 5 0 4 0;
#X connect 7 0 5 0;
#X connect 8 0 9 1;
#X connect 9 0 6 0;
#X connect 10 0 11 0;
#X connect 11 0 8 0;
#X connect 12 0 9 2;
