#N canvas 226 164 356 267 10;
#X obj 167 162 *~ 2.5;
#X obj 29 164 *~ 2;
#X obj 112 162 *~ 1.2;
#X obj 112 210 bp~ 2500 0.5;
#X obj 189 49 * 720;
#X obj 134 49 * 480;
#X obj 22 51 * 4600;
#X obj 78 50 * 7200;
#X obj 56 77 inlet~;
#X obj 112 231 outlet~;
#X obj 167 135 bp~ 1 8;
#X obj 0 135 bp~ 1 5;
#X obj 56 135 bp~ 1 5;
#X obj 112 135 bp~ 1 7;
#X obj 134 19 f;
#X obj 134 -3 inlet f;
#X connect 0 0 3 0;
#X connect 1 0 3 0;
#X connect 2 0 3 0;
#X connect 3 0 9 0;
#X connect 4 0 10 1;
#X connect 5 0 13 1;
#X connect 6 0 11 1;
#X connect 7 0 12 1;
#X connect 8 0 10 0;
#X connect 8 0 11 0;
#X connect 8 0 12 0;
#X connect 8 0 13 0;
#X connect 10 0 0 0;
#X connect 11 0 1 0;
#X connect 12 0 1 0;
#X connect 13 0 2 0;
#X connect 14 0 6 0;
#X connect 14 0 7 0;
#X connect 14 0 5 0;
#X connect 14 0 4 0;
#X connect 15 0 14 0;
