#N canvas 21 135 435 461 10;
#X obj 100 -61 bng 15 250 50 0 empty empty blast-em 0 -6 1 8 -262144
-1 -1;
#X obj 151 -22 t b b;
#X obj 151 -62 tgl 15 0 empty empty empty 0 -6 0 8 -262144 -1 -1 0
1;
#X obj 128 370 dac~;
#X obj 151 -44 metro 100;
#X obj 6 83 sd 60 7 5000;
#X obj 256 34 trigger b b b b b;
#X obj 6 39 trigger b b b b b b;
#X obj 5 276 clip~ -1 1;
#X obj 128 325 hip~ 5;
#X obj 181 1 del 15;
#X obj 284 57 del 5;
#X obj 313 76 del 7;
#X obj 341 95 del 9;
#X obj 256 117 crack 1 7;
#X obj 5 253 *~ 0.4;
#X obj 31 102 sd 90 8 3000;
#X obj 57 121 sd 400 9 7000;
#X obj 82 140 sd 300 17 6000;
#X obj 107 160 sd 600 24 9400;
#X obj 134 180 sd 3200 65 12400;
#X obj 340 174 crack 0.05 24;
#X obj 284 136 crack 0.3 12;
#X obj 313 155 crack 0.15 19;
#X obj 128 345 *~ 0.3;
#X obj 257 245 *~ 0.6;
#X connect 0 0 1 0;
#X connect 1 0 7 0;
#X connect 1 1 10 0;
#X connect 2 0 4 0;
#X connect 4 0 1 0;
#X connect 5 0 15 0;
#X connect 6 0 14 0;
#X connect 6 1 11 0;
#X connect 6 2 12 0;
#X connect 6 3 13 0;
#X connect 7 0 5 0;
#X connect 7 1 16 0;
#X connect 7 2 17 0;
#X connect 7 3 18 0;
#X connect 7 4 19 0;
#X connect 7 5 20 0;
#X connect 8 0 9 0;
#X connect 9 0 24 0;
#X connect 10 0 6 0;
#X connect 11 0 22 0;
#X connect 12 0 23 0;
#X connect 13 0 21 0;
#X connect 14 0 25 0;
#X connect 15 0 8 0;
#X connect 16 0 15 0;
#X connect 17 0 15 0;
#X connect 18 0 15 0;
#X connect 19 0 15 0;
#X connect 20 0 15 0;
#X connect 21 0 25 0;
#X connect 22 0 25 0;
#X connect 23 0 25 0;
#X connect 24 0 3 0;
#X connect 24 0 3 1;
#X connect 25 0 9 0;
