#N canvas 0 0 450 300 10;
#X obj 205 115 vline~;
#X obj 144 228 *~;
#X obj 182 162 pow~;
#X obj 182 139 sig~ \$2;
#X msg 205 92 0 \, 1 0 0 \, 0 \$1 0;
#X obj 145 251 outlet~;
#X obj 205 42 inlet bang;
#X obj 205 66 f \$1;
#X obj 111 164 bp~ \$3 \$4;
#X obj 111 142 noise~;
#X connect 0 0 2 1;
#X connect 1 0 5 0;
#X connect 2 0 1 1;
#X connect 3 0 2 0;
#X connect 4 0 0 0;
#X connect 6 0 7 0;
#X connect 7 0 4 0;
#X connect 8 0 1 0;
#X connect 9 0 8 0;
