#N canvas 21 135 526 437 10;
#X obj 219 173 osc~;
#X obj 234 71 vline~;
#X obj 219 195 *~;
#X obj 45 143 vd~ a;
#X obj 219 223 delwrite~ a 1000;
#X obj 94 240 s~ fb;
#X obj 177 197 r~ fb;
#X obj 146 7 bng 15 250 50 0 empty empty empty 0 -6 0 8 -262144 -1
-1;
#X obj 45 73 vline~;
#X obj 93 199 lop~ 10000;
#X obj 220 129 pow~;
#X msg 108 323 /feedback \$1;
#X msg 107 350 /delay \$1;
#N canvas 0 0 450 300 cmreverb 0;
#X obj 25 22 inlet~;
#X obj 85 22 inlet~;
#X obj 397 5 inlet;
#X obj 239 88 delread~ \$0-A 100;
#X obj 269 108 delread~ \$0-B 161.8;
#X obj 299 128 delread~ \$0-C 261.8;
#X obj 329 148 delread~ \$0-D 61.8;
#X obj 185 142 +~;
#X obj 227 142 +~;
#X obj 22 213 outlet~;
#X obj 92 213 outlet~;
#X obj 170 192 +~;
#X obj 274 193 +~;
#X obj 212 192 -~;
#X obj 314 192 -~;
#X obj 169 248 +~;
#X obj 213 249 +~;
#X obj 257 250 -~;
#X obj 296 250 -~;
#X obj 256 332 *~ 0;
#X obj 214 331 *~ 0;
#X obj 169 330 *~ 0;
#X obj 297 333 *~ 0;
#X obj 296 353 delwrite~ \$0-D 1000;
#X obj 257 376 delwrite~ \$0-C 1000;
#X obj 215 399 delwrite~ \$0-B 1000;
#X obj 170 421 delwrite~ \$0-A 1000;
#X obj 396 190 min 100;
#X obj 396 214 max 0;
#X obj 396 238 / 200;
#X obj 239 67 * 1;
#X obj 269 67 * 1.618;
#X obj 329 67 * 2.618;
#X obj 389 67 / 1.618;
#X obj 397 31 route /feedback /delay;
#X connect 0 0 7 0;
#X connect 1 0 8 0;
#X connect 2 0 34 0;
#X connect 3 0 7 1;
#X connect 4 0 8 1;
#X connect 5 0 14 0;
#X connect 5 0 12 0;
#X connect 6 0 14 1;
#X connect 6 0 12 1;
#X connect 7 0 9 0;
#X connect 7 0 11 0;
#X connect 7 0 13 0;
#X connect 8 0 10 0;
#X connect 8 0 11 1;
#X connect 8 0 13 1;
#X connect 11 0 15 0;
#X connect 11 0 17 0;
#X connect 12 0 17 1;
#X connect 12 0 15 1;
#X connect 13 0 16 0;
#X connect 13 0 18 0;
#X connect 14 0 16 1;
#X connect 14 0 18 1;
#X connect 15 0 21 0;
#X connect 16 0 20 0;
#X connect 17 0 19 0;
#X connect 18 0 22 0;
#X connect 19 0 24 0;
#X connect 20 0 25 0;
#X connect 21 0 26 0;
#X connect 22 0 23 0;
#X connect 27 0 28 0;
#X connect 28 0 29 0;
#X connect 29 0 22 1;
#X connect 29 0 19 1;
#X connect 29 0 20 1;
#X connect 29 0 21 1;
#X connect 30 0 3 0;
#X connect 31 0 4 0;
#X connect 32 0 5 0;
#X connect 33 0 6 0;
#X connect 34 0 27 0;
#X connect 34 1 33 0;
#X connect 34 1 32 0;
#X connect 34 1 31 0;
#X connect 34 1 30 0;
#X restore 9 379 pd cmreverb;
#X obj 108 274 loadbang;
#X obj 10 409 dac~;
#X obj 44 242 *~ 0.3;
#X obj 42 269 dac~;
#X obj 219 151 *~ 2700;
#X obj 186 74 sig~ 7;
#X obj 45 165 hip~ 23;
#X obj 94 220 *~ 0.98;
#X obj 9 347 lop~ 1200;
#X obj 45 119 +~ 1.2;
#X obj 45 97 *~ 240;
#X msg 108 299 83;
#X msg 45 50 0 \, 1 5000 0;
#X msg 234 48 0 \, 1 0 0 \, 0 90 0 \, 0.89 60 91 \, 0 200 151;
#X msg 139 299 79;
#X connect 0 0 2 0;
#X connect 1 0 2 1;
#X connect 1 0 10 1;
#X connect 2 0 4 0;
#X connect 3 0 20 0;
#X connect 6 0 4 0;
#X connect 7 0 26 0;
#X connect 7 0 27 0;
#X connect 8 0 24 0;
#X connect 9 0 21 0;
#X connect 10 0 18 0;
#X connect 11 0 13 2;
#X connect 12 0 13 2;
#X connect 13 0 15 0;
#X connect 13 1 15 1;
#X connect 14 0 25 0;
#X connect 14 0 28 0;
#X connect 16 0 17 0;
#X connect 16 0 17 1;
#X connect 16 0 22 0;
#X connect 18 0 0 0;
#X connect 19 0 10 0;
#X connect 20 0 9 0;
#X connect 20 0 16 0;
#X connect 21 0 5 0;
#X connect 22 0 13 0;
#X connect 22 0 13 1;
#X connect 23 0 3 0;
#X connect 24 0 23 0;
#X connect 25 0 11 0;
#X connect 26 0 8 0;
#X connect 27 0 1 0;
#X connect 28 0 12 0;
