#N canvas 0 0 548 492 10;
#X obj 143 183 osc~;
#X obj 205 115 vline~;
#X obj 144 208 *~;
#X obj 144 139 pow~;
#X obj 143 161 *~ 2700;
#X obj 144 116 sig~ \$2;
#X msg 205 92 0 \, 1 0 0 \, 0 \$1 0;
#X obj 145 231 outlet~;
#X obj 205 42 inlet bang;
#X obj 205 66 f \$1;
#X connect 0 0 2 0;
#X connect 1 0 2 1;
#X connect 1 0 3 1;
#X connect 2 0 7 0;
#X connect 3 0 4 0;
#X connect 4 0 0 0;
#X connect 5 0 3 0;
#X connect 6 0 1 0;
#X connect 8 0 9 0;
#X connect 9 0 6 0;
