#N canvas 198 254 191 131 10;
#X obj 54 43 metro 1000;
#X obj 54 20 tgl 15 0 empty empty empty 0 -6 0 8 -262144 -1 -1 0 1
;
#X msg 103 10 500;
#X msg 135 10 250;
#X obj 54 70 f 0;
#X obj 89 70 + 1;
#X floatatom 54 94 5 0 0 0 - - -;
#X connect 0 0 4 0;
#X connect 1 0 0 0;
#X connect 2 0 0 1;
#X connect 3 0 0 1;
#X connect 4 0 5 0;
#X connect 4 0 6 0;
#X connect 5 0 4 1;
