#N canvas 116 227 230 131 10;
#X msg 18 46 \$1;
#X floatatom 18 71 5 0 0 0 - - -;
#X msg 18 23 5 6 7;
#X msg 91 43 \$3 \$1 \$2;
#X obj 91 21 pack 5 10 15;
#X obj 91 66 unpack f f f;
#X obj 91 1 bng 15 250 50 0 empty empty empty 0 -6 0 8 -262144 -1 -1
;
#X floatatom 91 88 3 0 0 0 - - -;
#X floatatom 130 88 3 0 0 0 - - -;
#X floatatom 170 88 3 0 0 0 - - -;
#X connect 0 0 1 0;
#X connect 2 0 0 0;
#X connect 3 0 5 0;
#X connect 4 0 3 0;
#X connect 5 0 7 0;
#X connect 5 1 8 0;
#X connect 5 2 9 0;
#X connect 6 0 4 0;
