#N canvas 153 232 189 111 10;
#X msg 51 19 1;
#X msg 81 19 0;
#X obj 66 51 metro 1000;
#X obj 66 80 bng 15 250 50 0 empty empty empty 0 -6 0 8 -262144 -1
-1;
#X connect 0 0 2 0;
#X connect 1 0 2 0;
#X connect 2 0 3 0;
