#N canvas 153 232 189 111 10;
#X floatatom 65 81 0 0 0 0 - - -;
#X floatatom 65 8 0 0 0 0 - - -;
#X obj 65 55 f;
#X floatatom 95 8 0 0 0 0 - - -;
#X floatatom 125 8 0 0 0 0 - - -;
#X obj 34 8 bng 15 250 50 0 empty empty empty 0 -6 0 8 -262144 -1 -1
;
#X connect 1 0 2 1;
#X connect 2 0 0 0;
#X connect 3 0 2 1;
#X connect 4 0 2 1;
#X connect 5 0 2 0;
