#N canvas 0 0 193 102 10;
#X floatatom 40 62 0 0 0 0 - - -;
#X floatatom 99 63 0 0 0 0 - - -;
#X obj 40 36 +;
#X floatatom 40 6 0 0 0 0 - - -;
#X obj 99 37 +;
#X text 38 81 good;
#X text 100 82 bad;
#X floatatom 99 6 0 0 0 0 - - -;
#X connect 2 0 0 0;
#X connect 3 0 2 1;
#X connect 3 0 2 0;
#X connect 4 0 1 0;
#X connect 7 0 4 0;
#X connect 7 0 4 1;
