#N canvas 233 476 237 60 10;
#X floatatom 4 31 5 0 0 0 - - -;
#X floatatom 98 31 5 0 0 0 - - -;
#X floatatom 157 31 5 0 0 0 - - -;
#X obj 4 3 receive mary;
#X obj 157 3 r midge;
#X obj 98 3 r mungo;
#X connect 3 0 0 0;
#X connect 4 0 2 0;
#X connect 5 0 1 0;
