#N canvas 135 174 155 172 10;
#X obj 44 0 tgl 15 0 empty empty empty 0 -6 0 8 -262144 -1 -1 0 1;
#X obj 44 45 f 0;
#X obj 72 45 + 1;
#X obj 44 69 / 2;
#X obj 44 93 int;
#X floatatom 14 71 3 0 0 0 - - -;
#X floatatom 14 95 3 0 0 0 - - -;
#X obj 44 117 change;
#X floatatom 14 120 3 0 0 0 - - -;
#X floatatom 14 143 3 0 0 0 - - -;
#X obj 44 20 metro 1000;
#X connect 0 0 10 0;
#X connect 1 0 2 0;
#X connect 1 0 3 0;
#X connect 1 0 5 0;
#X connect 2 0 1 1;
#X connect 3 0 4 0;
#X connect 3 0 6 0;
#X connect 4 0 7 0;
#X connect 4 0 8 0;
#X connect 7 0 9 0;
#X connect 10 0 1 0;
