#N canvas 226 146 285 178 10;
#X obj 29 46 random 100;
#X obj 109 46 random 100;
#X obj 189 46 random 100;
#X obj 29 86 +;
#X floatatom 35 66 3 0 0 0 - - -;
#X floatatom 115 66 3 0 0 0 - - -;
#X floatatom 195 66 3 0 0 0 - - -;
#X obj 29 18 trigger bang bang bang;
#X obj 29 109 +;
#X obj 29 131 / 3;
#X floatatom 29 154 6 0 0 0 - - -;
#X obj 29 -2 bng 15 250 50 0 empty empty empty 0 -6 0 8 -262144 -1
-1;
#X connect 0 0 3 0;
#X connect 0 0 4 0;
#X connect 1 0 3 1;
#X connect 1 0 5 0;
#X connect 2 0 6 0;
#X connect 2 0 8 1;
#X connect 3 0 8 0;
#X connect 7 0 0 0;
#X connect 7 1 1 0;
#X connect 7 2 2 0;
#X connect 8 0 9 0;
#X connect 9 0 10 0;
#X connect 11 0 7 0;
