#N canvas 153 232 189 111 10;
#X floatatom 65 81 0 0 0 0 - - -;
#X obj 65 55 +;
#X floatatom 65 8 0 0 0 0 - - -;
#X obj 65 31 t b f;
#X floatatom 30 7 0 0 0 0 - - -;
#X connect 1 0 0 0;
#X connect 2 0 3 0;
#X connect 3 0 1 0;
#X connect 3 1 1 1;
#X connect 4 0 1 0;
