#N canvas 131 141 717 350 10;
#N canvas 0 0 450 300 graph1 0;
#X array kit1-01 32768 float 0;
#X coords 0 1.02 32767 -1.02 100 100 1;
#X restore 4 87 graph;
#X obj 250 236 loadbang;
#X obj 250 308 soundfiler;
#X obj 56 284 hip~ 5;
#X obj 56 206 r phase;
#X obj 56 236 vline~;
#N canvas 0 0 450 300 graph1 0;
#X array kit1-02 32768 float 0;
#X coords 0 1.02 32767 -1.02 100 100 1;
#X restore 185 88 graph;
#N canvas 0 0 450 300 graph1 0;
#X array kit1-03 32768 float 0;
#X coords 0 1.02 32767 -1.02 100 100 1;
#X restore 362 88 graph;
#N canvas 0 0 450 300 graph1 0;
#X array kit1-04 32768 float 0;
#X coords 0 1.02 32767 -1.02 100 100 1;
#X restore 540 87 graph;
#X obj 7 206 r snum;
#X obj 56 262 tabread4~;
#X msg 3 2 \; snum set kit1-01 \; phase 1 \, 4.41e+08 1e+07 \;;
#X msg 183 2 \; snum set kit1-02 \; phase 1 \, 4.41e+08 1e+07 \;;
#X msg 362 2 \; snum set kit1-03 \; phase 1 \, 4.41e+08 1e+07 \;;
#X msg 539 2 \; snum set kit1-04 \; phase 1 \, 4.41e+08 1e+07 \;;
#X obj 56 329 dac~;
#X obj 56 305 *~ 0.5;
#X msg 250 259 read ./sounds/ttsnr.wav kit1-01 \, read ./sounds/jrsnr.wav
kit1-02 \, read ./sounds/dlsnr.wav kit1-03 \, read ./sounds/ezsnr.wav
kit1-04;
#X connect 1 0 17 0;
#X connect 3 0 16 0;
#X connect 4 0 5 0;
#X connect 5 0 10 0;
#X connect 9 0 10 0;
#X connect 10 0 3 0;
#X connect 16 0 15 0;
#X connect 16 0 15 1;
#X connect 17 0 2 0;
