{
	"patcher" : 	{
		"fileversion" : 1,
		"rect" : [ 373.0, 105.0, 889.0, 523.0 ],
		"bgcolor" : [ 0.207843, 0.207843, 0.207843, 1.0 ],
		"bglocked" : 0,
		"defrect" : [ 373.0, 105.0, 889.0, 523.0 ],
		"openrect" : [ 0.0, 0.0, 0.0, 0.0 ],
		"openinpresentation" : 0,
		"default_fontsize" : 12.0,
		"default_fontface" : 0,
		"default_fontname" : "Arial",
		"gridonopen" : 0,
		"gridsize" : [ 15.0, 15.0 ],
		"gridsnaponopen" : 0,
		"toolbarvisible" : 0,
		"boxanimatetime" : 200,
		"imprint" : 0,
		"enablehscroll" : 1,
		"enablevscroll" : 1,
		"devicewidth" : 0.0,
		"title" : "Impact #1 (Low Level)",
		"boxes" : [ 			{
				"box" : 				{
					"maxclass" : "newobj",
					"text" : "prepend set",
					"numinlets" : 1,
					"fontsize" : 9.0,
					"numoutlets" : 1,
					"hidden" : 1,
					"outlettype" : [ "" ],
					"patching_rect" : [ 896.0, 202.0, 62.0, 17.0 ],
					"id" : "obj-1",
					"fontname" : "Arial"
				}

			}
, 			{
				"box" : 				{
					"maxclass" : "newobj",
					"text" : "i",
					"numinlets" : 2,
					"fontsize" : 9.0,
					"numoutlets" : 1,
					"hidden" : 1,
					"outlettype" : [ "int" ],
					"patching_rect" : [ 896.0, 183.0, 27.0, 17.0 ],
					"id" : "obj-2",
					"fontname" : "Arial"
				}

			}
, 			{
				"box" : 				{
					"maxclass" : "newobj",
					"text" : "loadbang",
					"numinlets" : 1,
					"fontsize" : 9.0,
					"numoutlets" : 1,
					"hidden" : 1,
					"outlettype" : [ "bang" ],
					"patching_rect" : [ 1196.0, -25.0, 48.0, 17.0 ],
					"id" : "obj-3",
					"fontname" : "Arial"
				}

			}
, 			{
				"box" : 				{
					"maxclass" : "newobj",
					"text" : "delay 500",
					"numinlets" : 2,
					"fontsize" : 9.0,
					"numoutlets" : 1,
					"hidden" : 1,
					"outlettype" : [ "bang" ],
					"patching_rect" : [ 1178.0, 56.0, 55.0, 17.0 ],
					"id" : "obj-4",
					"fontname" : "Arial"
				}

			}
, 			{
				"box" : 				{
					"maxclass" : "newobj",
					"text" : "t bang",
					"numinlets" : 1,
					"fontsize" : 9.0,
					"numoutlets" : 1,
					"hidden" : 1,
					"outlettype" : [ "bang" ],
					"patching_rect" : [ 1178.0, 36.0, 37.0, 17.0 ],
					"id" : "obj-5",
					"fontname" : "Arial"
				}

			}
, 			{
				"box" : 				{
					"maxclass" : "newobj",
					"text" : "prepend read",
					"color" : [ 0.380392, 0.611765, 0.611765, 1.0 ],
					"numinlets" : 1,
					"fontsize" : 9.0,
					"numoutlets" : 1,
					"hidden" : 1,
					"outlettype" : [ "" ],
					"patching_rect" : [ 1178.0, 3.0, 68.0, 17.0 ],
					"id" : "obj-6",
					"fontname" : "Arial"
				}

			}
, 			{
				"box" : 				{
					"maxclass" : "inlet",
					"numinlets" : 0,
					"numoutlets" : 1,
					"hidden" : 1,
					"outlettype" : [ "" ],
					"patching_rect" : [ 1178.0, -36.0, 15.0, 15.0 ],
					"id" : "obj-7",
					"comment" : "update ubumenu pattrstorage"
				}

			}
, 			{
				"box" : 				{
					"maxclass" : "message",
					"text" : "title Impact #1 (Low Level)",
					"numinlets" : 2,
					"fontsize" : 9.0,
					"numoutlets" : 1,
					"hidden" : 1,
					"outlettype" : [ "" ],
					"patching_rect" : [ 108.0, 197.0, 138.0, 15.0 ],
					"id" : "obj-8",
					"fontname" : "Arial"
				}

			}
, 			{
				"box" : 				{
					"maxclass" : "message",
					"text" : "window flags close, window flags grow, window exec",
					"numinlets" : 2,
					"fontsize" : 9.0,
					"numoutlets" : 1,
					"hidden" : 1,
					"outlettype" : [ "" ],
					"patching_rect" : [ 47.0, 246.0, 252.0, 15.0 ],
					"id" : "obj-9",
					"fontname" : "Arial"
				}

			}
, 			{
				"box" : 				{
					"maxclass" : "newobj",
					"text" : "loadbang",
					"numinlets" : 1,
					"fontsize" : 9.0,
					"numoutlets" : 1,
					"hidden" : 1,
					"outlettype" : [ "bang" ],
					"patching_rect" : [ 117.0, 160.0, 48.0, 17.0 ],
					"id" : "obj-10",
					"fontname" : "Arial"
				}

			}
, 			{
				"box" : 				{
					"maxclass" : "message",
					"text" : "window flags noclose, window flags nogrow, window exec",
					"numinlets" : 2,
					"fontsize" : 9.0,
					"numoutlets" : 1,
					"hidden" : 1,
					"outlettype" : [ "" ],
					"patching_rect" : [ 30.0, 229.0, 272.0, 15.0 ],
					"id" : "obj-11",
					"fontname" : "Arial"
				}

			}
, 			{
				"box" : 				{
					"maxclass" : "newobj",
					"text" : "thispatcher",
					"numinlets" : 1,
					"fontsize" : 9.0,
					"numoutlets" : 2,
					"hidden" : 1,
					"outlettype" : [ "", "" ],
					"patching_rect" : [ 30.0, 266.0, 61.0, 17.0 ],
					"id" : "obj-12",
					"fontname" : "Arial",
					"save" : [ "#N", "thispatcher", ";", "#Q", "end", ";" ]
				}

			}
, 			{
				"box" : 				{
					"maxclass" : "outlet",
					"numinlets" : 1,
					"numoutlets" : 0,
					"hidden" : 1,
					"patching_rect" : [ 113.0, 554.0, 15.0, 15.0 ],
					"id" : "obj-13",
					"comment" : "active modes"
				}

			}
, 			{
				"box" : 				{
					"maxclass" : "newobj",
					"text" : "loadmess 1",
					"numinlets" : 1,
					"fontsize" : 9.0,
					"numoutlets" : 1,
					"hidden" : 1,
					"outlettype" : [ "" ],
					"patching_rect" : [ 634.0, 42.0, 60.0, 17.0 ],
					"id" : "obj-14",
					"fontname" : "Arial"
				}

			}
, 			{
				"box" : 				{
					"maxclass" : "outlet",
					"numinlets" : 1,
					"numoutlets" : 0,
					"hidden" : 1,
					"patching_rect" : [ 337.0, 554.0, 15.0, 15.0 ],
					"id" : "obj-15",
					"comment" : "set recall to ubumenu"
				}

			}
, 			{
				"box" : 				{
					"maxclass" : "inlet",
					"numinlets" : 0,
					"numoutlets" : 1,
					"hidden" : 1,
					"outlettype" : [ "" ],
					"patching_rect" : [ 1055.0, -36.0, 15.0, 15.0 ],
					"id" : "obj-16",
					"comment" : "write/read storage file.xml"
				}

			}
, 			{
				"box" : 				{
					"maxclass" : "newobj",
					"text" : "bgcolor 53 53 53",
					"numinlets" : 4,
					"fontsize" : 9.0,
					"numoutlets" : 0,
					"hidden" : 1,
					"patching_rect" : [ 965.0, 496.0, 88.0, 17.0 ],
					"id" : "obj-17",
					"fontname" : "Arial"
				}

			}
, 			{
				"box" : 				{
					"maxclass" : "outlet",
					"numinlets" : 1,
					"numoutlets" : 0,
					"hidden" : 1,
					"patching_rect" : [ 183.0, 554.0, 15.0, 15.0 ],
					"id" : "obj-18",
					"comment" : "Gain modes list - inlet 13"
				}

			}
, 			{
				"box" : 				{
					"maxclass" : "outlet",
					"numinlets" : 1,
					"numoutlets" : 0,
					"hidden" : 1,
					"patching_rect" : [ 165.0, 554.0, 15.0, 15.0 ],
					"id" : "obj-19",
					"comment" : "Decay modes list - inlet 12"
				}

			}
, 			{
				"box" : 				{
					"maxclass" : "outlet",
					"numinlets" : 1,
					"numoutlets" : 0,
					"hidden" : 1,
					"patching_rect" : [ 147.0, 554.0, 15.0, 15.0 ],
					"id" : "obj-20",
					"comment" : "frequency modes list - inlet 11"
				}

			}
, 			{
				"box" : 				{
					"maxclass" : "outlet",
					"numinlets" : 1,
					"numoutlets" : 0,
					"hidden" : 1,
					"patching_rect" : [ 129.0, 554.0, 15.0, 15.0 ],
					"id" : "obj-21",
					"comment" : "Global base factors - inlet 10"
				}

			}
, 			{
				"box" : 				{
					"maxclass" : "outlet",
					"numinlets" : 1,
					"numoutlets" : 0,
					"hidden" : 1,
					"patching_rect" : [ 359.0, 554.0, 15.0, 15.0 ],
					"id" : "obj-22",
					"comment" : "to set cont interpolation (float)"
				}

			}
, 			{
				"box" : 				{
					"maxclass" : "outlet",
					"numinlets" : 1,
					"numoutlets" : 0,
					"hidden" : 1,
					"patching_rect" : [ 316.0, 554.0, 15.0, 15.0 ],
					"id" : "obj-23",
					"comment" : "save - populate ubumenu"
				}

			}
, 			{
				"box" : 				{
					"maxclass" : "outlet",
					"numinlets" : 1,
					"numoutlets" : 0,
					"hidden" : 1,
					"patching_rect" : [ 296.0, 554.0, 15.0, 15.0 ],
					"id" : "obj-24",
					"comment" : "save - set message to text box"
				}

			}
, 			{
				"box" : 				{
					"maxclass" : "outlet",
					"numinlets" : 1,
					"numoutlets" : 0,
					"hidden" : 1,
					"patching_rect" : [ 276.0, 554.0, 15.0, 15.0 ],
					"id" : "obj-25",
					"comment" : "to save - toggle on/off"
				}

			}
, 			{
				"box" : 				{
					"maxclass" : "newobj",
					"text" : "route int bang",
					"color" : [ 0.8, 0.611765, 0.380392, 1.0 ],
					"numinlets" : 1,
					"fontsize" : 9.0,
					"numoutlets" : 3,
					"hidden" : 1,
					"outlettype" : [ "", "", "" ],
					"patching_rect" : [ 1086.0, 94.0, 72.0, 17.0 ],
					"id" : "obj-26",
					"fontname" : "Arial"
				}

			}
, 			{
				"box" : 				{
					"maxclass" : "inlet",
					"numinlets" : 0,
					"numoutlets" : 1,
					"hidden" : 1,
					"outlettype" : [ "" ],
					"patching_rect" : [ 1086.0, -36.0, 15.0, 15.0 ],
					"id" : "obj-27",
					"comment" : "delete preset (int + bang)"
				}

			}
, 			{
				"box" : 				{
					"maxclass" : "outlet",
					"numinlets" : 1,
					"numoutlets" : 0,
					"hidden" : 1,
					"patching_rect" : [ 13.0, 554.0, 15.0, 15.0 ],
					"id" : "obj-28",
					"comment" : "Impact parameters (inlet 5- interactor)"
				}

			}
, 			{
				"box" : 				{
					"maxclass" : "outlet",
					"numinlets" : 1,
					"numoutlets" : 0,
					"hidden" : 1,
					"patching_rect" : [ -6.0, 554.0, 15.0, 15.0 ],
					"id" : "obj-29",
					"comment" : "to cont surf slid - High level interface"
				}

			}
, 			{
				"box" : 				{
					"maxclass" : "outlet",
					"numinlets" : 1,
					"numoutlets" : 0,
					"hidden" : 1,
					"patching_rect" : [ -25.0, 554.0, 15.0, 15.0 ],
					"id" : "obj-30",
					"comment" : "to mat elast slid - high level interface"
				}

			}
, 			{
				"box" : 				{
					"maxclass" : "outlet",
					"numinlets" : 1,
					"numoutlets" : 0,
					"hidden" : 1,
					"patching_rect" : [ -64.0, 554.0, 15.0, 15.0 ],
					"id" : "obj-31",
					"comment" : "Hammer mass (Inlet 9 - gain at pick up point)"
				}

			}
, 			{
				"box" : 				{
					"maxclass" : "outlet",
					"numinlets" : 1,
					"numoutlets" : 0,
					"hidden" : 1,
					"patching_rect" : [ -83.0, 554.0, 15.0, 15.0 ],
					"id" : "obj-32",
					"comment" : "to Hammer mass slid - High level interface"
				}

			}
, 			{
				"box" : 				{
					"maxclass" : "outlet",
					"numinlets" : 1,
					"numoutlets" : 0,
					"hidden" : 1,
					"patching_rect" : [ -102.0, 554.0, 15.0, 15.0 ],
					"id" : "obj-33",
					"comment" : "Initial strike velocity - Inlet 4"
				}

			}
, 			{
				"box" : 				{
					"maxclass" : "outlet",
					"numinlets" : 1,
					"numoutlets" : 0,
					"hidden" : 1,
					"patching_rect" : [ -121.0, 554.0, 15.0, 15.0 ],
					"id" : "obj-34",
					"comment" : "external force on striker (inlet 1 - signal)"
				}

			}
, 			{
				"box" : 				{
					"maxclass" : "newobj",
					"text" : "unpack 1 1 0.",
					"color" : [ 0.8, 0.611765, 0.380392, 1.0 ],
					"numinlets" : 1,
					"fontsize" : 9.0,
					"numoutlets" : 3,
					"hidden" : 1,
					"outlettype" : [ "int", "int", "float" ],
					"patching_rect" : [ 1148.0, 158.0, 70.0, 17.0 ],
					"id" : "obj-35",
					"fontname" : "Arial"
				}

			}
, 			{
				"box" : 				{
					"maxclass" : "inlet",
					"numinlets" : 0,
					"numoutlets" : 1,
					"hidden" : 1,
					"outlettype" : [ "" ],
					"patching_rect" : [ 1148.0, -36.0, 15.0, 15.0 ],
					"id" : "obj-36",
					"comment" : "non adjacent interpolation (List)"
				}

			}
, 			{
				"box" : 				{
					"maxclass" : "inlet",
					"numinlets" : 0,
					"numoutlets" : 1,
					"hidden" : 1,
					"outlettype" : [ "" ],
					"patching_rect" : [ 1124.0, -36.0, 15.0, 15.0 ],
					"id" : "obj-37",
					"comment" : "continuous preset interpolation (float)"
				}

			}
, 			{
				"box" : 				{
					"maxclass" : "inlet",
					"numinlets" : 0,
					"numoutlets" : 1,
					"hidden" : 1,
					"outlettype" : [ "" ],
					"patching_rect" : [ 1001.0, -36.0, 15.0, 15.0 ],
					"id" : "obj-38",
					"comment" : "Global gain factor"
				}

			}
, 			{
				"box" : 				{
					"maxclass" : "inlet",
					"numinlets" : 0,
					"numoutlets" : 1,
					"hidden" : 1,
					"outlettype" : [ "" ],
					"patching_rect" : [ 1035.0, -36.0, 15.0, 15.0 ],
					"id" : "obj-39",
					"comment" : "recall preset (int)"
				}

			}
, 			{
				"box" : 				{
					"maxclass" : "inlet",
					"numinlets" : 0,
					"numoutlets" : 1,
					"hidden" : 1,
					"outlettype" : [ "" ],
					"patching_rect" : [ 1018.0, -36.0, 15.0, 15.0 ],
					"id" : "obj-40",
					"comment" : "save - store message from text box"
				}

			}
, 			{
				"box" : 				{
					"maxclass" : "inlet",
					"numinlets" : 0,
					"numoutlets" : 1,
					"hidden" : 1,
					"outlettype" : [ "" ],
					"patching_rect" : [ 949.0, -36.0, 15.0, 15.0 ],
					"id" : "obj-41",
					"comment" : "Contact surface (0-100)"
				}

			}
, 			{
				"box" : 				{
					"maxclass" : "inlet",
					"numinlets" : 0,
					"numoutlets" : 1,
					"hidden" : 1,
					"outlettype" : [ "" ],
					"patching_rect" : [ 983.0, -36.0, 15.0, 15.0 ],
					"id" : "obj-42",
					"comment" : "Global decay factor"
				}

			}
, 			{
				"box" : 				{
					"maxclass" : "inlet",
					"numinlets" : 0,
					"numoutlets" : 1,
					"hidden" : 1,
					"outlettype" : [ "" ],
					"patching_rect" : [ 966.0, -36.0, 15.0, 15.0 ],
					"id" : "obj-43",
					"comment" : "Global Frequency factor"
				}

			}
, 			{
				"box" : 				{
					"maxclass" : "inlet",
					"numinlets" : 0,
					"numoutlets" : 1,
					"hidden" : 1,
					"outlettype" : [ "" ],
					"patching_rect" : [ 897.0, -36.0, 15.0, 15.0 ],
					"id" : "obj-44",
					"comment" : "bang to strike"
				}

			}
, 			{
				"box" : 				{
					"maxclass" : "inlet",
					"numinlets" : 0,
					"numoutlets" : 1,
					"hidden" : 1,
					"outlettype" : [ "" ],
					"patching_rect" : [ 931.0, -36.0, 15.0, 15.0 ],
					"id" : "obj-45",
					"comment" : "Material elasticity (0-100)"
				}

			}
, 			{
				"box" : 				{
					"maxclass" : "inlet",
					"numinlets" : 0,
					"numoutlets" : 1,
					"hidden" : 1,
					"outlettype" : [ "" ],
					"patching_rect" : [ 914.0, -36.0, 15.0, 15.0 ],
					"id" : "obj-46",
					"comment" : "hammer mass (0-100)"
				}

			}
, 			{
				"box" : 				{
					"maxclass" : "comment",
					"text" : "Recall",
					"numinlets" : 1,
					"fontsize" : 9.0,
					"numoutlets" : 0,
					"patching_rect" : [ 759.0, 118.0, 39.0, 19.0 ],
					"id" : "obj-47",
					"fontname" : "Arial Black"
				}

			}
, 			{
				"box" : 				{
					"maxclass" : "comment",
					"text" : "Save",
					"numinlets" : 1,
					"fontsize" : 9.0,
					"numoutlets" : 0,
					"patching_rect" : [ 569.0, 35.0, 34.0, 19.0 ],
					"id" : "obj-48",
					"fontname" : "Arial Black"
				}

			}
, 			{
				"box" : 				{
					"maxclass" : "comment",
					"text" : "Set non-adjacent presets, drag float number box to interpolate",
					"linecount" : 2,
					"numinlets" : 1,
					"fontsize" : 9.0,
					"numoutlets" : 0,
					"patching_rect" : [ 708.0, 178.0, 146.0, 27.0 ],
					"id" : "obj-49",
					"fontname" : "Arial"
				}

			}
, 			{
				"box" : 				{
					"maxclass" : "message",
					"text" : "recall $1",
					"numinlets" : 2,
					"fontsize" : 9.0,
					"numoutlets" : 1,
					"hidden" : 1,
					"outlettype" : [ "" ],
					"patching_rect" : [ 715.0, 163.0, 51.0, 15.0 ],
					"id" : "obj-50",
					"fontname" : "Arial"
				}

			}
, 			{
				"box" : 				{
					"maxclass" : "newobj",
					"text" : "p checkitems",
					"numinlets" : 2,
					"fontsize" : 9.0,
					"numoutlets" : 3,
					"hidden" : 1,
					"outlettype" : [ "", "int", "" ],
					"patching_rect" : [ 707.0, 101.0, 68.0, 17.0 ],
					"id" : "obj-51",
					"fontname" : "Arial",
					"patcher" : 					{
						"fileversion" : 1,
						"rect" : [ 10.0, 59.0, 385.0, 199.0 ],
						"bglocked" : 0,
						"defrect" : [ 10.0, 59.0, 385.0, 199.0 ],
						"openrect" : [ 0.0, 0.0, 0.0, 0.0 ],
						"openinpresentation" : 0,
						"default_fontsize" : 12.0,
						"default_fontface" : 0,
						"default_fontname" : "Arial",
						"gridonopen" : 0,
						"gridsize" : [ 15.0, 15.0 ],
						"gridsnaponopen" : 0,
						"toolbarvisible" : 1,
						"boxanimatetime" : 200,
						"imprint" : 0,
						"enablehscroll" : 1,
						"enablevscroll" : 1,
						"devicewidth" : 0.0,
						"boxes" : [ 							{
								"box" : 								{
									"maxclass" : "newobj",
									"text" : "prepend set",
									"numinlets" : 1,
									"fontsize" : 9.0,
									"numoutlets" : 1,
									"outlettype" : [ "" ],
									"patching_rect" : [ 3.0, 74.0, 62.0, 17.0 ],
									"id" : "obj-1",
									"fontname" : "Arial"
								}

							}
, 							{
								"box" : 								{
									"maxclass" : "outlet",
									"numinlets" : 1,
									"numoutlets" : 0,
									"patching_rect" : [ 2.0, 94.0, 15.0, 15.0 ],
									"id" : "obj-2",
									"comment" : ""
								}

							}
, 							{
								"box" : 								{
									"maxclass" : "newobj",
									"text" : "t i i",
									"numinlets" : 1,
									"fontsize" : 9.0,
									"numoutlets" : 2,
									"hidden" : 1,
									"outlettype" : [ "int", "int" ],
									"patching_rect" : [ 50.0, 50.0, 27.0, 17.0 ],
									"id" : "obj-3",
									"fontname" : "Arial"
								}

							}
, 							{
								"box" : 								{
									"maxclass" : "message",
									"text" : "clearchecks, checkitem $1 -1",
									"numinlets" : 2,
									"fontsize" : 9.0,
									"numoutlets" : 1,
									"hidden" : 1,
									"outlettype" : [ "" ],
									"patching_rect" : [ 92.0, 51.0, 143.0, 15.0 ],
									"id" : "obj-4",
									"fontname" : "Arial"
								}

							}
, 							{
								"box" : 								{
									"maxclass" : "inlet",
									"numinlets" : 0,
									"numoutlets" : 1,
									"outlettype" : [ "int" ],
									"patching_rect" : [ 50.0, 30.0, 15.0, 15.0 ],
									"id" : "obj-5",
									"comment" : ""
								}

							}
, 							{
								"box" : 								{
									"maxclass" : "inlet",
									"numinlets" : 0,
									"numoutlets" : 1,
									"outlettype" : [ "int" ],
									"patching_rect" : [ 92.0, 31.0, 15.0, 15.0 ],
									"id" : "obj-6",
									"comment" : ""
								}

							}
, 							{
								"box" : 								{
									"maxclass" : "outlet",
									"numinlets" : 1,
									"numoutlets" : 0,
									"patching_rect" : [ 92.0, 92.0, 15.0, 15.0 ],
									"id" : "obj-7",
									"comment" : ""
								}

							}
, 							{
								"box" : 								{
									"maxclass" : "outlet",
									"numinlets" : 1,
									"numoutlets" : 0,
									"patching_rect" : [ 50.0, 93.0, 15.0, 15.0 ],
									"id" : "obj-8",
									"comment" : ""
								}

							}
 ],
						"lines" : [ 							{
								"patchline" : 								{
									"source" : [ "obj-1", 0 ],
									"destination" : [ "obj-2", 0 ],
									"hidden" : 0,
									"midpoints" : [  ]
								}

							}
, 							{
								"patchline" : 								{
									"source" : [ "obj-3", 1 ],
									"destination" : [ "obj-1", 0 ],
									"hidden" : 0,
									"midpoints" : [ 67.5, 71.0, 12.5, 71.0 ]
								}

							}
, 							{
								"patchline" : 								{
									"source" : [ "obj-5", 0 ],
									"destination" : [ "obj-3", 0 ],
									"hidden" : 0,
									"midpoints" : [  ]
								}

							}
, 							{
								"patchline" : 								{
									"source" : [ "obj-3", 0 ],
									"destination" : [ "obj-8", 0 ],
									"hidden" : 0,
									"midpoints" : [  ]
								}

							}
, 							{
								"patchline" : 								{
									"source" : [ "obj-3", 1 ],
									"destination" : [ "obj-8", 0 ],
									"hidden" : 0,
									"midpoints" : [  ]
								}

							}
, 							{
								"patchline" : 								{
									"source" : [ "obj-6", 0 ],
									"destination" : [ "obj-4", 0 ],
									"hidden" : 0,
									"midpoints" : [  ]
								}

							}
, 							{
								"patchline" : 								{
									"source" : [ "obj-4", 0 ],
									"destination" : [ "obj-7", 0 ],
									"hidden" : 0,
									"midpoints" : [  ]
								}

							}
 ]
					}
,
					"saved_object_attributes" : 					{
						"default_fontsize" : 12.0,
						"globalpatchername" : "",
						"fontface" : 0,
						"fontsize" : 12.0,
						"default_fontface" : 0,
						"fontname" : "Arial",
						"default_fontname" : "Arial"
					}

				}

			}
, 			{
				"box" : 				{
					"maxclass" : "message",
					"text" : "1",
					"numinlets" : 2,
					"fontsize" : 12.0,
					"numoutlets" : 1,
					"ignoreclick" : 1,
					"outlettype" : [ "" ],
					"patching_rect" : [ 704.0, 75.0, 26.0, 18.0 ],
					"id" : "obj-52",
					"fontname" : "Arial"
				}

			}
, 			{
				"box" : 				{
					"maxclass" : "newobj",
					"text" : "p act_pattr",
					"numinlets" : 0,
					"fontsize" : 9.0,
					"numoutlets" : 1,
					"hidden" : 1,
					"outlettype" : [ "" ],
					"patching_rect" : [ 775.0, 224.0, 61.0, 17.0 ],
					"id" : "obj-53",
					"fontname" : "Arial",
					"patcher" : 					{
						"fileversion" : 1,
						"rect" : [ 280.0, 365.0, 339.0, 472.0 ],
						"bglocked" : 0,
						"defrect" : [ 280.0, 365.0, 339.0, 472.0 ],
						"openrect" : [ 0.0, 0.0, 0.0, 0.0 ],
						"openinpresentation" : 0,
						"default_fontsize" : 12.0,
						"default_fontface" : 0,
						"default_fontname" : "Arial",
						"gridonopen" : 0,
						"gridsize" : [ 15.0, 15.0 ],
						"gridsnaponopen" : 0,
						"toolbarvisible" : 1,
						"boxanimatetime" : 200,
						"imprint" : 0,
						"enablehscroll" : 1,
						"enablevscroll" : 1,
						"devicewidth" : 0.0,
						"boxes" : [ 							{
								"box" : 								{
									"maxclass" : "newobj",
									"text" : "sel 1",
									"numinlets" : 2,
									"fontsize" : 9.0,
									"numoutlets" : 2,
									"outlettype" : [ "bang", "" ],
									"patching_rect" : [ 108.0, 220.0, 32.0, 17.0 ],
									"id" : "obj-1",
									"fontname" : "Arial"
								}

							}
, 							{
								"box" : 								{
									"maxclass" : "newobj",
									"text" : "t b",
									"numinlets" : 1,
									"fontsize" : 9.0,
									"numoutlets" : 1,
									"outlettype" : [ "bang" ],
									"patching_rect" : [ 37.0, 313.0, 20.0, 17.0 ],
									"id" : "obj-2",
									"fontname" : "Arial"
								}

							}
, 							{
								"box" : 								{
									"maxclass" : "message",
									"text" : "bang",
									"numinlets" : 2,
									"fontsize" : 9.0,
									"numoutlets" : 1,
									"outlettype" : [ "" ],
									"patching_rect" : [ 161.0, 63.0, 30.0, 15.0 ],
									"id" : "obj-3",
									"fontname" : "Arial"
								}

							}
, 							{
								"box" : 								{
									"maxclass" : "newobj",
									"text" : "delay 200",
									"numinlets" : 2,
									"fontsize" : 9.0,
									"numoutlets" : 1,
									"outlettype" : [ "bang" ],
									"patching_rect" : [ 161.0, 40.0, 55.0, 17.0 ],
									"id" : "obj-4",
									"fontname" : "Arial"
								}

							}
, 							{
								"box" : 								{
									"maxclass" : "newobj",
									"text" : "loadbang",
									"numinlets" : 1,
									"fontsize" : 9.0,
									"numoutlets" : 1,
									"outlettype" : [ "bang" ],
									"patching_rect" : [ 219.0, 40.0, 48.0, 17.0 ],
									"id" : "obj-5",
									"fontname" : "Arial"
								}

							}
, 							{
								"box" : 								{
									"maxclass" : "outlet",
									"numinlets" : 1,
									"numoutlets" : 0,
									"patching_rect" : [ 37.0, 415.0, 15.0, 15.0 ],
									"id" : "obj-6",
									"comment" : ""
								}

							}
, 							{
								"box" : 								{
									"maxclass" : "button",
									"numinlets" : 1,
									"numoutlets" : 1,
									"outlettype" : [ "bang" ],
									"patching_rect" : [ 177.0, 83.0, 15.0, 15.0 ],
									"id" : "obj-7"
								}

							}
, 							{
								"box" : 								{
									"maxclass" : "message",
									"text" : "1",
									"numinlets" : 2,
									"fontsize" : 9.0,
									"numoutlets" : 1,
									"outlettype" : [ "" ],
									"patching_rect" : [ 161.0, 83.0, 16.0, 15.0 ],
									"id" : "obj-8",
									"fontname" : "Arial"
								}

							}
, 							{
								"box" : 								{
									"maxclass" : "message",
									"text" : "Resonator_control.pat::Mo2_freq0 1",
									"numinlets" : 2,
									"fontsize" : 9.0,
									"numoutlets" : 1,
									"outlettype" : [ "" ],
									"patching_rect" : [ 37.0, 356.0, 177.0, 15.0 ],
									"id" : "obj-9",
									"fontname" : "Arial"
								}

							}
, 							{
								"box" : 								{
									"maxclass" : "newobj",
									"text" : "t 1 b",
									"numinlets" : 1,
									"fontsize" : 9.0,
									"numoutlets" : 2,
									"outlettype" : [ "int", "bang" ],
									"patching_rect" : [ 108.0, 243.0, 31.0, 17.0 ],
									"id" : "obj-10",
									"fontname" : "Arial"
								}

							}
, 							{
								"box" : 								{
									"maxclass" : "newobj",
									"text" : "prepend active",
									"numinlets" : 1,
									"fontsize" : 9.0,
									"numoutlets" : 1,
									"outlettype" : [ "" ],
									"patching_rect" : [ 37.0, 376.0, 76.0, 17.0 ],
									"id" : "obj-11",
									"fontname" : "Arial"
								}

							}
, 							{
								"box" : 								{
									"maxclass" : "newobj",
									"text" : "t 0",
									"numinlets" : 1,
									"fontsize" : 9.0,
									"numoutlets" : 1,
									"outlettype" : [ "int" ],
									"patching_rect" : [ 201.0, 83.0, 21.0, 17.0 ],
									"id" : "obj-12",
									"fontname" : "Arial"
								}

							}
, 							{
								"box" : 								{
									"maxclass" : "newobj",
									"text" : "sel 16",
									"numinlets" : 2,
									"fontsize" : 9.0,
									"numoutlets" : 2,
									"outlettype" : [ "bang", "" ],
									"patching_rect" : [ 145.0, 159.0, 38.0, 17.0 ],
									"id" : "obj-13",
									"fontname" : "Arial"
								}

							}
, 							{
								"box" : 								{
									"maxclass" : "newobj",
									"text" : "counter 0 1 16",
									"numinlets" : 5,
									"fontsize" : 9.0,
									"numoutlets" : 4,
									"outlettype" : [ "int", "", "", "int" ],
									"patching_rect" : [ 145.0, 130.0, 77.0, 17.0 ],
									"id" : "obj-14",
									"fontname" : "Arial"
								}

							}
, 							{
								"box" : 								{
									"maxclass" : "newobj",
									"text" : "metro 200",
									"numinlets" : 2,
									"fontsize" : 9.0,
									"numoutlets" : 1,
									"outlettype" : [ "bang" ],
									"patching_rect" : [ 145.0, 107.0, 58.0, 17.0 ],
									"id" : "obj-15",
									"fontname" : "Arial"
								}

							}
, 							{
								"box" : 								{
									"maxclass" : "message",
									"text" : "Mo2_freq0",
									"numinlets" : 2,
									"fontsize" : 9.0,
									"numoutlets" : 1,
									"outlettype" : [ "" ],
									"patching_rect" : [ 177.0, 282.0, 60.0, 15.0 ],
									"id" : "obj-16",
									"fontname" : "Arial"
								}

							}
, 							{
								"box" : 								{
									"maxclass" : "newobj",
									"text" : "sel 10",
									"numinlets" : 2,
									"fontsize" : 9.0,
									"numoutlets" : 2,
									"outlettype" : [ "bang", "" ],
									"patching_rect" : [ 247.0, 256.0, 38.0, 17.0 ],
									"id" : "obj-17",
									"fontname" : "Arial"
								}

							}
, 							{
								"box" : 								{
									"maxclass" : "newobj",
									"text" : "t i i",
									"numinlets" : 1,
									"fontsize" : 9.0,
									"numoutlets" : 2,
									"outlettype" : [ "int", "int" ],
									"patching_rect" : [ 168.0, 204.0, 27.0, 17.0 ],
									"id" : "obj-18",
									"fontname" : "Arial"
								}

							}
, 							{
								"box" : 								{
									"maxclass" : "newobj",
									"text" : "split 0 9",
									"numinlets" : 3,
									"fontsize" : 9.0,
									"numoutlets" : 2,
									"outlettype" : [ "int", "int" ],
									"patching_rect" : [ 108.0, 184.0, 70.0, 17.0 ],
									"id" : "obj-19",
									"fontname" : "Arial"
								}

							}
, 							{
								"box" : 								{
									"maxclass" : "message",
									"text" : "Mo2_freq",
									"numinlets" : 2,
									"fontsize" : 9.0,
									"numoutlets" : 1,
									"outlettype" : [ "" ],
									"patching_rect" : [ 247.0, 281.0, 54.0, 15.0 ],
									"id" : "obj-20",
									"fontname" : "Arial"
								}

							}
, 							{
								"box" : 								{
									"maxclass" : "newobj",
									"text" : "t b i",
									"numinlets" : 1,
									"fontsize" : 9.0,
									"numoutlets" : 2,
									"outlettype" : [ "bang", "int" ],
									"patching_rect" : [ 138.0, 281.0, 27.0, 17.0 ],
									"id" : "obj-21",
									"fontname" : "Arial"
								}

							}
, 							{
								"box" : 								{
									"maxclass" : "number",
									"numinlets" : 1,
									"triscale" : 0.9,
									"fontsize" : 9.0,
									"numoutlets" : 2,
									"htextcolor" : [ 0.870588, 0.870588, 0.870588, 1.0 ],
									"outlettype" : [ "int", "bang" ],
									"patching_rect" : [ 108.0, 203.0, 35.0, 17.0 ],
									"bgcolor" : [ 0.866667, 0.866667, 0.866667, 1.0 ],
									"id" : "obj-22",
									"fontname" : "Arial"
								}

							}
, 							{
								"box" : 								{
									"maxclass" : "newobj",
									"text" : "sprintf Resonator_control.pat::%s%s 0",
									"numinlets" : 2,
									"fontsize" : 9.0,
									"numoutlets" : 1,
									"outlettype" : [ "" ],
									"patching_rect" : [ 58.0, 334.0, 189.0, 17.0 ],
									"id" : "obj-23",
									"fontname" : "Arial"
								}

							}
 ],
						"lines" : [ 							{
								"patchline" : 								{
									"source" : [ "obj-13", 0 ],
									"destination" : [ "obj-2", 0 ],
									"hidden" : 0,
									"midpoints" : [ 154.5, 180.0, 46.5, 180.0 ]
								}

							}
, 							{
								"patchline" : 								{
									"source" : [ "obj-2", 0 ],
									"destination" : [ "obj-9", 0 ],
									"hidden" : 0,
									"midpoints" : [  ]
								}

							}
, 							{
								"patchline" : 								{
									"source" : [ "obj-9", 0 ],
									"destination" : [ "obj-11", 0 ],
									"hidden" : 0,
									"midpoints" : [  ]
								}

							}
, 							{
								"patchline" : 								{
									"source" : [ "obj-23", 0 ],
									"destination" : [ "obj-11", 0 ],
									"hidden" : 0,
									"midpoints" : [  ]
								}

							}
, 							{
								"patchline" : 								{
									"source" : [ "obj-11", 0 ],
									"destination" : [ "obj-6", 0 ],
									"hidden" : 0,
									"midpoints" : [  ]
								}

							}
, 							{
								"patchline" : 								{
									"source" : [ "obj-20", 0 ],
									"destination" : [ "obj-23", 0 ],
									"hidden" : 0,
									"midpoints" : [ 256.5, 325.0, 67.5, 325.0 ]
								}

							}
, 							{
								"patchline" : 								{
									"source" : [ "obj-21", 0 ],
									"destination" : [ "obj-23", 0 ],
									"hidden" : 0,
									"midpoints" : [ 147.5, 303.0, 67.5, 303.0 ]
								}

							}
, 							{
								"patchline" : 								{
									"source" : [ "obj-16", 0 ],
									"destination" : [ "obj-23", 0 ],
									"hidden" : 0,
									"midpoints" : [ 186.5, 316.0, 67.5, 316.0 ]
								}

							}
, 							{
								"patchline" : 								{
									"source" : [ "obj-14", 0 ],
									"destination" : [ "obj-19", 0 ],
									"hidden" : 0,
									"midpoints" : [ 154.5, 160.0, 117.5, 160.0 ]
								}

							}
, 							{
								"patchline" : 								{
									"source" : [ "obj-19", 0 ],
									"destination" : [ "obj-22", 0 ],
									"hidden" : 0,
									"midpoints" : [  ]
								}

							}
, 							{
								"patchline" : 								{
									"source" : [ "obj-22", 0 ],
									"destination" : [ "obj-1", 0 ],
									"hidden" : 0,
									"midpoints" : [  ]
								}

							}
, 							{
								"patchline" : 								{
									"source" : [ "obj-1", 0 ],
									"destination" : [ "obj-10", 0 ],
									"hidden" : 0,
									"midpoints" : [  ]
								}

							}
, 							{
								"patchline" : 								{
									"source" : [ "obj-1", 1 ],
									"destination" : [ "obj-21", 0 ],
									"hidden" : 0,
									"midpoints" : [ 130.5, 241.0, 147.5, 241.0 ]
								}

							}
, 							{
								"patchline" : 								{
									"source" : [ "obj-10", 0 ],
									"destination" : [ "obj-21", 0 ],
									"hidden" : 0,
									"midpoints" : [ 117.5, 271.0, 147.5, 271.0 ]
								}

							}
, 							{
								"patchline" : 								{
									"source" : [ "obj-18", 0 ],
									"destination" : [ "obj-21", 0 ],
									"hidden" : 0,
									"midpoints" : [ 177.5, 275.0, 147.5, 275.0 ]
								}

							}
, 							{
								"patchline" : 								{
									"source" : [ "obj-8", 0 ],
									"destination" : [ "obj-15", 0 ],
									"hidden" : 0,
									"midpoints" : [ 170.5, 101.0, 154.5, 101.0 ]
								}

							}
, 							{
								"patchline" : 								{
									"source" : [ "obj-12", 0 ],
									"destination" : [ "obj-15", 0 ],
									"hidden" : 0,
									"midpoints" : [  ]
								}

							}
, 							{
								"patchline" : 								{
									"source" : [ "obj-15", 0 ],
									"destination" : [ "obj-14", 0 ],
									"hidden" : 0,
									"midpoints" : [  ]
								}

							}
, 							{
								"patchline" : 								{
									"source" : [ "obj-14", 0 ],
									"destination" : [ "obj-13", 0 ],
									"hidden" : 0,
									"midpoints" : [  ]
								}

							}
, 							{
								"patchline" : 								{
									"source" : [ "obj-5", 0 ],
									"destination" : [ "obj-4", 0 ],
									"hidden" : 0,
									"midpoints" : [  ]
								}

							}
, 							{
								"patchline" : 								{
									"source" : [ "obj-4", 0 ],
									"destination" : [ "obj-3", 0 ],
									"hidden" : 0,
									"midpoints" : [  ]
								}

							}
, 							{
								"patchline" : 								{
									"source" : [ "obj-3", 0 ],
									"destination" : [ "obj-8", 0 ],
									"hidden" : 0,
									"midpoints" : [  ]
								}

							}
, 							{
								"patchline" : 								{
									"source" : [ "obj-19", 1 ],
									"destination" : [ "obj-18", 0 ],
									"hidden" : 0,
									"midpoints" : [  ]
								}

							}
, 							{
								"patchline" : 								{
									"source" : [ "obj-8", 0 ],
									"destination" : [ "obj-7", 0 ],
									"hidden" : 0,
									"midpoints" : [  ]
								}

							}
, 							{
								"patchline" : 								{
									"source" : [ "obj-7", 0 ],
									"destination" : [ "obj-14", 2 ],
									"hidden" : 0,
									"midpoints" : [  ]
								}

							}
, 							{
								"patchline" : 								{
									"source" : [ "obj-10", 1 ],
									"destination" : [ "obj-16", 0 ],
									"hidden" : 0,
									"midpoints" : [ 129.5, 269.0, 186.5, 269.0 ]
								}

							}
, 							{
								"patchline" : 								{
									"source" : [ "obj-13", 0 ],
									"destination" : [ "obj-12", 0 ],
									"hidden" : 0,
									"midpoints" : [ 154.5, 180.0, 247.0, 180.0, 247.0, 79.0, 210.5, 79.0 ]
								}

							}
, 							{
								"patchline" : 								{
									"source" : [ "obj-21", 1 ],
									"destination" : [ "obj-23", 1 ],
									"hidden" : 0,
									"midpoints" : [ 155.5, 331.0, 237.5, 331.0 ]
								}

							}
, 							{
								"patchline" : 								{
									"source" : [ "obj-18", 1 ],
									"destination" : [ "obj-17", 0 ],
									"hidden" : 0,
									"midpoints" : [ 185.5, 244.0, 256.5, 244.0 ]
								}

							}
, 							{
								"patchline" : 								{
									"source" : [ "obj-17", 0 ],
									"destination" : [ "obj-20", 0 ],
									"hidden" : 0,
									"midpoints" : [  ]
								}

							}
 ]
					}
,
					"saved_object_attributes" : 					{
						"default_fontsize" : 12.0,
						"globalpatchername" : "",
						"fontface" : 0,
						"fontsize" : 12.0,
						"default_fontface" : 0,
						"fontname" : "Arial",
						"default_fontname" : "Arial"
					}

				}

			}
, 			{
				"box" : 				{
					"maxclass" : "comment",
					"text" : "Toggle off + enter index + preset name to store preset",
					"linecount" : 2,
					"numinlets" : 1,
					"fontsize" : 9.0,
					"numoutlets" : 0,
					"patching_rect" : [ 513.0, 51.0, 136.0, 27.0 ],
					"id" : "obj-54",
					"fontname" : "Arial"
				}

			}
, 			{
				"box" : 				{
					"maxclass" : "umenu",
					"discolor" : [ 0.647059, 0.647059, 0.647059, 1.0 ],
					"togcolor" : [ 0.552941, 0.552941, 0.552941, 1.0 ],
					"numinlets" : 1,
					"hltcolor" : [ 0.411765, 0.090196, 0.090196, 1.0 ],
					"bgcolor2" : [ 0.647059, 0.647059, 0.647059, 1.0 ],
					"fontsize" : 12.0,
					"numoutlets" : 3,
					"textcolor2" : [ 1.0, 1.0, 1.0, 1.0 ],
					"items" : "(undefined)",
					"types" : [  ],
					"outlettype" : [ "int", "", "" ],
					"patching_rect" : [ 732.0, 75.0, 121.0, 20.0 ],
					"textcolor" : [ 1.0, 1.0, 1.0, 1.0 ],
					"bgcolor" : [ 0.411765, 0.090196, 0.090196, 1.0 ],
					"framecolor" : [ 0.015686, 0.015686, 0.015686, 1.0 ],
					"id" : "obj-55",
					"fontname" : "Arial"
				}

			}
, 			{
				"box" : 				{
					"maxclass" : "newobj",
					"text" : "p storelist",
					"numinlets" : 4,
					"fontsize" : 9.0,
					"numoutlets" : 4,
					"hidden" : 1,
					"outlettype" : [ "int", "set", "", "" ],
					"patching_rect" : [ 517.0, 217.0, 57.0, 17.0 ],
					"id" : "obj-56",
					"fontname" : "Arial",
					"patcher" : 					{
						"fileversion" : 1,
						"rect" : [ 19.0, 397.0, 734.0, 517.0 ],
						"bglocked" : 0,
						"defrect" : [ 19.0, 397.0, 734.0, 517.0 ],
						"openrect" : [ 0.0, 0.0, 0.0, 0.0 ],
						"openinpresentation" : 0,
						"default_fontsize" : 12.0,
						"default_fontface" : 0,
						"default_fontname" : "Arial",
						"gridonopen" : 0,
						"gridsize" : [ 15.0, 15.0 ],
						"gridsnaponopen" : 0,
						"toolbarvisible" : 1,
						"boxanimatetime" : 200,
						"imprint" : 0,
						"enablehscroll" : 1,
						"enablevscroll" : 1,
						"devicewidth" : 0.0,
						"boxes" : [ 							{
								"box" : 								{
									"maxclass" : "inlet",
									"numinlets" : 0,
									"numoutlets" : 1,
									"outlettype" : [ "bang" ],
									"patching_rect" : [ 186.0, 39.0, 15.0, 15.0 ],
									"id" : "obj-1",
									"comment" : ""
								}

							}
, 							{
								"box" : 								{
									"maxclass" : "outlet",
									"numinlets" : 1,
									"numoutlets" : 0,
									"patching_rect" : [ 164.0, 398.0, 15.0, 15.0 ],
									"id" : "obj-2",
									"comment" : ""
								}

							}
, 							{
								"box" : 								{
									"maxclass" : "outlet",
									"numinlets" : 1,
									"numoutlets" : 0,
									"patching_rect" : [ 134.0, 398.0, 15.0, 15.0 ],
									"id" : "obj-3",
									"comment" : ""
								}

							}
, 							{
								"box" : 								{
									"maxclass" : "newobj",
									"text" : "t 1 set",
									"numinlets" : 1,
									"fontsize" : 9.0,
									"numoutlets" : 2,
									"outlettype" : [ "int", "set" ],
									"patching_rect" : [ 134.0, 63.0, 40.0, 17.0 ],
									"id" : "obj-4",
									"fontname" : "Arial"
								}

							}
, 							{
								"box" : 								{
									"maxclass" : "newobj",
									"text" : "route bang int",
									"numinlets" : 1,
									"fontsize" : 9.0,
									"numoutlets" : 3,
									"outlettype" : [ "", "", "" ],
									"patching_rect" : [ 612.0, 67.0, 72.0, 17.0 ],
									"id" : "obj-5",
									"fontname" : "Arial"
								}

							}
, 							{
								"box" : 								{
									"maxclass" : "inlet",
									"numinlets" : 0,
									"numoutlets" : 1,
									"outlettype" : [ "bang" ],
									"patching_rect" : [ 612.0, 39.0, 15.0, 15.0 ],
									"id" : "obj-6",
									"comment" : ""
								}

							}
, 							{
								"box" : 								{
									"maxclass" : "newobj",
									"text" : "i",
									"numinlets" : 2,
									"fontsize" : 9.0,
									"numoutlets" : 1,
									"outlettype" : [ "int" ],
									"patching_rect" : [ 612.0, 88.0, 41.0, 17.0 ],
									"id" : "obj-7",
									"fontname" : "Arial"
								}

							}
, 							{
								"box" : 								{
									"maxclass" : "message",
									"text" : "delete $1",
									"numinlets" : 2,
									"fontsize" : 9.0,
									"numoutlets" : 1,
									"outlettype" : [ "" ],
									"patching_rect" : [ 612.0, 143.0, 52.0, 15.0 ],
									"id" : "obj-8",
									"fontname" : "Arial"
								}

							}
, 							{
								"box" : 								{
									"maxclass" : "outlet",
									"numinlets" : 1,
									"numoutlets" : 0,
									"patching_rect" : [ 206.0, 398.0, 15.0, 15.0 ],
									"id" : "obj-9",
									"comment" : ""
								}

							}
, 							{
								"box" : 								{
									"maxclass" : "inlet",
									"numinlets" : 0,
									"numoutlets" : 1,
									"outlettype" : [ "" ],
									"patching_rect" : [ 338.0, 39.0, 15.0, 15.0 ],
									"id" : "obj-10",
									"comment" : ""
								}

							}
, 							{
								"box" : 								{
									"maxclass" : "inlet",
									"numinlets" : 0,
									"numoutlets" : 1,
									"outlettype" : [ "" ],
									"patching_rect" : [ 218.0, 39.0, 15.0, 15.0 ],
									"id" : "obj-11",
									"comment" : ""
								}

							}
, 							{
								"box" : 								{
									"maxclass" : "outlet",
									"numinlets" : 1,
									"numoutlets" : 0,
									"patching_rect" : [ 411.0, 398.0, 15.0, 15.0 ],
									"id" : "obj-12",
									"comment" : ""
								}

							}
, 							{
								"box" : 								{
									"maxclass" : "button",
									"numinlets" : 1,
									"numoutlets" : 1,
									"outlettype" : [ "bang" ],
									"patching_rect" : [ 218.0, 110.0, 15.0, 15.0 ],
									"id" : "obj-13"
								}

							}
, 							{
								"box" : 								{
									"maxclass" : "newobj",
									"text" : "delay 200",
									"numinlets" : 2,
									"fontsize" : 9.0,
									"numoutlets" : 1,
									"outlettype" : [ "bang" ],
									"patching_rect" : [ 218.0, 128.0, 55.0, 17.0 ],
									"id" : "obj-14",
									"fontname" : "Arial"
								}

							}
, 							{
								"box" : 								{
									"maxclass" : "button",
									"numinlets" : 1,
									"numoutlets" : 1,
									"outlettype" : [ "bang" ],
									"patching_rect" : [ 218.0, 148.0, 15.0, 15.0 ],
									"id" : "obj-15"
								}

							}
, 							{
								"box" : 								{
									"maxclass" : "newobj",
									"text" : "route slotname",
									"numinlets" : 1,
									"fontsize" : 9.0,
									"numoutlets" : 2,
									"outlettype" : [ "", "" ],
									"patching_rect" : [ 338.0, 265.0, 77.0, 17.0 ],
									"id" : "obj-16",
									"fontname" : "Arial"
								}

							}
, 							{
								"box" : 								{
									"maxclass" : "newobj",
									"text" : "t 0",
									"numinlets" : 1,
									"fontsize" : 9.0,
									"numoutlets" : 1,
									"outlettype" : [ "int" ],
									"patching_rect" : [ 338.0, 310.0, 21.0, 17.0 ],
									"id" : "obj-17",
									"fontname" : "Arial"
								}

							}
, 							{
								"box" : 								{
									"maxclass" : "newobj",
									"text" : "unpack 0 s",
									"numinlets" : 1,
									"fontsize" : 9.0,
									"numoutlets" : 2,
									"outlettype" : [ "int", "" ],
									"patching_rect" : [ 383.0, 310.0, 55.0, 17.0 ],
									"id" : "obj-18",
									"fontname" : "Arial"
								}

							}
, 							{
								"box" : 								{
									"maxclass" : "newobj",
									"text" : "prepend append",
									"numinlets" : 1,
									"fontsize" : 9.0,
									"numoutlets" : 1,
									"outlettype" : [ "" ],
									"patching_rect" : [ 428.0, 331.0, 75.0, 17.0 ],
									"id" : "obj-19",
									"fontname" : "Arial"
								}

							}
, 							{
								"box" : 								{
									"maxclass" : "newobj",
									"text" : "t 1 clear",
									"numinlets" : 1,
									"fontsize" : 9.0,
									"numoutlets" : 2,
									"outlettype" : [ "int", "clear" ],
									"patching_rect" : [ 218.0, 192.0, 48.0, 17.0 ],
									"id" : "obj-20",
									"fontname" : "Arial"
								}

							}
, 							{
								"box" : 								{
									"maxclass" : "newobj",
									"text" : "route done",
									"numinlets" : 1,
									"fontsize" : 9.0,
									"numoutlets" : 2,
									"outlettype" : [ "", "" ],
									"patching_rect" : [ 338.0, 288.0, 55.0, 17.0 ],
									"id" : "obj-21",
									"fontname" : "Arial"
								}

							}
, 							{
								"box" : 								{
									"maxclass" : "newobj",
									"text" : "gate",
									"numinlets" : 2,
									"fontsize" : 9.0,
									"numoutlets" : 1,
									"outlettype" : [ "" ],
									"patching_rect" : [ 411.0, 352.0, 27.0, 17.0 ],
									"id" : "obj-22",
									"fontname" : "Arial"
								}

							}
, 							{
								"box" : 								{
									"maxclass" : "message",
									"text" : "getslotnamelist",
									"numinlets" : 2,
									"fontsize" : 9.0,
									"numoutlets" : 1,
									"outlettype" : [ "" ],
									"patching_rect" : [ 218.0, 171.0, 81.0, 15.0 ],
									"id" : "obj-23",
									"fontname" : "Arial"
								}

							}
, 							{
								"box" : 								{
									"maxclass" : "newobj",
									"text" : "prepend store",
									"numinlets" : 1,
									"fontsize" : 9.0,
									"numoutlets" : 1,
									"outlettype" : [ "" ],
									"patching_rect" : [ 218.0, 77.0, 72.0, 17.0 ],
									"id" : "obj-24",
									"fontname" : "Arial"
								}

							}
, 							{
								"box" : 								{
									"maxclass" : "newobj",
									"text" : "route text",
									"numinlets" : 1,
									"fontsize" : 9.0,
									"numoutlets" : 2,
									"outlettype" : [ "", "" ],
									"patching_rect" : [ 218.0, 58.0, 56.0, 17.0 ],
									"id" : "obj-25",
									"fontname" : "Arial"
								}

							}
 ],
						"lines" : [ 							{
								"patchline" : 								{
									"source" : [ "obj-11", 0 ],
									"destination" : [ "obj-4", 0 ],
									"hidden" : 0,
									"midpoints" : [ 227.0, 58.0, 143.5, 58.0 ]
								}

							}
, 							{
								"patchline" : 								{
									"source" : [ "obj-4", 0 ],
									"destination" : [ "obj-3", 0 ],
									"hidden" : 0,
									"midpoints" : [  ]
								}

							}
, 							{
								"patchline" : 								{
									"source" : [ "obj-4", 1 ],
									"destination" : [ "obj-2", 0 ],
									"hidden" : 0,
									"midpoints" : [  ]
								}

							}
, 							{
								"patchline" : 								{
									"source" : [ "obj-23", 0 ],
									"destination" : [ "obj-9", 0 ],
									"hidden" : 0,
									"midpoints" : [ 227.5, 188.0, 215.0, 188.0 ]
								}

							}
, 							{
								"patchline" : 								{
									"source" : [ "obj-24", 0 ],
									"destination" : [ "obj-9", 0 ],
									"hidden" : 0,
									"midpoints" : [ 227.5, 101.0, 215.0, 101.0 ]
								}

							}
, 							{
								"patchline" : 								{
									"source" : [ "obj-8", 0 ],
									"destination" : [ "obj-9", 0 ],
									"hidden" : 0,
									"midpoints" : [ 621.5, 394.0, 215.0, 394.0 ]
								}

							}
, 							{
								"patchline" : 								{
									"source" : [ "obj-11", 0 ],
									"destination" : [ "obj-25", 0 ],
									"hidden" : 0,
									"midpoints" : [  ]
								}

							}
, 							{
								"patchline" : 								{
									"source" : [ "obj-25", 0 ],
									"destination" : [ "obj-24", 0 ],
									"hidden" : 0,
									"midpoints" : [  ]
								}

							}
, 							{
								"patchline" : 								{
									"source" : [ "obj-7", 0 ],
									"destination" : [ "obj-13", 0 ],
									"hidden" : 0,
									"midpoints" : [ 621.5, 105.0, 227.0, 105.0 ]
								}

							}
, 							{
								"patchline" : 								{
									"source" : [ "obj-24", 0 ],
									"destination" : [ "obj-13", 0 ],
									"hidden" : 0,
									"midpoints" : [  ]
								}

							}
, 							{
								"patchline" : 								{
									"source" : [ "obj-13", 0 ],
									"destination" : [ "obj-14", 0 ],
									"hidden" : 0,
									"midpoints" : [  ]
								}

							}
, 							{
								"patchline" : 								{
									"source" : [ "obj-14", 0 ],
									"destination" : [ "obj-15", 0 ],
									"hidden" : 0,
									"midpoints" : [  ]
								}

							}
, 							{
								"patchline" : 								{
									"source" : [ "obj-1", 0 ],
									"destination" : [ "obj-15", 0 ],
									"hidden" : 0,
									"midpoints" : [ 195.0, 145.0, 227.0, 145.0 ]
								}

							}
, 							{
								"patchline" : 								{
									"source" : [ "obj-15", 0 ],
									"destination" : [ "obj-23", 0 ],
									"hidden" : 0,
									"midpoints" : [  ]
								}

							}
, 							{
								"patchline" : 								{
									"source" : [ "obj-23", 0 ],
									"destination" : [ "obj-20", 0 ],
									"hidden" : 0,
									"midpoints" : [  ]
								}

							}
, 							{
								"patchline" : 								{
									"source" : [ "obj-10", 0 ],
									"destination" : [ "obj-16", 0 ],
									"hidden" : 0,
									"midpoints" : [  ]
								}

							}
, 							{
								"patchline" : 								{
									"source" : [ "obj-16", 0 ],
									"destination" : [ "obj-21", 0 ],
									"hidden" : 0,
									"midpoints" : [  ]
								}

							}
, 							{
								"patchline" : 								{
									"source" : [ "obj-21", 0 ],
									"destination" : [ "obj-17", 0 ],
									"hidden" : 0,
									"midpoints" : [  ]
								}

							}
, 							{
								"patchline" : 								{
									"source" : [ "obj-21", 1 ],
									"destination" : [ "obj-18", 0 ],
									"hidden" : 0,
									"midpoints" : [  ]
								}

							}
, 							{
								"patchline" : 								{
									"source" : [ "obj-17", 0 ],
									"destination" : [ "obj-22", 0 ],
									"hidden" : 0,
									"midpoints" : [ 347.5, 346.0, 420.5, 346.0 ]
								}

							}
, 							{
								"patchline" : 								{
									"source" : [ "obj-20", 0 ],
									"destination" : [ "obj-22", 0 ],
									"hidden" : 0,
									"midpoints" : [ 227.5, 280.0, 325.0, 280.0, 325.0, 346.0, 420.5, 346.0 ]
								}

							}
, 							{
								"patchline" : 								{
									"source" : [ "obj-22", 0 ],
									"destination" : [ "obj-12", 0 ],
									"hidden" : 0,
									"midpoints" : [  ]
								}

							}
, 							{
								"patchline" : 								{
									"source" : [ "obj-20", 1 ],
									"destination" : [ "obj-12", 0 ],
									"hidden" : 0,
									"midpoints" : [ 256.5, 381.0, 420.0, 381.0 ]
								}

							}
, 							{
								"patchline" : 								{
									"source" : [ "obj-18", 1 ],
									"destination" : [ "obj-19", 0 ],
									"hidden" : 0,
									"midpoints" : [  ]
								}

							}
, 							{
								"patchline" : 								{
									"source" : [ "obj-19", 0 ],
									"destination" : [ "obj-22", 1 ],
									"hidden" : 0,
									"midpoints" : [  ]
								}

							}
, 							{
								"patchline" : 								{
									"source" : [ "obj-6", 0 ],
									"destination" : [ "obj-5", 0 ],
									"hidden" : 0,
									"midpoints" : [  ]
								}

							}
, 							{
								"patchline" : 								{
									"source" : [ "obj-5", 0 ],
									"destination" : [ "obj-7", 0 ],
									"hidden" : 0,
									"midpoints" : [  ]
								}

							}
, 							{
								"patchline" : 								{
									"source" : [ "obj-7", 0 ],
									"destination" : [ "obj-8", 0 ],
									"hidden" : 0,
									"midpoints" : [  ]
								}

							}
, 							{
								"patchline" : 								{
									"source" : [ "obj-5", 1 ],
									"destination" : [ "obj-7", 1 ],
									"hidden" : 0,
									"midpoints" : [  ]
								}

							}
 ]
					}
,
					"saved_object_attributes" : 					{
						"default_fontsize" : 12.0,
						"globalpatchername" : "",
						"fontface" : 0,
						"fontsize" : 12.0,
						"default_fontface" : 0,
						"fontname" : "Arial",
						"default_fontname" : "Arial"
					}

				}

			}
, 			{
				"box" : 				{
					"maxclass" : "toggle",
					"numinlets" : 1,
					"numoutlets" : 1,
					"outlettype" : [ "int" ],
					"patching_rect" : [ 634.0, 75.0, 22.0, 22.0 ],
					"id" : "obj-57"
				}

			}
, 			{
				"box" : 				{
					"maxclass" : "message",
					"text" : "readonly $1",
					"numinlets" : 2,
					"fontsize" : 9.0,
					"numoutlets" : 1,
					"hidden" : 1,
					"outlettype" : [ "" ],
					"patching_rect" : [ 564.0, 78.0, 62.0, 15.0 ],
					"id" : "obj-58",
					"fontname" : "Arial"
				}

			}
, 			{
				"box" : 				{
					"maxclass" : "comment",
					"text" : "Enter index + bang to delete preset",
					"linecount" : 2,
					"numinlets" : 1,
					"fontsize" : 9.0,
					"numoutlets" : 0,
					"patching_rect" : [ 513.0, 138.0, 89.0, 27.0 ],
					"id" : "obj-59",
					"fontname" : "Arial"
				}

			}
, 			{
				"box" : 				{
					"maxclass" : "button",
					"fgcolor" : [ 0.6, 0.6, 1.0, 1.0 ],
					"numinlets" : 1,
					"numoutlets" : 1,
					"outlettype" : [ "bang" ],
					"patching_rect" : [ 557.0, 163.0, 19.0, 19.0 ],
					"id" : "obj-60"
				}

			}
, 			{
				"box" : 				{
					"maxclass" : "number",
					"numinlets" : 1,
					"triscale" : 0.9,
					"fontsize" : 12.0,
					"numoutlets" : 2,
					"htextcolor" : [ 0.870588, 0.870588, 0.870588, 1.0 ],
					"outlettype" : [ "int", "bang" ],
					"patching_rect" : [ 513.0, 163.0, 45.0, 20.0 ],
					"textcolor" : [ 1.0, 1.0, 1.0, 1.0 ],
					"bgcolor" : [ 0.411765, 0.090196, 0.090196, 1.0 ],
					"id" : "obj-61",
					"fontname" : "Arial",
					"triangle" : 0
				}

			}
, 			{
				"box" : 				{
					"maxclass" : "newobj",
					"text" : "p recall_pr",
					"numinlets" : 3,
					"fontsize" : 9.0,
					"numoutlets" : 1,
					"hidden" : 1,
					"outlettype" : [ "" ],
					"patching_rect" : [ 710.0, 224.0, 60.0, 17.0 ],
					"id" : "obj-62",
					"fontname" : "Arial",
					"patcher" : 					{
						"fileversion" : 1,
						"rect" : [ 10.0, 59.0, 261.0, 215.0 ],
						"bglocked" : 0,
						"defrect" : [ 10.0, 59.0, 261.0, 215.0 ],
						"openrect" : [ 0.0, 0.0, 0.0, 0.0 ],
						"openinpresentation" : 0,
						"default_fontsize" : 12.0,
						"default_fontface" : 0,
						"default_fontname" : "Arial",
						"gridonopen" : 0,
						"gridsize" : [ 15.0, 15.0 ],
						"gridsnaponopen" : 0,
						"toolbarvisible" : 1,
						"boxanimatetime" : 200,
						"imprint" : 0,
						"enablehscroll" : 1,
						"enablevscroll" : 1,
						"devicewidth" : 0.0,
						"boxes" : [ 							{
								"box" : 								{
									"maxclass" : "newobj",
									"text" : "prepend recall",
									"numinlets" : 1,
									"fontsize" : 9.0,
									"numoutlets" : 1,
									"outlettype" : [ "" ],
									"patching_rect" : [ 50.0, 67.0, 74.0, 17.0 ],
									"id" : "obj-1",
									"fontname" : "Arial"
								}

							}
, 							{
								"box" : 								{
									"maxclass" : "newobj",
									"text" : "pak 0 0 0.",
									"numinlets" : 3,
									"fontsize" : 9.0,
									"numoutlets" : 1,
									"outlettype" : [ "" ],
									"patching_rect" : [ 50.0, 50.0, 55.0, 17.0 ],
									"id" : "obj-2",
									"fontname" : "Arial"
								}

							}
, 							{
								"box" : 								{
									"maxclass" : "inlet",
									"numinlets" : 0,
									"numoutlets" : 1,
									"outlettype" : [ "int" ],
									"patching_rect" : [ 50.0, 30.0, 15.0, 15.0 ],
									"id" : "obj-3",
									"comment" : ""
								}

							}
, 							{
								"box" : 								{
									"maxclass" : "inlet",
									"numinlets" : 0,
									"numoutlets" : 1,
									"outlettype" : [ "int" ],
									"patching_rect" : [ 72.0, 30.0, 15.0, 15.0 ],
									"id" : "obj-4",
									"comment" : ""
								}

							}
, 							{
								"box" : 								{
									"maxclass" : "inlet",
									"numinlets" : 0,
									"numoutlets" : 1,
									"outlettype" : [ "float" ],
									"patching_rect" : [ 94.0, 30.0, 15.0, 15.0 ],
									"id" : "obj-5",
									"comment" : ""
								}

							}
, 							{
								"box" : 								{
									"maxclass" : "outlet",
									"numinlets" : 1,
									"numoutlets" : 0,
									"patching_rect" : [ 50.0, 89.0, 15.0, 15.0 ],
									"id" : "obj-6",
									"comment" : ""
								}

							}
 ],
						"lines" : [ 							{
								"patchline" : 								{
									"source" : [ "obj-3", 0 ],
									"destination" : [ "obj-2", 0 ],
									"hidden" : 0,
									"midpoints" : [  ]
								}

							}
, 							{
								"patchline" : 								{
									"source" : [ "obj-2", 0 ],
									"destination" : [ "obj-1", 0 ],
									"hidden" : 0,
									"midpoints" : [  ]
								}

							}
, 							{
								"patchline" : 								{
									"source" : [ "obj-1", 0 ],
									"destination" : [ "obj-6", 0 ],
									"hidden" : 0,
									"midpoints" : [  ]
								}

							}
, 							{
								"patchline" : 								{
									"source" : [ "obj-4", 0 ],
									"destination" : [ "obj-2", 1 ],
									"hidden" : 0,
									"midpoints" : [  ]
								}

							}
, 							{
								"patchline" : 								{
									"source" : [ "obj-5", 0 ],
									"destination" : [ "obj-2", 2 ],
									"hidden" : 0,
									"midpoints" : [  ]
								}

							}
 ]
					}
,
					"saved_object_attributes" : 					{
						"default_fontsize" : 12.0,
						"globalpatchername" : "",
						"fontface" : 0,
						"fontsize" : 12.0,
						"default_fontface" : 0,
						"fontname" : "Arial",
						"default_fontname" : "Arial"
					}

				}

			}
, 			{
				"box" : 				{
					"maxclass" : "number",
					"numinlets" : 1,
					"triscale" : 0.9,
					"fontsize" : 12.0,
					"numoutlets" : 2,
					"htextcolor" : [ 0.870588, 0.870588, 0.870588, 1.0 ],
					"outlettype" : [ "int", "bang" ],
					"patching_rect" : [ 754.0, 202.0, 35.0, 20.0 ],
					"id" : "obj-63",
					"fontname" : "Arial",
					"triangle" : 0
				}

			}
, 			{
				"box" : 				{
					"maxclass" : "number",
					"numinlets" : 1,
					"triscale" : 0.9,
					"fontsize" : 12.0,
					"numoutlets" : 2,
					"htextcolor" : [ 0.870588, 0.870588, 0.870588, 1.0 ],
					"outlettype" : [ "int", "bang" ],
					"patching_rect" : [ 716.0, 202.0, 35.0, 20.0 ],
					"id" : "obj-64",
					"fontname" : "Arial",
					"triangle" : 0
				}

			}
, 			{
				"box" : 				{
					"maxclass" : "flonum",
					"maximum" : 1.0,
					"numinlets" : 1,
					"triscale" : 0.9,
					"fontsize" : 12.0,
					"numoutlets" : 2,
					"htextcolor" : [ 0.870588, 0.870588, 0.870588, 1.0 ],
					"outlettype" : [ "float", "bang" ],
					"patching_rect" : [ 792.0, 202.0, 50.0, 20.0 ],
					"minimum" : 0.0,
					"id" : "obj-65",
					"fontname" : "Arial"
				}

			}
, 			{
				"box" : 				{
					"maxclass" : "comment",
					"text" : "<-- Drag number box to interpolate",
					"linecount" : 2,
					"numinlets" : 1,
					"fontsize" : 9.0,
					"numoutlets" : 0,
					"patching_rect" : [ 767.0, 138.0, 87.0, 27.0 ],
					"id" : "obj-66",
					"fontname" : "Arial"
				}

			}
, 			{
				"box" : 				{
					"maxclass" : "comment",
					"text" : "Scroll to recall preset",
					"numinlets" : 1,
					"fontsize" : 9.0,
					"numoutlets" : 0,
					"patching_rect" : [ 741.0, 59.0, 112.0, 17.0 ],
					"id" : "obj-67",
					"fontname" : "Arial"
				}

			}
, 			{
				"box" : 				{
					"maxclass" : "flonum",
					"numinlets" : 1,
					"triscale" : 0.9,
					"fontsize" : 12.0,
					"numoutlets" : 2,
					"htextcolor" : [ 0.870588, 0.870588, 0.870588, 1.0 ],
					"outlettype" : [ "float", "bang" ],
					"patching_rect" : [ 716.0, 141.0, 47.0, 20.0 ],
					"minimum" : 1.0,
					"id" : "obj-68",
					"fontname" : "Arial"
				}

			}
, 			{
				"box" : 				{
					"maxclass" : "umenu",
					"numinlets" : 1,
					"fontsize" : 10.0,
					"numoutlets" : 3,
					"labelclick" : 1,
					"items" : [ "clientwindow", ",", "storagewindow", ",", "write" ],
					"types" : [  ],
					"outlettype" : [ "int", "", "" ],
					"patching_rect" : [ 513.0, 217.0, 122.0, 18.0 ],
					"id" : "obj-69",
					"fontname" : "Arial"
				}

			}
, 			{
				"box" : 				{
					"maxclass" : "textedit",
					"numinlets" : 1,
					"fontsize" : 12.0,
					"numoutlets" : 4,
					"outlettype" : [ "", "int", "", "" ],
					"patching_rect" : [ 513.0, 75.0, 120.0, 22.0 ],
					"keymode" : 1,
					"readonly" : 1,
					"id" : "obj-70",
					"fontname" : "Geneva"
				}

			}
, 			{
				"box" : 				{
					"maxclass" : "newobj",
					"varname" : "Impact_preset",
					"text" : "pattrstorage Impact_preset @savemode 1",
					"numinlets" : 1,
					"fontsize" : 9.0,
					"numoutlets" : 1,
					"outlettype" : [ "" ],
					"patching_rect" : [ 512.0, 242.0, 199.0, 17.0 ],
					"id" : "obj-71",
					"fontname" : "Arial",
					"autorestore" : "Impact_preset.xml",
					"saved_object_attributes" : 					{
						"paraminitmode" : 0,
						"client_rect" : [ 0, 0, 640, 240 ],
						"parameter_enable" : 0,
						"storage_rect" : [ 0, 0, 640, 240 ]
					}

				}

			}
, 			{
				"box" : 				{
					"maxclass" : "comment",
					"text" : "Pattrstorage menu",
					"numinlets" : 1,
					"fontsize" : 12.0,
					"numoutlets" : 0,
					"patching_rect" : [ 513.0, 201.0, 125.0, 20.0 ],
					"id" : "obj-72",
					"fontname" : "Arial"
				}

			}
, 			{
				"box" : 				{
					"maxclass" : "bpatcher",
					"varname" : "Impact_parameters",
					"name" : "01_IMP_Impact_parameters.maxpat",
					"numinlets" : 2,
					"numoutlets" : 3,
					"args" : [  ],
					"outlettype" : [ "", "", "" ],
					"patching_rect" : [ 287.0, 1.0, 192.0, 266.0 ],
					"id" : "obj-73"
				}

			}
, 			{
				"box" : 				{
					"maxclass" : "bpatcher",
					"varname" : "Resonator_control",
					"name" : "02_IMP_Resonator_control.maxpat",
					"numinlets" : 3,
					"numoutlets" : 5,
					"args" : [  ],
					"outlettype" : [ "", "", "", "", "" ],
					"patching_rect" : [ 1.0, 270.0, 886.0, 249.0 ],
					"id" : "obj-74"
				}

			}
, 			{
				"box" : 				{
					"maxclass" : "bpatcher",
					"varname" : "Hammer_control",
					"name" : "00_IMP_Hammer_control.maxpat",
					"numinlets" : 2,
					"numoutlets" : 4,
					"args" : [  ],
					"outlettype" : [ "", "float", "", "" ],
					"patching_rect" : [ 1.0, 1.0, 282.0, 266.0 ],
					"id" : "obj-75"
				}

			}
, 			{
				"box" : 				{
					"maxclass" : "comment",
					"text" : "timbral palette storage",
					"numinlets" : 1,
					"fontsize" : 12.0,
					"numoutlets" : 0,
					"patching_rect" : [ 596.0, 13.0, 160.0, 23.0 ],
					"id" : "obj-76",
					"fontname" : "Arial Black"
				}

			}
, 			{
				"box" : 				{
					"maxclass" : "panel",
					"numinlets" : 1,
					"numoutlets" : 0,
					"patching_rect" : [ 508.0, 35.0, 157.0, 74.0 ],
					"rounded" : 3,
					"border" : 1,
					"bgcolor" : [ 0.890196, 0.870588, 1.0, 1.0 ],
					"id" : "obj-77"
				}

			}
, 			{
				"box" : 				{
					"maxclass" : "comment",
					"text" : "Recall",
					"numinlets" : 1,
					"fontsize" : 9.0,
					"numoutlets" : 0,
					"patching_rect" : [ 759.0, 35.0, 39.0, 19.0 ],
					"id" : "obj-78",
					"fontname" : "Arial Black"
				}

			}
, 			{
				"box" : 				{
					"maxclass" : "panel",
					"numinlets" : 1,
					"numoutlets" : 0,
					"patching_rect" : [ 698.0, 35.0, 164.0, 74.0 ],
					"rounded" : 3,
					"border" : 1,
					"bgcolor" : [ 0.890196, 0.870588, 1.0, 1.0 ],
					"id" : "obj-79"
				}

			}
, 			{
				"box" : 				{
					"maxclass" : "panel",
					"numinlets" : 1,
					"numoutlets" : 0,
					"patching_rect" : [ 698.0, 118.0, 164.0, 120.0 ],
					"rounded" : 3,
					"border" : 1,
					"bgcolor" : [ 0.890196, 0.870588, 1.0, 1.0 ],
					"id" : "obj-80"
				}

			}
, 			{
				"box" : 				{
					"maxclass" : "comment",
					"text" : "Delete",
					"numinlets" : 1,
					"fontsize" : 9.0,
					"numoutlets" : 0,
					"patching_rect" : [ 569.0, 118.0, 41.0, 19.0 ],
					"id" : "obj-81",
					"fontname" : "Arial Black"
				}

			}
, 			{
				"box" : 				{
					"maxclass" : "panel",
					"numinlets" : 1,
					"numoutlets" : 0,
					"patching_rect" : [ 510.0, 118.0, 157.0, 74.0 ],
					"rounded" : 3,
					"border" : 1,
					"bgcolor" : [ 0.890196, 0.870588, 1.0, 1.0 ],
					"id" : "obj-82"
				}

			}
, 			{
				"box" : 				{
					"maxclass" : "panel",
					"numinlets" : 1,
					"numoutlets" : 0,
					"patching_rect" : [ 489.0, 2.0, 398.0, 265.0 ],
					"rounded" : 0,
					"bgcolor" : [ 0.890196, 0.870588, 1.0, 1.0 ],
					"id" : "obj-83"
				}

			}
 ],
		"lines" : [ 			{
				"patchline" : 				{
					"source" : [ "obj-75", 0 ],
					"destination" : [ "obj-34", 0 ],
					"hidden" : 1,
					"color" : [ 0.6667, 0.6667, 0.6667, 1.0 ],
					"midpoints" : [ 10.5, 268.0, -112.0, 268.0 ]
				}

			}
, 			{
				"patchline" : 				{
					"source" : [ "obj-75", 1 ],
					"destination" : [ "obj-33", 0 ],
					"hidden" : 1,
					"color" : [ 0.6667, 0.6667, 0.6667, 1.0 ],
					"midpoints" : [ 98.166664, 268.0, -93.0, 268.0 ]
				}

			}
, 			{
				"patchline" : 				{
					"source" : [ "obj-75", 2 ],
					"destination" : [ "obj-32", 0 ],
					"hidden" : 1,
					"color" : [ 0.6667, 0.6667, 0.6667, 1.0 ],
					"midpoints" : [ 185.833328, 268.0, -74.0, 268.0 ]
				}

			}
, 			{
				"patchline" : 				{
					"source" : [ "obj-75", 3 ],
					"destination" : [ "obj-31", 0 ],
					"hidden" : 1,
					"color" : [ 0.6667, 0.6667, 0.6667, 1.0 ],
					"midpoints" : [ 273.5, 268.0, -55.0, 268.0 ]
				}

			}
, 			{
				"patchline" : 				{
					"source" : [ "obj-73", 0 ],
					"destination" : [ "obj-30", 0 ],
					"hidden" : 1,
					"color" : [ 0.290196, 0.611765, 0.380392, 1.0 ],
					"midpoints" : [ 296.5, 269.0, -16.0, 269.0 ]
				}

			}
, 			{
				"patchline" : 				{
					"source" : [ "obj-73", 1 ],
					"destination" : [ "obj-29", 0 ],
					"hidden" : 1,
					"color" : [ 0.290196, 0.611765, 0.380392, 1.0 ],
					"midpoints" : [ 383.0, 269.0, -15.0, 269.0, -15.0, 544.0, 3.0, 544.0 ]
				}

			}
, 			{
				"patchline" : 				{
					"source" : [ "obj-44", 0 ],
					"destination" : [ "obj-75", 0 ],
					"hidden" : 1,
					"midpoints" : [ 906.0, -15.0, 10.5, -15.0 ]
				}

			}
, 			{
				"patchline" : 				{
					"source" : [ "obj-43", 0 ],
					"destination" : [ "obj-74", 0 ],
					"hidden" : 1,
					"midpoints" : [ 975.0, 271.0, 10.5, 271.0 ]
				}

			}
, 			{
				"patchline" : 				{
					"source" : [ "obj-73", 2 ],
					"destination" : [ "obj-28", 0 ],
					"hidden" : 1,
					"color" : [ 0.290196, 0.611765, 0.380392, 1.0 ],
					"midpoints" : [ 469.5, 269.0, -8.0, 269.0, -8.0, 544.0, 22.0, 544.0 ]
				}

			}
, 			{
				"patchline" : 				{
					"source" : [ "obj-10", 0 ],
					"destination" : [ "obj-11", 0 ],
					"hidden" : 1,
					"midpoints" : [  ]
				}

			}
, 			{
				"patchline" : 				{
					"source" : [ "obj-11", 0 ],
					"destination" : [ "obj-12", 0 ],
					"hidden" : 1,
					"midpoints" : [  ]
				}

			}
, 			{
				"patchline" : 				{
					"source" : [ "obj-9", 0 ],
					"destination" : [ "obj-12", 0 ],
					"hidden" : 1,
					"midpoints" : [  ]
				}

			}
, 			{
				"patchline" : 				{
					"source" : [ "obj-8", 0 ],
					"destination" : [ "obj-12", 0 ],
					"hidden" : 1,
					"midpoints" : [  ]
				}

			}
, 			{
				"patchline" : 				{
					"source" : [ "obj-10", 0 ],
					"destination" : [ "obj-8", 0 ],
					"hidden" : 1,
					"midpoints" : [  ]
				}

			}
, 			{
				"patchline" : 				{
					"source" : [ "obj-74", 0 ],
					"destination" : [ "obj-13", 0 ],
					"hidden" : 1,
					"color" : [ 0.6, 0.4, 0.6, 1.0 ],
					"midpoints" : [ 10.5, 539.0, 122.0, 539.0 ]
				}

			}
, 			{
				"patchline" : 				{
					"source" : [ "obj-74", 1 ],
					"destination" : [ "obj-21", 0 ],
					"hidden" : 1,
					"color" : [ 0.6, 0.4, 0.6, 1.0 ],
					"midpoints" : [ 227.25, 539.0, 138.0, 539.0 ]
				}

			}
, 			{
				"patchline" : 				{
					"source" : [ "obj-74", 2 ],
					"destination" : [ "obj-20", 0 ],
					"hidden" : 1,
					"color" : [ 0.6, 0.4, 0.6, 1.0 ],
					"midpoints" : [ 444.0, 539.0, 156.0, 539.0 ]
				}

			}
, 			{
				"patchline" : 				{
					"source" : [ "obj-74", 3 ],
					"destination" : [ "obj-19", 0 ],
					"hidden" : 1,
					"color" : [ 0.6, 0.4, 0.6, 1.0 ],
					"midpoints" : [ 660.75, 539.0, 174.0, 539.0 ]
				}

			}
, 			{
				"patchline" : 				{
					"source" : [ "obj-74", 4 ],
					"destination" : [ "obj-18", 0 ],
					"hidden" : 1,
					"color" : [ 0.6, 0.4, 0.6, 1.0 ],
					"midpoints" : [ 877.5, 539.0, 192.0, 539.0 ]
				}

			}
, 			{
				"patchline" : 				{
					"source" : [ "obj-46", 0 ],
					"destination" : [ "obj-75", 1 ],
					"hidden" : 1,
					"midpoints" : [ 923.0, -12.0, 273.5, -12.0 ]
				}

			}
, 			{
				"patchline" : 				{
					"source" : [ "obj-56", 0 ],
					"destination" : [ "obj-25", 0 ],
					"hidden" : 1,
					"color" : [ 1.0, 0.890196, 0.090196, 1.0 ],
					"midpoints" : [ 526.5, 549.0, 285.0, 549.0 ]
				}

			}
, 			{
				"patchline" : 				{
					"source" : [ "obj-45", 0 ],
					"destination" : [ "obj-73", 0 ],
					"hidden" : 1,
					"midpoints" : [ 940.0, -9.0, 296.5, -9.0 ]
				}

			}
, 			{
				"patchline" : 				{
					"source" : [ "obj-56", 1 ],
					"destination" : [ "obj-24", 0 ],
					"hidden" : 1,
					"color" : [ 1.0, 0.890196, 0.090196, 1.0 ],
					"midpoints" : [ 539.166687, 549.0, 305.0, 549.0 ]
				}

			}
, 			{
				"patchline" : 				{
					"source" : [ "obj-56", 3 ],
					"destination" : [ "obj-23", 0 ],
					"hidden" : 1,
					"color" : [ 1.0, 0.890196, 0.090196, 1.0 ],
					"midpoints" : [ 564.5, 549.0, 325.0, 549.0 ]
				}

			}
, 			{
				"patchline" : 				{
					"source" : [ "obj-51", 1 ],
					"destination" : [ "obj-15", 0 ],
					"hidden" : 1,
					"color" : [ 1.0, 0.890196, 0.090196, 1.0 ],
					"midpoints" : [ 741.0, 549.0, 346.0, 549.0 ]
				}

			}
, 			{
				"patchline" : 				{
					"source" : [ "obj-68", 0 ],
					"destination" : [ "obj-22", 0 ],
					"hidden" : 1,
					"color" : [ 1.0, 0.890196, 0.090196, 1.0 ],
					"midpoints" : [ 725.5, 549.0, 368.0, 549.0 ]
				}

			}
, 			{
				"patchline" : 				{
					"source" : [ "obj-42", 0 ],
					"destination" : [ "obj-74", 1 ],
					"hidden" : 1,
					"midpoints" : [ 992.0, 271.0, 444.0, 271.0 ]
				}

			}
, 			{
				"patchline" : 				{
					"source" : [ "obj-41", 0 ],
					"destination" : [ "obj-73", 1 ],
					"hidden" : 1,
					"midpoints" : [ 958.0, -6.0, 469.5, -6.0 ]
				}

			}
, 			{
				"patchline" : 				{
					"source" : [ "obj-6", 0 ],
					"destination" : [ "obj-71", 0 ],
					"hidden" : 1,
					"midpoints" : [ 1187.5, 29.0, 1171.0, 29.0, 1171.0, 147.0, 521.5, 147.0 ]
				}

			}
, 			{
				"patchline" : 				{
					"source" : [ "obj-56", 2 ],
					"destination" : [ "obj-71", 0 ],
					"hidden" : 1,
					"midpoints" : [ 551.833313, 238.0, 521.5, 238.0 ]
				}

			}
, 			{
				"patchline" : 				{
					"source" : [ "obj-50", 0 ],
					"destination" : [ "obj-71", 0 ],
					"hidden" : 1,
					"midpoints" : [ 724.5, 181.0, 669.0, 181.0, 669.0, 242.0, 521.5, 242.0 ]
				}

			}
, 			{
				"patchline" : 				{
					"source" : [ "obj-62", 0 ],
					"destination" : [ "obj-71", 0 ],
					"hidden" : 1,
					"midpoints" : [ 719.5, 240.0, 521.5, 240.0 ]
				}

			}
, 			{
				"patchline" : 				{
					"source" : [ "obj-69", 1 ],
					"destination" : [ "obj-71", 0 ],
					"hidden" : 1,
					"midpoints" : [ 574.0, 238.0, 521.5, 238.0 ]
				}

			}
, 			{
				"patchline" : 				{
					"source" : [ "obj-53", 0 ],
					"destination" : [ "obj-71", 0 ],
					"hidden" : 1,
					"midpoints" : [ 784.5, 240.0, 521.5, 240.0 ]
				}

			}
, 			{
				"patchline" : 				{
					"source" : [ "obj-16", 0 ],
					"destination" : [ "obj-71", 0 ],
					"hidden" : 1,
					"color" : [ 0.290196, 0.611765, 0.380392, 1.0 ],
					"midpoints" : [ 1064.0, 247.0, 521.5, 247.0 ]
				}

			}
, 			{
				"patchline" : 				{
					"source" : [ "obj-58", 0 ],
					"destination" : [ "obj-70", 0 ],
					"hidden" : 1,
					"midpoints" : [  ]
				}

			}
, 			{
				"patchline" : 				{
					"source" : [ "obj-56", 1 ],
					"destination" : [ "obj-70", 0 ],
					"hidden" : 1,
					"midpoints" : [  ]
				}

			}
, 			{
				"patchline" : 				{
					"source" : [ "obj-26", 0 ],
					"destination" : [ "obj-61", 0 ],
					"hidden" : 1,
					"color" : [ 0.8, 0.611765, 0.380392, 1.0 ],
					"midpoints" : [ 1095.5, 125.0, 522.5, 125.0 ]
				}

			}
, 			{
				"patchline" : 				{
					"source" : [ "obj-4", 0 ],
					"destination" : [ "obj-56", 0 ],
					"hidden" : 1,
					"midpoints" : [ 1187.5, 147.0, 526.5, 147.0 ]
				}

			}
, 			{
				"patchline" : 				{
					"source" : [ "obj-70", 0 ],
					"destination" : [ "obj-56", 1 ],
					"hidden" : 1,
					"midpoints" : [  ]
				}

			}
, 			{
				"patchline" : 				{
					"source" : [ "obj-40", 0 ],
					"destination" : [ "obj-56", 1 ],
					"hidden" : 1,
					"color" : [ 0.8, 0.611765, 0.380392, 1.0 ],
					"midpoints" : [ 1027.0, 43.0, 539.166687, 43.0 ]
				}

			}
, 			{
				"patchline" : 				{
					"source" : [ "obj-71", 0 ],
					"destination" : [ "obj-56", 2 ],
					"hidden" : 1,
					"midpoints" : [ 521.5, 262.0, 507.0, 262.0, 507.0, 212.0, 551.833313, 212.0 ]
				}

			}
, 			{
				"patchline" : 				{
					"source" : [ "obj-26", 1 ],
					"destination" : [ "obj-60", 0 ],
					"hidden" : 1,
					"color" : [ 0.8, 0.611765, 0.380392, 1.0 ],
					"midpoints" : [ 1122.0, 116.0, 1078.0, 116.0, 1078.0, 125.0, 566.5, 125.0 ]
				}

			}
, 			{
				"patchline" : 				{
					"source" : [ "obj-60", 0 ],
					"destination" : [ "obj-56", 3 ],
					"hidden" : 1,
					"midpoints" : [ 566.5, 201.0, 608.0, 201.0, 608.0, 215.0, 564.5, 215.0 ]
				}

			}
, 			{
				"patchline" : 				{
					"source" : [ "obj-61", 0 ],
					"destination" : [ "obj-56", 3 ],
					"hidden" : 1,
					"midpoints" : [ 522.5, 201.0, 608.0, 201.0, 608.0, 215.0, 564.5, 215.0 ]
				}

			}
, 			{
				"patchline" : 				{
					"source" : [ "obj-57", 0 ],
					"destination" : [ "obj-58", 0 ],
					"hidden" : 1,
					"midpoints" : [  ]
				}

			}
, 			{
				"patchline" : 				{
					"source" : [ "obj-14", 0 ],
					"destination" : [ "obj-57", 0 ],
					"hidden" : 1,
					"midpoints" : [  ]
				}

			}
, 			{
				"patchline" : 				{
					"source" : [ "obj-56", 0 ],
					"destination" : [ "obj-57", 0 ],
					"hidden" : 1,
					"midpoints" : [  ]
				}

			}
, 			{
				"patchline" : 				{
					"source" : [ "obj-1", 0 ],
					"destination" : [ "obj-52", 0 ],
					"hidden" : 1,
					"midpoints" : [ 905.5, 227.0, 941.0, 227.0, 941.0, 56.0, 713.5, 56.0 ]
				}

			}
, 			{
				"patchline" : 				{
					"source" : [ "obj-51", 0 ],
					"destination" : [ "obj-52", 0 ],
					"hidden" : 1,
					"midpoints" : [  ]
				}

			}
, 			{
				"patchline" : 				{
					"source" : [ "obj-55", 0 ],
					"destination" : [ "obj-51", 0 ],
					"hidden" : 1,
					"midpoints" : [  ]
				}

			}
, 			{
				"patchline" : 				{
					"source" : [ "obj-64", 0 ],
					"destination" : [ "obj-62", 0 ],
					"hidden" : 1,
					"midpoints" : [ 725.5, 223.0, 719.5, 223.0 ]
				}

			}
, 			{
				"patchline" : 				{
					"source" : [ "obj-68", 0 ],
					"destination" : [ "obj-50", 0 ],
					"hidden" : 1,
					"midpoints" : [  ]
				}

			}
, 			{
				"patchline" : 				{
					"source" : [ "obj-37", 0 ],
					"destination" : [ "obj-68", 0 ],
					"hidden" : 1,
					"color" : [ 0.8, 0.611765, 0.380392, 1.0 ],
					"midpoints" : [ 1133.0, 137.0, 725.5, 137.0 ]
				}

			}
, 			{
				"patchline" : 				{
					"source" : [ "obj-51", 1 ],
					"destination" : [ "obj-68", 0 ],
					"hidden" : 1,
					"midpoints" : [  ]
				}

			}
, 			{
				"patchline" : 				{
					"source" : [ "obj-35", 0 ],
					"destination" : [ "obj-64", 0 ],
					"hidden" : 1,
					"color" : [ 0.8, 0.611765, 0.380392, 1.0 ],
					"midpoints" : [ 1157.5, 198.0, 725.5, 198.0 ]
				}

			}
, 			{
				"patchline" : 				{
					"source" : [ "obj-1", 0 ],
					"destination" : [ "obj-55", 0 ],
					"hidden" : 1,
					"midpoints" : [ 905.5, 227.0, 941.0, 227.0, 941.0, 56.0, 741.5, 56.0 ]
				}

			}
, 			{
				"patchline" : 				{
					"source" : [ "obj-56", 3 ],
					"destination" : [ "obj-55", 0 ],
					"hidden" : 1,
					"color" : [ 1.0, 0.890196, 0.090196, 1.0 ],
					"midpoints" : [ 564.5, 242.0, 869.0, 242.0, 869.0, 50.0, 741.5, 50.0 ]
				}

			}
, 			{
				"patchline" : 				{
					"source" : [ "obj-51", 2 ],
					"destination" : [ "obj-55", 0 ],
					"hidden" : 1,
					"midpoints" : [  ]
				}

			}
, 			{
				"patchline" : 				{
					"source" : [ "obj-39", 0 ],
					"destination" : [ "obj-55", 0 ],
					"hidden" : 1,
					"color" : [ 0.8, 0.611765, 0.380392, 1.0 ],
					"midpoints" : [ 1044.0, 72.0, 741.5, 72.0 ]
				}

			}
, 			{
				"patchline" : 				{
					"source" : [ "obj-63", 0 ],
					"destination" : [ "obj-62", 1 ],
					"hidden" : 1,
					"midpoints" : [ 763.5, 223.0, 740.0, 223.0 ]
				}

			}
, 			{
				"patchline" : 				{
					"source" : [ "obj-35", 1 ],
					"destination" : [ "obj-63", 0 ],
					"hidden" : 1,
					"color" : [ 0.8, 0.611765, 0.380392, 1.0 ],
					"midpoints" : [ 1183.0, 198.0, 763.5, 198.0 ]
				}

			}
, 			{
				"patchline" : 				{
					"source" : [ "obj-65", 0 ],
					"destination" : [ "obj-62", 2 ],
					"hidden" : 1,
					"midpoints" : [ 801.5, 223.0, 760.5, 223.0 ]
				}

			}
, 			{
				"patchline" : 				{
					"source" : [ "obj-55", 0 ],
					"destination" : [ "obj-51", 1 ],
					"hidden" : 1,
					"midpoints" : [  ]
				}

			}
, 			{
				"patchline" : 				{
					"source" : [ "obj-35", 2 ],
					"destination" : [ "obj-65", 0 ],
					"hidden" : 1,
					"color" : [ 0.8, 0.611765, 0.380392, 1.0 ],
					"midpoints" : [ 1208.5, 198.0, 801.5, 198.0 ]
				}

			}
, 			{
				"patchline" : 				{
					"source" : [ "obj-38", 0 ],
					"destination" : [ "obj-74", 2 ],
					"hidden" : 1,
					"midpoints" : [ 1010.0, 271.0, 877.5, 271.0 ]
				}

			}
, 			{
				"patchline" : 				{
					"source" : [ "obj-68", 0 ],
					"destination" : [ "obj-2", 0 ],
					"hidden" : 1,
					"midpoints" : [ 725.5, 165.0, 905.5, 165.0 ]
				}

			}
, 			{
				"patchline" : 				{
					"source" : [ "obj-2", 0 ],
					"destination" : [ "obj-1", 0 ],
					"hidden" : 1,
					"midpoints" : [  ]
				}

			}
, 			{
				"patchline" : 				{
					"source" : [ "obj-27", 0 ],
					"destination" : [ "obj-26", 0 ],
					"hidden" : 1,
					"color" : [ 0.8, 0.611765, 0.380392, 1.0 ],
					"midpoints" : [  ]
				}

			}
, 			{
				"patchline" : 				{
					"source" : [ "obj-36", 0 ],
					"destination" : [ "obj-35", 0 ],
					"hidden" : 1,
					"color" : [ 0.8, 0.611765, 0.380392, 1.0 ],
					"midpoints" : [  ]
				}

			}
, 			{
				"patchline" : 				{
					"source" : [ "obj-7", 0 ],
					"destination" : [ "obj-6", 0 ],
					"hidden" : 0,
					"midpoints" : [  ]
				}

			}
, 			{
				"patchline" : 				{
					"source" : [ "obj-6", 0 ],
					"destination" : [ "obj-5", 0 ],
					"hidden" : 0,
					"midpoints" : [  ]
				}

			}
, 			{
				"patchline" : 				{
					"source" : [ "obj-3", 0 ],
					"destination" : [ "obj-5", 0 ],
					"hidden" : 1,
					"midpoints" : [  ]
				}

			}
, 			{
				"patchline" : 				{
					"source" : [ "obj-5", 0 ],
					"destination" : [ "obj-4", 0 ],
					"hidden" : 0,
					"midpoints" : [  ]
				}

			}
 ],
		"parameters" : 		{

		}

	}

}
