#N canvas 83 101 98 110 10;
#X obj 0 44 vline~;
#X obj 0 70 *~;
#X obj 0 0 inlet decay;
#X obj 0 92 outlet~;
#X msg 0 22 1 0 0 \, 0 \$1 0;
#X connect 0 0 1 0;
#X connect 0 0 1 1;
#X connect 1 0 3 0;
#X connect 2 0 4 0;
#X connect 4 0 0 0;
