#N canvas 0 0 450 300 10;
#X obj 121 230 *~;
#X obj 120 198 *~ 0.5;
#X obj 121 257 outlet~;
#X obj 127 158 A0-bell-oscillator;
#X obj 112 54 inlet f1 amp1 f2 amp2 f3 amp3 decay;
#X obj 112 84 unpack f f f f f f f;
#X obj 93 115 A0-bell-oscillator;
#X obj 110 137 A0-bell-oscillator;
#X obj 267 158 A1-bell-envelope;
#X connect 0 0 2 0;
#X connect 1 0 0 0;
#X connect 3 0 1 0;
#X connect 4 0 5 0;
#X connect 5 0 6 0;
#X connect 5 1 6 1;
#X connect 5 2 7 0;
#X connect 5 3 7 1;
#X connect 5 4 3 0;
#X connect 5 5 3 1;
#X connect 5 6 8 0;
#X connect 6 0 1 0;
#X connect 7 0 1 0;
#X connect 8 0 0 1;
