#N canvas 0 0 450 300 10;
#X obj 165 143 /;
#X obj 149 169 *;
#X obj 149 195 outlet scaled;
#X obj 181 118 \$1;
#X obj 153 119 \$2;
#X obj 127 96 t f b b;
#X obj 122 71 inlet val;
#X connect 0 0 1 1;
#X connect 1 0 2 0;
#X connect 3 0 0 1;
#X connect 4 0 0 0;
#X connect 5 0 1 0;
#X connect 5 1 4 0;
#X connect 5 2 3 0;
#X connect 6 0 5 0;
