#N canvas 405 467 327 304 10;
#X obj 77 230 dac~;
#X obj 78 202 *~ 0.25;
#X obj 78 24 t b b b b;
#X obj 78 2 bng 15 250 50 0 empty empty empty 0 -6 0 8 -262144 -1 -1
;
#X obj 6 149 voice1;
#X msg 155 117 1457 0.7 2200 3 2000;
#X msg 5 61 134 0.7 456 40 5000;
#X msg 55 80 932 0.3 1111 100 4000;
#X msg 106 99 698 0.5 210 2300 3000;
#X obj 55 149 voice1;
#X obj 155 149 voice1;
#X obj 106 149 voice1;
#X connect 1 0 0 0;
#X connect 1 0 0 1;
#X connect 2 0 6 0;
#X connect 2 1 7 0;
#X connect 2 2 8 0;
#X connect 2 3 5 0;
#X connect 3 0 2 0;
#X connect 4 0 1 0;
#X connect 5 0 10 0;
#X connect 6 0 4 0;
#X connect 7 0 9 0;
#X connect 8 0 11 0;
#X connect 9 0 1 0;
#X connect 10 0 1 0;
#X connect 11 0 1 0;
