#N canvas 0 0 148 268 10;
#X obj 7 64 osc~ \$1;
#X obj 86 64 osc~ \$2;
#X obj 44 240 outlet~;
#X obj 8 177 *~;
#X obj 69 178 *~;
#X obj 44 212 *~ 0.5;
#X obj 24 90 t f f;
#X obj 54 114 swap 1;
#X obj 54 139 -;
#X obj 7 8 inlet f1 a2 f2;
#X obj 7 36 unpack f f f;
#X connect 0 0 3 0;
#X connect 1 0 4 1;
#X connect 3 0 5 0;
#X connect 4 0 5 0;
#X connect 5 0 2 0;
#X connect 6 0 3 1;
#X connect 6 1 7 0;
#X connect 7 0 8 0;
#X connect 7 1 8 1;
#X connect 8 0 4 0;
#X connect 9 0 10 0;
#X connect 10 0 0 0;
#X connect 10 1 6 0;
#X connect 10 2 1 0;
