#N canvas 279 325 144 126 10;
#X obj 79 52 bellenv;
#X obj 0 84 *~;
#X obj 0 0 inlet freq amp decay;
#X obj 0 23 unpack f f f;
#X obj 0 108 outlet~;
#X obj 0 52 bellosc;
#X connect 0 0 1 1;
#X connect 1 0 4 0;
#X connect 2 0 3 0;
#X connect 3 0 5 0;
#X connect 3 1 5 1;
#X connect 3 2 0 0;
#X connect 5 0 1 0;
