#N canvas 0 0 142 190 10;
#X obj 29 93 envlp-ad;
#X obj 13 125 *~;
#X obj 13 10 inlet params;
#X obj 13 153 outlet~;
#X obj 13 36 list split 3;
#X obj 13 64 listosc2;
#X connect 0 0 1 1;
#X connect 1 0 3 0;
#X connect 2 0 4 0;
#X connect 4 0 5 0;
#X connect 4 1 0 0;
#X connect 5 0 1 0;
