#N canvas 110 146 124 282 10;
#X obj 13 79 vline~;
#X obj -2 152 *~;
#X obj -2 197 cos~;
#X obj -2 218 *~;
#X msg 13 59 1 \, 0 \$1 0;
#X obj 13 39 f \$1;
#X obj -2 104 *~ \$2;
#X obj -2 240 outlet~;
#X obj 13 -2 inlet;
#X obj 13 19 t b f;
#X obj -2 174 *~;
#X obj -2 127 *~ 0.5;
#X connect 0 0 3 1;
#X connect 0 0 6 0;
#X connect 1 0 10 0;
#X connect 2 0 3 0;
#X connect 3 0 7 0;
#X connect 4 0 0 0;
#X connect 5 0 4 0;
#X connect 6 0 11 0;
#X connect 8 0 9 0;
#X connect 9 0 5 0;
#X connect 9 1 10 1;
#X connect 10 0 2 0;
#X connect 11 0 1 0;
#X connect 11 0 1 1;
