#N canvas 81 52 213 279 10;
#X obj 14 220 dac~;
#X obj 15 191 *~ 0.4;
#X obj 15 169 randgate 3 0.0008;
#X obj 15 148 chplz;
#X obj 44 27 noise~;
#X obj 44 88 max~ 0;
#X obj 44 68 lop~ 0.1;
#X obj 44 47 lop~ 0.1;
#X obj 44 109 *~ 700;
#X obj 44 129 +~ 4;
#X obj 14 6 phasor~ -100;
#X connect 1 0 0 0;
#X connect 1 0 0 1;
#X connect 2 0 1 0;
#X connect 3 0 2 0;
#X connect 4 0 7 0;
#X connect 5 0 8 0;
#X connect 6 0 5 0;
#X connect 7 0 6 0;
#X connect 8 0 9 0;
#X connect 9 0 3 1;
#X connect 10 0 3 0;
