#N canvas 290 60 124 200 10;
#X obj 25 110 vline~;
#X obj 1 158 pow~;
#X obj 1 181 outlet~ signal;
#X obj 1 135 sig~ 2.71828;
#X msg 25 86 0 0 0 \, 1 \$1 0;
#X obj 48 41 f \$1;
#X obj 48 20 loadbang;
#X obj 25 -1 inlet trigger;
#X obj 25 64 f 10;
#X connect 0 0 1 1;
#X connect 1 0 2 0;
#X connect 3 0 1 0;
#X connect 4 0 0 0;
#X connect 5 0 8 1;
#X connect 6 0 5 0;
#X connect 7 0 8 0;
#X connect 8 0 4 0;
