#N canvas 0 0 122 152 10;
#X obj 23 64 vline~;
#X obj -1 108 pow~;
#X obj -1 131 outlet~ signal;
#X obj -1 85 sig~ 2.71828;
#X obj 23 -3 inlet trigger;
#X obj 23 18 f \$1;
#X msg 23 40 1 1 0 \, 0 \$1 1;
#X connect 0 0 1 1;
#X connect 1 0 2 0;
#X connect 3 0 1 0;
#X connect 4 0 5 0;
#X connect 5 0 6 0;
#X connect 6 0 0 0;
