#N canvas 0 0 846 579 10;
#X obj 245 161 expdec~ 300;
#X obj 230 261 *~;
#X obj 230 228 *~ 0.5;
#X obj 165 392 dac~;
#X obj 245 32 bng 15 250 50 0 empty empty empty 0 -6 0 8 -262144 -1
-1;
#X obj 349 145 expdec~ 300;
#X obj 365 166 noise~;
#X obj 349 260 *~;
#X obj 231 295 +~;
#X obj 349 96 del 310;
#X obj 140 212 osc~;
#X obj 139 187 +~ 100;
#X obj 141 240 *~;
#X obj 214 337 +~;
#X obj 245 97 del 310;
#X obj 139 137 expdec~ 300;
#X obj 197 188 osc~ 3000;
#X obj 272 188 osc~ 4000;
#X obj 275 473 writesf~;
#X msg 289 389 bang;
#X msg 326 444 start;
#X msg 289 444 stop;
#X obj 289 365 del 20;
#X obj 281 320 t b b;
#X obj 245 65 t b b;
#X msg 311 344 open ./out.wav;
#X obj 138 162 *~ 2000;
#X obj 365 186 hip~ 1000;
#X obj 365 208 hip~ 1000;
#X obj 444 144 expdec~ 300;
#X obj 444 95 del 310;
#X obj 463 238 vcf~ 1 1;
#X obj 447 267 *~;
#X obj 289 420 del 1300;
#X msg 530 172 20;
#X obj 365 230 hip~ 1000;
#X obj 460 201 +~ 100;
#X obj 470 168 *~ 3000;
#X obj 449 295 *~ 4;
#X connect 0 0 1 1;
#X connect 1 0 8 0;
#X connect 2 0 1 0;
#X connect 4 0 24 0;
#X connect 5 0 7 0;
#X connect 6 0 27 0;
#X connect 6 0 31 0;
#X connect 7 0 8 1;
#X connect 8 0 13 1;
#X connect 9 0 5 0;
#X connect 9 0 30 0;
#X connect 10 0 12 0;
#X connect 11 0 10 0;
#X connect 12 0 13 0;
#X connect 13 0 3 0;
#X connect 13 0 3 1;
#X connect 13 0 18 0;
#X connect 14 0 9 0;
#X connect 14 0 0 0;
#X connect 15 0 12 1;
#X connect 15 0 26 0;
#X connect 16 0 2 0;
#X connect 17 0 2 0;
#X connect 19 0 20 0;
#X connect 19 0 33 0;
#X connect 20 0 18 0;
#X connect 21 0 18 0;
#X connect 22 0 19 0;
#X connect 23 0 22 0;
#X connect 23 1 25 0;
#X connect 24 0 14 0;
#X connect 24 0 15 0;
#X connect 24 1 23 0;
#X connect 25 0 18 0;
#X connect 26 0 11 0;
#X connect 27 0 28 0;
#X connect 28 0 35 0;
#X connect 29 0 32 0;
#X connect 29 0 37 0;
#X connect 30 0 29 0;
#X connect 31 0 32 1;
#X connect 32 0 38 0;
#X connect 33 0 21 0;
#X connect 34 0 31 2;
#X connect 35 0 7 1;
#X connect 36 0 31 1;
#X connect 37 0 36 0;
#X connect 38 0 8 1;
