{
	"patcher" : 	{
		"fileversion" : 1,
		"rect" : [ 404.0, 227.0, 408.0, 471.0 ],
		"bglocked" : 0,
		"defrect" : [ 404.0, 227.0, 408.0, 471.0 ],
		"openrect" : [ 0.0, 0.0, 0.0, 0.0 ],
		"openinpresentation" : 0,
		"default_fontsize" : 9.0,
		"default_fontface" : 0,
		"default_fontname" : "Arial",
		"gridonopen" : 0,
		"gridsize" : [ 15.0, 15.0 ],
		"gridsnaponopen" : 0,
		"toolbarvisible" : 1,
		"boxanimatetime" : 200,
		"imprint" : 0,
		"enablehscroll" : 1,
		"enablevscroll" : 1,
		"devicewidth" : 0.0,
		"boxes" : [ 			{
				"box" : 				{
					"maxclass" : "newobj",
					"text" : "t b f b",
					"id" : "obj-1",
					"fontname" : "Arial",
					"numinlets" : 1,
					"patching_rect" : [ 38.0, 245.0, 44.0, 17.0 ],
					"numoutlets" : 3,
					"fontsize" : 9.0,
					"outlettype" : [ "bang", "float", "bang" ]
				}

			}
, 			{
				"box" : 				{
					"maxclass" : "newobj",
					"text" : "t f f",
					"id" : "obj-2",
					"fontname" : "Arial",
					"numinlets" : 1,
					"patching_rect" : [ 40.0, 53.0, 34.0, 17.0 ],
					"numoutlets" : 2,
					"fontsize" : 9.0,
					"outlettype" : [ "float", "float" ]
				}

			}
, 			{
				"box" : 				{
					"maxclass" : "newobj",
					"text" : "* #6",
					"id" : "obj-3",
					"fontname" : "Arial",
					"numinlets" : 2,
					"patching_rect" : [ 349.0, 106.0, 27.0, 17.0 ],
					"numoutlets" : 1,
					"fontsize" : 9.0,
					"outlettype" : [ "int" ]
				}

			}
, 			{
				"box" : 				{
					"maxclass" : "newobj",
					"text" : "* #4",
					"id" : "obj-4",
					"fontname" : "Arial",
					"numinlets" : 2,
					"patching_rect" : [ 242.0, 106.0, 27.0, 17.0 ],
					"numoutlets" : 1,
					"fontsize" : 9.0,
					"outlettype" : [ "int" ]
				}

			}
, 			{
				"box" : 				{
					"maxclass" : "newobj",
					"text" : "* #2",
					"id" : "obj-5",
					"fontname" : "Arial",
					"numinlets" : 2,
					"patching_rect" : [ 135.0, 106.0, 27.0, 17.0 ],
					"numoutlets" : 1,
					"fontsize" : 9.0,
					"outlettype" : [ "int" ]
				}

			}
, 			{
				"box" : 				{
					"maxclass" : "newobj",
					"text" : "maximum 0.01",
					"linecount" : 2,
					"id" : "obj-6",
					"fontname" : "Arial",
					"numinlets" : 2,
					"patching_rect" : [ 226.0, 151.0, 46.0, 27.0 ],
					"numoutlets" : 2,
					"fontsize" : 9.0,
					"outlettype" : [ "float", "int" ]
				}

			}
, 			{
				"box" : 				{
					"maxclass" : "newobj",
					"text" : "maximum 0.01",
					"linecount" : 2,
					"id" : "obj-7",
					"fontname" : "Arial",
					"numinlets" : 2,
					"patching_rect" : [ 119.0, 151.0, 47.0, 27.0 ],
					"numoutlets" : 2,
					"fontsize" : 9.0,
					"outlettype" : [ "float", "int" ]
				}

			}
, 			{
				"box" : 				{
					"maxclass" : "newobj",
					"text" : "float #6",
					"id" : "obj-8",
					"fontname" : "Arial",
					"numinlets" : 2,
					"patching_rect" : [ 243.0, 279.0, 40.0, 17.0 ],
					"numoutlets" : 1,
					"fontsize" : 9.0,
					"outlettype" : [ "float" ]
				}

			}
, 			{
				"box" : 				{
					"maxclass" : "newobj",
					"text" : "float #5",
					"id" : "obj-9",
					"fontname" : "Arial",
					"numinlets" : 2,
					"patching_rect" : [ 286.0, 279.0, 40.0, 17.0 ],
					"numoutlets" : 1,
					"fontsize" : 9.0,
					"outlettype" : [ "float" ]
				}

			}
, 			{
				"box" : 				{
					"maxclass" : "newobj",
					"text" : "float #4",
					"id" : "obj-10",
					"fontname" : "Arial",
					"numinlets" : 2,
					"patching_rect" : [ 136.0, 279.0, 40.0, 17.0 ],
					"numoutlets" : 1,
					"fontsize" : 9.0,
					"outlettype" : [ "float" ]
				}

			}
, 			{
				"box" : 				{
					"maxclass" : "newobj",
					"text" : "float #3",
					"id" : "obj-11",
					"fontname" : "Arial",
					"numinlets" : 2,
					"patching_rect" : [ 179.0, 279.0, 40.0, 17.0 ],
					"numoutlets" : 1,
					"fontsize" : 9.0,
					"outlettype" : [ "float" ]
				}

			}
, 			{
				"box" : 				{
					"maxclass" : "newobj",
					"text" : "delay #3",
					"id" : "obj-12",
					"fontname" : "Arial",
					"numinlets" : 2,
					"patching_rect" : [ 226.0, 192.0, 44.0, 17.0 ],
					"numoutlets" : 1,
					"fontsize" : 9.0,
					"outlettype" : [ "bang" ]
				}

			}
, 			{
				"box" : 				{
					"maxclass" : "newobj",
					"text" : "t b b b",
					"id" : "obj-13",
					"fontname" : "Arial",
					"numinlets" : 1,
					"patching_rect" : [ 226.0, 245.0, 44.0, 17.0 ],
					"numoutlets" : 3,
					"fontsize" : 9.0,
					"outlettype" : [ "bang", "bang", "bang" ]
				}

			}
, 			{
				"box" : 				{
					"maxclass" : "inlet",
					"id" : "obj-14",
					"numinlets" : 0,
					"patching_rect" : [ 366.0, 22.0, 15.0, 15.0 ],
					"numoutlets" : 1,
					"outlettype" : [ "" ],
					"comment" : ""
				}

			}
, 			{
				"box" : 				{
					"maxclass" : "inlet",
					"id" : "obj-15",
					"numinlets" : 0,
					"patching_rect" : [ 316.0, 22.0, 15.0, 15.0 ],
					"numoutlets" : 1,
					"outlettype" : [ "" ],
					"comment" : ""
				}

			}
, 			{
				"box" : 				{
					"maxclass" : "newobj",
					"text" : "t b b b",
					"id" : "obj-16",
					"fontname" : "Arial",
					"numinlets" : 1,
					"patching_rect" : [ 119.0, 245.0, 44.0, 17.0 ],
					"numoutlets" : 3,
					"fontsize" : 9.0,
					"outlettype" : [ "bang", "bang", "bang" ]
				}

			}
, 			{
				"box" : 				{
					"maxclass" : "inlet",
					"id" : "obj-17",
					"numinlets" : 0,
					"patching_rect" : [ 259.0, 22.0, 15.0, 15.0 ],
					"numoutlets" : 1,
					"outlettype" : [ "" ],
					"comment" : ""
				}

			}
, 			{
				"box" : 				{
					"maxclass" : "inlet",
					"id" : "obj-18",
					"numinlets" : 0,
					"patching_rect" : [ 209.0, 22.0, 15.0, 15.0 ],
					"numoutlets" : 1,
					"outlettype" : [ "" ],
					"comment" : ""
				}

			}
, 			{
				"box" : 				{
					"maxclass" : "newobj",
					"text" : "delay #1",
					"id" : "obj-19",
					"fontname" : "Arial",
					"numinlets" : 2,
					"patching_rect" : [ 119.0, 192.0, 44.0, 17.0 ],
					"numoutlets" : 1,
					"fontsize" : 9.0,
					"outlettype" : [ "bang" ]
				}

			}
, 			{
				"box" : 				{
					"maxclass" : "newobj",
					"text" : "float #1",
					"id" : "obj-20",
					"fontname" : "Arial",
					"numinlets" : 2,
					"patching_rect" : [ 72.0, 279.0, 40.0, 17.0 ],
					"numoutlets" : 1,
					"fontsize" : 9.0,
					"outlettype" : [ "float" ]
				}

			}
, 			{
				"box" : 				{
					"maxclass" : "inlet",
					"id" : "obj-21",
					"numinlets" : 0,
					"patching_rect" : [ 152.0, 22.0, 15.0, 15.0 ],
					"numoutlets" : 1,
					"outlettype" : [ "" ],
					"comment" : ""
				}

			}
, 			{
				"box" : 				{
					"maxclass" : "inlet",
					"id" : "obj-22",
					"numinlets" : 0,
					"patching_rect" : [ 102.0, 22.0, 15.0, 15.0 ],
					"numoutlets" : 1,
					"outlettype" : [ "" ],
					"comment" : ""
				}

			}
, 			{
				"box" : 				{
					"maxclass" : "inlet",
					"id" : "obj-23",
					"numinlets" : 0,
					"patching_rect" : [ 40.0, 22.0, 15.0, 15.0 ],
					"numoutlets" : 1,
					"outlettype" : [ "" ],
					"comment" : ""
				}

			}
, 			{
				"box" : 				{
					"maxclass" : "outlet",
					"id" : "obj-24",
					"numinlets" : 1,
					"patching_rect" : [ 55.0, 401.0, 15.0, 15.0 ],
					"numoutlets" : 0,
					"comment" : ""
				}

			}
, 			{
				"box" : 				{
					"maxclass" : "newobj",
					"text" : "line~",
					"id" : "obj-25",
					"fontname" : "Arial",
					"numinlets" : 2,
					"patching_rect" : [ 55.0, 373.0, 34.0, 17.0 ],
					"numoutlets" : 2,
					"fontsize" : 9.0,
					"outlettype" : [ "signal", "bang" ]
				}

			}
 ],
		"lines" : [ 			{
				"patchline" : 				{
					"source" : [ "obj-14", 0 ],
					"destination" : [ "obj-3", 1 ],
					"hidden" : 0,
					"midpoints" : [  ]
				}

			}
, 			{
				"patchline" : 				{
					"source" : [ "obj-2", 1 ],
					"destination" : [ "obj-3", 0 ],
					"hidden" : 0,
					"color" : [ 1.0, 0.741176, 0.611765, 1.0 ],
					"midpoints" : [ 64.5, 93.0, 358.5, 93.0 ]
				}

			}
, 			{
				"patchline" : 				{
					"source" : [ "obj-15", 0 ],
					"destination" : [ "obj-9", 1 ],
					"hidden" : 0,
					"midpoints" : [  ]
				}

			}
, 			{
				"patchline" : 				{
					"source" : [ "obj-13", 2 ],
					"destination" : [ "obj-9", 0 ],
					"hidden" : 0,
					"midpoints" : [ 260.5, 268.0, 295.5, 268.0 ]
				}

			}
, 			{
				"patchline" : 				{
					"source" : [ "obj-3", 0 ],
					"destination" : [ "obj-8", 1 ],
					"hidden" : 0,
					"color" : [ 1.0, 0.890196, 0.090196, 1.0 ],
					"midpoints" : [ 358.5, 134.0, 273.5, 134.0 ]
				}

			}
, 			{
				"patchline" : 				{
					"source" : [ "obj-6", 0 ],
					"destination" : [ "obj-12", 1 ],
					"hidden" : 0,
					"midpoints" : [  ]
				}

			}
, 			{
				"patchline" : 				{
					"source" : [ "obj-17", 0 ],
					"destination" : [ "obj-4", 1 ],
					"hidden" : 0,
					"midpoints" : [  ]
				}

			}
, 			{
				"patchline" : 				{
					"source" : [ "obj-13", 1 ],
					"destination" : [ "obj-8", 0 ],
					"hidden" : 0,
					"midpoints" : [  ]
				}

			}
, 			{
				"patchline" : 				{
					"source" : [ "obj-2", 1 ],
					"destination" : [ "obj-4", 0 ],
					"hidden" : 0,
					"color" : [ 1.0, 0.741176, 0.611765, 1.0 ],
					"midpoints" : [ 64.5, 93.0, 251.5, 93.0 ]
				}

			}
, 			{
				"patchline" : 				{
					"source" : [ "obj-12", 0 ],
					"destination" : [ "obj-13", 0 ],
					"hidden" : 0,
					"midpoints" : [  ]
				}

			}
, 			{
				"patchline" : 				{
					"source" : [ "obj-16", 0 ],
					"destination" : [ "obj-12", 0 ],
					"hidden" : 0,
					"midpoints" : [  ]
				}

			}
, 			{
				"patchline" : 				{
					"source" : [ "obj-18", 0 ],
					"destination" : [ "obj-6", 0 ],
					"hidden" : 0,
					"midpoints" : [ 218.0, 146.0, 235.5, 146.0 ]
				}

			}
, 			{
				"patchline" : 				{
					"source" : [ "obj-18", 0 ],
					"destination" : [ "obj-11", 1 ],
					"hidden" : 0,
					"midpoints" : [  ]
				}

			}
, 			{
				"patchline" : 				{
					"source" : [ "obj-16", 2 ],
					"destination" : [ "obj-11", 0 ],
					"hidden" : 0,
					"midpoints" : [ 153.5, 268.0, 188.5, 268.0 ]
				}

			}
, 			{
				"patchline" : 				{
					"source" : [ "obj-4", 0 ],
					"destination" : [ "obj-10", 1 ],
					"hidden" : 0,
					"color" : [ 1.0, 0.890196, 0.090196, 1.0 ],
					"midpoints" : [ 251.5, 135.0, 166.5, 135.0 ]
				}

			}
, 			{
				"patchline" : 				{
					"source" : [ "obj-7", 0 ],
					"destination" : [ "obj-19", 1 ],
					"hidden" : 0,
					"midpoints" : [  ]
				}

			}
, 			{
				"patchline" : 				{
					"source" : [ "obj-21", 0 ],
					"destination" : [ "obj-5", 1 ],
					"hidden" : 0,
					"midpoints" : [  ]
				}

			}
, 			{
				"patchline" : 				{
					"source" : [ "obj-16", 1 ],
					"destination" : [ "obj-10", 0 ],
					"hidden" : 0,
					"midpoints" : [  ]
				}

			}
, 			{
				"patchline" : 				{
					"source" : [ "obj-2", 0 ],
					"destination" : [ "obj-5", 0 ],
					"hidden" : 0,
					"color" : [ 0.8, 0.54902, 0.54902, 1.0 ],
					"midpoints" : [ 49.5, 102.0, 144.5, 102.0 ]
				}

			}
, 			{
				"patchline" : 				{
					"source" : [ "obj-19", 0 ],
					"destination" : [ "obj-16", 0 ],
					"hidden" : 0,
					"midpoints" : [  ]
				}

			}
, 			{
				"patchline" : 				{
					"source" : [ "obj-1", 0 ],
					"destination" : [ "obj-19", 0 ],
					"hidden" : 0,
					"midpoints" : [  ]
				}

			}
, 			{
				"patchline" : 				{
					"source" : [ "obj-22", 0 ],
					"destination" : [ "obj-7", 0 ],
					"hidden" : 0,
					"midpoints" : [ 111.0, 146.0, 128.5, 146.0 ]
				}

			}
, 			{
				"patchline" : 				{
					"source" : [ "obj-22", 0 ],
					"destination" : [ "obj-20", 1 ],
					"hidden" : 0,
					"midpoints" : [  ]
				}

			}
, 			{
				"patchline" : 				{
					"source" : [ "obj-20", 0 ],
					"destination" : [ "obj-25", 1 ],
					"hidden" : 0,
					"color" : [ 1.0, 0.541176, 0.843137, 1.0 ],
					"midpoints" : [ 81.5, 359.0, 79.5, 359.0 ]
				}

			}
, 			{
				"patchline" : 				{
					"source" : [ "obj-11", 0 ],
					"destination" : [ "obj-25", 1 ],
					"hidden" : 0,
					"color" : [ 1.0, 0.541176, 0.843137, 1.0 ],
					"midpoints" : [ 188.5, 359.0, 79.5, 359.0 ]
				}

			}
, 			{
				"patchline" : 				{
					"source" : [ "obj-9", 0 ],
					"destination" : [ "obj-25", 1 ],
					"hidden" : 0,
					"color" : [ 1.0, 0.541176, 0.843137, 1.0 ],
					"midpoints" : [ 295.5, 359.0, 79.5, 359.0 ]
				}

			}
, 			{
				"patchline" : 				{
					"source" : [ "obj-1", 2 ],
					"destination" : [ "obj-20", 0 ],
					"hidden" : 0,
					"midpoints" : [  ]
				}

			}
, 			{
				"patchline" : 				{
					"source" : [ "obj-25", 0 ],
					"destination" : [ "obj-24", 0 ],
					"hidden" : 0,
					"midpoints" : [  ]
				}

			}
, 			{
				"patchline" : 				{
					"source" : [ "obj-1", 1 ],
					"destination" : [ "obj-25", 0 ],
					"hidden" : 0,
					"midpoints" : [  ]
				}

			}
, 			{
				"patchline" : 				{
					"source" : [ "obj-8", 0 ],
					"destination" : [ "obj-25", 0 ],
					"hidden" : 0,
					"midpoints" : [ 252.5, 342.0, 64.5, 342.0 ]
				}

			}
, 			{
				"patchline" : 				{
					"source" : [ "obj-10", 0 ],
					"destination" : [ "obj-25", 0 ],
					"hidden" : 0,
					"midpoints" : [ 145.5, 342.0, 64.5, 342.0 ]
				}

			}
, 			{
				"patchline" : 				{
					"source" : [ "obj-23", 0 ],
					"destination" : [ "obj-2", 0 ],
					"hidden" : 0,
					"midpoints" : [  ]
				}

			}
, 			{
				"patchline" : 				{
					"source" : [ "obj-5", 0 ],
					"destination" : [ "obj-1", 0 ],
					"hidden" : 0,
					"color" : [ 1.0, 0.890196, 0.090196, 1.0 ],
					"midpoints" : [ 144.5, 135.0, 47.5, 135.0 ]
				}

			}
 ]
	}

}
