#N canvas 239 226 112 213 10;
#X obj -4 170 *~;
#X obj -4 82 vline~;
#X obj -4 104 *~;
#X obj 12 126 noise~;
#X obj -4 -4 inlet;
#X msg -4 60 1 \$1 0 \, 0 \$2 \$1;
#X obj -4 16 t b;
#X obj -4 39 pack \$1 \$2;
#X obj -4 191 outlet~;
#X obj 12 148 bp~ \$3 8;
#X connect 0 0 8 0;
#X connect 1 0 2 0;
#X connect 1 0 2 1;
#X connect 2 0 0 0;
#X connect 3 0 9 0;
#X connect 4 0 6 0;
#X connect 5 0 1 0;
#X connect 6 0 7 0;
#X connect 7 0 5 0;
#X connect 9 0 0 1;
