#N canvas 177 238 343 262 10;
#X obj 0 0 bng 15 250 50 0 empty empty empty 0 -6 0 8 -262144 -1 -1
;
#X obj 222 235 dac~;
#X obj 0 19 t b b b b;
#X obj 38 81 del 30;
#X obj 19 182 throw~ body;
#X obj 0 244 throw~ body;
#X obj 38 121 throw~ body;
#X obj 58 60 throw~ body;
#X obj 221 55 catch~ body;
#X obj 239 76 r~ bodyfb;
#X obj 235 188 s~ bodyfb;
#X obj 221 98 delwrite~ body 50;
#X obj 221 118 delread~ body 50;
#X obj 235 168 bp~ 700 3;
#X obj 221 142 *~ 0.1;
#X obj 0 203 del 150;
#X obj 19 142 del 140;
#X obj 221 209 *~ 10;
#X obj 38 101 switchclick 1 50 3000;
#X obj 19 162 switchclick 1 20 4000;
#X obj 58 40 switchclick 1 20 4000;
#X obj 0 224 switchclick 1 20 7000;
#X connect 0 0 2 0;
#X connect 2 0 15 0;
#X connect 2 1 16 0;
#X connect 2 2 3 0;
#X connect 2 3 20 0;
#X connect 3 0 18 0;
#X connect 8 0 11 0;
#X connect 9 0 11 0;
#X connect 12 0 14 0;
#X connect 13 0 10 0;
#X connect 14 0 13 0;
#X connect 14 0 17 0;
#X connect 15 0 21 0;
#X connect 16 0 19 0;
#X connect 17 0 1 0;
#X connect 17 0 1 1;
#X connect 18 0 6 0;
#X connect 19 0 4 0;
#X connect 20 0 7 0;
#X connect 21 0 5 0;
