#N canvas 0 0 665 544 10;
#X obj 176 343 vline~;
#X obj 190 269 pack f f;
#X obj 241 244 + 1;
#X msg 176 314 1 1 0 \, -1 \$1 1 \, 0 1 \$2;
#X obj 174 392 outlet~;
#X obj 211 190 inlet;
#X obj 175 368 *~;
#X obj 211 217 t f f f;
#X obj 294 256 / 100;
#X obj 299 213 swap 100;
#X obj 300 235 -;
#X connect 0 0 6 0;
#X connect 1 0 3 0;
#X connect 2 0 1 1;
#X connect 3 0 0 0;
#X connect 5 0 7 0;
#X connect 6 0 4 0;
#X connect 7 0 1 0;
#X connect 7 1 2 0;
#X connect 7 2 9 0;
#X connect 8 0 6 1;
#X connect 9 0 10 0;
#X connect 9 1 10 1;
#X connect 10 0 8 0;
