#N canvas 310 699 519 114 10;
#X obj 92 83 dac~;
#X obj 323 38 s~ udly;
#N canvas 265 516 939 349 box 0;
#X obj 492 51 switch~;
#X obj 491 29 inlet;
#X obj 99 46 udly 3000;
#X obj 109 56 udly 3000;
#X obj 119 66 udly 3000;
#X obj 129 76 udly 3000;
#X obj 139 86 udly 3000;
#X obj 149 96 udly 3000;
#X obj 159 106 udly 3000;
#X obj 171 122 udly 3000;
#X obj 183 43 udly 3000;
#X obj 193 53 udly 3000;
#X obj 203 63 udly 3000;
#X obj 213 73 udly 3000;
#X obj 223 83 udly 3000;
#X obj 233 93 udly 3000;
#X obj 243 103 udly 3000;
#X obj 253 113 udly 3000;
#X obj 270 37 udly 3000;
#X obj 280 47 udly 3000;
#X obj 290 57 udly 3000;
#X obj 300 67 udly 3000;
#X obj 310 77 udly 3000;
#X obj 320 87 udly 3000;
#X obj 330 97 udly 3000;
#X obj 340 107 udly 3000;
#X connect 1 0 0 0;
#X restore 204 38 pd box of delays;
#X obj 61 36 catch~ la;
#X obj 132 35 catch~ ra;
#X obj 204 18 tgl 15 0 empty empty empty 0 -6 0 8 -262144 -1 -1 0 1
;
#X obj 235 9 r delayoff;
#X obj 398 54 s shake;
#X obj 399 34 bng 15 250 50 0 empty empty empty 0 -6 0 8 -262144 -1
-1;
#X obj 323 16 catch~ verbo;
#X connect 3 0 0 0;
#X connect 4 0 0 1;
#X connect 5 0 2 0;
#X connect 6 0 5 0;
#X connect 8 0 7 0;
#X connect 9 0 1 0;
