#N canvas 0 0 425 584 10;
#X obj 96 105 noise~;
#X obj 115 314 -~ 0.5;
#X obj 114 338 *~;
#X obj 113 361 *~ -4;
#X obj 112 386 +~ 1;
#X obj 112 408 *~ 0.5;
#X obj 155 15 noise~;
#X obj 156 83 max~ 0;
#X obj 98 172 samphold~;
#X msg 938 99 0.54;
#X obj 156 147 phasor~;
#X obj 156 105 *~ 3000;
#X obj 97 431 *~;
#X obj 98 454 hip~ 100;
#X obj 98 194 rpole~ 0.99;
#X obj 98 217 *~ 0.04;
#X obj 156 126 +~ 1;
#X obj 306 -13 inlet density;
#X obj 97 127 lop~;
#X obj 97 150 lop~;
#X obj 156 60 lop~;
#X obj 156 37 lop~;
#X obj 83 499 outlet~;
#X obj 98 246 min~ 0;
#X obj 98 268 *~ -1;
#X obj 146 245 max~ 0;
#X obj 98 291 +~;
#X obj 11 39 vline~;
#X obj 82 476 *~;
#X obj 11 -7 inlet trig;
#X msg 11 15 1 50 \, 0 8000 50;
#X connect 0 0 18 0;
#X connect 1 0 2 0;
#X connect 1 0 2 1;
#X connect 2 0 3 0;
#X connect 3 0 4 0;
#X connect 4 0 5 0;
#X connect 5 0 12 1;
#X connect 6 0 21 0;
#X connect 7 0 11 0;
#X connect 8 0 14 0;
#X connect 10 0 8 1;
#X connect 11 0 16 0;
#X connect 12 0 13 0;
#X connect 13 0 28 1;
#X connect 14 0 15 0;
#X connect 15 0 25 0;
#X connect 15 0 23 0;
#X connect 16 0 10 0;
#X connect 17 0 20 1;
#X connect 17 0 21 1;
#X connect 17 0 18 1;
#X connect 17 0 19 1;
#X connect 18 0 19 0;
#X connect 19 0 8 0;
#X connect 20 0 7 0;
#X connect 21 0 20 0;
#X connect 23 0 24 0;
#X connect 24 0 26 0;
#X connect 25 0 26 1;
#X connect 26 0 1 0;
#X connect 26 0 12 0;
#X connect 27 0 28 0;
#X connect 28 0 22 0;
#X connect 29 0 30 0;
#X connect 30 0 27 0;
