#N canvas 0 0 255 301 10;
#X obj 55 142 del;
#X obj 55 21 t b b;
#X obj 85 72 f;
#X obj 55 73 +;
#X msg 85 44 0;
#X obj 55 210 random 100;
#X obj 55 119 t f f;
#X obj 195 233 / 100;
#X obj 136 283 outlet;
#X obj 55 0 inlet;
#X obj 136 209 f;
#X obj 167 208 + 1;
#X obj 55 163 t b b;
#X obj 136 231 mod 4;
#X obj 136 258 pack f f;
#X msg 55 44 1;
#X obj 55 97 moses 100;
#X obj 3 95 / 10;
#X obj 195 186 swap 100;
#X obj 195 208 -;
#X connect 0 0 12 0;
#X connect 1 0 15 0;
#X connect 1 1 4 0;
#X connect 2 0 3 1;
#X connect 3 0 2 0;
#X connect 3 0 16 0;
#X connect 4 0 2 0;
#X connect 5 0 17 0;
#X connect 6 0 0 0;
#X connect 6 1 18 0;
#X connect 7 0 14 1;
#X connect 9 0 1 0;
#X connect 10 0 11 0;
#X connect 10 0 13 0;
#X connect 11 0 10 1;
#X connect 12 0 5 0;
#X connect 12 1 10 0;
#X connect 13 0 14 0;
#X connect 14 0 8 0;
#X connect 15 0 3 0;
#X connect 16 0 6 0;
#X connect 17 0 3 0;
#X connect 18 0 19 0;
#X connect 18 1 19 1;
#X connect 19 0 7 0;
