#N canvas 37 12 145 578 10;
#X obj 97 559 dac~;
#X obj 97 535 *~ 0.2;
#X obj 41 185 vline~;
#X obj 18 265 pow~;
#X obj 18 241 sig~ 2.71828;
#X obj 18 451 osc~;
#X obj 18 339 +~ 80;
#X obj 2 474 *~;
#X obj 2 219 *~;
#X obj 18 427 +~;
#X obj 41 98 metro 500;
#X obj 33 406 *~;
#X obj 41 141 f;
#X msg 41 163 1 1 0 \, 0 \$1 1;
#X obj 57 120 * 200;
#X obj 33 361 osc~ 120;
#X obj 96 516 *~;
#X obj 71 48 line;
#X obj 112 241 sig~;
#X obj 18 317 *~;
#X obj 49 382 *~ 70;
#X obj 41 25 t b a;
#X obj 34 292 *~ 130;
#X obj 99 74 * 300;
#X msg 41 3 1 \, 0 3000;
#X connect 1 0 0 0;
#X connect 1 0 0 1;
#X connect 2 0 3 1;
#X connect 2 0 8 0;
#X connect 2 0 8 1;
#X connect 3 0 19 0;
#X connect 4 0 3 0;
#X connect 5 0 7 1;
#X connect 6 0 9 0;
#X connect 7 0 16 0;
#X connect 8 0 7 0;
#X connect 9 0 5 0;
#X connect 10 0 12 0;
#X connect 11 0 9 1;
#X connect 12 0 13 0;
#X connect 13 0 2 0;
#X connect 14 0 12 1;
#X connect 15 0 11 0;
#X connect 16 0 1 0;
#X connect 17 0 14 0;
#X connect 17 0 18 0;
#X connect 17 0 23 0;
#X connect 18 0 20 0;
#X connect 18 0 16 1;
#X connect 18 0 22 0;
#X connect 19 0 6 0;
#X connect 20 0 11 1;
#X connect 21 0 10 0;
#X connect 21 1 17 0;
#X connect 22 0 19 1;
#X connect 23 0 10 1;
#X connect 24 0 21 0;
