{
	"patcher" : 	{
		"fileversion" : 1,
		"rect" : [ 66.0, 207.0, 633.0, 461.0 ],
		"bglocked" : 0,
		"defrect" : [ 66.0, 207.0, 633.0, 461.0 ],
		"openrect" : [ 0.0, 0.0, 0.0, 0.0 ],
		"openinpresentation" : 0,
		"default_fontsize" : 12.0,
		"default_fontface" : 0,
		"default_fontname" : "Arial",
		"gridonopen" : 0,
		"gridsize" : [ 15.0, 15.0 ],
		"gridsnaponopen" : 0,
		"toolbarvisible" : 1,
		"boxanimatetime" : 200,
		"imprint" : 0,
		"enablehscroll" : 1,
		"enablevscroll" : 1,
		"devicewidth" : 0.0,
		"boxes" : [ 			{
				"box" : 				{
					"maxclass" : "inlet",
					"outlettype" : [ "" ],
					"patching_rect" : [ 305.0, -36.0, 15.0, 15.0 ],
					"id" : "obj-1",
					"hidden" : 1,
					"numinlets" : 0,
					"numoutlets" : 1,
					"comment" : "glob base fact 0-100"
				}

			}
, 			{
				"box" : 				{
					"maxclass" : "multislider",
					"outlettype" : [ "", "" ],
					"candicane6" : [ 0.733333, 0.035294, 0.788235, 1.0 ],
					"candicane5" : [ 0.584314, 0.827451, 0.431373, 1.0 ],
					"setminmax" : [ 0.0, 100.0 ],
					"slidercolor" : [ 1.0, 1.0, 1.0, 1.0 ],
					"bordercolor" : [ 1.0, 1.0, 1.0, 1.0 ],
					"candicane4" : [ 0.439216, 0.619608, 0.070588, 1.0 ],
					"patching_rect" : [ 41.0, 301.0, 14.0, 125.0 ],
					"contdata" : 1,
					"id" : "obj-2",
					"peakcolor" : [ 0.498039, 0.498039, 0.498039, 1.0 ],
					"candicane3" : [ 0.290196, 0.411765, 0.713726, 1.0 ],
					"numinlets" : 1,
					"candicane8" : [ 0.027451, 0.447059, 0.501961, 1.0 ],
					"bgcolor" : [ 1.0, 0.890196, 0.090196, 1.0 ],
					"candicane2" : [ 0.145098, 0.203922, 0.356863, 1.0 ],
					"numoutlets" : 2,
					"candicane7" : [ 0.878431, 0.243137, 0.145098, 1.0 ]
				}

			}
, 			{
				"box" : 				{
					"maxclass" : "inlet",
					"outlettype" : [ "" ],
					"patching_rect" : [ 187.0, -36.0, 15.0, 15.0 ],
					"id" : "obj-3",
					"hidden" : 1,
					"numinlets" : 0,
					"numoutlets" : 1,
					"comment" : "resistance"
				}

			}
, 			{
				"box" : 				{
					"maxclass" : "inlet",
					"outlettype" : [ "" ],
					"patching_rect" : [ 69.0, -36.0, 15.0, 15.0 ],
					"id" : "obj-4",
					"hidden" : 1,
					"numinlets" : 0,
					"numoutlets" : 1,
					"comment" : "micro impact shape"
				}

			}
, 			{
				"box" : 				{
					"maxclass" : "message",
					"text" : "10.",
					"outlettype" : [ "" ],
					"patching_rect" : [ 11.0, 428.0, 69.0, 15.0 ],
					"ignoreclick" : 1,
					"id" : "obj-5",
					"fontname" : "Arial",
					"numinlets" : 2,
					"bgcolor" : [ 1.0, 0.890196, 0.090196, 1.0 ],
					"numoutlets" : 1,
					"fontsize" : 9.0
				}

			}
, 			{
				"box" : 				{
					"maxclass" : "comment",
					"text" : "Physical parameters",
					"patching_rect" : [ 103.0, 1.0, 186.0, 23.0 ],
					"id" : "obj-6",
					"fontname" : "Arial Black",
					"numinlets" : 1,
					"numoutlets" : 0,
					"fontsize" : 12.0
				}

			}
, 			{
				"box" : 				{
					"maxclass" : "inlet",
					"outlettype" : [ "" ],
					"patching_rect" : [ 246.0, -36.0, 15.0, 15.0 ],
					"id" : "obj-7",
					"hidden" : 1,
					"numinlets" : 0,
					"numoutlets" : 1,
					"comment" : "glob base factors value"
				}

			}
, 			{
				"box" : 				{
					"maxclass" : "inlet",
					"outlettype" : [ "" ],
					"patching_rect" : [ 128.0, -36.0, 15.0, 15.0 ],
					"id" : "obj-8",
					"hidden" : 1,
					"numinlets" : 0,
					"numoutlets" : 1,
					"comment" : "force"
				}

			}
, 			{
				"box" : 				{
					"maxclass" : "inlet",
					"outlettype" : [ "" ],
					"patching_rect" : [ 10.0, -36.0, 15.0, 15.0 ],
					"id" : "obj-9",
					"hidden" : 1,
					"numinlets" : 0,
					"numoutlets" : 1,
					"comment" : "micro impact stiffness"
				}

			}
, 			{
				"box" : 				{
					"maxclass" : "newobj",
					"text" : "p physical_display",
					"outlettype" : [ "", "", "", "", "", "", "", "", "", "", "", "", "", "" ],
					"patching_rect" : [ 10.0, -16.0, 306.0, 17.0 ],
					"id" : "obj-10",
					"fontname" : "Arial",
					"hidden" : 1,
					"numinlets" : 6,
					"numoutlets" : 14,
					"fontsize" : 9.0,
					"patcher" : 					{
						"fileversion" : 1,
						"rect" : [ 611.0, 345.0, 857.0, 426.0 ],
						"bglocked" : 0,
						"defrect" : [ 611.0, 345.0, 857.0, 426.0 ],
						"openrect" : [ 0.0, 0.0, 0.0, 0.0 ],
						"openinpresentation" : 0,
						"default_fontsize" : 12.0,
						"default_fontface" : 0,
						"default_fontname" : "Arial",
						"gridonopen" : 0,
						"gridsize" : [ 15.0, 15.0 ],
						"gridsnaponopen" : 0,
						"toolbarvisible" : 1,
						"boxanimatetime" : 200,
						"imprint" : 0,
						"enablehscroll" : 1,
						"enablevscroll" : 1,
						"devicewidth" : 0.0,
						"boxes" : [ 							{
								"box" : 								{
									"maxclass" : "newobj",
									"text" : "prepend set",
									"outlettype" : [ "" ],
									"patching_rect" : [ 494.0, 131.0, 62.0, 17.0 ],
									"id" : "obj-1",
									"fontname" : "Arial",
									"numinlets" : 1,
									"numoutlets" : 1,
									"fontsize" : 9.0
								}

							}
, 							{
								"box" : 								{
									"maxclass" : "newobj",
									"text" : "prepend set",
									"outlettype" : [ "" ],
									"patching_rect" : [ 427.0, 131.0, 62.0, 17.0 ],
									"id" : "obj-2",
									"fontname" : "Arial",
									"numinlets" : 1,
									"numoutlets" : 1,
									"fontsize" : 9.0
								}

							}
, 							{
								"box" : 								{
									"maxclass" : "newobj",
									"text" : "prepend set 1",
									"outlettype" : [ "" ],
									"patching_rect" : [ 558.0, 122.0, 71.0, 17.0 ],
									"id" : "obj-3",
									"fontname" : "Arial",
									"numinlets" : 1,
									"numoutlets" : 1,
									"fontsize" : 9.0
								}

							}
, 							{
								"box" : 								{
									"maxclass" : "newobj",
									"text" : "unpack 0. 0. 0.",
									"outlettype" : [ "float", "float", "float" ],
									"patching_rect" : [ 600.0, 67.0, 76.0, 17.0 ],
									"id" : "obj-4",
									"fontname" : "Arial",
									"numinlets" : 1,
									"numoutlets" : 3,
									"fontsize" : 9.0
								}

							}
, 							{
								"box" : 								{
									"maxclass" : "newobj",
									"text" : "unpack 0. 0. 0.",
									"outlettype" : [ "float", "float", "float" ],
									"patching_rect" : [ 406.0, 71.0, 76.0, 17.0 ],
									"id" : "obj-5",
									"fontname" : "Arial",
									"numinlets" : 1,
									"numoutlets" : 3,
									"fontsize" : 9.0
								}

							}
, 							{
								"box" : 								{
									"maxclass" : "outlet",
									"patching_rect" : [ 558.0, 152.0, 15.0, 15.0 ],
									"id" : "obj-6",
									"numinlets" : 1,
									"numoutlets" : 0,
									"comment" : "glob freq 0-100"
								}

							}
, 							{
								"box" : 								{
									"maxclass" : "newobj",
									"text" : "prepend set",
									"outlettype" : [ "" ],
									"patching_rect" : [ 357.0, 131.0, 62.0, 17.0 ],
									"id" : "obj-7",
									"fontname" : "Arial",
									"numinlets" : 1,
									"numoutlets" : 1,
									"fontsize" : 9.0
								}

							}
, 							{
								"box" : 								{
									"maxclass" : "inlet",
									"outlettype" : [ "" ],
									"patching_rect" : [ 600.0, 46.0, 15.0, 15.0 ],
									"id" : "obj-8",
									"numinlets" : 0,
									"numoutlets" : 1,
									"comment" : "glob freq 0-100"
								}

							}
, 							{
								"box" : 								{
									"maxclass" : "inlet",
									"outlettype" : [ "" ],
									"patching_rect" : [ 274.0, 45.0, 15.0, 15.0 ],
									"id" : "obj-9",
									"numinlets" : 0,
									"numoutlets" : 1,
									"comment" : "resistance"
								}

							}
, 							{
								"box" : 								{
									"maxclass" : "inlet",
									"outlettype" : [ "" ],
									"patching_rect" : [ 108.0, 45.0, 15.0, 15.0 ],
									"id" : "obj-10",
									"numinlets" : 0,
									"numoutlets" : 1,
									"comment" : "contact surface"
								}

							}
, 							{
								"box" : 								{
									"maxclass" : "outlet",
									"patching_rect" : [ 357.0, 152.0, 15.0, 15.0 ],
									"id" : "obj-11",
									"numinlets" : 1,
									"numoutlets" : 0,
									"comment" : "glob freq fact value"
								}

							}
, 							{
								"box" : 								{
									"maxclass" : "outlet",
									"patching_rect" : [ 494.0, 152.0, 15.0, 15.0 ],
									"id" : "obj-12",
									"numinlets" : 1,
									"numoutlets" : 0,
									"comment" : "glob gain to m.box"
								}

							}
, 							{
								"box" : 								{
									"maxclass" : "outlet",
									"patching_rect" : [ 427.0, 150.0, 15.0, 15.0 ],
									"id" : "obj-13",
									"numinlets" : 1,
									"numoutlets" : 0,
									"comment" : "glob dec to m.box"
								}

							}
, 							{
								"box" : 								{
									"maxclass" : "outlet",
									"patching_rect" : [ 717.0, 152.0, 15.0, 15.0 ],
									"id" : "obj-14",
									"numinlets" : 1,
									"numoutlets" : 0,
									"comment" : "glb gain to slider"
								}

							}
, 							{
								"box" : 								{
									"maxclass" : "outlet",
									"patching_rect" : [ 633.0, 152.0, 15.0, 15.0 ],
									"id" : "obj-15",
									"numinlets" : 1,
									"numoutlets" : 0,
									"comment" : "glob dec to slider"
								}

							}
, 							{
								"box" : 								{
									"maxclass" : "newobj",
									"text" : "prepend set 1",
									"outlettype" : [ "" ],
									"patching_rect" : [ 717.0, 122.0, 71.0, 17.0 ],
									"id" : "obj-16",
									"fontname" : "Arial",
									"numinlets" : 1,
									"numoutlets" : 1,
									"fontsize" : 9.0
								}

							}
, 							{
								"box" : 								{
									"maxclass" : "newobj",
									"text" : "prepend set 1",
									"outlettype" : [ "" ],
									"patching_rect" : [ 633.0, 122.0, 71.0, 17.0 ],
									"id" : "obj-17",
									"fontname" : "Arial",
									"numinlets" : 1,
									"numoutlets" : 1,
									"fontsize" : 9.0
								}

							}
, 							{
								"box" : 								{
									"maxclass" : "inlet",
									"outlettype" : [ "" ],
									"patching_rect" : [ 406.0, 46.0, 15.0, 15.0 ],
									"id" : "obj-18",
									"numinlets" : 0,
									"numoutlets" : 1,
									"comment" : "glob base fact values"
								}

							}
, 							{
								"box" : 								{
									"maxclass" : "outlet",
									"patching_rect" : [ 258.0, 153.0, 15.0, 15.0 ],
									"id" : "obj-19",
									"numinlets" : 1,
									"numoutlets" : 0,
									"comment" : "granularity to m.box"
								}

							}
, 							{
								"box" : 								{
									"maxclass" : "outlet",
									"patching_rect" : [ 200.0, 153.0, 15.0, 15.0 ],
									"id" : "obj-20",
									"numinlets" : 1,
									"numoutlets" : 0,
									"comment" : "ob size to m.box"
								}

							}
, 							{
								"box" : 								{
									"maxclass" : "outlet",
									"patching_rect" : [ 274.0, 153.0, 15.0, 15.0 ],
									"id" : "obj-21",
									"numinlets" : 1,
									"numoutlets" : 0,
									"comment" : "granularity to slider"
								}

							}
, 							{
								"box" : 								{
									"maxclass" : "outlet",
									"patching_rect" : [ 220.0, 153.0, 15.0, 15.0 ],
									"id" : "obj-22",
									"numinlets" : 1,
									"numoutlets" : 0,
									"comment" : "ob size to slider"
								}

							}
, 							{
								"box" : 								{
									"maxclass" : "newobj",
									"text" : "prepend set 1",
									"outlettype" : [ "" ],
									"patching_rect" : [ 274.0, 128.0, 71.0, 17.0 ],
									"id" : "obj-23",
									"fontname" : "Arial",
									"numinlets" : 1,
									"numoutlets" : 1,
									"fontsize" : 9.0
								}

							}
, 							{
								"box" : 								{
									"maxclass" : "newobj",
									"text" : "prepend set 1",
									"outlettype" : [ "" ],
									"patching_rect" : [ 220.0, 104.0, 71.0, 17.0 ],
									"id" : "obj-24",
									"fontname" : "Arial",
									"numinlets" : 1,
									"numoutlets" : 1,
									"fontsize" : 9.0
								}

							}
, 							{
								"box" : 								{
									"maxclass" : "inlet",
									"outlettype" : [ "" ],
									"patching_rect" : [ 220.0, 45.0, 15.0, 15.0 ],
									"id" : "obj-25",
									"numinlets" : 0,
									"numoutlets" : 1,
									"comment" : "force"
								}

							}
, 							{
								"box" : 								{
									"maxclass" : "outlet",
									"patching_rect" : [ 92.0, 153.0, 15.0, 15.0 ],
									"id" : "obj-26",
									"numinlets" : 1,
									"numoutlets" : 0,
									"comment" : "shape to mbox"
								}

							}
, 							{
								"box" : 								{
									"maxclass" : "outlet",
									"patching_rect" : [ 34.0, 153.0, 15.0, 15.0 ],
									"id" : "obj-27",
									"numinlets" : 1,
									"numoutlets" : 0,
									"comment" : "rigidity to mbox"
								}

							}
, 							{
								"box" : 								{
									"maxclass" : "outlet",
									"patching_rect" : [ 108.0, 153.0, 15.0, 15.0 ],
									"id" : "obj-28",
									"numinlets" : 1,
									"numoutlets" : 0,
									"comment" : "shape to slider"
								}

							}
, 							{
								"box" : 								{
									"maxclass" : "outlet",
									"patching_rect" : [ 54.0, 153.0, 15.0, 15.0 ],
									"id" : "obj-29",
									"numinlets" : 1,
									"numoutlets" : 0,
									"comment" : "rigidity to slider"
								}

							}
, 							{
								"box" : 								{
									"maxclass" : "newobj",
									"text" : "prepend set 1",
									"outlettype" : [ "" ],
									"patching_rect" : [ 108.0, 128.0, 71.0, 17.0 ],
									"id" : "obj-30",
									"fontname" : "Arial",
									"numinlets" : 1,
									"numoutlets" : 1,
									"fontsize" : 9.0
								}

							}
, 							{
								"box" : 								{
									"maxclass" : "newobj",
									"text" : "prepend set 1",
									"outlettype" : [ "" ],
									"patching_rect" : [ 54.0, 107.0, 71.0, 17.0 ],
									"id" : "obj-31",
									"fontname" : "Arial",
									"numinlets" : 1,
									"numoutlets" : 1,
									"fontsize" : 9.0
								}

							}
, 							{
								"box" : 								{
									"maxclass" : "inlet",
									"outlettype" : [ "" ],
									"patching_rect" : [ 54.0, 45.0, 15.0, 15.0 ],
									"id" : "obj-32",
									"numinlets" : 0,
									"numoutlets" : 1,
									"comment" : "contact stiffness"
								}

							}
 ],
						"lines" : [ 							{
								"patchline" : 								{
									"source" : [ "obj-16", 0 ],
									"destination" : [ "obj-14", 0 ],
									"hidden" : 0,
									"midpoints" : [  ]
								}

							}
, 							{
								"patchline" : 								{
									"source" : [ "obj-4", 2 ],
									"destination" : [ "obj-16", 0 ],
									"hidden" : 0,
									"midpoints" : [ 666.5, 96.0, 726.5, 96.0 ]
								}

							}
, 							{
								"patchline" : 								{
									"source" : [ "obj-17", 0 ],
									"destination" : [ "obj-15", 0 ],
									"hidden" : 0,
									"midpoints" : [  ]
								}

							}
, 							{
								"patchline" : 								{
									"source" : [ "obj-4", 1 ],
									"destination" : [ "obj-17", 0 ],
									"hidden" : 0,
									"midpoints" : [  ]
								}

							}
, 							{
								"patchline" : 								{
									"source" : [ "obj-8", 0 ],
									"destination" : [ "obj-4", 0 ],
									"hidden" : 0,
									"midpoints" : [  ]
								}

							}
, 							{
								"patchline" : 								{
									"source" : [ "obj-3", 0 ],
									"destination" : [ "obj-6", 0 ],
									"hidden" : 0,
									"midpoints" : [  ]
								}

							}
, 							{
								"patchline" : 								{
									"source" : [ "obj-4", 0 ],
									"destination" : [ "obj-3", 0 ],
									"hidden" : 0,
									"midpoints" : [ 609.5, 97.0, 567.5, 97.0 ]
								}

							}
, 							{
								"patchline" : 								{
									"source" : [ "obj-1", 0 ],
									"destination" : [ "obj-12", 0 ],
									"hidden" : 0,
									"midpoints" : [  ]
								}

							}
, 							{
								"patchline" : 								{
									"source" : [ "obj-5", 2 ],
									"destination" : [ "obj-1", 0 ],
									"hidden" : 0,
									"midpoints" : [ 472.5, 109.0, 503.5, 109.0 ]
								}

							}
, 							{
								"patchline" : 								{
									"source" : [ "obj-2", 0 ],
									"destination" : [ "obj-13", 0 ],
									"hidden" : 0,
									"midpoints" : [  ]
								}

							}
, 							{
								"patchline" : 								{
									"source" : [ "obj-5", 1 ],
									"destination" : [ "obj-2", 0 ],
									"hidden" : 0,
									"midpoints" : [ 444.0, 104.0, 436.5, 104.0 ]
								}

							}
, 							{
								"patchline" : 								{
									"source" : [ "obj-18", 0 ],
									"destination" : [ "obj-5", 0 ],
									"hidden" : 0,
									"midpoints" : [  ]
								}

							}
, 							{
								"patchline" : 								{
									"source" : [ "obj-7", 0 ],
									"destination" : [ "obj-11", 0 ],
									"hidden" : 0,
									"midpoints" : [  ]
								}

							}
, 							{
								"patchline" : 								{
									"source" : [ "obj-5", 0 ],
									"destination" : [ "obj-7", 0 ],
									"hidden" : 0,
									"midpoints" : [ 415.5, 96.0, 366.5, 96.0 ]
								}

							}
, 							{
								"patchline" : 								{
									"source" : [ "obj-23", 0 ],
									"destination" : [ "obj-21", 0 ],
									"hidden" : 0,
									"midpoints" : [  ]
								}

							}
, 							{
								"patchline" : 								{
									"source" : [ "obj-9", 0 ],
									"destination" : [ "obj-23", 0 ],
									"hidden" : 0,
									"midpoints" : [  ]
								}

							}
, 							{
								"patchline" : 								{
									"source" : [ "obj-9", 0 ],
									"destination" : [ "obj-19", 0 ],
									"hidden" : 0,
									"midpoints" : [  ]
								}

							}
, 							{
								"patchline" : 								{
									"source" : [ "obj-24", 0 ],
									"destination" : [ "obj-22", 0 ],
									"hidden" : 0,
									"midpoints" : [  ]
								}

							}
, 							{
								"patchline" : 								{
									"source" : [ "obj-25", 0 ],
									"destination" : [ "obj-24", 0 ],
									"hidden" : 0,
									"midpoints" : [  ]
								}

							}
, 							{
								"patchline" : 								{
									"source" : [ "obj-25", 0 ],
									"destination" : [ "obj-20", 0 ],
									"hidden" : 0,
									"midpoints" : [  ]
								}

							}
, 							{
								"patchline" : 								{
									"source" : [ "obj-30", 0 ],
									"destination" : [ "obj-28", 0 ],
									"hidden" : 0,
									"midpoints" : [  ]
								}

							}
, 							{
								"patchline" : 								{
									"source" : [ "obj-10", 0 ],
									"destination" : [ "obj-30", 0 ],
									"hidden" : 0,
									"midpoints" : [  ]
								}

							}
, 							{
								"patchline" : 								{
									"source" : [ "obj-10", 0 ],
									"destination" : [ "obj-26", 0 ],
									"hidden" : 0,
									"midpoints" : [  ]
								}

							}
, 							{
								"patchline" : 								{
									"source" : [ "obj-31", 0 ],
									"destination" : [ "obj-29", 0 ],
									"hidden" : 0,
									"midpoints" : [  ]
								}

							}
, 							{
								"patchline" : 								{
									"source" : [ "obj-32", 0 ],
									"destination" : [ "obj-31", 0 ],
									"hidden" : 0,
									"midpoints" : [  ]
								}

							}
, 							{
								"patchline" : 								{
									"source" : [ "obj-32", 0 ],
									"destination" : [ "obj-27", 0 ],
									"hidden" : 0,
									"midpoints" : [  ]
								}

							}
 ]
					}
,
					"saved_object_attributes" : 					{
						"default_fontface" : 0,
						"default_fontname" : "Arial",
						"fontname" : "Arial",
						"default_fontsize" : 12.0,
						"globalpatchername" : "",
						"fontface" : 0,
						"fontsize" : 12.0
					}

				}

			}
, 			{
				"box" : 				{
					"maxclass" : "outlet",
					"patching_rect" : [ 93.0, 500.0, 15.0, 15.0 ],
					"id" : "obj-11",
					"hidden" : 1,
					"numinlets" : 1,
					"numoutlets" : 0,
					"comment" : "frequency F_0"
				}

			}
, 			{
				"box" : 				{
					"maxclass" : "outlet",
					"patching_rect" : [ 131.0, 500.0, 15.0, 15.0 ],
					"id" : "obj-12",
					"hidden" : 1,
					"numinlets" : 1,
					"numoutlets" : 0,
					"comment" : "global gain factor"
				}

			}
, 			{
				"box" : 				{
					"maxclass" : "outlet",
					"patching_rect" : [ 111.0, 500.0, 15.0, 15.0 ],
					"id" : "obj-13",
					"hidden" : 1,
					"numinlets" : 1,
					"numoutlets" : 0,
					"comment" : "global decay factor"
				}

			}
, 			{
				"box" : 				{
					"maxclass" : "outlet",
					"patching_rect" : [ 58.0, 500.0, 15.0, 15.0 ],
					"id" : "obj-14",
					"hidden" : 1,
					"numinlets" : 1,
					"numoutlets" : 0,
					"comment" : "resistance"
				}

			}
, 			{
				"box" : 				{
					"maxclass" : "outlet",
					"patching_rect" : [ 38.0, 500.0, 15.0, 15.0 ],
					"id" : "obj-15",
					"hidden" : 1,
					"numinlets" : 1,
					"numoutlets" : 0,
					"comment" : "force"
				}

			}
, 			{
				"box" : 				{
					"maxclass" : "outlet",
					"patching_rect" : [ 3.0, 500.0, 15.0, 15.0 ],
					"id" : "obj-16",
					"hidden" : 1,
					"numinlets" : 1,
					"numoutlets" : 0,
					"comment" : "micro fractures shape"
				}

			}
, 			{
				"box" : 				{
					"maxclass" : "outlet",
					"patching_rect" : [ -17.0, 500.0, 15.0, 15.0 ],
					"id" : "obj-17",
					"hidden" : 1,
					"numinlets" : 1,
					"numoutlets" : 0,
					"comment" : "micro impact stiffness"
				}

			}
, 			{
				"box" : 				{
					"maxclass" : "comment",
					"text" : "global frequency",
					"patching_rect" : [ 11.0, 269.0, 93.0, 19.0 ],
					"id" : "obj-18",
					"fontname" : "Arial Black",
					"numinlets" : 1,
					"numoutlets" : 0,
					"fontsize" : 9.0
				}

			}
, 			{
				"box" : 				{
					"maxclass" : "message",
					"text" : "1.328358",
					"outlettype" : [ "" ],
					"patching_rect" : [ 282.0, 428.0, 69.0, 15.0 ],
					"ignoreclick" : 1,
					"id" : "obj-19",
					"fontname" : "Arial",
					"numinlets" : 2,
					"bgcolor" : [ 1.0, 0.360784, 0.682353, 1.0 ],
					"numoutlets" : 1,
					"fontsize" : 9.0
				}

			}
, 			{
				"box" : 				{
					"maxclass" : "message",
					"text" : "1.849756",
					"outlettype" : [ "" ],
					"patching_rect" : [ 152.0, 428.0, 69.0, 15.0 ],
					"ignoreclick" : 1,
					"id" : "obj-20",
					"fontname" : "Arial",
					"numinlets" : 2,
					"bgcolor" : [ 0.611765, 0.701961, 1.0, 1.0 ],
					"numoutlets" : 1,
					"fontsize" : 9.0
				}

			}
, 			{
				"box" : 				{
					"maxclass" : "newobj",
					"text" : "p fact_scale",
					"outlettype" : [ "", "" ],
					"patching_rect" : [ 235.0, 403.0, 65.0, 17.0 ],
					"id" : "obj-21",
					"fontname" : "Arial",
					"hidden" : 1,
					"numinlets" : 2,
					"numoutlets" : 2,
					"fontsize" : 9.0,
					"patcher" : 					{
						"fileversion" : 1,
						"rect" : [ 582.0, 171.0, 446.0, 275.0 ],
						"bglocked" : 0,
						"defrect" : [ 582.0, 171.0, 446.0, 275.0 ],
						"openrect" : [ 0.0, 0.0, 0.0, 0.0 ],
						"openinpresentation" : 0,
						"default_fontsize" : 12.0,
						"default_fontface" : 0,
						"default_fontname" : "Arial",
						"gridonopen" : 0,
						"gridsize" : [ 15.0, 15.0 ],
						"gridsnaponopen" : 0,
						"toolbarvisible" : 1,
						"boxanimatetime" : 200,
						"imprint" : 0,
						"enablehscroll" : 1,
						"enablevscroll" : 1,
						"devicewidth" : 0.0,
						"boxes" : [ 							{
								"box" : 								{
									"maxclass" : "newobj",
									"text" : "scale 0. 100. 0.12 8",
									"outlettype" : [ "" ],
									"patching_rect" : [ 139.0, 75.0, 102.0, 17.0 ],
									"id" : "obj-1",
									"fontname" : "Arial",
									"numinlets" : 6,
									"numoutlets" : 1,
									"fontsize" : 9.0
								}

							}
, 							{
								"box" : 								{
									"maxclass" : "newobj",
									"text" : "scale 0. 100. 0.00001 10 1.03",
									"linecount" : 2,
									"outlettype" : [ "" ],
									"patching_rect" : [ 242.0, 75.0, 85.0, 27.0 ],
									"id" : "obj-2",
									"fontname" : "Arial",
									"numinlets" : 6,
									"numoutlets" : 1,
									"fontsize" : 9.0
								}

							}
, 							{
								"box" : 								{
									"maxclass" : "newobj",
									"text" : "prepend set",
									"outlettype" : [ "" ],
									"patching_rect" : [ 139.0, 119.0, 62.0, 17.0 ],
									"id" : "obj-3",
									"fontname" : "Arial",
									"numinlets" : 1,
									"numoutlets" : 1,
									"fontsize" : 9.0
								}

							}
, 							{
								"box" : 								{
									"maxclass" : "newobj",
									"text" : "prepend set",
									"outlettype" : [ "" ],
									"patching_rect" : [ 242.0, 119.0, 62.0, 17.0 ],
									"id" : "obj-4",
									"fontname" : "Arial",
									"numinlets" : 1,
									"numoutlets" : 1,
									"fontsize" : 9.0
								}

							}
, 							{
								"box" : 								{
									"maxclass" : "outlet",
									"patching_rect" : [ 242.0, 148.0, 15.0, 15.0 ],
									"id" : "obj-5",
									"numinlets" : 1,
									"numoutlets" : 0,
									"comment" : "micro-fractures shape"
								}

							}
, 							{
								"box" : 								{
									"maxclass" : "outlet",
									"patching_rect" : [ 139.0, 148.0, 15.0, 15.0 ],
									"id" : "obj-6",
									"numinlets" : 1,
									"numoutlets" : 0,
									"comment" : "micro impacts elasticity"
								}

							}
, 							{
								"box" : 								{
									"maxclass" : "inlet",
									"outlettype" : [ "" ],
									"patching_rect" : [ 242.0, 50.0, 15.0, 15.0 ],
									"id" : "obj-7",
									"numinlets" : 0,
									"numoutlets" : 1,
									"comment" : ""
								}

							}
, 							{
								"box" : 								{
									"maxclass" : "inlet",
									"outlettype" : [ "" ],
									"patching_rect" : [ 139.0, 50.0, 15.0, 15.0 ],
									"id" : "obj-8",
									"numinlets" : 0,
									"numoutlets" : 1,
									"comment" : ""
								}

							}
 ],
						"lines" : [ 							{
								"patchline" : 								{
									"source" : [ "obj-4", 0 ],
									"destination" : [ "obj-5", 0 ],
									"hidden" : 0,
									"midpoints" : [  ]
								}

							}
, 							{
								"patchline" : 								{
									"source" : [ "obj-2", 0 ],
									"destination" : [ "obj-4", 0 ],
									"hidden" : 0,
									"midpoints" : [  ]
								}

							}
, 							{
								"patchline" : 								{
									"source" : [ "obj-7", 0 ],
									"destination" : [ "obj-2", 0 ],
									"hidden" : 0,
									"midpoints" : [  ]
								}

							}
, 							{
								"patchline" : 								{
									"source" : [ "obj-3", 0 ],
									"destination" : [ "obj-6", 0 ],
									"hidden" : 0,
									"midpoints" : [  ]
								}

							}
, 							{
								"patchline" : 								{
									"source" : [ "obj-1", 0 ],
									"destination" : [ "obj-3", 0 ],
									"hidden" : 0,
									"midpoints" : [  ]
								}

							}
, 							{
								"patchline" : 								{
									"source" : [ "obj-8", 0 ],
									"destination" : [ "obj-1", 0 ],
									"hidden" : 0,
									"midpoints" : [  ]
								}

							}
 ]
					}
,
					"saved_object_attributes" : 					{
						"default_fontface" : 0,
						"default_fontname" : "Arial",
						"fontname" : "Arial",
						"default_fontsize" : 12.0,
						"globalpatchername" : "",
						"fontface" : 0,
						"fontsize" : 12.0
					}

				}

			}
, 			{
				"box" : 				{
					"maxclass" : "multislider",
					"outlettype" : [ "", "" ],
					"candicane6" : [ 0.733333, 0.035294, 0.788235, 1.0 ],
					"candicane5" : [ 0.584314, 0.827451, 0.431373, 1.0 ],
					"setminmax" : [ 0.0, 100.0 ],
					"slidercolor" : [ 1.0, 1.0, 1.0, 1.0 ],
					"bordercolor" : [ 1.0, 1.0, 1.0, 1.0 ],
					"candicane4" : [ 0.439216, 0.619608, 0.070588, 1.0 ],
					"patching_rect" : [ 305.0, 301.0, 14.0, 125.0 ],
					"contdata" : 1,
					"id" : "obj-22",
					"peakcolor" : [ 0.498039, 0.498039, 0.498039, 1.0 ],
					"candicane3" : [ 0.290196, 0.411765, 0.713726, 1.0 ],
					"numinlets" : 1,
					"candicane8" : [ 0.027451, 0.447059, 0.501961, 1.0 ],
					"bgcolor" : [ 1.0, 0.360784, 0.682353, 1.0 ],
					"candicane2" : [ 0.145098, 0.203922, 0.356863, 1.0 ],
					"numoutlets" : 2,
					"candicane7" : [ 0.878431, 0.243137, 0.145098, 1.0 ]
				}

			}
, 			{
				"box" : 				{
					"maxclass" : "multislider",
					"outlettype" : [ "", "" ],
					"candicane6" : [ 0.733333, 0.035294, 0.788235, 1.0 ],
					"candicane5" : [ 0.584314, 0.827451, 0.431373, 1.0 ],
					"setminmax" : [ 0.0, 100.0 ],
					"slidercolor" : [ 1.0, 1.0, 1.0, 1.0 ],
					"bordercolor" : [ 1.0, 1.0, 1.0, 1.0 ],
					"candicane4" : [ 0.439216, 0.619608, 0.070588, 1.0 ],
					"patching_rect" : [ 174.0, 301.0, 14.0, 125.0 ],
					"contdata" : 1,
					"id" : "obj-23",
					"peakcolor" : [ 0.498039, 0.498039, 0.498039, 1.0 ],
					"candicane3" : [ 0.290196, 0.411765, 0.713726, 1.0 ],
					"numinlets" : 1,
					"candicane8" : [ 0.027451, 0.447059, 0.501961, 1.0 ],
					"bgcolor" : [ 0.611765, 0.701961, 1.0, 1.0 ],
					"candicane2" : [ 0.145098, 0.203922, 0.356863, 1.0 ],
					"numoutlets" : 2,
					"candicane7" : [ 0.878431, 0.243137, 0.145098, 1.0 ]
				}

			}
, 			{
				"box" : 				{
					"maxclass" : "comment",
					"text" : "global gain",
					"patching_rect" : [ 277.0, 269.0, 64.0, 19.0 ],
					"id" : "obj-24",
					"fontname" : "Arial Black",
					"numinlets" : 1,
					"numoutlets" : 0,
					"fontsize" : 9.0
				}

			}
, 			{
				"box" : 				{
					"maxclass" : "comment",
					"text" : "metal attribute (global decay)",
					"linecount" : 2,
					"patching_rect" : [ 143.0, 269.0, 85.0, 32.0 ],
					"id" : "obj-25",
					"fontname" : "Arial Black",
					"numinlets" : 1,
					"numoutlets" : 0,
					"fontsize" : 9.0
				}

			}
, 			{
				"box" : 				{
					"maxclass" : "message",
					"text" : "60.975609",
					"outlettype" : [ "" ],
					"patching_rect" : [ 282.0, 205.0, 69.0, 15.0 ],
					"ignoreclick" : 1,
					"id" : "obj-26",
					"fontname" : "Arial",
					"numinlets" : 2,
					"bgcolor" : [ 0.6, 0.4, 0.6, 1.0 ],
					"numoutlets" : 1,
					"fontsize" : 9.0
				}

			}
, 			{
				"box" : 				{
					"maxclass" : "message",
					"text" : "55.284554",
					"outlettype" : [ "" ],
					"patching_rect" : [ 193.0, 205.0, 69.0, 15.0 ],
					"ignoreclick" : 1,
					"id" : "obj-27",
					"fontname" : "Arial",
					"numinlets" : 2,
					"bgcolor" : [ 0.6, 0.4, 0.6, 1.0 ],
					"numoutlets" : 1,
					"fontsize" : 9.0
				}

			}
, 			{
				"box" : 				{
					"maxclass" : "newobj",
					"text" : "p crmp_scale",
					"outlettype" : [ "", "" ],
					"patching_rect" : [ 248.0, 179.0, 70.0, 17.0 ],
					"id" : "obj-28",
					"fontname" : "Arial",
					"hidden" : 1,
					"numinlets" : 2,
					"numoutlets" : 2,
					"fontsize" : 9.0,
					"patcher" : 					{
						"fileversion" : 1,
						"rect" : [ 333.0, 511.0, 661.0, 340.0 ],
						"bglocked" : 0,
						"defrect" : [ 333.0, 511.0, 661.0, 340.0 ],
						"openrect" : [ 0.0, 0.0, 0.0, 0.0 ],
						"openinpresentation" : 0,
						"default_fontsize" : 12.0,
						"default_fontface" : 0,
						"default_fontname" : "Arial",
						"gridonopen" : 0,
						"gridsize" : [ 15.0, 15.0 ],
						"gridsnaponopen" : 0,
						"toolbarvisible" : 1,
						"boxanimatetime" : 200,
						"imprint" : 0,
						"enablehscroll" : 1,
						"enablevscroll" : 1,
						"devicewidth" : 0.0,
						"boxes" : [ 							{
								"box" : 								{
									"maxclass" : "newobj",
									"text" : "prepend set",
									"outlettype" : [ "" ],
									"patching_rect" : [ 26.0, 106.0, 62.0, 17.0 ],
									"id" : "obj-1",
									"fontname" : "Arial",
									"numinlets" : 1,
									"numoutlets" : 1,
									"fontsize" : 9.0
								}

							}
, 							{
								"box" : 								{
									"maxclass" : "newobj",
									"text" : "prepend set",
									"outlettype" : [ "" ],
									"patching_rect" : [ 90.0, 106.0, 62.0, 17.0 ],
									"id" : "obj-2",
									"fontname" : "Arial",
									"numinlets" : 1,
									"numoutlets" : 1,
									"fontsize" : 9.0
								}

							}
, 							{
								"box" : 								{
									"maxclass" : "outlet",
									"patching_rect" : [ 90.0, 135.0, 15.0, 15.0 ],
									"id" : "obj-3",
									"numinlets" : 1,
									"numoutlets" : 0,
									"comment" : "micro-fractures shape"
								}

							}
, 							{
								"box" : 								{
									"maxclass" : "outlet",
									"patching_rect" : [ 26.0, 135.0, 15.0, 15.0 ],
									"id" : "obj-4",
									"numinlets" : 1,
									"numoutlets" : 0,
									"comment" : "micro impacts elasticity"
								}

							}
, 							{
								"box" : 								{
									"maxclass" : "inlet",
									"outlettype" : [ "" ],
									"patching_rect" : [ 142.0, 48.0, 15.0, 15.0 ],
									"id" : "obj-5",
									"numinlets" : 0,
									"numoutlets" : 1,
									"comment" : ""
								}

							}
, 							{
								"box" : 								{
									"maxclass" : "inlet",
									"outlettype" : [ "" ],
									"patching_rect" : [ 39.0, 48.0, 15.0, 15.0 ],
									"id" : "obj-6",
									"numinlets" : 0,
									"numoutlets" : 1,
									"comment" : ""
								}

							}
 ],
						"lines" : [ 							{
								"patchline" : 								{
									"source" : [ "obj-2", 0 ],
									"destination" : [ "obj-3", 0 ],
									"hidden" : 0,
									"midpoints" : [  ]
								}

							}
, 							{
								"patchline" : 								{
									"source" : [ "obj-5", 0 ],
									"destination" : [ "obj-2", 0 ],
									"hidden" : 0,
									"midpoints" : [ 151.0, 96.0, 99.5, 96.0 ]
								}

							}
, 							{
								"patchline" : 								{
									"source" : [ "obj-1", 0 ],
									"destination" : [ "obj-4", 0 ],
									"hidden" : 0,
									"midpoints" : [  ]
								}

							}
, 							{
								"patchline" : 								{
									"source" : [ "obj-6", 0 ],
									"destination" : [ "obj-1", 0 ],
									"hidden" : 0,
									"midpoints" : [ 48.0, 96.0, 35.5, 96.0 ]
								}

							}
 ]
					}
,
					"saved_object_attributes" : 					{
						"default_fontface" : 0,
						"default_fontname" : "Arial",
						"fontname" : "Arial",
						"default_fontsize" : 12.0,
						"globalpatchername" : "",
						"fontface" : 0,
						"fontsize" : 12.0
					}

				}

			}
, 			{
				"box" : 				{
					"maxclass" : "multislider",
					"outlettype" : [ "", "" ],
					"candicane6" : [ 0.733333, 0.035294, 0.788235, 1.0 ],
					"candicane5" : [ 0.584314, 0.827451, 0.431373, 1.0 ],
					"setminmax" : [ 0.0, 100.0 ],
					"slidercolor" : [ 1.0, 1.0, 1.0, 1.0 ],
					"bordercolor" : [ 1.0, 1.0, 1.0, 1.0 ],
					"candicane4" : [ 0.439216, 0.619608, 0.070588, 1.0 ],
					"patching_rect" : [ 305.0, 78.0, 14.0, 125.0 ],
					"contdata" : 1,
					"id" : "obj-29",
					"peakcolor" : [ 0.498039, 0.498039, 0.498039, 1.0 ],
					"candicane3" : [ 0.290196, 0.411765, 0.713726, 1.0 ],
					"numinlets" : 1,
					"candicane8" : [ 0.027451, 0.447059, 0.501961, 1.0 ],
					"bgcolor" : [ 0.611765, 0.517647, 0.776471, 1.0 ],
					"candicane2" : [ 0.145098, 0.203922, 0.356863, 1.0 ],
					"numoutlets" : 2,
					"candicane7" : [ 0.878431, 0.243137, 0.145098, 1.0 ]
				}

			}
, 			{
				"box" : 				{
					"maxclass" : "multislider",
					"outlettype" : [ "", "" ],
					"candicane6" : [ 0.733333, 0.035294, 0.788235, 1.0 ],
					"candicane5" : [ 0.584314, 0.827451, 0.431373, 1.0 ],
					"setminmax" : [ 0.0, 100.0 ],
					"slidercolor" : [ 1.0, 1.0, 1.0, 1.0 ],
					"bordercolor" : [ 1.0, 1.0, 1.0, 1.0 ],
					"candicane4" : [ 0.439216, 0.619608, 0.070588, 1.0 ],
					"patching_rect" : [ 223.0, 78.0, 14.0, 125.0 ],
					"contdata" : 1,
					"id" : "obj-30",
					"peakcolor" : [ 0.498039, 0.498039, 0.498039, 1.0 ],
					"candicane3" : [ 0.290196, 0.411765, 0.713726, 1.0 ],
					"numinlets" : 1,
					"candicane8" : [ 0.027451, 0.447059, 0.501961, 1.0 ],
					"bgcolor" : [ 0.611765, 0.517647, 0.776471, 1.0 ],
					"candicane2" : [ 0.145098, 0.203922, 0.356863, 1.0 ],
					"numoutlets" : 2,
					"candicane7" : [ 0.878431, 0.243137, 0.145098, 1.0 ]
				}

			}
, 			{
				"box" : 				{
					"maxclass" : "comment",
					"text" : "resistance",
					"patching_rect" : [ 277.0, 44.0, 74.0, 19.0 ],
					"id" : "obj-31",
					"fontname" : "Arial Black",
					"numinlets" : 1,
					"numoutlets" : 0,
					"fontsize" : 9.0
				}

			}
, 			{
				"box" : 				{
					"maxclass" : "comment",
					"text" : "force",
					"patching_rect" : [ 210.0, 44.0, 37.0, 19.0 ],
					"id" : "obj-32",
					"fontname" : "Arial Black",
					"numinlets" : 1,
					"numoutlets" : 0,
					"fontsize" : 9.0
				}

			}
, 			{
				"box" : 				{
					"maxclass" : "message",
					"text" : "38.211384",
					"outlettype" : [ "" ],
					"patching_rect" : [ 100.0, 205.0, 69.0, 15.0 ],
					"ignoreclick" : 1,
					"id" : "obj-33",
					"fontname" : "Arial",
					"numinlets" : 2,
					"bgcolor" : [ 0.156863, 0.8, 0.54902, 1.0 ],
					"numoutlets" : 1,
					"fontsize" : 9.0
				}

			}
, 			{
				"box" : 				{
					"maxclass" : "message",
					"text" : "71.544716",
					"outlettype" : [ "" ],
					"patching_rect" : [ 11.0, 205.0, 69.0, 15.0 ],
					"ignoreclick" : 1,
					"id" : "obj-34",
					"fontname" : "Arial",
					"numinlets" : 2,
					"bgcolor" : [ 0.156863, 0.8, 0.54902, 1.0 ],
					"numoutlets" : 1,
					"fontsize" : 9.0
				}

			}
, 			{
				"box" : 				{
					"maxclass" : "newobj",
					"text" : "p phys_scale",
					"outlettype" : [ "", "" ],
					"patching_rect" : [ 56.0, 180.0, 68.0, 17.0 ],
					"id" : "obj-35",
					"fontname" : "Arial",
					"hidden" : 1,
					"numinlets" : 2,
					"numoutlets" : 2,
					"fontsize" : 9.0,
					"patcher" : 					{
						"fileversion" : 1,
						"rect" : [ 582.0, 171.0, 284.0, 263.0 ],
						"bglocked" : 0,
						"defrect" : [ 582.0, 171.0, 284.0, 263.0 ],
						"openrect" : [ 0.0, 0.0, 0.0, 0.0 ],
						"openinpresentation" : 0,
						"default_fontsize" : 12.0,
						"default_fontface" : 0,
						"default_fontname" : "Arial",
						"gridonopen" : 0,
						"gridsize" : [ 15.0, 15.0 ],
						"gridsnaponopen" : 0,
						"toolbarvisible" : 1,
						"boxanimatetime" : 200,
						"imprint" : 0,
						"enablehscroll" : 1,
						"enablevscroll" : 1,
						"devicewidth" : 0.0,
						"boxes" : [ 							{
								"box" : 								{
									"maxclass" : "newobj",
									"text" : "prepend set",
									"outlettype" : [ "" ],
									"patching_rect" : [ 42.0, 102.0, 62.0, 17.0 ],
									"id" : "obj-1",
									"fontname" : "Arial",
									"numinlets" : 1,
									"numoutlets" : 1,
									"fontsize" : 9.0
								}

							}
, 							{
								"box" : 								{
									"maxclass" : "newobj",
									"text" : "prepend set",
									"outlettype" : [ "" ],
									"patching_rect" : [ 106.0, 102.0, 62.0, 17.0 ],
									"id" : "obj-2",
									"fontname" : "Arial",
									"numinlets" : 1,
									"numoutlets" : 1,
									"fontsize" : 9.0
								}

							}
, 							{
								"box" : 								{
									"maxclass" : "outlet",
									"patching_rect" : [ 106.0, 131.0, 15.0, 15.0 ],
									"id" : "obj-3",
									"numinlets" : 1,
									"numoutlets" : 0,
									"comment" : "micro-fractures shape"
								}

							}
, 							{
								"box" : 								{
									"maxclass" : "outlet",
									"patching_rect" : [ 42.0, 131.0, 15.0, 15.0 ],
									"id" : "obj-4",
									"numinlets" : 1,
									"numoutlets" : 0,
									"comment" : "micro impacts elasticity"
								}

							}
, 							{
								"box" : 								{
									"maxclass" : "inlet",
									"outlettype" : [ "" ],
									"patching_rect" : [ 153.0, 42.0, 15.0, 15.0 ],
									"id" : "obj-5",
									"numinlets" : 0,
									"numoutlets" : 1,
									"comment" : ""
								}

							}
, 							{
								"box" : 								{
									"maxclass" : "inlet",
									"outlettype" : [ "" ],
									"patching_rect" : [ 50.0, 42.0, 15.0, 15.0 ],
									"id" : "obj-6",
									"numinlets" : 0,
									"numoutlets" : 1,
									"comment" : ""
								}

							}
 ],
						"lines" : [ 							{
								"patchline" : 								{
									"source" : [ "obj-2", 0 ],
									"destination" : [ "obj-3", 0 ],
									"hidden" : 0,
									"midpoints" : [  ]
								}

							}
, 							{
								"patchline" : 								{
									"source" : [ "obj-5", 0 ],
									"destination" : [ "obj-2", 0 ],
									"hidden" : 0,
									"midpoints" : [ 162.0, 90.0, 115.5, 90.0 ]
								}

							}
, 							{
								"patchline" : 								{
									"source" : [ "obj-1", 0 ],
									"destination" : [ "obj-4", 0 ],
									"hidden" : 0,
									"midpoints" : [  ]
								}

							}
, 							{
								"patchline" : 								{
									"source" : [ "obj-6", 0 ],
									"destination" : [ "obj-1", 0 ],
									"hidden" : 0,
									"midpoints" : [ 59.0, 90.0, 51.5, 90.0 ]
								}

							}
 ]
					}
,
					"saved_object_attributes" : 					{
						"default_fontface" : 0,
						"default_fontname" : "Arial",
						"fontname" : "Arial",
						"default_fontsize" : 12.0,
						"globalpatchername" : "",
						"fontface" : 0,
						"fontsize" : 12.0
					}

				}

			}
, 			{
				"box" : 				{
					"maxclass" : "multislider",
					"outlettype" : [ "", "" ],
					"candicane6" : [ 0.733333, 0.035294, 0.788235, 1.0 ],
					"candicane5" : [ 0.584314, 0.827451, 0.431373, 1.0 ],
					"setminmax" : [ 0.0, 100.0 ],
					"slidercolor" : [ 1.0, 1.0, 1.0, 1.0 ],
					"bordercolor" : [ 1.0, 1.0, 1.0, 1.0 ],
					"candicane4" : [ 0.439216, 0.619608, 0.070588, 1.0 ],
					"patching_rect" : [ 123.0, 78.0, 14.0, 125.0 ],
					"contdata" : 1,
					"id" : "obj-36",
					"peakcolor" : [ 0.498039, 0.498039, 0.498039, 1.0 ],
					"candicane3" : [ 0.290196, 0.411765, 0.713726, 1.0 ],
					"numinlets" : 1,
					"candicane8" : [ 0.027451, 0.447059, 0.501961, 1.0 ],
					"bgcolor" : [ 0.313726, 0.854902, 0.486275, 1.0 ],
					"candicane2" : [ 0.145098, 0.203922, 0.356863, 1.0 ],
					"numoutlets" : 2,
					"candicane7" : [ 0.878431, 0.243137, 0.145098, 1.0 ]
				}

			}
, 			{
				"box" : 				{
					"maxclass" : "multislider",
					"outlettype" : [ "", "" ],
					"candicane6" : [ 0.733333, 0.035294, 0.788235, 1.0 ],
					"candicane5" : [ 0.584314, 0.827451, 0.431373, 1.0 ],
					"setminmax" : [ 0.0, 100.0 ],
					"slidercolor" : [ 1.0, 1.0, 1.0, 1.0 ],
					"bordercolor" : [ 1.0, 1.0, 1.0, 1.0 ],
					"candicane4" : [ 0.439216, 0.619608, 0.070588, 1.0 ],
					"patching_rect" : [ 41.0, 78.0, 14.0, 125.0 ],
					"contdata" : 1,
					"id" : "obj-37",
					"peakcolor" : [ 0.498039, 0.498039, 0.498039, 1.0 ],
					"candicane3" : [ 0.290196, 0.411765, 0.713726, 1.0 ],
					"numinlets" : 1,
					"candicane8" : [ 0.027451, 0.447059, 0.501961, 1.0 ],
					"bgcolor" : [ 0.313726, 0.854902, 0.486275, 1.0 ],
					"candicane2" : [ 0.145098, 0.203922, 0.356863, 1.0 ],
					"numoutlets" : 2,
					"candicane7" : [ 0.878431, 0.243137, 0.145098, 1.0 ]
				}

			}
, 			{
				"box" : 				{
					"maxclass" : "comment",
					"text" : "micro-impact shape",
					"linecount" : 2,
					"patching_rect" : [ 95.0, 44.0, 84.0, 32.0 ],
					"id" : "obj-38",
					"fontname" : "Arial Black",
					"numinlets" : 1,
					"numoutlets" : 0,
					"fontsize" : 9.0
				}

			}
, 			{
				"box" : 				{
					"maxclass" : "comment",
					"text" : "micro-impact stiffness",
					"linecount" : 2,
					"patching_rect" : [ 11.0, 44.0, 77.0, 32.0 ],
					"id" : "obj-39",
					"fontname" : "Arial Black",
					"numinlets" : 1,
					"numoutlets" : 0,
					"fontsize" : 9.0
				}

			}
, 			{
				"box" : 				{
					"maxclass" : "panel",
					"bordercolor" : [ 0.745098, 0.745098, 0.745098, 1.0 ],
					"patching_rect" : [ 1.0, 24.0, 180.0, 220.0 ],
					"id" : "obj-40",
					"rounded" : 3,
					"numinlets" : 1,
					"bgcolor" : [ 0.890196, 0.870588, 1.0, 1.0 ],
					"numoutlets" : 0,
					"border" : 1
				}

			}
, 			{
				"box" : 				{
					"maxclass" : "panel",
					"bordercolor" : [ 0.745098, 0.745098, 0.745098, 1.0 ],
					"patching_rect" : [ 1.0, 246.0, 362.0, 220.0 ],
					"id" : "obj-41",
					"rounded" : 3,
					"numinlets" : 1,
					"bgcolor" : [ 0.890196, 0.870588, 1.0, 1.0 ],
					"numoutlets" : 0,
					"border" : 1
				}

			}
, 			{
				"box" : 				{
					"maxclass" : "panel",
					"bordercolor" : [ 0.745098, 0.745098, 0.745098, 1.0 ],
					"patching_rect" : [ 183.0, 24.0, 180.0, 220.0 ],
					"id" : "obj-42",
					"rounded" : 3,
					"numinlets" : 1,
					"bgcolor" : [ 0.890196, 0.870588, 1.0, 1.0 ],
					"numoutlets" : 0,
					"border" : 1
				}

			}
 ],
		"lines" : [ 			{
				"patchline" : 				{
					"source" : [ "obj-29", 0 ],
					"destination" : [ "obj-28", 1 ],
					"hidden" : 1,
					"midpoints" : [ 310.0, 205.0, 308.5, 205.0 ]
				}

			}
, 			{
				"patchline" : 				{
					"source" : [ "obj-10", 6 ],
					"destination" : [ "obj-28", 1 ],
					"hidden" : 1,
					"color" : [ 0.6, 0.4, 0.6, 1.0 ],
					"midpoints" : [ 151.961533, 15.0, 308.5, 15.0 ]
				}

			}
, 			{
				"patchline" : 				{
					"source" : [ "obj-10", 13 ],
					"destination" : [ "obj-22", 0 ],
					"hidden" : 1,
					"color" : [ 1.0, 0.360784, 0.682353, 1.0 ],
					"midpoints" : [ 306.5, 19.0, 313.0, 19.0 ]
				}

			}
, 			{
				"patchline" : 				{
					"source" : [ "obj-10", 7 ],
					"destination" : [ "obj-29", 0 ],
					"hidden" : 1,
					"color" : [ 0.6, 0.4, 0.6, 1.0 ],
					"midpoints" : [ 174.038467, 15.0, 313.0, 15.0 ]
				}

			}
, 			{
				"patchline" : 				{
					"source" : [ "obj-1", 0 ],
					"destination" : [ "obj-10", 5 ],
					"hidden" : 0,
					"midpoints" : [  ]
				}

			}
, 			{
				"patchline" : 				{
					"source" : [ "obj-22", 0 ],
					"destination" : [ "obj-21", 1 ],
					"hidden" : 1,
					"midpoints" : [ 310.0, 429.0, 315.0, 429.0, 315.0, 406.0, 290.5, 406.0 ]
				}

			}
, 			{
				"patchline" : 				{
					"source" : [ "obj-21", 1 ],
					"destination" : [ "obj-19", 0 ],
					"hidden" : 1,
					"midpoints" : [ 290.5, 425.0, 291.5, 425.0 ]
				}

			}
, 			{
				"patchline" : 				{
					"source" : [ "obj-10", 10 ],
					"destination" : [ "obj-19", 0 ],
					"hidden" : 1,
					"color" : [ 1.0, 0.360784, 0.682353, 1.0 ],
					"midpoints" : [ 240.269226, 7.0, 291.5, 7.0 ]
				}

			}
, 			{
				"patchline" : 				{
					"source" : [ "obj-28", 1 ],
					"destination" : [ "obj-26", 0 ],
					"hidden" : 1,
					"midpoints" : [ 308.5, 196.0, 291.0, 196.0, 291.0, 197.0, 291.5, 197.0 ]
				}

			}
, 			{
				"patchline" : 				{
					"source" : [ "obj-30", 0 ],
					"destination" : [ "obj-28", 0 ],
					"hidden" : 1,
					"midpoints" : [ 228.0, 176.0, 257.5, 176.0 ]
				}

			}
, 			{
				"patchline" : 				{
					"source" : [ "obj-10", 4 ],
					"destination" : [ "obj-28", 0 ],
					"hidden" : 1,
					"color" : [ 0.6, 0.4, 0.6, 1.0 ],
					"midpoints" : [ 107.807693, 15.0, 257.5, 15.0 ]
				}

			}
, 			{
				"patchline" : 				{
					"source" : [ "obj-7", 0 ],
					"destination" : [ "obj-10", 4 ],
					"hidden" : 1,
					"midpoints" : [  ]
				}

			}
, 			{
				"patchline" : 				{
					"source" : [ "obj-23", 0 ],
					"destination" : [ "obj-21", 0 ],
					"hidden" : 1,
					"midpoints" : [ 179.0, 429.0, 239.0, 429.0, 239.0, 407.0, 244.5, 407.0 ]
				}

			}
, 			{
				"patchline" : 				{
					"source" : [ "obj-10", 5 ],
					"destination" : [ "obj-30", 0 ],
					"hidden" : 1,
					"color" : [ 0.6, 0.4, 0.6, 1.0 ],
					"midpoints" : [ 129.884613, 15.0, 231.0, 15.0 ]
				}

			}
, 			{
				"patchline" : 				{
					"source" : [ "obj-28", 0 ],
					"destination" : [ "obj-27", 0 ],
					"hidden" : 1,
					"midpoints" : [ 257.5, 203.0, 243.0, 203.0, 243.0, 203.0, 202.5, 203.0 ]
				}

			}
, 			{
				"patchline" : 				{
					"source" : [ "obj-3", 0 ],
					"destination" : [ "obj-10", 3 ],
					"hidden" : 1,
					"midpoints" : [  ]
				}

			}
, 			{
				"patchline" : 				{
					"source" : [ "obj-10", 12 ],
					"destination" : [ "obj-23", 0 ],
					"hidden" : 1,
					"color" : [ 0.611765, 0.701961, 1.0, 1.0 ],
					"midpoints" : [ 284.423065, 19.0, 182.0, 19.0 ]
				}

			}
, 			{
				"patchline" : 				{
					"source" : [ "obj-21", 0 ],
					"destination" : [ "obj-20", 0 ],
					"hidden" : 1,
					"midpoints" : [ 244.5, 427.0, 161.5, 427.0 ]
				}

			}
, 			{
				"patchline" : 				{
					"source" : [ "obj-10", 9 ],
					"destination" : [ "obj-20", 0 ],
					"hidden" : 1,
					"color" : [ 0.611765, 0.701961, 1.0, 1.0 ],
					"midpoints" : [ 218.192307, 7.0, 161.5, 7.0 ]
				}

			}
, 			{
				"patchline" : 				{
					"source" : [ "obj-22", 0 ],
					"destination" : [ "obj-12", 0 ],
					"hidden" : 1,
					"color" : [ 1.0, 0.360784, 0.682353, 1.0 ],
					"midpoints" : [ 310.0, 483.0, 140.0, 483.0 ]
				}

			}
, 			{
				"patchline" : 				{
					"source" : [ "obj-8", 0 ],
					"destination" : [ "obj-10", 2 ],
					"hidden" : 1,
					"midpoints" : [  ]
				}

			}
, 			{
				"patchline" : 				{
					"source" : [ "obj-10", 3 ],
					"destination" : [ "obj-36", 0 ],
					"hidden" : 1,
					"color" : [ 0.156863, 0.8, 0.54902, 1.0 ],
					"midpoints" : [ 85.730766, 15.0, 131.0, 15.0 ]
				}

			}
, 			{
				"patchline" : 				{
					"source" : [ "obj-36", 0 ],
					"destination" : [ "obj-35", 1 ],
					"hidden" : 1,
					"midpoints" : [ 128.0, 174.0, 114.5, 174.0 ]
				}

			}
, 			{
				"patchline" : 				{
					"source" : [ "obj-10", 2 ],
					"destination" : [ "obj-35", 1 ],
					"hidden" : 1,
					"color" : [ 0.156863, 0.8, 0.54902, 1.0 ],
					"midpoints" : [ 63.653847, 15.0, 114.5, 15.0 ]
				}

			}
, 			{
				"patchline" : 				{
					"source" : [ "obj-23", 0 ],
					"destination" : [ "obj-13", 0 ],
					"hidden" : 1,
					"color" : [ 0.611765, 0.701961, 1.0, 1.0 ],
					"midpoints" : [ 179.0, 483.0, 120.0, 483.0 ]
				}

			}
, 			{
				"patchline" : 				{
					"source" : [ "obj-35", 1 ],
					"destination" : [ "obj-33", 0 ],
					"hidden" : 1,
					"midpoints" : [ 114.5, 199.0, 63.0, 199.0, 63.0, 202.0, 109.5, 202.0 ]
				}

			}
, 			{
				"patchline" : 				{
					"source" : [ "obj-2", 0 ],
					"destination" : [ "obj-11", 0 ],
					"hidden" : 1,
					"color" : [ 1.0, 0.890196, 0.090196, 1.0 ],
					"midpoints" : [ 46.0, 483.0, 102.0, 483.0 ]
				}

			}
, 			{
				"patchline" : 				{
					"source" : [ "obj-4", 0 ],
					"destination" : [ "obj-10", 1 ],
					"hidden" : 1,
					"midpoints" : [  ]
				}

			}
, 			{
				"patchline" : 				{
					"source" : [ "obj-29", 0 ],
					"destination" : [ "obj-14", 0 ],
					"hidden" : 1,
					"color" : [ 0.6, 0.4, 0.6, 1.0 ],
					"midpoints" : [ 310.0, 414.0, -2.0, 414.0, -2.0, 483.0, 67.0, 483.0 ]
				}

			}
, 			{
				"patchline" : 				{
					"source" : [ "obj-37", 0 ],
					"destination" : [ "obj-35", 0 ],
					"hidden" : 1,
					"midpoints" : [ 46.0, 177.0, 65.5, 177.0 ]
				}

			}
, 			{
				"patchline" : 				{
					"source" : [ "obj-10", 0 ],
					"destination" : [ "obj-35", 0 ],
					"hidden" : 1,
					"color" : [ 0.156863, 0.8, 0.54902, 1.0 ],
					"midpoints" : [ 19.5, 16.0, 65.5, 16.0 ]
				}

			}
, 			{
				"patchline" : 				{
					"source" : [ "obj-10", 11 ],
					"destination" : [ "obj-2", 0 ],
					"hidden" : 1,
					"color" : [ 1.0, 0.890196, 0.090196, 1.0 ],
					"midpoints" : [ 262.346161, 15.0, 189.0, 15.0, 189.0, 240.0, 49.0, 240.0 ]
				}

			}
, 			{
				"patchline" : 				{
					"source" : [ "obj-10", 1 ],
					"destination" : [ "obj-37", 0 ],
					"hidden" : 1,
					"color" : [ 0.156863, 0.8, 0.54902, 1.0 ],
					"midpoints" : [ 41.576923, 16.0, 49.0, 16.0 ]
				}

			}
, 			{
				"patchline" : 				{
					"source" : [ "obj-30", 0 ],
					"destination" : [ "obj-15", 0 ],
					"hidden" : 1,
					"color" : [ 0.6, 0.4, 0.6, 1.0 ],
					"midpoints" : [ 228.0, 414.0, -2.0, 414.0, -2.0, 483.0, 47.0, 483.0 ]
				}

			}
, 			{
				"patchline" : 				{
					"source" : [ "obj-10", 8 ],
					"destination" : [ "obj-5", 0 ],
					"hidden" : 1,
					"color" : [ 1.0, 0.890196, 0.090196, 1.0 ],
					"midpoints" : [ 196.115387, 15.0, 188.0, 15.0, 188.0, 395.0, 20.5, 395.0 ]
				}

			}
, 			{
				"patchline" : 				{
					"source" : [ "obj-35", 0 ],
					"destination" : [ "obj-34", 0 ],
					"hidden" : 1,
					"midpoints" : [ 65.5, 197.0, 16.0, 197.0, 16.0, 202.0, 20.5, 202.0 ]
				}

			}
, 			{
				"patchline" : 				{
					"source" : [ "obj-9", 0 ],
					"destination" : [ "obj-10", 0 ],
					"hidden" : 1,
					"midpoints" : [  ]
				}

			}
, 			{
				"patchline" : 				{
					"source" : [ "obj-36", 0 ],
					"destination" : [ "obj-16", 0 ],
					"hidden" : 1,
					"color" : [ 0.156863, 0.8, 0.54902, 1.0 ],
					"midpoints" : [ 128.0, 201.0, -20.0, 201.0, -20.0, 483.0, 12.0, 483.0 ]
				}

			}
, 			{
				"patchline" : 				{
					"source" : [ "obj-37", 0 ],
					"destination" : [ "obj-17", 0 ],
					"hidden" : 1,
					"color" : [ 0.156863, 0.8, 0.54902, 1.0 ],
					"midpoints" : [ 46.0, 201.0, -20.0, 201.0, -20.0, 483.0, -8.0, 483.0 ]
				}

			}
 ]
	}

}
