#N canvas 64 265 542 517 10;
#X obj 99 274 avian-syrinx-model;
#X obj 310 58 articulate;
#X obj 227 49 lin3;
#X floatatom 42 150 5 0 0 0 - - -;
#X floatatom 83 151 5 0 0 0 - - -;
#X floatatom 147 214 5 0 100 0 - - -;
#X floatatom 236 214 5 0 0 0 - - -;
#X obj 95 408 dac~;
#X obj 147 237 / 100;
#X obj 97 339 trachea;
#X obj 80 185 vposc;
#X obj 124 185 vposc;
#X floatatom 122 152 5 0 0 0 - - -;
#X floatatom 163 153 5 0 0 0 - - -;
#X floatatom 188 214 5 0 1000 0 - - -;
#X floatatom 327 106 5 0 0 0 - - -;
#X floatatom 369 106 5 0 0 0 - - -;
#X floatatom 410 107 5 0 0 0 - - -;
#X floatatom 279 214 5 0 100 0 - - -;
#X floatatom 134 303 5 200 4500 0 - - -;
#X floatatom 266 303 5 1 5 0 - - -;
#X floatatom 174 303 5 200 4500 0 - - -;
#X floatatom 216 303 5 200 4500 0 - - -;
#X obj 95 379 *~ 0.9;
#X connect 0 0 9 0;
#X connect 3 0 10 0;
#X connect 4 0 10 1;
#X connect 5 0 8 0;
#X connect 6 0 0 4;
#X connect 8 0 0 2;
#X connect 9 0 23 0;
#X connect 10 0 0 0;
#X connect 11 0 0 1;
#X connect 12 0 11 0;
#X connect 13 0 11 1;
#X connect 14 0 0 3;
#X connect 18 0 0 5;
#X connect 19 0 9 1;
#X connect 20 0 9 4;
#X connect 21 0 9 2;
#X connect 22 0 9 3;
#X connect 23 0 7 0;
#X connect 23 0 7 1;
