#N canvas 397 158 244 308 10;
#N canvas 73 160 290 192 envelope 1;
#X obj 105 5 inlet attack;
#X obj 201 5 inlet decay;
#X obj 58 146 line~;
#X msg 58 114 1 \$1;
#X msg 98 114 0 \$1;
#X obj 4 5 inlet trigger;
#X obj 4 37 t b b;
#X obj 58 91 f;
#X obj 98 91 f;
#X obj 98 69 del;
#X obj 58 170 outlet~ envelope;
#X connect 0 0 7 1;
#X connect 0 0 9 1;
#X connect 1 0 8 1;
#X connect 2 0 10 0;
#X connect 3 0 2 0;
#X connect 4 0 2 0;
#X connect 5 0 6 0;
#X connect 6 0 7 0;
#X connect 6 1 9 0;
#X connect 7 0 3 0;
#X connect 8 0 4 0;
#X connect 9 0 8 0;
#X restore -2 119 pd envelope;
#X floatatom 34 88 4 0 0 0 - - -;
#X floatatom 70 88 5 0 0 0 - - -;
#X obj -2 245 *~;
#X obj -2 271 dac~;
#N canvas 73 160 290 192 envelope 1;
#X obj 105 5 inlet attack;
#X obj 201 5 inlet decay;
#X obj 58 146 line~;
#X msg 58 114 1 \$1;
#X msg 98 114 0 \$1;
#X obj 4 5 inlet trigger;
#X obj 4 37 t b b;
#X obj 58 91 f;
#X obj 98 91 f;
#X obj 98 69 del;
#X obj 58 170 outlet~ envelope;
#X connect 0 0 7 1;
#X connect 0 0 9 1;
#X connect 1 0 8 1;
#X connect 2 0 10 0;
#X connect 3 0 2 0;
#X connect 4 0 2 0;
#X connect 5 0 6 0;
#X connect 6 0 7 0;
#X connect 6 1 9 0;
#X connect 7 0 3 0;
#X connect 8 0 4 0;
#X connect 9 0 8 0;
#X restore 112 118 pd envelope;
#X floatatom 148 87 4 0 0 0 - - -;
#X floatatom 184 87 5 0 0 0 - - -;
#X obj -2 62 trigger bang bang;
#X obj 14 201 vcf~ 1 1;
#X obj 112 166 *~ 2000;
#X obj 14 170 phasor~ 55;
#X obj 14 -9 notein;
#X obj 14 150 mtof;
#X obj 32 12 > 0;
#X obj 32 35 sel 1;
#X connect 0 0 3 0;
#X connect 1 0 0 1;
#X connect 2 0 0 2;
#X connect 3 0 4 0;
#X connect 3 0 4 1;
#X connect 5 0 10 0;
#X connect 6 0 5 1;
#X connect 7 0 5 2;
#X connect 8 0 0 0;
#X connect 8 1 5 0;
#X connect 9 0 3 1;
#X connect 10 0 9 1;
#X connect 11 0 9 0;
#X connect 12 0 13 0;
#X connect 12 1 14 0;
#X connect 13 0 11 0;
#X connect 14 0 15 0;
#X connect 15 0 8 0;
