#N canvas 299 174 280 125 10;
#X obj 106 120 hsl 128 15 0 127 0 1 empty empty Clobber 40 7 1 8 -262144
-1 -1 0 1;
#X obj 106 140 hsl 128 15 0 127 0 1 empty empty Ooomph 40 7 1 8 -262144
-1 -1 0 1;
#X obj 106 160 hsl 128 15 0 127 0 1 empty empty Knarleyness 40 7 1
8 -262144 -1 -1 0 1;
#N canvas 0 0 450 300 hardsynth 0;
#X obj 115 56 inlet;
#X obj 160 56 inlet;
#X obj 206 55 inlet;
#X obj 148 127 outlet~;
#X obj 66 56 inlet;
#X restore 24 189 pd hardsynth;
#X obj 24 101 inlet midi note;
#X connect 0 0 3 1;
#X connect 1 0 3 2;
#X connect 2 0 3 3;
#X connect 4 0 3 0;
#X coords 0 -1 1 1 140 80 1 100 100;
