#N canvas 233 194 211 138 10;
#N canvas 110 49 250 206 patch 0;
#X obj 0 1 inlet f1;
#X obj 0 74 osc~;
#X obj 64 74 osc~;
#X obj 64 49 + 1;
#X obj 64 1 inlet f2;
#X obj 127 74 osc~;
#X obj 190 74 osc~;
#X obj 190 1 inlet f4;
#X obj 127 1 inlet f3;
#N canvas 0 0 450 300 ringmod 0;
#X obj 98 42 inlet~;
#X obj 148 42 inlet~;
#X obj 117 130 outlet~;
#X obj 116 78 *~;
#X obj 117 103 +~;
#X connect 0 0 3 0;
#X connect 0 0 4 1;
#X connect 1 0 3 1;
#X connect 1 0 4 1;
#X connect 3 0 4 0;
#X connect 4 0 2 0;
#X restore 0 101 pd ringmod;
#N canvas 0 0 450 300 ringmod 0;
#X obj 98 42 inlet~;
#X obj 148 42 inlet~;
#X obj 117 130 outlet~;
#X obj 116 78 *~;
#X obj 117 103 +~;
#X connect 0 0 3 0;
#X connect 0 0 4 1;
#X connect 1 0 3 1;
#X connect 1 0 4 1;
#X connect 3 0 4 0;
#X connect 4 0 2 0;
#X restore 126 99 pd ringmod;
#N canvas 0 0 450 300 ringmod 0;
#X obj 98 42 inlet~;
#X obj 148 42 inlet~;
#X obj 117 130 outlet~;
#X obj 116 78 *~;
#X obj 117 103 +~;
#X connect 0 0 3 0;
#X connect 0 0 4 1;
#X connect 1 0 3 1;
#X connect 1 0 4 1;
#X connect 3 0 4 0;
#X connect 4 0 2 0;
#X restore 0 138 pd ringmod;
#X obj 0 187 outlet~;
#X obj 127 26 * 2000;
#X obj 127 49 + 10;
#X obj 0 26 * 100;
#X obj 0 49 + 0.1;
#X obj 64 26 * 500;
#X obj 190 26 * 5000;
#X obj 190 49 + 100;
#X obj 0 162 *~ 0.05;
#X connect 0 0 15 0;
#X connect 1 0 9 0;
#X connect 2 0 9 1;
#X connect 3 0 2 0;
#X connect 4 0 17 0;
#X connect 5 0 10 0;
#X connect 6 0 10 1;
#X connect 7 0 18 0;
#X connect 8 0 13 0;
#X connect 9 0 11 0;
#X connect 10 0 11 1;
#X connect 11 0 20 0;
#X connect 13 0 14 0;
#X connect 14 0 5 0;
#X connect 15 0 16 0;
#X connect 16 0 1 0;
#X connect 17 0 3 0;
#X connect 18 0 19 0;
#X connect 19 0 6 0;
#X connect 20 0 12 0;
#X restore 8 91 pd patch;
#X obj 72 25 hsl 128 15 0 1 0 1 empty empty freq_2 30 7 1 8 -262144
-1 -1 2700 1;
#X obj 72 5 hsl 128 15 0 1 0 1 empty empty freq_1 30 7 1 8 -262144
-1 -1 3700 1;
#X obj 72 45 hsl 128 15 0 1 0 1 empty empty freq_3 30 7 1 8 -262144
-1 -1 2300 1;
#X obj 72 65 hsl 128 15 0 1 0 1 empty empty freq_4 30 7 1 8 -262144
-1 -1 1100 1;
#X obj 9 118 dac~;
#X connect 0 0 5 0;
#X connect 0 0 5 1;
#X connect 1 0 0 1;
#X connect 2 0 0 0;
#X connect 3 0 0 2;
#X connect 4 0 0 3;
