#N canvas 233 194 389 383 10;
#X msg 16 26 badger 100;
#X floatatom 7 161 5 0 0 0 - - -;
#X obj 61 330 route button breakfast;
#X floatatom 61 357 5 0 0 0 - - -;
#X floatatom 210 355 5 0 0 0 - - -;
#X floatatom 135 356 5 0 0 0 - - -;
#X msg 27 50 mushroom 10;
#X msg 38 74 mushroom button 50;
#X obj 116 285 route viper rattle;
#X obj 7 137 route badger mushroom snake bird;
#X floatatom 116 308 5 0 0 0 - - -;
#X floatatom 176 308 5 0 0 0 - - -;
#X floatatom 237 307 5 0 0 0 - - -;
#X floatatom 320 202 5 0 0 0 - - -;
#X obj 171 181 route swallow starling;
#X obj 171 226 route african european;
#X floatatom 245 203 5 0 0 0 - - -;
#X obj 245 252 route laden unladen;
#X floatatom 309 274 5 0 0 0 - - -;
#X msg 47 100 bird swallow european unladen 25;
#X floatatom 226 160 5 0 0 0 - - -;
#X msg 7 3 1;
#X connect 0 0 9 0;
#X connect 2 0 3 0;
#X connect 2 1 5 0;
#X connect 2 2 4 0;
#X connect 6 0 9 0;
#X connect 7 0 9 0;
#X connect 8 0 10 0;
#X connect 8 1 11 0;
#X connect 8 2 12 0;
#X connect 9 0 1 0;
#X connect 9 1 2 0;
#X connect 9 2 8 0;
#X connect 9 3 14 0;
#X connect 9 4 20 0;
#X connect 14 0 15 0;
#X connect 14 1 16 0;
#X connect 14 2 13 0;
#X connect 15 1 17 0;
#X connect 17 1 18 0;
#X connect 19 0 9 0;
#X connect 21 0 9 0;
