#N canvas 231 193 632 245 10;
#N canvas 0 0 450 300 harmonic 0;
#X obj 109 48 inlet~;
#X obj 110 117 +~;
#X obj 110 146 outlet~;
#X obj 166 73 osc~;
#X obj 166 47 inlet f;
#X connect 0 0 1 0;
#X connect 1 0 2 0;
#X connect 3 0 1 1;
#X connect 4 0 3 0;
#X restore 129 43 pd harmonic;
#X obj 2 44 inlet~;
#X obj 3 113 +~;
#X obj 3 142 outlet~;
#X obj 19 87 osc~;
#X obj 19 67 inlet f;
#N canvas 0 0 450 300 harmonic 0;
#X obj 109 48 inlet~;
#X obj 110 117 +~;
#X obj 110 146 outlet~;
#X obj 166 73 osc~;
#X obj 166 47 inlet f;
#X connect 0 0 1 0;
#X connect 1 0 2 0;
#X connect 3 0 1 1;
#X connect 4 0 3 0;
#X restore 129 66 pd harmonic;
#N canvas 0 0 450 300 harmonic 0;
#X obj 109 48 inlet~;
#X obj 110 117 +~;
#X obj 110 146 outlet~;
#X obj 166 73 osc~;
#X obj 166 47 inlet f;
#X connect 0 0 1 0;
#X connect 1 0 2 0;
#X connect 3 0 1 1;
#X connect 4 0 3 0;
#X restore 129 89 pd harmonic;
#N canvas 0 0 450 300 harmonic 0;
#X obj 109 48 inlet~;
#X obj 110 117 +~;
#X obj 110 146 outlet~;
#X obj 166 73 osc~;
#X obj 166 47 inlet f;
#X connect 0 0 1 0;
#X connect 1 0 2 0;
#X connect 3 0 1 1;
#X connect 4 0 3 0;
#X restore 129 112 pd harmonic;
#X obj 201 21 unpack f f f f;
#X obj 129 138 *~ 0.25;
#N canvas 0 0 450 300 grapha 0;
#X obj 100 100 cnv 15 100 100 empty empty empty 20 12 0 14 -262144
-66577 0;
#N canvas 0 0 450 300 graph3 0;
#X array A 100 float 0;
#X coords 0 1 99 -1 70 70 1;
#X restore 100 100 graph;
#X obj 210 209 tabwrite~ A;
#X obj 289 155 inlet~;
#X obj 210 130 loadbang;
#X obj 278 131 bng 15 250 50 0 empty empty empty 0 -6 0 8 -262144 -1
-1;
#X obj 217 178 s b;
#X obj 210 155 metro 200;
#X connect 3 0 2 0;
#X connect 4 0 7 0;
#X connect 5 0 7 0;
#X connect 7 0 2 0;
#X connect 7 0 6 0;
#X coords 0 -1 1 1 70 70 1 100 100;
#X restore 153 170 pd grapha;
#N canvas 0 0 450 300 harmonic 0;
#X obj 109 48 inlet~;
#X obj 110 117 +~;
#X obj 110 146 outlet~;
#X obj 166 73 osc~;
#X obj 166 47 inlet f;
#X connect 0 0 1 0;
#X connect 1 0 2 0;
#X connect 3 0 1 1;
#X connect 4 0 3 0;
#X restore 357 50 pd harmonic;
#N canvas 0 0 450 300 harmonic 0;
#X obj 109 48 inlet~;
#X obj 110 117 +~;
#X obj 110 146 outlet~;
#X obj 166 73 osc~;
#X obj 166 47 inlet f;
#X connect 0 0 1 0;
#X connect 1 0 2 0;
#X connect 3 0 1 1;
#X connect 4 0 3 0;
#X restore 388 71 pd harmonic;
#N canvas 0 0 450 300 harmonic 0;
#X obj 109 48 inlet~;
#X obj 110 117 +~;
#X obj 110 146 outlet~;
#X obj 166 73 osc~;
#X obj 166 47 inlet f;
#X connect 0 0 1 0;
#X connect 1 0 2 0;
#X connect 3 0 1 1;
#X connect 4 0 3 0;
#X restore 419 93 pd harmonic;
#N canvas 0 0 450 300 harmonic 0;
#X obj 109 48 inlet~;
#X obj 110 117 +~;
#X obj 110 146 outlet~;
#X obj 166 73 osc~;
#X obj 166 47 inlet f;
#X connect 0 0 1 0;
#X connect 1 0 2 0;
#X connect 3 0 1 1;
#X connect 4 0 3 0;
#X restore 450 116 pd harmonic;
#X obj 429 25 unpack f f f f;
#X obj 410 146 *~ 0.25;
#X text 475 146 instead of doing this;
#X msg 201 0 1000 2000 3000 4000;
#X text 209 140 so you can do this;
#X text 3 169 each harmonic is like this inside;
#X msg 429 0 1000 2000 3000 4000;
#X connect 0 0 6 0;
#X connect 1 0 2 0;
#X connect 2 0 3 0;
#X connect 4 0 2 1;
#X connect 5 0 4 0;
#X connect 6 0 7 0;
#X connect 7 0 8 0;
#X connect 8 0 10 0;
#X connect 9 0 0 1;
#X connect 9 1 6 1;
#X connect 9 2 7 1;
#X connect 9 3 8 1;
#X connect 10 0 11 0;
#X connect 12 0 17 0;
#X connect 13 0 17 0;
#X connect 14 0 17 0;
#X connect 15 0 17 0;
#X connect 16 0 12 1;
#X connect 16 1 13 1;
#X connect 16 2 14 1;
#X connect 16 3 15 1;
#X connect 19 0 9 0;
#X connect 22 0 16 0;
