#N canvas 449 345 207 95 10;
#X obj -1 21 my-tabosc;
#X obj 70 21 my-tabosc;
#X obj 140 21 my-tabosc;
#X msg -1 -1 110;
#X msg 70 -1 220;
#X msg 140 -1 330;
#X obj 70 52 *~ 0.333;
#X obj 69 76 dac~;
#X connect 0 0 6 0;
#X connect 1 0 6 0;
#X connect 2 0 6 0;
#X connect 3 0 0 0;
#X connect 4 0 1 0;
#X connect 5 0 2 0;
#X connect 6 0 7 0;
#X connect 6 0 7 1;
