#N canvas 110 121 83 161 10;
#X obj 2 -35 hip~ 200;
#N canvas 231 301 272 275 tincan 1;
#X obj 76 190 *~ 1000;
#X obj 76 232 *~ 0.4;
#X obj -2 0 inlet~;
#X obj 94 1 loadbang;
#X obj 76 253 outlet~;
#X obj 76 211 clip~ -0.6 0.6;
#X msg 94 23 359 426 1748 3000 123;
#X obj 94 45 unpack f f f f f;
#X obj -2 135 bp~ 1 1;
#X obj 76 135 bp~ 1 1;
#X obj 143 136 bp~ 1 1;
#X obj 213 136 bp~ 1 1;
#X obj 76 157 *~ 0.3;
#X obj 143 157 *~ 0.2;
#X obj 213 157 *~ 0.2;
#X obj -2 158 *~ 0.4;
#X connect 0 0 5 0;
#X connect 1 0 4 0;
#X connect 2 0 8 0;
#X connect 2 0 9 0;
#X connect 2 0 10 0;
#X connect 2 0 11 0;
#X connect 3 0 6 0;
#X connect 5 0 1 0;
#X connect 6 0 7 0;
#X connect 7 0 8 1;
#X connect 7 1 9 1;
#X connect 7 2 10 1;
#X connect 7 3 11 1;
#X connect 7 4 9 2;
#X connect 7 4 8 2;
#X connect 7 4 10 2;
#X connect 7 4 11 2;
#X connect 8 0 15 0;
#X connect 9 0 12 0;
#X connect 10 0 13 0;
#X connect 11 0 14 0;
#X connect 12 0 0 0;
#X connect 13 0 0 0;
#X connect 14 0 0 0;
#X connect 15 0 0 0;
#X coords 0 0 1 1 240 160 0;
#X restore 2 -12 pd tincan;
#X obj 2 14 dac~;
#X obj 2 -101 vline~;
#X obj 2 -78 *~;
#X msg 2 -124 1 \, 0 2;
#X obj 2 -56 *~ 0.05;
#X connect 0 0 1 0;
#X connect 1 0 2 0;
#X connect 1 0 2 1;
#X connect 3 0 4 0;
#X connect 3 0 4 1;
#X connect 4 0 6 0;
#X connect 5 0 3 0;
#X connect 6 0 0 0;
