#N canvas 767 150 181 279 10;
#X obj 0 -98 noise~;
#X obj 99 76 noise~;
#X obj 35 138 *~;
#X obj 35 58 ln~;
#X obj 35 79 *~ -2;
#X obj 35 158 outlet~;
#X obj 98 -46 sig~ 1;
#X obj 98 -21 -~;
#X obj 35 12 *~;
#X obj 35 36 +~;
#X obj 0 -67 max~ 0;
#X obj 51 -67 min~ 0;
#X obj 51 -45 *~ -1;
#X obj 35 -14 +~;
#X obj 114 -73 sig~ \$1;
#X obj 99 99 cos~;
#X obj 35 100 q8_sqrt~;
#X connect 0 0 10 0;
#X connect 0 0 11 0;
#X connect 1 0 15 0;
#X connect 2 0 5 0;
#X connect 3 0 4 0;
#X connect 4 0 16 0;
#X connect 6 0 7 0;
#X connect 7 0 9 1;
#X connect 8 0 9 0;
#X connect 9 0 3 0;
#X connect 10 0 13 0;
#X connect 11 0 12 0;
#X connect 12 0 13 1;
#X connect 13 0 8 0;
#X connect 14 0 8 1;
#X connect 14 0 7 1;
#X connect 15 0 2 1;
#X connect 16 0 2 0;
