#N canvas 71 186 388 231 10;
#X obj -23 192 *~;
#X obj 62 191 *~;
#X obj 190 189 *~;
#X obj 276 192 *~;
#X obj -23 171 osc~ \$5;
#X obj 62 168 osc~ \$6;
#X obj 190 166 osc~ \$7;
#X obj 276 169 osc~ \$8;
#X obj -7 104 *~ \$11;
#X obj 78 103 *~ \$11;
#X obj 206 101 *~ \$11;
#X obj 292 104 *~ \$11;
#X obj -7 128 bp~ \$1 \$12;
#X obj 78 128 bp~ \$2 \$12;
#X obj 206 130 bp~ \$3 \$12;
#X obj 292 131 bp~ \$4 \$12;
#X obj 77 26 catch~ \$0-a;
#X obj 208 26 catch~ \$0-b;
#X obj -23 213 throw~ \$0-b;
#X obj 62 213 throw~ \$0-a;
#X obj 190 213 throw~ \$0-b;
#X obj 276 213 throw~ \$0-a;
#X obj 152 0 inlet~;
#X obj 122 161 outlet~;
#X obj 78 80 delread~ \$0-a \$9;
#X obj 77 56 delwrite~ \$0-a 300;
#X obj 206 78 delread~ \$0-b \$10;
#X obj 208 57 delwrite~ \$0-b 300;
#X connect 0 0 18 0;
#X connect 1 0 19 0;
#X connect 2 0 20 0;
#X connect 3 0 21 0;
#X connect 4 0 0 0;
#X connect 5 0 1 0;
#X connect 6 0 2 0;
#X connect 7 0 3 0;
#X connect 8 0 12 0;
#X connect 9 0 13 0;
#X connect 9 0 23 0;
#X connect 10 0 14 0;
#X connect 10 0 23 0;
#X connect 11 0 15 0;
#X connect 12 0 0 1;
#X connect 13 0 1 1;
#X connect 14 0 2 1;
#X connect 15 0 3 1;
#X connect 16 0 25 0;
#X connect 17 0 27 0;
#X connect 22 0 25 0;
#X connect 22 0 27 0;
#X connect 24 0 8 0;
#X connect 24 0 9 0;
#X connect 26 0 10 0;
#X connect 26 0 11 0;
