#N canvas 0 0 122 445 10;
#X obj 5 -146 phasor~;
#X obj 5 -83 *~;
#X obj 5 -125 -~ 0.25;
#X obj 5 -104 cos~;
#X obj 21 -249 *~;
#X obj 5 -278 lop~ 500;
#X obj 5 -188 *~ 80;
#X obj 5 -167 +~ 40;
#X obj 21 -228 *~ 10;
#X obj 5 -17 *~ 0.5;
#X obj 4 50 outlet~;
#X obj 5 -320 gaussianoise 0.4;
#X obj 5 -297 bp~ \$1 0.4;
#X obj 5 -61 max~ \$2;
#X obj 5 -40 -~ \$2;
#X obj 67 48 outlet~;
#X connect 0 0 2 0;
#X connect 0 0 15 0;
#X connect 1 0 13 0;
#X connect 2 0 3 0;
#X connect 3 0 1 0;
#X connect 4 0 8 0;
#X connect 5 0 6 0;
#X connect 5 0 4 0;
#X connect 5 0 4 1;
#X connect 6 0 7 0;
#X connect 7 0 0 0;
#X connect 8 0 1 1;
#X connect 9 0 10 0;
#X connect 11 0 12 0;
#X connect 12 0 5 0;
#X connect 13 0 14 0;
#X connect 14 0 9 0;
