#N canvas 599 163 297 465 10;
#X obj 85 277 osc~;
#X obj 85 256 *~;
#X obj 40 302 *~;
#X obj 41 389 dac~;
#X obj 2 223 *~;
#X obj 111 138 vline~;
#X obj 111 -31 threshold~ 0.01 1 0.01 1;
#X obj 111 93 f;
#X obj 2 247 *~;
#X obj 2 175 sig~ 1;
#X obj 2 199 -~;
#X msg 111 114 0 \, 1 \$1;
#X obj 40 323 *~;
#X obj 174 81 + 2;
#X obj 208 102 + 400;
#X obj 2 269 lop~ 12;
#X obj 141 11 random 1000;
#X obj 174 59 / 100;
#X obj 241 123 / 1000;
#X obj 208 81 / 5;
#X obj 141 35 trigger f f f f;
#X obj 141 59 / 7;
#X obj 40 344 lop~ 1000;
#X obj 111 180 delread~ a 3;
#X obj 111 159 delwrite~ a 3;
#X obj 111 -52 raindrops 20 0.1;
#X obj 111 -10 t b b;
#X obj 85 237 pow~;
#X obj 41 365 *~ 0.1;
#X obj 84 208 sig~;
#X connect 0 0 2 1;
#X connect 1 0 0 0;
#X connect 2 0 12 0;
#X connect 4 0 8 0;
#X connect 4 0 8 1;
#X connect 5 0 10 1;
#X connect 5 0 24 0;
#X connect 6 0 26 0;
#X connect 7 0 11 0;
#X connect 8 0 15 0;
#X connect 9 0 10 0;
#X connect 10 0 4 0;
#X connect 10 0 4 1;
#X connect 11 0 5 0;
#X connect 12 0 22 0;
#X connect 13 0 29 0;
#X connect 14 0 1 1;
#X connect 15 0 2 0;
#X connect 16 0 20 0;
#X connect 17 0 13 0;
#X connect 18 0 12 1;
#X connect 19 0 14 0;
#X connect 20 0 21 0;
#X connect 20 1 17 0;
#X connect 20 2 19 0;
#X connect 20 3 18 0;
#X connect 21 0 7 1;
#X connect 22 0 28 0;
#X connect 23 0 27 1;
#X connect 25 0 6 0;
#X connect 26 0 7 0;
#X connect 26 1 16 0;
#X connect 27 0 1 0;
#X connect 28 0 3 1;
#X connect 28 0 3 0;
#X connect 29 0 27 0;
