#N canvas 676 292 211 504 10;
#X obj 5 100 dac~;
#X obj 5 -146 phasor~;
#X obj 5 -83 *~;
#X obj 5 -125 -~ 0.25;
#X obj 5 -104 cos~;
#X obj 21 -249 *~;
#X obj 5 -278 lop~ 500;
#X obj 5 -188 *~ 80;
#X obj 5 -167 +~ 40;
#X obj 21 -228 *~ 10;
#X obj 5 -297 bp~ 50 0.4;
#N canvas 0 0 450 300 grapha 0;
#X obj 100 100 cnv 15 100 100 empty empty empty 20 12 0 14 -262144
-66577 0;
#N canvas 0 0 450 300 graph3 0;
#X array A 2048 float 0;
#X coords 0 1 2047 -1 100 100 1;
#X restore 100 100 graph;
#X obj 210 209 tabwrite~ A;
#X obj 289 155 inlet~;
#X obj 210 130 loadbang;
#X obj 278 131 bng 15 250 50 0 empty empty empty 0 -6 0 8 -262144 -1
-1;
#X obj 217 178 s b;
#X obj 210 155 metro 200;
#X connect 3 0 2 0;
#X connect 4 0 7 0;
#X connect 5 0 7 0;
#X connect 7 0 2 0;
#X connect 7 0 6 0;
#X coords 0 -1 1 1 100 100 1 100 100;
#X restore 83 -43 pd grapha;
#N canvas 0 0 450 300 grapha 0;
#X obj 100 100 cnv 15 100 100 empty empty empty 20 12 0 14 -262144
-66577 0;
#N canvas 0 0 450 300 graph3 0;
#X array B 2048 float 0;
#X coords 0 1 2047 -1 100 100 1;
#X restore 100 100 graph;
#X obj 289 155 inlet~;
#X obj 210 182 tabwrite~ B;
#X obj 210 156 r b;
#X connect 2 0 3 0;
#X connect 4 0 3 0;
#X coords 0 -1 1 1 100 100 1 100 100;
#X restore 84 70 pd grapha;
#X obj 5 -12 -~ 0.35;
#X obj 5 -33 max~ 0.35;
#X obj 5 29 *~ 0.5;
#X obj 5 51 hip~ 500;
#X obj 5 73 hip~ 500;
#X obj 5 -320 gaussianoise 0.4;
#X connect 1 0 3 0;
#X connect 2 0 11 0;
#X connect 2 0 14 0;
#X connect 3 0 4 0;
#X connect 4 0 2 0;
#X connect 5 0 9 0;
#X connect 6 0 7 0;
#X connect 6 0 5 0;
#X connect 6 0 5 1;
#X connect 7 0 8 0;
#X connect 8 0 1 0;
#X connect 9 0 2 1;
#X connect 10 0 6 0;
#X connect 13 0 15 0;
#X connect 13 0 12 0;
#X connect 14 0 13 0;
#X connect 15 0 16 0;
#X connect 16 0 17 0;
#X connect 17 0 0 0;
#X connect 17 0 0 1;
#X connect 18 0 10 0;
