#N canvas 99 23 443 256 10;
#X obj -21 66 dac~;
#X obj -19 -45 hip~ 9000;
#X obj -19 -92 noise~;
#X obj -20 2 glasswindow 2007 1994 1986 1969 254 669 443 551 3.7 4.2
0.61 2.3;
#X obj -19 -69 dropsig 7.7 0.002 0.1 1;
#X obj 32 -145 delread~ a;
#X obj 33 -119 *~ 24;
#X obj 33 -96 +~ 6;
#X obj -21 40 *~ 0.35;
#X obj -20 -23 *~ 20;
#X connect 1 0 9 0;
#X connect 2 0 4 0;
#X connect 3 0 8 0;
#X connect 4 0 1 0;
#X connect 5 0 6 0;
#X connect 6 0 7 0;
#X connect 7 0 4 1;
#X connect 8 0 0 0;
#X connect 8 0 0 1;
#X connect 9 0 3 0;
