#N canvas 157 116 541 236 10;
#X obj 0 164 bp~ 1 1;
#X obj 57 164 bp~ 1 1;
#X obj 115 164 bp~ 1 1;
#X obj 172 164 bp~ 1 1;
#X obj 229 164 bp~ 1 1;
#X obj 286 164 bp~ 1 1;
#X obj 344 164 bp~ 1 1;
#X obj 401 164 bp~ 1 1;
#X obj 0 0 inlet~;
#X obj 131 23 unpack f f f f f f f f;
#X obj 131 0 inlet fs;
#X obj 201 218 outlet~;
#X obj 445 25 f \$1;
#X obj 407 0 inlet res;
#X obj 482 0 loadbang;
#X connect 0 0 11 0;
#X connect 1 0 11 0;
#X connect 2 0 11 0;
#X connect 3 0 11 0;
#X connect 4 0 11 0;
#X connect 5 0 11 0;
#X connect 6 0 11 0;
#X connect 7 0 11 0;
#X connect 8 0 0 0;
#X connect 8 0 1 0;
#X connect 8 0 2 0;
#X connect 8 0 3 0;
#X connect 8 0 4 0;
#X connect 8 0 5 0;
#X connect 8 0 6 0;
#X connect 8 0 7 0;
#X connect 9 0 0 1;
#X connect 9 1 1 1;
#X connect 9 2 2 1;
#X connect 9 3 3 1;
#X connect 9 4 4 1;
#X connect 9 5 5 1;
#X connect 9 6 6 1;
#X connect 9 7 7 1;
#X connect 10 0 9 0;
#X connect 12 0 7 2;
#X connect 12 0 6 2;
#X connect 12 0 5 2;
#X connect 12 0 4 2;
#X connect 12 0 3 2;
#X connect 12 0 2 2;
#X connect 12 0 1 2;
#X connect 12 0 0 2;
#X connect 13 0 12 0;
#X connect 14 0 12 0;
