#N canvas 0 0 450 300 10;
#X obj 112 174 vd~ x;
#X obj 156 173 vd~ x;
#X obj 203 172 vd~ x;
#X obj 202 147 +~;
#X obj 156 118 +~;
#X obj 157 91 +~ 30;
#X obj 219 51 vline~;
#X obj 320 28 delwrite~ x 40;
#X obj 321 3 inlet~;
#X obj 112 219 *~ 0.3;
#X obj 113 247 outlet~;
#X obj 219 4 inlet;
#X msg 219 26 1 \, 1.3 500;
#X connect 0 0 9 0;
#X connect 1 0 9 0;
#X connect 2 0 9 0;
#X connect 3 0 2 0;
#X connect 4 0 1 0;
#X connect 4 0 3 0;
#X connect 5 0 0 0;
#X connect 5 0 4 0;
#X connect 6 0 3 1;
#X connect 6 0 4 1;
#X connect 6 0 5 0;
#X connect 8 0 7 0;
#X connect 9 0 10 0;
#X connect 11 0 12 0;
#X connect 12 0 6 0;
