#N canvas 389 180 171 127 10;
#X obj 78 49 del 200;
#X obj 48 2 inlet;
#N canvas 132 55 99 312 slide 0;
#X obj 0 137 noise~;
#X obj 0 272 *~;
#X msg 46 63 0 0;
#X msg 0 64 1 200;
#X obj 22 89 line;
#X obj 16 112 *;
#X obj 32 184 * 200;
#X obj 0 163 hip~ 1000;
#X obj 0 229 bp~ 1000 4;
#X obj 0 251 *~ 0.03;
#X obj 32 205 + 4500;
#X obj 0 0 inlet;
#X obj 0 20 t b b;
#X obj 0 292 outlet~;
#X obj 46 42 del 200;
#X connect 0 0 7 0;
#X connect 1 0 13 0;
#X connect 2 0 4 0;
#X connect 3 0 4 0;
#X connect 4 0 5 0;
#X connect 4 0 5 1;
#X connect 4 0 6 0;
#X connect 5 0 1 1;
#X connect 6 0 10 0;
#X connect 7 0 8 0;
#X connect 8 0 9 0;
#X connect 9 0 1 0;
#X connect 10 0 8 1;
#X connect 11 0 12 0;
#X connect 12 0 3 0;
#X connect 12 1 14 0;
#X connect 14 0 2 0;
#X restore 7 72 pd slide;
#N canvas 421 507 473 230 ratchet 1;
#N canvas 0 0 472 536 delaychain 0;
#X obj 357 113 del 1;
#X obj 357 157 del 2;
#X obj 357 202 del 3;
#X obj 357 246 del 4;
#X obj 357 284 del 5;
#X obj 357 326 del 6;
#X obj 357 370 del 7;
#X obj 187 229 +;
#X obj 164 254 +;
#X obj 210 204 +;
#X obj 302 104 +;
#X obj 279 129 +;
#X obj 256 154 +;
#X obj 233 179 +;
#X floatatom 399 114 5 0 0 0 - - -;
#X floatatom 327 30 5 0 0 0 - - -;
#X floatatom 397 159 5 0 0 0 - - -;
#X obj 314 50 + 0;
#X floatatom 400 204 5 0 0 0 - - -;
#X floatatom 399 247 5 0 0 0 - - -;
#X floatatom 400 284 5 0 0 0 - - -;
#X floatatom 400 329 5 0 0 0 - - -;
#X floatatom 403 374 5 0 0 0 - - -;
#X floatatom 402 417 5 0 0 0 - - -;
#X obj 357 416 del 8;
#X obj 314 9 inlet diff;
#X obj 222 8 inlet ctrl;
#X obj 4 470 outlet;
#X obj 54 470 outlet;
#X obj 104 470 outlet;
#X obj 154 470 outlet;
#X obj 204 469 outlet;
#X obj 254 469 outlet;
#X obj 304 469 outlet;
#X obj 354 469 outlet;
#X obj 325 79 + 0;
#X connect 0 0 1 0;
#X connect 0 0 27 0;
#X connect 1 0 2 0;
#X connect 1 0 28 0;
#X connect 2 0 3 0;
#X connect 2 0 29 0;
#X connect 3 0 4 0;
#X connect 3 0 30 0;
#X connect 4 0 5 0;
#X connect 4 0 31 0;
#X connect 5 0 6 0;
#X connect 5 0 32 0;
#X connect 6 0 24 0;
#X connect 6 0 33 0;
#X connect 7 0 8 1;
#X connect 7 0 6 1;
#X connect 7 0 22 0;
#X connect 8 0 24 0;
#X connect 8 0 23 0;
#X connect 9 0 7 1;
#X connect 9 0 5 1;
#X connect 9 0 21 0;
#X connect 10 0 11 1;
#X connect 10 0 16 0;
#X connect 10 0 1 1;
#X connect 11 0 12 1;
#X connect 11 0 2 1;
#X connect 11 0 18 0;
#X connect 12 0 13 1;
#X connect 12 0 3 1;
#X connect 12 0 19 0;
#X connect 13 0 9 1;
#X connect 13 0 4 1;
#X connect 13 0 20 0;
#X connect 17 0 10 0;
#X connect 17 0 11 0;
#X connect 17 0 12 0;
#X connect 17 0 13 0;
#X connect 17 0 9 0;
#X connect 17 0 7 0;
#X connect 17 0 8 0;
#X connect 17 0 35 0;
#X connect 24 0 34 0;
#X connect 25 0 17 0;
#X connect 25 0 15 0;
#X connect 26 0 0 0;
#X connect 35 0 10 1;
#X connect 35 0 14 0;
#X connect 35 0 0 1;
#X restore 18 63 pd delaychain;
#X obj 284 -4 inlet;
#X obj 18 -3 inlet;
#X obj 18 17 t b;
#X msg 14 108 1;
#X msg 50 109 2;
#X msg 91 108 3;
#X obj 229 203 outlet~;
#X obj 284 17 max 2;
#X obj 230 182 hip~ 100;
#X obj 230 162 *~ 2;
#N canvas 0 0 472 536 delaychain 0;
#X obj 357 113 del 1;
#X obj 357 157 del 2;
#X obj 357 202 del 3;
#X obj 357 246 del 4;
#X obj 357 284 del 5;
#X obj 357 326 del 6;
#X obj 357 370 del 7;
#X obj 187 229 +;
#X obj 164 254 +;
#X obj 210 204 +;
#X obj 302 104 +;
#X obj 279 129 +;
#X obj 256 154 +;
#X obj 233 179 +;
#X floatatom 399 114 5 0 0 0 - - -;
#X floatatom 327 30 5 0 0 0 - - -;
#X floatatom 397 159 5 0 0 0 - - -;
#X obj 314 50 + 0;
#X floatatom 400 204 5 0 0 0 - - -;
#X floatatom 399 247 5 0 0 0 - - -;
#X floatatom 400 284 5 0 0 0 - - -;
#X floatatom 400 329 5 0 0 0 - - -;
#X floatatom 403 374 5 0 0 0 - - -;
#X floatatom 402 417 5 0 0 0 - - -;
#X obj 357 416 del 8;
#X obj 314 9 inlet diff;
#X obj 222 8 inlet ctrl;
#X obj 4 470 outlet;
#X obj 54 470 outlet;
#X obj 104 470 outlet;
#X obj 154 470 outlet;
#X obj 204 469 outlet;
#X obj 254 469 outlet;
#X obj 304 469 outlet;
#X obj 357 469 outlet;
#X obj 325 79 + 0;
#X connect 0 0 1 0;
#X connect 0 0 27 0;
#X connect 1 0 2 0;
#X connect 1 0 28 0;
#X connect 2 0 3 0;
#X connect 2 0 29 0;
#X connect 3 0 4 0;
#X connect 3 0 30 0;
#X connect 4 0 5 0;
#X connect 4 0 31 0;
#X connect 5 0 6 0;
#X connect 5 0 32 0;
#X connect 6 0 24 0;
#X connect 6 0 33 0;
#X connect 7 0 8 1;
#X connect 7 0 6 1;
#X connect 7 0 22 0;
#X connect 8 0 24 0;
#X connect 8 0 23 0;
#X connect 9 0 7 1;
#X connect 9 0 5 1;
#X connect 9 0 21 0;
#X connect 10 0 11 1;
#X connect 10 0 16 0;
#X connect 10 0 1 1;
#X connect 11 0 12 1;
#X connect 11 0 2 1;
#X connect 11 0 18 0;
#X connect 12 0 13 1;
#X connect 12 0 3 1;
#X connect 12 0 19 0;
#X connect 13 0 9 1;
#X connect 13 0 4 1;
#X connect 13 0 20 0;
#X connect 17 0 10 0;
#X connect 17 0 11 0;
#X connect 17 0 12 0;
#X connect 17 0 13 0;
#X connect 17 0 9 0;
#X connect 17 0 7 0;
#X connect 17 0 8 0;
#X connect 17 0 35 0;
#X connect 24 0 34 0;
#X connect 25 0 17 0;
#X connect 25 0 15 0;
#X connect 26 0 0 0;
#X connect 35 0 10 1;
#X connect 35 0 14 0;
#X connect 35 0 0 1;
#X restore 198 61 pd delaychain;
#X msg 194 103 1;
#X msg 230 104 2;
#X msg 271 103 3;
#X obj 133 61 del 100;
#N canvas 0 0 472 536 delaychain 0;
#X obj 357 113 del 1;
#X obj 357 157 del 2;
#X obj 357 202 del 3;
#X obj 357 246 del 4;
#X obj 357 284 del 5;
#X obj 357 326 del 6;
#X obj 357 370 del 7;
#X obj 187 229 +;
#X obj 164 254 +;
#X obj 210 204 +;
#X obj 302 104 +;
#X obj 279 129 +;
#X obj 256 154 +;
#X obj 233 179 +;
#X floatatom 399 114 5 0 0 0 - - -;
#X floatatom 327 30 5 0 0 0 - - -;
#X floatatom 397 159 5 0 0 0 - - -;
#X obj 314 50 + 0;
#X floatatom 400 204 5 0 0 0 - - -;
#X floatatom 399 247 5 0 0 0 - - -;
#X floatatom 400 284 5 0 0 0 - - -;
#X floatatom 400 329 5 0 0 0 - - -;
#X floatatom 403 374 5 0 0 0 - - -;
#X floatatom 402 417 5 0 0 0 - - -;
#X obj 357 416 del 8;
#X obj 314 9 inlet diff;
#X obj 222 8 inlet ctrl;
#X obj 4 470 outlet;
#X obj 54 470 outlet;
#X obj 104 470 outlet;
#X obj 154 470 outlet;
#X obj 204 469 outlet;
#X obj 254 469 outlet;
#X obj 304 469 outlet;
#X obj 354 469 outlet;
#X obj 325 79 + 0;
#X connect 0 0 1 0;
#X connect 0 0 27 0;
#X connect 1 0 2 0;
#X connect 1 0 28 0;
#X connect 2 0 3 0;
#X connect 2 0 29 0;
#X connect 3 0 4 0;
#X connect 3 0 30 0;
#X connect 4 0 5 0;
#X connect 4 0 31 0;
#X connect 5 0 6 0;
#X connect 5 0 32 0;
#X connect 6 0 24 0;
#X connect 6 0 33 0;
#X connect 7 0 8 1;
#X connect 7 0 6 1;
#X connect 7 0 22 0;
#X connect 8 0 24 0;
#X connect 8 0 23 0;
#X connect 9 0 7 1;
#X connect 9 0 5 1;
#X connect 9 0 21 0;
#X connect 10 0 11 1;
#X connect 10 0 16 0;
#X connect 10 0 1 1;
#X connect 11 0 12 1;
#X connect 11 0 2 1;
#X connect 11 0 18 0;
#X connect 12 0 13 1;
#X connect 12 0 3 1;
#X connect 12 0 19 0;
#X connect 13 0 9 1;
#X connect 13 0 4 1;
#X connect 13 0 20 0;
#X connect 17 0 10 0;
#X connect 17 0 11 0;
#X connect 17 0 12 0;
#X connect 17 0 13 0;
#X connect 17 0 9 0;
#X connect 17 0 7 0;
#X connect 17 0 8 0;
#X connect 17 0 35 0;
#X connect 24 0 34 0;
#X connect 25 0 17 0;
#X connect 25 0 15 0;
#X connect 26 0 0 0;
#X connect 35 0 10 1;
#X connect 35 0 14 0;
#X connect 35 0 0 1;
#X restore 364 60 pd delaychain;
#X msg 364 102 1;
#X msg 400 103 2;
#X msg 441 102 3;
#X obj 303 61 del 450;
#N canvas 0 0 883 408 clickfactory 0;
#X obj 100 252 *~;
#X obj 187 249 *~;
#X obj 287 249 *~;
#X obj 375 249 *~;
#X obj 475 251 *~;
#X obj 580 248 *~;
#X obj 680 250 *~;
#X obj 392 165 noise~;
#X obj 392 186 hip~ 300;
#X obj 12 250 *~;
#X obj 374 364 outlet~;
#X obj 374 342 *~ 0.33;
#X obj 491 223 bp~ 11023 46;
#X obj 100 291 *~ 0.33;
#X obj 784 251 *~;
#X obj 375 287 *~ 0.33;
#X obj 680 281 *~ 0.33;
#X obj 334 -16 inlet;
#X obj 334 5 sel 1 2 3;
#X obj 800 225 bp~ 2470 20;
#X obj 28 224 bp~ 4564 3;
#X obj 116 223 bp~ 4237 14;
#X obj 203 222 bp~ 4876 12;
#X obj 303 222 bp~ 345 22;
#X obj 391 223 bp~ 256 3;
#X obj 696 224 bp~ 6290 20;
#X obj 597 223 bp~ 5432 40;
#X obj 12 106 vline~;
#X obj 100 104 vline~;
#X obj 187 102 vline~;
#X msg 12 80 1 1 \, 0 50 1;
#X msg 100 78 1 1 \, 0 10 1;
#X msg 187 76 1 1 \, 0 10 1;
#X obj 12 134 *~;
#X obj 100 132 *~;
#X obj 187 129 *~;
#X obj 78 45 t b b b;
#X obj 287 100 vline~;
#X obj 375 98 vline~;
#X obj 475 96 vline~;
#X obj 287 128 *~;
#X obj 375 126 *~;
#X obj 475 123 *~;
#X obj 353 41 t b b b;
#X msg 287 74 1 1 \, 0 70 1;
#X msg 375 72 1 1 \, 0 45 1;
#X msg 475 70 1 1 \, 0 11 1;
#X obj 580 93 vline~;
#X obj 680 91 vline~;
#X obj 784 89 vline~;
#X obj 580 121 *~;
#X obj 680 119 *~;
#X obj 784 116 *~;
#X obj 658 37 t b b b;
#X msg 580 67 1 1 \, 0 40 1;
#X msg 680 65 1 1 \, 0 22 1;
#X msg 784 63 1 1 \, 0 8 1;
#X connect 0 0 13 0;
#X connect 1 0 13 0;
#X connect 2 0 15 0;
#X connect 3 0 15 0;
#X connect 4 0 15 0;
#X connect 5 0 16 0;
#X connect 6 0 16 0;
#X connect 7 0 8 0;
#X connect 8 0 12 0;
#X connect 8 0 19 0;
#X connect 8 0 20 0;
#X connect 8 0 21 0;
#X connect 8 0 22 0;
#X connect 8 0 23 0;
#X connect 8 0 24 0;
#X connect 8 0 25 0;
#X connect 8 0 26 0;
#X connect 9 0 13 0;
#X connect 11 0 10 0;
#X connect 12 0 4 1;
#X connect 13 0 11 0;
#X connect 14 0 16 0;
#X connect 15 0 11 0;
#X connect 16 0 11 0;
#X connect 17 0 18 0;
#X connect 18 0 36 0;
#X connect 18 1 43 0;
#X connect 18 2 53 0;
#X connect 19 0 14 1;
#X connect 20 0 9 1;
#X connect 21 0 0 1;
#X connect 22 0 1 1;
#X connect 23 0 2 1;
#X connect 24 0 3 1;
#X connect 25 0 6 1;
#X connect 26 0 5 1;
#X connect 27 0 33 0;
#X connect 27 0 33 1;
#X connect 28 0 34 0;
#X connect 28 0 34 1;
#X connect 29 0 35 0;
#X connect 29 0 35 1;
#X connect 30 0 27 0;
#X connect 31 0 28 0;
#X connect 32 0 29 0;
#X connect 33 0 9 0;
#X connect 34 0 0 0;
#X connect 35 0 1 0;
#X connect 36 0 30 0;
#X connect 36 1 31 0;
#X connect 36 2 32 0;
#X connect 37 0 40 0;
#X connect 37 0 40 1;
#X connect 38 0 41 0;
#X connect 38 0 41 1;
#X connect 39 0 42 0;
#X connect 39 0 42 1;
#X connect 40 0 2 0;
#X connect 41 0 3 0;
#X connect 42 0 4 0;
#X connect 43 0 44 0;
#X connect 43 1 45 0;
#X connect 43 2 46 0;
#X connect 44 0 37 0;
#X connect 45 0 38 0;
#X connect 46 0 39 0;
#X connect 47 0 50 0;
#X connect 47 0 50 1;
#X connect 48 0 51 0;
#X connect 48 0 51 1;
#X connect 49 0 52 0;
#X connect 49 0 52 1;
#X connect 50 0 5 0;
#X connect 51 0 6 0;
#X connect 52 0 14 0;
#X connect 53 0 54 0;
#X connect 53 1 55 0;
#X connect 53 2 56 0;
#X connect 54 0 47 0;
#X connect 55 0 48 0;
#X connect 56 0 49 0;
#X restore 230 142 pd clickfactory;
#X connect 0 0 6 0;
#X connect 0 4 5 0;
#X connect 0 6 4 0;
#X connect 0 7 4 0;
#X connect 0 7 15 0;
#X connect 1 0 8 0;
#X connect 2 0 3 0;
#X connect 3 0 0 0;
#X connect 4 0 21 0;
#X connect 5 0 21 0;
#X connect 6 0 21 0;
#X connect 8 0 0 1;
#X connect 8 0 11 1;
#X connect 8 0 16 1;
#X connect 9 0 7 0;
#X connect 10 0 9 0;
#X connect 11 0 14 0;
#X connect 11 2 13 0;
#X connect 11 3 12 0;
#X connect 11 4 12 0;
#X connect 11 7 20 0;
#X connect 12 0 21 0;
#X connect 13 0 21 0;
#X connect 14 0 21 0;
#X connect 15 0 11 0;
#X connect 16 0 17 0;
#X connect 16 1 19 0;
#X connect 16 3 17 0;
#X connect 16 4 18 0;
#X connect 16 5 18 0;
#X connect 16 7 19 0;
#X connect 17 0 21 0;
#X connect 18 0 21 0;
#X connect 19 0 21 0;
#X connect 20 0 16 0;
#X connect 21 0 10 0;
#X restore 78 72 pd ratchet;
#X obj 48 23 t b b;
#X obj 50 101 outlet~;
#X connect 0 0 3 0;
#X connect 1 0 4 0;
#X connect 2 0 5 0;
#X connect 3 0 5 0;
#X connect 4 0 2 0;
#X connect 4 1 0 0;
