#N canvas 0 0 450 300 10;
#X text 52 98 shell case eject;
#N canvas 165 95 362 223 tinkles 0;
#X obj 104 48 f 0;
#X obj 137 47 + 1;
#X obj 104 72 mod 4;
#X obj 104 97 sel 0 1 2 3;
#N canvas 0 0 554 704 tinkle 0;
#X obj 202 445 noise~;
#X obj 178 604 *~ 100;
#X obj 288 525 + 1;
#X obj 288 498 + 0;
#X obj 288 552 + 2;
#X obj 179 654 *~;
#X obj 180 681 outlet~;
#X obj 185 514 *~;
#X obj 172 464 *~;
#X obj 173 486 *~;
#X obj 188 541 *~ 1;
#X obj 97 577 bp~ 30 800;
#X obj 177 576 bp~ 31 800;
#X obj 256 575 bp~ 32 800;
#X obj 344 472 + 700;
#X obj 185 425 ead~ 0 10;
#X obj 223 238 delay 500;
#X obj 223 335 delay 50;
#X obj 55 373 t;
#X obj 66 451 sel 1;
#X obj 84 401 - 1;
#X obj 95 475 / 4;
#X msg 65 474 3;
#X obj 55 402 f 3;
#X obj 54 427 <= 0;
#X obj 262 35 inlet;
#X obj 178 629 clip~ -0.9 0.9;
#X obj 261 133 delay 75;
#X obj 409 104 env~;
#X obj 423 190 switch~;
#X msg 423 168 1;
#X obj 409 148 pipe 10;
#X obj 408 82 ead~ 1000;
#X obj 409 126 > 5;
#X obj 95 519 - 0.45;
#X obj 95 497 sqrt;
#X obj 313 108 + 500;
#X obj 394 472 + 300;
#X obj 373 439 random 100;
#X obj 243 399 random 40;
#X obj 281 192 random 175;
#X obj 281 215 + 170;
#X obj 274 287 random 75;
#X obj 274 310 + 75;
#X obj 288 440 random 1000;
#X obj 313 85 random 250;
#X obj 288 474 + 4500;
#X obj 262 57 t b b b b b;
#X obj 258 162 t b b b b b b;
#X obj 222 264 t b b;
#X text 236 10 shel case tinkle;
#X connect 0 0 7 1;
#X connect 1 0 26 0;
#X connect 2 0 4 0;
#X connect 2 0 12 1;
#X connect 3 0 2 0;
#X connect 3 0 11 1;
#X connect 4 0 13 1;
#X connect 5 0 6 0;
#X connect 7 0 10 0;
#X connect 8 0 9 0;
#X connect 8 0 9 1;
#X connect 9 0 7 0;
#X connect 10 0 11 0;
#X connect 10 0 12 0;
#X connect 10 0 13 0;
#X connect 11 0 1 0;
#X connect 12 0 1 0;
#X connect 13 0 1 0;
#X connect 14 0 2 1;
#X connect 15 0 8 0;
#X connect 15 0 8 1;
#X connect 16 0 18 0;
#X connect 16 0 49 0;
#X connect 17 0 18 0;
#X connect 18 0 15 0;
#X connect 18 0 23 0;
#X connect 19 0 22 0;
#X connect 20 0 23 1;
#X connect 21 0 35 0;
#X connect 22 0 23 0;
#X connect 23 0 20 0;
#X connect 23 0 21 0;
#X connect 23 0 24 0;
#X connect 24 0 19 0;
#X connect 25 0 47 0;
#X connect 26 0 5 0;
#X connect 27 0 48 0;
#X connect 28 0 33 0;
#X connect 30 0 29 0;
#X connect 31 0 29 0;
#X connect 32 0 28 0;
#X connect 33 0 31 0;
#X connect 34 0 5 1;
#X connect 35 0 34 0;
#X connect 36 0 27 1;
#X connect 37 0 4 1;
#X connect 38 0 14 0;
#X connect 38 0 37 0;
#X connect 39 0 15 2;
#X connect 40 0 41 0;
#X connect 41 0 16 1;
#X connect 42 0 43 0;
#X connect 43 0 17 1;
#X connect 44 0 46 0;
#X connect 45 0 36 0;
#X connect 46 0 3 0;
#X connect 47 0 30 0;
#X connect 47 1 45 0;
#X connect 47 2 27 0;
#X connect 47 4 32 0;
#X connect 48 0 40 0;
#X connect 48 1 39 0;
#X connect 48 2 44 0;
#X connect 48 3 38 0;
#X connect 48 4 16 0;
#X connect 48 5 18 0;
#X connect 49 0 42 0;
#X connect 49 1 17 0;
#X restore 22 131 pd tinkle;
#X text 164 23 4 voice poly tinkle;
#N canvas 0 0 554 704 tinkle 0;
#X obj 202 445 noise~;
#X obj 178 604 *~ 100;
#X obj 288 525 + 1;
#X obj 288 498 + 0;
#X obj 288 552 + 2;
#X obj 179 654 *~;
#X obj 180 681 outlet~;
#X obj 185 514 *~;
#X obj 172 464 *~;
#X obj 173 486 *~;
#X obj 188 541 *~ 1;
#X obj 97 577 bp~ 30 800;
#X obj 177 576 bp~ 31 800;
#X obj 256 575 bp~ 32 800;
#X obj 344 472 + 700;
#X obj 185 425 ead~ 0 10;
#X obj 223 238 delay 500;
#X obj 223 335 delay 50;
#X obj 55 373 t;
#X obj 66 451 sel 1;
#X obj 84 401 - 1;
#X obj 95 475 / 4;
#X msg 65 474 3;
#X obj 55 402 f 3;
#X obj 54 427 <= 0;
#X obj 262 35 inlet;
#X obj 178 629 clip~ -0.9 0.9;
#X obj 261 133 delay 75;
#X obj 409 104 env~;
#X obj 423 190 switch~;
#X msg 423 168 1;
#X obj 409 148 pipe 10;
#X obj 408 82 ead~ 1000;
#X obj 409 126 > 5;
#X obj 95 519 - 0.45;
#X obj 95 497 sqrt;
#X obj 313 108 + 500;
#X obj 394 472 + 300;
#X obj 373 439 random 100;
#X obj 243 399 random 40;
#X obj 281 192 random 175;
#X obj 281 215 + 170;
#X obj 274 287 random 75;
#X obj 274 310 + 75;
#X obj 288 440 random 1000;
#X obj 313 85 random 250;
#X obj 288 474 + 4500;
#X obj 262 57 t b b b b b;
#X obj 258 162 t b b b b b b;
#X obj 222 264 t b b;
#X text 236 10 shel case tinkle;
#X connect 0 0 7 1;
#X connect 1 0 26 0;
#X connect 2 0 4 0;
#X connect 2 0 12 1;
#X connect 3 0 2 0;
#X connect 3 0 11 1;
#X connect 4 0 13 1;
#X connect 5 0 6 0;
#X connect 7 0 10 0;
#X connect 8 0 9 0;
#X connect 8 0 9 1;
#X connect 9 0 7 0;
#X connect 10 0 11 0;
#X connect 10 0 12 0;
#X connect 10 0 13 0;
#X connect 11 0 1 0;
#X connect 12 0 1 0;
#X connect 13 0 1 0;
#X connect 14 0 2 1;
#X connect 15 0 8 0;
#X connect 15 0 8 1;
#X connect 16 0 18 0;
#X connect 16 0 49 0;
#X connect 17 0 18 0;
#X connect 18 0 15 0;
#X connect 18 0 23 0;
#X connect 19 0 22 0;
#X connect 20 0 23 1;
#X connect 21 0 35 0;
#X connect 22 0 23 0;
#X connect 23 0 20 0;
#X connect 23 0 21 0;
#X connect 23 0 24 0;
#X connect 24 0 19 0;
#X connect 25 0 47 0;
#X connect 26 0 5 0;
#X connect 27 0 48 0;
#X connect 28 0 33 0;
#X connect 30 0 29 0;
#X connect 31 0 29 0;
#X connect 32 0 28 0;
#X connect 33 0 31 0;
#X connect 34 0 5 1;
#X connect 35 0 34 0;
#X connect 36 0 27 1;
#X connect 37 0 4 1;
#X connect 38 0 14 0;
#X connect 38 0 37 0;
#X connect 39 0 15 2;
#X connect 40 0 41 0;
#X connect 41 0 16 1;
#X connect 42 0 43 0;
#X connect 43 0 17 1;
#X connect 44 0 46 0;
#X connect 45 0 36 0;
#X connect 46 0 3 0;
#X connect 47 0 30 0;
#X connect 47 1 45 0;
#X connect 47 2 27 0;
#X connect 47 4 32 0;
#X connect 48 0 40 0;
#X connect 48 1 39 0;
#X connect 48 2 44 0;
#X connect 48 3 38 0;
#X connect 48 4 16 0;
#X connect 48 5 18 0;
#X connect 49 0 42 0;
#X connect 49 1 17 0;
#X restore 92 131 pd tinkle;
#N canvas 0 0 554 704 tinkle 0;
#X obj 202 445 noise~;
#X obj 178 604 *~ 100;
#X obj 288 525 + 1;
#X obj 288 498 + 0;
#X obj 288 552 + 2;
#X obj 179 654 *~;
#X obj 180 681 outlet~;
#X obj 185 514 *~;
#X obj 172 464 *~;
#X obj 173 486 *~;
#X obj 188 541 *~ 1;
#X obj 97 577 bp~ 30 800;
#X obj 177 576 bp~ 31 800;
#X obj 256 575 bp~ 32 800;
#X obj 344 472 + 700;
#X obj 185 425 ead~ 0 10;
#X obj 223 238 delay 500;
#X obj 223 335 delay 50;
#X obj 55 373 t;
#X obj 66 451 sel 1;
#X obj 84 401 - 1;
#X obj 95 475 / 4;
#X msg 65 474 3;
#X obj 55 402 f 3;
#X obj 54 427 <= 0;
#X obj 262 35 inlet;
#X obj 178 629 clip~ -0.9 0.9;
#X obj 261 133 delay 75;
#X obj 409 104 env~;
#X obj 423 190 switch~;
#X msg 423 168 1;
#X obj 409 148 pipe 10;
#X obj 408 82 ead~ 1000;
#X obj 409 126 > 5;
#X obj 95 519 - 0.45;
#X obj 95 497 sqrt;
#X obj 313 108 + 500;
#X obj 394 472 + 300;
#X obj 373 439 random 100;
#X obj 243 399 random 40;
#X obj 281 192 random 175;
#X obj 281 215 + 170;
#X obj 274 287 random 75;
#X obj 274 310 + 75;
#X obj 288 440 random 1000;
#X obj 313 85 random 250;
#X obj 288 474 + 4500;
#X obj 262 57 t b b b b b;
#X obj 258 162 t b b b b b b;
#X obj 222 264 t b b;
#X text 236 10 shel case tinkle;
#X connect 0 0 7 1;
#X connect 1 0 26 0;
#X connect 2 0 4 0;
#X connect 2 0 12 1;
#X connect 3 0 2 0;
#X connect 3 0 11 1;
#X connect 4 0 13 1;
#X connect 5 0 6 0;
#X connect 7 0 10 0;
#X connect 8 0 9 0;
#X connect 8 0 9 1;
#X connect 9 0 7 0;
#X connect 10 0 11 0;
#X connect 10 0 12 0;
#X connect 10 0 13 0;
#X connect 11 0 1 0;
#X connect 12 0 1 0;
#X connect 13 0 1 0;
#X connect 14 0 2 1;
#X connect 15 0 8 0;
#X connect 15 0 8 1;
#X connect 16 0 18 0;
#X connect 16 0 49 0;
#X connect 17 0 18 0;
#X connect 18 0 15 0;
#X connect 18 0 23 0;
#X connect 19 0 22 0;
#X connect 20 0 23 1;
#X connect 21 0 35 0;
#X connect 22 0 23 0;
#X connect 23 0 20 0;
#X connect 23 0 21 0;
#X connect 23 0 24 0;
#X connect 24 0 19 0;
#X connect 25 0 47 0;
#X connect 26 0 5 0;
#X connect 27 0 48 0;
#X connect 28 0 33 0;
#X connect 30 0 29 0;
#X connect 31 0 29 0;
#X connect 32 0 28 0;
#X connect 33 0 31 0;
#X connect 34 0 5 1;
#X connect 35 0 34 0;
#X connect 36 0 27 1;
#X connect 37 0 4 1;
#X connect 38 0 14 0;
#X connect 38 0 37 0;
#X connect 39 0 15 2;
#X connect 40 0 41 0;
#X connect 41 0 16 1;
#X connect 42 0 43 0;
#X connect 43 0 17 1;
#X connect 44 0 46 0;
#X connect 45 0 36 0;
#X connect 46 0 3 0;
#X connect 47 0 30 0;
#X connect 47 1 45 0;
#X connect 47 2 27 0;
#X connect 47 4 32 0;
#X connect 48 0 40 0;
#X connect 48 1 39 0;
#X connect 48 2 44 0;
#X connect 48 3 38 0;
#X connect 48 4 16 0;
#X connect 48 5 18 0;
#X connect 49 0 42 0;
#X connect 49 1 17 0;
#X restore 164 131 pd tinkle;
#N canvas 0 0 554 704 tinkle 0;
#X obj 202 445 noise~;
#X obj 178 604 *~ 100;
#X obj 288 525 + 1;
#X obj 288 498 + 0;
#X obj 288 552 + 2;
#X obj 179 654 *~;
#X obj 180 681 outlet~;
#X obj 185 514 *~;
#X obj 172 464 *~;
#X obj 173 486 *~;
#X obj 188 541 *~ 1;
#X obj 97 577 bp~ 30 800;
#X obj 177 576 bp~ 31 800;
#X obj 256 575 bp~ 32 800;
#X obj 344 472 + 700;
#X obj 185 425 ead~ 0 10;
#X obj 223 238 delay 500;
#X obj 223 335 delay 50;
#X obj 55 373 t;
#X obj 66 451 sel 1;
#X obj 84 401 - 1;
#X obj 95 475 / 4;
#X msg 65 474 3;
#X obj 55 402 f 3;
#X obj 54 427 <= 0;
#X obj 262 35 inlet;
#X obj 178 629 clip~ -0.9 0.9;
#X obj 261 133 delay 75;
#X obj 409 104 env~;
#X obj 423 190 switch~;
#X msg 423 168 1;
#X obj 409 148 pipe 10;
#X obj 408 82 ead~ 1000;
#X obj 409 126 > 5;
#X obj 95 519 - 0.45;
#X obj 95 497 sqrt;
#X obj 313 108 + 500;
#X obj 394 472 + 300;
#X obj 373 439 random 100;
#X obj 243 399 random 40;
#X obj 281 192 random 175;
#X obj 281 215 + 170;
#X obj 274 287 random 75;
#X obj 274 310 + 75;
#X obj 288 440 random 1000;
#X obj 313 85 random 250;
#X obj 288 474 + 4500;
#X obj 262 57 t b b b b b;
#X obj 258 162 t b b b b b b;
#X obj 222 264 t b b;
#X text 236 10 shel case tinkle;
#X connect 0 0 7 1;
#X connect 1 0 26 0;
#X connect 2 0 4 0;
#X connect 2 0 12 1;
#X connect 3 0 2 0;
#X connect 3 0 11 1;
#X connect 4 0 13 1;
#X connect 5 0 6 0;
#X connect 7 0 10 0;
#X connect 8 0 9 0;
#X connect 8 0 9 1;
#X connect 9 0 7 0;
#X connect 10 0 11 0;
#X connect 10 0 12 0;
#X connect 10 0 13 0;
#X connect 11 0 1 0;
#X connect 12 0 1 0;
#X connect 13 0 1 0;
#X connect 14 0 2 1;
#X connect 15 0 8 0;
#X connect 15 0 8 1;
#X connect 16 0 18 0;
#X connect 16 0 49 0;
#X connect 17 0 18 0;
#X connect 18 0 15 0;
#X connect 18 0 23 0;
#X connect 19 0 22 0;
#X connect 20 0 23 1;
#X connect 21 0 35 0;
#X connect 22 0 23 0;
#X connect 23 0 20 0;
#X connect 23 0 21 0;
#X connect 23 0 24 0;
#X connect 24 0 19 0;
#X connect 25 0 47 0;
#X connect 26 0 5 0;
#X connect 27 0 48 0;
#X connect 28 0 33 0;
#X connect 30 0 29 0;
#X connect 31 0 29 0;
#X connect 32 0 28 0;
#X connect 33 0 31 0;
#X connect 34 0 5 1;
#X connect 35 0 34 0;
#X connect 36 0 27 1;
#X connect 37 0 4 1;
#X connect 38 0 14 0;
#X connect 38 0 37 0;
#X connect 39 0 15 2;
#X connect 40 0 41 0;
#X connect 41 0 16 1;
#X connect 42 0 43 0;
#X connect 43 0 17 1;
#X connect 44 0 46 0;
#X connect 45 0 36 0;
#X connect 46 0 3 0;
#X connect 47 0 30 0;
#X connect 47 1 45 0;
#X connect 47 2 27 0;
#X connect 47 4 32 0;
#X connect 48 0 40 0;
#X connect 48 1 39 0;
#X connect 48 2 44 0;
#X connect 48 3 38 0;
#X connect 48 4 16 0;
#X connect 48 5 18 0;
#X connect 49 0 42 0;
#X connect 49 1 17 0;
#X restore 234 131 pd tinkle;
#X obj 119 173 outlet~;
#X obj 104 22 inlet;
#X connect 0 0 1 0;
#X connect 0 0 2 0;
#X connect 1 0 0 1;
#X connect 2 0 3 0;
#X connect 3 0 4 0;
#X connect 3 1 6 0;
#X connect 3 2 7 0;
#X connect 3 3 8 0;
#X connect 4 0 9 0;
#X connect 6 0 9 0;
#X connect 7 0 9 0;
#X connect 8 0 9 0;
#X connect 10 0 0 0;
#X restore 36 130 pd tinkles;
#X obj 35 160 *~ 0.2;
#X obj 36 71 bng 15 250 50 0 empty empty empty 17 7 0 10 -262144 -1
-1;
#X obj 32 193 dac~;
#X connect 1 0 2 0;
#X connect 2 0 4 0;
#X connect 2 0 4 1;
#X connect 3 0 1 0;
