#N canvas 129 112 621 322 10;
#X obj 100 43 hsl 64 12 0 1000 0 1 empty empty freq1 16 6 1 8 -262144
-1 -1 6300 1;
#X obj 80 29 hsl 64 12 0 100 0 1 empty empty speed 16 6 1 8 -262144
-1 -1 400 1;
#X obj 60 14 hsl 64 12 0 5000 0 1 empty empty time 17 6 1 8 -262144
-1 -1 900 1;
#X obj 120 58 hsl 64 12 0 1000 0 1 empty empty freq2 16 6 1 8 -262144
-1 -1 6300 1;
#N canvas 156 215 246 336 multi-tone-alarm 0;
#X obj 56 317 dac~;
#X obj 27 186 *~;
#X obj 56 207 *~;
#X obj -1 166 *~;
#N canvas 0 0 255 294 timebase 0;
#X msg 6 77 1 \$1;
#X msg 49 77 0 0;
#X obj 49 52 del;
#X obj 6 113 line~;
#X obj 6 6 inlet risetime;
#X obj 6 189 outlet~ linecontrol;
#X obj 22 139 inlet scale;
#X msg 92 76 0;
#X obj 6 28 trigger f f b;
#X obj 6 163 *~;
#X connect 0 0 3 0;
#X connect 1 0 3 0;
#X connect 2 0 1 0;
#X connect 3 0 9 0;
#X connect 4 0 8 0;
#X connect 6 0 9 1;
#X connect 7 0 3 0;
#X connect 8 0 0 0;
#X connect 8 1 2 0;
#X connect 8 2 7 0;
#X connect 9 0 5 0;
#X restore 15 59 pd timebase;
#X obj 56 252 *~ 0.25;
#N canvas 11 420 328 247 4phase-osc 0;
#X obj 4 85 clip~ 0 1;
#X obj 81 84 clip~ 1 2;
#X obj 155 83 clip~ 2 3;
#X obj 80 107 -~ 1;
#X obj 156 106 -~ 2;
#X obj 79 131 *~ 0.5;
#X obj 79 154 -~ 0.25;
#X obj 79 176 cos~;
#X obj 156 129 *~ 0.5;
#X obj 156 152 -~ 0.25;
#X obj 156 174 cos~;
#X obj 3 134 *~ 0.5;
#X obj 3 157 -~ 0.25;
#X obj 3 179 cos~;
#X obj 2 201 outlet~;
#X obj 80 199 outlet~;
#X obj 156 197 outlet~;
#X obj 124 5 inlet~ run;
#X obj 124 27 wrap~;
#X obj 226 129 *~ 0.5;
#X obj 226 152 -~ 0.25;
#X obj 226 174 cos~;
#X obj 226 197 outlet~;
#X obj 124 49 *~ 4;
#X obj 225 83 clip~ 3 4;
#X obj 226 106 -~ 3;
#X connect 0 0 11 0;
#X connect 1 0 3 0;
#X connect 2 0 4 0;
#X connect 3 0 5 0;
#X connect 4 0 8 0;
#X connect 5 0 6 0;
#X connect 6 0 7 0;
#X connect 7 0 15 0;
#X connect 8 0 9 0;
#X connect 9 0 10 0;
#X connect 10 0 16 0;
#X connect 11 0 12 0;
#X connect 12 0 13 0;
#X connect 13 0 14 0;
#X connect 17 0 18 0;
#X connect 18 0 23 0;
#X connect 19 0 20 0;
#X connect 20 0 21 0;
#X connect 21 0 22 0;
#X connect 23 0 0 0;
#X connect 23 0 1 0;
#X connect 23 0 2 0;
#X connect 23 0 24 0;
#X connect 24 0 25 0;
#X connect 25 0 19 0;
#X restore 15 80 pd 4phase-osc;
#X obj 85 217 *~;
#X obj 56 273 hip~ 50;
#X obj 65 24 unpack f f f f f f f;
#X obj 65 1 inlet;
#X obj 56 293 *~ 0.5;
#N canvas 0 0 218 139 cosc 0;
#X obj 8 91 cos~;
#X obj 8 71 +~;
#X obj 103 28 * 0.25;
#X obj 8 114 outlet~;
#X obj 9 49 osc~;
#X obj 9 6 inlet pitch;
#X obj 103 7 inlet spectrum;
#X connect 0 0 3 0;
#X connect 1 0 0 0;
#X connect 2 0 1 1;
#X connect 4 0 1 0;
#X connect 5 0 4 0;
#X connect 6 0 2 0;
#X restore 110 102 pd cosc;
#N canvas 0 0 253 185 cosc 0;
#X obj 8 125 cos~;
#X obj 8 105 +~;
#X obj 103 54 * 0.25;
#X obj 8 148 outlet~;
#X obj 9 83 osc~;
#X obj 9 6 inlet pitch;
#X obj 103 7 inlet spectrum;
#X connect 0 0 3 0;
#X connect 1 0 0 0;
#X connect 2 0 1 1;
#X connect 4 0 1 0;
#X connect 5 0 4 0;
#X connect 6 0 2 0;
#X restore 132 122 pd cosc;
#N canvas 0 0 253 185 cosc 0;
#X obj 8 125 cos~;
#X obj 8 105 +~;
#X obj 103 54 * 0.25;
#X obj 8 148 outlet~;
#X obj 9 83 osc~;
#X obj 9 6 inlet pitch;
#X obj 103 7 inlet spectrum;
#X connect 0 0 3 0;
#X connect 1 0 0 0;
#X connect 2 0 1 1;
#X connect 4 0 1 0;
#X connect 5 0 4 0;
#X connect 6 0 2 0;
#X restore 155 142 pd cosc;
#N canvas 0 0 253 185 cosc 0;
#X obj 8 125 cos~;
#X obj 8 105 +~;
#X obj 103 54 * 0.25;
#X obj 8 148 outlet~;
#X obj 9 83 osc~;
#X obj 9 6 inlet pitch;
#X obj 103 7 inlet spectrum;
#X connect 0 0 3 0;
#X connect 1 0 0 0;
#X connect 2 0 1 1;
#X connect 4 0 1 0;
#X connect 5 0 4 0;
#X connect 6 0 2 0;
#X restore 178 162 pd cosc;
#X connect 1 0 5 0;
#X connect 2 0 5 0;
#X connect 3 0 5 0;
#X connect 4 0 6 0;
#X connect 5 0 8 0;
#X connect 6 0 3 1;
#X connect 6 1 1 1;
#X connect 6 2 2 1;
#X connect 6 3 7 1;
#X connect 7 0 5 0;
#X connect 8 0 11 0;
#X connect 9 0 4 0;
#X connect 9 1 4 1;
#X connect 9 2 12 0;
#X connect 9 3 13 0;
#X connect 9 4 14 0;
#X connect 9 5 15 0;
#X connect 9 6 15 1;
#X connect 9 6 14 1;
#X connect 9 6 13 1;
#X connect 9 6 12 1;
#X connect 10 0 9 0;
#X connect 11 0 0 0;
#X connect 11 0 0 1;
#X connect 12 0 3 0;
#X connect 13 0 1 0;
#X connect 14 0 2 0;
#X connect 15 0 7 0;
#X restore 225 293 pd multi-tone-alarm;
#X obj 34 137 t;
#X obj 181 102 hsl 64 12 0 1 0 1 empty empty tone 16 6 1 8 -262144
-1 -1 6300 1;
#X obj 160 87 hsl 64 12 0 1000 0 1 empty empty freq4 16 6 1 8 -262144
-1 -1 6300 1;
#X obj 140 73 hsl 64 12 0 1000 0 1 empty empty freq3 16 6 1 8 -262144
-1 -1 6300 1;
#X obj 57 159 pack f f f f f f f;
#X msg 57 182 set \$1 \$2 \$3 \$4 \$5 \$6 \$7;
#X obj 77 135 int;
#X msg 403 117 317 7 300 125 0 0 1;
#X msg 403 137 1031 9 360 238 174 158 1;
#X msg 403 177 1428 3 619 571 365 206 1;
#X msg 403 197 450 1 365 571 619 206 0.5;
#X msg 403 217 714 74 1000 0 1000 0 1;
#X msg 57 206 714.286 6 1000 1000 0 1000 1;
#X msg 403 157 900 4 2000 2010 2000 2010 1;
#X msg 403 77 380 2 349 0 0 0 1;
#X msg 403 97 238 1 317 0 0 476 0;
#X msg 403 237 200 30 1000 476 159 0 1;
#X msg 403 257 634 61 1000 476 159 0 1;
#X connect 0 0 5 0;
#X connect 0 0 9 2;
#X connect 1 0 5 0;
#X connect 1 0 11 0;
#X connect 2 0 9 0;
#X connect 3 0 5 0;
#X connect 3 0 9 3;
#X connect 5 0 9 0;
#X connect 6 0 5 0;
#X connect 6 0 9 6;
#X connect 7 0 5 0;
#X connect 7 0 9 5;
#X connect 8 0 5 0;
#X connect 8 0 9 4;
#X connect 9 0 10 0;
#X connect 10 0 17 0;
#X connect 11 0 9 1;
#X connect 12 0 4 0;
#X connect 13 0 4 0;
#X connect 14 0 4 0;
#X connect 15 0 4 0;
#X connect 16 0 4 0;
#X connect 17 0 4 0;
#X connect 18 0 4 0;
#X connect 19 0 4 0;
#X connect 20 0 4 0;
#X connect 21 0 4 0;
#X connect 22 0 4 0;
