#N canvas 389 342 77 222 10;
#X obj 1 192 dac~;
#X obj 1 162 *~ 0.2;
#X obj 1 138 *~;
#X obj 17 114 osc~ 800;
#X obj 1 91 sig~;
#X obj 1 19 metro 300;
#X obj 1 45 f 0;
#X obj 33 45 + 1;
#X obj 1 -3 tgl 15 0 empty empty empty 0 -6 0 8 -262144 -1 -1 0 1;
#X obj 1 68 mod 2;
#X connect 1 0 0 0;
#X connect 1 0 0 1;
#X connect 2 0 1 0;
#X connect 3 0 2 1;
#X connect 4 0 2 0;
#X connect 5 0 6 0;
#X connect 6 0 7 0;
#X connect 6 0 9 0;
#X connect 7 0 6 1;
#X connect 8 0 5 0;
#X connect 9 0 4 0;
