#N canvas 225 332 234 271 10;
#X obj 78 252 dac~;
#X obj 78 193 *~;
#X obj 152 193 *~;
#X obj 16 51 clip~ 0 1;
#X obj 92 23 *~ 3;
#X obj 92 51 clip~ 1 2;
#X obj 168 51 clip~ 2 3;
#X obj 92 74 -~ 1;
#X obj 168 74 -~ 2;
#X obj 92 98 *~ 0.5;
#X obj 92 123 -~ 0.25;
#X obj 92 146 cos~;
#X obj 168 97 *~ 0.5;
#X obj 168 120 -~ 0.25;
#X obj 168 143 cos~;
#X obj 1 193 *~;
#X obj 16 98 *~ 0.5;
#X obj 16 123 -~ 0.25;
#X obj 16 146 cos~;
#X obj 1 170 osc~ 723;
#X obj 78 170 osc~ 932;
#X obj 152 170 osc~ 1012;
#X obj 92 1 phasor~ 4;
#X obj 78 223 *~ 0.25;
#X connect 1 0 23 0;
#X connect 2 0 23 0;
#X connect 3 0 16 0;
#X connect 4 0 3 0;
#X connect 4 0 5 0;
#X connect 4 0 6 0;
#X connect 5 0 7 0;
#X connect 6 0 8 0;
#X connect 7 0 9 0;
#X connect 8 0 12 0;
#X connect 9 0 10 0;
#X connect 10 0 11 0;
#X connect 11 0 1 1;
#X connect 12 0 13 0;
#X connect 13 0 14 0;
#X connect 14 0 2 1;
#X connect 15 0 23 0;
#X connect 16 0 17 0;
#X connect 17 0 18 0;
#X connect 18 0 15 1;
#X connect 19 0 15 0;
#X connect 20 0 1 0;
#X connect 21 0 2 0;
#X connect 22 0 4 0;
#X connect 23 0 0 0;
#X connect 23 0 0 1;
