#N canvas 368 189 154 232 10;
#X obj 0 212 dac~;
#X obj 0 182 *~ 0.2;
#X obj 0 151 *~;
#X obj 70 151 *~;
#X obj 16 73 sig~ 1;
#X obj 16 98 -~;
#X obj 86 22 *~ 1e+06;
#X obj 86 45 clip~ 0 1;
#X obj 86 68 lop~ 70;
#X obj 86 -1 osc~ 2;
#X obj 70 123 osc~ 800;
#X obj 0 123 osc~ 600;
#X connect 1 0 0 0;
#X connect 1 0 0 1;
#X connect 2 0 1 0;
#X connect 3 0 1 0;
#X connect 4 0 5 0;
#X connect 5 0 2 1;
#X connect 6 0 7 0;
#X connect 7 0 8 0;
#X connect 8 0 5 1;
#X connect 8 0 3 1;
#X connect 9 0 6 0;
#X connect 10 0 3 0;
#X connect 11 0 2 0;
