#N canvas 0 0 794 676 10;
#X obj 213 114 hsl 64 12 0 1 0 0 empty empty empty -2 -6 0 8 -262144
-1 -1 0 1;
#X obj 214 132 hsl 64 12 0 1 0 0 empty empty empty -2 -6 0 8 -262144
-1 -1 0 1;
#X obj 294 113 hsl 64 12 0 1 0 0 empty empty empty -2 -6 0 8 -262144
-1 -1 0 1;
#X obj 295 131 hsl 64 12 0 1 0 0 empty empty empty -2 -6 0 8 -262144
-1 -1 0 1;
#X obj 374 112 hsl 64 12 0 1 0 0 empty empty empty -2 -6 0 8 -262144
-1 -1 0 1;
#X obj 375 130 hsl 64 12 0 1 0 0 empty empty empty -2 -6 0 8 -262144
-1 -1 0 1;
#X obj 132 134 hsl 64 12 0 1 0 0 empty empty empty -2 -6 0 8 -262144
-1 -1 0 1;
#X obj 131 113 hsl 64 12 0 1 0 0 empty empty empty -2 -6 0 8 -262144
-1 -1 0 1;
#N canvas 0 0 503 427 alarm 0;
#X obj 10 321 *~ 0.2;
#X obj 104 244 *~;
#X obj 178 244 *~;
#X obj 27 244 *~;
#N canvas 0 0 450 300 3phase-osc 0;
#X obj 34 115 clip~ 0 1;
#X obj 111 84 *~ 3;
#X obj 111 114 clip~ 1 2;
#X obj 185 113 clip~ 2 3;
#X obj 110 137 -~ 1;
#X obj 186 136 -~ 2;
#X obj 109 161 *~ 0.5;
#X obj 109 184 -~ 0.25;
#X obj 109 208 cos~;
#X obj 186 159 *~ 0.5;
#X obj 186 182 -~ 0.25;
#X obj 186 206 cos~;
#X obj 33 164 *~ 0.5;
#X obj 33 187 -~ 0.25;
#X obj 33 211 cos~;
#X obj 32 242 outlet~;
#X obj 110 240 outlet~;
#X obj 186 238 outlet~;
#X obj 111 11 inlet modpitch;
#X obj 111 62 phasor~;
#X obj 111 37 * 24;
#X connect 0 0 12 0;
#X connect 1 0 0 0;
#X connect 1 0 2 0;
#X connect 1 0 3 0;
#X connect 2 0 4 0;
#X connect 3 0 5 0;
#X connect 4 0 6 0;
#X connect 5 0 9 0;
#X connect 6 0 7 0;
#X connect 7 0 8 0;
#X connect 8 0 16 0;
#X connect 9 0 10 0;
#X connect 10 0 11 0;
#X connect 11 0 17 0;
#X connect 12 0 13 0;
#X connect 13 0 14 0;
#X connect 14 0 15 0;
#X connect 18 0 20 0;
#X connect 19 0 1 0;
#X connect 20 0 19 0;
#X restore 78 169 pd 3phase-osc;
#N canvas 0 0 450 300 oddeven 0;
#X obj 58 125 cos~;
#X obj 58 105 +~;
#X obj 74 59 * 0.25;
#X obj 9 33 unpack f f;
#X obj 9 6 inlet pitch tone;
#X obj 58 149 outlet~;
#X obj 9 58 * 1000;
#X obj 59 83 osc~;
#X connect 0 0 5 0;
#X connect 1 0 0 0;
#X connect 2 0 1 1;
#X connect 3 0 6 0;
#X connect 3 1 2 0;
#X connect 4 0 3 0;
#X connect 6 0 7 0;
#X connect 7 0 1 0;
#X restore 192 170 pd oddeven;
#X obj 192 143 pack f f;
#X obj 273 142 pack f f;
#X obj 353 141 pack f f;
#N canvas 0 0 450 300 oddeven 0;
#X obj 58 125 cos~;
#X obj 58 105 +~;
#X obj 74 59 * 0.25;
#X obj 9 33 unpack f f;
#X obj 9 6 inlet pitch tone;
#X obj 58 149 outlet~;
#X obj 9 58 * 1000;
#X obj 59 83 osc~;
#X connect 0 0 5 0;
#X connect 1 0 0 0;
#X connect 2 0 1 1;
#X connect 3 0 6 0;
#X connect 3 1 2 0;
#X connect 4 0 3 0;
#X connect 6 0 7 0;
#X connect 7 0 1 0;
#X restore 273 170 pd oddeven;
#N canvas 0 0 450 300 oddeven 0;
#X obj 58 125 cos~;
#X obj 58 105 +~;
#X obj 74 59 * 0.25;
#X obj 9 33 unpack f f;
#X obj 9 6 inlet pitch tone;
#X obj 58 149 outlet~;
#X obj 9 58 * 1000;
#X obj 59 83 osc~;
#X connect 0 0 5 0;
#X connect 1 0 0 0;
#X connect 2 0 1 1;
#X connect 3 0 6 0;
#X connect 3 1 2 0;
#X connect 4 0 3 0;
#X connect 6 0 7 0;
#X connect 7 0 1 0;
#X restore 353 170 pd oddeven;
#X obj 11 298 *~;
#X obj 11 101 osc~ 0.5;
#X obj 11 123 *~ 10000;
#X obj 11 146 clip~ 0 1;
#X obj 11 169 lop~ 100;
#X obj 83 38 unpack f f f f f f f f;
#X obj 10 374 outlet~;
#X obj 83 12 inlet params;
#X obj 11 78 * 4;
#X obj 10 346 hip~ 50;
#X connect 0 0 20 0;
#X connect 1 0 11 1;
#X connect 2 0 11 1;
#X connect 3 0 11 1;
#X connect 4 0 3 1;
#X connect 4 1 1 1;
#X connect 4 2 2 1;
#X connect 5 0 3 0;
#X connect 6 0 5 0;
#X connect 7 0 9 0;
#X connect 8 0 10 0;
#X connect 9 0 1 0;
#X connect 10 0 2 0;
#X connect 11 0 0 0;
#X connect 12 0 13 0;
#X connect 13 0 14 0;
#X connect 14 0 15 0;
#X connect 15 0 11 0;
#X connect 16 0 19 0;
#X connect 16 1 4 0;
#X connect 16 2 6 0;
#X connect 16 3 6 1;
#X connect 16 4 7 0;
#X connect 16 5 7 1;
#X connect 16 6 8 0;
#X connect 16 7 8 1;
#X connect 18 0 16 0;
#X connect 19 0 12 0;
#X connect 20 0 17 0;
#X restore 287 579 pd alarm;
#X obj 209 251 pack f f f f f f f f;
#X obj 288 616 dac~;
#X obj 129 216 t;
#X msg 217 278 set \$1 \$2 \$3 \$4 \$5 \$6 \$7 \$8;
#X msg 339 495 0.52381 0.52381 0 0.52381 0.857143 0.492063 0.888889
0.15873;
#X msg 340 450 0.492063 0.460317 0.555556 0.52381 0.460317 0.492063
0.396825 0.492063;
#X msg 339 405 0.174603 0.396825 0.619048 0.587302 0.428571 0.460317
0.492063 0.396825;
#X msg 343 360 0.126984 0.333333 0.619048 0.126984 0.412698 0.460317
0.507937 0.396825;
#X msg 340 318 0.126984 0.190476 0.730159 0.0793651 0 0.460317 0.507937
0.0634921;
#X msg 337 528 0.793651 0.793651 0.793651 0 0.0634921 0.460317 0.269841
0.0634921;
#X msg 373 202 0 0 0 0 0 0 0;
#X connect 0 0 9 2;
#X connect 0 0 11 0;
#X connect 1 0 9 3;
#X connect 1 0 11 0;
#X connect 2 0 9 4;
#X connect 2 0 11 0;
#X connect 3 0 9 5;
#X connect 3 0 11 0;
#X connect 4 0 9 6;
#X connect 4 0 11 0;
#X connect 5 0 9 7;
#X connect 5 0 11 0;
#X connect 6 0 9 1;
#X connect 6 0 11 0;
#X connect 7 0 9 0;
#X connect 8 0 10 0;
#X connect 8 0 10 1;
#X connect 9 0 12 0;
#X connect 9 0 8 0;
#X connect 11 0 9 0;
#X connect 13 0 8 0;
#X connect 14 0 8 0;
#X connect 15 0 8 0;
#X connect 16 0 8 0;
#X connect 17 0 8 0;
#X connect 18 0 8 0;
#X connect 19 0 8 0;
