#N canvas 389 342 133 198 10;
#X obj 48 176 dac~;
#X obj 48 146 *~ 0.2;
#X obj 48 122 *~;
#X obj 64 23 *~ 1e+06;
#X obj 64 46 clip~ 0 1;
#X obj 64 69 lop~ 70;
#X obj 64 0 osc~ 2;
#X obj 1 70 osc~ 800;
#X connect 1 0 0 0;
#X connect 1 0 0 1;
#X connect 2 0 1 0;
#X connect 3 0 4 0;
#X connect 4 0 5 0;
#X connect 5 0 2 1;
#X connect 6 0 3 0;
#X connect 7 0 2 0;
