#N canvas 225 332 197 287 10;
#X obj 64 258 dac~;
#X obj 63 201 *~;
#X obj 127 201 *~;
#X obj 0 201 *~;
#X obj 0 178 osc~ 723;
#X obj 63 178 osc~ 932;
#X obj 127 178 osc~ 1012;
#X obj 15 154 lop~ 70;
#X obj 78 153 lop~ 70;
#X obj 143 151 lop~ 70;
#X obj 143 128 sig~;
#X obj 78 131 sig~;
#X obj 15 131 sig~;
#X obj 15 37 f;
#X obj 45 37 + 1;
#X obj 15 14 metro 500;
#X obj 15 60 mod 3;
#X obj 58 102 == 1;
#X obj 15 80 trigger f f f;
#X obj 15 102 == 0;
#X obj 15 -9 tgl 15 0 empty empty empty 0 -6 0 8 -262144 -1 -1 0 1
;
#X obj 101 102 == 2;
#X obj 64 229 *~ 0.2;
#X connect 1 0 22 0;
#X connect 2 0 22 0;
#X connect 3 0 22 0;
#X connect 4 0 3 0;
#X connect 5 0 1 0;
#X connect 6 0 2 0;
#X connect 7 0 3 1;
#X connect 8 0 1 1;
#X connect 9 0 2 1;
#X connect 10 0 9 0;
#X connect 11 0 8 0;
#X connect 12 0 7 0;
#X connect 13 0 14 0;
#X connect 13 0 16 0;
#X connect 14 0 13 1;
#X connect 15 0 13 0;
#X connect 16 0 18 0;
#X connect 17 0 11 0;
#X connect 18 0 19 0;
#X connect 18 1 17 0;
#X connect 18 2 21 0;
#X connect 19 0 12 0;
#X connect 20 0 15 0;
#X connect 21 0 10 0;
#X connect 22 0 0 0;
#X connect 22 0 0 1;
