#N canvas 107 362 357 292 10;
#X obj 130 255 dac~;
#X obj 93 144 *~;
#X obj 183 145 *~;
#X obj 0 144 *~;
#X obj 162 -17 hsl 64 12 0 1 0 1 empty empty empty -2 -6 0 8 -262144
-1 -1 3100 1;
#N canvas 11 3 138 203 timebase 1;
#X msg 0 72 1 \$1;
#X msg 43 72 0 0;
#X obj 43 47 del;
#X obj 0 108 line~;
#X obj 0 1 inlet risetime;
#X obj 0 184 outlet~ linecontrol;
#X obj 16 134 inlet scale;
#X msg 86 71 0;
#X obj 0 23 trigger f f b;
#X obj 0 158 *~;
#X connect 0 0 3 0;
#X connect 1 0 3 0;
#X connect 2 0 1 0;
#X connect 3 0 9 0;
#X connect 4 0 8 0;
#X connect 6 0 9 1;
#X connect 7 0 3 0;
#X connect 8 0 0 0;
#X connect 8 1 2 0;
#X connect 8 2 7 0;
#X connect 9 0 5 0;
#X restore 102 78 pd timebase;
#X obj 130 225 *~ 0.2;
#X obj 130 179 *~ 0.25;
#X obj 3 11 hsl 64 12 0 1000 0 1 empty empty empty -2 -6 0 8 -262144
-1 -1 3600 1;
#X floatatom 102 57 5 0 0 0 - - -;
#X floatatom 174 55 5 0 0 0 - - -;
#X obj 73 56 bng 15 250 50 0 empty empty empty 0 -6 0 8 -262144 -1
-1;
#N canvas 394 37 291 214 4phase-osc 1;
#X obj 0 80 clip~ 0 1;
#X obj 78 79 clip~ 1 2;
#X obj 152 78 clip~ 2 3;
#X obj 77 102 -~ 1;
#X obj 153 101 -~ 2;
#X obj 76 127 *~ 0.5;
#X obj 76 150 -~ 0.25;
#X obj 76 172 cos~;
#X obj 153 125 *~ 0.5;
#X obj 153 148 -~ 0.25;
#X obj 153 171 cos~;
#X obj 0 128 *~ 0.5;
#X obj 0 151 -~ 0.25;
#X obj 0 173 cos~;
#X obj -1 196 outlet~;
#X obj 77 196 outlet~;
#X obj 153 196 outlet~;
#X obj 121 0 inlet~ run;
#X obj 121 22 wrap~;
#X obj 223 125 *~ 0.5;
#X obj 223 148 -~ 0.25;
#X obj 223 171 cos~;
#X obj 223 196 outlet~;
#X obj 121 45 *~ 4;
#X obj 222 78 clip~ 3 4;
#X obj 223 101 -~ 3;
#X connect 0 0 11 0;
#X connect 1 0 3 0;
#X connect 2 0 4 0;
#X connect 3 0 5 0;
#X connect 4 0 8 0;
#X connect 5 0 6 0;
#X connect 6 0 7 0;
#X connect 7 0 15 0;
#X connect 8 0 9 0;
#X connect 9 0 10 0;
#X connect 10 0 16 0;
#X connect 11 0 12 0;
#X connect 12 0 13 0;
#X connect 13 0 14 0;
#X connect 17 0 18 0;
#X connect 18 0 23 0;
#X connect 19 0 20 0;
#X connect 20 0 21 0;
#X connect 21 0 22 0;
#X connect 23 0 0 0;
#X connect 23 0 1 0;
#X connect 23 0 2 0;
#X connect 23 0 24 0;
#X connect 24 0 25 0;
#X connect 25 0 19 0;
#X restore 103 106 pd 4phase-osc;
#X obj 268 145 *~;
#X obj 130 202 hip~ 50;
#X obj 96 11 hsl 64 12 0 1000 0 1 empty empty empty -2 -6 0 8 -262144
-1 -1 3400 1;
#X obj 201 11 hsl 64 12 0 1000 0 1 empty empty empty -2 -6 0 8 -262144
-1 -1 3500 1;
#X obj 286 11 hsl 64 12 0 1000 0 1 empty empty empty -2 -6 0 8 -262144
-1 -1 3600 1;
#N canvas 0 0 253 185 cosc 0;
#X obj 8 125 cos~;
#X obj 8 105 +~;
#X obj 103 54 * 0.25;
#X obj 8 148 outlet~;
#X obj 9 83 osc~;
#X obj 9 6 inlet pitch;
#X obj 103 7 inlet spectrum;
#X connect 0 0 3 0;
#X connect 1 0 0 0;
#X connect 2 0 1 1;
#X connect 4 0 1 0;
#X connect 5 0 4 0;
#X connect 6 0 2 0;
#X restore 93 30 pd cosc;
#N canvas 174 90 190 114 cosc 1;
#X obj 0 74 cos~;
#X obj 0 52 +~;
#X obj 88 22 * 0.25;
#X obj 0 96 outlet~;
#X obj 0 29 osc~;
#X obj 0 0 inlet pitch;
#X obj 88 0 inlet spectrum;
#X connect 0 0 3 0;
#X connect 1 0 0 0;
#X connect 2 0 1 1;
#X connect 4 0 1 0;
#X connect 5 0 4 0;
#X connect 6 0 2 0;
#X restore 0 30 pd cosc;
#N canvas 0 0 253 185 cosc 0;
#X obj 8 125 cos~;
#X obj 8 105 +~;
#X obj 103 54 * 0.25;
#X obj 8 148 outlet~;
#X obj 9 83 osc~;
#X obj 9 6 inlet pitch;
#X obj 103 7 inlet spectrum;
#X connect 0 0 3 0;
#X connect 1 0 0 0;
#X connect 2 0 1 1;
#X connect 4 0 1 0;
#X connect 5 0 4 0;
#X connect 6 0 2 0;
#X restore 198 30 pd cosc;
#N canvas 0 0 253 185 cosc 0;
#X obj 8 125 cos~;
#X obj 8 105 +~;
#X obj 103 54 * 0.25;
#X obj 8 148 outlet~;
#X obj 9 83 osc~;
#X obj 9 6 inlet pitch;
#X obj 103 7 inlet spectrum;
#X connect 0 0 3 0;
#X connect 1 0 0 0;
#X connect 2 0 1 1;
#X connect 4 0 1 0;
#X connect 5 0 4 0;
#X connect 6 0 2 0;
#X restore 283 30 pd cosc;
#X connect 1 0 7 0;
#X connect 2 0 7 0;
#X connect 3 0 7 0;
#X connect 4 0 19 1;
#X connect 4 0 18 1;
#X connect 4 0 20 1;
#X connect 4 0 21 1;
#X connect 5 0 12 0;
#X connect 6 0 0 0;
#X connect 6 0 0 1;
#X connect 7 0 14 0;
#X connect 8 0 19 0;
#X connect 9 0 5 0;
#X connect 10 0 5 1;
#X connect 11 0 9 0;
#X connect 12 0 3 1;
#X connect 12 1 1 1;
#X connect 12 2 2 0;
#X connect 12 3 13 0;
#X connect 13 0 7 0;
#X connect 14 0 6 0;
#X connect 15 0 18 0;
#X connect 16 0 20 0;
#X connect 17 0 21 0;
#X connect 18 0 1 0;
#X connect 19 0 3 0;
#X connect 20 0 2 1;
#X connect 21 0 13 1;
