#N canvas 0 0 222 289 10;
#X obj 12 80 osc~ 480;
#X obj 13 126 +~;
#X obj 82 251 dac~;
#X obj 82 168 *~;
#X obj 29 100 osc~ 440;
#X obj 97 124 sig~;
#X obj 98 145 lop~ 100;
#X obj 82 192 telephone-line;
#X obj 83 218 *~ 1;
#X obj 97 54 f;
#X obj 97 76 mod 6;
#X obj 137 55 + 1;
#X obj 97 100 > 2;
#X obj 97 32 metro 1000;
#X obj 97 10 loadbang;
#X connect 0 0 1 0;
#X connect 1 0 3 0;
#X connect 3 0 7 0;
#X connect 4 0 1 1;
#X connect 5 0 6 0;
#X connect 6 0 3 1;
#X connect 7 0 8 0;
#X connect 8 0 2 0;
#X connect 8 0 2 1;
#X connect 9 0 10 0;
#X connect 10 0 11 0;
#X connect 10 0 12 0;
#X connect 11 0 9 1;
#X connect 12 0 5 0;
#X connect 13 0 9 0;
#X connect 14 0 13 0;
