#N canvas 683 299 367 366 10;
#N canvas 45 120 945 383 decoder 1;
#X obj 3 62 decode-tone 697;
#X obj 329 182 t f a;
#X obj 115 62 decode-tone 770;
#X obj 226 62 decode-tone 852;
#X obj 337 62 decode-tone 941;
#X obj 447 62 decode-tone 1209;
#X obj 566 62 decode-tone 1336;
#X obj 688 62 decode-tone 1477;
#X obj 409 2 inlet~ received tone;
#X obj 373 250 outlet decoded;
#X obj 329 205 change;
#X obj 329 227 moses 0;
#X obj 341 272 print a;
#X obj 64 107 sand 1;
#X obj 123 107 sand 2;
#X obj 184 107 sand 3;
#X obj 244 107 sand 4;
#X obj 304 107 sand 5;
#X obj 364 107 sand 6;
#X obj 424 107 sand 7;
#X obj 484 107 sand 8;
#X obj 544 107 sand 9;
#X obj 604 107 sand 0;
#X connect 0 0 13 0;
#X connect 0 0 14 0;
#X connect 0 0 15 0;
#X connect 1 0 10 0;
#X connect 2 0 16 1;
#X connect 2 0 17 0;
#X connect 2 0 18 0;
#X connect 3 0 19 0;
#X connect 3 0 20 0;
#X connect 3 0 21 0;
#X connect 4 0 22 0;
#X connect 5 0 13 1;
#X connect 5 0 16 0;
#X connect 5 0 19 1;
#X connect 6 0 14 1;
#X connect 6 0 17 1;
#X connect 6 0 20 1;
#X connect 6 0 22 1;
#X connect 7 0 15 1;
#X connect 7 0 18 1;
#X connect 7 0 21 1;
#X connect 8 0 0 0;
#X connect 8 0 2 0;
#X connect 8 0 3 0;
#X connect 8 0 4 0;
#X connect 8 0 5 0;
#X connect 8 0 6 0;
#X connect 8 0 7 0;
#X connect 10 0 11 0;
#X connect 11 1 9 0;
#X connect 11 1 12 0;
#X connect 13 0 1 0;
#X connect 14 0 1 0;
#X connect 15 0 1 0;
#X connect 16 0 1 0;
#X connect 17 0 1 0;
#X connect 18 0 1 0;
#X connect 19 0 1 0;
#X connect 20 0 1 0;
#X connect 21 0 1 0;
#X connect 22 0 1 0;
#X restore 27 34 pd decoder bank;
#X obj 27 10 r~ call;
#X obj 11 138 bng 15 3000 50 0 empty empty empty 0 -6 0 8 -262144 -258699
-1;
#N canvas 0 0 302 380 matchnumber 0;
#X obj 111 232 t l;
#X obj 140 232 list prepend;
#X obj 29 154 f;
#X obj 61 154 + 1;
#X msg 48 124 0;
#X obj 61 304 list-dotprod;
#X obj 61 257 list-emath -;
#X obj 61 280 t l l;
#X obj 61 328 sel 0;
#X obj 48 81 del 5000;
#X obj 61 178 sel 11;
#X obj 10 54 t f b b f;
#X obj 48 100 t b b;
#X obj 61 350 outlet match;
#X obj 10 24 inlet sequence;
#X text 112 80 timeout;
#X obj 61 203 list;
#X obj 174 20 inlet number;
#X connect 0 0 1 1;
#X connect 1 0 0 0;
#X connect 1 0 6 1;
#X connect 2 0 3 0;
#X connect 3 0 2 1;
#X connect 3 0 10 0;
#X connect 4 0 2 1;
#X connect 5 0 8 0;
#X connect 6 0 7 0;
#X connect 7 0 5 0;
#X connect 7 1 5 1;
#X connect 8 0 13 0;
#X connect 9 0 12 0;
#X connect 10 0 16 0;
#X connect 11 1 2 0;
#X connect 11 2 9 0;
#X connect 11 3 1 0;
#X connect 12 0 4 0;
#X connect 12 1 1 1;
#X connect 14 0 11 0;
#X connect 16 0 6 0;
#X connect 17 0 16 1;
#X restore 27 114 pd matchnumber;
#X msg 120 89 0 7 8 1 4 8 3 2 2 1 2;
#X obj 46 168 bng 15 3000 50 0 empty empty empty 0 -6 0 8 -262144 -258699
-1;
#N canvas 0 0 519 560 matchnumber 0;
#X obj 111 232 t l;
#X obj 140 232 list prepend;
#X obj 29 154 f;
#X obj 61 154 + 1;
#X msg 48 124 0;
#X obj 61 304 list-dotprod;
#X obj 61 257 list-emath -;
#X obj 61 280 t l l;
#X obj 61 328 sel 0;
#X obj 48 81 del 5000;
#X obj 61 178 sel 11;
#X obj 10 54 t f b b f;
#X obj 48 100 t b b;
#X obj 61 350 outlet match;
#X obj 10 24 inlet sequence;
#X text 112 80 timeout;
#X obj 61 203 list;
#X obj 174 20 inlet number;
#X connect 0 0 1 1;
#X connect 1 0 0 0;
#X connect 1 0 6 1;
#X connect 2 0 3 0;
#X connect 3 0 2 1;
#X connect 3 0 10 0;
#X connect 4 0 2 1;
#X connect 5 0 8 0;
#X connect 6 0 7 0;
#X connect 7 0 5 0;
#X connect 7 1 5 1;
#X connect 8 0 13 0;
#X connect 9 0 12 0;
#X connect 10 0 16 0;
#X connect 11 1 2 0;
#X connect 11 2 9 0;
#X connect 11 3 1 0;
#X connect 12 0 4 0;
#X connect 12 1 1 1;
#X connect 14 0 11 0;
#X connect 16 0 6 0;
#X connect 17 0 16 1;
#X restore 61 142 pd matchnumber;
#X obj 80 201 bng 15 3000 50 0 empty empty empty 0 -6 0 8 -262144 -258699
-1;
#N canvas 0 0 519 560 matchnumber 0;
#X obj 111 232 t l;
#X obj 140 232 list prepend;
#X obj 29 154 f;
#X obj 61 154 + 1;
#X msg 48 124 0;
#X obj 61 304 list-dotprod;
#X obj 61 257 list-emath -;
#X obj 61 280 t l l;
#X obj 61 328 sel 0;
#X obj 48 81 del 5000;
#X obj 61 178 sel 11;
#X obj 10 54 t f b b f;
#X obj 48 100 t b b;
#X obj 61 350 outlet match;
#X obj 10 24 inlet sequence;
#X text 112 80 timeout;
#X obj 61 203 list;
#X obj 174 20 inlet number;
#X connect 0 0 1 1;
#X connect 1 0 0 0;
#X connect 1 0 6 1;
#X connect 2 0 3 0;
#X connect 3 0 2 1;
#X connect 3 0 10 0;
#X connect 4 0 2 1;
#X connect 5 0 8 0;
#X connect 6 0 7 0;
#X connect 7 0 5 0;
#X connect 7 1 5 1;
#X connect 8 0 13 0;
#X connect 9 0 12 0;
#X connect 10 0 16 0;
#X connect 11 1 2 0;
#X connect 11 2 9 0;
#X connect 11 3 1 0;
#X connect 12 0 4 0;
#X connect 12 1 1 1;
#X connect 14 0 11 0;
#X connect 16 0 6 0;
#X connect 17 0 16 1;
#X restore 94 175 pd matchnumber;
#X obj 120 64 loadbang;
#N canvas 0 0 592 250 multi-tone-alarm 0;
#X obj 293 229 dac~;
#X obj 241 124 *~;
#X obj 325 125 *~;
#X obj 161 124 *~;
#N canvas 0 0 218 139 oddeven 0;
#X obj 8 91 cos~;
#X obj 8 71 +~;
#X obj 103 28 * 0.25;
#X obj 8 114 outlet~;
#X obj 9 49 osc~;
#X obj 9 6 inlet pitch;
#X obj 103 7 inlet spectrum;
#X connect 0 0 3 0;
#X connect 1 0 0 0;
#X connect 2 0 1 1;
#X connect 4 0 1 0;
#X connect 5 0 4 0;
#X connect 6 0 2 0;
#X restore 160 37 pd oddeven;
#N canvas 0 0 255 294 timebase 0;
#X msg 6 77 1 \$1;
#X msg 49 77 0 0;
#X obj 49 52 del;
#X obj 6 113 line~;
#X obj 6 6 inlet risetime;
#X obj 6 189 outlet~ linecontrol;
#X obj 22 139 inlet scale;
#X msg 92 76 0;
#X obj 6 28 trigger f f b;
#X obj 6 163 *~;
#X connect 0 0 3 0;
#X connect 1 0 3 0;
#X connect 2 0 1 0;
#X connect 3 0 9 0;
#X connect 4 0 8 0;
#X connect 6 0 9 1;
#X connect 7 0 3 0;
#X connect 8 0 0 0;
#X connect 8 1 2 0;
#X connect 8 2 7 0;
#X connect 9 0 5 0;
#X restore 254 66 pd timebase;
#X obj 293 157 *~ 0.25;
#N canvas 0 0 253 185 oddeven 0;
#X obj 8 125 cos~;
#X obj 8 105 +~;
#X obj 103 54 * 0.25;
#X obj 8 148 outlet~;
#X obj 9 83 osc~;
#X obj 9 6 inlet pitch;
#X obj 103 7 inlet spectrum;
#X connect 0 0 3 0;
#X connect 1 0 0 0;
#X connect 2 0 1 1;
#X connect 4 0 1 0;
#X connect 5 0 4 0;
#X connect 6 0 2 0;
#X restore 242 38 pd oddeven;
#N canvas 0 0 253 185 oddeven 0;
#X obj 8 125 cos~;
#X obj 8 105 +~;
#X obj 103 54 * 0.25;
#X obj 8 148 outlet~;
#X obj 9 83 osc~;
#X obj 9 6 inlet pitch;
#X obj 103 7 inlet spectrum;
#X connect 0 0 3 0;
#X connect 1 0 0 0;
#X connect 2 0 1 1;
#X connect 4 0 1 0;
#X connect 5 0 4 0;
#X connect 6 0 2 0;
#X restore 324 38 pd oddeven;
#N canvas 11 420 328 247 4phase-osc 0;
#X obj 4 85 clip~ 0 1;
#X obj 81 84 clip~ 1 2;
#X obj 155 83 clip~ 2 3;
#X obj 80 107 -~ 1;
#X obj 156 106 -~ 2;
#X obj 79 131 *~ 0.5;
#X obj 79 154 -~ 0.25;
#X obj 79 176 cos~;
#X obj 156 129 *~ 0.5;
#X obj 156 152 -~ 0.25;
#X obj 156 174 cos~;
#X obj 3 134 *~ 0.5;
#X obj 3 157 -~ 0.25;
#X obj 3 179 cos~;
#X obj 2 201 outlet~;
#X obj 80 199 outlet~;
#X obj 156 197 outlet~;
#X obj 124 5 inlet~ run;
#X obj 124 27 wrap~;
#X obj 226 129 *~ 0.5;
#X obj 226 152 -~ 0.25;
#X obj 226 174 cos~;
#X obj 226 197 outlet~;
#X obj 124 49 *~ 4;
#X obj 225 83 clip~ 3 4;
#X obj 226 106 -~ 3;
#X connect 0 0 11 0;
#X connect 1 0 3 0;
#X connect 2 0 4 0;
#X connect 3 0 5 0;
#X connect 4 0 8 0;
#X connect 5 0 6 0;
#X connect 6 0 7 0;
#X connect 7 0 15 0;
#X connect 8 0 9 0;
#X connect 9 0 10 0;
#X connect 10 0 16 0;
#X connect 11 0 12 0;
#X connect 12 0 13 0;
#X connect 13 0 14 0;
#X connect 17 0 18 0;
#X connect 18 0 23 0;
#X connect 19 0 20 0;
#X connect 20 0 21 0;
#X connect 21 0 22 0;
#X connect 23 0 0 0;
#X connect 23 0 1 0;
#X connect 23 0 2 0;
#X connect 23 0 24 0;
#X connect 24 0 25 0;
#X connect 25 0 19 0;
#X restore 255 93 pd 4phase-osc;
#X obj 405 125 *~;
#N canvas 0 0 253 185 oddeven 0;
#X obj 8 125 cos~;
#X obj 8 105 +~;
#X obj 103 54 * 0.25;
#X obj 8 148 outlet~;
#X obj 9 83 osc~;
#X obj 9 6 inlet pitch;
#X obj 103 7 inlet spectrum;
#X connect 0 0 3 0;
#X connect 1 0 0 0;
#X connect 2 0 1 1;
#X connect 4 0 1 0;
#X connect 5 0 4 0;
#X connect 6 0 2 0;
#X restore 406 38 pd oddeven;
#X obj 293 180 hip~ 50;
#X obj 160 1 inlet fosc1;
#X obj 406 1 inlet fosc4;
#X obj 324 1 inlet fosc3;
#X obj 242 1 inlet fosc2;
#X obj 489 1 inlet spectrum;
#X obj 76 1 inlet speed;
#X obj 0 1 inlet time;
#X obj 294 203 *~ 0.8;
#X connect 1 0 6 0;
#X connect 2 0 6 0;
#X connect 3 0 6 0;
#X connect 4 0 3 0;
#X connect 5 0 9 0;
#X connect 6 0 12 0;
#X connect 7 0 1 0;
#X connect 8 0 2 0;
#X connect 9 0 3 1;
#X connect 9 1 1 1;
#X connect 9 2 2 1;
#X connect 9 3 10 1;
#X connect 10 0 6 0;
#X connect 11 0 10 0;
#X connect 12 0 20 0;
#X connect 13 0 4 0;
#X connect 14 0 11 0;
#X connect 15 0 8 0;
#X connect 16 0 7 0;
#X connect 17 0 11 1;
#X connect 17 0 8 1;
#X connect 17 0 7 1;
#X connect 17 0 4 1;
#X connect 18 0 5 1;
#X connect 19 0 5 0;
#X connect 20 0 0 0;
#X connect 20 0 0 1;
#X restore 61 343 pd multi-tone-alarm;
#X obj 61 318 unpack f f f f f f f;
#N canvas 0 0 450 300 toms 0;
#X msg 80 98 317 3 349 0 0 0 1;
#X msg 159 144 317 7 300 125 0 0 1;
#X msg 102 119 238 1 317.46 0 0 476 0;
#X obj 102 73 del 500;
#X obj 159 73 del 500;
#X obj 80 46 t b b b;
#X obj 80 23 inlet toms tone;
#X obj 80 206 outlet;
#X connect 0 0 7 0;
#X connect 1 0 7 0;
#X connect 2 0 7 0;
#X connect 3 0 2 0;
#X connect 4 0 1 0;
#X connect 5 0 0 0;
#X connect 5 1 3 0;
#X connect 5 2 4 0;
#X connect 6 0 5 0;
#X restore 27 279 pd toms ringtone;
#N canvas 0 0 450 300 dicks 0;
#X obj 80 46 t b b b;
#X obj 80 206 outlet;
#X msg 97 141 634 61 1000 476.19 158.73 0 1;
#X msg 80 108 200 30 1000 476.2 158.7 0 1;
#X obj 102 73 del 200;
#X obj 80 23 inlet dicks tone;
#X connect 0 0 3 0;
#X connect 0 1 4 0;
#X connect 2 0 1 0;
#X connect 3 0 1 0;
#X connect 4 0 2 0;
#X connect 5 0 0 0;
#X restore 61 257 pd dicks ringtone;
#N canvas 0 0 450 300 harrys 0;
#X obj 80 46 t b b b;
#X obj 80 206 outlet;
#X msg 136 115 1031 9 360 238 174 158 1;
#X msg 81 139 1428 3 619 571 365 206 1;
#X obj 102 73 del 1050;
#X obj 80 23 inlet harrys tone;
#X connect 0 0 3 0;
#X connect 0 1 4 0;
#X connect 2 0 1 0;
#X connect 3 0 1 0;
#X connect 4 0 2 0;
#X connect 5 0 0 0;
#X restore 94 234 pd harrys ringtone;
#X msg 154 117 0 7 7 8 7 1 2 3 4 5 6;
#X msg 187 150 0 7 8 9 0 1 2 3 4 5 6;
#X obj 39 237 bng 15 250 50 0 empty empty empty 0 -6 0 8 -262144 -1
-1;
#X connect 0 0 3 0;
#X connect 0 0 6 0;
#X connect 0 0 8 0;
#X connect 1 0 0 0;
#X connect 3 0 2 0;
#X connect 3 0 12 0;
#X connect 4 0 3 1;
#X connect 6 0 5 0;
#X connect 6 0 13 0;
#X connect 8 0 7 0;
#X connect 8 0 14 0;
#X connect 9 0 4 0;
#X connect 9 0 15 0;
#X connect 9 0 16 0;
#X connect 11 0 10 0;
#X connect 11 1 10 1;
#X connect 11 2 10 2;
#X connect 11 3 10 3;
#X connect 11 4 10 4;
#X connect 11 5 10 5;
#X connect 11 6 10 6;
#X connect 12 0 11 0;
#X connect 13 0 11 0;
#X connect 14 0 11 0;
#X connect 15 0 6 1;
#X connect 16 0 8 1;
#X connect 17 0 12 0;
