#N canvas 70 121 924 357 10;
#X obj 3 62 decode-tone 697;
#X obj 128 153 &&;
#X obj 168 153 &&;
#X obj 208 153 &&;
#X obj 248 153 &&;
#X msg 128 203 1;
#X obj 128 179 sel 1;
#X obj 168 179 sel 1;
#X obj 208 179 sel 1;
#X obj 248 179 sel 1;
#X msg 168 203 2;
#X msg 208 203 3;
#X msg 248 203 4;
#X msg 429 313 set \$1;
#X msg 429 337 star;
#X obj 288 153 &&;
#X obj 328 153 &&;
#X obj 368 153 &&;
#X obj 408 153 &&;
#X obj 288 179 sel 1;
#X obj 328 179 sel 1;
#X obj 368 179 sel 1;
#X obj 408 179 sel 1;
#X msg 288 203 5;
#X msg 328 203 6;
#X msg 368 203 7;
#X msg 408 203 8;
#X obj 448 153 &&;
#X obj 488 153 &&;
#X obj 528 153 &&;
#X obj 568 153 &&;
#X obj 448 179 sel 1;
#X obj 488 179 sel 1;
#X obj 528 179 sel 1;
#X obj 568 179 sel 1;
#X msg 448 203 9;
#X obj 608 153 &&;
#X obj 648 153 &&;
#X obj 688 153 &&;
#X obj 608 179 sel 1;
#X obj 648 179 sel 1;
#X obj 688 179 sel 1;
#X msg 488 203 0;
#X msg 528 203 A;
#X msg 568 203 B;
#X msg 608 203 C;
#X msg 648 203 D;
#X obj 738 153 &&;
#X obj 738 179 sel 1;
#X msg 738 203 hash;
#X msg 688 203 star;
#X obj 429 253 t f a;
#X obj 459 278 symbol;
#X text 742 117 don't look here;
#X obj 115 62 decode-tone 770;
#X obj 226 62 decode-tone 852;
#X obj 337 62 decode-tone 941;
#X obj 447 62 decode-tone 1209;
#X obj 566 62 decode-tone 1336;
#X obj 688 62 decode-tone 1477;
#X obj 807 62 decode-tone 1633;
#X obj 409 2 r~ call;
#X connect 0 0 1 0;
#X connect 0 0 2 0;
#X connect 0 0 3 0;
#X connect 0 0 29 0;
#X connect 1 0 6 0;
#X connect 2 0 7 0;
#X connect 3 0 8 0;
#X connect 4 0 9 0;
#X connect 5 0 51 0;
#X connect 6 0 5 0;
#X connect 7 0 10 0;
#X connect 8 0 11 0;
#X connect 9 0 12 0;
#X connect 10 0 51 0;
#X connect 11 0 51 0;
#X connect 12 0 51 0;
#X connect 13 0 14 0;
#X connect 15 0 19 0;
#X connect 16 0 20 0;
#X connect 17 0 21 0;
#X connect 18 0 22 0;
#X connect 19 0 23 0;
#X connect 20 0 24 0;
#X connect 21 0 25 0;
#X connect 22 0 26 0;
#X connect 23 0 51 0;
#X connect 24 0 51 0;
#X connect 25 0 51 0;
#X connect 26 0 51 0;
#X connect 27 0 31 0;
#X connect 28 0 32 0;
#X connect 29 0 33 0;
#X connect 30 0 34 0;
#X connect 31 0 35 0;
#X connect 32 0 42 0;
#X connect 33 0 43 0;
#X connect 34 0 44 0;
#X connect 35 0 51 0;
#X connect 36 0 39 0;
#X connect 37 0 40 0;
#X connect 38 0 41 0;
#X connect 39 0 45 0;
#X connect 40 0 46 0;
#X connect 41 0 50 0;
#X connect 42 0 51 0;
#X connect 43 0 51 0;
#X connect 44 0 51 0;
#X connect 45 0 51 0;
#X connect 46 0 51 0;
#X connect 47 0 48 0;
#X connect 48 0 49 0;
#X connect 49 0 51 0;
#X connect 50 0 51 0;
#X connect 51 0 13 0;
#X connect 51 1 52 0;
#X connect 52 0 13 0;
#X connect 54 0 4 1;
#X connect 54 0 15 0;
#X connect 54 0 16 0;
#X connect 54 0 30 0;
#X connect 55 0 17 0;
#X connect 55 0 18 0;
#X connect 55 0 27 0;
#X connect 55 0 36 0;
#X connect 56 0 28 0;
#X connect 56 0 38 0;
#X connect 56 0 47 0;
#X connect 56 0 37 0;
#X connect 57 0 1 1;
#X connect 57 0 4 0;
#X connect 57 0 17 1;
#X connect 57 0 38 1;
#X connect 58 0 2 1;
#X connect 58 0 15 1;
#X connect 58 0 18 1;
#X connect 58 0 28 1;
#X connect 59 0 3 1;
#X connect 59 0 16 1;
#X connect 59 0 27 1;
#X connect 59 0 47 1;
#X connect 60 0 29 1;
#X connect 60 0 30 1;
#X connect 60 0 36 1;
#X connect 60 0 37 1;
#X connect 61 0 0 0;
#X connect 61 0 54 0;
#X connect 61 0 55 0;
#X connect 61 0 56 0;
#X connect 61 0 57 0;
#X connect 61 0 58 0;
#X connect 61 0 59 0;
#X connect 61 0 60 0;
