#N canvas 200 283 240 242 10;
#X obj 59 77 osc~;
#X obj 124 76 osc~;
#X obj 91 104 +~;
#X obj 91 222 dac~;
#X obj 59 37 unpack f f;
#X obj 179 76 line~;
#X obj 92 144 *~;
#X msg 212 1 1 1;
#X msg 179 1 0 1;
#X msg 59 1 300 400;
#X msg 1 1 200 250;
#X obj 92 189 *~ 0.125;
#X msg 118 1 500 250;
#X connect 0 0 2 0;
#X connect 1 0 2 1;
#X connect 2 0 6 0;
#X connect 4 0 0 0;
#X connect 4 1 1 0;
#X connect 5 0 6 1;
#X connect 6 0 11 0;
#X connect 7 0 5 0;
#X connect 8 0 5 0;
#X connect 9 0 4 0;
#X connect 10 0 4 0;
#X connect 11 0 3 0;
#X connect 11 0 3 1;
#X connect 12 0 4 0;
