#N canvas 497 94 462 271 10;
#N canvas 69 121 744 561 phone-effects 0;
#X obj 12 80 osc~ 480;
#X obj 13 126 +~;
#X obj 82 168 *~;
#X obj 29 100 osc~ 440;
#X obj 97 124 sig~;
#X obj 98 145 lop~ 100;
#X obj 97 54 f;
#X obj 97 76 mod 6;
#X obj 137 55 + 1;
#X obj 97 100 > 2;
#X obj 97 32 metro 1000;
#X obj 97 10 loadbang;
#X obj 273 128 osc~ 450;
#X obj 258 105 osc~ 350;
#X obj 257 150 +~;
#X obj 239 353 dac~;
#X obj 240 172 *~;
#X obj 239 262 telephone-line;
#X obj 83 194 *~;
#X obj 357 110 osc~;
#X obj 422 109 osc~;
#X obj 389 135 +~;
#X obj 357 74 unpack f f;
#X obj 463 134 line~;
#X obj 390 166 *~;
#X obj 390 189 hip~ 100;
#X msg 524 78 1 1;
#X msg 463 99 0 1;
#X obj 463 79 del 200;
#X obj 433 21 r dialme;
#X obj 433 45 t a b b;
#N canvas 0 0 565 184 dial 0;
#X msg 7 32 1209 697;
#X obj 7 8 r \$0-1;
#X obj 73 8 r \$0-2;
#X obj 140 8 r \$0-3;
#X obj 206 8 r \$0-4;
#X obj 271 8 r \$0-5;
#X obj 337 8 r \$0-6;
#X obj 403 8 r \$0-7;
#X obj 470 8 r \$0-8;
#X obj 8 80 r \$0-9;
#X obj 74 80 r \$0-A;
#X obj 141 80 r \$0-B;
#X obj 207 80 r \$0-C;
#X obj 272 80 r \$0-D;
#X obj 338 80 r \$0-0;
#X obj 404 80 r \$0-star;
#X obj 475 80 r \$0-hash;
#X obj 7 55 s dialme;
#X obj 73 55 s dialme;
#X obj 140 55 s dialme;
#X obj 206 55 s dialme;
#X obj 271 55 s dialme;
#X obj 337 55 s dialme;
#X obj 403 55 s dialme;
#X obj 470 55 s dialme;
#X obj 8 127 s dialme;
#X obj 74 127 s dialme;
#X obj 141 127 s dialme;
#X obj 207 127 s dialme;
#X obj 272 127 s dialme;
#X obj 338 127 s dialme;
#X obj 404 127 s dialme;
#X obj 475 127 s dialme;
#X msg 73 32 1336 697;
#X msg 140 32 1477 697;
#X msg 74 104 1633 697;
#X msg 206 32 1209 770;
#X msg 271 32 1336 770;
#X msg 337 32 1477 770;
#X msg 141 104 1633 770;
#X msg 403 32 1209 852;
#X msg 470 32 1336 852;
#X msg 8 104 1477 852;
#X msg 207 104 1633 852;
#X msg 404 104 1209 941;
#X msg 338 104 1336 941;
#X msg 475 104 1477 941;
#X msg 272 104 1633 941;
#X connect 0 0 17 0;
#X connect 1 0 0 0;
#X connect 2 0 33 0;
#X connect 3 0 34 0;
#X connect 4 0 36 0;
#X connect 5 0 37 0;
#X connect 6 0 38 0;
#X connect 7 0 40 0;
#X connect 8 0 41 0;
#X connect 9 0 42 0;
#X connect 10 0 35 0;
#X connect 11 0 39 0;
#X connect 12 0 43 0;
#X connect 13 0 47 0;
#X connect 14 0 45 0;
#X connect 15 0 44 0;
#X connect 16 0 46 0;
#X connect 33 0 18 0;
#X connect 34 0 19 0;
#X connect 35 0 26 0;
#X connect 36 0 20 0;
#X connect 37 0 21 0;
#X connect 38 0 22 0;
#X connect 39 0 27 0;
#X connect 40 0 23 0;
#X connect 41 0 24 0;
#X connect 42 0 25 0;
#X connect 43 0 28 0;
#X connect 44 0 31 0;
#X connect 45 0 30 0;
#X connect 46 0 32 0;
#X connect 47 0 29 0;
#X restore 323 21 pd dial tables;
#N canvas 45 120 945 383 decoder 0;
#X obj 3 62 decode-tone 697;
#X obj 329 182 t f a;
#X obj 115 62 decode-tone 770;
#X obj 226 62 decode-tone 852;
#X obj 337 62 decode-tone 941;
#X obj 447 62 decode-tone 1209;
#X obj 566 62 decode-tone 1336;
#X obj 688 62 decode-tone 1477;
#X obj 409 2 inlet~ received tone;
#X obj 373 250 outlet decoded;
#X obj 329 205 change;
#X obj 329 227 moses 0;
#X obj 341 272 print a;
#X obj 64 107 sand 1;
#X obj 123 107 sand 2;
#X obj 184 107 sand 3;
#X obj 244 107 sand 4;
#X obj 304 107 sand 5;
#X obj 364 107 sand 6;
#X obj 424 107 sand 7;
#X obj 484 107 sand 8;
#X obj 544 107 sand 9;
#X obj 604 107 sand 0;
#X connect 0 0 13 0;
#X connect 0 0 14 0;
#X connect 0 0 15 0;
#X connect 1 0 10 0;
#X connect 2 0 16 1;
#X connect 2 0 17 0;
#X connect 2 0 18 0;
#X connect 3 0 19 0;
#X connect 3 0 20 0;
#X connect 3 0 21 0;
#X connect 4 0 22 0;
#X connect 5 0 13 1;
#X connect 5 0 16 0;
#X connect 5 0 19 1;
#X connect 6 0 14 1;
#X connect 6 0 17 1;
#X connect 6 0 20 1;
#X connect 6 0 22 1;
#X connect 7 0 15 1;
#X connect 7 0 18 1;
#X connect 7 0 21 1;
#X connect 8 0 0 0;
#X connect 8 0 2 0;
#X connect 8 0 3 0;
#X connect 8 0 4 0;
#X connect 8 0 5 0;
#X connect 8 0 6 0;
#X connect 8 0 7 0;
#X connect 10 0 11 0;
#X connect 11 1 9 0;
#X connect 11 1 12 0;
#X connect 13 0 1 0;
#X connect 14 0 1 0;
#X connect 15 0 1 0;
#X connect 16 0 1 0;
#X connect 17 0 1 0;
#X connect 18 0 1 0;
#X connect 19 0 1 0;
#X connect 20 0 1 0;
#X connect 21 0 1 0;
#X connect 22 0 1 0;
#X restore 390 236 pd decoder bank;
#N canvas 0 0 302 380 matchnumber 0;
#X obj 111 232 t l;
#X obj 140 232 list prepend;
#X obj 29 154 f;
#X obj 61 154 + 1;
#X msg 48 124 0;
#X obj 61 304 list-dotprod;
#X obj 61 257 list-emath -;
#X obj 61 280 t l l;
#X obj 61 328 sel 0;
#X obj 48 81 del 5000;
#X obj 10 54 t f b b f;
#X obj 48 100 t b b;
#X obj 61 350 outlet match;
#X obj 10 24 inlet sequence;
#X text 112 80 timeout;
#X obj 61 203 list;
#X obj 174 20 inlet number;
#X obj 61 178 sel 10;
#X connect 0 0 1 1;
#X connect 1 0 0 0;
#X connect 1 0 6 1;
#X connect 2 0 3 0;
#X connect 3 0 2 1;
#X connect 3 0 17 0;
#X connect 4 0 2 1;
#X connect 5 0 8 0;
#X connect 6 0 7 0;
#X connect 7 0 5 0;
#X connect 7 1 5 1;
#X connect 8 0 12 0;
#X connect 9 0 11 0;
#X connect 10 1 2 0;
#X connect 10 2 9 0;
#X connect 10 3 1 0;
#X connect 11 0 4 0;
#X connect 11 1 1 1;
#X connect 13 0 10 0;
#X connect 15 0 6 0;
#X connect 16 0 15 1;
#X connect 17 0 15 0;
#X restore 390 307 pd matchnumber;
#N canvas 0 0 519 560 matchnumber 0;
#X obj 111 232 t l;
#X obj 140 232 list prepend;
#X obj 29 154 f;
#X obj 61 154 + 1;
#X msg 48 124 0;
#X obj 61 304 list-dotprod;
#X obj 61 257 list-emath -;
#X obj 61 280 t l l;
#X obj 61 328 sel 0;
#X obj 48 81 del 5000;
#X obj 10 54 t f b b f;
#X obj 48 100 t b b;
#X obj 61 350 outlet match;
#X obj 10 24 inlet sequence;
#X text 112 80 timeout;
#X obj 61 203 list;
#X obj 174 20 inlet number;
#X obj 61 178 sel 10;
#X connect 0 0 1 1;
#X connect 1 0 0 0;
#X connect 1 0 6 1;
#X connect 2 0 3 0;
#X connect 3 0 2 1;
#X connect 3 0 17 0;
#X connect 4 0 2 1;
#X connect 5 0 8 0;
#X connect 6 0 7 0;
#X connect 7 0 5 0;
#X connect 7 1 5 1;
#X connect 8 0 12 0;
#X connect 9 0 11 0;
#X connect 10 1 2 0;
#X connect 10 2 9 0;
#X connect 10 3 1 0;
#X connect 11 0 4 0;
#X connect 11 1 1 1;
#X connect 13 0 10 0;
#X connect 15 0 6 0;
#X connect 16 0 15 1;
#X connect 17 0 15 0;
#X restore 424 353 pd matchnumber;
#N canvas 0 0 519 560 matchnumber 0;
#X obj 111 232 t l;
#X obj 140 232 list prepend;
#X obj 29 154 f;
#X obj 61 154 + 1;
#X msg 48 124 0;
#X obj 61 304 list-dotprod;
#X obj 61 257 list-emath -;
#X obj 61 280 t l l;
#X obj 61 328 sel 0;
#X obj 61 350 outlet match;
#X obj 10 24 inlet sequence;
#X text 112 80 timeout;
#X obj 61 203 list;
#X obj 174 20 inlet number;
#X obj 61 178 sel 10;
#X obj 117 131 s dialtone;
#X obj 48 100 t b b b;
#X obj 10 54 t f b b f b;
#X obj 127 104 s silence;
#X obj 48 81 del 8000;
#X connect 0 0 1 1;
#X connect 1 0 0 0;
#X connect 1 0 6 1;
#X connect 2 0 3 0;
#X connect 3 0 2 1;
#X connect 3 0 14 0;
#X connect 4 0 2 1;
#X connect 5 0 8 0;
#X connect 6 0 7 0;
#X connect 7 0 5 0;
#X connect 7 1 5 1;
#X connect 8 0 9 0;
#X connect 10 0 17 0;
#X connect 12 0 6 0;
#X connect 13 0 12 1;
#X connect 14 0 12 0;
#X connect 16 0 4 0;
#X connect 16 1 1 1;
#X connect 16 2 15 0;
#X connect 17 1 2 0;
#X connect 17 2 19 0;
#X connect 17 3 1 0;
#X connect 17 4 18 0;
#X connect 19 0 16 0;
#X restore 457 399 pd matchnumber;
#X obj 483 258 loadbang;
#N canvas 0 0 592 250 multi-tone-alarm 0;
#X obj 293 229 dac~;
#X obj 241 124 *~;
#X obj 325 125 *~;
#X obj 161 124 *~;
#N canvas 0 0 218 139 oddeven 0;
#X obj 8 91 cos~;
#X obj 8 71 +~;
#X obj 103 28 * 0.25;
#X obj 8 114 outlet~;
#X obj 9 49 osc~;
#X obj 9 6 inlet pitch;
#X obj 103 7 inlet spectrum;
#X connect 0 0 3 0;
#X connect 1 0 0 0;
#X connect 2 0 1 1;
#X connect 4 0 1 0;
#X connect 5 0 4 0;
#X connect 6 0 2 0;
#X restore 160 37 pd oddeven;
#N canvas 0 0 255 294 timebase 0;
#X msg 6 77 1 \$1;
#X msg 49 77 0 0;
#X obj 49 52 del;
#X obj 6 113 line~;
#X obj 6 6 inlet risetime;
#X obj 6 189 outlet~ linecontrol;
#X obj 22 139 inlet scale;
#X msg 92 76 0;
#X obj 6 28 trigger f f b;
#X obj 6 163 *~;
#X connect 0 0 3 0;
#X connect 1 0 3 0;
#X connect 2 0 1 0;
#X connect 3 0 9 0;
#X connect 4 0 8 0;
#X connect 6 0 9 1;
#X connect 7 0 3 0;
#X connect 8 0 0 0;
#X connect 8 1 2 0;
#X connect 8 2 7 0;
#X connect 9 0 5 0;
#X restore 254 66 pd timebase;
#X obj 293 157 *~ 0.25;
#N canvas 0 0 253 185 oddeven 0;
#X obj 8 125 cos~;
#X obj 8 105 +~;
#X obj 103 54 * 0.25;
#X obj 8 148 outlet~;
#X obj 9 83 osc~;
#X obj 9 6 inlet pitch;
#X obj 103 7 inlet spectrum;
#X connect 0 0 3 0;
#X connect 1 0 0 0;
#X connect 2 0 1 1;
#X connect 4 0 1 0;
#X connect 5 0 4 0;
#X connect 6 0 2 0;
#X restore 242 38 pd oddeven;
#N canvas 0 0 253 185 oddeven 0;
#X obj 8 125 cos~;
#X obj 8 105 +~;
#X obj 103 54 * 0.25;
#X obj 8 148 outlet~;
#X obj 9 83 osc~;
#X obj 9 6 inlet pitch;
#X obj 103 7 inlet spectrum;
#X connect 0 0 3 0;
#X connect 1 0 0 0;
#X connect 2 0 1 1;
#X connect 4 0 1 0;
#X connect 5 0 4 0;
#X connect 6 0 2 0;
#X restore 324 38 pd oddeven;
#N canvas 11 420 328 247 4phase-osc 0;
#X obj 4 85 clip~ 0 1;
#X obj 81 84 clip~ 1 2;
#X obj 155 83 clip~ 2 3;
#X obj 80 107 -~ 1;
#X obj 156 106 -~ 2;
#X obj 79 131 *~ 0.5;
#X obj 79 154 -~ 0.25;
#X obj 79 176 cos~;
#X obj 156 129 *~ 0.5;
#X obj 156 152 -~ 0.25;
#X obj 156 174 cos~;
#X obj 3 134 *~ 0.5;
#X obj 3 157 -~ 0.25;
#X obj 3 179 cos~;
#X obj 2 201 outlet~;
#X obj 80 199 outlet~;
#X obj 156 197 outlet~;
#X obj 124 5 inlet~ run;
#X obj 124 27 wrap~;
#X obj 226 129 *~ 0.5;
#X obj 226 152 -~ 0.25;
#X obj 226 174 cos~;
#X obj 226 197 outlet~;
#X obj 124 49 *~ 4;
#X obj 225 83 clip~ 3 4;
#X obj 226 106 -~ 3;
#X connect 0 0 11 0;
#X connect 1 0 3 0;
#X connect 2 0 4 0;
#X connect 3 0 5 0;
#X connect 4 0 8 0;
#X connect 5 0 6 0;
#X connect 6 0 7 0;
#X connect 7 0 15 0;
#X connect 8 0 9 0;
#X connect 9 0 10 0;
#X connect 10 0 16 0;
#X connect 11 0 12 0;
#X connect 12 0 13 0;
#X connect 13 0 14 0;
#X connect 17 0 18 0;
#X connect 18 0 23 0;
#X connect 19 0 20 0;
#X connect 20 0 21 0;
#X connect 21 0 22 0;
#X connect 23 0 0 0;
#X connect 23 0 1 0;
#X connect 23 0 2 0;
#X connect 23 0 24 0;
#X connect 24 0 25 0;
#X connect 25 0 19 0;
#X restore 255 93 pd 4phase-osc;
#X obj 405 125 *~;
#N canvas 0 0 253 185 oddeven 0;
#X obj 8 125 cos~;
#X obj 8 105 +~;
#X obj 103 54 * 0.25;
#X obj 8 148 outlet~;
#X obj 9 83 osc~;
#X obj 9 6 inlet pitch;
#X obj 103 7 inlet spectrum;
#X connect 0 0 3 0;
#X connect 1 0 0 0;
#X connect 2 0 1 1;
#X connect 4 0 1 0;
#X connect 5 0 4 0;
#X connect 6 0 2 0;
#X restore 406 38 pd oddeven;
#X obj 293 180 hip~ 50;
#X obj 160 1 inlet fosc1;
#X obj 406 1 inlet fosc4;
#X obj 324 1 inlet fosc3;
#X obj 242 1 inlet fosc2;
#X obj 489 1 inlet spectrum;
#X obj 76 1 inlet speed;
#X obj 0 1 inlet time;
#X obj 294 203 *~ 0.5;
#X connect 1 0 6 0;
#X connect 2 0 6 0;
#X connect 3 0 6 0;
#X connect 4 0 3 0;
#X connect 5 0 9 0;
#X connect 6 0 12 0;
#X connect 7 0 1 0;
#X connect 8 0 2 0;
#X connect 9 0 3 1;
#X connect 9 1 1 1;
#X connect 9 2 2 1;
#X connect 9 3 10 1;
#X connect 10 0 6 0;
#X connect 11 0 10 0;
#X connect 12 0 20 0;
#X connect 13 0 4 0;
#X connect 14 0 11 0;
#X connect 15 0 8 0;
#X connect 16 0 7 0;
#X connect 17 0 11 1;
#X connect 17 0 8 1;
#X connect 17 0 7 1;
#X connect 17 0 4 1;
#X connect 18 0 5 1;
#X connect 19 0 5 0;
#X connect 20 0 0 0;
#X connect 20 0 0 1;
#X restore 53 409 pd multi-tone-alarm;
#X obj 53 384 unpack f f f f f f f;
#N canvas 0 0 450 300 toms 0;
#X msg 80 98 317 3 349 0 0 0 1;
#X msg 159 144 317 7 300 125 0 0 1;
#X msg 102 119 238 1 317.46 0 0 476 0;
#X obj 102 73 del 500;
#X obj 159 73 del 500;
#X obj 80 46 t b b b;
#X obj 80 23 inlet toms tone;
#X obj 80 206 outlet;
#X connect 0 0 7 0;
#X connect 1 0 7 0;
#X connect 2 0 7 0;
#X connect 3 0 2 0;
#X connect 4 0 1 0;
#X connect 5 0 0 0;
#X connect 5 1 3 0;
#X connect 5 2 4 0;
#X connect 6 0 5 0;
#X restore 19 359 pd toms ringtone;
#N canvas 0 0 450 300 dicks 0;
#X obj 80 46 t b b b;
#X obj 80 206 outlet;
#X msg 97 141 634 61 1000 476.19 158.73 0 1;
#X obj 80 23 inlet dicks tone;
#X obj 102 73 del 300;
#X msg 80 108 125 20 1000 476.2 158.7 0 1;
#X connect 0 0 5 0;
#X connect 0 1 4 0;
#X connect 2 0 1 0;
#X connect 3 0 0 0;
#X connect 4 0 2 0;
#X connect 5 0 1 0;
#X restore 53 317 pd dicks ringtone;
#N canvas 0 0 450 300 harrys 0;
#X obj 80 46 t b b b;
#X obj 80 206 outlet;
#X msg 136 115 1031 9 360 238 174 158 1;
#X msg 81 139 1428 3 619 571 365 206 1;
#X obj 102 73 del 1050;
#X obj 80 23 inlet harrys tone;
#X connect 0 0 3 0;
#X connect 0 1 4 0;
#X connect 2 0 1 0;
#X connect 3 0 1 0;
#X connect 4 0 2 0;
#X connect 5 0 0 0;
#X restore 90 276 pd harrys ringtone;
#X obj 83 217 *~ 0.3;
#X obj 239 323 +~;
#X obj 255 294 *~ 0.03;
#X obj 390 283 t f f f;
#X obj 390 423 s ring;
#X msg 550 361 1 2 3 4 5 6 7 8 9 0;
#N canvas 0 0 450 300 sel 0;
#X obj 60 66 r ring;
#X obj 111 65 r dialtone;
#X obj 190 66 r silence;
#X msg 60 92 1 0;
#X msg 190 91 0 0;
#X msg 111 91 0 1;
#X text 12 91 nand;
#X obj 111 139 unpack f f;
#X obj 111 170 outlet ring;
#X obj 176 201 outlet dial;
#X obj 136 18 loadbang;
#X obj 136 41 del 10;
#X connect 0 0 3 0;
#X connect 1 0 5 0;
#X connect 2 0 4 0;
#X connect 3 0 7 0;
#X connect 4 0 7 0;
#X connect 5 0 7 0;
#X connect 7 0 8 0;
#X connect 7 1 9 0;
#X connect 10 0 11 0;
#X connect 11 0 5 0;
#X restore 154 97 pd sel source;
#X msg 517 328 0 9 8 7 6 5 4 3 2 1;
#X obj 19 337 r tom;
#X obj 53 296 r dick;
#X obj 90 256 r harry;
#X msg 483 282 0 1 0 0 2 0 0 3 0 0;
#X obj 457 422 s harryr;
#X obj 424 374 s dickr;
#X obj 397 329 s tomr;
#X obj 389 211 *~ 0.25;
#X connect 0 0 1 0;
#X connect 1 0 2 0;
#X connect 2 0 18 0;
#X connect 3 0 1 1;
#X connect 4 0 5 0;
#X connect 5 0 2 1;
#X connect 6 0 7 0;
#X connect 7 0 8 0;
#X connect 7 0 9 0;
#X connect 8 0 6 1;
#X connect 9 0 4 0;
#X connect 10 0 6 0;
#X connect 11 0 10 0;
#X connect 12 0 14 1;
#X connect 13 0 14 0;
#X connect 14 0 16 1;
#X connect 16 0 17 0;
#X connect 17 0 43 0;
#X connect 18 0 42 0;
#X connect 19 0 21 0;
#X connect 20 0 21 1;
#X connect 21 0 24 0;
#X connect 22 0 19 0;
#X connect 22 1 20 0;
#X connect 23 0 24 1;
#X connect 24 0 25 0;
#X connect 25 0 44 0;
#X connect 25 0 57 0;
#X connect 26 0 23 0;
#X connect 27 0 23 0;
#X connect 28 0 27 0;
#X connect 29 0 30 0;
#X connect 30 0 22 0;
#X connect 30 1 28 0;
#X connect 30 2 26 0;
#X connect 32 0 45 0;
#X connect 33 0 46 0;
#X connect 33 0 56 0;
#X connect 34 0 46 0;
#X connect 34 0 55 0;
#X connect 35 0 46 0;
#X connect 35 0 54 0;
#X connect 36 0 53 0;
#X connect 36 0 49 0;
#X connect 36 0 47 0;
#X connect 38 0 37 0;
#X connect 38 1 37 1;
#X connect 38 2 37 2;
#X connect 38 3 37 3;
#X connect 38 4 37 4;
#X connect 38 5 37 5;
#X connect 38 6 37 6;
#X connect 39 0 38 0;
#X connect 40 0 38 0;
#X connect 41 0 38 0;
#X connect 42 0 17 0;
#X connect 43 0 15 0;
#X connect 43 0 15 1;
#X connect 44 0 43 1;
#X connect 45 0 33 0;
#X connect 45 1 34 0;
#X connect 45 2 35 0;
#X connect 47 0 35 1;
#X connect 48 0 18 1;
#X connect 48 1 16 0;
#X connect 49 0 34 1;
#X connect 50 0 39 0;
#X connect 51 0 40 0;
#X connect 52 0 41 0;
#X connect 53 0 33 1;
#X connect 57 0 32 0;
#X restore 37 232 pd phone-effects;
#X obj 17 24 bng 32 250 50 0 \$0-1 empty 1 12 -8 1 12 -262144 -258699
-1;
#X obj 58 24 bng 32 250 50 0 \$0-2 empty 2 12 -8 1 12 -262144 -258699
-1;
#X obj 99 24 bng 32 250 50 0 \$0-3 empty 3 12 -8 1 12 -262144 -258699
-1;
#X obj 18 76 bng 32 250 50 0 \$0-4 empty 4 12 -8 1 12 -262144 -258699
-1;
#X obj 59 76 bng 32 250 50 0 \$0-5 empty 5 12 -8 1 12 -262144 -258699
-1;
#X obj 100 76 bng 32 250 50 0 \$0-6 empty 6 12 -8 1 12 -262144 -258699
-1;
#X obj 19 130 bng 32 250 50 0 \$0-7 empty 7 12 -8 1 12 -262144 -258699
-1;
#X obj 60 130 bng 32 250 50 0 \$0-8 empty 8 12 -8 1 12 -262144 -258699
-1;
#X obj 101 130 bng 32 250 50 0 \$0-9 empty 9 12 -8 1 12 -262144 -258699
-1;
#X obj 20 182 bng 32 250 50 0 \$0-star empty * 12 -8 1 12 -262144 -258699
-1;
#X obj 61 182 bng 32 250 50 0 \$0-0 empty 0 12 -8 1 12 -262144 -258699
-1;
#X obj 102 182 bng 32 250 50 0 \$0-hash empty .# 12 -8 1 12 -262144
-258699 -1;
#X obj 138 24 bng 32 250 50 0 \$0-A empty A 12 -8 1 12 -262144 -258699
-1;
#X obj 139 76 bng 32 250 50 0 \$0-B empty B 12 -8 1 12 -262144 -258699
-1;
#X obj 140 130 bng 32 250 50 0 \$0-C empty C 12 -8 1 12 -262144 -258699
-1;
#X obj 141 182 bng 32 250 50 0 \$0-D empty D 12 -8 1 12 -262144 -258699
-1;
#X text 194 31 Tom 0 1 0 0 2 0 0 3 0 0;
#X obj 376 32 s tom;
#X obj 378 84 s dick;
#X obj 381 131 s harry;
#X obj 376 12 bng 15 2000 50 0 empty tomr empty 0 -6 0 8 -262144 -24198
-1;
#X obj 378 64 bng 15 2000 50 0 empty dickr empty 0 -6 0 8 -262144 -260818
-1;
#X obj 381 112 bng 15 2000 50 0 empty harryr empty 0 -6 0 8 -262144
-258699 -1;
#X text 190 134 Harry 1 2 3 4 5 6 7 8 9 0;
#X text 192 83 Dick 0 9 8 7 6 5 4 3 2 1;
#X connect 21 0 18 0;
#X connect 22 0 19 0;
#X connect 23 0 20 0;
