#N canvas 168 343 450 300 10;
#X obj 128 153 &&;
#X obj 86 103 inlet;
#X obj 128 103 inlet;
#X obj 128 126 t b f;
#X obj 128 201 \$1;
#X obj 128 263 outlet;
#X obj 128 179 sel 1 0;
#X obj 128 231 change;
#X msg 162 204 -1;
#X connect 0 0 6 0;
#X connect 1 0 0 0;
#X connect 2 0 3 0;
#X connect 3 0 0 0;
#X connect 3 1 0 1;
#X connect 4 0 7 0;
#X connect 6 0 4 0;
#X connect 6 1 8 0;
#X connect 7 0 5 0;
#X connect 8 0 7 0;
