#N canvas 25 1 210 159 10;
#X obj -67 48 * 10;
#X obj -97 24 t f f;
#X obj -97 48 - 3;
#X floatatom -97 121 5 0 0 0 - - -;
#X msg -97 -2 4;
#X obj -17 24 t f f;
#X floatatom -17 121 5 0 0 0 - - -;
#X msg -17 -2 4;
#X obj -17 48 * 10;
#X obj 18 48 - 3;
#X obj -97 97 /;
#X obj -17 97 /;
#X connect 0 0 10 1;
#X connect 1 0 2 0;
#X connect 1 1 0 0;
#X connect 2 0 10 0;
#X connect 4 0 1 0;
#X connect 5 0 8 0;
#X connect 5 1 9 0;
#X connect 7 0 5 0;
#X connect 8 0 11 0;
#X connect 9 0 11 1;
#X connect 10 0 3 0;
#X connect 11 0 6 0;
