#N canvas 16 63 490 356 10;
#X obj 92 175 del;
#X obj 8 227 list append;
#X obj 27 150 unpack f f;
#X obj 8 120 list split 2;
#X obj 93 225 f;
#X obj 93 198 t b b;
#X obj 93 251 s synth;
#X obj 227 104 vline~;
#X obj 226 126 *~;
#X obj 168 80 mtof;
#X obj 167 177 *~;
#X obj 168 57 t f b;
#X msg 227 81 0 \, 1 1 0 \, 0 400 1;
#X obj 168 103 phasor~;
#X obj 168 125 *~ 2;
#X obj 168 151 -~ 1;
#X obj 167 204 vcf~ 1 1;
#X obj 227 175 +~ 100;
#X obj 227 151 *~ 600;
#X obj 168 34 r synth;
#X obj 167 251 dac~;
#X obj 167 226 *~ 0.35;
#X msg 8 8 61 0 60 500 59 500;
#X connect 0 0 5 0;
#X connect 1 0 3 0;
#X connect 2 0 4 1;
#X connect 2 1 0 0;
#X connect 3 0 2 0;
#X connect 3 1 1 1;
#X connect 4 0 6 0;
#X connect 5 0 1 0;
#X connect 5 1 4 0;
#X connect 7 0 8 0;
#X connect 7 0 8 1;
#X connect 8 0 10 1;
#X connect 8 0 18 0;
#X connect 9 0 13 0;
#X connect 10 0 16 0;
#X connect 11 0 9 0;
#X connect 11 1 12 0;
#X connect 12 0 7 0;
#X connect 13 0 14 0;
#X connect 14 0 15 0;
#X connect 15 0 10 0;
#X connect 16 0 21 0;
#X connect 17 0 16 1;
#X connect 18 0 17 0;
#X connect 19 0 11 0;
#X connect 21 0 20 0;
#X connect 21 0 20 1;
#X connect 22 0 3 0;
