#N canvas 160 268 508 484 10;
#N canvas 0 0 643 347 random 0;
#X obj 103 60 f;
#X obj 84 145 random 4;
#X obj 6 144 random 2;
#X obj 103 85 t b b f;
#X obj 6 200 sel 0 1;
#X obj 125 297 +;
#X obj 103 34 metro 100;
#X obj 84 199 + 1;
#X obj 62 256 *;
#X msg 6 229 -1;
#X obj 222 30 moses 0;
#X obj 284 29 moses 100;
#X obj 222 54 * -1;
#X obj 359 28 * -1;
#X obj 359 53 + 200;
#X msg 40 229 1;
#X text 165 288 add prev value;
#X text 162 305 to random increment;
#X text 411 26 coercion to range 0-100 \; if out of range \, reflect
;
#X text 410 56 us back in.;
#X obj 103 12 loadbang;
#X obj 239 93 t f f;
#X obj 269 119 outlet;
#X connect 0 0 3 0;
#X connect 1 0 7 0;
#X connect 2 0 4 0;
#X connect 3 0 2 0;
#X connect 3 1 1 0;
#X connect 3 2 5 1;
#X connect 4 0 9 0;
#X connect 4 1 15 0;
#X connect 5 0 10 0;
#X connect 6 0 0 0;
#X connect 7 0 8 1;
#X connect 8 0 5 0;
#X connect 9 0 8 0;
#X connect 10 0 12 0;
#X connect 10 1 11 0;
#X connect 11 0 21 0;
#X connect 11 1 13 0;
#X connect 12 0 21 0;
#X connect 13 0 14 0;
#X connect 14 0 21 0;
#X connect 15 0 8 0;
#X connect 20 0 6 0;
#X connect 21 0 0 1;
#X connect 21 1 22 0;
#X restore 189 48 pd random walk;
#X floatatom 204 71 5 0 0 0 - - -;
#X obj 222 226 f;
#X obj 219 193 t f b;
#X obj 255 321 f;
#X obj 252 288 t f b;
#X text 349 241 n-1;
#X text 354 336 n-2;
#X floatatom 302 149 5 0 0 0 - - -;
#X floatatom 303 243 5 0 0 0 - - -;
#X floatatom 305 338 5 0 0 0 - - -;
#X obj 189 132 f;
#X obj 189 104 t b f;
#X text 348 147 n;
#X obj 205 349 +;
#X obj 189 375 +;
#X obj 189 165 t f f;
#X obj 222 258 t f f;
#X obj 188 399 / 3;
#X floatatom 306 416 5 0 0 0 - - -;
#X text 356 415 n + (n-1) + (n-2);
#X text 356 422 __________________;
#X text 405 437 3;
#X connect 0 0 1 0;
#X connect 0 0 12 0;
#X connect 2 0 9 0;
#X connect 2 0 17 0;
#X connect 3 0 2 1;
#X connect 3 1 2 0;
#X connect 4 0 10 0;
#X connect 4 0 14 1;
#X connect 5 0 4 1;
#X connect 5 1 4 0;
#X connect 11 0 8 0;
#X connect 11 0 16 0;
#X connect 12 0 11 0;
#X connect 12 1 11 1;
#X connect 14 0 15 1;
#X connect 15 0 18 0;
#X connect 16 0 15 0;
#X connect 16 1 3 0;
#X connect 17 0 14 0;
#X connect 17 1 5 0;
#X connect 18 0 19 0;
