#N canvas 177 190 241 153 10;
#X obj 15 32 t f b;
#X obj 15 59 f;
#X floatatom 15 10 5 0 0 0 - - -;
#X floatatom 15 85 5 0 0 0 - - -;
#X obj 83 50 t f b;
#X obj 83 74 f;
#X floatatom 83 135 5 0 0 0 - - -;
#X obj 83 94 +;
#X obj 83 114 / 2;
#X obj 83 30 trigger f f;
#X msg 83 6 10;
#X msg 118 6 15;
#X connect 0 0 1 1;
#X connect 0 1 1 0;
#X connect 1 0 3 0;
#X connect 2 0 0 0;
#X connect 4 0 5 1;
#X connect 4 1 5 0;
#X connect 5 0 7 0;
#X connect 7 0 8 0;
#X connect 8 0 6 0;
#X connect 9 0 4 0;
#X connect 9 1 7 1;
#X connect 10 0 9 0;
#X connect 11 0 9 0;
