#N canvas 682 315 148 197 10;
#X obj 1 147 makenote;
#X obj 1 25 metro 200;
#X obj 1 114 + 48;
#X obj 1 72 random 3;
#X obj 1 94 * 12;
#X obj 1 49 t b b;
#X obj 68 70 random 127;
#X obj 55 127 hsl 64 12 0 1000 0 1 empty empty notelength 5 6 1 8 -262144
-1 -1 6200 1;
#X floatatom 66 148 5 0 0 0 - - -;
#X obj 1 3 tgl 15 0 empty empty empty 0 -6 0 8 -262144 -1 -1 1 1;
#X obj 1 179 noteout;
#X connect 0 0 10 0;
#X connect 0 1 10 1;
#X connect 1 0 5 0;
#X connect 2 0 0 0;
#X connect 3 0 4 0;
#X connect 4 0 2 0;
#X connect 5 0 3 0;
#X connect 5 1 6 0;
#X connect 6 0 0 1;
#X connect 7 0 8 0;
#X connect 7 0 0 2;
#X connect 9 0 1 0;
