#N canvas 1021 433 185 218 10;
#X obj 3 2 notein;
#X obj 3 31 stripnote;
#X obj 3 53 mtof;
#X obj 3 124 osc~;
#X obj 38 124 vline~;
#X obj 3 174 *~;
#X obj 3 200 dac~;
#X obj 85 124 / 127;
#X obj 3 150 *~;
#X obj 3 74 t f b;
#X msg 38 100 0 \, 1 10 0 \, 0 100 20;
#X connect 0 0 1 0;
#X connect 0 1 1 1;
#X connect 1 0 2 0;
#X connect 1 1 7 0;
#X connect 2 0 9 0;
#X connect 3 0 8 0;
#X connect 4 0 8 1;
#X connect 5 0 6 0;
#X connect 5 0 6 1;
#X connect 7 0 5 1;
#X connect 8 0 5 0;
#X connect 9 0 3 0;
#X connect 9 1 10 0;
#X connect 10 0 4 0;
