#N canvas 403 566 212 135 10;
#X obj 100 2 inlet value;
#X obj 123 26 inlet scale;
#X obj 123 69 inlet offset;
#X obj 100 116 outlet;
#X obj 5 2 nbx 5 14 -1e+37 1e+37 0 0 empty empty empty 0 -6 0 10 -262144
-1 -1 127 256;
#X obj 5 118 nbx 5 14 -1e+37 1e+37 0 0 empty empty empty 0 -6 0 10
-262144 -1 -1 9.99998 256;
#X obj 5 91 + 1;
#X obj 5 46 * 0.070866;
#X obj 100 47 * \$1;
#X obj 100 90 + \$2;
#X connect 0 0 8 0;
#X connect 1 0 8 1;
#X connect 2 0 9 1;
#X connect 4 0 7 0;
#X connect 6 0 5 0;
#X connect 7 0 6 0;
#X connect 8 0 9 0;
#X connect 9 0 3 0;
