#N canvas 559 415 518 269 10;
#X obj 46 -49 sig~ 1;
#X obj 46 -19 -~;
#X obj 99 -49 phasor~ 640;
#X obj 316 -47 phasor~ 640;
#X obj 265 17 /~;
#N canvas 0 0 450 300 grapha 0;
#X obj 100 100 cnv 15 100 100 empty empty empty 20 12 0 14 -262144
-66577 0;
#N canvas 0 0 450 300 graph3 0;
#X array A 100 float 0;
#X coords 0 1 99 -1 100 100 1;
#X restore 100 100 graph;
#X obj 210 209 tabwrite~ A;
#X obj 289 155 inlet~;
#X obj 210 130 loadbang;
#X obj 278 131 bng 15 250 50 0 empty empty empty 0 -6 0 8 -262144 -1
-1;
#X obj 217 178 s b;
#X obj 210 155 metro 200;
#X connect 3 0 2 0;
#X connect 4 0 7 0;
#X connect 5 0 7 0;
#X connect 7 0 2 0;
#X connect 7 0 6 0;
#X coords 0 -1 1 1 100 100 1 100 100;
#X restore 122 -13 pd grapha;
#N canvas 0 0 450 300 grapha 0;
#X obj 100 100 cnv 15 100 100 empty empty empty 20 12 0 14 -262144
-66577 0;
#N canvas 0 0 450 300 graph3 0;
#X array B 100 float 0;
#X coords 0 1 99 -1 100 100 1;
#X restore 100 100 graph;
#X obj 289 155 inlet~;
#X obj 210 182 tabwrite~ B;
#X obj 210 156 r b;
#X connect 2 0 3 0;
#X connect 4 0 3 0;
#X coords 0 -1 1 1 100 100 1 100 100;
#X restore 6 12 pd grapha;
#N canvas 0 0 450 300 grapha 0;
#X obj 100 100 cnv 15 100 100 empty empty empty 20 12 0 14 -262144
-66577 0;
#N canvas 0 0 450 300 graph3 0;
#X array C 100 float 0;
#X coords 0 1 99 -1 100 100 1;
#X restore 100 100 graph;
#X obj 289 155 inlet~;
#X obj 210 156 r b;
#X obj 210 182 tabwrite~ C;
#X connect 2 0 4 0;
#X connect 3 0 4 0;
#X coords 0 -1 1 1 100 100 1 100 100;
#X restore 373 -4 pd grapha;
#N canvas 0 0 450 300 grapha 0;
#X obj 100 100 cnv 15 100 100 empty empty empty 20 12 0 14 -262144
-66577 0;
#N canvas 0 0 450 300 graph3 0;
#X array D 100 float 0;
#X coords 0 1 99 -1 100 100 1;
#X restore 100 100 graph;
#X obj 289 155 inlet~;
#X obj 210 156 r b;
#X obj 210 182 tabwrite~ D;
#X connect 2 0 4 0;
#X connect 3 0 4 0;
#X coords 0 -1 1 1 100 100 1 100 100;
#X restore 291 106 pd grapha;
#X obj 265 -13 sig~ 1;
#X obj 316 -14 +~ 1;
#X obj 265 72 *~ 4;
#X obj 265 50 -~ 0.75;
#X connect 0 0 1 0;
#X connect 1 0 6 0;
#X connect 2 0 1 1;
#X connect 2 0 5 0;
#X connect 3 0 10 0;
#X connect 3 0 7 0;
#X connect 4 0 12 0;
#X connect 9 0 4 0;
#X connect 10 0 4 1;
#X connect 11 0 8 0;
#X connect 12 0 11 0;
