#N canvas 708 295 118 66 10;
#X floatatom 0 0 5 0 0 0 - - -;
#X floatatom 79 0 5 0 0 0 - - -;
#X floatatom 0 50 5 0 0 0 - - -;
#N canvas 0 0 160 140 magnitude 0;
#X obj 3 3 inlet;
#X obj 83 3 inlet;
#N canvas 0 0 117 109 squared 0;
#X obj 0 30 t f f;
#X obj 0 60 *;
#X obj 0 90 outlet x-squared;
#X obj 0 0 inlet x;
#X connect 0 0 1 0;
#X connect 0 1 1 1;
#X connect 1 0 2 0;
#X connect 3 0 0 0;
#X restore 83 33 pd squared;
#N canvas 0 0 116 108 squared 0;
#X obj 0 30 t f f;
#X obj 0 60 *;
#X obj 0 90 outlet x-squared;
#X obj 0 0 inlet x;
#X connect 0 0 1 0;
#X connect 0 1 1 1;
#X connect 1 0 2 0;
#X connect 3 0 0 0;
#X restore 3 33 pd squared;
#X obj 3 94 sqrt;
#X obj 3 70 +;
#X obj 3 121 outlet;
#X connect 0 0 3 0;
#X connect 1 0 2 0;
#X connect 2 0 5 1;
#X connect 3 0 5 0;
#X connect 4 0 6 0;
#X connect 5 0 4 0;
#X restore 0 23 pd magnitude;
#X connect 0 0 3 0;
#X connect 1 0 3 1;
#X connect 3 0 2 0;
