#N canvas 177 384 439 378 10;
#X obj 92 317 f 0;
#X obj 129 317 + 1;
#X obj 1 289 t b b;
#X obj 1 220 metro 125;
#X obj 1 342 outlet bangs;
#X obj 92 342 outlet time;
#X obj 122 60 inlet bpm;
#X obj 122 114 swap 60000;
#X obj 122 141 /;
#X obj 200 59 inlet beats;
#X obj 122 168 / 4;
#X obj 200 114 t b f;
#X obj 31 263 del;
#X obj 1 241 t b b;
#X obj 290 58 inlet swing percent;
#X obj 290 114 / 100;
#X obj 290 137 + 1;
#X obj 122 191 t f f;
#X obj 152 225 *;
#X obj 169 192 t b f;
#X obj 290 88 f \$3;
#X obj 221 12 loadbang;
#X obj 200 88 f \$2;
#X obj 122 86 f \$1;
#X obj 221 33 t b b b;
#X msg 22 117 0;
#X obj 1 60 inlet control;
#X obj 22 94 sel 0;
#X connect 0 0 1 0;
#X connect 0 0 5 0;
#X connect 1 0 0 1;
#X connect 2 0 4 0;
#X connect 2 1 0 0;
#X connect 3 0 13 0;
#X connect 6 0 23 0;
#X connect 7 0 8 0;
#X connect 7 1 8 1;
#X connect 8 0 10 0;
#X connect 9 0 22 0;
#X connect 10 0 17 0;
#X connect 11 0 10 0;
#X connect 11 1 10 1;
#X connect 12 0 2 0;
#X connect 13 0 2 0;
#X connect 13 1 12 0;
#X connect 14 0 20 0;
#X connect 15 0 16 0;
#X connect 16 0 19 0;
#X connect 17 0 3 1;
#X connect 17 1 18 0;
#X connect 18 0 12 1;
#X connect 19 0 18 0;
#X connect 19 1 18 1;
#X connect 20 0 15 0;
#X connect 21 0 24 0;
#X connect 22 0 11 0;
#X connect 23 0 7 0;
#X connect 24 0 23 0;
#X connect 24 1 22 0;
#X connect 24 2 20 0;
#X connect 25 0 0 1;
#X connect 26 0 3 0;
#X connect 26 0 27 0;
#X connect 27 0 25 0;
