{
	"patcher" : 	{
		"fileversion" : 1,
		"rect" : [ 680.0, 131.0, 160.0, 227.0 ],
		"bglocked" : 0,
		"defrect" : [ 680.0, 131.0, 160.0, 227.0 ],
		"openrect" : [ 0.0, 0.0, 0.0, 0.0 ],
		"openinpresentation" : 0,
		"default_fontsize" : 12.0,
		"default_fontface" : 0,
		"default_fontname" : "Arial",
		"gridonopen" : 0,
		"gridsize" : [ 15.0, 15.0 ],
		"gridsnaponopen" : 0,
		"toolbarvisible" : 1,
		"boxanimatetime" : 200,
		"imprint" : 0,
		"enablehscroll" : 1,
		"enablevscroll" : 1,
		"devicewidth" : 0.0,
		"boxes" : [ 			{
				"box" : 				{
					"maxclass" : "inlet",
					"numinlets" : 0,
					"numoutlets" : 1,
					"hidden" : 1,
					"outlettype" : [ "" ],
					"patching_rect" : [ 140.0, -42.0, 15.0, 15.0 ],
					"id" : "obj-1",
					"comment" : "blasting slope"
				}

			}
, 			{
				"box" : 				{
					"maxclass" : "inlet",
					"numinlets" : 0,
					"numoutlets" : 1,
					"hidden" : 1,
					"outlettype" : [ "" ],
					"patching_rect" : [ 50.0, -42.0, 15.0, 15.0 ],
					"id" : "obj-2",
					"comment" : "bubble radius"
				}

			}
, 			{
				"box" : 				{
					"maxclass" : "outlet",
					"numinlets" : 1,
					"numoutlets" : 0,
					"hidden" : 1,
					"patching_rect" : [ 128.0, 203.0, 15.0, 15.0 ],
					"id" : "obj-3",
					"comment" : "blasting slope"
				}

			}
, 			{
				"box" : 				{
					"maxclass" : "outlet",
					"numinlets" : 1,
					"numoutlets" : 0,
					"hidden" : 1,
					"patching_rect" : [ 86.0, 203.0, 15.0, 15.0 ],
					"id" : "obj-4",
					"comment" : "bubble radius"
				}

			}
, 			{
				"box" : 				{
					"maxclass" : "newobj",
					"varname" : "u359014981",
					"text" : "autopattr @autorestore 0",
					"numinlets" : 1,
					"fontsize" : 9.0,
					"numoutlets" : 4,
					"hidden" : 1,
					"outlettype" : [ "", "", "", "" ],
					"patching_rect" : [ 97.0, -39.0, 125.0, 17.0 ],
					"id" : "obj-5",
					"fontname" : "Arial",
					"restore" : 					{
						"bubble_radius" : [ 0.0 ],
						"bubble_slope" : [ 0.0 ]
					}

				}

			}
, 			{
				"box" : 				{
					"maxclass" : "message",
					"text" : "0.",
					"numinlets" : 2,
					"fontsize" : 9.0,
					"numoutlets" : 1,
					"outlettype" : [ "" ],
					"patching_rect" : [ 125.0, 161.0, 58.0, 15.0 ],
					"bgcolor" : [ 0.4, 0.4, 0.8, 1.0 ],
					"id" : "obj-6",
					"fontname" : "Arial"
				}

			}
, 			{
				"box" : 				{
					"maxclass" : "message",
					"text" : "0.",
					"numinlets" : 2,
					"fontsize" : 9.0,
					"numoutlets" : 1,
					"outlettype" : [ "" ],
					"patching_rect" : [ 31.0, 161.0, 60.0, 15.0 ],
					"bgcolor" : [ 1.0, 0.890196, 0.090196, 1.0 ],
					"id" : "obj-7",
					"fontname" : "Arial"
				}

			}
, 			{
				"box" : 				{
					"maxclass" : "comment",
					"text" : "blasting slope",
					"numinlets" : 1,
					"fontsize" : 9.0,
					"numoutlets" : 0,
					"patching_rect" : [ 111.0, 10.0, 87.0, 19.0 ],
					"id" : "obj-8",
					"fontname" : "Arial Black"
				}

			}
, 			{
				"box" : 				{
					"maxclass" : "comment",
					"text" : "bubble radius",
					"numinlets" : 1,
					"fontsize" : 9.0,
					"numoutlets" : 0,
					"patching_rect" : [ 16.0, 9.0, 75.0, 19.0 ],
					"id" : "obj-9",
					"fontname" : "Arial Black"
				}

			}
, 			{
				"box" : 				{
					"maxclass" : "newobj",
					"text" : "p bubble_scale",
					"numinlets" : 2,
					"fontsize" : 9.0,
					"numoutlets" : 4,
					"hidden" : 1,
					"outlettype" : [ "", "", "", "" ],
					"patching_rect" : [ 65.0, 133.0, 75.0, 17.0 ],
					"id" : "obj-10",
					"fontname" : "Arial",
					"patcher" : 					{
						"fileversion" : 1,
						"rect" : [ 20.0, 74.0, 443.0, 278.0 ],
						"bglocked" : 0,
						"defrect" : [ 20.0, 74.0, 443.0, 278.0 ],
						"openrect" : [ 0.0, 0.0, 0.0, 0.0 ],
						"openinpresentation" : 0,
						"default_fontsize" : 12.0,
						"default_fontface" : 0,
						"default_fontname" : "Arial",
						"gridonopen" : 0,
						"gridsize" : [ 15.0, 15.0 ],
						"gridsnaponopen" : 0,
						"toolbarvisible" : 1,
						"boxanimatetime" : 200,
						"imprint" : 0,
						"enablehscroll" : 1,
						"enablevscroll" : 1,
						"devicewidth" : 0.0,
						"boxes" : [ 							{
								"box" : 								{
									"maxclass" : "outlet",
									"numinlets" : 1,
									"numoutlets" : 0,
									"patching_rect" : [ 316.0, 175.0, 15.0, 15.0 ],
									"id" : "obj-1",
									"comment" : "slope"
								}

							}
, 							{
								"box" : 								{
									"maxclass" : "outlet",
									"numinlets" : 1,
									"numoutlets" : 0,
									"patching_rect" : [ 286.0, 174.0, 15.0, 15.0 ],
									"id" : "obj-2",
									"comment" : "slope to prep set"
								}

							}
, 							{
								"box" : 								{
									"maxclass" : "outlet",
									"numinlets" : 1,
									"numoutlets" : 0,
									"patching_rect" : [ 138.0, 182.0, 15.0, 15.0 ],
									"id" : "obj-3",
									"comment" : "radius"
								}

							}
, 							{
								"box" : 								{
									"maxclass" : "outlet",
									"numinlets" : 1,
									"numoutlets" : 0,
									"patching_rect" : [ 87.0, 181.0, 15.0, 15.0 ],
									"id" : "obj-4",
									"comment" : "radius - prep set"
								}

							}
, 							{
								"box" : 								{
									"maxclass" : "newobj",
									"text" : "prepend set",
									"numinlets" : 1,
									"fontsize" : 9.0,
									"numoutlets" : 1,
									"outlettype" : [ "" ],
									"patching_rect" : [ 286.0, 136.0, 62.0, 17.0 ],
									"id" : "obj-5",
									"fontname" : "Arial"
								}

							}
, 							{
								"box" : 								{
									"maxclass" : "newobj",
									"text" : "prepend set",
									"numinlets" : 1,
									"fontsize" : 9.0,
									"numoutlets" : 1,
									"outlettype" : [ "" ],
									"patching_rect" : [ 87.0, 139.0, 62.0, 17.0 ],
									"id" : "obj-6",
									"fontname" : "Arial"
								}

							}
, 							{
								"box" : 								{
									"maxclass" : "newobj",
									"text" : "scale 0. 100. 0. 1.",
									"numinlets" : 6,
									"fontsize" : 9.0,
									"numoutlets" : 1,
									"hidden" : 1,
									"outlettype" : [ "" ],
									"patching_rect" : [ 316.0, 106.0, 93.0, 17.0 ],
									"id" : "obj-7",
									"fontname" : "Arial"
								}

							}
, 							{
								"box" : 								{
									"maxclass" : "newobj",
									"text" : "scale 0. 100. 0.2 15",
									"numinlets" : 6,
									"fontsize" : 9.0,
									"numoutlets" : 1,
									"hidden" : 1,
									"outlettype" : [ "" ],
									"patching_rect" : [ 138.0, 109.0, 102.0, 17.0 ],
									"id" : "obj-8",
									"fontname" : "Arial"
								}

							}
, 							{
								"box" : 								{
									"maxclass" : "inlet",
									"numinlets" : 0,
									"numoutlets" : 1,
									"outlettype" : [ "" ],
									"patching_rect" : [ 316.0, 69.0, 15.0, 15.0 ],
									"id" : "obj-9",
									"comment" : "blasting slope"
								}

							}
, 							{
								"box" : 								{
									"maxclass" : "inlet",
									"numinlets" : 0,
									"numoutlets" : 1,
									"outlettype" : [ "" ],
									"patching_rect" : [ 138.0, 64.0, 15.0, 15.0 ],
									"id" : "obj-10",
									"comment" : "bubble radius"
								}

							}
 ],
						"lines" : [ 							{
								"patchline" : 								{
									"source" : [ "obj-10", 0 ],
									"destination" : [ "obj-6", 0 ],
									"hidden" : 0,
									"midpoints" : [ 147.0, 96.0, 96.5, 96.0 ]
								}

							}
, 							{
								"patchline" : 								{
									"source" : [ "obj-6", 0 ],
									"destination" : [ "obj-4", 0 ],
									"hidden" : 0,
									"midpoints" : [  ]
								}

							}
, 							{
								"patchline" : 								{
									"source" : [ "obj-10", 0 ],
									"destination" : [ "obj-8", 0 ],
									"hidden" : 0,
									"midpoints" : [  ]
								}

							}
, 							{
								"patchline" : 								{
									"source" : [ "obj-8", 0 ],
									"destination" : [ "obj-3", 0 ],
									"hidden" : 0,
									"midpoints" : [  ]
								}

							}
, 							{
								"patchline" : 								{
									"source" : [ "obj-9", 0 ],
									"destination" : [ "obj-5", 0 ],
									"hidden" : 0,
									"midpoints" : [ 325.0, 98.0, 295.5, 98.0 ]
								}

							}
, 							{
								"patchline" : 								{
									"source" : [ "obj-5", 0 ],
									"destination" : [ "obj-2", 0 ],
									"hidden" : 0,
									"midpoints" : [  ]
								}

							}
, 							{
								"patchline" : 								{
									"source" : [ "obj-9", 0 ],
									"destination" : [ "obj-7", 0 ],
									"hidden" : 0,
									"midpoints" : [  ]
								}

							}
, 							{
								"patchline" : 								{
									"source" : [ "obj-7", 0 ],
									"destination" : [ "obj-1", 0 ],
									"hidden" : 0,
									"midpoints" : [  ]
								}

							}
 ]
					}
,
					"saved_object_attributes" : 					{
						"default_fontsize" : 12.0,
						"globalpatchername" : "",
						"fontface" : 0,
						"fontsize" : 12.0,
						"default_fontface" : 0,
						"fontname" : "Arial",
						"default_fontname" : "Arial"
					}

				}

			}
, 			{
				"box" : 				{
					"maxclass" : "multislider",
					"varname" : "bubble_slope",
					"slidercolor" : [ 1.0, 1.0, 1.0, 1.0 ],
					"candicane2" : [ 0.145098, 0.203922, 0.356863, 1.0 ],
					"candicane7" : [ 0.878431, 0.243137, 0.145098, 1.0 ],
					"numinlets" : 1,
					"bordercolor" : [ 1.0, 1.0, 1.0, 1.0 ],
					"candicane6" : [ 0.733333, 0.035294, 0.788235, 1.0 ],
					"numoutlets" : 2,
					"candicane5" : [ 0.584314, 0.827451, 0.431373, 1.0 ],
					"setminmax" : [ 0.0, 100.0 ],
					"outlettype" : [ "", "" ],
					"patching_rect" : [ 140.0, 27.0, 14.0, 125.0 ],
					"candicane4" : [ 0.439216, 0.619608, 0.070588, 1.0 ],
					"contdata" : 1,
					"bgcolor" : [ 0.396078, 0.396078, 0.796078, 1.0 ],
					"peakcolor" : [ 0.498039, 0.498039, 0.498039, 1.0 ],
					"candicane3" : [ 0.290196, 0.411765, 0.713726, 1.0 ],
					"id" : "obj-11",
					"candicane8" : [ 0.027451, 0.447059, 0.501961, 1.0 ]
				}

			}
, 			{
				"box" : 				{
					"maxclass" : "multislider",
					"varname" : "bubble_radius",
					"slidercolor" : [ 1.0, 1.0, 1.0, 1.0 ],
					"candicane2" : [ 0.145098, 0.203922, 0.356863, 1.0 ],
					"candicane7" : [ 0.878431, 0.243137, 0.145098, 1.0 ],
					"numinlets" : 1,
					"bordercolor" : [ 1.0, 1.0, 1.0, 1.0 ],
					"candicane6" : [ 0.733333, 0.035294, 0.788235, 1.0 ],
					"numoutlets" : 2,
					"candicane5" : [ 0.584314, 0.827451, 0.431373, 1.0 ],
					"setminmax" : [ 0.0, 100.0 ],
					"outlettype" : [ "", "" ],
					"patching_rect" : [ 50.0, 27.0, 14.0, 125.0 ],
					"candicane4" : [ 0.439216, 0.619608, 0.070588, 1.0 ],
					"contdata" : 1,
					"bgcolor" : [ 1.0, 0.890196, 0.090196, 1.0 ],
					"peakcolor" : [ 0.498039, 0.498039, 0.498039, 1.0 ],
					"candicane3" : [ 0.290196, 0.411765, 0.713726, 1.0 ],
					"id" : "obj-12",
					"candicane8" : [ 0.027451, 0.447059, 0.501961, 1.0 ]
				}

			}
, 			{
				"box" : 				{
					"maxclass" : "panel",
					"numinlets" : 1,
					"bordercolor" : [ 0.745098, 0.745098, 0.745098, 1.0 ],
					"numoutlets" : 0,
					"patching_rect" : [ 1.0, 0.0, 210.0, 185.0 ],
					"rounded" : 3,
					"border" : 1,
					"bgcolor" : [ 0.890196, 0.870588, 1.0, 1.0 ],
					"id" : "obj-13"
				}

			}
 ],
		"lines" : [ 			{
				"patchline" : 				{
					"source" : [ "obj-10", 0 ],
					"destination" : [ "obj-7", 0 ],
					"hidden" : 1,
					"midpoints" : [ 74.5, 155.0, 40.5, 155.0 ]
				}

			}
, 			{
				"patchline" : 				{
					"source" : [ "obj-2", 0 ],
					"destination" : [ "obj-12", 0 ],
					"hidden" : 1,
					"midpoints" : [  ]
				}

			}
, 			{
				"patchline" : 				{
					"source" : [ "obj-12", 0 ],
					"destination" : [ "obj-10", 0 ],
					"hidden" : 1,
					"midpoints" : [ 55.0, 153.0, 48.0, 153.0, 48.0, 128.0, 74.5, 128.0 ]
				}

			}
, 			{
				"patchline" : 				{
					"source" : [ "obj-10", 1 ],
					"destination" : [ "obj-4", 0 ],
					"hidden" : 1,
					"midpoints" : [  ]
				}

			}
, 			{
				"patchline" : 				{
					"source" : [ "obj-10", 2 ],
					"destination" : [ "obj-6", 0 ],
					"hidden" : 1,
					"midpoints" : [ 111.833336, 154.0, 134.5, 154.0 ]
				}

			}
, 			{
				"patchline" : 				{
					"source" : [ "obj-10", 3 ],
					"destination" : [ "obj-3", 0 ],
					"hidden" : 1,
					"midpoints" : [  ]
				}

			}
, 			{
				"patchline" : 				{
					"source" : [ "obj-11", 0 ],
					"destination" : [ "obj-10", 1 ],
					"hidden" : 1,
					"midpoints" : [ 145.0, 153.0, 154.0, 153.0, 154.0, 125.0, 130.5, 125.0 ]
				}

			}
, 			{
				"patchline" : 				{
					"source" : [ "obj-1", 0 ],
					"destination" : [ "obj-11", 0 ],
					"hidden" : 1,
					"midpoints" : [  ]
				}

			}
 ]
	}

}
