{
	"patcher" : 	{
		"fileversion" : 1,
		"rect" : [ 111.0, 91.0, 731.0, 398.0 ],
		"bglocked" : 0,
		"defrect" : [ 111.0, 91.0, 731.0, 398.0 ],
		"openrect" : [ 0.0, 0.0, 0.0, 0.0 ],
		"openinpresentation" : 0,
		"default_fontsize" : 12.0,
		"default_fontface" : 0,
		"default_fontname" : "Arial",
		"gridonopen" : 0,
		"gridsize" : [ 15.0, 15.0 ],
		"gridsnaponopen" : 0,
		"toolbarvisible" : 1,
		"boxanimatetime" : 200,
		"imprint" : 0,
		"enablehscroll" : 1,
		"enablevscroll" : 1,
		"devicewidth" : 0.0,
		"boxes" : [ 			{
				"box" : 				{
					"maxclass" : "newobj",
					"text" : "pipe 500",
					"fontname" : "Arial",
					"numinlets" : 2,
					"id" : "obj-56",
					"numoutlets" : 1,
					"outlettype" : [ "" ],
					"fontsize" : 12.0,
					"hidden" : 1,
					"patching_rect" : [ 248.0, 177.0, 57.0, 20.0 ]
				}

			}
, 			{
				"box" : 				{
					"maxclass" : "newobj",
					"text" : "loadmess 1",
					"fontname" : "Arial",
					"numinlets" : 1,
					"id" : "obj-53",
					"numoutlets" : 1,
					"outlettype" : [ "" ],
					"fontsize" : 12.0,
					"hidden" : 1,
					"patching_rect" : [ 248.0, 150.0, 72.0, 20.0 ]
				}

			}
, 			{
				"box" : 				{
					"maxclass" : "newobj",
					"varname" : "Onebubble_preset",
					"text" : "pattrstorage Onebubble_preset @savemode 1",
					"linecount" : 2,
					"fontname" : "Arial",
					"numinlets" : 1,
					"id" : "obj-1",
					"numoutlets" : 1,
					"outlettype" : [ "" ],
					"fontsize" : 9.0,
					"patching_rect" : [ 19.0, 290.0, 147.0, 27.0 ],
					"autorestore" : "Onebubble_preset.xml",
					"saved_object_attributes" : 					{
						"parameter_enable" : 0,
						"paraminitmode" : 0,
						"client_rect" : [ 0, 0, 640, 240 ],
						"storage_rect" : [ 0, 0, 640, 240 ]
					}

				}

			}
, 			{
				"box" : 				{
					"maxclass" : "newobj",
					"text" : "loadbang",
					"fontname" : "Arial",
					"numinlets" : 1,
					"id" : "obj-2",
					"numoutlets" : 1,
					"outlettype" : [ "bang" ],
					"fontsize" : 9.0,
					"hidden" : 1,
					"patching_rect" : [ -65.0, 254.0, 48.0, 17.0 ]
				}

			}
, 			{
				"box" : 				{
					"maxclass" : "newobj",
					"text" : "delay 500",
					"fontname" : "Arial",
					"numinlets" : 2,
					"id" : "obj-3",
					"numoutlets" : 1,
					"outlettype" : [ "bang" ],
					"fontsize" : 9.0,
					"hidden" : 1,
					"patching_rect" : [ -65.0, 329.0, 55.0, 17.0 ]
				}

			}
, 			{
				"box" : 				{
					"maxclass" : "newobj",
					"text" : "t bang",
					"fontname" : "Arial",
					"numinlets" : 1,
					"id" : "obj-4",
					"numoutlets" : 1,
					"outlettype" : [ "bang" ],
					"fontsize" : 9.0,
					"hidden" : 1,
					"patching_rect" : [ -65.0, 309.0, 37.0, 17.0 ]
				}

			}
, 			{
				"box" : 				{
					"maxclass" : "newobj",
					"text" : "p storelist",
					"fontname" : "Arial",
					"numinlets" : 4,
					"id" : "obj-5",
					"numoutlets" : 4,
					"outlettype" : [ "int", "set", "", "" ],
					"fontsize" : 9.0,
					"hidden" : 1,
					"patching_rect" : [ 129.0, 281.0, 57.0, 17.0 ],
					"patcher" : 					{
						"fileversion" : 1,
						"rect" : [ 55.0, 437.0, 734.0, 517.0 ],
						"bglocked" : 0,
						"defrect" : [ 55.0, 437.0, 734.0, 517.0 ],
						"openrect" : [ 0.0, 0.0, 0.0, 0.0 ],
						"openinpresentation" : 0,
						"default_fontsize" : 12.0,
						"default_fontface" : 0,
						"default_fontname" : "Arial",
						"gridonopen" : 0,
						"gridsize" : [ 15.0, 15.0 ],
						"gridsnaponopen" : 0,
						"toolbarvisible" : 1,
						"boxanimatetime" : 200,
						"imprint" : 0,
						"enablehscroll" : 1,
						"enablevscroll" : 1,
						"devicewidth" : 0.0,
						"boxes" : [ 							{
								"box" : 								{
									"maxclass" : "inlet",
									"numinlets" : 0,
									"id" : "obj-1",
									"numoutlets" : 1,
									"outlettype" : [ "bang" ],
									"patching_rect" : [ 185.0, 39.0, 15.0, 15.0 ],
									"comment" : ""
								}

							}
, 							{
								"box" : 								{
									"maxclass" : "outlet",
									"numinlets" : 1,
									"id" : "obj-2",
									"numoutlets" : 0,
									"patching_rect" : [ 164.0, 398.0, 15.0, 15.0 ],
									"comment" : ""
								}

							}
, 							{
								"box" : 								{
									"maxclass" : "outlet",
									"numinlets" : 1,
									"id" : "obj-3",
									"numoutlets" : 0,
									"patching_rect" : [ 134.0, 398.0, 15.0, 15.0 ],
									"comment" : ""
								}

							}
, 							{
								"box" : 								{
									"maxclass" : "newobj",
									"text" : "t 1 set",
									"fontname" : "Arial",
									"numinlets" : 1,
									"id" : "obj-4",
									"numoutlets" : 2,
									"outlettype" : [ "int", "set" ],
									"fontsize" : 9.0,
									"patching_rect" : [ 134.0, 63.0, 40.0, 17.0 ]
								}

							}
, 							{
								"box" : 								{
									"maxclass" : "newobj",
									"text" : "route bang int",
									"fontname" : "Arial",
									"numinlets" : 1,
									"id" : "obj-5",
									"numoutlets" : 3,
									"outlettype" : [ "", "", "" ],
									"fontsize" : 9.0,
									"patching_rect" : [ 612.0, 67.0, 72.0, 17.0 ]
								}

							}
, 							{
								"box" : 								{
									"maxclass" : "inlet",
									"numinlets" : 0,
									"id" : "obj-6",
									"numoutlets" : 1,
									"outlettype" : [ "bang" ],
									"patching_rect" : [ 612.0, 39.0, 15.0, 15.0 ],
									"comment" : ""
								}

							}
, 							{
								"box" : 								{
									"maxclass" : "newobj",
									"text" : "i",
									"fontname" : "Arial",
									"numinlets" : 2,
									"id" : "obj-7",
									"numoutlets" : 1,
									"outlettype" : [ "int" ],
									"fontsize" : 9.0,
									"patching_rect" : [ 612.0, 88.0, 41.0, 17.0 ]
								}

							}
, 							{
								"box" : 								{
									"maxclass" : "message",
									"text" : "delete $1",
									"fontname" : "Arial",
									"numinlets" : 2,
									"id" : "obj-8",
									"numoutlets" : 1,
									"outlettype" : [ "" ],
									"fontsize" : 9.0,
									"patching_rect" : [ 612.0, 143.0, 52.0, 15.0 ]
								}

							}
, 							{
								"box" : 								{
									"maxclass" : "outlet",
									"numinlets" : 1,
									"id" : "obj-9",
									"numoutlets" : 0,
									"patching_rect" : [ 206.0, 398.0, 15.0, 15.0 ],
									"comment" : ""
								}

							}
, 							{
								"box" : 								{
									"maxclass" : "inlet",
									"numinlets" : 0,
									"id" : "obj-10",
									"numoutlets" : 1,
									"outlettype" : [ "" ],
									"patching_rect" : [ 338.0, 39.0, 15.0, 15.0 ],
									"comment" : ""
								}

							}
, 							{
								"box" : 								{
									"maxclass" : "inlet",
									"numinlets" : 0,
									"id" : "obj-11",
									"numoutlets" : 1,
									"outlettype" : [ "" ],
									"patching_rect" : [ 218.0, 39.0, 15.0, 15.0 ],
									"comment" : ""
								}

							}
, 							{
								"box" : 								{
									"maxclass" : "outlet",
									"numinlets" : 1,
									"id" : "obj-12",
									"numoutlets" : 0,
									"patching_rect" : [ 411.0, 398.0, 15.0, 15.0 ],
									"comment" : ""
								}

							}
, 							{
								"box" : 								{
									"maxclass" : "button",
									"numinlets" : 1,
									"id" : "obj-13",
									"numoutlets" : 1,
									"outlettype" : [ "bang" ],
									"patching_rect" : [ 218.0, 110.0, 15.0, 15.0 ]
								}

							}
, 							{
								"box" : 								{
									"maxclass" : "newobj",
									"text" : "delay 200",
									"fontname" : "Arial",
									"numinlets" : 2,
									"id" : "obj-14",
									"numoutlets" : 1,
									"outlettype" : [ "bang" ],
									"fontsize" : 9.0,
									"patching_rect" : [ 218.0, 128.0, 55.0, 17.0 ]
								}

							}
, 							{
								"box" : 								{
									"maxclass" : "button",
									"numinlets" : 1,
									"id" : "obj-15",
									"numoutlets" : 1,
									"outlettype" : [ "bang" ],
									"patching_rect" : [ 218.0, 148.0, 15.0, 15.0 ]
								}

							}
, 							{
								"box" : 								{
									"maxclass" : "newobj",
									"text" : "route slotname",
									"fontname" : "Arial",
									"numinlets" : 1,
									"id" : "obj-16",
									"numoutlets" : 2,
									"outlettype" : [ "", "" ],
									"fontsize" : 9.0,
									"patching_rect" : [ 338.0, 265.0, 77.0, 17.0 ]
								}

							}
, 							{
								"box" : 								{
									"maxclass" : "newobj",
									"text" : "t 0",
									"fontname" : "Arial",
									"numinlets" : 1,
									"id" : "obj-17",
									"numoutlets" : 1,
									"outlettype" : [ "int" ],
									"fontsize" : 9.0,
									"patching_rect" : [ 338.0, 310.0, 21.0, 17.0 ]
								}

							}
, 							{
								"box" : 								{
									"maxclass" : "newobj",
									"text" : "unpack 0 s",
									"fontname" : "Arial",
									"numinlets" : 1,
									"id" : "obj-18",
									"numoutlets" : 2,
									"outlettype" : [ "int", "" ],
									"fontsize" : 9.0,
									"patching_rect" : [ 383.0, 310.0, 55.0, 17.0 ]
								}

							}
, 							{
								"box" : 								{
									"maxclass" : "newobj",
									"text" : "prepend append",
									"fontname" : "Arial",
									"numinlets" : 1,
									"id" : "obj-19",
									"numoutlets" : 1,
									"outlettype" : [ "" ],
									"fontsize" : 9.0,
									"patching_rect" : [ 428.0, 331.0, 75.0, 17.0 ]
								}

							}
, 							{
								"box" : 								{
									"maxclass" : "newobj",
									"text" : "t 1 clear",
									"fontname" : "Arial",
									"numinlets" : 1,
									"id" : "obj-20",
									"numoutlets" : 2,
									"outlettype" : [ "int", "clear" ],
									"fontsize" : 9.0,
									"patching_rect" : [ 218.0, 192.0, 48.0, 17.0 ]
								}

							}
, 							{
								"box" : 								{
									"maxclass" : "newobj",
									"text" : "route done",
									"fontname" : "Arial",
									"numinlets" : 1,
									"id" : "obj-21",
									"numoutlets" : 2,
									"outlettype" : [ "", "" ],
									"fontsize" : 9.0,
									"patching_rect" : [ 338.0, 288.0, 55.0, 17.0 ]
								}

							}
, 							{
								"box" : 								{
									"maxclass" : "newobj",
									"text" : "gate",
									"fontname" : "Arial",
									"numinlets" : 2,
									"id" : "obj-22",
									"numoutlets" : 1,
									"outlettype" : [ "" ],
									"fontsize" : 9.0,
									"patching_rect" : [ 411.0, 352.0, 27.0, 17.0 ]
								}

							}
, 							{
								"box" : 								{
									"maxclass" : "message",
									"text" : "getslotnamelist",
									"fontname" : "Arial",
									"numinlets" : 2,
									"id" : "obj-23",
									"numoutlets" : 1,
									"outlettype" : [ "" ],
									"fontsize" : 9.0,
									"patching_rect" : [ 218.0, 171.0, 81.0, 15.0 ]
								}

							}
, 							{
								"box" : 								{
									"maxclass" : "newobj",
									"text" : "prepend store",
									"fontname" : "Arial",
									"numinlets" : 1,
									"id" : "obj-24",
									"numoutlets" : 1,
									"outlettype" : [ "" ],
									"fontsize" : 9.0,
									"patching_rect" : [ 218.0, 77.0, 72.0, 17.0 ]
								}

							}
, 							{
								"box" : 								{
									"maxclass" : "newobj",
									"text" : "route text",
									"fontname" : "Arial",
									"numinlets" : 1,
									"id" : "obj-25",
									"numoutlets" : 2,
									"outlettype" : [ "", "" ],
									"fontsize" : 9.0,
									"patching_rect" : [ 218.0, 58.0, 56.0, 17.0 ]
								}

							}
 ],
						"lines" : [ 							{
								"patchline" : 								{
									"source" : [ "obj-11", 0 ],
									"destination" : [ "obj-4", 0 ],
									"hidden" : 0,
									"midpoints" : [ 227.0, 58.0, 143.5, 58.0 ]
								}

							}
, 							{
								"patchline" : 								{
									"source" : [ "obj-4", 0 ],
									"destination" : [ "obj-3", 0 ],
									"hidden" : 0,
									"midpoints" : [  ]
								}

							}
, 							{
								"patchline" : 								{
									"source" : [ "obj-4", 1 ],
									"destination" : [ "obj-2", 0 ],
									"hidden" : 0,
									"midpoints" : [  ]
								}

							}
, 							{
								"patchline" : 								{
									"source" : [ "obj-23", 0 ],
									"destination" : [ "obj-9", 0 ],
									"hidden" : 0,
									"midpoints" : [ 227.5, 188.0, 215.0, 188.0 ]
								}

							}
, 							{
								"patchline" : 								{
									"source" : [ "obj-24", 0 ],
									"destination" : [ "obj-9", 0 ],
									"hidden" : 0,
									"midpoints" : [ 227.5, 101.0, 215.0, 101.0 ]
								}

							}
, 							{
								"patchline" : 								{
									"source" : [ "obj-8", 0 ],
									"destination" : [ "obj-9", 0 ],
									"hidden" : 0,
									"midpoints" : [ 621.5, 394.0, 215.0, 394.0 ]
								}

							}
, 							{
								"patchline" : 								{
									"source" : [ "obj-11", 0 ],
									"destination" : [ "obj-25", 0 ],
									"hidden" : 0,
									"midpoints" : [  ]
								}

							}
, 							{
								"patchline" : 								{
									"source" : [ "obj-25", 0 ],
									"destination" : [ "obj-24", 0 ],
									"hidden" : 0,
									"midpoints" : [  ]
								}

							}
, 							{
								"patchline" : 								{
									"source" : [ "obj-7", 0 ],
									"destination" : [ "obj-13", 0 ],
									"hidden" : 0,
									"midpoints" : [ 621.5, 105.0, 227.0, 105.0 ]
								}

							}
, 							{
								"patchline" : 								{
									"source" : [ "obj-24", 0 ],
									"destination" : [ "obj-13", 0 ],
									"hidden" : 0,
									"midpoints" : [  ]
								}

							}
, 							{
								"patchline" : 								{
									"source" : [ "obj-13", 0 ],
									"destination" : [ "obj-14", 0 ],
									"hidden" : 0,
									"midpoints" : [  ]
								}

							}
, 							{
								"patchline" : 								{
									"source" : [ "obj-14", 0 ],
									"destination" : [ "obj-15", 0 ],
									"hidden" : 0,
									"midpoints" : [  ]
								}

							}
, 							{
								"patchline" : 								{
									"source" : [ "obj-1", 0 ],
									"destination" : [ "obj-15", 0 ],
									"hidden" : 0,
									"midpoints" : [ 194.0, 146.0, 227.0, 146.0 ]
								}

							}
, 							{
								"patchline" : 								{
									"source" : [ "obj-15", 0 ],
									"destination" : [ "obj-23", 0 ],
									"hidden" : 0,
									"midpoints" : [  ]
								}

							}
, 							{
								"patchline" : 								{
									"source" : [ "obj-23", 0 ],
									"destination" : [ "obj-20", 0 ],
									"hidden" : 0,
									"midpoints" : [  ]
								}

							}
, 							{
								"patchline" : 								{
									"source" : [ "obj-10", 0 ],
									"destination" : [ "obj-16", 0 ],
									"hidden" : 0,
									"midpoints" : [  ]
								}

							}
, 							{
								"patchline" : 								{
									"source" : [ "obj-16", 0 ],
									"destination" : [ "obj-21", 0 ],
									"hidden" : 0,
									"midpoints" : [  ]
								}

							}
, 							{
								"patchline" : 								{
									"source" : [ "obj-21", 0 ],
									"destination" : [ "obj-17", 0 ],
									"hidden" : 0,
									"midpoints" : [  ]
								}

							}
, 							{
								"patchline" : 								{
									"source" : [ "obj-21", 1 ],
									"destination" : [ "obj-18", 0 ],
									"hidden" : 0,
									"midpoints" : [  ]
								}

							}
, 							{
								"patchline" : 								{
									"source" : [ "obj-17", 0 ],
									"destination" : [ "obj-22", 0 ],
									"hidden" : 0,
									"midpoints" : [ 347.5, 346.0, 420.5, 346.0 ]
								}

							}
, 							{
								"patchline" : 								{
									"source" : [ "obj-20", 0 ],
									"destination" : [ "obj-22", 0 ],
									"hidden" : 0,
									"midpoints" : [ 227.5, 280.0, 325.0, 280.0, 325.0, 346.0, 420.5, 346.0 ]
								}

							}
, 							{
								"patchline" : 								{
									"source" : [ "obj-22", 0 ],
									"destination" : [ "obj-12", 0 ],
									"hidden" : 0,
									"midpoints" : [  ]
								}

							}
, 							{
								"patchline" : 								{
									"source" : [ "obj-20", 1 ],
									"destination" : [ "obj-12", 0 ],
									"hidden" : 0,
									"midpoints" : [ 256.5, 381.0, 420.0, 381.0 ]
								}

							}
, 							{
								"patchline" : 								{
									"source" : [ "obj-18", 1 ],
									"destination" : [ "obj-19", 0 ],
									"hidden" : 0,
									"midpoints" : [  ]
								}

							}
, 							{
								"patchline" : 								{
									"source" : [ "obj-19", 0 ],
									"destination" : [ "obj-22", 1 ],
									"hidden" : 0,
									"midpoints" : [  ]
								}

							}
, 							{
								"patchline" : 								{
									"source" : [ "obj-6", 0 ],
									"destination" : [ "obj-5", 0 ],
									"hidden" : 0,
									"midpoints" : [  ]
								}

							}
, 							{
								"patchline" : 								{
									"source" : [ "obj-5", 0 ],
									"destination" : [ "obj-7", 0 ],
									"hidden" : 0,
									"midpoints" : [  ]
								}

							}
, 							{
								"patchline" : 								{
									"source" : [ "obj-7", 0 ],
									"destination" : [ "obj-8", 0 ],
									"hidden" : 0,
									"midpoints" : [  ]
								}

							}
, 							{
								"patchline" : 								{
									"source" : [ "obj-5", 1 ],
									"destination" : [ "obj-7", 1 ],
									"hidden" : 0,
									"midpoints" : [  ]
								}

							}
 ]
					}
,
					"saved_object_attributes" : 					{
						"fontname" : "Arial",
						"default_fontsize" : 12.0,
						"fontface" : 0,
						"fontsize" : 12.0,
						"globalpatchername" : "",
						"default_fontface" : 0,
						"default_fontname" : "Arial"
					}

				}

			}
, 			{
				"box" : 				{
					"maxclass" : "inlet",
					"numinlets" : 0,
					"id" : "obj-6",
					"numoutlets" : 1,
					"outlettype" : [ "" ],
					"hidden" : 1,
					"patching_rect" : [ 146.0, -37.0, 15.0, 15.0 ],
					"comment" : "preset interpolation"
				}

			}
, 			{
				"box" : 				{
					"maxclass" : "inlet",
					"numinlets" : 0,
					"id" : "obj-7",
					"numoutlets" : 1,
					"outlettype" : [ "" ],
					"hidden" : 1,
					"patching_rect" : [ 123.0, -37.0, 15.0, 15.0 ],
					"comment" : "blasting slope"
				}

			}
, 			{
				"box" : 				{
					"maxclass" : "inlet",
					"numinlets" : 0,
					"id" : "obj-8",
					"numoutlets" : 1,
					"outlettype" : [ "" ],
					"hidden" : 1,
					"patching_rect" : [ 99.0, -37.0, 15.0, 15.0 ],
					"comment" : "bubble radius"
				}

			}
, 			{
				"box" : 				{
					"maxclass" : "inlet",
					"numinlets" : 0,
					"id" : "obj-9",
					"numoutlets" : 1,
					"outlettype" : [ "" ],
					"hidden" : 1,
					"patching_rect" : [ 76.0, -37.0, 15.0, 15.0 ],
					"comment" : "onebubble - bang"
				}

			}
, 			{
				"box" : 				{
					"maxclass" : "outlet",
					"numinlets" : 1,
					"id" : "obj-10",
					"numoutlets" : 0,
					"hidden" : 1,
					"patching_rect" : [ -38.0, 493.0, 15.0, 15.0 ],
					"comment" : "one bubble -sound out"
				}

			}
, 			{
				"box" : 				{
					"maxclass" : "comment",
					"text" : "Physical parameters",
					"fontname" : "Arial Black",
					"numinlets" : 1,
					"id" : "obj-11",
					"numoutlets" : 0,
					"fontsize" : 12.0,
					"patching_rect" : [ 40.0, 1.0, 146.0, 23.0 ]
				}

			}
, 			{
				"box" : 				{
					"maxclass" : "comment",
					"text" : "Temporal control",
					"fontname" : "Arial Black",
					"numinlets" : 1,
					"id" : "obj-12",
					"numoutlets" : 0,
					"fontsize" : 12.0,
					"patching_rect" : [ 317.0, 1.0, 130.0, 23.0 ]
				}

			}
, 			{
				"box" : 				{
					"maxclass" : "comment",
					"text" : "Timbral palette",
					"fontname" : "Arial Black",
					"numinlets" : 1,
					"id" : "obj-13",
					"numoutlets" : 0,
					"fontsize" : 12.0,
					"patching_rect" : [ 317.0, 188.0, 130.0, 23.0 ]
				}

			}
, 			{
				"box" : 				{
					"maxclass" : "comment",
					"text" : "bang to update available presets files",
					"fontname" : "Arial",
					"numinlets" : 1,
					"id" : "obj-14",
					"numoutlets" : 0,
					"fontsize" : 9.0,
					"patching_rect" : [ 8.0, 253.0, 172.0, 17.0 ]
				}

			}
, 			{
				"box" : 				{
					"maxclass" : "newobj",
					"text" : "prepend read",
					"fontname" : "Arial",
					"numinlets" : 1,
					"color" : [ 0.380392, 0.611765, 0.611765, 1.0 ],
					"id" : "obj-15",
					"numoutlets" : 1,
					"outlettype" : [ "" ],
					"fontsize" : 9.0,
					"hidden" : 1,
					"patching_rect" : [ -65.0, 290.0, 68.0, 17.0 ]
				}

			}
, 			{
				"box" : 				{
					"maxclass" : "button",
					"numinlets" : 1,
					"id" : "obj-16",
					"numoutlets" : 1,
					"outlettype" : [ "bang" ],
					"patching_rect" : [ 140.0, 268.0, 18.0, 18.0 ]
				}

			}
, 			{
				"box" : 				{
					"maxclass" : "newobj",
					"text" : "p updatefield",
					"fontname" : "Arial",
					"numinlets" : 1,
					"id" : "obj-17",
					"numoutlets" : 2,
					"outlettype" : [ "", "" ],
					"fontsize" : 9.0,
					"hidden" : 1,
					"patching_rect" : [ -66.0, 228.0, 67.0, 17.0 ],
					"patcher" : 					{
						"fileversion" : 1,
						"rect" : [ 182.0, 252.0, 600.0, 426.0 ],
						"bglocked" : 0,
						"defrect" : [ 182.0, 252.0, 600.0, 426.0 ],
						"openrect" : [ 0.0, 0.0, 0.0, 0.0 ],
						"openinpresentation" : 0,
						"default_fontsize" : 12.0,
						"default_fontface" : 0,
						"default_fontname" : "Arial",
						"gridonopen" : 0,
						"gridsize" : [ 15.0, 15.0 ],
						"gridsnaponopen" : 0,
						"toolbarvisible" : 1,
						"boxanimatetime" : 200,
						"imprint" : 0,
						"enablehscroll" : 1,
						"enablevscroll" : 1,
						"devicewidth" : 0.0,
						"boxes" : [ 							{
								"box" : 								{
									"maxclass" : "newobj",
									"text" : "tosymbol",
									"fontname" : "Arial",
									"numinlets" : 1,
									"id" : "obj-15",
									"numoutlets" : 1,
									"outlettype" : [ "" ],
									"fontsize" : 9.0,
									"patching_rect" : [ 67.0, 230.0, 47.0, 17.0 ]
								}

							}
, 							{
								"box" : 								{
									"maxclass" : "inlet",
									"numinlets" : 0,
									"id" : "obj-1",
									"numoutlets" : 1,
									"outlettype" : [ "bang" ],
									"patching_rect" : [ 291.0, 53.0, 15.0, 15.0 ],
									"comment" : ""
								}

							}
, 							{
								"box" : 								{
									"maxclass" : "newobj",
									"text" : "t bang",
									"fontname" : "Arial",
									"numinlets" : 1,
									"id" : "obj-2",
									"numoutlets" : 1,
									"outlettype" : [ "bang" ],
									"fontsize" : 9.0,
									"patching_rect" : [ 292.0, 89.0, 37.0, 17.0 ]
								}

							}
, 							{
								"box" : 								{
									"maxclass" : "newobj",
									"text" : "pack depth 4",
									"fontname" : "Arial",
									"numinlets" : 2,
									"id" : "obj-3",
									"numoutlets" : 1,
									"outlettype" : [ "" ],
									"fontsize" : 9.0,
									"patching_rect" : [ 292.0, 110.0, 66.0, 17.0 ]
								}

							}
, 							{
								"box" : 								{
									"maxclass" : "newobj",
									"text" : "loadbang",
									"fontname" : "Arial",
									"numinlets" : 1,
									"id" : "obj-4",
									"numoutlets" : 1,
									"outlettype" : [ "bang" ],
									"fontsize" : 9.0,
									"patching_rect" : [ 109.0, 50.0, 48.0, 17.0 ]
								}

							}
, 							{
								"box" : 								{
									"maxclass" : "button",
									"numinlets" : 1,
									"id" : "obj-5",
									"numoutlets" : 1,
									"outlettype" : [ "bang" ],
									"patching_rect" : [ 50.0, 155.0, 15.0, 15.0 ]
								}

							}
, 							{
								"box" : 								{
									"maxclass" : "message",
									"text" : "\"Macintosh HD:/Users/sdellemo/Documents/01_SoundDesignToolKit/SDT_contents\"",
									"linecount" : 2,
									"fontname" : "Arial",
									"numinlets" : 2,
									"id" : "obj-6",
									"numoutlets" : 1,
									"outlettype" : [ "" ],
									"fontsize" : 9.0,
									"patching_rect" : [ 67.0, 174.0, 311.0, 25.0 ]
								}

							}
, 							{
								"box" : 								{
									"maxclass" : "newobj",
									"text" : "prepend set",
									"fontname" : "Arial",
									"numinlets" : 1,
									"id" : "obj-7",
									"numoutlets" : 1,
									"outlettype" : [ "" ],
									"fontsize" : 9.0,
									"patching_rect" : [ 67.0, 131.0, 60.0, 17.0 ]
								}

							}
, 							{
								"box" : 								{
									"maxclass" : "message",
									"text" : "SDT_contents",
									"fontname" : "Arial",
									"numinlets" : 2,
									"id" : "obj-8",
									"numoutlets" : 1,
									"outlettype" : [ "" ],
									"fontsize" : 9.0,
									"patching_rect" : [ 67.0, 83.0, 72.0, 15.0 ]
								}

							}
, 							{
								"box" : 								{
									"maxclass" : "newobj",
									"text" : "absolutepath",
									"fontname" : "Arial",
									"numinlets" : 1,
									"color" : [ 1.0, 0.890196, 0.090196, 1.0 ],
									"id" : "obj-9",
									"numoutlets" : 1,
									"outlettype" : [ "" ],
									"fontsize" : 9.0,
									"patching_rect" : [ 67.0, 102.0, 64.0, 17.0 ]
								}

							}
, 							{
								"box" : 								{
									"maxclass" : "newobj",
									"text" : "sprintf %s/Presets/Onebubble/Timbral",
									"fontname" : "Arial",
									"numinlets" : 1,
									"id" : "obj-10",
									"numoutlets" : 1,
									"outlettype" : [ "" ],
									"fontsize" : 9.0,
									"patching_rect" : [ 67.0, 208.0, 190.0, 17.0 ]
								}

							}
, 							{
								"box" : 								{
									"maxclass" : "newobj",
									"text" : "prepend prefix",
									"fontname" : "Arial",
									"numinlets" : 1,
									"id" : "obj-11",
									"numoutlets" : 1,
									"outlettype" : [ "" ],
									"fontsize" : 9.0,
									"patching_rect" : [ 67.0, 253.0, 76.0, 17.0 ]
								}

							}
, 							{
								"box" : 								{
									"maxclass" : "message",
									"text" : "autopopulate 1",
									"fontname" : "Arial",
									"numinlets" : 2,
									"id" : "obj-12",
									"numoutlets" : 1,
									"outlettype" : [ "" ],
									"fontsize" : 9.0,
									"patching_rect" : [ 145.0, 83.0, 75.0, 15.0 ]
								}

							}
, 							{
								"box" : 								{
									"maxclass" : "outlet",
									"numinlets" : 1,
									"id" : "obj-13",
									"numoutlets" : 0,
									"patching_rect" : [ 144.0, 275.0, 15.0, 15.0 ],
									"comment" : ""
								}

							}
, 							{
								"box" : 								{
									"maxclass" : "outlet",
									"numinlets" : 1,
									"id" : "obj-14",
									"numoutlets" : 0,
									"patching_rect" : [ 67.0, 275.0, 15.0, 15.0 ],
									"comment" : ""
								}

							}
 ],
						"lines" : [ 							{
								"patchline" : 								{
									"source" : [ "obj-15", 0 ],
									"destination" : [ "obj-11", 0 ],
									"hidden" : 0,
									"midpoints" : [  ]
								}

							}
, 							{
								"patchline" : 								{
									"source" : [ "obj-10", 0 ],
									"destination" : [ "obj-15", 0 ],
									"hidden" : 0,
									"midpoints" : [  ]
								}

							}
, 							{
								"patchline" : 								{
									"source" : [ "obj-7", 0 ],
									"destination" : [ "obj-5", 0 ],
									"hidden" : 0,
									"midpoints" : [  ]
								}

							}
, 							{
								"patchline" : 								{
									"source" : [ "obj-4", 0 ],
									"destination" : [ "obj-8", 0 ],
									"hidden" : 0,
									"midpoints" : [  ]
								}

							}
, 							{
								"patchline" : 								{
									"source" : [ "obj-8", 0 ],
									"destination" : [ "obj-9", 0 ],
									"hidden" : 0,
									"midpoints" : [  ]
								}

							}
, 							{
								"patchline" : 								{
									"source" : [ "obj-9", 0 ],
									"destination" : [ "obj-7", 0 ],
									"hidden" : 0,
									"midpoints" : [  ]
								}

							}
, 							{
								"patchline" : 								{
									"source" : [ "obj-5", 0 ],
									"destination" : [ "obj-6", 0 ],
									"hidden" : 0,
									"midpoints" : [  ]
								}

							}
, 							{
								"patchline" : 								{
									"source" : [ "obj-7", 0 ],
									"destination" : [ "obj-6", 0 ],
									"hidden" : 0,
									"midpoints" : [  ]
								}

							}
, 							{
								"patchline" : 								{
									"source" : [ "obj-6", 0 ],
									"destination" : [ "obj-10", 0 ],
									"hidden" : 0,
									"midpoints" : [  ]
								}

							}
, 							{
								"patchline" : 								{
									"source" : [ "obj-11", 0 ],
									"destination" : [ "obj-14", 0 ],
									"hidden" : 0,
									"midpoints" : [  ]
								}

							}
, 							{
								"patchline" : 								{
									"source" : [ "obj-3", 0 ],
									"destination" : [ "obj-13", 0 ],
									"hidden" : 0,
									"midpoints" : [ 301.5, 262.0, 153.0, 262.0 ]
								}

							}
, 							{
								"patchline" : 								{
									"source" : [ "obj-12", 0 ],
									"destination" : [ "obj-13", 0 ],
									"hidden" : 0,
									"midpoints" : [  ]
								}

							}
, 							{
								"patchline" : 								{
									"source" : [ "obj-4", 0 ],
									"destination" : [ "obj-12", 0 ],
									"hidden" : 0,
									"midpoints" : [  ]
								}

							}
, 							{
								"patchline" : 								{
									"source" : [ "obj-1", 0 ],
									"destination" : [ "obj-2", 0 ],
									"hidden" : 0,
									"midpoints" : [  ]
								}

							}
, 							{
								"patchline" : 								{
									"source" : [ "obj-2", 0 ],
									"destination" : [ "obj-3", 0 ],
									"hidden" : 0,
									"midpoints" : [  ]
								}

							}
 ]
					}
,
					"saved_object_attributes" : 					{
						"fontname" : "Arial",
						"default_fontsize" : 12.0,
						"fontface" : 0,
						"fontsize" : 12.0,
						"globalpatchername" : "",
						"default_fontface" : 0,
						"default_fontname" : "Arial"
					}

				}

			}
, 			{
				"box" : 				{
					"maxclass" : "umenu",
					"fontname" : "Arial",
					"textcolor" : [ 1.0, 1.0, 1.0, 1.0 ],
					"numinlets" : 1,
					"framecolor" : [ 1.0, 1.0, 1.0, 1.0 ],
					"id" : "obj-18",
					"numoutlets" : 3,
					"bgcolor2" : [ 0.647059, 0.647059, 0.647059, 1.0 ],
					"discolor" : [ 0.647059, 0.647059, 0.647059, 1.0 ],
					"depth" : 4,
					"outlettype" : [ "int", "", "" ],
					"fontsize" : 12.0,
					"togcolor" : [ 0.552941, 0.552941, 0.552941, 1.0 ],
					"autopopulate" : 1,
					"bgcolor" : [ 0.517647, 0.517647, 0.517647, 1.0 ],
					"textcolor2" : [ 1.0, 1.0, 1.0, 1.0 ],
					"types" : [  ],
					"patching_rect" : [ 19.0, 267.0, 123.0, 20.0 ],
					"items" : [ ".svn", ",", ".svn/all-wcprops", ",", ".svn/entries", ",", ".svn/format", ",", ".svn/prop-base", ",", ".svn/props", ",", ".svn/text-base", ",", ".svn/text-base/Onebubble_preset.xml.svn-base", ",", ".svn/tmp", ",", ".svn/tmp/prop-base", ",", ".svn/tmp/props", ",", ".svn/tmp/text-base", ",", "Onebubble_preset.xml" ],
					"prefix" : "Macintosh",
					"hltcolor" : [ 0.517647, 0.517647, 0.517647, 1.0 ]
				}

			}
, 			{
				"box" : 				{
					"maxclass" : "newobj",
					"text" : "prepend set",
					"fontname" : "Arial",
					"numinlets" : 1,
					"color" : [ 0.380392, 0.611765, 0.611765, 1.0 ],
					"id" : "obj-19",
					"numoutlets" : 1,
					"outlettype" : [ "" ],
					"fontsize" : 9.0,
					"hidden" : 1,
					"patching_rect" : [ 258.0, 320.0, 62.0, 17.0 ]
				}

			}
, 			{
				"box" : 				{
					"maxclass" : "newobj",
					"text" : "i",
					"fontname" : "Arial",
					"numinlets" : 2,
					"color" : [ 0.380392, 0.611765, 0.611765, 1.0 ],
					"id" : "obj-20",
					"numoutlets" : 1,
					"outlettype" : [ "int" ],
					"fontsize" : 9.0,
					"hidden" : 1,
					"patching_rect" : [ 258.0, 300.0, 27.0, 17.0 ]
				}

			}
, 			{
				"box" : 				{
					"maxclass" : "newobj",
					"text" : "loadmess 1",
					"fontname" : "Arial",
					"numinlets" : 1,
					"id" : "obj-21",
					"numoutlets" : 1,
					"outlettype" : [ "" ],
					"fontsize" : 9.0,
					"hidden" : 1,
					"patching_rect" : [ 548.0, 227.0, 60.0, 17.0 ]
				}

			}
, 			{
				"box" : 				{
					"maxclass" : "comment",
					"text" : "Save",
					"fontname" : "Arial Black",
					"numinlets" : 1,
					"id" : "obj-22",
					"numoutlets" : 0,
					"fontsize" : 9.0,
					"patching_rect" : [ 483.0, 220.0, 34.0, 19.0 ]
				}

			}
, 			{
				"box" : 				{
					"maxclass" : "message",
					"text" : "recall $1",
					"fontname" : "Arial",
					"numinlets" : 2,
					"id" : "obj-23",
					"numoutlets" : 1,
					"outlettype" : [ "" ],
					"fontsize" : 9.0,
					"hidden" : 1,
					"patching_rect" : [ 190.0, 315.0, 51.0, 15.0 ]
				}

			}
, 			{
				"box" : 				{
					"maxclass" : "newobj",
					"text" : "p checkitems",
					"fontname" : "Arial",
					"numinlets" : 2,
					"id" : "obj-24",
					"numoutlets" : 3,
					"outlettype" : [ "", "int", "" ],
					"fontsize" : 9.0,
					"hidden" : 1,
					"patching_rect" : [ 190.0, 275.0, 68.0, 17.0 ],
					"patcher" : 					{
						"fileversion" : 1,
						"rect" : [ 10.0, 59.0, 385.0, 199.0 ],
						"bglocked" : 0,
						"defrect" : [ 10.0, 59.0, 385.0, 199.0 ],
						"openrect" : [ 0.0, 0.0, 0.0, 0.0 ],
						"openinpresentation" : 0,
						"default_fontsize" : 12.0,
						"default_fontface" : 0,
						"default_fontname" : "Arial",
						"gridonopen" : 0,
						"gridsize" : [ 15.0, 15.0 ],
						"gridsnaponopen" : 0,
						"toolbarvisible" : 1,
						"boxanimatetime" : 200,
						"imprint" : 0,
						"enablehscroll" : 1,
						"enablevscroll" : 1,
						"devicewidth" : 0.0,
						"boxes" : [ 							{
								"box" : 								{
									"maxclass" : "newobj",
									"text" : "prepend set",
									"fontname" : "Arial",
									"numinlets" : 1,
									"id" : "obj-1",
									"numoutlets" : 1,
									"outlettype" : [ "" ],
									"fontsize" : 9.0,
									"patching_rect" : [ 3.0, 74.0, 62.0, 17.0 ]
								}

							}
, 							{
								"box" : 								{
									"maxclass" : "outlet",
									"numinlets" : 1,
									"id" : "obj-2",
									"numoutlets" : 0,
									"patching_rect" : [ 2.0, 94.0, 15.0, 15.0 ],
									"comment" : ""
								}

							}
, 							{
								"box" : 								{
									"maxclass" : "newobj",
									"text" : "t i i",
									"fontname" : "Arial",
									"numinlets" : 1,
									"id" : "obj-3",
									"numoutlets" : 2,
									"outlettype" : [ "int", "int" ],
									"fontsize" : 9.0,
									"hidden" : 1,
									"patching_rect" : [ 50.0, 50.0, 27.0, 17.0 ]
								}

							}
, 							{
								"box" : 								{
									"maxclass" : "message",
									"text" : "clearchecks, checkitem $1 -1",
									"fontname" : "Arial",
									"numinlets" : 2,
									"id" : "obj-4",
									"numoutlets" : 1,
									"outlettype" : [ "" ],
									"fontsize" : 9.0,
									"hidden" : 1,
									"patching_rect" : [ 92.0, 51.0, 143.0, 15.0 ]
								}

							}
, 							{
								"box" : 								{
									"maxclass" : "inlet",
									"numinlets" : 0,
									"id" : "obj-5",
									"numoutlets" : 1,
									"outlettype" : [ "int" ],
									"patching_rect" : [ 50.0, 30.0, 15.0, 15.0 ],
									"comment" : ""
								}

							}
, 							{
								"box" : 								{
									"maxclass" : "inlet",
									"numinlets" : 0,
									"id" : "obj-6",
									"numoutlets" : 1,
									"outlettype" : [ "int" ],
									"patching_rect" : [ 92.0, 31.0, 15.0, 15.0 ],
									"comment" : ""
								}

							}
, 							{
								"box" : 								{
									"maxclass" : "outlet",
									"numinlets" : 1,
									"id" : "obj-7",
									"numoutlets" : 0,
									"patching_rect" : [ 92.0, 92.0, 15.0, 15.0 ],
									"comment" : ""
								}

							}
, 							{
								"box" : 								{
									"maxclass" : "outlet",
									"numinlets" : 1,
									"id" : "obj-8",
									"numoutlets" : 0,
									"patching_rect" : [ 50.0, 93.0, 15.0, 15.0 ],
									"comment" : ""
								}

							}
 ],
						"lines" : [ 							{
								"patchline" : 								{
									"source" : [ "obj-1", 0 ],
									"destination" : [ "obj-2", 0 ],
									"hidden" : 0,
									"midpoints" : [  ]
								}

							}
, 							{
								"patchline" : 								{
									"source" : [ "obj-3", 1 ],
									"destination" : [ "obj-1", 0 ],
									"hidden" : 0,
									"midpoints" : [ 67.5, 71.0, 12.5, 71.0 ]
								}

							}
, 							{
								"patchline" : 								{
									"source" : [ "obj-5", 0 ],
									"destination" : [ "obj-3", 0 ],
									"hidden" : 0,
									"midpoints" : [  ]
								}

							}
, 							{
								"patchline" : 								{
									"source" : [ "obj-3", 0 ],
									"destination" : [ "obj-8", 0 ],
									"hidden" : 0,
									"midpoints" : [  ]
								}

							}
, 							{
								"patchline" : 								{
									"source" : [ "obj-3", 1 ],
									"destination" : [ "obj-8", 0 ],
									"hidden" : 0,
									"midpoints" : [  ]
								}

							}
, 							{
								"patchline" : 								{
									"source" : [ "obj-6", 0 ],
									"destination" : [ "obj-4", 0 ],
									"hidden" : 0,
									"midpoints" : [  ]
								}

							}
, 							{
								"patchline" : 								{
									"source" : [ "obj-4", 0 ],
									"destination" : [ "obj-7", 0 ],
									"hidden" : 0,
									"midpoints" : [  ]
								}

							}
 ]
					}
,
					"saved_object_attributes" : 					{
						"fontname" : "Arial",
						"default_fontsize" : 12.0,
						"fontface" : 0,
						"fontsize" : 12.0,
						"globalpatchername" : "",
						"default_fontface" : 0,
						"default_fontname" : "Arial"
					}

				}

			}
, 			{
				"box" : 				{
					"maxclass" : "message",
					"text" : "1",
					"fontname" : "Arial",
					"numinlets" : 2,
					"id" : "obj-25",
					"numoutlets" : 1,
					"ignoreclick" : 1,
					"outlettype" : [ "" ],
					"fontsize" : 12.0,
					"patching_rect" : [ 188.0, 261.0, 23.0, 18.0 ]
				}

			}
, 			{
				"box" : 				{
					"maxclass" : "comment",
					"text" : "Toggle off + enter index + preset name to store preset",
					"linecount" : 2,
					"fontname" : "Arial",
					"numinlets" : 1,
					"id" : "obj-26",
					"numoutlets" : 0,
					"fontsize" : 9.0,
					"patching_rect" : [ 427.0, 236.0, 136.0, 27.0 ]
				}

			}
, 			{
				"box" : 				{
					"maxclass" : "umenu",
					"fontname" : "Arial",
					"textcolor" : [ 1.0, 1.0, 1.0, 1.0 ],
					"numinlets" : 1,
					"framecolor" : [ 0.015686, 0.015686, 0.015686, 1.0 ],
					"id" : "obj-27",
					"numoutlets" : 3,
					"bgcolor2" : [ 0.647059, 0.647059, 0.647059, 1.0 ],
					"discolor" : [ 0.647059, 0.647059, 0.647059, 1.0 ],
					"outlettype" : [ "int", "", "" ],
					"fontsize" : 12.0,
					"togcolor" : [ 0.552941, 0.552941, 0.552941, 1.0 ],
					"bgcolor" : [ 0.411765, 0.090196, 0.090196, 1.0 ],
					"textcolor2" : [ 1.0, 1.0, 1.0, 1.0 ],
					"types" : [  ],
					"patching_rect" : [ 215.0, 261.0, 121.0, 20.0 ],
					"items" : [ "(undefined)", ",", "bubble_1", ",", "bubble_2", ",", "bubble_3", ",", "bubble_4", ",", "bubble_5", ",", "bubble_6", ",", "bubble_7" ],
					"hltcolor" : [ 0.411765, 0.090196, 0.090196, 1.0 ]
				}

			}
, 			{
				"box" : 				{
					"maxclass" : "toggle",
					"numinlets" : 1,
					"id" : "obj-28",
					"numoutlets" : 1,
					"outlettype" : [ "int" ],
					"patching_rect" : [ 548.0, 260.0, 22.0, 22.0 ]
				}

			}
, 			{
				"box" : 				{
					"maxclass" : "message",
					"text" : "readonly $1",
					"fontname" : "Arial",
					"numinlets" : 2,
					"id" : "obj-29",
					"numoutlets" : 1,
					"outlettype" : [ "" ],
					"fontsize" : 9.0,
					"hidden" : 1,
					"patching_rect" : [ 478.0, 263.0, 62.0, 15.0 ]
				}

			}
, 			{
				"box" : 				{
					"maxclass" : "comment",
					"text" : "Enter index + bang to delete preset",
					"linecount" : 3,
					"fontname" : "Arial",
					"numinlets" : 1,
					"id" : "obj-30",
					"numoutlets" : 0,
					"fontsize" : 9.0,
					"patching_rect" : [ 346.0, 240.0, 65.0, 38.0 ]
				}

			}
, 			{
				"box" : 				{
					"maxclass" : "button",
					"numinlets" : 1,
					"fgcolor" : [ 0.6, 0.6, 1.0, 1.0 ],
					"id" : "obj-31",
					"numoutlets" : 1,
					"outlettype" : [ "bang" ],
					"patching_rect" : [ 395.0, 290.0, 19.0, 19.0 ]
				}

			}
, 			{
				"box" : 				{
					"maxclass" : "number",
					"fontname" : "Arial",
					"textcolor" : [ 1.0, 1.0, 1.0, 1.0 ],
					"numinlets" : 1,
					"triangle" : 0,
					"id" : "obj-32",
					"numoutlets" : 2,
					"outlettype" : [ "int", "bang" ],
					"fontsize" : 12.0,
					"triscale" : 0.9,
					"bgcolor" : [ 0.411765, 0.090196, 0.090196, 1.0 ],
					"patching_rect" : [ 351.0, 290.0, 45.0, 20.0 ],
					"htextcolor" : [ 0.870588, 0.870588, 0.870588, 1.0 ]
				}

			}
, 			{
				"box" : 				{
					"maxclass" : "comment",
					"text" : "<-- Drag number box to interpolate",
					"linecount" : 2,
					"fontname" : "Arial",
					"numinlets" : 1,
					"id" : "obj-33",
					"numoutlets" : 0,
					"fontsize" : 9.0,
					"patching_rect" : [ 241.0, 286.0, 87.0, 27.0 ]
				}

			}
, 			{
				"box" : 				{
					"maxclass" : "comment",
					"text" : "Scroll to recall preset",
					"fontname" : "Arial",
					"numinlets" : 1,
					"id" : "obj-34",
					"numoutlets" : 0,
					"fontsize" : 9.0,
					"patching_rect" : [ 224.0, 245.0, 112.0, 17.0 ]
				}

			}
, 			{
				"box" : 				{
					"maxclass" : "flonum",
					"fontname" : "Arial",
					"numinlets" : 1,
					"minimum" : 1.0,
					"id" : "obj-35",
					"numoutlets" : 2,
					"outlettype" : [ "float", "bang" ],
					"fontsize" : 12.0,
					"triscale" : 0.9,
					"patching_rect" : [ 190.0, 290.0, 47.0, 20.0 ],
					"htextcolor" : [ 0.870588, 0.870588, 0.870588, 1.0 ]
				}

			}
, 			{
				"box" : 				{
					"maxclass" : "umenu",
					"fontname" : "Arial",
					"numinlets" : 1,
					"id" : "obj-36",
					"numoutlets" : 3,
					"outlettype" : [ "int", "", "" ],
					"fontsize" : 10.0,
					"labelclick" : 1,
					"types" : [  ],
					"patching_rect" : [ 23.0, 237.0, 122.0, 18.0 ],
					"items" : [ "clientwindow", ",", "storagewindow", ",", "write" ]
				}

			}
, 			{
				"box" : 				{
					"maxclass" : "textedit",
					"fontname" : "Geneva",
					"numinlets" : 1,
					"readonly" : 1,
					"id" : "obj-37",
					"numoutlets" : 4,
					"outlettype" : [ "", "int", "", "" ],
					"fontsize" : 12.0,
					"keymode" : 1,
					"patching_rect" : [ 427.0, 260.0, 120.0, 22.0 ]
				}

			}
, 			{
				"box" : 				{
					"maxclass" : "comment",
					"text" : "Pattrstorage menu",
					"fontname" : "Arial",
					"numinlets" : 1,
					"id" : "obj-38",
					"numoutlets" : 0,
					"fontsize" : 12.0,
					"patching_rect" : [ 23.0, 221.0, 125.0, 20.0 ]
				}

			}
, 			{
				"box" : 				{
					"maxclass" : "panel",
					"rounded" : 3,
					"numinlets" : 1,
					"id" : "obj-39",
					"numoutlets" : 0,
					"bgcolor" : [ 0.890196, 0.870588, 1.0, 1.0 ],
					"border" : 1,
					"patching_rect" : [ 424.0, 220.0, 150.0, 100.0 ]
				}

			}
, 			{
				"box" : 				{
					"maxclass" : "comment",
					"text" : "Recall",
					"fontname" : "Arial Black",
					"numinlets" : 1,
					"id" : "obj-40",
					"numoutlets" : 0,
					"fontsize" : 9.0,
					"patching_rect" : [ 242.0, 221.0, 39.0, 19.0 ]
				}

			}
, 			{
				"box" : 				{
					"maxclass" : "panel",
					"rounded" : 3,
					"numinlets" : 1,
					"id" : "obj-41",
					"numoutlets" : 0,
					"bgcolor" : [ 0.890196, 0.870588, 1.0, 1.0 ],
					"border" : 1,
					"patching_rect" : [ 186.0, 220.0, 155.0, 100.0 ]
				}

			}
, 			{
				"box" : 				{
					"maxclass" : "comment",
					"text" : "Delete",
					"fontname" : "Arial Black",
					"numinlets" : 1,
					"id" : "obj-42",
					"numoutlets" : 0,
					"fontsize" : 9.0,
					"patching_rect" : [ 359.0, 221.0, 41.0, 19.0 ]
				}

			}
, 			{
				"box" : 				{
					"maxclass" : "panel",
					"rounded" : 3,
					"numinlets" : 1,
					"id" : "obj-43",
					"numoutlets" : 0,
					"bgcolor" : [ 0.890196, 0.870588, 1.0, 1.0 ],
					"border" : 1,
					"patching_rect" : [ 344.0, 220.0, 77.0, 100.0 ]
				}

			}
, 			{
				"box" : 				{
					"maxclass" : "panel",
					"rounded" : 0,
					"numinlets" : 1,
					"id" : "obj-44",
					"numoutlets" : 0,
					"bordercolor" : [ 0.745098, 0.745098, 0.745098, 1.0 ],
					"bgcolor" : [ 0.890196, 0.870588, 1.0, 1.0 ],
					"border" : 1,
					"patching_rect" : [ 2.0, 209.0, 585.0, 120.0 ]
				}

			}
, 			{
				"box" : 				{
					"maxclass" : "newobj",
					"text" : "poly~ bubble~ 16",
					"fontname" : "Arial",
					"numinlets" : 1,
					"id" : "obj-45",
					"numoutlets" : 2,
					"outlettype" : [ "signal", "" ],
					"fontsize" : 9.0,
					"hidden" : 1,
					"patching_rect" : [ -38.0, 459.0, 87.0, 17.0 ]
				}

			}
, 			{
				"box" : 				{
					"maxclass" : "newobj",
					"text" : "pack 0. 0. 0.",
					"fontname" : "Arial",
					"numinlets" : 3,
					"id" : "obj-46",
					"numoutlets" : 1,
					"outlettype" : [ "" ],
					"fontsize" : 9.0,
					"hidden" : 1,
					"patching_rect" : [ -38.0, 420.0, 147.0, 17.0 ]
				}

			}
, 			{
				"box" : 				{
					"maxclass" : "number",
					"fontname" : "Arial",
					"numinlets" : 1,
					"id" : "obj-47",
					"numoutlets" : 2,
					"outlettype" : [ "int", "bang" ],
					"fontsize" : 9.0,
					"triscale" : 0.9,
					"hidden" : 1,
					"bgcolor" : [ 0.866667, 0.866667, 0.866667, 1.0 ],
					"patching_rect" : [ -38.0, 403.0, 35.0, 17.0 ],
					"htextcolor" : [ 0.870588, 0.870588, 0.870588, 1.0 ]
				}

			}
, 			{
				"box" : 				{
					"maxclass" : "newobj",
					"text" : "counter 1 16",
					"fontname" : "Arial",
					"numinlets" : 5,
					"id" : "obj-48",
					"numoutlets" : 4,
					"outlettype" : [ "int", "", "", "int" ],
					"fontsize" : 9.0,
					"hidden" : 1,
					"patching_rect" : [ -38.0, 384.0, 68.0, 17.0 ]
				}

			}
, 			{
				"box" : 				{
					"maxclass" : "message",
					"text" : "target $1, $2 $3",
					"fontname" : "Arial",
					"numinlets" : 2,
					"id" : "obj-49",
					"numoutlets" : 1,
					"outlettype" : [ "" ],
					"fontsize" : 9.0,
					"hidden" : 1,
					"patching_rect" : [ -38.0, 440.0, 87.0, 15.0 ]
				}

			}
, 			{
				"box" : 				{
					"maxclass" : "button",
					"numinlets" : 1,
					"id" : "obj-50",
					"numoutlets" : 1,
					"outlettype" : [ "bang" ],
					"patching_rect" : [ 235.0, 97.0, 29.0, 29.0 ]
				}

			}
, 			{
				"box" : 				{
					"maxclass" : "bpatcher",
					"numinlets" : 0,
					"id" : "obj-51",
					"numoutlets" : 1,
					"name" : "01_onebub_temporal_control.maxpat",
					"args" : [  ],
					"outlettype" : [ "" ],
					"patching_rect" : [ 214.0, 22.0, 376.0, 118.0 ]
				}

			}
, 			{
				"box" : 				{
					"maxclass" : "bpatcher",
					"varname" : "00_onebub_params.mxb",
					"numinlets" : 2,
					"id" : "obj-52",
					"numoutlets" : 2,
					"name" : "00_onebub_params.maxpat",
					"args" : [  ],
					"outlettype" : [ "", "" ],
					"patching_rect" : [ 1.0, 21.0, 212.0, 188.0 ]
				}

			}
 ],
		"lines" : [ 			{
				"patchline" : 				{
					"source" : [ "obj-16", 0 ],
					"destination" : [ "obj-17", 0 ],
					"hidden" : 1,
					"midpoints" : [ 149.5, 288.0, 3.0, 288.0, 3.0, 222.0, -56.5, 222.0 ]
				}

			}
, 			{
				"patchline" : 				{
					"source" : [ "obj-18", 1 ],
					"destination" : [ "obj-15", 0 ],
					"hidden" : 1,
					"color" : [ 0.380392, 0.611765, 0.611765, 1.0 ],
					"midpoints" : [ 80.5, 290.0, -55.5, 290.0 ]
				}

			}
, 			{
				"patchline" : 				{
					"source" : [ "obj-15", 0 ],
					"destination" : [ "obj-4", 0 ],
					"hidden" : 0,
					"midpoints" : [  ]
				}

			}
, 			{
				"patchline" : 				{
					"source" : [ "obj-2", 0 ],
					"destination" : [ "obj-4", 0 ],
					"hidden" : 1,
					"midpoints" : [  ]
				}

			}
, 			{
				"patchline" : 				{
					"source" : [ "obj-4", 0 ],
					"destination" : [ "obj-3", 0 ],
					"hidden" : 0,
					"midpoints" : [  ]
				}

			}
, 			{
				"patchline" : 				{
					"source" : [ "obj-50", 0 ],
					"destination" : [ "obj-48", 0 ],
					"hidden" : 1,
					"midpoints" : [ 244.5, 161.0, -28.5, 161.0 ]
				}

			}
, 			{
				"patchline" : 				{
					"source" : [ "obj-48", 0 ],
					"destination" : [ "obj-47", 0 ],
					"hidden" : 1,
					"midpoints" : [  ]
				}

			}
, 			{
				"patchline" : 				{
					"source" : [ "obj-47", 0 ],
					"destination" : [ "obj-46", 0 ],
					"hidden" : 1,
					"midpoints" : [  ]
				}

			}
, 			{
				"patchline" : 				{
					"source" : [ "obj-46", 0 ],
					"destination" : [ "obj-49", 0 ],
					"hidden" : 1,
					"midpoints" : [  ]
				}

			}
, 			{
				"patchline" : 				{
					"source" : [ "obj-49", 0 ],
					"destination" : [ "obj-45", 0 ],
					"hidden" : 1,
					"midpoints" : [  ]
				}

			}
, 			{
				"patchline" : 				{
					"source" : [ "obj-45", 0 ],
					"destination" : [ "obj-10", 0 ],
					"hidden" : 1,
					"midpoints" : [  ]
				}

			}
, 			{
				"patchline" : 				{
					"source" : [ "obj-8", 0 ],
					"destination" : [ "obj-52", 0 ],
					"hidden" : 1,
					"midpoints" : [ 108.0, -10.0, 10.5, -10.0 ]
				}

			}
, 			{
				"patchline" : 				{
					"source" : [ "obj-17", 0 ],
					"destination" : [ "obj-18", 0 ],
					"hidden" : 1,
					"midpoints" : [ -56.5, 248.0, 28.5, 248.0 ]
				}

			}
, 			{
				"patchline" : 				{
					"source" : [ "obj-17", 1 ],
					"destination" : [ "obj-18", 0 ],
					"hidden" : 1,
					"midpoints" : [ -8.5, 248.0, 28.5, 248.0 ]
				}

			}
, 			{
				"patchline" : 				{
					"source" : [ "obj-5", 2 ],
					"destination" : [ "obj-1", 0 ],
					"hidden" : 1,
					"midpoints" : [ 163.833328, 290.0, 28.5, 290.0 ]
				}

			}
, 			{
				"patchline" : 				{
					"source" : [ "obj-36", 1 ],
					"destination" : [ "obj-1", 0 ],
					"hidden" : 1,
					"midpoints" : [ 84.0, 290.0, 28.5, 290.0 ]
				}

			}
, 			{
				"patchline" : 				{
					"source" : [ "obj-23", 0 ],
					"destination" : [ "obj-1", 0 ],
					"hidden" : 1,
					"color" : [ 0.380392, 0.611765, 0.611765, 1.0 ],
					"midpoints" : [ 199.5, 334.0, 4.0, 334.0, 4.0, 289.0, 28.5, 289.0 ]
				}

			}
, 			{
				"patchline" : 				{
					"source" : [ "obj-15", 0 ],
					"destination" : [ "obj-1", 0 ],
					"hidden" : 1,
					"color" : [ 0.380392, 0.611765, 0.611765, 1.0 ],
					"midpoints" : [ -55.5, 307.0, 4.0, 307.0, 4.0, 290.0, 28.5, 290.0 ]
				}

			}
, 			{
				"patchline" : 				{
					"source" : [ "obj-52", 0 ],
					"destination" : [ "obj-46", 1 ],
					"hidden" : 1,
					"color" : [ 1.0, 0.890196, 0.090196, 1.0 ],
					"midpoints" : [ 10.5, 371.0, 35.5, 371.0 ]
				}

			}
, 			{
				"patchline" : 				{
					"source" : [ "obj-52", 1 ],
					"destination" : [ "obj-46", 2 ],
					"hidden" : 1,
					"color" : [ 0.4, 0.4, 0.8, 1.0 ],
					"midpoints" : [ 203.5, 211.0, 5.0, 211.0, 5.0, 371.0, 99.5, 371.0 ]
				}

			}
, 			{
				"patchline" : 				{
					"source" : [ "obj-3", 0 ],
					"destination" : [ "obj-5", 0 ],
					"hidden" : 1,
					"midpoints" : [ -55.5, 355.0, -69.0, 355.0, -69.0, 276.0, 138.5, 276.0 ]
				}

			}
, 			{
				"patchline" : 				{
					"source" : [ "obj-37", 0 ],
					"destination" : [ "obj-5", 1 ],
					"hidden" : 1,
					"midpoints" : [ 436.5, 288.0, 421.0, 288.0, 421.0, 211.0, 151.166672, 211.0 ]
				}

			}
, 			{
				"patchline" : 				{
					"source" : [ "obj-1", 0 ],
					"destination" : [ "obj-5", 2 ],
					"hidden" : 1,
					"midpoints" : [ 28.5, 321.0, 187.0, 321.0, 187.0, 277.0, 163.833328, 277.0 ]
				}

			}
, 			{
				"patchline" : 				{
					"source" : [ "obj-31", 0 ],
					"destination" : [ "obj-5", 3 ],
					"hidden" : 1,
					"midpoints" : [ 404.5, 331.0, 340.0, 331.0, 340.0, 237.0, 176.5, 237.0 ]
				}

			}
, 			{
				"patchline" : 				{
					"source" : [ "obj-32", 0 ],
					"destination" : [ "obj-5", 3 ],
					"hidden" : 1,
					"midpoints" : [ 360.5, 331.0, 341.0, 331.0, 341.0, 237.0, 176.5, 237.0 ]
				}

			}
, 			{
				"patchline" : 				{
					"source" : [ "obj-19", 0 ],
					"destination" : [ "obj-25", 0 ],
					"hidden" : 1,
					"color" : [ 0.380392, 0.611765, 0.611765, 1.0 ],
					"midpoints" : [ 267.5, 338.0, 339.0, 338.0, 339.0, 256.0, 197.5, 256.0 ]
				}

			}
, 			{
				"patchline" : 				{
					"source" : [ "obj-24", 0 ],
					"destination" : [ "obj-25", 0 ],
					"hidden" : 1,
					"midpoints" : [  ]
				}

			}
, 			{
				"patchline" : 				{
					"source" : [ "obj-27", 0 ],
					"destination" : [ "obj-24", 0 ],
					"hidden" : 1,
					"midpoints" : [  ]
				}

			}
, 			{
				"patchline" : 				{
					"source" : [ "obj-6", 0 ],
					"destination" : [ "obj-35", 0 ],
					"hidden" : 1,
					"midpoints" : [ 155.0, -10.0, 199.5, -10.0 ]
				}

			}
, 			{
				"patchline" : 				{
					"source" : [ "obj-24", 1 ],
					"destination" : [ "obj-35", 0 ],
					"hidden" : 1,
					"midpoints" : [  ]
				}

			}
, 			{
				"patchline" : 				{
					"source" : [ "obj-35", 0 ],
					"destination" : [ "obj-23", 0 ],
					"hidden" : 1,
					"midpoints" : [ 199.5, 311.0, 199.5, 311.0 ]
				}

			}
, 			{
				"patchline" : 				{
					"source" : [ "obj-7", 0 ],
					"destination" : [ "obj-52", 1 ],
					"hidden" : 1,
					"midpoints" : [ 132.0, -10.0, 203.5, -10.0 ]
				}

			}
, 			{
				"patchline" : 				{
					"source" : [ "obj-19", 0 ],
					"destination" : [ "obj-27", 0 ],
					"hidden" : 1,
					"color" : [ 0.380392, 0.611765, 0.611765, 1.0 ],
					"midpoints" : [ 267.5, 338.0, 339.0, 338.0, 339.0, 256.0, 224.5, 256.0 ]
				}

			}
, 			{
				"patchline" : 				{
					"source" : [ "obj-24", 2 ],
					"destination" : [ "obj-27", 0 ],
					"hidden" : 1,
					"midpoints" : [  ]
				}

			}
, 			{
				"patchline" : 				{
					"source" : [ "obj-5", 3 ],
					"destination" : [ "obj-27", 0 ],
					"hidden" : 1,
					"color" : [ 1.0, 0.890196, 0.090196, 1.0 ],
					"midpoints" : [ 176.5, 346.0, 609.0, 346.0, 609.0, 212.0, 224.5, 212.0 ]
				}

			}
, 			{
				"patchline" : 				{
					"source" : [ "obj-9", 0 ],
					"destination" : [ "obj-50", 0 ],
					"hidden" : 1,
					"midpoints" : [ 85.0, -10.0, 244.5, -10.0 ]
				}

			}
, 			{
				"patchline" : 				{
					"source" : [ "obj-51", 0 ],
					"destination" : [ "obj-50", 0 ],
					"hidden" : 1,
					"midpoints" : [  ]
				}

			}
, 			{
				"patchline" : 				{
					"source" : [ "obj-27", 0 ],
					"destination" : [ "obj-24", 1 ],
					"hidden" : 1,
					"midpoints" : [  ]
				}

			}
, 			{
				"patchline" : 				{
					"source" : [ "obj-35", 0 ],
					"destination" : [ "obj-20", 0 ],
					"hidden" : 1,
					"color" : [ 0.380392, 0.611765, 0.611765, 1.0 ],
					"midpoints" : [ 199.5, 312.0, 245.0, 312.0, 245.0, 297.0, 267.5, 297.0 ]
				}

			}
, 			{
				"patchline" : 				{
					"source" : [ "obj-20", 0 ],
					"destination" : [ "obj-19", 0 ],
					"hidden" : 1,
					"color" : [ 0.380392, 0.611765, 0.611765, 1.0 ],
					"midpoints" : [  ]
				}

			}
, 			{
				"patchline" : 				{
					"source" : [ "obj-29", 0 ],
					"destination" : [ "obj-37", 0 ],
					"hidden" : 1,
					"midpoints" : [  ]
				}

			}
, 			{
				"patchline" : 				{
					"source" : [ "obj-5", 1 ],
					"destination" : [ "obj-37", 0 ],
					"hidden" : 1,
					"midpoints" : [ 151.166672, 345.0, 618.0, 345.0, 618.0, 209.0, 436.5, 209.0 ]
				}

			}
, 			{
				"patchline" : 				{
					"source" : [ "obj-28", 0 ],
					"destination" : [ "obj-29", 0 ],
					"hidden" : 1,
					"midpoints" : [  ]
				}

			}
, 			{
				"patchline" : 				{
					"source" : [ "obj-21", 0 ],
					"destination" : [ "obj-28", 0 ],
					"hidden" : 1,
					"midpoints" : [  ]
				}

			}
, 			{
				"patchline" : 				{
					"source" : [ "obj-5", 0 ],
					"destination" : [ "obj-28", 0 ],
					"hidden" : 1,
					"midpoints" : [ 138.5, 345.0, 618.0, 345.0, 618.0, 209.0, 557.5, 209.0 ]
				}

			}
, 			{
				"patchline" : 				{
					"source" : [ "obj-56", 0 ],
					"destination" : [ "obj-27", 0 ],
					"hidden" : 1,
					"midpoints" : [  ]
				}

			}
, 			{
				"patchline" : 				{
					"source" : [ "obj-53", 0 ],
					"destination" : [ "obj-56", 0 ],
					"hidden" : 1,
					"midpoints" : [  ]
				}

			}
 ],
		"parameters" : 		{

		}

	}

}
