#N canvas 303 372 120 265 10;
#X obj 0 219 *~;
#X obj 9 50 env~;
#X obj 9 26 lop~ 1;
#X msg 60 116 bang;
#X obj 9 73 moses 50;
#X obj 60 94 moses 51;
#X obj 0 246 dac~;
#X obj 0 0 noise~;
#X obj 60 158 line~;
#X obj 60 186 *~;
#X msg 60 137 1 \, 0 20;
#X connect 0 0 6 0;
#X connect 0 0 6 1;
#X connect 1 0 4 0;
#X connect 2 0 1 0;
#X connect 3 0 10 0;
#X connect 4 1 5 0;
#X connect 5 0 3 0;
#X connect 7 0 2 0;
#X connect 7 0 0 0;
#X connect 8 0 9 0;
#X connect 8 0 9 1;
#X connect 9 0 0 1;
#X connect 10 0 8 0;
