#N canvas 62 455 60 110 10;
#X obj 0 63 *~;
#X obj 15 21 noise~;
#X obj 0 92 dac~;
#X obj 0 0 noise~;
#X obj 15 42 lop~ 1;
#X connect 0 0 2 0;
#X connect 0 0 2 1;
#X connect 1 0 4 0;
#X connect 3 0 0 0;
#X connect 4 0 0 1;
