#N canvas 62 455 62 157 10;
#X obj 0 112 *~;
#X obj 15 21 noise~;
#X obj -1 139 dac~;
#X obj 0 0 noise~;
#X obj 15 42 lop~ 1;
#X obj 16 67 *~;
#X obj 16 89 *~ 300;
#X connect 0 0 2 0;
#X connect 0 0 2 1;
#X connect 1 0 4 0;
#X connect 3 0 0 0;
#X connect 4 0 5 0;
#X connect 4 0 5 1;
#X connect 5 0 6 0;
#X connect 6 0 0 1;
