#N canvas 62 455 121 199 10;
#X obj 58 152 *~;
#X obj 57 179 dac~;
#X obj 45 -1 noise~;
#X obj 75 29 lop~ 1;
#X obj 75 79 *~;
#X obj 0 30 hip~ 1000;
#X obj 75 105 *~;
#X obj 75 52 *~ 10;
#X obj 75 128 *~ 600;
#X connect 0 0 1 0;
#X connect 0 0 1 1;
#X connect 2 0 3 0;
#X connect 2 0 5 0;
#X connect 3 0 7 0;
#X connect 4 0 6 0;
#X connect 4 0 6 1;
#X connect 5 0 0 0;
#X connect 6 0 8 0;
#X connect 7 0 4 0;
#X connect 7 0 4 1;
#X connect 8 0 0 1;
