#N canvas 119 343 171 347 10;
#X obj 0 303 *~;
#X obj 53 52 env~;
#X obj 53 28 lop~ 1;
#X msg 104 118 bang;
#X obj 53 75 moses 50;
#X obj 104 96 moses 51;
#X obj 104 141 random 30;
#X obj 0 328 dac~;
#X obj 41 0 noise~;
#X obj 0 224 line~;
#X msg 0 203 1 \, 0 \$1;
#X obj 0 251 *~;
#X obj 73 223 + 1500;
#X obj 73 201 * 500;
#X obj 0 278 *~;
#X obj 104 163 t f f;
#X obj 41 247 bp~ 2000 1;
#X connect 0 0 7 0;
#X connect 0 0 7 1;
#X connect 1 0 4 0;
#X connect 2 0 1 0;
#X connect 3 0 6 0;
#X connect 4 1 5 0;
#X connect 5 0 3 0;
#X connect 6 0 15 0;
#X connect 8 0 2 0;
#X connect 8 0 16 0;
#X connect 9 0 11 0;
#X connect 9 0 11 1;
#X connect 10 0 9 0;
#X connect 11 0 14 0;
#X connect 11 0 14 1;
#X connect 12 0 16 1;
#X connect 13 0 12 0;
#X connect 14 0 0 0;
#X connect 15 0 10 0;
#X connect 15 1 13 0;
#X connect 16 0 0 1;
