{
	"patcher" : 	{
		"fileversion" : 1,
		"rect" : [ 335.0, 279.0, 414.0, 134.0 ],
		"bglocked" : 0,
		"defrect" : [ 335.0, 279.0, 414.0, 134.0 ],
		"openrect" : [ 0.0, 0.0, 0.0, 0.0 ],
		"openinpresentation" : 0,
		"default_fontsize" : 12.0,
		"default_fontface" : 0,
		"default_fontname" : "Arial",
		"gridonopen" : 0,
		"gridsize" : [ 15.0, 15.0 ],
		"gridsnaponopen" : 0,
		"toolbarvisible" : 0,
		"boxanimatetime" : 200,
		"imprint" : 0,
		"enablehscroll" : 1,
		"enablevscroll" : 1,
		"devicewidth" : 0.0,
		"title" : "OSC control ONEBUBBLE #1",
		"boxes" : [ 			{
				"box" : 				{
					"maxclass" : "newobj",
					"text" : "t b #1",
					"numinlets" : 1,
					"patching_rect" : [ 50.0, -60.0, 33.0, 17.0 ],
					"id" : "obj-87",
					"fontname" : "Arial",
					"numoutlets" : 2,
					"hidden" : 1,
					"outlettype" : [ "bang", "" ],
					"fontsize" : 9.0
				}

			}
, 			{
				"box" : 				{
					"maxclass" : "newobj",
					"text" : "s bbl_1oscontrol",
					"numinlets" : 1,
					"patching_rect" : [ 65.0, -42.0, 76.0, 17.0 ],
					"id" : "obj-85",
					"fontname" : "Arial",
					"numoutlets" : 0,
					"hidden" : 1,
					"fontsize" : 9.0
				}

			}
, 			{
				"box" : 				{
					"maxclass" : "newobj",
					"text" : "r bbl_closeall",
					"numinlets" : 0,
					"patching_rect" : [ 67.0, -81.0, 63.0, 17.0 ],
					"id" : "obj-54",
					"fontname" : "Arial",
					"numoutlets" : 1,
					"hidden" : 1,
					"outlettype" : [ "" ],
					"fontsize" : 9.0
				}

			}
, 			{
				"box" : 				{
					"maxclass" : "button",
					"numinlets" : 1,
					"patching_rect" : [ 21.0, 92.0, 19.0, 19.0 ],
					"id" : "obj-1",
					"numoutlets" : 1,
					"outlettype" : [ "bang" ]
				}

			}
, 			{
				"box" : 				{
					"maxclass" : "comment",
					"text" : "Preset Interpolation",
					"linecount" : 2,
					"numinlets" : 1,
					"patching_rect" : [ 63.0, 25.0, 63.0, 27.0 ],
					"id" : "obj-2",
					"fontname" : "Arial",
					"numoutlets" : 0,
					"fontsize" : 9.0
				}

			}
, 			{
				"box" : 				{
					"maxclass" : "flonum",
					"triscale" : 0.9,
					"htextcolor" : [ 0.870588, 0.870588, 0.870588, 1.0 ],
					"bgcolor" : [ 0.866667, 0.866667, 0.866667, 1.0 ],
					"numinlets" : 1,
					"patching_rect" : [ 192.0, 52.0, 51.0, 17.0 ],
					"id" : "obj-3",
					"fontname" : "Arial",
					"numoutlets" : 2,
					"outlettype" : [ "float", "bang" ],
					"minimum" : 0.0,
					"fontsize" : 9.0,
					"maximum" : 100.0
				}

			}
, 			{
				"box" : 				{
					"maxclass" : "flonum",
					"triscale" : 0.9,
					"htextcolor" : [ 0.870588, 0.870588, 0.870588, 1.0 ],
					"bgcolor" : [ 0.866667, 0.866667, 0.866667, 1.0 ],
					"numinlets" : 1,
					"patching_rect" : [ 131.0, 52.0, 51.0, 17.0 ],
					"id" : "obj-4",
					"fontname" : "Arial",
					"numoutlets" : 2,
					"outlettype" : [ "float", "bang" ],
					"minimum" : 0.0,
					"fontsize" : 9.0,
					"maximum" : 100.0
				}

			}
, 			{
				"box" : 				{
					"maxclass" : "flonum",
					"triscale" : 0.9,
					"htextcolor" : [ 0.870588, 0.870588, 0.870588, 1.0 ],
					"bgcolor" : [ 0.866667, 0.866667, 0.866667, 1.0 ],
					"numinlets" : 1,
					"patching_rect" : [ 69.0, 52.0, 51.0, 17.0 ],
					"id" : "obj-5",
					"fontname" : "Arial",
					"numoutlets" : 2,
					"outlettype" : [ "float", "bang" ],
					"minimum" : 0.0,
					"fontsize" : 9.0,
					"maximum" : 100.0
				}

			}
, 			{
				"box" : 				{
					"maxclass" : "flonum",
					"triscale" : 0.9,
					"htextcolor" : [ 0.870588, 0.870588, 0.870588, 1.0 ],
					"bgcolor" : [ 0.866667, 0.866667, 0.866667, 1.0 ],
					"numinlets" : 1,
					"patching_rect" : [ 7.0, 52.0, 51.0, 17.0 ],
					"id" : "obj-6",
					"fontname" : "Arial",
					"numoutlets" : 2,
					"outlettype" : [ "float", "bang" ],
					"minimum" : 0.0,
					"fontsize" : 9.0,
					"maximum" : 100.0
				}

			}
, 			{
				"box" : 				{
					"maxclass" : "newobj",
					"text" : "p readme",
					"numinlets" : 0,
					"patching_rect" : [ 192.0, 1.0, 51.0, 17.0 ],
					"id" : "obj-7",
					"fontname" : "Arial",
					"numoutlets" : 0,
					"fontsize" : 9.0,
					"patcher" : 					{
						"fileversion" : 1,
						"rect" : [ 308.0, 138.0, 426.0, 410.0 ],
						"bglocked" : 0,
						"defrect" : [ 308.0, 138.0, 426.0, 410.0 ],
						"openrect" : [ 0.0, 0.0, 0.0, 0.0 ],
						"openinpresentation" : 0,
						"default_fontsize" : 12.0,
						"default_fontface" : 0,
						"default_fontname" : "Arial",
						"gridonopen" : 0,
						"gridsize" : [ 15.0, 15.0 ],
						"gridsnaponopen" : 0,
						"toolbarvisible" : 1,
						"boxanimatetime" : 200,
						"imprint" : 0,
						"enablehscroll" : 1,
						"enablevscroll" : 1,
						"devicewidth" : 0.0,
						"boxes" : [ 							{
								"box" : 								{
									"maxclass" : "comment",
									"text" : "4) SET LOCAL PORT: set local port to listen for message on.",
									"numinlets" : 1,
									"patching_rect" : [ 24.0, 136.0, 300.0, 18.0 ],
									"id" : "obj-1",
									"fontname" : "Arial",
									"numoutlets" : 0,
									"fontsize" : 10.0
								}

							}
, 							{
								"box" : 								{
									"maxclass" : "comment",
									"text" : "5) BANG (open OSC route set up): click on bang to access, choose and modify OSC routing set up. (IMPORTANT: incoming OSC messages must be scaled to 0. - 100. floating)",
									"linecount" : 3,
									"numinlets" : 1,
									"patching_rect" : [ 24.0, 158.0, 373.0, 41.0 ],
									"id" : "obj-2",
									"fontname" : "Arial",
									"numoutlets" : 0,
									"fontsize" : 10.0
								}

							}
, 							{
								"box" : 								{
									"maxclass" : "comment",
									"text" : "5.2) PARAMETERS BOXES: click on the boxes to open, choose and modify the correspondent control mapping.",
									"linecount" : 2,
									"numinlets" : 1,
									"patching_rect" : [ 50.0, 295.0, 351.0, 29.0 ],
									"id" : "obj-3",
									"fontname" : "Arial",
									"numoutlets" : 0,
									"fontsize" : 10.0
								}

							}
, 							{
								"box" : 								{
									"maxclass" : "comment",
									"text" : "5.1) MATRIX: control input/output routing (default 1:1 routing). Many-to-one mapping is not allowed.",
									"linecount" : 2,
									"numinlets" : 1,
									"patching_rect" : [ 50.0, 262.0, 351.0, 29.0 ],
									"id" : "obj-4",
									"fontname" : "Arial",
									"numoutlets" : 0,
									"fontsize" : 10.0
								}

							}
, 							{
								"box" : 								{
									"maxclass" : "comment",
									"text" : "5) OPEN/CLOSE MAPPING SET UP: click on the box to access the mapping set up",
									"linecount" : 2,
									"numinlets" : 1,
									"patching_rect" : [ 24.0, 227.0, 378.0, 29.0 ],
									"id" : "obj-5",
									"fontname" : "Arial",
									"numoutlets" : 0,
									"fontsize" : 10.0
								}

							}
, 							{
								"box" : 								{
									"maxclass" : "comment",
									"text" : "4) CLOSE WINDOW: click on the box to close the current OSC control patch",
									"numinlets" : 1,
									"patching_rect" : [ 24.0, 204.0, 377.0, 18.0 ],
									"id" : "obj-6",
									"fontname" : "Arial",
									"numoutlets" : 0,
									"fontsize" : 10.0
								}

							}
, 							{
								"box" : 								{
									"maxclass" : "comment",
									"text" : "3) BOXES: incoming values are displayed in the corresponding ranges of the high-level interface.",
									"linecount" : 2,
									"numinlets" : 1,
									"patching_rect" : [ 24.0, 102.0, 378.0, 29.0 ],
									"id" : "obj-7",
									"fontname" : "Arial",
									"numoutlets" : 0,
									"fontsize" : 10.0
								}

							}
, 							{
								"box" : 								{
									"maxclass" : "comment",
									"text" : "2) NUMBER BOXES: incoming values are displayed in MIDI range.",
									"numinlets" : 1,
									"patching_rect" : [ 24.0, 80.0, 348.0, 18.0 ],
									"id" : "obj-8",
									"fontname" : "Arial",
									"numoutlets" : 0,
									"fontsize" : 10.0
								}

							}
, 							{
								"box" : 								{
									"maxclass" : "comment",
									"text" : "1) The available controls correspond to the parameters of the high-level interface of the sound models.",
									"linecount" : 2,
									"numinlets" : 1,
									"patching_rect" : [ 24.0, 45.0, 380.0, 29.0 ],
									"id" : "obj-9",
									"fontname" : "Arial",
									"numoutlets" : 0,
									"fontsize" : 10.0
								}

							}
, 							{
								"box" : 								{
									"maxclass" : "panel",
									"bgcolor" : [ 0.752941, 0.717647, 0.960784, 1.0 ],
									"numinlets" : 1,
									"patching_rect" : [ 24.0, 158.0, 168.0, 13.0 ],
									"id" : "obj-10",
									"rounded" : 0,
									"numoutlets" : 0
								}

							}
, 							{
								"box" : 								{
									"maxclass" : "panel",
									"bgcolor" : [ 0.752941, 0.717647, 0.960784, 1.0 ],
									"numinlets" : 1,
									"patching_rect" : [ 24.0, 136.0, 103.0, 13.0 ],
									"id" : "obj-11",
									"rounded" : 0,
									"numoutlets" : 0
								}

							}
, 							{
								"box" : 								{
									"maxclass" : "panel",
									"bgcolor" : [ 0.752941, 0.717647, 0.960784, 1.0 ],
									"numinlets" : 1,
									"patching_rect" : [ 24.0, 45.0, 17.0, 13.0 ],
									"id" : "obj-12",
									"rounded" : 0,
									"numoutlets" : 0
								}

							}
, 							{
								"box" : 								{
									"maxclass" : "panel",
									"bgcolor" : [ 0.752941, 0.717647, 0.960784, 1.0 ],
									"numinlets" : 1,
									"patching_rect" : [ 24.0, 80.0, 100.0, 13.0 ],
									"id" : "obj-13",
									"rounded" : 0,
									"numoutlets" : 0
								}

							}
, 							{
								"box" : 								{
									"maxclass" : "panel",
									"bgcolor" : [ 0.752941, 0.717647, 0.960784, 1.0 ],
									"numinlets" : 1,
									"patching_rect" : [ 24.0, 102.0, 55.0, 13.0 ],
									"id" : "obj-14",
									"rounded" : 0,
									"numoutlets" : 0
								}

							}
, 							{
								"box" : 								{
									"maxclass" : "panel",
									"bgcolor" : [ 0.752941, 0.717647, 0.960784, 1.0 ],
									"numinlets" : 1,
									"patching_rect" : [ 24.0, 204.0, 100.0, 13.0 ],
									"id" : "obj-15",
									"rounded" : 0,
									"numoutlets" : 0
								}

							}
, 							{
								"box" : 								{
									"maxclass" : "panel",
									"bgcolor" : [ 0.752941, 0.717647, 0.960784, 1.0 ],
									"numinlets" : 1,
									"patching_rect" : [ 24.0, 227.0, 172.0, 13.0 ],
									"id" : "obj-16",
									"rounded" : 0,
									"numoutlets" : 0
								}

							}
, 							{
								"box" : 								{
									"maxclass" : "comment",
									"text" : "OSC control Onebubble N:",
									"numinlets" : 1,
									"patching_rect" : [ 23.0, 10.0, 214.0, 23.0 ],
									"id" : "obj-17",
									"fontname" : "Arial Black",
									"numoutlets" : 0,
									"fontsize" : 12.0
								}

							}
, 							{
								"box" : 								{
									"maxclass" : "panel",
									"bgcolor" : [ 0.752941, 0.717647, 0.960784, 1.0 ],
									"numinlets" : 1,
									"patching_rect" : [ 50.0, 262.0, 71.0, 13.0 ],
									"id" : "obj-18",
									"rounded" : 0,
									"numoutlets" : 0
								}

							}
, 							{
								"box" : 								{
									"maxclass" : "panel",
									"bgcolor" : [ 0.752941, 0.717647, 0.960784, 1.0 ],
									"numinlets" : 1,
									"patching_rect" : [ 50.0, 295.0, 132.0, 13.0 ],
									"id" : "obj-19",
									"rounded" : 0,
									"numoutlets" : 0
								}

							}
, 							{
								"box" : 								{
									"maxclass" : "panel",
									"bgcolor" : [ 0.67451, 0.945098, 0.611765, 1.0 ],
									"numinlets" : 1,
									"patching_rect" : [ 50.0, 276.0, 188.0, 13.0 ],
									"id" : "obj-20",
									"rounded" : 0,
									"numoutlets" : 0
								}

							}
 ],
						"lines" : [  ]
					}
,
					"saved_object_attributes" : 					{
						"default_fontface" : 0,
						"default_fontname" : "Arial",
						"fontname" : "Arial",
						"default_fontsize" : 12.0,
						"globalpatchername" : "",
						"fontface" : 0,
						"fontsize" : 12.0
					}

				}

			}
, 			{
				"box" : 				{
					"maxclass" : "newobj",
					"text" : "t open",
					"numinlets" : 1,
					"patching_rect" : [ 339.0, 140.0, 37.0, 17.0 ],
					"id" : "obj-8",
					"fontname" : "Arial",
					"numoutlets" : 1,
					"hidden" : 1,
					"outlettype" : [ "open" ],
					"fontsize" : 9.0
				}

			}
, 			{
				"box" : 				{
					"maxclass" : "button",
					"numinlets" : 1,
					"patching_rect" : [ 363.0, 93.0, 15.0, 15.0 ],
					"id" : "obj-9",
					"numoutlets" : 1,
					"outlettype" : [ "bang" ]
				}

			}
, 			{
				"box" : 				{
					"maxclass" : "comment",
					"text" : "Open OSC route setup",
					"numinlets" : 1,
					"patching_rect" : [ 263.0, 95.0, 108.0, 17.0 ],
					"id" : "obj-10",
					"fontname" : "Arial",
					"numoutlets" : 0,
					"fontsize" : 9.0
				}

			}
, 			{
				"box" : 				{
					"maxclass" : "message",
					"text" : "Preset Interpolate",
					"bgcolor" : [ 0.6, 0.4, 0.6, 1.0 ],
					"numinlets" : 2,
					"patching_rect" : [ 498.0, 57.0, 92.0, 15.0 ],
					"id" : "obj-11",
					"fontname" : "Arial",
					"numoutlets" : 1,
					"outlettype" : [ "" ],
					"fontsize" : 9.0
				}

			}
, 			{
				"box" : 				{
					"maxclass" : "message",
					"text" : "Bang to drop",
					"bgcolor" : [ 0.8, 0.611765, 0.380392, 1.0 ],
					"numinlets" : 2,
					"patching_rect" : [ 498.0, 40.0, 92.0, 15.0 ],
					"id" : "obj-12",
					"fontname" : "Arial",
					"numoutlets" : 1,
					"outlettype" : [ "" ],
					"fontsize" : 9.0
				}

			}
, 			{
				"box" : 				{
					"maxclass" : "comment",
					"text" : "Bang to drop",
					"linecount" : 2,
					"numinlets" : 1,
					"patching_rect" : [ 7.0, 25.0, 43.0, 27.0 ],
					"id" : "obj-13",
					"fontname" : "Arial",
					"numoutlets" : 0,
					"fontsize" : 9.0
				}

			}
, 			{
				"box" : 				{
					"maxclass" : "panel",
					"bgcolor" : [ 0.745098, 0.901961, 0.65098, 1.0 ],
					"numinlets" : 1,
					"patching_rect" : [ 1.0, 20.0, 60.0, 110.0 ],
					"id" : "obj-14",
					"rounded" : 0,
					"numoutlets" : 0,
					"bordercolor" : [ 1.0, 1.0, 1.0, 1.0 ]
				}

			}
, 			{
				"box" : 				{
					"maxclass" : "message",
					"text" : "2.61",
					"numinlets" : 2,
					"patching_rect" : [ 69.0, 95.0, 50.0, 15.0 ],
					"id" : "obj-15",
					"fontname" : "Arial",
					"numoutlets" : 1,
					"outlettype" : [ "" ],
					"fontsize" : 9.0
				}

			}
, 			{
				"box" : 				{
					"maxclass" : "comment",
					"text" : "Bubble radius",
					"numinlets" : 1,
					"patching_rect" : [ 130.0, 25.0, 76.0, 17.0 ],
					"id" : "obj-16",
					"fontname" : "Arial",
					"numoutlets" : 0,
					"fontsize" : 9.0
				}

			}
, 			{
				"box" : 				{
					"maxclass" : "panel",
					"bgcolor" : [ 0.745098, 0.901961, 0.65098, 1.0 ],
					"numinlets" : 1,
					"patching_rect" : [ 63.0, 20.0, 60.0, 110.0 ],
					"id" : "obj-17",
					"rounded" : 0,
					"numoutlets" : 0,
					"bordercolor" : [ 1.0, 1.0, 1.0, 1.0 ]
				}

			}
, 			{
				"box" : 				{
					"maxclass" : "message",
					"text" : "window flags close, window flags grow, window exec",
					"linecount" : 2,
					"numinlets" : 2,
					"patching_rect" : [ 342.0, 69.0, 146.0, 25.0 ],
					"id" : "obj-18",
					"fontname" : "Arial",
					"numoutlets" : 1,
					"hidden" : 1,
					"outlettype" : [ "" ],
					"fontsize" : 9.0
				}

			}
, 			{
				"box" : 				{
					"maxclass" : "newobj",
					"text" : "pcontrol",
					"numinlets" : 1,
					"patching_rect" : [ 339.0, 159.0, 47.0, 17.0 ],
					"id" : "obj-19",
					"fontname" : "Arial",
					"numoutlets" : 1,
					"hidden" : 1,
					"outlettype" : [ "" ],
					"fontsize" : 9.0
				}

			}
, 			{
				"box" : 				{
					"maxclass" : "newobj",
					"text" : "onebubble_OSC_route_setup #1",
					"color" : [ 0.760784, 0.709804, 0.811765, 1.0 ],
					"numinlets" : 1,
					"patching_rect" : [ 252.0, 109.0, 153.0, 17.0 ],
					"id" : "obj-20",
					"fontname" : "Arial",
					"numoutlets" : 4,
					"outlettype" : [ "float", "float", "float", "float" ],
					"fontsize" : 9.0
				}

			}
, 			{
				"box" : 				{
					"maxclass" : "message",
					"text" : "window flags noclose, window flags nogrow, window exec",
					"linecount" : 2,
					"numinlets" : 2,
					"patching_rect" : [ 341.0, 31.0, 143.0, 25.0 ],
					"id" : "obj-21",
					"fontname" : "Arial",
					"numoutlets" : 1,
					"hidden" : 1,
					"outlettype" : [ "" ],
					"fontsize" : 9.0
				}

			}
, 			{
				"box" : 				{
					"maxclass" : "button",
					"numinlets" : 1,
					"patching_rect" : [ 378.0, -16.0, 15.0, 15.0 ],
					"id" : "obj-22",
					"numoutlets" : 1,
					"hidden" : 1,
					"outlettype" : [ "bang" ]
				}

			}
, 			{
				"box" : 				{
					"maxclass" : "toggle",
					"numinlets" : 1,
					"patching_rect" : [ 379.0, 2.0, 15.0, 15.0 ],
					"id" : "obj-23",
					"numoutlets" : 1,
					"outlettype" : [ "int" ]
				}

			}
, 			{
				"box" : 				{
					"maxclass" : "message",
					"text" : "open/close mapping set up",
					"numinlets" : 2,
					"patching_rect" : [ 249.0, 2.0, 131.0, 15.0 ],
					"id" : "obj-24",
					"fontname" : "Arial",
					"numoutlets" : 1,
					"outlettype" : [ "" ],
					"fontsize" : 9.0
				}

			}
, 			{
				"box" : 				{
					"maxclass" : "message",
					"text" : "0 0 1 1 1 1 2 2 1 3 3 1",
					"numinlets" : 2,
					"patching_rect" : [ 413.0, -40.0, 115.0, 15.0 ],
					"id" : "obj-25",
					"fontname" : "Arial",
					"numoutlets" : 1,
					"hidden" : 1,
					"outlettype" : [ "" ],
					"fontsize" : 9.0
				}

			}
, 			{
				"box" : 				{
					"maxclass" : "message",
					"text" : "dispose, clean",
					"numinlets" : 2,
					"patching_rect" : [ 50.0, -27.0, 73.0, 15.0 ],
					"id" : "obj-26",
					"fontname" : "Arial",
					"numoutlets" : 1,
					"hidden" : 1,
					"outlettype" : [ "" ],
					"fontsize" : 9.0
				}

			}
, 			{
				"box" : 				{
					"maxclass" : "button",
					"numinlets" : 1,
					"patching_rect" : [ 50.0, -81.0, 15.0, 15.0 ],
					"id" : "obj-27",
					"numoutlets" : 1,
					"hidden" : 1,
					"outlettype" : [ "bang" ]
				}

			}
, 			{
				"box" : 				{
					"maxclass" : "message",
					"text" : "close window",
					"numinlets" : 2,
					"patching_rect" : [ 2.0, 2.0, 70.0, 15.0 ],
					"id" : "obj-28",
					"fontname" : "Arial",
					"numoutlets" : 1,
					"outlettype" : [ "" ],
					"fontsize" : 9.0
				}

			}
, 			{
				"box" : 				{
					"maxclass" : "newobj",
					"text" : "p resize_window",
					"numinlets" : 2,
					"patching_rect" : [ 490.0, 129.0, 86.0, 17.0 ],
					"id" : "obj-29",
					"fontname" : "Arial",
					"numoutlets" : 2,
					"hidden" : 1,
					"outlettype" : [ "", "" ],
					"fontsize" : 9.0,
					"patcher" : 					{
						"fileversion" : 1,
						"rect" : [ 10.0, 59.0, 600.0, 426.0 ],
						"bglocked" : 0,
						"defrect" : [ 10.0, 59.0, 600.0, 426.0 ],
						"openrect" : [ 0.0, 0.0, 0.0, 0.0 ],
						"openinpresentation" : 0,
						"default_fontsize" : 12.0,
						"default_fontface" : 0,
						"default_fontname" : "Arial",
						"gridonopen" : 0,
						"gridsize" : [ 15.0, 15.0 ],
						"gridsnaponopen" : 0,
						"toolbarvisible" : 1,
						"boxanimatetime" : 200,
						"imprint" : 0,
						"enablehscroll" : 1,
						"enablevscroll" : 1,
						"devicewidth" : 0.0,
						"boxes" : [ 							{
								"box" : 								{
									"maxclass" : "newobj",
									"text" : "pack s s",
									"numinlets" : 2,
									"patching_rect" : [ 275.0, 153.0, 51.0, 17.0 ],
									"id" : "obj-1",
									"fontname" : "Arial",
									"numoutlets" : 1,
									"outlettype" : [ "" ],
									"fontsize" : 9.0
								}

							}
, 							{
								"box" : 								{
									"maxclass" : "message",
									"text" : "window size $1 $2 $3 $4, window exec",
									"numinlets" : 2,
									"patching_rect" : [ 160.0, 320.0, 190.0, 15.0 ],
									"id" : "obj-2",
									"fontname" : "Arial",
									"numoutlets" : 1,
									"outlettype" : [ "" ],
									"fontsize" : 9.0
								}

							}
, 							{
								"box" : 								{
									"maxclass" : "newobj",
									"text" : "pack 0 0 0 0",
									"numinlets" : 4,
									"patching_rect" : [ 160.0, 301.0, 78.0, 17.0 ],
									"id" : "obj-3",
									"fontname" : "Arial",
									"numoutlets" : 1,
									"outlettype" : [ "" ],
									"fontsize" : 9.0
								}

							}
, 							{
								"box" : 								{
									"maxclass" : "newobj",
									"text" : "+ 1",
									"numinlets" : 2,
									"patching_rect" : [ 274.0, 109.0, 27.0, 17.0 ],
									"id" : "obj-4",
									"fontname" : "Arial",
									"numoutlets" : 1,
									"outlettype" : [ "int" ],
									"fontsize" : 9.0
								}

							}
, 							{
								"box" : 								{
									"maxclass" : "newobj",
									"text" : "+ 1",
									"numinlets" : 2,
									"patching_rect" : [ 245.0, 109.0, 27.0, 17.0 ],
									"id" : "obj-5",
									"fontname" : "Arial",
									"numoutlets" : 1,
									"outlettype" : [ "int" ],
									"fontsize" : 9.0
								}

							}
, 							{
								"box" : 								{
									"maxclass" : "newobj",
									"text" : "gate 2",
									"numinlets" : 2,
									"patching_rect" : [ 160.0, 211.0, 54.0, 17.0 ],
									"id" : "obj-6",
									"fontname" : "Arial",
									"numoutlets" : 2,
									"outlettype" : [ "", "" ],
									"fontsize" : 9.0
								}

							}
, 							{
								"box" : 								{
									"maxclass" : "newobj",
									"text" : "+ 180",
									"numinlets" : 2,
									"patching_rect" : [ 204.0, 231.0, 37.0, 17.0 ],
									"id" : "obj-7",
									"fontname" : "Arial",
									"numoutlets" : 1,
									"outlettype" : [ "int" ],
									"fontsize" : 9.0
								}

							}
, 							{
								"box" : 								{
									"maxclass" : "gswitch2",
									"numinlets" : 2,
									"patching_rect" : [ 245.0, 74.0, 39.0, 32.0 ],
									"id" : "obj-8",
									"numoutlets" : 2,
									"outlettype" : [ "", "" ]
								}

							}
, 							{
								"box" : 								{
									"maxclass" : "newobj",
									"text" : "route window",
									"numinlets" : 1,
									"patching_rect" : [ 160.0, 124.0, 71.0, 17.0 ],
									"id" : "obj-9",
									"fontname" : "Arial",
									"numoutlets" : 2,
									"outlettype" : [ "", "" ],
									"fontsize" : 9.0
								}

							}
, 							{
								"box" : 								{
									"maxclass" : "newobj",
									"text" : "unpack 0 0 0 0",
									"numinlets" : 1,
									"patching_rect" : [ 160.0, 166.0, 76.0, 17.0 ],
									"id" : "obj-10",
									"fontname" : "Arial",
									"numoutlets" : 4,
									"outlettype" : [ "int", "int", "int", "int" ],
									"fontsize" : 9.0
								}

							}
, 							{
								"box" : 								{
									"maxclass" : "newobj",
									"text" : "route size",
									"numinlets" : 1,
									"patching_rect" : [ 160.0, 146.0, 55.0, 17.0 ],
									"id" : "obj-11",
									"fontname" : "Arial",
									"numoutlets" : 2,
									"outlettype" : [ "", "" ],
									"fontsize" : 9.0
								}

							}
, 							{
								"box" : 								{
									"maxclass" : "newobj",
									"text" : "t window getsize i",
									"numinlets" : 1,
									"patching_rect" : [ 274.0, 133.0, 92.0, 17.0 ],
									"id" : "obj-12",
									"fontname" : "Arial",
									"numoutlets" : 3,
									"outlettype" : [ "window", "", "int" ],
									"fontsize" : 9.0
								}

							}
, 							{
								"box" : 								{
									"maxclass" : "inlet",
									"numinlets" : 0,
									"patching_rect" : [ 264.0, 44.0, 15.0, 15.0 ],
									"id" : "obj-13",
									"numoutlets" : 1,
									"outlettype" : [ "int" ],
									"comment" : ""
								}

							}
, 							{
								"box" : 								{
									"maxclass" : "inlet",
									"numinlets" : 0,
									"patching_rect" : [ 160.0, 46.0, 15.0, 15.0 ],
									"id" : "obj-14",
									"numoutlets" : 1,
									"outlettype" : [ "" ],
									"comment" : ""
								}

							}
, 							{
								"box" : 								{
									"maxclass" : "outlet",
									"numinlets" : 1,
									"patching_rect" : [ 160.0, 340.0, 15.0, 15.0 ],
									"id" : "obj-15",
									"numoutlets" : 0,
									"comment" : ""
								}

							}
, 							{
								"box" : 								{
									"maxclass" : "outlet",
									"numinlets" : 1,
									"patching_rect" : [ 275.0, 346.0, 15.0, 15.0 ],
									"id" : "obj-16",
									"numoutlets" : 0,
									"comment" : ""
								}

							}
, 							{
								"box" : 								{
									"maxclass" : "newobj",
									"text" : "- 180",
									"numinlets" : 2,
									"patching_rect" : [ 160.0, 231.0, 36.0, 17.0 ],
									"id" : "obj-17",
									"fontname" : "Arial",
									"numoutlets" : 1,
									"outlettype" : [ "int" ],
									"fontsize" : 9.0
								}

							}
 ],
						"lines" : [ 							{
								"patchline" : 								{
									"source" : [ "obj-12", 1 ],
									"destination" : [ "obj-1", 1 ],
									"hidden" : 0,
									"midpoints" : [  ]
								}

							}
, 							{
								"patchline" : 								{
									"source" : [ "obj-1", 0 ],
									"destination" : [ "obj-16", 0 ],
									"hidden" : 0,
									"midpoints" : [  ]
								}

							}
, 							{
								"patchline" : 								{
									"source" : [ "obj-12", 0 ],
									"destination" : [ "obj-1", 0 ],
									"hidden" : 0,
									"midpoints" : [  ]
								}

							}
, 							{
								"patchline" : 								{
									"source" : [ "obj-5", 0 ],
									"destination" : [ "obj-12", 0 ],
									"hidden" : 0,
									"midpoints" : [  ]
								}

							}
, 							{
								"patchline" : 								{
									"source" : [ "obj-4", 0 ],
									"destination" : [ "obj-12", 0 ],
									"hidden" : 0,
									"midpoints" : [  ]
								}

							}
, 							{
								"patchline" : 								{
									"source" : [ "obj-8", 1 ],
									"destination" : [ "obj-4", 0 ],
									"hidden" : 0,
									"midpoints" : [  ]
								}

							}
, 							{
								"patchline" : 								{
									"source" : [ "obj-13", 0 ],
									"destination" : [ "obj-8", 1 ],
									"hidden" : 0,
									"midpoints" : [  ]
								}

							}
, 							{
								"patchline" : 								{
									"source" : [ "obj-8", 0 ],
									"destination" : [ "obj-5", 0 ],
									"hidden" : 0,
									"midpoints" : [  ]
								}

							}
, 							{
								"patchline" : 								{
									"source" : [ "obj-13", 0 ],
									"destination" : [ "obj-8", 0 ],
									"hidden" : 0,
									"midpoints" : [  ]
								}

							}
, 							{
								"patchline" : 								{
									"source" : [ "obj-10", 3 ],
									"destination" : [ "obj-3", 3 ],
									"hidden" : 0,
									"midpoints" : [  ]
								}

							}
, 							{
								"patchline" : 								{
									"source" : [ "obj-17", 0 ],
									"destination" : [ "obj-3", 2 ],
									"hidden" : 0,
									"midpoints" : [ 169.5, 266.0, 208.833328, 266.0 ]
								}

							}
, 							{
								"patchline" : 								{
									"source" : [ "obj-7", 0 ],
									"destination" : [ "obj-3", 2 ],
									"hidden" : 0,
									"midpoints" : [  ]
								}

							}
, 							{
								"patchline" : 								{
									"source" : [ "obj-6", 1 ],
									"destination" : [ "obj-7", 0 ],
									"hidden" : 0,
									"midpoints" : [  ]
								}

							}
, 							{
								"patchline" : 								{
									"source" : [ "obj-10", 2 ],
									"destination" : [ "obj-6", 1 ],
									"hidden" : 0,
									"midpoints" : [  ]
								}

							}
, 							{
								"patchline" : 								{
									"source" : [ "obj-10", 1 ],
									"destination" : [ "obj-3", 1 ],
									"hidden" : 0,
									"midpoints" : [  ]
								}

							}
, 							{
								"patchline" : 								{
									"source" : [ "obj-2", 0 ],
									"destination" : [ "obj-15", 0 ],
									"hidden" : 0,
									"midpoints" : [  ]
								}

							}
, 							{
								"patchline" : 								{
									"source" : [ "obj-3", 0 ],
									"destination" : [ "obj-2", 0 ],
									"hidden" : 0,
									"midpoints" : [  ]
								}

							}
, 							{
								"patchline" : 								{
									"source" : [ "obj-10", 0 ],
									"destination" : [ "obj-3", 0 ],
									"hidden" : 0,
									"midpoints" : [  ]
								}

							}
, 							{
								"patchline" : 								{
									"source" : [ "obj-6", 0 ],
									"destination" : [ "obj-17", 0 ],
									"hidden" : 0,
									"midpoints" : [  ]
								}

							}
, 							{
								"patchline" : 								{
									"source" : [ "obj-12", 2 ],
									"destination" : [ "obj-6", 0 ],
									"hidden" : 0,
									"midpoints" : [ 356.5, 195.0, 169.5, 195.0 ]
								}

							}
, 							{
								"patchline" : 								{
									"source" : [ "obj-11", 0 ],
									"destination" : [ "obj-10", 0 ],
									"hidden" : 0,
									"midpoints" : [  ]
								}

							}
, 							{
								"patchline" : 								{
									"source" : [ "obj-9", 0 ],
									"destination" : [ "obj-11", 0 ],
									"hidden" : 0,
									"midpoints" : [  ]
								}

							}
, 							{
								"patchline" : 								{
									"source" : [ "obj-14", 0 ],
									"destination" : [ "obj-9", 0 ],
									"hidden" : 0,
									"midpoints" : [  ]
								}

							}
 ]
					}
,
					"saved_object_attributes" : 					{
						"default_fontface" : 0,
						"default_fontname" : "Arial",
						"fontname" : "Arial",
						"default_fontsize" : 12.0,
						"globalpatchername" : "",
						"fontface" : 0,
						"fontsize" : 12.0
					}

				}

			}
, 			{
				"box" : 				{
					"maxclass" : "newobj",
					"text" : "loadbang",
					"numinlets" : 1,
					"patching_rect" : [ 470.0, -82.0, 48.0, 17.0 ],
					"id" : "obj-30",
					"fontname" : "Arial",
					"numoutlets" : 1,
					"hidden" : 1,
					"outlettype" : [ "bang" ],
					"fontsize" : 9.0
				}

			}
, 			{
				"box" : 				{
					"maxclass" : "message",
					"text" : "title OSC control ONEBUBBLE #1",
					"numinlets" : 2,
					"patching_rect" : [ 441.0, -21.0, 146.0, 15.0 ],
					"id" : "obj-31",
					"fontname" : "Arial",
					"numoutlets" : 1,
					"hidden" : 1,
					"outlettype" : [ "" ],
					"fontsize" : 9.0
				}

			}
, 			{
				"box" : 				{
					"maxclass" : "newobj",
					"text" : "thispatcher",
					"numinlets" : 1,
					"patching_rect" : [ 426.0, 129.0, 61.0, 17.0 ],
					"id" : "obj-32",
					"fontname" : "Arial",
					"numoutlets" : 2,
					"hidden" : 1,
					"outlettype" : [ "", "" ],
					"fontsize" : 9.0,
					"save" : [ "#N", "thispatcher", ";", "#Q", "end", ";" ]
				}

			}
, 			{
				"box" : 				{
					"maxclass" : "comment",
					"text" : "mapping setup",
					"numinlets" : 1,
					"patching_rect" : [ 454.0, 1.0, 90.0, 19.0 ],
					"id" : "obj-33",
					"fontname" : "Arial Black",
					"numoutlets" : 0,
					"fontsize" : 9.0
				}

			}
, 			{
				"box" : 				{
					"maxclass" : "newobj",
					"text" : "p mapping_patches",
					"numinlets" : 8,
					"patching_rect" : [ 21.0, 198.0, 106.0, 17.0 ],
					"id" : "obj-34",
					"fontname" : "Arial",
					"numoutlets" : 4,
					"hidden" : 1,
					"outlettype" : [ "bang", "float", "float", "float" ],
					"fontsize" : 9.0,
					"patcher" : 					{
						"fileversion" : 1,
						"rect" : [ 82.0, 525.0, 481.0, 178.0 ],
						"bglocked" : 0,
						"defrect" : [ 82.0, 525.0, 481.0, 178.0 ],
						"openrect" : [ 0.0, 0.0, 0.0, 0.0 ],
						"openinpresentation" : 0,
						"default_fontsize" : 12.0,
						"default_fontface" : 0,
						"default_fontname" : "Arial",
						"gridonopen" : 0,
						"gridsize" : [ 15.0, 15.0 ],
						"gridsnaponopen" : 0,
						"toolbarvisible" : 1,
						"boxanimatetime" : 200,
						"imprint" : 0,
						"enablehscroll" : 1,
						"enablevscroll" : 1,
						"devicewidth" : 0.0,
						"boxes" : [ 							{
								"box" : 								{
									"maxclass" : "newobj",
									"text" : "t open",
									"numinlets" : 1,
									"patching_rect" : [ 179.0, 51.0, 37.0, 17.0 ],
									"id" : "obj-1",
									"fontname" : "Arial",
									"numoutlets" : 1,
									"outlettype" : [ "open" ],
									"fontsize" : 9.0
								}

							}
, 							{
								"box" : 								{
									"maxclass" : "newobj",
									"text" : "pcontrol",
									"numinlets" : 1,
									"patching_rect" : [ 130.0, 51.0, 47.0, 17.0 ],
									"id" : "obj-2",
									"fontname" : "Arial",
									"numoutlets" : 1,
									"outlettype" : [ "" ],
									"fontsize" : 9.0
								}

							}
, 							{
								"box" : 								{
									"maxclass" : "newobj",
									"text" : "t open",
									"numinlets" : 1,
									"patching_rect" : [ 58.0, 51.0, 37.0, 17.0 ],
									"id" : "obj-3",
									"fontname" : "Arial",
									"numoutlets" : 1,
									"outlettype" : [ "open" ],
									"fontsize" : 9.0
								}

							}
, 							{
								"box" : 								{
									"maxclass" : "newobj",
									"text" : "pcontrol",
									"numinlets" : 1,
									"patching_rect" : [ 9.0, 51.0, 47.0, 17.0 ],
									"id" : "obj-4",
									"fontname" : "Arial",
									"numoutlets" : 1,
									"outlettype" : [ "" ],
									"fontsize" : 9.0
								}

							}
, 							{
								"box" : 								{
									"maxclass" : "newobj",
									"text" : "onebubble_preset_interpol #1",
									"numinlets" : 1,
									"patching_rect" : [ 115.0, 71.0, 145.0, 17.0 ],
									"id" : "obj-5",
									"fontname" : "Arial",
									"numoutlets" : 1,
									"outlettype" : [ "float" ],
									"fontsize" : 9.0
								}

							}
, 							{
								"box" : 								{
									"maxclass" : "newobj",
									"text" : "onebubble_bang #1",
									"numinlets" : 1,
									"patching_rect" : [ 1.0, 71.0, 95.0, 17.0 ],
									"id" : "obj-6",
									"fontname" : "Arial",
									"numoutlets" : 1,
									"outlettype" : [ "bang" ],
									"fontsize" : 9.0
								}

							}
, 							{
								"box" : 								{
									"maxclass" : "inlet",
									"numinlets" : 0,
									"patching_rect" : [ 1.0, 31.0, 15.0, 15.0 ],
									"id" : "obj-7",
									"numoutlets" : 1,
									"outlettype" : [ "" ],
									"comment" : ""
								}

							}
, 							{
								"box" : 								{
									"maxclass" : "inlet",
									"numinlets" : 0,
									"patching_rect" : [ 179.0, 31.0, 15.0, 15.0 ],
									"id" : "obj-8",
									"numoutlets" : 1,
									"outlettype" : [ "" ],
									"comment" : ""
								}

							}
, 							{
								"box" : 								{
									"maxclass" : "inlet",
									"numinlets" : 0,
									"patching_rect" : [ 115.0, 31.0, 15.0, 15.0 ],
									"id" : "obj-9",
									"numoutlets" : 1,
									"outlettype" : [ "" ],
									"comment" : ""
								}

							}
, 							{
								"box" : 								{
									"maxclass" : "inlet",
									"numinlets" : 0,
									"patching_rect" : [ 58.0, 31.0, 15.0, 15.0 ],
									"id" : "obj-10",
									"numoutlets" : 1,
									"outlettype" : [ "" ],
									"comment" : ""
								}

							}
, 							{
								"box" : 								{
									"maxclass" : "outlet",
									"numinlets" : 1,
									"patching_rect" : [ 1.0, 93.0, 15.0, 15.0 ],
									"id" : "obj-11",
									"numoutlets" : 0,
									"comment" : ""
								}

							}
, 							{
								"box" : 								{
									"maxclass" : "outlet",
									"numinlets" : 1,
									"patching_rect" : [ 115.0, 93.0, 15.0, 15.0 ],
									"id" : "obj-12",
									"numoutlets" : 0,
									"comment" : ""
								}

							}
, 							{
								"box" : 								{
									"maxclass" : "newobj",
									"text" : "t open",
									"numinlets" : 1,
									"patching_rect" : [ 402.0, 51.0, 37.0, 17.0 ],
									"id" : "obj-13",
									"fontname" : "Arial",
									"numoutlets" : 1,
									"outlettype" : [ "open" ],
									"fontsize" : 9.0
								}

							}
, 							{
								"box" : 								{
									"maxclass" : "newobj",
									"text" : "pcontrol",
									"numinlets" : 1,
									"patching_rect" : [ 353.0, 51.0, 47.0, 17.0 ],
									"id" : "obj-14",
									"fontname" : "Arial",
									"numoutlets" : 1,
									"outlettype" : [ "" ],
									"fontsize" : 9.0
								}

							}
, 							{
								"box" : 								{
									"maxclass" : "newobj",
									"text" : "t open",
									"numinlets" : 1,
									"patching_rect" : [ 281.0, 51.0, 37.0, 17.0 ],
									"id" : "obj-15",
									"fontname" : "Arial",
									"numoutlets" : 1,
									"outlettype" : [ "open" ],
									"fontsize" : 9.0
								}

							}
, 							{
								"box" : 								{
									"maxclass" : "newobj",
									"text" : "pcontrol",
									"numinlets" : 1,
									"patching_rect" : [ 232.0, 51.0, 47.0, 17.0 ],
									"id" : "obj-16",
									"fontname" : "Arial",
									"numoutlets" : 1,
									"outlettype" : [ "" ],
									"fontsize" : 9.0
								}

							}
, 							{
								"box" : 								{
									"maxclass" : "newobj",
									"text" : "onebubble_slope #1",
									"numinlets" : 1,
									"patching_rect" : [ 338.0, 71.0, 98.0, 17.0 ],
									"id" : "obj-17",
									"fontname" : "Arial",
									"numoutlets" : 1,
									"outlettype" : [ "float" ],
									"fontsize" : 9.0
								}

							}
, 							{
								"box" : 								{
									"maxclass" : "newobj",
									"text" : "onebubble_radiusmap #1",
									"numinlets" : 1,
									"patching_rect" : [ 224.0, 71.0, 121.0, 17.0 ],
									"id" : "obj-18",
									"fontname" : "Arial",
									"numoutlets" : 1,
									"outlettype" : [ "float" ],
									"fontsize" : 9.0
								}

							}
, 							{
								"box" : 								{
									"maxclass" : "inlet",
									"numinlets" : 0,
									"patching_rect" : [ 224.0, 31.0, 15.0, 15.0 ],
									"id" : "obj-19",
									"numoutlets" : 1,
									"outlettype" : [ "" ],
									"comment" : ""
								}

							}
, 							{
								"box" : 								{
									"maxclass" : "inlet",
									"numinlets" : 0,
									"patching_rect" : [ 402.0, 31.0, 15.0, 15.0 ],
									"id" : "obj-20",
									"numoutlets" : 1,
									"outlettype" : [ "" ],
									"comment" : ""
								}

							}
, 							{
								"box" : 								{
									"maxclass" : "inlet",
									"numinlets" : 0,
									"patching_rect" : [ 338.0, 31.0, 15.0, 15.0 ],
									"id" : "obj-21",
									"numoutlets" : 1,
									"outlettype" : [ "" ],
									"comment" : ""
								}

							}
, 							{
								"box" : 								{
									"maxclass" : "inlet",
									"numinlets" : 0,
									"patching_rect" : [ 281.0, 31.0, 15.0, 15.0 ],
									"id" : "obj-22",
									"numoutlets" : 1,
									"outlettype" : [ "" ],
									"comment" : ""
								}

							}
, 							{
								"box" : 								{
									"maxclass" : "outlet",
									"numinlets" : 1,
									"patching_rect" : [ 224.0, 93.0, 15.0, 15.0 ],
									"id" : "obj-23",
									"numoutlets" : 0,
									"comment" : ""
								}

							}
, 							{
								"box" : 								{
									"maxclass" : "outlet",
									"numinlets" : 1,
									"patching_rect" : [ 338.0, 93.0, 15.0, 15.0 ],
									"id" : "obj-24",
									"numoutlets" : 0,
									"comment" : ""
								}

							}
 ],
						"lines" : [ 							{
								"patchline" : 								{
									"source" : [ "obj-20", 0 ],
									"destination" : [ "obj-13", 0 ],
									"hidden" : 0,
									"midpoints" : [  ]
								}

							}
, 							{
								"patchline" : 								{
									"source" : [ "obj-13", 0 ],
									"destination" : [ "obj-14", 0 ],
									"hidden" : 0,
									"midpoints" : [  ]
								}

							}
, 							{
								"patchline" : 								{
									"source" : [ "obj-17", 0 ],
									"destination" : [ "obj-24", 0 ],
									"hidden" : 0,
									"midpoints" : [  ]
								}

							}
, 							{
								"patchline" : 								{
									"source" : [ "obj-21", 0 ],
									"destination" : [ "obj-17", 0 ],
									"hidden" : 0,
									"midpoints" : [  ]
								}

							}
, 							{
								"patchline" : 								{
									"source" : [ "obj-14", 0 ],
									"destination" : [ "obj-17", 0 ],
									"hidden" : 0,
									"midpoints" : [  ]
								}

							}
, 							{
								"patchline" : 								{
									"source" : [ "obj-22", 0 ],
									"destination" : [ "obj-15", 0 ],
									"hidden" : 0,
									"midpoints" : [  ]
								}

							}
, 							{
								"patchline" : 								{
									"source" : [ "obj-15", 0 ],
									"destination" : [ "obj-16", 0 ],
									"hidden" : 0,
									"midpoints" : [  ]
								}

							}
, 							{
								"patchline" : 								{
									"source" : [ "obj-18", 0 ],
									"destination" : [ "obj-23", 0 ],
									"hidden" : 0,
									"midpoints" : [  ]
								}

							}
, 							{
								"patchline" : 								{
									"source" : [ "obj-16", 0 ],
									"destination" : [ "obj-18", 0 ],
									"hidden" : 0,
									"midpoints" : [  ]
								}

							}
, 							{
								"patchline" : 								{
									"source" : [ "obj-19", 0 ],
									"destination" : [ "obj-18", 0 ],
									"hidden" : 0,
									"midpoints" : [  ]
								}

							}
, 							{
								"patchline" : 								{
									"source" : [ "obj-8", 0 ],
									"destination" : [ "obj-1", 0 ],
									"hidden" : 0,
									"midpoints" : [  ]
								}

							}
, 							{
								"patchline" : 								{
									"source" : [ "obj-1", 0 ],
									"destination" : [ "obj-2", 0 ],
									"hidden" : 0,
									"midpoints" : [  ]
								}

							}
, 							{
								"patchline" : 								{
									"source" : [ "obj-5", 0 ],
									"destination" : [ "obj-12", 0 ],
									"hidden" : 0,
									"midpoints" : [  ]
								}

							}
, 							{
								"patchline" : 								{
									"source" : [ "obj-2", 0 ],
									"destination" : [ "obj-5", 0 ],
									"hidden" : 0,
									"midpoints" : [  ]
								}

							}
, 							{
								"patchline" : 								{
									"source" : [ "obj-9", 0 ],
									"destination" : [ "obj-5", 0 ],
									"hidden" : 0,
									"midpoints" : [  ]
								}

							}
, 							{
								"patchline" : 								{
									"source" : [ "obj-10", 0 ],
									"destination" : [ "obj-3", 0 ],
									"hidden" : 0,
									"midpoints" : [  ]
								}

							}
, 							{
								"patchline" : 								{
									"source" : [ "obj-3", 0 ],
									"destination" : [ "obj-4", 0 ],
									"hidden" : 0,
									"midpoints" : [  ]
								}

							}
, 							{
								"patchline" : 								{
									"source" : [ "obj-6", 0 ],
									"destination" : [ "obj-11", 0 ],
									"hidden" : 0,
									"midpoints" : [  ]
								}

							}
, 							{
								"patchline" : 								{
									"source" : [ "obj-4", 0 ],
									"destination" : [ "obj-6", 0 ],
									"hidden" : 0,
									"midpoints" : [  ]
								}

							}
, 							{
								"patchline" : 								{
									"source" : [ "obj-7", 0 ],
									"destination" : [ "obj-6", 0 ],
									"hidden" : 0,
									"midpoints" : [  ]
								}

							}
 ]
					}
,
					"saved_object_attributes" : 					{
						"default_fontface" : 0,
						"default_fontname" : "Arial",
						"fontname" : "Arial",
						"default_fontsize" : 12.0,
						"globalpatchername" : "",
						"fontface" : 0,
						"fontsize" : 12.0
					}

				}

			}
, 			{
				"box" : 				{
					"maxclass" : "comment",
					"text" : "Click on boxes to change mapping",
					"linecount" : 2,
					"numinlets" : 1,
					"patching_rect" : [ 498.0, 16.0, 86.0, 27.0 ],
					"id" : "obj-35",
					"fontname" : "Arial",
					"numoutlets" : 0,
					"fontsize" : 9.0
				}

			}
, 			{
				"box" : 				{
					"maxclass" : "message",
					"text" : "Blasting slope",
					"bgcolor" : [ 0.4, 0.4, 0.8, 1.0 ],
					"numinlets" : 2,
					"patching_rect" : [ 498.0, 91.0, 92.0, 15.0 ],
					"id" : "obj-36",
					"fontname" : "Arial",
					"numoutlets" : 1,
					"outlettype" : [ "" ],
					"fontsize" : 9.0
				}

			}
, 			{
				"box" : 				{
					"maxclass" : "message",
					"text" : "Bubble radius",
					"bgcolor" : [ 1.0, 0.890196, 0.090196, 1.0 ],
					"numinlets" : 2,
					"patching_rect" : [ 498.0, 74.0, 92.0, 15.0 ],
					"id" : "obj-37",
					"fontname" : "Arial",
					"numoutlets" : 1,
					"outlettype" : [ "" ],
					"fontsize" : 9.0
				}

			}
, 			{
				"box" : 				{
					"maxclass" : "newobj",
					"text" : "router 4 4",
					"numinlets" : 5,
					"patching_rect" : [ 21.0, 168.0, 106.0, 17.0 ],
					"id" : "obj-38",
					"fontname" : "Arial",
					"numoutlets" : 5,
					"hidden" : 1,
					"outlettype" : [ "", "", "", "", "" ],
					"fontsize" : 9.0
				}

			}
, 			{
				"box" : 				{
					"maxclass" : "comment",
					"text" : "Input",
					"numinlets" : 1,
					"patching_rect" : [ 442.0, 24.0, 29.0, 17.0 ],
					"id" : "obj-39",
					"fontname" : "Arial",
					"numoutlets" : 0,
					"fontsize" : 9.0
				}

			}
, 			{
				"box" : 				{
					"maxclass" : "newobj",
					"text" : "p send_param",
					"numinlets" : 4,
					"patching_rect" : [ 21.0, 220.0, 105.0, 17.0 ],
					"id" : "obj-40",
					"fontname" : "Arial",
					"numoutlets" : 4,
					"hidden" : 1,
					"outlettype" : [ "bang", "", "", "" ],
					"fontsize" : 9.0,
					"patcher" : 					{
						"fileversion" : 1,
						"rect" : [ 611.0, 93.0, 656.0, 385.0 ],
						"bglocked" : 0,
						"defrect" : [ 611.0, 93.0, 656.0, 385.0 ],
						"openrect" : [ 0.0, 0.0, 0.0, 0.0 ],
						"openinpresentation" : 0,
						"default_fontsize" : 12.0,
						"default_fontface" : 0,
						"default_fontname" : "Arial",
						"gridonopen" : 0,
						"gridsize" : [ 15.0, 15.0 ],
						"gridsnaponopen" : 0,
						"toolbarvisible" : 1,
						"boxanimatetime" : 200,
						"imprint" : 0,
						"enablehscroll" : 1,
						"enablevscroll" : 1,
						"devicewidth" : 0.0,
						"boxes" : [ 							{
								"box" : 								{
									"maxclass" : "newobj",
									"text" : "prepend set",
									"color" : [ 0.6, 0.4, 0.6, 1.0 ],
									"numinlets" : 1,
									"patching_rect" : [ 153.0, 170.0, 62.0, 17.0 ],
									"id" : "obj-1",
									"fontname" : "Arial",
									"numoutlets" : 1,
									"outlettype" : [ "" ],
									"fontsize" : 9.0
								}

							}
, 							{
								"box" : 								{
									"maxclass" : "newobj",
									"text" : "s #1onebubble_presetinterpolation",
									"color" : [ 0.6, 0.4, 0.6, 1.0 ],
									"numinlets" : 1,
									"patching_rect" : [ 183.0, 217.0, 166.0, 17.0 ],
									"id" : "obj-2",
									"fontname" : "Arial",
									"numoutlets" : 0,
									"fontsize" : 9.0
								}

							}
, 							{
								"box" : 								{
									"maxclass" : "newobj",
									"text" : "s #1onebubble_bang",
									"color" : [ 0.8, 0.611765, 0.380392, 1.0 ],
									"numinlets" : 1,
									"patching_rect" : [ 67.0, 217.0, 100.0, 17.0 ],
									"id" : "obj-3",
									"fontname" : "Arial",
									"numoutlets" : 0,
									"fontsize" : 9.0
								}

							}
, 							{
								"box" : 								{
									"maxclass" : "newobj",
									"text" : "prepend set",
									"color" : [ 0.4, 0.4, 0.8, 1.0 ],
									"numinlets" : 1,
									"patching_rect" : [ 474.0, 170.0, 62.0, 17.0 ],
									"id" : "obj-4",
									"fontname" : "Arial",
									"numoutlets" : 1,
									"outlettype" : [ "" ],
									"fontsize" : 9.0
								}

							}
, 							{
								"box" : 								{
									"maxclass" : "newobj",
									"text" : "prepend set",
									"color" : [ 1.0, 0.890196, 0.090196, 1.0 ],
									"numinlets" : 1,
									"patching_rect" : [ 343.0, 170.0, 62.0, 17.0 ],
									"id" : "obj-5",
									"fontname" : "Arial",
									"numoutlets" : 1,
									"outlettype" : [ "" ],
									"fontsize" : 9.0
								}

							}
, 							{
								"box" : 								{
									"maxclass" : "newobj",
									"text" : "s #1onebubble_slope",
									"color" : [ 0.4, 0.4, 0.8, 1.0 ],
									"numinlets" : 1,
									"patching_rect" : [ 497.0, 217.0, 103.0, 17.0 ],
									"id" : "obj-6",
									"fontname" : "Arial",
									"numoutlets" : 0,
									"fontsize" : 9.0
								}

							}
, 							{
								"box" : 								{
									"maxclass" : "newobj",
									"text" : "s #1onebubble_radius",
									"color" : [ 1.0, 0.890196, 0.090196, 1.0 ],
									"numinlets" : 1,
									"patching_rect" : [ 372.0, 217.0, 108.0, 17.0 ],
									"id" : "obj-7",
									"fontname" : "Arial",
									"numoutlets" : 0,
									"fontsize" : 9.0
								}

							}
, 							{
								"box" : 								{
									"maxclass" : "outlet",
									"numinlets" : 1,
									"patching_rect" : [ 24.0, 275.0, 15.0, 15.0 ],
									"id" : "obj-8",
									"numoutlets" : 0,
									"comment" : ""
								}

							}
, 							{
								"box" : 								{
									"maxclass" : "outlet",
									"numinlets" : 1,
									"patching_rect" : [ 153.0, 275.0, 15.0, 15.0 ],
									"id" : "obj-9",
									"numoutlets" : 0,
									"comment" : ""
								}

							}
, 							{
								"box" : 								{
									"maxclass" : "inlet",
									"numinlets" : 0,
									"patching_rect" : [ 183.0, 52.0, 15.0, 15.0 ],
									"id" : "obj-10",
									"numoutlets" : 1,
									"outlettype" : [ "float" ],
									"comment" : ""
								}

							}
, 							{
								"box" : 								{
									"maxclass" : "inlet",
									"numinlets" : 0,
									"patching_rect" : [ 67.0, 52.0, 15.0, 15.0 ],
									"id" : "obj-11",
									"numoutlets" : 1,
									"outlettype" : [ "bang" ],
									"comment" : ""
								}

							}
, 							{
								"box" : 								{
									"maxclass" : "outlet",
									"numinlets" : 1,
									"patching_rect" : [ 474.0, 275.0, 15.0, 15.0 ],
									"id" : "obj-12",
									"numoutlets" : 0,
									"comment" : ""
								}

							}
, 							{
								"box" : 								{
									"maxclass" : "outlet",
									"numinlets" : 1,
									"patching_rect" : [ 343.0, 275.0, 15.0, 15.0 ],
									"id" : "obj-13",
									"numoutlets" : 0,
									"comment" : ""
								}

							}
, 							{
								"box" : 								{
									"maxclass" : "inlet",
									"numinlets" : 0,
									"patching_rect" : [ 497.0, 52.0, 15.0, 15.0 ],
									"id" : "obj-14",
									"numoutlets" : 1,
									"outlettype" : [ "float" ],
									"comment" : ""
								}

							}
, 							{
								"box" : 								{
									"maxclass" : "inlet",
									"numinlets" : 0,
									"patching_rect" : [ 372.0, 52.0, 15.0, 15.0 ],
									"id" : "obj-15",
									"numoutlets" : 1,
									"outlettype" : [ "float" ],
									"comment" : ""
								}

							}
 ],
						"lines" : [ 							{
								"patchline" : 								{
									"source" : [ "obj-14", 0 ],
									"destination" : [ "obj-6", 0 ],
									"hidden" : 0,
									"color" : [ 0.4, 0.4, 0.8, 1.0 ],
									"midpoints" : [  ]
								}

							}
, 							{
								"patchline" : 								{
									"source" : [ "obj-4", 0 ],
									"destination" : [ "obj-12", 0 ],
									"hidden" : 0,
									"color" : [ 0.4, 0.4, 0.8, 1.0 ],
									"midpoints" : [  ]
								}

							}
, 							{
								"patchline" : 								{
									"source" : [ "obj-14", 0 ],
									"destination" : [ "obj-4", 0 ],
									"hidden" : 0,
									"color" : [ 0.4, 0.4, 0.8, 1.0 ],
									"midpoints" : [ 506.0, 115.0, 483.5, 115.0 ]
								}

							}
, 							{
								"patchline" : 								{
									"source" : [ "obj-15", 0 ],
									"destination" : [ "obj-7", 0 ],
									"hidden" : 0,
									"midpoints" : [  ]
								}

							}
, 							{
								"patchline" : 								{
									"source" : [ "obj-5", 0 ],
									"destination" : [ "obj-13", 0 ],
									"hidden" : 0,
									"midpoints" : [  ]
								}

							}
, 							{
								"patchline" : 								{
									"source" : [ "obj-15", 0 ],
									"destination" : [ "obj-5", 0 ],
									"hidden" : 0,
									"midpoints" : [ 381.0, 115.0, 352.5, 115.0 ]
								}

							}
, 							{
								"patchline" : 								{
									"source" : [ "obj-10", 0 ],
									"destination" : [ "obj-2", 0 ],
									"hidden" : 0,
									"color" : [ 0.6, 0.4, 0.6, 1.0 ],
									"midpoints" : [  ]
								}

							}
, 							{
								"patchline" : 								{
									"source" : [ "obj-1", 0 ],
									"destination" : [ "obj-9", 0 ],
									"hidden" : 0,
									"color" : [ 0.6, 0.4, 0.6, 1.0 ],
									"midpoints" : [  ]
								}

							}
, 							{
								"patchline" : 								{
									"source" : [ "obj-10", 0 ],
									"destination" : [ "obj-1", 0 ],
									"hidden" : 0,
									"color" : [ 0.6, 0.4, 0.6, 1.0 ],
									"midpoints" : [ 192.0, 93.0, 162.5, 93.0 ]
								}

							}
, 							{
								"patchline" : 								{
									"source" : [ "obj-11", 0 ],
									"destination" : [ "obj-3", 0 ],
									"hidden" : 0,
									"midpoints" : [  ]
								}

							}
, 							{
								"patchline" : 								{
									"source" : [ "obj-11", 0 ],
									"destination" : [ "obj-8", 0 ],
									"hidden" : 0,
									"midpoints" : [ 76.0, 103.0, 33.0, 103.0 ]
								}

							}
 ]
					}
,
					"saved_object_attributes" : 					{
						"default_fontface" : 0,
						"default_fontname" : "Arial",
						"fontname" : "Arial",
						"default_fontsize" : 12.0,
						"globalpatchername" : "",
						"fontface" : 0,
						"fontsize" : 12.0
					}

				}

			}
, 			{
				"box" : 				{
					"maxclass" : "newobj",
					"text" : "opensoundcontrol",
					"numinlets" : 1,
					"patching_rect" : [ 256.0, 76.0, 84.0, 17.0 ],
					"id" : "obj-41",
					"fontname" : "Arial",
					"numoutlets" : 3,
					"outlettype" : [ "", "", "OSCTimeTag" ],
					"fontsize" : 9.0
				}

			}
, 			{
				"box" : 				{
					"maxclass" : "newobj",
					"text" : "p sethost",
					"numinlets" : 1,
					"patching_rect" : [ 253.0, 40.0, 51.0, 17.0 ],
					"id" : "obj-42",
					"fontname" : "Arial",
					"numoutlets" : 1,
					"hidden" : 1,
					"outlettype" : [ "" ],
					"fontsize" : 9.0,
					"patcher" : 					{
						"fileversion" : 1,
						"rect" : [ 20.0, 74.0, 177.0, 164.0 ],
						"bglocked" : 0,
						"defrect" : [ 20.0, 74.0, 177.0, 164.0 ],
						"openrect" : [ 0.0, 0.0, 0.0, 0.0 ],
						"openinpresentation" : 0,
						"default_fontsize" : 12.0,
						"default_fontface" : 0,
						"default_fontname" : "Arial",
						"gridonopen" : 0,
						"gridsize" : [ 15.0, 15.0 ],
						"gridsnaponopen" : 0,
						"toolbarvisible" : 1,
						"boxanimatetime" : 200,
						"imprint" : 0,
						"enablehscroll" : 1,
						"enablevscroll" : 1,
						"devicewidth" : 0.0,
						"boxes" : [ 							{
								"box" : 								{
									"maxclass" : "newobj",
									"text" : "prepend port",
									"numinlets" : 1,
									"patching_rect" : [ 50.0, 70.0, 67.0, 17.0 ],
									"id" : "obj-1",
									"fontname" : "Arial",
									"numoutlets" : 1,
									"outlettype" : [ "" ],
									"fontsize" : 9.0
								}

							}
, 							{
								"box" : 								{
									"maxclass" : "newobj",
									"text" : "route text",
									"numinlets" : 1,
									"patching_rect" : [ 50.0, 50.0, 56.0, 17.0 ],
									"id" : "obj-2",
									"fontname" : "Arial",
									"numoutlets" : 2,
									"outlettype" : [ "", "" ],
									"fontsize" : 9.0
								}

							}
, 							{
								"box" : 								{
									"maxclass" : "inlet",
									"numinlets" : 0,
									"patching_rect" : [ 50.0, 30.0, 15.0, 15.0 ],
									"id" : "obj-3",
									"numoutlets" : 1,
									"outlettype" : [ "" ],
									"comment" : ""
								}

							}
, 							{
								"box" : 								{
									"maxclass" : "outlet",
									"numinlets" : 1,
									"patching_rect" : [ 50.0, 92.0, 15.0, 15.0 ],
									"id" : "obj-4",
									"numoutlets" : 0,
									"comment" : ""
								}

							}
 ],
						"lines" : [ 							{
								"patchline" : 								{
									"source" : [ "obj-1", 0 ],
									"destination" : [ "obj-4", 0 ],
									"hidden" : 0,
									"midpoints" : [  ]
								}

							}
, 							{
								"patchline" : 								{
									"source" : [ "obj-2", 0 ],
									"destination" : [ "obj-1", 0 ],
									"hidden" : 0,
									"midpoints" : [  ]
								}

							}
, 							{
								"patchline" : 								{
									"source" : [ "obj-3", 0 ],
									"destination" : [ "obj-2", 0 ],
									"hidden" : 0,
									"midpoints" : [  ]
								}

							}
 ]
					}
,
					"saved_object_attributes" : 					{
						"default_fontface" : 0,
						"default_fontname" : "Arial",
						"fontname" : "Arial",
						"default_fontsize" : 12.0,
						"globalpatchername" : "",
						"fontface" : 0,
						"fontsize" : 12.0
					}

				}

			}
, 			{
				"box" : 				{
					"maxclass" : "newobj",
					"text" : "udpreceive 9000 CNMAT",
					"numinlets" : 1,
					"patching_rect" : [ 256.0, 57.0, 121.0, 17.0 ],
					"id" : "obj-43",
					"fontname" : "Arial",
					"numoutlets" : 1,
					"outlettype" : [ "" ],
					"fontsize" : 9.0
				}

			}
, 			{
				"box" : 				{
					"maxclass" : "comment",
					"text" : "Set local port",
					"numinlets" : 1,
					"patching_rect" : [ 269.0, 22.0, 75.0, 17.0 ],
					"id" : "obj-44",
					"fontname" : "Arial",
					"numoutlets" : 0,
					"fontsize" : 9.0
				}

			}
, 			{
				"box" : 				{
					"maxclass" : "textedit",
					"text" : "9000",
					"numinlets" : 1,
					"patching_rect" : [ 256.0, 34.0, 128.0, 20.0 ],
					"id" : "obj-45",
					"fontname" : "Geneva",
					"numoutlets" : 4,
					"outlettype" : [ "", "int", "", "" ],
					"keymode" : 1,
					"fontsize" : 12.0
				}

			}
, 			{
				"box" : 				{
					"maxclass" : "message",
					"text" : "0.",
					"numinlets" : 2,
					"patching_rect" : [ 192.0, 95.0, 50.0, 15.0 ],
					"id" : "obj-46",
					"fontname" : "Arial",
					"numoutlets" : 1,
					"outlettype" : [ "" ],
					"fontsize" : 9.0
				}

			}
, 			{
				"box" : 				{
					"maxclass" : "message",
					"text" : "20.",
					"numinlets" : 2,
					"patching_rect" : [ 131.0, 95.0, 50.0, 15.0 ],
					"id" : "obj-47",
					"fontname" : "Arial",
					"numoutlets" : 1,
					"outlettype" : [ "" ],
					"fontsize" : 9.0
				}

			}
, 			{
				"box" : 				{
					"maxclass" : "panel",
					"bgcolor" : [ 0.745098, 0.901961, 0.65098, 1.0 ],
					"numinlets" : 1,
					"patching_rect" : [ 125.0, 20.0, 60.0, 110.0 ],
					"id" : "obj-48",
					"rounded" : 0,
					"numoutlets" : 0,
					"bordercolor" : [ 1.0, 1.0, 1.0, 1.0 ]
				}

			}
, 			{
				"box" : 				{
					"maxclass" : "comment",
					"text" : "Blasting slope",
					"linecount" : 2,
					"numinlets" : 1,
					"patching_rect" : [ 193.0, 25.0, 49.0, 27.0 ],
					"id" : "obj-49",
					"fontname" : "Arial",
					"numoutlets" : 0,
					"fontsize" : 9.0
				}

			}
, 			{
				"box" : 				{
					"maxclass" : "panel",
					"bgcolor" : [ 0.745098, 0.901961, 0.65098, 1.0 ],
					"numinlets" : 1,
					"patching_rect" : [ 187.0, 20.0, 60.0, 110.0 ],
					"id" : "obj-50",
					"rounded" : 0,
					"numoutlets" : 0,
					"bordercolor" : [ 1.0, 1.0, 1.0, 1.0 ]
				}

			}
, 			{
				"box" : 				{
					"maxclass" : "panel",
					"bgcolor" : [ 0.745098, 0.901961, 0.65098, 1.0 ],
					"numinlets" : 1,
					"patching_rect" : [ 249.0, 20.0, 160.0, 110.0 ],
					"id" : "obj-51",
					"rounded" : 0,
					"numoutlets" : 0,
					"bordercolor" : [ 1.0, 1.0, 1.0, 1.0 ]
				}

			}
, 			{
				"box" : 				{
					"maxclass" : "matrixctrl",
					"presentation_rect" : [ 0.0, 0.0, 66.0, 66.0 ],
					"columns" : 4,
					"numinlets" : 1,
					"patching_rect" : [ 430.0, 39.0, 66.0, 66.0 ],
					"id" : "obj-52",
					"numoutlets" : 2,
					"bkgndpict" : "MatrixDefaultBkgnd.pct",
					"outlettype" : [ "list", "list" ],
					"cellpict" : "MatrixDefaultCell.pct"
				}

			}
, 			{
				"box" : 				{
					"maxclass" : "comment",
					"text" : "O u t p u t",
					"linecount" : 6,
					"numinlets" : 1,
					"patching_rect" : [ 417.0, 36.0, 18.0, 69.0 ],
					"id" : "obj-53",
					"fontname" : "Arial",
					"numoutlets" : 0,
					"fontsize" : 9.0
				}

			}
 ],
		"lines" : [ 			{
				"patchline" : 				{
					"source" : [ "obj-87", 1 ],
					"destination" : [ "obj-85", 0 ],
					"hidden" : 1,
					"midpoints" : [  ]
				}

			}
, 			{
				"patchline" : 				{
					"source" : [ "obj-87", 0 ],
					"destination" : [ "obj-26", 0 ],
					"hidden" : 1,
					"midpoints" : [  ]
				}

			}
, 			{
				"patchline" : 				{
					"source" : [ "obj-27", 0 ],
					"destination" : [ "obj-87", 0 ],
					"hidden" : 1,
					"midpoints" : [  ]
				}

			}
, 			{
				"patchline" : 				{
					"source" : [ "obj-42", 0 ],
					"destination" : [ "obj-43", 0 ],
					"hidden" : 1,
					"midpoints" : [  ]
				}

			}
, 			{
				"patchline" : 				{
					"source" : [ "obj-43", 0 ],
					"destination" : [ "obj-41", 0 ],
					"hidden" : 1,
					"midpoints" : [ 265.5, 74.0, 265.5, 74.0 ]
				}

			}
, 			{
				"patchline" : 				{
					"source" : [ "obj-23", 0 ],
					"destination" : [ "obj-29", 1 ],
					"hidden" : 1,
					"midpoints" : [ 388.0, 23.0, 566.5, 23.0 ]
				}

			}
, 			{
				"patchline" : 				{
					"source" : [ "obj-32", 0 ],
					"destination" : [ "obj-29", 0 ],
					"hidden" : 1,
					"midpoints" : [  ]
				}

			}
, 			{
				"patchline" : 				{
					"source" : [ "obj-30", 0 ],
					"destination" : [ "obj-31", 0 ],
					"hidden" : 1,
					"midpoints" : [  ]
				}

			}
, 			{
				"patchline" : 				{
					"source" : [ "obj-25", 0 ],
					"destination" : [ "obj-52", 0 ],
					"hidden" : 1,
					"midpoints" : [  ]
				}

			}
, 			{
				"patchline" : 				{
					"source" : [ "obj-21", 0 ],
					"destination" : [ "obj-32", 0 ],
					"hidden" : 1,
					"midpoints" : [  ]
				}

			}
, 			{
				"patchline" : 				{
					"source" : [ "obj-18", 0 ],
					"destination" : [ "obj-32", 0 ],
					"hidden" : 1,
					"midpoints" : [  ]
				}

			}
, 			{
				"patchline" : 				{
					"source" : [ "obj-26", 0 ],
					"destination" : [ "obj-32", 0 ],
					"hidden" : 1,
					"midpoints" : [  ]
				}

			}
, 			{
				"patchline" : 				{
					"source" : [ "obj-29", 1 ],
					"destination" : [ "obj-32", 0 ],
					"hidden" : 1,
					"midpoints" : [ 566.5, 149.0, 582.0, 149.0, 582.0, 123.0, 435.5, 123.0 ]
				}

			}
, 			{
				"patchline" : 				{
					"source" : [ "obj-29", 0 ],
					"destination" : [ "obj-32", 0 ],
					"hidden" : 1,
					"midpoints" : [  ]
				}

			}
, 			{
				"patchline" : 				{
					"source" : [ "obj-31", 0 ],
					"destination" : [ "obj-32", 0 ],
					"hidden" : 1,
					"midpoints" : [  ]
				}

			}
, 			{
				"patchline" : 				{
					"source" : [ "obj-30", 0 ],
					"destination" : [ "obj-25", 0 ],
					"hidden" : 1,
					"midpoints" : [ 479.5, -49.0, 422.5, -49.0 ]
				}

			}
, 			{
				"patchline" : 				{
					"source" : [ "obj-22", 0 ],
					"destination" : [ "obj-23", 0 ],
					"hidden" : 1,
					"midpoints" : [  ]
				}

			}
, 			{
				"patchline" : 				{
					"source" : [ "obj-24", 0 ],
					"destination" : [ "obj-22", 0 ],
					"hidden" : 1,
					"midpoints" : [  ]
				}

			}
, 			{
				"patchline" : 				{
					"source" : [ "obj-30", 0 ],
					"destination" : [ "obj-21", 0 ],
					"hidden" : 1,
					"midpoints" : [ 479.5, -51.0, 350.5, -51.0 ]
				}

			}
, 			{
				"patchline" : 				{
					"source" : [ "obj-8", 0 ],
					"destination" : [ "obj-19", 0 ],
					"hidden" : 1,
					"midpoints" : [  ]
				}

			}
, 			{
				"patchline" : 				{
					"source" : [ "obj-9", 0 ],
					"destination" : [ "obj-8", 0 ],
					"hidden" : 1,
					"midpoints" : [  ]
				}

			}
, 			{
				"patchline" : 				{
					"source" : [ "obj-45", 0 ],
					"destination" : [ "obj-42", 0 ],
					"hidden" : 1,
					"midpoints" : [  ]
				}

			}
, 			{
				"patchline" : 				{
					"source" : [ "obj-41", 1 ],
					"destination" : [ "obj-20", 0 ],
					"hidden" : 1,
					"midpoints" : [  ]
				}

			}
, 			{
				"patchline" : 				{
					"source" : [ "obj-19", 0 ],
					"destination" : [ "obj-20", 0 ],
					"hidden" : 1,
					"midpoints" : [  ]
				}

			}
, 			{
				"patchline" : 				{
					"source" : [ "obj-40", 3 ],
					"destination" : [ "obj-46", 0 ],
					"hidden" : 1,
					"midpoints" : [ 116.5, 243.0, -13.0, 243.0, -13.0, 74.0, 201.5, 74.0 ]
				}

			}
, 			{
				"patchline" : 				{
					"source" : [ "obj-20", 3 ],
					"destination" : [ "obj-3", 0 ],
					"hidden" : 1,
					"midpoints" : [ 395.5, 134.0, 392.0, 134.0, 392.0, -27.0, 201.5, -27.0 ]
				}

			}
, 			{
				"patchline" : 				{
					"source" : [ "obj-40", 2 ],
					"destination" : [ "obj-47", 0 ],
					"hidden" : 1,
					"midpoints" : [ 87.833336, 243.0, -13.0, 243.0, -13.0, 74.0, 140.5, 74.0 ]
				}

			}
, 			{
				"patchline" : 				{
					"source" : [ "obj-20", 2 ],
					"destination" : [ "obj-4", 0 ],
					"hidden" : 1,
					"midpoints" : [ 350.833344, 134.0, 392.0, 134.0, 392.0, -27.0, 140.5, -27.0 ]
				}

			}
, 			{
				"patchline" : 				{
					"source" : [ "obj-34", 3 ],
					"destination" : [ "obj-40", 3 ],
					"hidden" : 1,
					"midpoints" : [  ]
				}

			}
, 			{
				"patchline" : 				{
					"source" : [ "obj-36", 0 ],
					"destination" : [ "obj-34", 7 ],
					"hidden" : 1,
					"color" : [ 0.156863, 0.8, 0.54902, 1.0 ],
					"midpoints" : [ 507.5, 194.0, 117.5, 194.0 ]
				}

			}
, 			{
				"patchline" : 				{
					"source" : [ "obj-37", 0 ],
					"destination" : [ "obj-34", 5 ],
					"hidden" : 1,
					"color" : [ 0.156863, 0.8, 0.54902, 1.0 ],
					"midpoints" : [ 507.5, 194.0, 92.64286, 194.0 ]
				}

			}
, 			{
				"patchline" : 				{
					"source" : [ "obj-34", 2 ],
					"destination" : [ "obj-40", 2 ],
					"hidden" : 1,
					"midpoints" : [  ]
				}

			}
, 			{
				"patchline" : 				{
					"source" : [ "obj-40", 1 ],
					"destination" : [ "obj-15", 0 ],
					"hidden" : 1,
					"midpoints" : [ 59.166668, 243.0, -13.0, 243.0, -13.0, 74.0, 78.5, 74.0 ]
				}

			}
, 			{
				"patchline" : 				{
					"source" : [ "obj-20", 1 ],
					"destination" : [ "obj-5", 0 ],
					"hidden" : 1,
					"midpoints" : [ 306.166656, 134.0, 392.0, 134.0, 392.0, -27.0, 78.5, -27.0 ]
				}

			}
, 			{
				"patchline" : 				{
					"source" : [ "obj-11", 0 ],
					"destination" : [ "obj-34", 3 ],
					"hidden" : 1,
					"midpoints" : [ 507.5, 194.0, 67.785713, 194.0 ]
				}

			}
, 			{
				"patchline" : 				{
					"source" : [ "obj-34", 1 ],
					"destination" : [ "obj-40", 1 ],
					"hidden" : 1,
					"midpoints" : [  ]
				}

			}
, 			{
				"patchline" : 				{
					"source" : [ "obj-28", 0 ],
					"destination" : [ "obj-27", 0 ],
					"hidden" : 1,
					"midpoints" : [  ]
				}

			}
, 			{
				"patchline" : 				{
					"source" : [ "obj-12", 0 ],
					"destination" : [ "obj-34", 1 ],
					"hidden" : 1,
					"midpoints" : [ 507.5, 194.0, 42.92857, 194.0 ]
				}

			}
, 			{
				"patchline" : 				{
					"source" : [ "obj-34", 0 ],
					"destination" : [ "obj-40", 0 ],
					"hidden" : 1,
					"midpoints" : [  ]
				}

			}
, 			{
				"patchline" : 				{
					"source" : [ "obj-40", 0 ],
					"destination" : [ "obj-1", 0 ],
					"hidden" : 1,
					"midpoints" : [ 30.5, 243.0, -14.0, 243.0, -14.0, 74.0, 30.5, 74.0 ]
				}

			}
, 			{
				"patchline" : 				{
					"source" : [ "obj-20", 0 ],
					"destination" : [ "obj-6", 0 ],
					"hidden" : 1,
					"midpoints" : [ 261.5, 134.0, 392.0, 134.0, 392.0, -27.0, 16.5, -27.0 ]
				}

			}
, 			{
				"patchline" : 				{
					"source" : [ "obj-52", 0 ],
					"destination" : [ "obj-38", 0 ],
					"hidden" : 1,
					"color" : [ 0.945098, 0.913725, 0.407843, 1.0 ],
					"midpoints" : [ 439.5, 158.0, 30.5, 158.0 ]
				}

			}
, 			{
				"patchline" : 				{
					"source" : [ "obj-20", 0 ],
					"destination" : [ "obj-38", 1 ],
					"hidden" : 1,
					"color" : [ 0.047059, 0.913725, 0.913725, 1.0 ],
					"midpoints" : [ 261.5, 143.0, 52.25, 143.0 ]
				}

			}
, 			{
				"patchline" : 				{
					"source" : [ "obj-20", 2 ],
					"destination" : [ "obj-38", 3 ],
					"hidden" : 1,
					"color" : [ 0.047059, 0.913725, 0.913725, 1.0 ],
					"midpoints" : [ 350.833344, 143.0, 95.75, 143.0 ]
				}

			}
, 			{
				"patchline" : 				{
					"source" : [ "obj-20", 1 ],
					"destination" : [ "obj-38", 2 ],
					"hidden" : 1,
					"color" : [ 0.047059, 0.913725, 0.913725, 1.0 ],
					"midpoints" : [ 306.166656, 143.0, 74.0, 143.0 ]
				}

			}
, 			{
				"patchline" : 				{
					"source" : [ "obj-20", 3 ],
					"destination" : [ "obj-38", 4 ],
					"hidden" : 1,
					"color" : [ 0.047059, 0.913725, 0.913725, 1.0 ],
					"midpoints" : [ 395.5, 143.0, 117.5, 143.0 ]
				}

			}
, 			{
				"patchline" : 				{
					"source" : [ "obj-38", 0 ],
					"destination" : [ "obj-34", 0 ],
					"hidden" : 1,
					"midpoints" : [ 30.5, 188.0, 30.5, 188.0 ]
				}

			}
, 			{
				"patchline" : 				{
					"source" : [ "obj-38", 1 ],
					"destination" : [ "obj-34", 2 ],
					"hidden" : 1,
					"midpoints" : [  ]
				}

			}
, 			{
				"patchline" : 				{
					"source" : [ "obj-38", 2 ],
					"destination" : [ "obj-34", 4 ],
					"hidden" : 1,
					"midpoints" : [  ]
				}

			}
, 			{
				"patchline" : 				{
					"source" : [ "obj-38", 3 ],
					"destination" : [ "obj-34", 6 ],
					"hidden" : 1,
					"midpoints" : [  ]
				}

			}
, 			{
				"patchline" : 				{
					"source" : [ "obj-54", 0 ],
					"destination" : [ "obj-27", 0 ],
					"hidden" : 1,
					"midpoints" : [  ]
				}

			}
 ]
	}

}
