{
	"patcher" : 	{
		"fileversion" : 1,
		"rect" : [ 290.0, 70.0, 290.0, 131.0 ],
		"bglocked" : 0,
		"defrect" : [ 290.0, 70.0, 290.0, 131.0 ],
		"openrect" : [ 0.0, 0.0, 0.0, 0.0 ],
		"openinpresentation" : 0,
		"default_fontsize" : 12.0,
		"default_fontface" : 0,
		"default_fontname" : "Arial",
		"gridonopen" : 0,
		"gridsize" : [ 15.0, 15.0 ],
		"gridsnaponopen" : 0,
		"toolbarvisible" : 0,
		"boxanimatetime" : 200,
		"imprint" : 0,
		"enablehscroll" : 1,
		"enablevscroll" : 1,
		"devicewidth" : 0.0,
		"title" : "midi control ONEBUBBLE #1",
		"boxes" : [ 			{
				"box" : 				{
					"maxclass" : "newobj",
					"text" : "t b #1",
					"numinlets" : 1,
					"patching_rect" : [ 49.0, -57.0, 33.0, 17.0 ],
					"id" : "obj-87",
					"fontname" : "Arial",
					"numoutlets" : 2,
					"hidden" : 1,
					"outlettype" : [ "bang", "" ],
					"fontsize" : 9.0
				}

			}
, 			{
				"box" : 				{
					"maxclass" : "newobj",
					"text" : "s bbl_1midcontrol",
					"numinlets" : 1,
					"patching_rect" : [ 83.0, -41.0, 81.0, 17.0 ],
					"id" : "obj-85",
					"fontname" : "Arial",
					"numoutlets" : 0,
					"hidden" : 1,
					"fontsize" : 9.0
				}

			}
, 			{
				"box" : 				{
					"maxclass" : "newobj",
					"text" : "r bbl_closeall",
					"numinlets" : 0,
					"patching_rect" : [ 71.0, -76.0, 63.0, 17.0 ],
					"id" : "obj-55",
					"fontname" : "Arial",
					"numoutlets" : 1,
					"hidden" : 1,
					"outlettype" : [ "" ],
					"fontsize" : 9.0
				}

			}
, 			{
				"box" : 				{
					"maxclass" : "comment",
					"text" : "Preset Interpolation",
					"linecount" : 2,
					"numinlets" : 1,
					"patching_rect" : [ 62.0, 41.0, 62.0, 27.0 ],
					"id" : "obj-1",
					"fontname" : "Arial",
					"numoutlets" : 0,
					"fontsize" : 9.0
				}

			}
, 			{
				"box" : 				{
					"maxclass" : "button",
					"numinlets" : 1,
					"patching_rect" : [ 16.0, 105.0, 19.0, 19.0 ],
					"id" : "obj-2",
					"numoutlets" : 1,
					"outlettype" : [ "bang" ]
				}

			}
, 			{
				"box" : 				{
					"maxclass" : "newobj",
					"text" : "p readme",
					"numinlets" : 0,
					"patching_rect" : [ 1.0, 18.0, 51.0, 17.0 ],
					"id" : "obj-3",
					"fontname" : "Arial",
					"numoutlets" : 0,
					"fontsize" : 9.0,
					"patcher" : 					{
						"fileversion" : 1,
						"rect" : [ 308.0, 138.0, 415.0, 348.0 ],
						"bglocked" : 0,
						"defrect" : [ 308.0, 138.0, 415.0, 348.0 ],
						"openrect" : [ 0.0, 0.0, 0.0, 0.0 ],
						"openinpresentation" : 0,
						"default_fontsize" : 12.0,
						"default_fontface" : 0,
						"default_fontname" : "Arial",
						"gridonopen" : 0,
						"gridsize" : [ 15.0, 15.0 ],
						"gridsnaponopen" : 0,
						"toolbarvisible" : 1,
						"boxanimatetime" : 200,
						"imprint" : 0,
						"enablehscroll" : 1,
						"enablevscroll" : 1,
						"devicewidth" : 0.0,
						"boxes" : [ 							{
								"box" : 								{
									"maxclass" : "comment",
									"text" : "5.2) PARAMETERS BOXES: click on the boxes to open, choose and modify the correspondent control mapping.",
									"linecount" : 2,
									"numinlets" : 1,
									"patching_rect" : [ 50.0, 246.0, 351.0, 29.0 ],
									"id" : "obj-1",
									"fontname" : "Arial",
									"numoutlets" : 0,
									"fontsize" : 10.0
								}

							}
, 							{
								"box" : 								{
									"maxclass" : "comment",
									"text" : "5.1) MATRIX: control midi input/output routing (default 1:1 routing). Many-to-one mapping is not allowed.",
									"linecount" : 2,
									"numinlets" : 1,
									"patching_rect" : [ 50.0, 211.0, 353.0, 29.0 ],
									"id" : "obj-2",
									"fontname" : "Arial",
									"numoutlets" : 0,
									"fontsize" : 10.0
								}

							}
, 							{
								"box" : 								{
									"maxclass" : "comment",
									"text" : "5) OPEN/CLOSE MAPPING SET UP: click on the box to access the mapping set up",
									"linecount" : 2,
									"numinlets" : 1,
									"patching_rect" : [ 24.0, 176.0, 378.0, 29.0 ],
									"id" : "obj-3",
									"fontname" : "Arial",
									"numoutlets" : 0,
									"fontsize" : 10.0
								}

							}
, 							{
								"box" : 								{
									"maxclass" : "comment",
									"text" : "4) CLOSE WINDOW: click on the box to close the current midi control patch",
									"numinlets" : 1,
									"patching_rect" : [ 24.0, 153.0, 377.0, 18.0 ],
									"id" : "obj-4",
									"fontname" : "Arial",
									"numoutlets" : 0,
									"fontsize" : 10.0
								}

							}
, 							{
								"box" : 								{
									"maxclass" : "comment",
									"text" : "3) READ/WRITE: read/write Max preset file. The preset file must be saved in SDT_contents/Presets/Crumpling/MIDI.",
									"linecount" : 2,
									"numinlets" : 1,
									"patching_rect" : [ 24.0, 117.0, 378.0, 29.0 ],
									"id" : "obj-5",
									"fontname" : "Arial",
									"numoutlets" : 0,
									"fontsize" : 10.0
								}

							}
, 							{
								"box" : 								{
									"maxclass" : "comment",
									"text" : "2) NUMBER BOXES: set controller numbers of each parameter. Preferred configurations can be saved in the preset box (shift-click).",
									"linecount" : 2,
									"numinlets" : 1,
									"patching_rect" : [ 24.0, 81.0, 378.0, 29.0 ],
									"id" : "obj-6",
									"fontname" : "Arial",
									"numoutlets" : 0,
									"fontsize" : 10.0
								}

							}
, 							{
								"box" : 								{
									"maxclass" : "comment",
									"text" : "1) The available controls correspond to the parameters of the high-level interface of the sound models",
									"linecount" : 2,
									"numinlets" : 1,
									"patching_rect" : [ 24.0, 46.0, 380.0, 29.0 ],
									"id" : "obj-7",
									"fontname" : "Arial",
									"numoutlets" : 0,
									"fontsize" : 10.0
								}

							}
, 							{
								"box" : 								{
									"maxclass" : "panel",
									"bgcolor" : [ 0.752941, 0.717647, 0.960784, 1.0 ],
									"numinlets" : 1,
									"patching_rect" : [ 24.0, 46.0, 17.0, 13.0 ],
									"id" : "obj-8",
									"rounded" : 0,
									"numoutlets" : 0
								}

							}
, 							{
								"box" : 								{
									"maxclass" : "panel",
									"bgcolor" : [ 0.752941, 0.717647, 0.960784, 1.0 ],
									"numinlets" : 1,
									"patching_rect" : [ 24.0, 81.0, 100.0, 13.0 ],
									"id" : "obj-9",
									"rounded" : 0,
									"numoutlets" : 0
								}

							}
, 							{
								"box" : 								{
									"maxclass" : "panel",
									"bgcolor" : [ 0.752941, 0.717647, 0.960784, 1.0 ],
									"numinlets" : 1,
									"patching_rect" : [ 24.0, 117.0, 88.0, 13.0 ],
									"id" : "obj-10",
									"rounded" : 0,
									"numoutlets" : 0
								}

							}
, 							{
								"box" : 								{
									"maxclass" : "panel",
									"bgcolor" : [ 0.752941, 0.717647, 0.960784, 1.0 ],
									"numinlets" : 1,
									"patching_rect" : [ 24.0, 153.0, 100.0, 13.0 ],
									"id" : "obj-11",
									"rounded" : 0,
									"numoutlets" : 0
								}

							}
, 							{
								"box" : 								{
									"maxclass" : "panel",
									"bgcolor" : [ 0.752941, 0.717647, 0.960784, 1.0 ],
									"numinlets" : 1,
									"patching_rect" : [ 24.0, 176.0, 172.0, 13.0 ],
									"id" : "obj-12",
									"rounded" : 0,
									"numoutlets" : 0
								}

							}
, 							{
								"box" : 								{
									"maxclass" : "comment",
									"text" : "Midi control Crumpling N:",
									"numinlets" : 1,
									"patching_rect" : [ 23.0, 11.0, 214.0, 23.0 ],
									"id" : "obj-13",
									"fontname" : "Arial Black",
									"numoutlets" : 0,
									"fontsize" : 12.0
								}

							}
, 							{
								"box" : 								{
									"maxclass" : "panel",
									"bgcolor" : [ 0.752941, 0.717647, 0.960784, 1.0 ],
									"numinlets" : 1,
									"patching_rect" : [ 50.0, 211.0, 71.0, 13.0 ],
									"id" : "obj-14",
									"rounded" : 0,
									"numoutlets" : 0
								}

							}
, 							{
								"box" : 								{
									"maxclass" : "panel",
									"bgcolor" : [ 0.752941, 0.717647, 0.960784, 1.0 ],
									"numinlets" : 1,
									"patching_rect" : [ 50.0, 246.0, 132.0, 13.0 ],
									"id" : "obj-15",
									"rounded" : 0,
									"numoutlets" : 0
								}

							}
, 							{
								"box" : 								{
									"maxclass" : "panel",
									"bgcolor" : [ 0.67451, 0.945098, 0.611765, 1.0 ],
									"numinlets" : 1,
									"patching_rect" : [ 50.0, 226.0, 189.0, 14.0 ],
									"id" : "obj-16",
									"rounded" : 0,
									"numoutlets" : 0
								}

							}
 ],
						"lines" : [  ]
					}
,
					"saved_object_attributes" : 					{
						"default_fontface" : 0,
						"default_fontname" : "Arial",
						"fontname" : "Arial",
						"default_fontsize" : 12.0,
						"globalpatchername" : "",
						"fontface" : 0,
						"fontsize" : 12.0
					}

				}

			}
, 			{
				"box" : 				{
					"maxclass" : "message",
					"text" : "window flags noclose, window flags nogrow, window exec",
					"linecount" : 2,
					"numinlets" : 2,
					"patching_rect" : [ 240.0, 46.0, 143.0, 25.0 ],
					"id" : "obj-4",
					"fontname" : "Arial",
					"numoutlets" : 1,
					"hidden" : 1,
					"outlettype" : [ "" ],
					"fontsize" : 9.0
				}

			}
, 			{
				"box" : 				{
					"maxclass" : "message",
					"text" : "window flags close, window flags grow, window exec",
					"linecount" : 2,
					"numinlets" : 2,
					"patching_rect" : [ 232.0, 82.0, 146.0, 25.0 ],
					"id" : "obj-5",
					"fontname" : "Arial",
					"numoutlets" : 1,
					"hidden" : 1,
					"outlettype" : [ "" ],
					"fontsize" : 9.0
				}

			}
, 			{
				"box" : 				{
					"maxclass" : "comment",
					"text" : "SET CONTROLLER NUMBER",
					"numinlets" : 1,
					"patching_rect" : [ 104.0, 20.0, 146.0, 19.0 ],
					"id" : "obj-6",
					"fontname" : "Arial Black",
					"numoutlets" : 0,
					"fontsize" : 9.0
				}

			}
, 			{
				"box" : 				{
					"maxclass" : "message",
					"text" : "Preset Interpolate",
					"bgcolor" : [ 0.6, 0.4, 0.6, 1.0 ],
					"numinlets" : 2,
					"patching_rect" : [ 376.0, 63.0, 92.0, 15.0 ],
					"id" : "obj-7",
					"fontname" : "Arial",
					"numoutlets" : 1,
					"outlettype" : [ "" ],
					"fontsize" : 9.0
				}

			}
, 			{
				"box" : 				{
					"maxclass" : "message",
					"text" : "Bang to drop",
					"bgcolor" : [ 0.8, 0.611765, 0.380392, 1.0 ],
					"numinlets" : 2,
					"patching_rect" : [ 376.0, 46.0, 92.0, 15.0 ],
					"id" : "obj-8",
					"fontname" : "Arial",
					"numoutlets" : 1,
					"outlettype" : [ "" ],
					"fontsize" : 9.0
				}

			}
, 			{
				"box" : 				{
					"maxclass" : "comment",
					"text" : "Bang to drop",
					"linecount" : 2,
					"numinlets" : 1,
					"patching_rect" : [ 7.0, 41.0, 43.0, 27.0 ],
					"id" : "obj-9",
					"fontname" : "Arial",
					"numoutlets" : 0,
					"fontsize" : 9.0
				}

			}
, 			{
				"box" : 				{
					"maxclass" : "message",
					"text" : "0",
					"numinlets" : 2,
					"patching_rect" : [ 69.0, 107.0, 50.0, 15.0 ],
					"id" : "obj-10",
					"ignoreclick" : 1,
					"fontname" : "Arial",
					"numoutlets" : 1,
					"outlettype" : [ "" ],
					"fontsize" : 9.0
				}

			}
, 			{
				"box" : 				{
					"maxclass" : "number",
					"triscale" : 0.9,
					"htextcolor" : [ 0.870588, 0.870588, 0.870588, 1.0 ],
					"bgcolor" : [ 0.866667, 0.866667, 0.866667, 1.0 ],
					"numinlets" : 1,
					"patching_rect" : [ 69.0, 68.0, 35.0, 17.0 ],
					"id" : "obj-11",
					"fontname" : "Arial",
					"numoutlets" : 2,
					"outlettype" : [ "int", "bang" ],
					"minimum" : 0,
					"fontsize" : 9.0,
					"maximum" : 127
				}

			}
, 			{
				"box" : 				{
					"maxclass" : "number",
					"triscale" : 0.9,
					"htextcolor" : [ 0.870588, 0.870588, 0.870588, 1.0 ],
					"bgcolor" : [ 0.866667, 0.866667, 0.866667, 1.0 ],
					"numinlets" : 1,
					"patching_rect" : [ 7.0, 68.0, 35.0, 17.0 ],
					"id" : "obj-12",
					"fontname" : "Arial",
					"numoutlets" : 2,
					"outlettype" : [ "int", "bang" ],
					"minimum" : 0,
					"fontsize" : 9.0,
					"maximum" : 127
				}

			}
, 			{
				"box" : 				{
					"maxclass" : "message",
					"text" : "set $1",
					"bgcolor" : [ 0.156863, 0.8, 0.54902, 1.0 ],
					"numinlets" : 2,
					"patching_rect" : [ 69.0, 78.0, 39.0, 15.0 ],
					"id" : "obj-13",
					"fontname" : "Arial",
					"numoutlets" : 1,
					"hidden" : 1,
					"outlettype" : [ "" ],
					"fontsize" : 9.0
				}

			}
, 			{
				"box" : 				{
					"maxclass" : "message",
					"text" : "set $1",
					"bgcolor" : [ 0.6, 0.4, 0.6, 1.0 ],
					"numinlets" : 2,
					"patching_rect" : [ 7.0, 78.0, 39.0, 15.0 ],
					"id" : "obj-14",
					"fontname" : "Arial",
					"numoutlets" : 1,
					"hidden" : 1,
					"outlettype" : [ "" ],
					"fontsize" : 9.0
				}

			}
, 			{
				"box" : 				{
					"maxclass" : "newobj",
					"text" : "ctlin 2",
					"color" : [ 0.8, 0.611765, 0.380392, 1.0 ],
					"numinlets" : 1,
					"patching_rect" : [ 69.0, 88.0, 39.0, 17.0 ],
					"id" : "obj-15",
					"fontname" : "Arial",
					"numoutlets" : 2,
					"outlettype" : [ "int", "int" ],
					"fontsize" : 9.0
				}

			}
, 			{
				"box" : 				{
					"maxclass" : "newobj",
					"text" : "ctlin 1",
					"color" : [ 0.4, 0.4, 0.8, 1.0 ],
					"numinlets" : 1,
					"patching_rect" : [ 7.0, 88.0, 39.0, 17.0 ],
					"id" : "obj-16",
					"fontname" : "Arial",
					"numoutlets" : 2,
					"outlettype" : [ "int", "int" ],
					"fontsize" : 9.0
				}

			}
, 			{
				"box" : 				{
					"maxclass" : "panel",
					"bgcolor" : [ 0.745098, 0.901961, 0.65098, 1.0 ],
					"numinlets" : 1,
					"patching_rect" : [ 1.0, 37.0, 60.0, 88.0 ],
					"id" : "obj-17",
					"rounded" : 0,
					"numoutlets" : 0,
					"bordercolor" : [ 1.0, 1.0, 1.0, 1.0 ]
				}

			}
, 			{
				"box" : 				{
					"maxclass" : "comment",
					"text" : "Bubble radius",
					"linecount" : 2,
					"numinlets" : 1,
					"patching_rect" : [ 128.0, 41.0, 51.0, 27.0 ],
					"id" : "obj-18",
					"fontname" : "Arial",
					"numoutlets" : 0,
					"fontsize" : 9.0
				}

			}
, 			{
				"box" : 				{
					"maxclass" : "panel",
					"bgcolor" : [ 0.745098, 0.901961, 0.65098, 1.0 ],
					"numinlets" : 1,
					"patching_rect" : [ 63.0, 37.0, 60.0, 88.0 ],
					"id" : "obj-19",
					"rounded" : 0,
					"numoutlets" : 0,
					"bordercolor" : [ 1.0, 1.0, 1.0, 1.0 ]
				}

			}
, 			{
				"box" : 				{
					"maxclass" : "button",
					"numinlets" : 1,
					"patching_rect" : [ 232.0, -15.0, 15.0, 15.0 ],
					"id" : "obj-20",
					"numoutlets" : 1,
					"hidden" : 1,
					"outlettype" : [ "bang" ]
				}

			}
, 			{
				"box" : 				{
					"maxclass" : "toggle",
					"numinlets" : 1,
					"patching_rect" : [ 232.0, 1.0, 15.0, 15.0 ],
					"id" : "obj-21",
					"numoutlets" : 1,
					"outlettype" : [ "int" ]
				}

			}
, 			{
				"box" : 				{
					"maxclass" : "message",
					"text" : "open/close mapping set up",
					"numinlets" : 2,
					"patching_rect" : [ 105.0, 1.0, 128.0, 15.0 ],
					"id" : "obj-22",
					"fontname" : "Arial",
					"numoutlets" : 1,
					"outlettype" : [ "" ],
					"fontsize" : 9.0
				}

			}
, 			{
				"box" : 				{
					"maxclass" : "message",
					"text" : "0 0 1 1 1 1 2 2 1 3 3 1",
					"numinlets" : 2,
					"patching_rect" : [ 308.0, -40.0, 115.0, 15.0 ],
					"id" : "obj-23",
					"fontname" : "Arial",
					"numoutlets" : 1,
					"hidden" : 1,
					"outlettype" : [ "" ],
					"fontsize" : 9.0
				}

			}
, 			{
				"box" : 				{
					"maxclass" : "message",
					"text" : "dispose, clean",
					"numinlets" : 2,
					"patching_rect" : [ 49.0, -22.0, 73.0, 15.0 ],
					"id" : "obj-24",
					"fontname" : "Arial",
					"numoutlets" : 1,
					"hidden" : 1,
					"outlettype" : [ "" ],
					"fontsize" : 9.0
				}

			}
, 			{
				"box" : 				{
					"maxclass" : "button",
					"numinlets" : 1,
					"patching_rect" : [ 49.0, -75.0, 15.0, 15.0 ],
					"id" : "obj-25",
					"numoutlets" : 1,
					"hidden" : 1,
					"outlettype" : [ "bang" ]
				}

			}
, 			{
				"box" : 				{
					"maxclass" : "message",
					"text" : "close window",
					"numinlets" : 2,
					"patching_rect" : [ 1.0, 1.0, 70.0, 15.0 ],
					"id" : "obj-26",
					"fontname" : "Arial",
					"numoutlets" : 1,
					"outlettype" : [ "" ],
					"fontsize" : 9.0
				}

			}
, 			{
				"box" : 				{
					"maxclass" : "newobj",
					"text" : "p resize_window",
					"numinlets" : 2,
					"patching_rect" : [ 374.0, 140.0, 86.0, 17.0 ],
					"id" : "obj-27",
					"fontname" : "Arial",
					"numoutlets" : 2,
					"hidden" : 1,
					"outlettype" : [ "", "" ],
					"fontsize" : 9.0,
					"patcher" : 					{
						"fileversion" : 1,
						"rect" : [ 10.0, 59.0, 600.0, 426.0 ],
						"bglocked" : 0,
						"defrect" : [ 10.0, 59.0, 600.0, 426.0 ],
						"openrect" : [ 0.0, 0.0, 0.0, 0.0 ],
						"openinpresentation" : 0,
						"default_fontsize" : 12.0,
						"default_fontface" : 0,
						"default_fontname" : "Arial",
						"gridonopen" : 0,
						"gridsize" : [ 15.0, 15.0 ],
						"gridsnaponopen" : 0,
						"toolbarvisible" : 1,
						"boxanimatetime" : 200,
						"imprint" : 0,
						"enablehscroll" : 1,
						"enablevscroll" : 1,
						"devicewidth" : 0.0,
						"boxes" : [ 							{
								"box" : 								{
									"maxclass" : "newobj",
									"text" : "pack s s",
									"numinlets" : 2,
									"patching_rect" : [ 275.0, 153.0, 51.0, 17.0 ],
									"id" : "obj-1",
									"fontname" : "Arial",
									"numoutlets" : 1,
									"outlettype" : [ "" ],
									"fontsize" : 9.0
								}

							}
, 							{
								"box" : 								{
									"maxclass" : "message",
									"text" : "window size $1 $2 $3 $4, window exec",
									"numinlets" : 2,
									"patching_rect" : [ 160.0, 320.0, 190.0, 15.0 ],
									"id" : "obj-2",
									"fontname" : "Arial",
									"numoutlets" : 1,
									"outlettype" : [ "" ],
									"fontsize" : 9.0
								}

							}
, 							{
								"box" : 								{
									"maxclass" : "newobj",
									"text" : "pack 0 0 0 0",
									"numinlets" : 4,
									"patching_rect" : [ 160.0, 301.0, 78.0, 17.0 ],
									"id" : "obj-3",
									"fontname" : "Arial",
									"numoutlets" : 1,
									"outlettype" : [ "" ],
									"fontsize" : 9.0
								}

							}
, 							{
								"box" : 								{
									"maxclass" : "newobj",
									"text" : "+ 1",
									"numinlets" : 2,
									"patching_rect" : [ 274.0, 109.0, 27.0, 17.0 ],
									"id" : "obj-4",
									"fontname" : "Arial",
									"numoutlets" : 1,
									"outlettype" : [ "int" ],
									"fontsize" : 9.0
								}

							}
, 							{
								"box" : 								{
									"maxclass" : "newobj",
									"text" : "+ 1",
									"numinlets" : 2,
									"patching_rect" : [ 245.0, 109.0, 27.0, 17.0 ],
									"id" : "obj-5",
									"fontname" : "Arial",
									"numoutlets" : 1,
									"outlettype" : [ "int" ],
									"fontsize" : 9.0
								}

							}
, 							{
								"box" : 								{
									"maxclass" : "newobj",
									"text" : "gate 2",
									"numinlets" : 2,
									"patching_rect" : [ 160.0, 211.0, 54.0, 17.0 ],
									"id" : "obj-6",
									"fontname" : "Arial",
									"numoutlets" : 2,
									"outlettype" : [ "", "" ],
									"fontsize" : 9.0
								}

							}
, 							{
								"box" : 								{
									"maxclass" : "newobj",
									"text" : "- 180",
									"numinlets" : 2,
									"patching_rect" : [ 160.0, 231.0, 36.0, 17.0 ],
									"id" : "obj-7",
									"fontname" : "Arial",
									"numoutlets" : 1,
									"outlettype" : [ "int" ],
									"fontsize" : 9.0
								}

							}
, 							{
								"box" : 								{
									"maxclass" : "newobj",
									"text" : "+ 180",
									"numinlets" : 2,
									"patching_rect" : [ 204.0, 231.0, 37.0, 17.0 ],
									"id" : "obj-8",
									"fontname" : "Arial",
									"numoutlets" : 1,
									"outlettype" : [ "int" ],
									"fontsize" : 9.0
								}

							}
, 							{
								"box" : 								{
									"maxclass" : "gswitch2",
									"numinlets" : 2,
									"patching_rect" : [ 245.0, 74.0, 39.0, 32.0 ],
									"id" : "obj-9",
									"numoutlets" : 2,
									"outlettype" : [ "", "" ]
								}

							}
, 							{
								"box" : 								{
									"maxclass" : "newobj",
									"text" : "route window",
									"numinlets" : 1,
									"patching_rect" : [ 160.0, 124.0, 71.0, 17.0 ],
									"id" : "obj-10",
									"fontname" : "Arial",
									"numoutlets" : 2,
									"outlettype" : [ "", "" ],
									"fontsize" : 9.0
								}

							}
, 							{
								"box" : 								{
									"maxclass" : "newobj",
									"text" : "unpack 0 0 0 0",
									"numinlets" : 1,
									"patching_rect" : [ 160.0, 166.0, 76.0, 17.0 ],
									"id" : "obj-11",
									"fontname" : "Arial",
									"numoutlets" : 4,
									"outlettype" : [ "int", "int", "int", "int" ],
									"fontsize" : 9.0
								}

							}
, 							{
								"box" : 								{
									"maxclass" : "newobj",
									"text" : "route size",
									"numinlets" : 1,
									"patching_rect" : [ 160.0, 146.0, 55.0, 17.0 ],
									"id" : "obj-12",
									"fontname" : "Arial",
									"numoutlets" : 2,
									"outlettype" : [ "", "" ],
									"fontsize" : 9.0
								}

							}
, 							{
								"box" : 								{
									"maxclass" : "newobj",
									"text" : "t window getsize i",
									"numinlets" : 1,
									"patching_rect" : [ 274.0, 133.0, 92.0, 17.0 ],
									"id" : "obj-13",
									"fontname" : "Arial",
									"numoutlets" : 3,
									"outlettype" : [ "window", "", "int" ],
									"fontsize" : 9.0
								}

							}
, 							{
								"box" : 								{
									"maxclass" : "inlet",
									"numinlets" : 0,
									"patching_rect" : [ 264.0, 44.0, 15.0, 15.0 ],
									"id" : "obj-14",
									"numoutlets" : 1,
									"outlettype" : [ "int" ],
									"comment" : ""
								}

							}
, 							{
								"box" : 								{
									"maxclass" : "inlet",
									"numinlets" : 0,
									"patching_rect" : [ 160.0, 46.0, 15.0, 15.0 ],
									"id" : "obj-15",
									"numoutlets" : 1,
									"outlettype" : [ "" ],
									"comment" : ""
								}

							}
, 							{
								"box" : 								{
									"maxclass" : "outlet",
									"numinlets" : 1,
									"patching_rect" : [ 160.0, 340.0, 15.0, 15.0 ],
									"id" : "obj-16",
									"numoutlets" : 0,
									"comment" : ""
								}

							}
, 							{
								"box" : 								{
									"maxclass" : "outlet",
									"numinlets" : 1,
									"patching_rect" : [ 275.0, 346.0, 15.0, 15.0 ],
									"id" : "obj-17",
									"numoutlets" : 0,
									"comment" : ""
								}

							}
 ],
						"lines" : [ 							{
								"patchline" : 								{
									"source" : [ "obj-13", 1 ],
									"destination" : [ "obj-1", 1 ],
									"hidden" : 0,
									"midpoints" : [  ]
								}

							}
, 							{
								"patchline" : 								{
									"source" : [ "obj-1", 0 ],
									"destination" : [ "obj-17", 0 ],
									"hidden" : 0,
									"midpoints" : [  ]
								}

							}
, 							{
								"patchline" : 								{
									"source" : [ "obj-13", 0 ],
									"destination" : [ "obj-1", 0 ],
									"hidden" : 0,
									"midpoints" : [  ]
								}

							}
, 							{
								"patchline" : 								{
									"source" : [ "obj-5", 0 ],
									"destination" : [ "obj-13", 0 ],
									"hidden" : 0,
									"midpoints" : [  ]
								}

							}
, 							{
								"patchline" : 								{
									"source" : [ "obj-4", 0 ],
									"destination" : [ "obj-13", 0 ],
									"hidden" : 0,
									"midpoints" : [  ]
								}

							}
, 							{
								"patchline" : 								{
									"source" : [ "obj-9", 1 ],
									"destination" : [ "obj-4", 0 ],
									"hidden" : 0,
									"midpoints" : [  ]
								}

							}
, 							{
								"patchline" : 								{
									"source" : [ "obj-14", 0 ],
									"destination" : [ "obj-9", 1 ],
									"hidden" : 0,
									"midpoints" : [  ]
								}

							}
, 							{
								"patchline" : 								{
									"source" : [ "obj-9", 0 ],
									"destination" : [ "obj-5", 0 ],
									"hidden" : 0,
									"midpoints" : [  ]
								}

							}
, 							{
								"patchline" : 								{
									"source" : [ "obj-14", 0 ],
									"destination" : [ "obj-9", 0 ],
									"hidden" : 0,
									"midpoints" : [  ]
								}

							}
, 							{
								"patchline" : 								{
									"source" : [ "obj-11", 3 ],
									"destination" : [ "obj-3", 3 ],
									"hidden" : 0,
									"midpoints" : [  ]
								}

							}
, 							{
								"patchline" : 								{
									"source" : [ "obj-8", 0 ],
									"destination" : [ "obj-3", 2 ],
									"hidden" : 0,
									"midpoints" : [  ]
								}

							}
, 							{
								"patchline" : 								{
									"source" : [ "obj-7", 0 ],
									"destination" : [ "obj-3", 2 ],
									"hidden" : 0,
									"midpoints" : [ 169.5, 266.0, 208.833328, 266.0 ]
								}

							}
, 							{
								"patchline" : 								{
									"source" : [ "obj-6", 1 ],
									"destination" : [ "obj-8", 0 ],
									"hidden" : 0,
									"midpoints" : [  ]
								}

							}
, 							{
								"patchline" : 								{
									"source" : [ "obj-11", 2 ],
									"destination" : [ "obj-6", 1 ],
									"hidden" : 0,
									"midpoints" : [  ]
								}

							}
, 							{
								"patchline" : 								{
									"source" : [ "obj-11", 1 ],
									"destination" : [ "obj-3", 1 ],
									"hidden" : 0,
									"midpoints" : [  ]
								}

							}
, 							{
								"patchline" : 								{
									"source" : [ "obj-2", 0 ],
									"destination" : [ "obj-16", 0 ],
									"hidden" : 0,
									"midpoints" : [  ]
								}

							}
, 							{
								"patchline" : 								{
									"source" : [ "obj-3", 0 ],
									"destination" : [ "obj-2", 0 ],
									"hidden" : 0,
									"midpoints" : [  ]
								}

							}
, 							{
								"patchline" : 								{
									"source" : [ "obj-11", 0 ],
									"destination" : [ "obj-3", 0 ],
									"hidden" : 0,
									"midpoints" : [  ]
								}

							}
, 							{
								"patchline" : 								{
									"source" : [ "obj-6", 0 ],
									"destination" : [ "obj-7", 0 ],
									"hidden" : 0,
									"midpoints" : [  ]
								}

							}
, 							{
								"patchline" : 								{
									"source" : [ "obj-13", 2 ],
									"destination" : [ "obj-6", 0 ],
									"hidden" : 0,
									"midpoints" : [ 356.5, 195.0, 169.5, 195.0 ]
								}

							}
, 							{
								"patchline" : 								{
									"source" : [ "obj-12", 0 ],
									"destination" : [ "obj-11", 0 ],
									"hidden" : 0,
									"midpoints" : [  ]
								}

							}
, 							{
								"patchline" : 								{
									"source" : [ "obj-10", 0 ],
									"destination" : [ "obj-12", 0 ],
									"hidden" : 0,
									"midpoints" : [  ]
								}

							}
, 							{
								"patchline" : 								{
									"source" : [ "obj-15", 0 ],
									"destination" : [ "obj-10", 0 ],
									"hidden" : 0,
									"midpoints" : [  ]
								}

							}
 ]
					}
,
					"saved_object_attributes" : 					{
						"default_fontface" : 0,
						"default_fontname" : "Arial",
						"fontname" : "Arial",
						"default_fontsize" : 12.0,
						"globalpatchername" : "",
						"fontface" : 0,
						"fontsize" : 12.0
					}

				}

			}
, 			{
				"box" : 				{
					"maxclass" : "newobj",
					"text" : "loadbang",
					"numinlets" : 1,
					"patching_rect" : [ 363.0, -80.0, 48.0, 17.0 ],
					"id" : "obj-28",
					"fontname" : "Arial",
					"numoutlets" : 1,
					"hidden" : 1,
					"outlettype" : [ "bang" ],
					"fontsize" : 9.0
				}

			}
, 			{
				"box" : 				{
					"maxclass" : "message",
					"text" : "title midi control ONEBUBBLE #1",
					"numinlets" : 2,
					"patching_rect" : [ 327.0, -15.0, 143.0, 15.0 ],
					"id" : "obj-29",
					"fontname" : "Arial",
					"numoutlets" : 1,
					"hidden" : 1,
					"outlettype" : [ "" ],
					"fontsize" : 9.0
				}

			}
, 			{
				"box" : 				{
					"maxclass" : "newobj",
					"text" : "thispatcher",
					"numinlets" : 1,
					"patching_rect" : [ 310.0, 140.0, 61.0, 17.0 ],
					"id" : "obj-30",
					"fontname" : "Arial",
					"numoutlets" : 2,
					"hidden" : 1,
					"outlettype" : [ "", "" ],
					"fontsize" : 9.0,
					"save" : [ "#N", "thispatcher", ";", "#Q", "end", ";" ]
				}

			}
, 			{
				"box" : 				{
					"maxclass" : "comment",
					"text" : "mapping setup",
					"numinlets" : 1,
					"patching_rect" : [ 307.0, 12.0, 90.0, 19.0 ],
					"id" : "obj-31",
					"fontname" : "Arial Black",
					"numoutlets" : 0,
					"fontsize" : 9.0
				}

			}
, 			{
				"box" : 				{
					"maxclass" : "newobj",
					"text" : "p mapping_patches",
					"numinlets" : 8,
					"patching_rect" : [ 15.0, 181.0, 98.0, 17.0 ],
					"id" : "obj-32",
					"fontname" : "Arial",
					"numoutlets" : 4,
					"hidden" : 1,
					"outlettype" : [ "bang", "float", "float", "float" ],
					"fontsize" : 9.0,
					"patcher" : 					{
						"fileversion" : 1,
						"rect" : [ 80.0, 45.0, 603.0, 226.0 ],
						"bglocked" : 0,
						"defrect" : [ 80.0, 45.0, 603.0, 226.0 ],
						"openrect" : [ 0.0, 0.0, 0.0, 0.0 ],
						"openinpresentation" : 0,
						"default_fontsize" : 12.0,
						"default_fontface" : 0,
						"default_fontname" : "Arial",
						"gridonopen" : 0,
						"gridsize" : [ 15.0, 15.0 ],
						"gridsnaponopen" : 0,
						"toolbarvisible" : 1,
						"boxanimatetime" : 200,
						"imprint" : 0,
						"enablehscroll" : 1,
						"enablevscroll" : 1,
						"devicewidth" : 0.0,
						"boxes" : [ 							{
								"box" : 								{
									"maxclass" : "newobj",
									"text" : "t open",
									"numinlets" : 1,
									"patching_rect" : [ 179.0, 54.0, 37.0, 17.0 ],
									"id" : "obj-1",
									"fontname" : "Arial",
									"numoutlets" : 1,
									"outlettype" : [ "open" ],
									"fontsize" : 9.0
								}

							}
, 							{
								"box" : 								{
									"maxclass" : "newobj",
									"text" : "pcontrol",
									"numinlets" : 1,
									"patching_rect" : [ 130.0, 54.0, 47.0, 17.0 ],
									"id" : "obj-2",
									"fontname" : "Arial",
									"numoutlets" : 1,
									"outlettype" : [ "" ],
									"fontsize" : 9.0
								}

							}
, 							{
								"box" : 								{
									"maxclass" : "newobj",
									"text" : "t open",
									"numinlets" : 1,
									"patching_rect" : [ 58.0, 54.0, 37.0, 17.0 ],
									"id" : "obj-3",
									"fontname" : "Arial",
									"numoutlets" : 1,
									"outlettype" : [ "open" ],
									"fontsize" : 9.0
								}

							}
, 							{
								"box" : 								{
									"maxclass" : "newobj",
									"text" : "pcontrol",
									"numinlets" : 1,
									"patching_rect" : [ 9.0, 54.0, 47.0, 17.0 ],
									"id" : "obj-4",
									"fontname" : "Arial",
									"numoutlets" : 1,
									"outlettype" : [ "" ],
									"fontsize" : 9.0
								}

							}
, 							{
								"box" : 								{
									"maxclass" : "newobj",
									"text" : "onebubble_preset_interpol #1",
									"numinlets" : 1,
									"patching_rect" : [ 115.0, 74.0, 145.0, 17.0 ],
									"id" : "obj-5",
									"fontname" : "Arial",
									"numoutlets" : 1,
									"outlettype" : [ "float" ],
									"fontsize" : 9.0
								}

							}
, 							{
								"box" : 								{
									"maxclass" : "newobj",
									"text" : "onebubble_bang #1",
									"numinlets" : 1,
									"patching_rect" : [ 1.0, 74.0, 95.0, 17.0 ],
									"id" : "obj-6",
									"fontname" : "Arial",
									"numoutlets" : 1,
									"outlettype" : [ "bang" ],
									"fontsize" : 9.0
								}

							}
, 							{
								"box" : 								{
									"maxclass" : "inlet",
									"numinlets" : 0,
									"patching_rect" : [ 1.0, 34.0, 15.0, 15.0 ],
									"id" : "obj-7",
									"numoutlets" : 1,
									"outlettype" : [ "int" ],
									"comment" : ""
								}

							}
, 							{
								"box" : 								{
									"maxclass" : "inlet",
									"numinlets" : 0,
									"patching_rect" : [ 179.0, 34.0, 15.0, 15.0 ],
									"id" : "obj-8",
									"numoutlets" : 1,
									"outlettype" : [ "" ],
									"comment" : ""
								}

							}
, 							{
								"box" : 								{
									"maxclass" : "inlet",
									"numinlets" : 0,
									"patching_rect" : [ 115.0, 34.0, 15.0, 15.0 ],
									"id" : "obj-9",
									"numoutlets" : 1,
									"outlettype" : [ "" ],
									"comment" : ""
								}

							}
, 							{
								"box" : 								{
									"maxclass" : "inlet",
									"numinlets" : 0,
									"patching_rect" : [ 58.0, 34.0, 15.0, 15.0 ],
									"id" : "obj-10",
									"numoutlets" : 1,
									"outlettype" : [ "" ],
									"comment" : ""
								}

							}
, 							{
								"box" : 								{
									"maxclass" : "outlet",
									"numinlets" : 1,
									"patching_rect" : [ 1.0, 96.0, 15.0, 15.0 ],
									"id" : "obj-11",
									"numoutlets" : 0,
									"comment" : ""
								}

							}
, 							{
								"box" : 								{
									"maxclass" : "outlet",
									"numinlets" : 1,
									"patching_rect" : [ 115.0, 96.0, 15.0, 15.0 ],
									"id" : "obj-12",
									"numoutlets" : 0,
									"comment" : ""
								}

							}
, 							{
								"box" : 								{
									"maxclass" : "newobj",
									"text" : "t open",
									"numinlets" : 1,
									"patching_rect" : [ 459.0, 54.0, 37.0, 17.0 ],
									"id" : "obj-13",
									"fontname" : "Arial",
									"numoutlets" : 1,
									"outlettype" : [ "open" ],
									"fontsize" : 9.0
								}

							}
, 							{
								"box" : 								{
									"maxclass" : "newobj",
									"text" : "pcontrol",
									"numinlets" : 1,
									"patching_rect" : [ 410.0, 54.0, 47.0, 17.0 ],
									"id" : "obj-14",
									"fontname" : "Arial",
									"numoutlets" : 1,
									"outlettype" : [ "" ],
									"fontsize" : 9.0
								}

							}
, 							{
								"box" : 								{
									"maxclass" : "newobj",
									"text" : "t open",
									"numinlets" : 1,
									"patching_rect" : [ 325.0, 54.0, 37.0, 17.0 ],
									"id" : "obj-15",
									"fontname" : "Arial",
									"numoutlets" : 1,
									"outlettype" : [ "open" ],
									"fontsize" : 9.0
								}

							}
, 							{
								"box" : 								{
									"maxclass" : "newobj",
									"text" : "pcontrol",
									"numinlets" : 1,
									"patching_rect" : [ 276.0, 54.0, 47.0, 17.0 ],
									"id" : "obj-16",
									"fontname" : "Arial",
									"numoutlets" : 1,
									"outlettype" : [ "" ],
									"fontsize" : 9.0
								}

							}
, 							{
								"box" : 								{
									"maxclass" : "newobj",
									"text" : "onebubble_slope #1",
									"numinlets" : 1,
									"patching_rect" : [ 395.0, 74.0, 98.0, 17.0 ],
									"id" : "obj-17",
									"fontname" : "Arial",
									"numoutlets" : 1,
									"outlettype" : [ "float" ],
									"fontsize" : 9.0
								}

							}
, 							{
								"box" : 								{
									"maxclass" : "newobj",
									"text" : "onebubble_radiusmap #1",
									"numinlets" : 1,
									"patching_rect" : [ 268.0, 74.0, 121.0, 17.0 ],
									"id" : "obj-18",
									"fontname" : "Arial",
									"numoutlets" : 1,
									"outlettype" : [ "float" ],
									"fontsize" : 9.0
								}

							}
, 							{
								"box" : 								{
									"maxclass" : "inlet",
									"numinlets" : 0,
									"patching_rect" : [ 268.0, 34.0, 15.0, 15.0 ],
									"id" : "obj-19",
									"numoutlets" : 1,
									"outlettype" : [ "" ],
									"comment" : ""
								}

							}
, 							{
								"box" : 								{
									"maxclass" : "inlet",
									"numinlets" : 0,
									"patching_rect" : [ 459.0, 34.0, 15.0, 15.0 ],
									"id" : "obj-20",
									"numoutlets" : 1,
									"outlettype" : [ "" ],
									"comment" : ""
								}

							}
, 							{
								"box" : 								{
									"maxclass" : "inlet",
									"numinlets" : 0,
									"patching_rect" : [ 395.0, 34.0, 15.0, 15.0 ],
									"id" : "obj-21",
									"numoutlets" : 1,
									"outlettype" : [ "" ],
									"comment" : ""
								}

							}
, 							{
								"box" : 								{
									"maxclass" : "inlet",
									"numinlets" : 0,
									"patching_rect" : [ 325.0, 34.0, 15.0, 15.0 ],
									"id" : "obj-22",
									"numoutlets" : 1,
									"outlettype" : [ "" ],
									"comment" : ""
								}

							}
, 							{
								"box" : 								{
									"maxclass" : "outlet",
									"numinlets" : 1,
									"patching_rect" : [ 268.0, 96.0, 15.0, 15.0 ],
									"id" : "obj-23",
									"numoutlets" : 0,
									"comment" : ""
								}

							}
, 							{
								"box" : 								{
									"maxclass" : "outlet",
									"numinlets" : 1,
									"patching_rect" : [ 395.0, 96.0, 15.0, 15.0 ],
									"id" : "obj-24",
									"numoutlets" : 0,
									"comment" : ""
								}

							}
 ],
						"lines" : [ 							{
								"patchline" : 								{
									"source" : [ "obj-20", 0 ],
									"destination" : [ "obj-13", 0 ],
									"hidden" : 0,
									"midpoints" : [  ]
								}

							}
, 							{
								"patchline" : 								{
									"source" : [ "obj-13", 0 ],
									"destination" : [ "obj-14", 0 ],
									"hidden" : 0,
									"midpoints" : [  ]
								}

							}
, 							{
								"patchline" : 								{
									"source" : [ "obj-17", 0 ],
									"destination" : [ "obj-24", 0 ],
									"hidden" : 0,
									"midpoints" : [  ]
								}

							}
, 							{
								"patchline" : 								{
									"source" : [ "obj-14", 0 ],
									"destination" : [ "obj-17", 0 ],
									"hidden" : 0,
									"midpoints" : [  ]
								}

							}
, 							{
								"patchline" : 								{
									"source" : [ "obj-21", 0 ],
									"destination" : [ "obj-17", 0 ],
									"hidden" : 0,
									"midpoints" : [  ]
								}

							}
, 							{
								"patchline" : 								{
									"source" : [ "obj-22", 0 ],
									"destination" : [ "obj-15", 0 ],
									"hidden" : 0,
									"midpoints" : [  ]
								}

							}
, 							{
								"patchline" : 								{
									"source" : [ "obj-15", 0 ],
									"destination" : [ "obj-16", 0 ],
									"hidden" : 0,
									"midpoints" : [  ]
								}

							}
, 							{
								"patchline" : 								{
									"source" : [ "obj-18", 0 ],
									"destination" : [ "obj-23", 0 ],
									"hidden" : 0,
									"midpoints" : [  ]
								}

							}
, 							{
								"patchline" : 								{
									"source" : [ "obj-19", 0 ],
									"destination" : [ "obj-18", 0 ],
									"hidden" : 0,
									"midpoints" : [  ]
								}

							}
, 							{
								"patchline" : 								{
									"source" : [ "obj-16", 0 ],
									"destination" : [ "obj-18", 0 ],
									"hidden" : 0,
									"midpoints" : [  ]
								}

							}
, 							{
								"patchline" : 								{
									"source" : [ "obj-8", 0 ],
									"destination" : [ "obj-1", 0 ],
									"hidden" : 0,
									"midpoints" : [  ]
								}

							}
, 							{
								"patchline" : 								{
									"source" : [ "obj-1", 0 ],
									"destination" : [ "obj-2", 0 ],
									"hidden" : 0,
									"midpoints" : [  ]
								}

							}
, 							{
								"patchline" : 								{
									"source" : [ "obj-5", 0 ],
									"destination" : [ "obj-12", 0 ],
									"hidden" : 0,
									"midpoints" : [  ]
								}

							}
, 							{
								"patchline" : 								{
									"source" : [ "obj-2", 0 ],
									"destination" : [ "obj-5", 0 ],
									"hidden" : 0,
									"midpoints" : [  ]
								}

							}
, 							{
								"patchline" : 								{
									"source" : [ "obj-9", 0 ],
									"destination" : [ "obj-5", 0 ],
									"hidden" : 0,
									"midpoints" : [  ]
								}

							}
, 							{
								"patchline" : 								{
									"source" : [ "obj-10", 0 ],
									"destination" : [ "obj-3", 0 ],
									"hidden" : 0,
									"midpoints" : [  ]
								}

							}
, 							{
								"patchline" : 								{
									"source" : [ "obj-3", 0 ],
									"destination" : [ "obj-4", 0 ],
									"hidden" : 0,
									"midpoints" : [  ]
								}

							}
, 							{
								"patchline" : 								{
									"source" : [ "obj-6", 0 ],
									"destination" : [ "obj-11", 0 ],
									"hidden" : 0,
									"midpoints" : [  ]
								}

							}
, 							{
								"patchline" : 								{
									"source" : [ "obj-4", 0 ],
									"destination" : [ "obj-6", 0 ],
									"hidden" : 0,
									"midpoints" : [  ]
								}

							}
, 							{
								"patchline" : 								{
									"source" : [ "obj-7", 0 ],
									"destination" : [ "obj-6", 0 ],
									"hidden" : 0,
									"midpoints" : [  ]
								}

							}
 ]
					}
,
					"saved_object_attributes" : 					{
						"default_fontface" : 0,
						"default_fontname" : "Arial",
						"fontname" : "Arial",
						"default_fontsize" : 12.0,
						"globalpatchername" : "",
						"fontface" : 0,
						"fontsize" : 12.0
					}

				}

			}
, 			{
				"box" : 				{
					"maxclass" : "comment",
					"text" : "Click on boxes to change mapping",
					"linecount" : 2,
					"numinlets" : 1,
					"patching_rect" : [ 377.0, 20.0, 85.0, 27.0 ],
					"id" : "obj-33",
					"fontname" : "Arial",
					"numoutlets" : 0,
					"fontsize" : 9.0
				}

			}
, 			{
				"box" : 				{
					"maxclass" : "comment",
					"text" : "O u t p u t",
					"linecount" : 6,
					"numinlets" : 1,
					"patching_rect" : [ 293.0, 42.0, 18.0, 69.0 ],
					"id" : "obj-34",
					"fontname" : "Arial",
					"numoutlets" : 0,
					"fontsize" : 9.0
				}

			}
, 			{
				"box" : 				{
					"maxclass" : "message",
					"text" : "Blasting slope",
					"bgcolor" : [ 0.4, 0.4, 0.8, 1.0 ],
					"numinlets" : 2,
					"patching_rect" : [ 376.0, 98.0, 92.0, 15.0 ],
					"id" : "obj-35",
					"fontname" : "Arial",
					"numoutlets" : 1,
					"outlettype" : [ "" ],
					"fontsize" : 9.0
				}

			}
, 			{
				"box" : 				{
					"maxclass" : "message",
					"text" : "Bubble radius",
					"bgcolor" : [ 1.0, 0.890196, 0.090196, 1.0 ],
					"numinlets" : 2,
					"patching_rect" : [ 376.0, 80.0, 92.0, 15.0 ],
					"id" : "obj-36",
					"fontname" : "Arial",
					"numoutlets" : 1,
					"outlettype" : [ "" ],
					"fontsize" : 9.0
				}

			}
, 			{
				"box" : 				{
					"maxclass" : "newobj",
					"text" : "router 3 3",
					"color" : [ 0.8, 0.54902, 0.54902, 1.0 ],
					"numinlets" : 4,
					"patching_rect" : [ 15.0, 139.0, 60.0, 17.0 ],
					"id" : "obj-37",
					"fontname" : "Arial",
					"numoutlets" : 4,
					"hidden" : 1,
					"outlettype" : [ "", "", "", "" ],
					"fontsize" : 9.0
				}

			}
, 			{
				"box" : 				{
					"maxclass" : "matrixctrl",
					"presentation_rect" : [ 0.0, 0.0, 66.0, 66.0 ],
					"columns" : 4,
					"numinlets" : 1,
					"patching_rect" : [ 308.0, 46.0, 66.0, 66.0 ],
					"id" : "obj-38",
					"numoutlets" : 2,
					"bkgndpict" : "MatrixDefaultBkgnd.pct",
					"outlettype" : [ "list", "list" ],
					"cellpict" : "MatrixDefaultCell.pct"
				}

			}
, 			{
				"box" : 				{
					"maxclass" : "comment",
					"text" : "Input",
					"numinlets" : 1,
					"patching_rect" : [ 319.0, 33.0, 29.0, 17.0 ],
					"id" : "obj-39",
					"fontname" : "Arial",
					"numoutlets" : 0,
					"fontsize" : 9.0
				}

			}
, 			{
				"box" : 				{
					"maxclass" : "message",
					"text" : "read",
					"numinlets" : 2,
					"patching_rect" : [ 251.0, 1.0, 35.0, 15.0 ],
					"id" : "obj-40",
					"fontname" : "Arial",
					"numoutlets" : 1,
					"outlettype" : [ "" ],
					"fontsize" : 9.0
				}

			}
, 			{
				"box" : 				{
					"maxclass" : "message",
					"text" : "write",
					"numinlets" : 2,
					"patching_rect" : [ 251.0, 20.0, 35.0, 15.0 ],
					"id" : "obj-41",
					"fontname" : "Arial",
					"numoutlets" : 1,
					"outlettype" : [ "" ],
					"fontsize" : 9.0
				}

			}
, 			{
				"box" : 				{
					"maxclass" : "message",
					"text" : "0",
					"numinlets" : 2,
					"patching_rect" : [ 192.0, 107.0, 50.0, 15.0 ],
					"id" : "obj-42",
					"ignoreclick" : 1,
					"fontname" : "Arial",
					"numoutlets" : 1,
					"outlettype" : [ "" ],
					"fontsize" : 9.0
				}

			}
, 			{
				"box" : 				{
					"maxclass" : "message",
					"text" : "0.02",
					"numinlets" : 2,
					"patching_rect" : [ 130.0, 107.0, 50.0, 15.0 ],
					"id" : "obj-43",
					"ignoreclick" : 1,
					"fontname" : "Arial",
					"numoutlets" : 1,
					"outlettype" : [ "" ],
					"fontsize" : 9.0
				}

			}
, 			{
				"box" : 				{
					"maxclass" : "newobj",
					"text" : "p send_param",
					"numinlets" : 4,
					"patching_rect" : [ 15.0, 204.0, 98.0, 17.0 ],
					"id" : "obj-44",
					"fontname" : "Arial",
					"numoutlets" : 4,
					"hidden" : 1,
					"outlettype" : [ "bang", "", "", "" ],
					"fontsize" : 9.0,
					"patcher" : 					{
						"fileversion" : 1,
						"rect" : [ 36.0, 158.0, 634.0, 345.0 ],
						"bglocked" : 0,
						"defrect" : [ 36.0, 158.0, 634.0, 345.0 ],
						"openrect" : [ 0.0, 0.0, 0.0, 0.0 ],
						"openinpresentation" : 0,
						"default_fontsize" : 12.0,
						"default_fontface" : 0,
						"default_fontname" : "Arial",
						"gridonopen" : 0,
						"gridsize" : [ 15.0, 15.0 ],
						"gridsnaponopen" : 0,
						"toolbarvisible" : 1,
						"boxanimatetime" : 200,
						"imprint" : 0,
						"enablehscroll" : 1,
						"enablevscroll" : 1,
						"devicewidth" : 0.0,
						"boxes" : [ 							{
								"box" : 								{
									"maxclass" : "newobj",
									"text" : "scale 0. 127. 0. 100.",
									"color" : [ 1.0, 0.890196, 0.090196, 1.0 ],
									"numinlets" : 6,
									"patching_rect" : [ 283.0, 61.0, 105.0, 17.0 ],
									"id" : "obj-1",
									"fontname" : "Arial",
									"numoutlets" : 1,
									"outlettype" : [ "" ],
									"fontsize" : 9.0
								}

							}
, 							{
								"box" : 								{
									"maxclass" : "outlet",
									"numinlets" : 1,
									"patching_rect" : [ 7.0, 247.0, 15.0, 15.0 ],
									"id" : "obj-2",
									"numoutlets" : 0,
									"comment" : ""
								}

							}
, 							{
								"box" : 								{
									"maxclass" : "outlet",
									"numinlets" : 1,
									"patching_rect" : [ 111.0, 247.0, 15.0, 15.0 ],
									"id" : "obj-3",
									"numoutlets" : 0,
									"comment" : ""
								}

							}
, 							{
								"box" : 								{
									"maxclass" : "newobj",
									"text" : "prepend set",
									"color" : [ 0.6, 0.4, 0.6, 1.0 ],
									"numinlets" : 1,
									"patching_rect" : [ 111.0, 143.0, 62.0, 17.0 ],
									"id" : "obj-4",
									"fontname" : "Arial",
									"numoutlets" : 1,
									"outlettype" : [ "" ],
									"fontsize" : 9.0
								}

							}
, 							{
								"box" : 								{
									"maxclass" : "inlet",
									"numinlets" : 0,
									"patching_rect" : [ 129.0, 29.0, 15.0, 15.0 ],
									"id" : "obj-5",
									"numoutlets" : 1,
									"outlettype" : [ "float" ],
									"comment" : ""
								}

							}
, 							{
								"box" : 								{
									"maxclass" : "inlet",
									"numinlets" : 0,
									"patching_rect" : [ 22.0, 29.0, 15.0, 15.0 ],
									"id" : "obj-6",
									"numoutlets" : 1,
									"outlettype" : [ "bang" ],
									"comment" : ""
								}

							}
, 							{
								"box" : 								{
									"maxclass" : "newobj",
									"text" : "s #1onebubble_presetinterpolation",
									"linecount" : 3,
									"color" : [ 0.6, 0.4, 0.6, 1.0 ],
									"numinlets" : 1,
									"patching_rect" : [ 129.0, 190.0, 84.0, 38.0 ],
									"id" : "obj-7",
									"fontname" : "Arial",
									"numoutlets" : 0,
									"fontsize" : 9.0
								}

							}
, 							{
								"box" : 								{
									"maxclass" : "newobj",
									"text" : "s #1onebubble_bang",
									"color" : [ 0.8, 0.611765, 0.380392, 1.0 ],
									"numinlets" : 1,
									"patching_rect" : [ 22.0, 190.0, 100.0, 17.0 ],
									"id" : "obj-8",
									"fontname" : "Arial",
									"numoutlets" : 0,
									"fontsize" : 9.0
								}

							}
, 							{
								"box" : 								{
									"maxclass" : "outlet",
									"numinlets" : 1,
									"patching_rect" : [ 380.0, 243.0, 15.0, 15.0 ],
									"id" : "obj-9",
									"numoutlets" : 0,
									"comment" : ""
								}

							}
, 							{
								"box" : 								{
									"maxclass" : "outlet",
									"numinlets" : 1,
									"patching_rect" : [ 261.0, 244.0, 15.0, 15.0 ],
									"id" : "obj-10",
									"numoutlets" : 0,
									"comment" : ""
								}

							}
, 							{
								"box" : 								{
									"maxclass" : "newobj",
									"text" : "prepend set",
									"color" : [ 0.4, 0.4, 0.8, 1.0 ],
									"numinlets" : 1,
									"patching_rect" : [ 380.0, 143.0, 62.0, 17.0 ],
									"id" : "obj-11",
									"fontname" : "Arial",
									"numoutlets" : 1,
									"outlettype" : [ "" ],
									"fontsize" : 9.0
								}

							}
, 							{
								"box" : 								{
									"maxclass" : "newobj",
									"text" : "scale 0. 127. 0. 100.",
									"color" : [ 0.4, 0.4, 0.8, 1.0 ],
									"numinlets" : 6,
									"patching_rect" : [ 400.0, 61.0, 127.0, 17.0 ],
									"id" : "obj-12",
									"fontname" : "Arial",
									"numoutlets" : 1,
									"outlettype" : [ "" ],
									"fontsize" : 9.0
								}

							}
, 							{
								"box" : 								{
									"maxclass" : "newobj",
									"text" : "prepend set",
									"color" : [ 1.0, 0.890196, 0.090196, 1.0 ],
									"numinlets" : 1,
									"patching_rect" : [ 261.0, 143.0, 62.0, 17.0 ],
									"id" : "obj-13",
									"fontname" : "Arial",
									"numoutlets" : 1,
									"outlettype" : [ "" ],
									"fontsize" : 9.0
								}

							}
, 							{
								"box" : 								{
									"maxclass" : "inlet",
									"numinlets" : 0,
									"patching_rect" : [ 403.0, 28.0, 15.0, 15.0 ],
									"id" : "obj-14",
									"numoutlets" : 1,
									"outlettype" : [ "float" ],
									"comment" : ""
								}

							}
, 							{
								"box" : 								{
									"maxclass" : "inlet",
									"numinlets" : 0,
									"patching_rect" : [ 283.0, 28.0, 15.0, 15.0 ],
									"id" : "obj-15",
									"numoutlets" : 1,
									"outlettype" : [ "float" ],
									"comment" : ""
								}

							}
, 							{
								"box" : 								{
									"maxclass" : "newobj",
									"text" : "s #1onebubble_slope",
									"color" : [ 0.4, 0.4, 0.8, 1.0 ],
									"numinlets" : 1,
									"patching_rect" : [ 403.0, 190.0, 103.0, 17.0 ],
									"id" : "obj-16",
									"fontname" : "Arial",
									"numoutlets" : 0,
									"fontsize" : 9.0
								}

							}
, 							{
								"box" : 								{
									"maxclass" : "newobj",
									"text" : "s #1onebubble_radius",
									"color" : [ 1.0, 0.890196, 0.090196, 1.0 ],
									"numinlets" : 1,
									"patching_rect" : [ 283.0, 190.0, 108.0, 17.0 ],
									"id" : "obj-17",
									"fontname" : "Arial",
									"numoutlets" : 0,
									"fontsize" : 9.0
								}

							}
 ],
						"lines" : [ 							{
								"patchline" : 								{
									"source" : [ "obj-12", 0 ],
									"destination" : [ "obj-16", 0 ],
									"hidden" : 0,
									"color" : [ 0.4, 0.4, 0.8, 1.0 ],
									"midpoints" : [ 409.5, 123.0, 412.5, 123.0 ]
								}

							}
, 							{
								"patchline" : 								{
									"source" : [ "obj-14", 0 ],
									"destination" : [ "obj-12", 0 ],
									"hidden" : 0,
									"color" : [ 0.4, 0.4, 0.8, 1.0 ],
									"midpoints" : [ 412.0, 49.0, 409.5, 49.0 ]
								}

							}
, 							{
								"patchline" : 								{
									"source" : [ "obj-11", 0 ],
									"destination" : [ "obj-9", 0 ],
									"hidden" : 0,
									"color" : [ 0.4, 0.4, 0.8, 1.0 ],
									"midpoints" : [  ]
								}

							}
, 							{
								"patchline" : 								{
									"source" : [ "obj-12", 0 ],
									"destination" : [ "obj-11", 0 ],
									"hidden" : 0,
									"color" : [ 0.4, 0.4, 0.8, 1.0 ],
									"midpoints" : [ 409.5, 92.0, 389.5, 92.0 ]
								}

							}
, 							{
								"patchline" : 								{
									"source" : [ "obj-1", 0 ],
									"destination" : [ "obj-17", 0 ],
									"hidden" : 0,
									"color" : [ 1.0, 0.890196, 0.090196, 1.0 ],
									"midpoints" : [  ]
								}

							}
, 							{
								"patchline" : 								{
									"source" : [ "obj-15", 0 ],
									"destination" : [ "obj-1", 0 ],
									"hidden" : 0,
									"color" : [ 1.0, 0.890196, 0.090196, 1.0 ],
									"midpoints" : [  ]
								}

							}
, 							{
								"patchline" : 								{
									"source" : [ "obj-13", 0 ],
									"destination" : [ "obj-10", 0 ],
									"hidden" : 0,
									"color" : [ 1.0, 0.890196, 0.090196, 1.0 ],
									"midpoints" : [  ]
								}

							}
, 							{
								"patchline" : 								{
									"source" : [ "obj-1", 0 ],
									"destination" : [ "obj-13", 0 ],
									"hidden" : 0,
									"color" : [ 1.0, 0.890196, 0.090196, 1.0 ],
									"midpoints" : [ 292.5, 108.0, 270.5, 108.0 ]
								}

							}
, 							{
								"patchline" : 								{
									"source" : [ "obj-5", 0 ],
									"destination" : [ "obj-7", 0 ],
									"hidden" : 0,
									"color" : [ 0.6, 0.4, 0.6, 1.0 ],
									"midpoints" : [  ]
								}

							}
, 							{
								"patchline" : 								{
									"source" : [ "obj-4", 0 ],
									"destination" : [ "obj-3", 0 ],
									"hidden" : 0,
									"color" : [ 0.6, 0.4, 0.6, 1.0 ],
									"midpoints" : [  ]
								}

							}
, 							{
								"patchline" : 								{
									"source" : [ "obj-5", 0 ],
									"destination" : [ "obj-4", 0 ],
									"hidden" : 0,
									"color" : [ 0.6, 0.4, 0.6, 1.0 ],
									"midpoints" : [ 138.0, 108.0, 120.5, 108.0 ]
								}

							}
, 							{
								"patchline" : 								{
									"source" : [ "obj-6", 0 ],
									"destination" : [ "obj-8", 0 ],
									"hidden" : 0,
									"color" : [ 0.8, 0.611765, 0.380392, 1.0 ],
									"midpoints" : [  ]
								}

							}
, 							{
								"patchline" : 								{
									"source" : [ "obj-6", 0 ],
									"destination" : [ "obj-2", 0 ],
									"hidden" : 0,
									"color" : [ 0.8, 0.611765, 0.380392, 1.0 ],
									"midpoints" : [ 31.0, 121.0, 16.0, 121.0 ]
								}

							}
 ]
					}
,
					"saved_object_attributes" : 					{
						"default_fontface" : 0,
						"default_fontname" : "Arial",
						"fontname" : "Arial",
						"default_fontsize" : 12.0,
						"globalpatchername" : "",
						"fontface" : 0,
						"fontsize" : 12.0
					}

				}

			}
, 			{
				"box" : 				{
					"maxclass" : "preset",
					"numinlets" : 1,
					"patching_rect" : [ 251.0, 37.0, 35.0, 88.0 ],
					"margin" : 4,
					"id" : "obj-45",
					"bubblesize" : 8,
					"numoutlets" : 4,
					"spacing" : 2,
					"outlettype" : [ "preset", "int", "preset", "int" ]
				}

			}
, 			{
				"box" : 				{
					"maxclass" : "number",
					"triscale" : 0.9,
					"htextcolor" : [ 0.870588, 0.870588, 0.870588, 1.0 ],
					"bgcolor" : [ 0.866667, 0.866667, 0.866667, 1.0 ],
					"numinlets" : 1,
					"patching_rect" : [ 192.0, 68.0, 35.0, 17.0 ],
					"id" : "obj-46",
					"fontname" : "Arial",
					"numoutlets" : 2,
					"outlettype" : [ "int", "bang" ],
					"minimum" : 0,
					"fontsize" : 9.0,
					"maximum" : 127
				}

			}
, 			{
				"box" : 				{
					"maxclass" : "number",
					"triscale" : 0.9,
					"htextcolor" : [ 0.870588, 0.870588, 0.870588, 1.0 ],
					"bgcolor" : [ 0.866667, 0.866667, 0.866667, 1.0 ],
					"numinlets" : 1,
					"patching_rect" : [ 130.0, 68.0, 35.0, 17.0 ],
					"id" : "obj-47",
					"fontname" : "Arial",
					"numoutlets" : 2,
					"outlettype" : [ "int", "bang" ],
					"minimum" : 0,
					"fontsize" : 9.0,
					"maximum" : 127
				}

			}
, 			{
				"box" : 				{
					"maxclass" : "message",
					"text" : "set $1",
					"bgcolor" : [ 0.156863, 0.8, 0.54902, 1.0 ],
					"numinlets" : 2,
					"patching_rect" : [ 192.0, 78.0, 39.0, 15.0 ],
					"id" : "obj-48",
					"fontname" : "Arial",
					"numoutlets" : 1,
					"hidden" : 1,
					"outlettype" : [ "" ],
					"fontsize" : 9.0
				}

			}
, 			{
				"box" : 				{
					"maxclass" : "message",
					"text" : "set $1",
					"bgcolor" : [ 0.6, 0.4, 0.6, 1.0 ],
					"numinlets" : 2,
					"patching_rect" : [ 130.0, 78.0, 39.0, 15.0 ],
					"id" : "obj-49",
					"fontname" : "Arial",
					"numoutlets" : 1,
					"hidden" : 1,
					"outlettype" : [ "" ],
					"fontsize" : 9.0
				}

			}
, 			{
				"box" : 				{
					"maxclass" : "newobj",
					"text" : "ctlin 4",
					"color" : [ 0.156863, 0.8, 0.54902, 1.0 ],
					"numinlets" : 1,
					"patching_rect" : [ 192.0, 88.0, 39.0, 17.0 ],
					"id" : "obj-50",
					"fontname" : "Arial",
					"numoutlets" : 2,
					"outlettype" : [ "int", "int" ],
					"fontsize" : 9.0
				}

			}
, 			{
				"box" : 				{
					"maxclass" : "newobj",
					"text" : "ctlin 3",
					"color" : [ 0.6, 0.4, 0.6, 1.0 ],
					"numinlets" : 1,
					"patching_rect" : [ 130.0, 88.0, 39.0, 17.0 ],
					"id" : "obj-51",
					"fontname" : "Arial",
					"numoutlets" : 2,
					"outlettype" : [ "int", "int" ],
					"fontsize" : 9.0
				}

			}
, 			{
				"box" : 				{
					"maxclass" : "panel",
					"bgcolor" : [ 0.745098, 0.901961, 0.65098, 1.0 ],
					"numinlets" : 1,
					"patching_rect" : [ 125.0, 37.0, 60.0, 88.0 ],
					"id" : "obj-52",
					"rounded" : 0,
					"numoutlets" : 0,
					"bordercolor" : [ 1.0, 1.0, 1.0, 1.0 ]
				}

			}
, 			{
				"box" : 				{
					"maxclass" : "comment",
					"text" : "Blasting slope",
					"linecount" : 2,
					"numinlets" : 1,
					"patching_rect" : [ 193.0, 41.0, 49.0, 27.0 ],
					"id" : "obj-53",
					"fontname" : "Arial",
					"numoutlets" : 0,
					"fontsize" : 9.0
				}

			}
, 			{
				"box" : 				{
					"maxclass" : "panel",
					"bgcolor" : [ 0.745098, 0.901961, 0.65098, 1.0 ],
					"numinlets" : 1,
					"patching_rect" : [ 187.0, 37.0, 60.0, 88.0 ],
					"id" : "obj-54",
					"rounded" : 0,
					"numoutlets" : 0,
					"bordercolor" : [ 1.0, 1.0, 1.0, 1.0 ]
				}

			}
 ],
		"lines" : [ 			{
				"patchline" : 				{
					"source" : [ "obj-87", 1 ],
					"destination" : [ "obj-85", 0 ],
					"hidden" : 1,
					"midpoints" : [  ]
				}

			}
, 			{
				"patchline" : 				{
					"source" : [ "obj-87", 0 ],
					"destination" : [ "obj-24", 0 ],
					"hidden" : 1,
					"midpoints" : [  ]
				}

			}
, 			{
				"patchline" : 				{
					"source" : [ "obj-25", 0 ],
					"destination" : [ "obj-87", 0 ],
					"hidden" : 1,
					"midpoints" : [  ]
				}

			}
, 			{
				"patchline" : 				{
					"source" : [ "obj-21", 0 ],
					"destination" : [ "obj-27", 1 ],
					"hidden" : 1,
					"midpoints" : [ 241.0, -48.0, 450.5, -48.0 ]
				}

			}
, 			{
				"patchline" : 				{
					"source" : [ "obj-30", 0 ],
					"destination" : [ "obj-27", 0 ],
					"hidden" : 1,
					"midpoints" : [  ]
				}

			}
, 			{
				"patchline" : 				{
					"source" : [ "obj-28", 0 ],
					"destination" : [ "obj-29", 0 ],
					"hidden" : 1,
					"midpoints" : [  ]
				}

			}
, 			{
				"patchline" : 				{
					"source" : [ "obj-4", 0 ],
					"destination" : [ "obj-30", 0 ],
					"hidden" : 1,
					"midpoints" : [  ]
				}

			}
, 			{
				"patchline" : 				{
					"source" : [ "obj-5", 0 ],
					"destination" : [ "obj-30", 0 ],
					"hidden" : 1,
					"midpoints" : [  ]
				}

			}
, 			{
				"patchline" : 				{
					"source" : [ "obj-24", 0 ],
					"destination" : [ "obj-30", 0 ],
					"hidden" : 1,
					"midpoints" : [  ]
				}

			}
, 			{
				"patchline" : 				{
					"source" : [ "obj-27", 1 ],
					"destination" : [ "obj-30", 0 ],
					"hidden" : 1,
					"midpoints" : [ 450.5, 160.0, 466.0, 160.0, 466.0, 134.0, 319.5, 134.0 ]
				}

			}
, 			{
				"patchline" : 				{
					"source" : [ "obj-27", 0 ],
					"destination" : [ "obj-30", 0 ],
					"hidden" : 1,
					"midpoints" : [  ]
				}

			}
, 			{
				"patchline" : 				{
					"source" : [ "obj-29", 0 ],
					"destination" : [ "obj-30", 0 ],
					"hidden" : 1,
					"midpoints" : [  ]
				}

			}
, 			{
				"patchline" : 				{
					"source" : [ "obj-23", 0 ],
					"destination" : [ "obj-38", 0 ],
					"hidden" : 1,
					"midpoints" : [  ]
				}

			}
, 			{
				"patchline" : 				{
					"source" : [ "obj-28", 0 ],
					"destination" : [ "obj-23", 0 ],
					"hidden" : 1,
					"midpoints" : [ 372.5, -49.0, 317.5, -49.0 ]
				}

			}
, 			{
				"patchline" : 				{
					"source" : [ "obj-41", 0 ],
					"destination" : [ "obj-45", 0 ],
					"hidden" : 1,
					"midpoints" : [  ]
				}

			}
, 			{
				"patchline" : 				{
					"source" : [ "obj-40", 0 ],
					"destination" : [ "obj-45", 0 ],
					"hidden" : 1,
					"midpoints" : [  ]
				}

			}
, 			{
				"patchline" : 				{
					"source" : [ "obj-28", 0 ],
					"destination" : [ "obj-4", 0 ],
					"hidden" : 1,
					"midpoints" : [ 372.5, -55.0, 249.5, -55.0 ]
				}

			}
, 			{
				"patchline" : 				{
					"source" : [ "obj-20", 0 ],
					"destination" : [ "obj-21", 0 ],
					"hidden" : 1,
					"midpoints" : [  ]
				}

			}
, 			{
				"patchline" : 				{
					"source" : [ "obj-22", 0 ],
					"destination" : [ "obj-20", 0 ],
					"hidden" : 1,
					"midpoints" : [  ]
				}

			}
, 			{
				"patchline" : 				{
					"source" : [ "obj-44", 3 ],
					"destination" : [ "obj-42", 0 ],
					"hidden" : 1,
					"color" : [ 0.611765, 0.701961, 1.0, 1.0 ],
					"midpoints" : [ 103.5, 223.0, -15.0, 223.0, -15.0, 9.0, 201.5, 9.0 ]
				}

			}
, 			{
				"patchline" : 				{
					"source" : [ "obj-48", 0 ],
					"destination" : [ "obj-50", 0 ],
					"hidden" : 1,
					"color" : [ 0.156863, 0.8, 0.54902, 1.0 ],
					"midpoints" : [  ]
				}

			}
, 			{
				"patchline" : 				{
					"source" : [ "obj-46", 0 ],
					"destination" : [ "obj-48", 0 ],
					"hidden" : 1,
					"midpoints" : [  ]
				}

			}
, 			{
				"patchline" : 				{
					"source" : [ "obj-45", 0 ],
					"destination" : [ "obj-46", 0 ],
					"hidden" : 1,
					"midpoints" : [  ]
				}

			}
, 			{
				"patchline" : 				{
					"source" : [ "obj-44", 2 ],
					"destination" : [ "obj-43", 0 ],
					"hidden" : 1,
					"color" : [ 0.611765, 0.701961, 1.0, 1.0 ],
					"midpoints" : [ 77.166664, 223.0, -15.0, 223.0, -15.0, 9.0, 139.5, 9.0 ]
				}

			}
, 			{
				"patchline" : 				{
					"source" : [ "obj-49", 0 ],
					"destination" : [ "obj-51", 0 ],
					"hidden" : 1,
					"color" : [ 0.6, 0.4, 0.6, 1.0 ],
					"midpoints" : [  ]
				}

			}
, 			{
				"patchline" : 				{
					"source" : [ "obj-47", 0 ],
					"destination" : [ "obj-49", 0 ],
					"hidden" : 1,
					"color" : [ 0.6, 0.4, 0.6, 1.0 ],
					"midpoints" : [  ]
				}

			}
, 			{
				"patchline" : 				{
					"source" : [ "obj-45", 0 ],
					"destination" : [ "obj-47", 0 ],
					"hidden" : 1,
					"midpoints" : [  ]
				}

			}
, 			{
				"patchline" : 				{
					"source" : [ "obj-32", 3 ],
					"destination" : [ "obj-44", 3 ],
					"hidden" : 1,
					"midpoints" : [  ]
				}

			}
, 			{
				"patchline" : 				{
					"source" : [ "obj-35", 0 ],
					"destination" : [ "obj-32", 7 ],
					"hidden" : 1,
					"color" : [ 0.156863, 0.8, 0.54902, 1.0 ],
					"midpoints" : [ 385.5, 169.0, 103.5, 169.0 ]
				}

			}
, 			{
				"patchline" : 				{
					"source" : [ "obj-37", 2 ],
					"destination" : [ "obj-32", 6 ],
					"hidden" : 1,
					"color" : [ 0.8, 0.54902, 0.54902, 1.0 ],
					"midpoints" : [ 51.833332, 163.0, 92.214287, 163.0 ]
				}

			}
, 			{
				"patchline" : 				{
					"source" : [ "obj-36", 0 ],
					"destination" : [ "obj-32", 5 ],
					"hidden" : 1,
					"color" : [ 0.156863, 0.8, 0.54902, 1.0 ],
					"midpoints" : [ 385.5, 169.0, 80.928574, 169.0 ]
				}

			}
, 			{
				"patchline" : 				{
					"source" : [ "obj-32", 2 ],
					"destination" : [ "obj-44", 2 ],
					"hidden" : 1,
					"midpoints" : [  ]
				}

			}
, 			{
				"patchline" : 				{
					"source" : [ "obj-44", 1 ],
					"destination" : [ "obj-10", 0 ],
					"hidden" : 1,
					"color" : [ 0.611765, 0.701961, 1.0, 1.0 ],
					"midpoints" : [ 50.833332, 223.0, -15.0, 223.0, -15.0, 9.0, 78.5, 9.0 ]
				}

			}
, 			{
				"patchline" : 				{
					"source" : [ "obj-13", 0 ],
					"destination" : [ "obj-15", 0 ],
					"hidden" : 1,
					"color" : [ 0.156863, 0.8, 0.54902, 1.0 ],
					"midpoints" : [  ]
				}

			}
, 			{
				"patchline" : 				{
					"source" : [ "obj-11", 0 ],
					"destination" : [ "obj-13", 0 ],
					"hidden" : 1,
					"midpoints" : [  ]
				}

			}
, 			{
				"patchline" : 				{
					"source" : [ "obj-45", 0 ],
					"destination" : [ "obj-11", 0 ],
					"hidden" : 1,
					"midpoints" : [  ]
				}

			}
, 			{
				"patchline" : 				{
					"source" : [ "obj-37", 1 ],
					"destination" : [ "obj-32", 4 ],
					"hidden" : 1,
					"color" : [ 0.8, 0.54902, 0.54902, 1.0 ],
					"midpoints" : [ 38.166668, 163.0, 69.64286, 163.0 ]
				}

			}
, 			{
				"patchline" : 				{
					"source" : [ "obj-50", 0 ],
					"destination" : [ "obj-37", 3 ],
					"hidden" : 1,
					"color" : [ 0.8, 0.54902, 0.54902, 1.0 ],
					"midpoints" : [ 201.5, 135.0, 65.5, 135.0 ]
				}

			}
, 			{
				"patchline" : 				{
					"source" : [ "obj-7", 0 ],
					"destination" : [ "obj-32", 3 ],
					"hidden" : 1,
					"color" : [ 0.156863, 0.8, 0.54902, 1.0 ],
					"midpoints" : [ 385.5, 169.0, 58.357143, 169.0 ]
				}

			}
, 			{
				"patchline" : 				{
					"source" : [ "obj-26", 0 ],
					"destination" : [ "obj-25", 0 ],
					"hidden" : 1,
					"midpoints" : [  ]
				}

			}
, 			{
				"patchline" : 				{
					"source" : [ "obj-51", 0 ],
					"destination" : [ "obj-37", 2 ],
					"hidden" : 1,
					"color" : [ 0.8, 0.54902, 0.54902, 1.0 ],
					"midpoints" : [ 139.5, 135.0, 51.833332, 135.0 ]
				}

			}
, 			{
				"patchline" : 				{
					"source" : [ "obj-32", 1 ],
					"destination" : [ "obj-44", 1 ],
					"hidden" : 1,
					"midpoints" : [  ]
				}

			}
, 			{
				"patchline" : 				{
					"source" : [ "obj-37", 0 ],
					"destination" : [ "obj-32", 2 ],
					"hidden" : 1,
					"color" : [ 0.8, 0.54902, 0.54902, 1.0 ],
					"midpoints" : [ 24.5, 163.0, 47.07143, 163.0 ]
				}

			}
, 			{
				"patchline" : 				{
					"source" : [ "obj-15", 0 ],
					"destination" : [ "obj-37", 1 ],
					"hidden" : 1,
					"color" : [ 0.8, 0.54902, 0.54902, 1.0 ],
					"midpoints" : [ 78.5, 135.0, 38.166668, 135.0 ]
				}

			}
, 			{
				"patchline" : 				{
					"source" : [ "obj-8", 0 ],
					"destination" : [ "obj-32", 1 ],
					"hidden" : 1,
					"color" : [ 0.156863, 0.8, 0.54902, 1.0 ],
					"midpoints" : [ 385.5, 169.0, 35.785713, 169.0 ]
				}

			}
, 			{
				"patchline" : 				{
					"source" : [ "obj-44", 0 ],
					"destination" : [ "obj-2", 0 ],
					"hidden" : 1,
					"color" : [ 0.6, 0.6, 1.0, 1.0 ],
					"midpoints" : [ 24.5, 223.0, -15.0, 223.0, -15.0, 9.0, 25.5, 9.0 ]
				}

			}
, 			{
				"patchline" : 				{
					"source" : [ "obj-32", 0 ],
					"destination" : [ "obj-44", 0 ],
					"hidden" : 1,
					"midpoints" : [  ]
				}

			}
, 			{
				"patchline" : 				{
					"source" : [ "obj-16", 0 ],
					"destination" : [ "obj-32", 0 ],
					"hidden" : 1,
					"color" : [ 0.8, 0.54902, 0.54902, 1.0 ],
					"midpoints" : [ 16.5, 171.0, 24.5, 171.0 ]
				}

			}
, 			{
				"patchline" : 				{
					"source" : [ "obj-38", 0 ],
					"destination" : [ "obj-37", 0 ],
					"hidden" : 1,
					"color" : [ 1.0, 0.890196, 0.090196, 1.0 ],
					"midpoints" : [ 317.5, 131.0, 24.5, 131.0 ]
				}

			}
, 			{
				"patchline" : 				{
					"source" : [ "obj-14", 0 ],
					"destination" : [ "obj-16", 0 ],
					"hidden" : 1,
					"color" : [ 0.6, 0.4, 0.6, 1.0 ],
					"midpoints" : [  ]
				}

			}
, 			{
				"patchline" : 				{
					"source" : [ "obj-12", 0 ],
					"destination" : [ "obj-14", 0 ],
					"hidden" : 1,
					"color" : [ 0.6, 0.4, 0.6, 1.0 ],
					"midpoints" : [  ]
				}

			}
, 			{
				"patchline" : 				{
					"source" : [ "obj-45", 0 ],
					"destination" : [ "obj-12", 0 ],
					"hidden" : 1,
					"midpoints" : [  ]
				}

			}
, 			{
				"patchline" : 				{
					"source" : [ "obj-55", 0 ],
					"destination" : [ "obj-25", 0 ],
					"hidden" : 1,
					"midpoints" : [  ]
				}

			}
 ]
	}

}
