#N canvas 106 281 544 249 10;
#X obj 357 72 delwrite~ d2 1000;
#X obj 356 119 delwrite~ d3 1000;
#X obj 357 25 delwrite~ d1 1000;
#X obj 118 191 *~ 0.1;
#X obj 230 153 delread~ d3 33;
#X obj 118 153 delread~ d2 121;
#X obj 6 153 delread~ d1 165;
#X obj 4 48 throw~ b1;
#X obj 73 48 throw~ b2;
#X obj 142 48 throw~ b3;
#X obj 357 2 catch~ b1;
#X obj 357 48 catch~ b2;
#X obj 356 97 catch~ b3;
#X obj 9 227 throw~ b1;
#X obj 77 227 throw~ b2;
#X obj 145 227 throw~ b3;
#X obj 393 201 +~;
#X obj 213 227 send~ echo;
#X obj 443 151 receive~ echo;
#X obj 211 48 send~ dir;
#X obj 354 151 receive~ dir;
#X obj 393 225 outlet~;
#X obj 120 14 inlet~;
#X obj 354 175 *~ 0.7;
#X obj 443 176 *~ 0.5;
#X connect 3 0 13 0;
#X connect 3 0 14 0;
#X connect 3 0 15 0;
#X connect 3 0 17 0;
#X connect 4 0 3 0;
#X connect 5 0 3 0;
#X connect 6 0 3 0;
#X connect 10 0 2 0;
#X connect 11 0 0 0;
#X connect 12 0 1 0;
#X connect 16 0 21 0;
#X connect 18 0 24 0;
#X connect 20 0 23 0;
#X connect 22 0 7 0;
#X connect 22 0 8 0;
#X connect 22 0 9 0;
#X connect 22 0 19 0;
#X connect 23 0 16 0;
#X connect 24 0 16 1;
