#N canvas 69 130 91 194 10;
#X obj 0 174 dac~;
#X obj 1 75 +~ 300;
#X msg 35 3 3;
#X msg 1 3 0.1;
#X obj 1 51 *~ 800;
#X obj 1 147 environment;
#X obj 1 123 plastichorn~;
#X obj 1 99 logosc~;
#X obj 1 27 logosc~;
#X connect 1 0 7 0;
#X connect 2 0 8 0;
#X connect 3 0 8 0;
#X connect 4 0 1 0;
#X connect 5 0 0 0;
#X connect 5 0 0 1;
#X connect 6 0 5 0;
#X connect 7 0 6 0;
#X connect 8 0 4 0;
