#N canvas 0 0 662 618 10;
#X obj 178 8 noise~;
#X obj 178 52 *~ 0.16666;
#X obj 263 52 *~ 0.33333;
#X obj 179 81 throw~ left;
#X obj 262 81 throw~ right;
#X obj 1 81 throw~ left;
#X obj 84 81 throw~ right;
#X obj 85 52 *~ 0.16666;
#X obj 1 53 *~ 0.33333;
#X obj 122 119 catch~ left;
#X obj 205 118 catch~ right;
#X obj 84 7 osc~ 1000;
#X obj 2 319 dac~ 1 2;
#X obj 42 266 tgl 15 0 empty empty empty 0 -6 0 8 -262144 -1 -1 0 1
;
#X obj 1 295 *~;
#X obj 52 295 *~;
#X obj 134 319 dac~ 1 2;
#X obj 168 246 tgl 15 0 empty empty empty 0 -6 0 8 -262144 -1 -1 0
1;
#X obj 133 272 *~;
#X obj 184 272 *~;
#X obj 206 173 *~ 0.16666;
#X obj 291 172 *~ 0.33333;
#X obj 121 173 *~ 0.16666;
#X obj 38 174 *~ 0.33333;
#X obj 134 225 -~;
#X obj 183 225 -~;
#X connect 0 0 1 0;
#X connect 0 0 2 0;
#X connect 1 0 3 0;
#X connect 2 0 4 0;
#X connect 7 0 6 0;
#X connect 8 0 5 0;
#X connect 9 0 14 0;
#X connect 9 0 23 0;
#X connect 9 0 22 0;
#X connect 10 0 15 0;
#X connect 10 0 20 0;
#X connect 10 0 21 0;
#X connect 11 0 7 0;
#X connect 11 0 8 0;
#X connect 13 0 14 1;
#X connect 13 0 15 1;
#X connect 14 0 12 0;
#X connect 15 0 12 1;
#X connect 17 0 18 1;
#X connect 17 0 19 1;
#X connect 18 0 16 0;
#X connect 19 0 16 1;
#X connect 20 0 24 1;
#X connect 21 0 25 1;
#X connect 22 0 25 0;
#X connect 23 0 24 0;
#X connect 24 0 18 0;
#X connect 25 0 19 0;
