#N canvas 419 231 446 329 10;
#X obj 71 137 waterflow;
#X obj 173 252 dac~;
#X msg 71 105 2;
#X obj 70 161 *~ 0.2;
#X obj 173 136 waterflow;
#X msg 233 104 600;
#X msg 173 104 6;
#X obj 172 160 *~ 0.5;
#X obj 278 135 waterflow;
#X msg 338 103 400;
#X msg 278 103 12;
#X obj 277 159 *~ 0.8;
#X msg 131 105 800;
#X obj 173 48 loadbang;
#X obj 173 204 *~ 0.8;
#X connect 0 0 3 0;
#X connect 2 0 0 0;
#X connect 3 0 14 0;
#X connect 4 0 7 0;
#X connect 5 0 4 1;
#X connect 6 0 4 0;
#X connect 7 0 14 0;
#X connect 8 0 11 0;
#X connect 9 0 8 1;
#X connect 10 0 8 0;
#X connect 11 0 14 0;
#X connect 12 0 0 1;
#X connect 13 0 6 0;
#X connect 13 0 5 0;
#X connect 13 0 10 0;
#X connect 13 0 9 0;
#X connect 13 0 12 0;
#X connect 13 0 2 0;
#X connect 14 0 1 0;
#X connect 14 0 1 1;
