#N canvas 238 219 206 279 10;
#X obj 5 145 osc~;
#X obj 5 112 line~;
#X obj 46 211 *~;
#X obj 62 186 lop~ 10;
#X obj 62 166 clip~ 0 1;
#X obj 62 145 fexpr~ $x1 - $x1[-1];
#X obj 5 5 tgl 15 0 empty empty empty 0 -6 0 8 -262144 -1 -1 1 1;
#X obj 46 258 dac~;
#X obj 5 47 random 1600;
#X obj 5 68 + 400;
#X obj 46 234 *~ 0.1;
#X obj 5 27 metro 12;
#X obj 59 69 hsl 64 12 0 5 0 0 empty empty slew 20 6 1 8 -262144 -1
-1 1000 1;
#X floatatom 70 90 5 0 0 0 - - -;
#X obj 5 91 pack 1 3;
#X connect 0 0 2 0;
#X connect 1 0 0 0;
#X connect 1 0 5 0;
#X connect 2 0 10 0;
#X connect 3 0 2 1;
#X connect 4 0 3 0;
#X connect 5 0 4 0;
#X connect 6 0 11 0;
#X connect 8 0 9 0;
#X connect 9 0 14 0;
#X connect 10 0 7 0;
#X connect 10 0 7 1;
#X connect 11 0 8 0;
#X connect 12 0 13 0;
#X connect 12 0 14 1;
#X connect 14 0 1 0;
