#N canvas 0 0 498 689 10;
#X obj 240 341 osc~;
#X obj 76 339 delta~;
#X obj 60 460 *~;
#X obj 61 570 dac~;
#X obj 81 -23 noise~;
#X obj 112 511 hsl 128 15 0.05 5 1 1 empty empty empty -2 -6 0 8 -262144
-1 -1 8700 1;
#X obj 82 156 +~ 1000;
#X obj 81 132 *~ 1000;
#X obj 60 425 *~ 0.01;
#X obj 61 541 *~;
#X obj 145 107 hsl 128 15 0 20000 0 1 empty empty empty -2 -6 0 8 -262144
-1 -1 1100 1;
#X obj 144 133 hsl 128 15 0 5000 0 1 empty empty empty -2 -6 0 8 -262144
-1 -1 700 1;
#X obj 82 287 *~;
#X obj 119 261 hsl 128 15 0.03 3 1 1 empty empty empty -2 -6 0 8 -262144
-1 -1 10400 1;
#X obj 134 396 hsl 128 15 0.03 3 1 1 empty empty empty -2 -6 0 8 -262144
-1 -1 1000 1;
#X obj 143 -24 hsl 128 15 0.05 50 1 1 empty empty empty -2 -6 0 8 -262144
-1 -1 9200 1;
#X obj 285 242 hsl 128 15 0.03 30 1 1 empty empty empty -2 -6 0 8 -262144
-1 -1 200 1;
#X obj 264 265 *~;
#X obj 80 6 hip~ 40;
#X obj 81 31 hip~ 40;
#X obj 61 512 *~ 45;
#X obj 80 85 bp~ 15 7;
#X obj 77 361 max~ 0;
#X obj 76 383 min~ 1;
#X obj 106 62 + 2;
#X obj 82 262 *~;
#X obj 83 230 *~ 0.01;
#X obj 139 210 hsl 128 15 0.005 0.5 1 1 empty empty empty -2 -6 0 8
-262144 -1 -1 3500 1;
#X obj 60 481 hip~ 200;
#X obj 240 317 pow~;
#X obj 239 293 sig~ 2;
#X obj 82 310 lop~ 60;
#X connect 0 0 2 1;
#X connect 1 0 22 0;
#X connect 2 0 28 0;
#X connect 4 0 18 0;
#X connect 5 0 9 1;
#X connect 6 0 26 0;
#X connect 6 0 17 0;
#X connect 7 0 6 0;
#X connect 8 0 2 0;
#X connect 9 0 3 0;
#X connect 9 0 3 1;
#X connect 10 0 7 1;
#X connect 11 0 6 1;
#X connect 12 0 31 0;
#X connect 13 0 12 1;
#X connect 14 0 8 1;
#X connect 15 0 18 1;
#X connect 15 0 19 1;
#X connect 15 0 24 0;
#X connect 16 0 17 1;
#X connect 17 0 29 1;
#X connect 18 0 19 0;
#X connect 19 0 21 0;
#X connect 20 0 9 0;
#X connect 21 0 7 0;
#X connect 22 0 23 0;
#X connect 23 0 8 0;
#X connect 24 0 21 1;
#X connect 25 0 12 0;
#X connect 26 0 25 0;
#X connect 26 0 25 1;
#X connect 27 0 26 1;
#X connect 28 0 20 0;
#X connect 29 0 0 0;
#X connect 30 0 29 0;
#X connect 31 0 1 0;
