#N canvas 15 39 477 713 10;
#X obj 46 371 osc~;
#X obj 46 347 line~;
#X obj 45 557 *~;
#X obj 60 534 *~;
#X obj 46 236 metro 6;
#X obj 46 207 tgl 15 0 empty empty empty 0 -6 0 8 -262144 -1 -1 1 1
;
#X obj 45 578 *~;
#X obj 256 78 vsl 15 128 0.04 4 1 0 empty empty amp 0 -8 0 8 -250685
-1 -1 12700 1;
#X obj 46 302 + 800;
#X obj 46 280 * 800;
#X obj 190 77 vsl 15 128 0.04 5000 1 0 empty empty base 0 -8 0 8 -24198
-1 -1 10400 1;
#X obj 153 77 vsl 15 128 0.04 5000 0 0 empty empty range 0 -8 0 8 -62784
-1 -1 2400 1;
#X obj 283 80 vsl 15 128 0.04 15000 0 0 empty empty hip 0 -8 0 8 -241291
-1 -1 2200 1;
#X obj 45 599 hip~ 10;
#X obj 46 326 pack 1 2;
#X obj 223 77 vsl 15 128 0.04 20 1 0 empty empty slew 0 -8 0 8 -258699
-1 -1 12200 1;
#X obj 120 77 vsl 15 128 5 50 0 0 empty empty rate 0 -8 0 8 -1109 -1
-1 4500 1;
#X obj 60 509 lop~ 10;
#N canvas 0 0 263 285 bilexp 0;
#X obj 55 180 expr exp($f1);
#X obj 55 80 random 8192;
#X obj 55 153 * 9;
#X obj 55 108 wrap 4096;
#X obj 55 130 / 4096;
#X obj 127 105 > 4096;
#X obj 127 127 sel 0 1;
#X msg 119 155 -1;
#X msg 151 155 1;
#X obj 55 204 *;
#X obj 55 59 t b;
#X obj 55 38 inlet;
#X obj 55 252 outlet;
#X text 36 6 bipolar exponential randoms;
#X obj 55 228 / 8192;
#X connect 0 0 9 0;
#X connect 1 0 3 0;
#X connect 1 0 5 0;
#X connect 2 0 0 0;
#X connect 3 0 4 0;
#X connect 4 0 2 0;
#X connect 5 0 6 0;
#X connect 6 0 7 0;
#X connect 6 1 8 0;
#X connect 7 0 9 1;
#X connect 8 0 9 1;
#X connect 9 0 14 0;
#X connect 10 0 1 0;
#X connect 11 0 10 0;
#X connect 14 0 12 0;
#X restore 46 257 pd bilexp;
#X obj 61 486 clip~ 0 1;
#X obj 45 626 dac~;
#X obj 61 464 -~;
#X obj 61 396 hip~ 1000;
#X obj 76 421 delwrite~ a 1;
#X obj 76 442 vd~ a 0.001;
#X connect 0 0 2 0;
#X connect 1 0 0 0;
#X connect 1 0 22 0;
#X connect 2 0 6 0;
#X connect 3 0 2 1;
#X connect 4 0 18 0;
#X connect 5 0 4 0;
#X connect 6 0 13 0;
#X connect 7 0 6 1;
#X connect 8 0 14 0;
#X connect 9 0 8 0;
#X connect 10 0 8 1;
#X connect 11 0 9 1;
#X connect 12 0 13 1;
#X connect 13 0 20 0;
#X connect 13 0 20 1;
#X connect 14 0 1 0;
#X connect 15 0 14 1;
#X connect 16 0 4 1;
#X connect 17 0 3 0;
#X connect 17 0 3 1;
#X connect 18 0 9 0;
#X connect 19 0 17 0;
#X connect 21 0 19 0;
#X connect 22 0 21 0;
#X connect 22 0 23 0;
#X connect 24 0 21 1;
