#N canvas 23 175 455 521 10;
#X obj 60 317 *~;
#X obj 60 389 dac~;
#X obj 82 7 noise~;
#X obj 252 38 hsl 128 15 0.01 1000 1 1 empty empty empty -2 -6 0 8
-262144 -1 -1 8600 1;
#X obj 60 338 hip~ 200;
#X obj 132 161 pow~;
#X obj 131 137 sig~ 2.71828;
#X obj 254 -38 hsl 128 15 0.01 40 1 1 empty empty empty -2 -6 0 8 -262144
-1 -1 10300 1;
#X floatatom 255 59 5 0 0 0 - - -;
#X obj 188 94 *~ 26.6;
#X floatatom 251 -19 5 0 0 0 - - -;
#X obj 131 227 phasor~;
#X obj 131 249 cos~;
#X obj 60 271 rpole~ 0.999;
#X obj 131 205 +~ 300;
#X obj 131 183 *~ 1300;
#X obj 59 293 clip~ 0 1;
#X obj 251 79 hsl 128 15 0.01 2000 1 1 empty empty empty -2 -6 0 8
-262144 -1 -1 11200 1;
#X floatatom 254 100 5 0 0 0 - - -;
#X obj 248 117 hsl 128 15 0.01 2000 1 1 empty empty empty -2 -6 0 8
-262144 -1 -1 7400 1;
#X floatatom 251 138 5 0 0 0 - - -;
#X obj 57 161 pow~;
#X obj 81 116 *~ 16;
#X obj 82 51 clip~ 0 1;
#X obj 253 -1 hsl 128 15 0.01 1000 1 1 empty empty empty -2 -6 0 8
-262144 -1 -1 11200 1;
#X floatatom 250 20 5 0 0 0 - - -;
#X obj 56 137 sig~ 3;
#X obj 189 116 +~ 1;
#X obj 83 28 bp~ 8 5;
#X obj 61 362 *~ 1;
#X obj 59 249 *~ 0.0007;
#X obj 57 204 hip~ 8;
#X obj 57 183 *~ 20;
#X obj 234 198 hsl 128 15 0.01 1 1 1 empty empty empty -2 -6 0 8 -262144
-1 -1 6100 1;
#X floatatom 237 219 5 0 0 0 - - -;
#X obj 82 73 delwrite~ b 300;
#X obj 82 93 delread~ b 100;
#X obj 58 227 lop~ 800;
#X connect 0 0 4 0;
#X connect 2 0 28 0;
#X connect 3 0 8 0;
#X connect 3 0 9 1;
#X connect 4 0 29 0;
#X connect 5 0 15 0;
#X connect 6 0 5 0;
#X connect 7 0 10 0;
#X connect 7 0 28 1;
#X connect 9 0 27 0;
#X connect 11 0 12 0;
#X connect 12 0 0 1;
#X connect 13 0 16 0;
#X connect 14 0 11 0;
#X connect 15 0 14 0;
#X connect 16 0 0 0;
#X connect 17 0 18 0;
#X connect 17 0 15 1;
#X connect 19 0 20 0;
#X connect 19 0 14 1;
#X connect 21 0 32 0;
#X connect 22 0 21 1;
#X connect 23 0 35 0;
#X connect 24 0 25 0;
#X connect 24 0 36 0;
#X connect 26 0 21 0;
#X connect 27 0 5 1;
#X connect 28 0 9 0;
#X connect 28 0 23 0;
#X connect 29 0 1 0;
#X connect 29 0 1 1;
#X connect 30 0 13 0;
#X connect 31 0 37 0;
#X connect 32 0 31 0;
#X connect 33 0 34 0;
#X connect 33 0 29 1;
#X connect 36 0 22 0;
#X connect 37 0 30 0;
