#N canvas 270 74 212 306 10;
#X obj 114 45 s time;
#X obj 14 -4 tgl 15 0 empty empty empty 0 -6 0 8 -262144 -1 -1 1 1
;
#X obj 72 265 bng 15 100 50 0 empty empty empty 0 -6 0 8 -262144 -1
-1;
#X obj 14 19 timebase 60 4 0;
#X obj 14 93 moses 128;
#X obj 72 158 - 128;
#X floatatom 80 182 5 0 0 0 - - -;
#X floatatom 81 140 5 0 0 0 - - -;
#X obj 14 49 r time;
#X obj 72 116 moses 256;
#X floatatom 79 223 5 0 0 0 - - -;
#X floatatom 22 71 5 0 0 0 - - -;
#X obj 72 201 mod 64;
#X obj 72 242 select 0 16 32 48;
#X floatatom 14 117 5 0 0 0 - - -;
#X connect 1 0 3 0;
#X connect 3 1 0 0;
#X connect 4 0 14 0;
#X connect 4 1 9 0;
#X connect 5 0 6 0;
#X connect 5 0 12 0;
#X connect 8 0 4 0;
#X connect 8 0 11 0;
#X connect 9 0 5 0;
#X connect 9 0 7 0;
#X connect 12 0 10 0;
#X connect 12 0 13 0;
#X connect 13 0 2 0;
