#N canvas 468 188 246 235 10;
#X obj 1 187 *~;
#X obj 60 110 * 0.0078745;
#X obj 60 2 ctlin;
#X obj 113 26 == 1;
#X obj 97 60 &&;
#X obj 60 86 spigot;
#X obj 75 27 == 7;
#X obj 60 132 sig~;
#X obj 60 155 lop~ 2;
#X obj 1 151 inlet~;
#X obj 1 216 outlet~;
#X obj 136 2 inlet midi-chan;
#X connect 0 0 10 0;
#X connect 1 0 7 0;
#X connect 2 0 5 0;
#X connect 2 1 6 0;
#X connect 2 2 3 0;
#X connect 3 0 4 1;
#X connect 4 0 5 1;
#X connect 5 0 1 0;
#X connect 6 0 4 0;
#X connect 7 0 8 0;
#X connect 8 0 0 1;
#X connect 9 0 0 0;
#X connect 11 0 3 1;
