#N canvas 627 173 312 369 10;
#X obj 105 108 * 0.0078745;
#X obj 105 0 ctlin;
#X obj 164 24 == 1;
#X obj 142 58 &&;
#X obj 105 84 spigot;
#X obj 105 130 sig~;
#X obj 105 152 lop~ 2;
#X obj 187 0 inlet midi-chan;
#X obj -1 118 inlet~ signal;
#X obj 89 312 *~;
#X obj -1 312 *~;
#X obj -1 340 outlet~ left;
#X obj 89 340 outlet~ right;
#X obj 15 286 cos~;
#X obj 15 262 -~ 0.25;
#X obj 120 25 == 10;
#X obj 105 218 cos~;
#X obj 105 196 -~ 0.25;
#X obj 105 174 *~ 0.25;
#X connect 0 0 5 0;
#X connect 1 0 4 0;
#X connect 1 1 15 0;
#X connect 1 2 2 0;
#X connect 2 0 3 1;
#X connect 3 0 4 1;
#X connect 4 0 0 0;
#X connect 5 0 6 0;
#X connect 6 0 18 0;
#X connect 7 0 2 1;
#X connect 8 0 10 0;
#X connect 8 0 9 0;
#X connect 9 0 12 0;
#X connect 10 0 11 0;
#X connect 13 0 10 1;
#X connect 14 0 13 0;
#X connect 15 0 3 0;
#X connect 16 0 9 1;
#X connect 17 0 16 0;
#X connect 17 0 14 0;
#X connect 18 0 17 0;
