#N canvas 967 439 230 182 10;
#X obj 45 -13 sig~;
#X obj 45 11 lop~ 2;
#X obj 30 39 *~;
#X obj 31 64 tabwrite~ \$0-a1;
#X obj 38 104 tabplay~ \$0-a1;
#X obj 174 -35 inlet p;
#X obj 120 -35 inlet r;
#X obj -2 -35 inlet~;
#X obj 38 125 outlet~;
#X obj 45 -35 inlet gain;
#X obj 66 84 table \$0-a1 88200;
#X connect 0 0 1 0;
#X connect 1 0 2 1;
#X connect 2 0 3 0;
#X connect 4 0 8 0;
#X connect 5 0 4 0;
#X connect 6 0 3 0;
#X connect 7 0 2 0;
#X connect 9 0 0 0;
