#N canvas 30 68 45 83 10;
#X obj 0 42 *~;
#X obj 16 21 tgl 15 0 empty empty empty 0 -6 0 8 -262144 -1 -1 0 1
;
#X obj 0 65 dac~;
#X obj 0 0 noise~;
#X connect 0 0 2 0;
#X connect 1 0 0 1;
#X connect 3 0 0 0;
