#N canvas 130 152 111 291 10;
#X obj 35 161 *~;
#X obj 52 -77 vsl 12 64 0.01 100 0 0 empty empty empty 0 -8 0 8 -262144
-1 -1 6300 1;
#X obj 35 190 dac~;
#X floatatom 60 37 3 0 0 0 - - -;
#X obj 52 13 dbtorms;
#X floatatom 59 -5 5 0 0 0 - - -;
#X obj -3 109 osc~ 90;
#X obj 52 109 sig~;
#X obj 52 133 lop~ 1;
#X obj 52 83 *;
#X obj 52 57 t b f;
#X obj 9 32 tgl 15 0 empty empty mute 0 -6 1 8 -262144 -1 -1 1 1;
#X obj 9 56 == 0;
#X connect 0 0 2 0;
#X connect 0 0 2 1;
#X connect 1 0 4 0;
#X connect 1 0 5 0;
#X connect 4 0 3 0;
#X connect 4 0 10 0;
#X connect 6 0 0 0;
#X connect 7 0 8 0;
#X connect 8 0 0 1;
#X connect 9 0 7 0;
#X connect 10 0 9 0;
#X connect 10 1 9 1;
#X connect 11 0 12 0;
#X connect 12 0 9 0;
