#N canvas 130 152 112 236 10;
#X obj 35 117 *~;
#X obj 52 -67 vsl 12 64 0.01 100 0 0 empty empty empty 0 -8 0 8 -262144
-1 -1 6300 1;
#X obj 35 146 dac~;
#X floatatom 62 46 3 0 0 0 - - -;
#X obj 52 23 dbtorms;
#X floatatom 59 5 5 0 0 0 - - -;
#X obj -3 65 osc~ 90;
#X obj 52 65 sig~;
#X obj 52 89 lop~ 1;
#X connect 0 0 2 0;
#X connect 0 0 2 1;
#X connect 1 0 4 0;
#X connect 1 0 5 0;
#X connect 4 0 3 0;
#X connect 4 0 7 0;
#X connect 6 0 0 0;
#X connect 7 0 8 0;
#X connect 8 0 0 1;
