#N canvas 303 470 232 262 10;
#N canvas 0 0 450 300 sampleplayer 0;
#X obj 149 28 inlet;
#X obj 314 58 table sampy;
#X obj 160 100 soundfiler;
#X obj 161 122 t b;
#X obj 162 245 outlet~;
#X obj 151 53 openpanel;
#X msg 162 75 read -resize \$1 sampy;
#X obj 158 164 tabplay~ sampy;
#X obj 239 190 t b;
#X text 263 189 loop it;
#X connect 0 0 5 0;
#X connect 2 0 3 0;
#X connect 3 0 7 0;
#X connect 5 0 6 0;
#X connect 6 0 2 0;
#X connect 7 0 4 0;
#X connect 7 1 8 0;
#X connect 8 0 7 0;
#X restore -54 30 pd sampleplayer;
#X obj -54 4 bng 15 250 50 0 empty empty empty 0 -6 0 10 -262144 -1
-1;
#X obj 82 54 vsl 15 128 0 1 0 1 empty empty empty 0 -8 0 8 -262144
-1 -1 0 1;
#X obj 48 54 vsl 15 128 0 1 0 1 empty empty empty 0 -8 0 8 -262144
-1 -1 0 1;
#X obj 14 55 vsl 15 128 0 1 0 1 empty empty empty 0 -8 0 8 -262144
-1 -1 0 1;
#X obj -14 229 dac~;
#X obj -20 55 vsl 15 128 0 1 0 1 empty empty empty 0 -8 0 8 -262144
-1 -1 0 1;
#N canvas 126 0 619 376 dub-flanger-delay 0;
#X obj 372 161 vd~ \$0-a2;
#X obj 293 164 vd~ \$0-a1;
#X obj 293 57 + 1;
#X obj 3 158 s~ \$0-d;
#X obj 339 255 r~ \$0-d;
#X obj 54 61 inlet~;
#X obj 214 -1 inlet fb;
#X obj 214 31 clip -1 1;
#X obj 293 -1 inlet rate;
#X obj 383 -1 inlet depth;
#X obj 292 280 outlet~ l;
#X obj 372 279 outlet~ r;
#X obj 15 185 r~ \$0-fba1;
#X obj 117 85 r~ \$0-fba2;
#X obj 384 56 + 1;
#X obj 306 201 *~ 0.6;
#X obj 383 201 *~ 0.6;
#X obj 18 318 -~;
#X obj 167 324 delwrite~ \$0-a1 500;
#X obj 18 348 delwrite~ \$0-a2 500;
#X obj 293 30 * 500;
#X obj 383 29 * 500;
#X obj 302 231 s~ \$0-fba1;
#X obj 383 229 s~ \$0-fba2;
#X obj 119 3 inlet cut;
#X obj 119 37 * 3000;
#X obj 168 292 +~;
#X msg 164 57 0.2;
#X obj 15 226 bp~ 700 0.5;
#X obj 117 111 bp~ 700 0.5;
#X obj 173 164 clip~ -0.5 0.5;
#X obj 4 293 *~;
#X obj 214 55 * 3;
#X obj 116 212 max~ 0;
#X obj 209 235 *~;
#X obj 120 274 max~ 0;
#X obj 149 183 *~ 30;
#X obj 89 300 lop~ 50;
#X obj 206 206 sig~ 1;
#X connect 0 0 11 0;
#X connect 0 0 16 0;
#X connect 1 0 10 0;
#X connect 1 0 15 0;
#X connect 2 0 1 0;
#X connect 4 0 10 0;
#X connect 4 0 11 0;
#X connect 5 0 3 0;
#X connect 5 0 17 1;
#X connect 5 0 26 0;
#X connect 6 0 7 0;
#X connect 7 0 32 0;
#X connect 8 0 20 0;
#X connect 9 0 21 0;
#X connect 12 0 28 0;
#X connect 12 0 33 0;
#X connect 13 0 29 0;
#X connect 14 0 0 0;
#X connect 15 0 22 0;
#X connect 16 0 23 0;
#X connect 17 0 19 0;
#X connect 20 0 2 0;
#X connect 21 0 14 0;
#X connect 24 0 25 0;
#X connect 25 0 28 1;
#X connect 25 0 29 1;
#X connect 26 0 18 0;
#X connect 27 0 28 2;
#X connect 27 0 29 2;
#X connect 28 0 31 0;
#X connect 30 0 26 1;
#X connect 31 0 17 0;
#X connect 32 0 15 1;
#X connect 32 0 16 1;
#X connect 33 0 36 0;
#X connect 34 0 35 0;
#X connect 35 0 37 0;
#X connect 36 0 34 0;
#X connect 37 0 31 1;
#X connect 38 0 34 1;
#X restore -53 192 pd dub-flanger-delay;
#X text 8 2 bonus beat;
#X connect 0 0 7 0;
#X connect 1 0 0 0;
#X connect 2 0 7 4;
#X connect 3 0 7 3;
#X connect 4 0 7 2;
#X connect 6 0 7 1;
#X connect 7 0 5 0;
#X connect 7 1 5 1;
