#N canvas 437 524 219 207 10;
#X obj -2 -2 inlet~ signal;
#X obj 119 -2 inlet control;
#X obj 119 23 sig~;
#X obj 88 156 *~;
#X obj -2 156 *~;
#X obj -2 184 outlet~ left;
#X obj 88 184 outlet~ right;
#X obj 119 48 lop~ 1;
#X obj 14 131 sqrt~;
#X obj 104 82 sig~ 1;
#X obj 104 108 -~;
#X obj 104 131 sqrt~;
#X connect 0 0 4 0;
#X connect 0 0 3 0;
#X connect 1 0 2 0;
#X connect 2 0 7 0;
#X connect 3 0 6 0;
#X connect 4 0 5 0;
#X connect 7 0 8 0;
#X connect 7 0 10 1;
#X connect 8 0 4 1;
#X connect 9 0 10 0;
#X connect 10 0 11 0;
#X connect 11 0 3 1;
