#N canvas 249 69 655 347 10;
#X obj 58 152 bng 15 250 50 0 empty empty write 0 -6 1 8 -262144 -1
-1;
#X obj 130 223 list append;
#X obj 226 171 t l;
#X obj 202 199 list prepend;
#X obj 130 295 textfile;
#X msg 335 106 clear;
#X obj 253 124 timer;
#X obj 202 148 pack f f;
#X obj 202 90 t f b b;
#X obj 291 58 bng 15 250 50 0 empty empty start-record 0 -6 1 8 -262144
-1 -1;
#X obj 291 81 t b b b;
#X obj 58 173 t b b;
#X obj 535 227 del;
#X obj 371 207 list append;
#X obj 470 206 unpack f f;
#X obj 440 177 list split 2;
#X obj 454 286 f;
#X obj 424 263 t b b;
#X obj 454 312 s synth;
#X obj 3 3 r synth;
#N canvas 0 0 450 300 synth 0;
#X obj 177 107 vline~;
#X obj 176 129 *~;
#X obj 118 83 mtof;
#X obj 117 180 *~;
#X obj 118 60 t f b;
#X msg 177 84 0 \, 1 1 0 \, 0 400 1;
#X obj 118 106 phasor~;
#X obj 118 128 *~ 2;
#X obj 118 154 -~ 1;
#X obj 117 207 vcf~ 1 1;
#X obj 177 178 +~ 100;
#X obj 177 154 *~ 600;
#X obj 117 254 dac~;
#X obj 117 229 *~ 0.35;
#X obj 118 35 inlet;
#X connect 0 0 1 0;
#X connect 0 0 1 1;
#X connect 1 0 3 1;
#X connect 1 0 11 0;
#X connect 2 0 6 0;
#X connect 3 0 9 0;
#X connect 4 0 2 0;
#X connect 4 1 5 0;
#X connect 5 0 0 0;
#X connect 6 0 7 0;
#X connect 7 0 8 0;
#X connect 8 0 3 0;
#X connect 9 0 13 0;
#X connect 10 0 9 1;
#X connect 11 0 10 0;
#X connect 13 0 12 0;
#X connect 13 0 12 1;
#X connect 14 0 4 0;
#X restore 3 26 pd synth;
#X obj 142 148 s synth;
#X obj 440 152 textfile;
#X obj 440 47 bng 15 250 50 0 empty empty load-playback 0 -6 1 8 -262144
-1 -1;
#X msg 1 223 write ./sq.txt cr;
#X msg 484 117 read ./sq.txt;
#X msg 462 94 rewind;
#X obj 440 71 t b b b;
#X obj 202 9 notein;
#X obj 202 37 stripnote;
#X obj 130 249 list prepend set;
#X connect 0 0 11 0;
#X connect 1 0 30 0;
#X connect 2 0 3 1;
#X connect 3 0 2 0;
#X connect 3 0 1 1;
#X connect 5 0 4 0;
#X connect 6 0 7 1;
#X connect 7 0 3 0;
#X connect 8 0 7 0;
#X connect 8 0 21 0;
#X connect 8 1 6 0;
#X connect 8 2 6 1;
#X connect 9 0 10 0;
#X connect 10 0 6 0;
#X connect 10 1 3 1;
#X connect 10 2 5 0;
#X connect 11 0 24 0;
#X connect 11 1 1 0;
#X connect 12 0 17 0;
#X connect 13 0 15 0;
#X connect 14 0 16 1;
#X connect 14 1 12 0;
#X connect 15 0 14 0;
#X connect 15 1 13 1;
#X connect 16 0 18 0;
#X connect 17 0 13 0;
#X connect 17 1 16 0;
#X connect 19 0 20 0;
#X connect 22 0 15 0;
#X connect 23 0 27 0;
#X connect 24 0 4 0;
#X connect 25 0 22 0;
#X connect 26 0 22 0;
#X connect 27 0 22 0;
#X connect 27 1 26 0;
#X connect 27 2 25 0;
#X connect 28 0 29 0;
#X connect 28 1 29 1;
#X connect 29 0 8 0;
#X connect 30 0 4 0;
