#N canvas 96 48 400 239 10;
#X msg 117 103 start;
#X msg 66 102 stop;
#X obj 198 55 + 1;
#X obj 170 55 f 0;
#X obj 112 27 t b b b b;
#X obj 95 178 writesf~ 1;
#X obj 112 0 inlet;
#X obj 55 219 outlet done;
#X obj 0 79 inlet~;
#X obj 170 78 makefilename \$2/soundfile%d.wav;
#X obj 55 80 del \$1;
#X obj 232 102 outlet number written;
#X msg 170 101 stop \, open \$1;
#X connect 0 0 5 0;
#X connect 1 0 5 0;
#X connect 2 0 3 1;
#X connect 3 0 2 0;
#X connect 3 0 9 0;
#X connect 3 0 11 0;
#X connect 4 1 10 0;
#X connect 4 2 0 0;
#X connect 4 3 3 0;
#X connect 6 0 4 0;
#X connect 8 0 5 0;
#X connect 9 0 12 0;
#X connect 10 0 1 0;
#X connect 10 0 7 0;
#X connect 12 0 5 0;
