#N canvas 213 275 297 176 10;
#X obj 99 121 *~;
#X obj -4 121 *~;
#X obj 115 68 sig~ 1;
#X obj 115 94 -~;
#X obj -4 -4 inlet~ signal1;
#X obj 99 -4 inlet~ signal2;
#X obj 205 -4 inlet~ xfade;
#X obj 41 154 outlet~;
#X connect 0 0 7 0;
#X connect 1 0 7 0;
#X connect 2 0 3 0;
#X connect 3 0 0 1;
#X connect 4 0 1 0;
#X connect 5 0 0 0;
#X connect 6 0 3 1;
#X connect 6 0 1 1;
