#N canvas 173 132 138 176 10;
#X obj 4 3 osc~ 320;
#X obj 70 3 osc~ 440;
#X obj 4 49 *~;
#X obj 4 155 dac~;
#X obj 54 47 +~;
#X obj 4 108 +~;
#X obj 4 130 *~ 0.5;
#X obj 54 71 *~ 0.5;
#X connect 0 0 2 0;
#X connect 0 0 4 0;
#X connect 1 0 2 1;
#X connect 1 0 4 1;
#X connect 2 0 5 0;
#X connect 4 0 7 0;
#X connect 5 0 6 0;
#X connect 6 0 3 0;
#X connect 6 0 3 1;
#X connect 7 0 5 1;
