#N canvas 131 177 411 213 10;
#X obj 22 113 osc~ 200;
#X obj 102 113 osc~ 400;
#X obj 180 113 osc~ 600;
#X obj 258 113 osc~ 800;
#X obj 6 92 vline~;
#X obj 6 135 *~;
#X obj 86 92 vline~;
#X obj 86 135 *~;
#X obj 164 92 vline~;
#X obj 164 135 *~;
#X obj 242 92 vline~;
#X obj 242 135 *~;
#X obj 6 67 r pa1;
#X obj 86 67 r pa2;
#X obj 164 67 r pa3;
#X obj 242 67 r pa4;
#X obj 124 167 *~ 0.25;
#X obj 124 191 dac~;
#X msg 6 5 \; pa1 0.8 50 0 \, 1 200 50 \, 0.5 900 250 \, 0 1000 1150
\; pa2 0.8 100 0 \, 0.35 200 100 \, 0.2 1200 1200 \, 0 2000 2400 \;
pa3 0.9 120 0 \, 0.45 500 120 \, 0 1000 4000 \; pa4 0.95 400 100 \,
0.2 400 500 \, 0.3 900 900 \, 0 1000 1900;
#X connect 0 0 5 1;
#X connect 1 0 7 1;
#X connect 2 0 9 1;
#X connect 3 0 11 1;
#X connect 4 0 5 0;
#X connect 5 0 16 0;
#X connect 6 0 7 0;
#X connect 7 0 16 0;
#X connect 8 0 9 0;
#X connect 9 0 16 0;
#X connect 10 0 11 0;
#X connect 11 0 16 0;
#X connect 12 0 4 0;
#X connect 13 0 6 0;
#X connect 14 0 8 0;
#X connect 15 0 10 0;
#X connect 16 0 17 0;
#X connect 16 0 17 1;
