#N canvas 173 132 142 158 10;
#X obj 4 3 osc~ 320;
#X obj 58 23 osc~ 440;
#X obj 5 94 *~;
#X obj 5 140 dac~;
#X obj 74 42 sig~ 1;
#X obj 58 67 +~;
#X obj 5 115 *~ 0.5;
#X connect 0 0 2 0;
#X connect 1 0 5 0;
#X connect 2 0 6 0;
#X connect 4 0 5 1;
#X connect 5 0 2 1;
#X connect 6 0 3 0;
#X connect 6 0 3 1;
