#N canvas 75 230 116 282 10;
#X obj 19 260 dac~;
#X obj 48 71 *~;
#X obj 20 233 hip~ 1;
#X obj 47 1 osc~ 400;
#X obj 20 205 *~ 0.5;
#X obj 7 146 *~ 8;
#X obj 20 180 -~;
#X obj 48 146 *~ 8;
#X obj 7 102 *~;
#X obj 48 45 *~;
#X floatatom 64 25 5 0 0 0 - - -;
#X connect 1 0 7 0;
#X connect 1 0 8 0;
#X connect 1 0 8 1;
#X connect 2 0 0 0;
#X connect 2 0 0 1;
#X connect 3 0 9 0;
#X connect 4 0 2 0;
#X connect 5 0 6 0;
#X connect 6 0 4 0;
#X connect 7 0 6 1;
#X connect 8 0 5 0;
#X connect 9 0 1 0;
#X connect 9 0 1 1;
#X connect 10 0 9 1;
