#N canvas 75 230 199 291 10;
#X obj 37 264 dac~;
#X obj 37 240 hip~ 1;
#X obj 20 143 *~ 4;
#X obj 37 191 -~;
#X obj 54 166 *~ 3;
#X obj 37 219 *~ 0.2;
#X obj 22 101 *~;
#X obj 21 121 *~;
#X floatatom 71 44 5 0 0 0 - - -;
#X obj 55 15 osc~ 400;
#X obj 55 64 *~;
#X connect 1 0 0 0;
#X connect 1 0 0 1;
#X connect 2 0 3 0;
#X connect 3 0 5 0;
#X connect 4 0 3 1;
#X connect 5 0 1 0;
#X connect 6 0 7 0;
#X connect 7 0 2 0;
#X connect 8 0 10 1;
#X connect 9 0 10 0;
#X connect 10 0 4 0;
#X connect 10 0 6 0;
#X connect 10 0 6 1;
#X connect 10 0 7 1;
