#N canvas 322 471 196 178 10;
#X obj 4 156 dac~;
#X obj 98 34 +~;
#X obj 70 3 osc~ 300;
#X obj 98 57 /~ 2;
#X obj 4 3 osc~ 900;
#X obj 134 3 osc~ 400;
#X obj 4 110 *~;
#X obj 4 131 *~ 0.5;
#X connect 1 0 3 0;
#X connect 2 0 1 0;
#X connect 3 0 6 1;
#X connect 4 0 6 0;
#X connect 5 0 1 1;
#X connect 6 0 7 0;
#X connect 7 0 0 0;
#X connect 7 0 0 1;
