#N canvas 173 132 222 222 10;
#X obj 4 49 *~;
#X obj 5 194 dac~;
#X obj 54 47 +~;
#X obj 4 77 +~;
#X obj 4 110 +~;
#X obj 50 109 *~;
#X obj 4 143 +~;
#X obj 4 3 osc~ 600;
#X obj 136 3 osc~ 400;
#X obj 70 3 osc~ 300;
#X obj 5 169 *~ 0.16;
#X connect 0 0 3 0;
#X connect 2 0 3 1;
#X connect 3 0 4 0;
#X connect 3 0 5 0;
#X connect 4 0 6 0;
#X connect 5 0 6 1;
#X connect 6 0 10 0;
#X connect 7 0 0 0;
#X connect 7 0 2 0;
#X connect 8 0 5 1;
#X connect 8 0 4 1;
#X connect 9 0 0 1;
#X connect 9 0 2 1;
#X connect 10 0 1 0;
#X connect 10 0 1 1;
