#N canvas 151 41 689 450 10;
#X obj 20 107 *~;
#X obj 4 294 dac~;
#X obj 4 193 +~;
#X floatatom 36 88 5 0 0 0 - - -;
#X obj 4 233 *~ 0.8;
#X obj 4 213 cos~;
#X obj 61 107 *~;
#X floatatom 77 88 5 0 0 0 - - -;
#X obj 20 66 cos~;
#X obj 20 46 *~ 2;
#X obj 61 66 cos~;
#X obj 61 46 *~ 3;
#X obj 60 151 *~;
#X floatatom 76 131 5 0 0 0 - - -;
#X obj 4 7 phasor~ 80;
#X obj 217 72 cos~;
#X obj 280 51 cos~;
#X obj 217 113 *~;
#X floatatom 233 94 5 0 0 0 - - -;
#X obj 280 109 *~;
#X floatatom 296 90 5 0 0 0 - - -;
#X obj 201 137 +~;
#X obj 201 160 cos~;
#X obj 176 7 phasor~ 80;
#X obj 3 270 *~;
#X obj 17 253 tgl 15 0 empty empty empty 0 -6 0 8 -262144 -1 -1 0 1
;
#X obj 264 135 +~;
#X obj 264 158 cos~;
#X obj 231 190 +~;
#X obj 176 250 +~;
#X obj 192 229 *~;
#X floatatom 208 211 5 0 0 0 - - -;
#X obj 177 351 dac~;
#X obj 176 327 *~;
#X obj 190 310 tgl 15 0 empty empty empty 0 -6 0 8 -262144 -1 -1 0
1;
#X obj 176 290 *~ 0.8;
#X obj 176 270 cos~;
#X obj 176 189 *~ 3;
#X obj 217 51 *~ 2;
#X obj 4 156 *~ 4;
#X obj 386 52 cos~;
#X obj 386 92 *~;
#X floatatom 402 73 5 0 0 0 - - -;
#X obj 387 116 +~;
#X obj 426 7 phasor~ 80;
#X floatatom 522 17 5 0 0 0 - - -;
#X obj 422 212 +~;
#X obj 424 319 dac~;
#X obj 423 295 *~;
#X obj 437 278 tgl 15 0 empty empty empty 0 -6 0 8 -262144 -1 -1 0
1;
#X obj 423 258 *~ 0.8;
#X obj 386 177 *~;
#X floatatom 402 158 5 0 0 0 - - -;
#X obj 386 138 cos~;
#X obj 501 50 *~ 3;
#X obj 422 235 cos~;
#X obj 461 51 *~;
#X connect 0 0 12 0;
#X connect 2 0 5 0;
#X connect 3 0 0 1;
#X connect 4 0 24 0;
#X connect 5 0 4 0;
#X connect 6 0 12 0;
#X connect 7 0 6 1;
#X connect 8 0 0 0;
#X connect 9 0 8 0;
#X connect 10 0 6 0;
#X connect 11 0 10 0;
#X connect 12 0 2 1;
#X connect 13 0 12 1;
#X connect 14 0 9 0;
#X connect 14 0 11 0;
#X connect 14 0 39 0;
#X connect 15 0 17 0;
#X connect 16 0 19 0;
#X connect 17 0 21 1;
#X connect 18 0 17 1;
#X connect 19 0 26 1;
#X connect 20 0 19 1;
#X connect 21 0 22 0;
#X connect 22 0 28 0;
#X connect 23 0 21 0;
#X connect 23 0 26 0;
#X connect 23 0 37 0;
#X connect 23 0 38 0;
#X connect 23 0 16 0;
#X connect 24 0 1 0;
#X connect 24 0 1 1;
#X connect 25 0 24 1;
#X connect 26 0 27 0;
#X connect 27 0 28 1;
#X connect 28 0 30 0;
#X connect 29 0 36 0;
#X connect 30 0 29 1;
#X connect 31 0 30 1;
#X connect 33 0 32 0;
#X connect 33 0 32 1;
#X connect 34 0 33 1;
#X connect 35 0 33 0;
#X connect 36 0 35 0;
#X connect 37 0 29 0;
#X connect 38 0 15 0;
#X connect 39 0 2 0;
#X connect 40 0 41 0;
#X connect 41 0 43 0;
#X connect 42 0 41 1;
#X connect 43 0 53 0;
#X connect 44 0 40 0;
#X connect 44 0 54 0;
#X connect 44 0 56 0;
#X connect 45 0 56 1;
#X connect 46 0 55 0;
#X connect 48 0 47 0;
#X connect 48 0 47 1;
#X connect 49 0 48 1;
#X connect 50 0 48 0;
#X connect 51 0 46 0;
#X connect 52 0 51 1;
#X connect 53 0 51 0;
#X connect 54 0 46 1;
#X connect 55 0 50 0;
#X connect 56 0 43 1;
