#N canvas 86 109 213 201 10;
#X obj 21 143 osc~;
#X obj -2 175 dac~;
#X floatatom 20 18 5 0 0 0 - - -;
#X text 66 16 modulator frequency;
#X obj 20 41 osc~;
#X obj 21 81 *~;
#X floatatom 37 64 5 0 0 0 - - -;
#X obj 21 118 +~;
#X floatatom 37 101 5 0 0 0 - - -;
#X text 79 64 FM index;
#X text 80 100 carrier frequency;
#X connect 0 0 1 1;
#X connect 2 0 4 0;
#X connect 4 0 5 0;
#X connect 4 0 1 0;
#X connect 5 0 7 0;
#X connect 6 0 5 1;
#X connect 7 0 0 0;
#X connect 8 0 7 1;
