#N canvas 0 0 571 551 10;
#X obj 8 287 wrap~;
#X obj 8 307 cos~;
#X obj 8 330 *~;
#X obj 359 495 dac~;
#X obj 23 386 +~;
#X obj 8 267 *~;
#X obj 78 156 phasor~ 100;
#X obj 8 350 -~ 2;
#X obj 78 207 -~;
#X obj 94 178 sig~ 1;
#X obj 77 271 *~;
#X obj 77 300 *~;
#X obj 41 452 r~ gate;
#X obj 41 471 lop~ 20;
#X obj 24 491 *~;
#X obj 241 43 f;
#X obj 269 43 + 1;
#X obj 220 253 sig~;
#X obj 221 277 s~ gate;
#X obj 188 132 < 5;
#X obj 248 132 mod 2;
#X obj 248 153 == 0;
#X obj 220 198 &&;
#X obj 241 84 mod 16;
#X obj 292 153 == 0;
#X obj 188 156 ||;
#X obj 214 132 > 10;
#X obj 266 176 ||;
#X obj 292 132 mod 5;
#X obj 241 23 metro 50;
#X obj 220 224 ||;
#X obj 337 131 == 10;
#X obj 78 135 r~ f;
#X obj 337 222 sig~;
#X obj 337 244 s~ f;
#X obj 337 199 mtof;
#X obj 337 155 * 12;
#X obj 337 178 + 40;
#X obj 171 394 expr~ tanh($v1);
#X obj 171 374 *~;
#X obj 23 407 +~ 1.5;
#X obj 23 429 *~ 1.5;
#X obj 297 467 *~ 0.2;
#X obj 407 465 *~ 0.2;
#X obj 408 494 s~ dfb;
#X obj 418 402 r~ dfb;
#X obj 297 394 r~ dfa;
#X obj 297 495 s~ dfa;
#X obj 407 424 delwrite~ b 500;
#X obj 407 443 delread~ b 300;
#X obj 296 426 delwrite~ a 500;
#X obj 297 445 delread~ a 400;
#X obj 7 165 osc~ 0.1;
#X obj 8 207 *~ 12;
#X obj 8 186 +~ 2;
#X obj 187 354 sig~ 2.3;
#X obj 106 218 +~ 1;
#X obj 106 237 *~ 0.5;
#X obj 106 199 osc~ 0.04;
#X obj 382 213 vline~;
#X obj 382 327 *~;
#X obj 398 303 cos~;
#X obj 398 283 *~;
#X obj 414 260 *~;
#X obj 415 236 *~ 2.413;
#X msg 382 191 1 \, 0 70 0;
#X obj 382 151 mod 8;
#X obj 23 510 s~ softclip;
#X obj 170 335 r~ softclip;
#X obj 408 383 r~ stereo-echo;
#X obj 171 467 +~;
#X obj 135 510 s~ stereo-echo;
#X obj 171 490 dac~;
#X obj 172 426 *~ 0.3;
#X obj 188 446 r~ kick;
#X obj 381 347 s~ kick;
#X obj 241 3 loadbang;
#X obj 382 130 *;
#X obj 241 62 t f f;
#X obj 241 103 t f f f f f f;
#X obj 382 172 sel 6;
#X obj 398 110 > 512;
#X connect 0 0 1 0;
#X connect 1 0 2 0;
#X connect 2 0 7 0;
#X connect 4 0 40 0;
#X connect 5 0 0 0;
#X connect 6 0 5 1;
#X connect 6 0 8 0;
#X connect 6 0 4 1;
#X connect 7 0 4 0;
#X connect 8 0 10 0;
#X connect 9 0 8 1;
#X connect 10 0 11 0;
#X connect 10 0 11 1;
#X connect 11 0 2 1;
#X connect 12 0 13 0;
#X connect 13 0 14 1;
#X connect 14 0 67 0;
#X connect 15 0 16 0;
#X connect 15 0 78 0;
#X connect 16 0 15 1;
#X connect 17 0 18 0;
#X connect 19 0 25 0;
#X connect 20 0 21 0;
#X connect 21 0 27 0;
#X connect 22 0 30 0;
#X connect 23 0 79 0;
#X connect 24 0 27 1;
#X connect 25 0 22 0;
#X connect 26 0 25 1;
#X connect 27 0 22 1;
#X connect 28 0 24 0;
#X connect 29 0 15 0;
#X connect 30 0 17 0;
#X connect 31 0 30 1;
#X connect 31 0 36 0;
#X connect 32 0 6 0;
#X connect 33 0 34 0;
#X connect 35 0 33 0;
#X connect 36 0 37 0;
#X connect 37 0 35 0;
#X connect 38 0 73 0;
#X connect 38 0 71 0;
#X connect 39 0 38 0;
#X connect 40 0 41 0;
#X connect 41 0 14 0;
#X connect 42 0 47 0;
#X connect 42 0 3 0;
#X connect 43 0 44 0;
#X connect 43 0 3 1;
#X connect 45 0 48 0;
#X connect 46 0 50 0;
#X connect 49 0 43 0;
#X connect 51 0 42 0;
#X connect 52 0 54 0;
#X connect 53 0 5 0;
#X connect 54 0 53 0;
#X connect 55 0 39 1;
#X connect 56 0 57 0;
#X connect 57 0 10 1;
#X connect 58 0 56 0;
#X connect 59 0 64 0;
#X connect 59 0 60 0;
#X connect 59 0 62 0;
#X connect 60 0 75 0;
#X connect 61 0 60 1;
#X connect 62 0 61 0;
#X connect 63 0 62 1;
#X connect 64 0 63 1;
#X connect 64 0 63 0;
#X connect 65 0 59 0;
#X connect 66 0 80 0;
#X connect 68 0 39 0;
#X connect 69 0 50 0;
#X connect 69 0 48 0;
#X connect 70 0 72 0;
#X connect 70 0 72 1;
#X connect 73 0 70 0;
#X connect 74 0 70 1;
#X connect 76 0 29 0;
#X connect 77 0 66 0;
#X connect 78 0 23 0;
#X connect 78 1 81 0;
#X connect 79 0 19 0;
#X connect 79 1 26 0;
#X connect 79 2 20 0;
#X connect 79 3 28 0;
#X connect 79 4 31 0;
#X connect 79 5 77 0;
#X connect 80 0 65 0;
#X connect 81 0 77 1;
