#N canvas 0 0 222 150 10;
#X obj 108 86 vline~;
#X msg 108 65 1 \$1 0 \, 0 \$2 \$1;
#X obj 92 129 throw~ bus;
#X obj 92 109 *~;
#X obj 2 23 *~ \$1;
#X obj 108 45 pack \$2 \$3;
#X obj 2 3 r~ fundamental;
#X obj 2 44 osc~;
#X obj 108 23 del \$4;
#X obj 108 2 r play;
#X connect 0 0 3 1;
#X connect 1 0 0 0;
#X connect 3 0 2 0;
#X connect 4 0 7 0;
#X connect 5 0 1 0;
#X connect 6 0 4 0;
#X connect 7 0 3 0;
#X connect 8 0 5 0;
#X connect 9 0 8 0;
