#N canvas 318 31 873 870 10;
#N canvas 0 0 450 300 (subpatch) 0;
#X array \$0-sum 882 float 0;
#X coords 0 1.02 881 -1.02 200 130 1;
#X restore 570 646 graph;
#X obj 429 761 tabwrite~ \$0-sum;
#X obj 440 713 tgl 15 0 empty empty empty 0 -6 0 8 -262144 -1 -1 1
1;
#X obj 440 735 metro 193;
#X obj 355 364 *~ 2;
#X obj 394 627 +~;
#X obj 325 588 *~;
#X obj 447 524 *~;
#X obj 377 734 cos~;
#X obj 377 763 *~ 0.2;
#X obj 377 791 dac~;
#X obj 377 709 -~;
#X obj 449 460 min~ 1;
#X obj 324 523 max~ 1;
#X obj 377 546 -~;
#X obj 356 119 phasor~ 120;
#X floatatom 444 95 5 0 0 0 - - -;
#X obj 444 119 / 100;
#X obj 506 433 *~;
#X floatatom 498 99 5 0 0 0 - - -;
#X floatatom 356 98 5 0 0 0 - - -;
#X obj 394 654 -~ 1;
#X obj 378 523 sig~ 2;
#X obj 506 457 +~ 1;
#X obj 498 119 / 100;
#X obj 475 209 *~ 3;
#X obj 476 328 cos~;
#X obj 476 261 *~;
#X obj 522 326 cos~;
#X obj 541 204 wrap~;
#X obj 505 231 -~;
#X obj 523 302 +~;
#X obj 523 365 -~;
#X obj 523 387 *~;
#X obj 507 410 +~;
#X floatatom 505 140 5 0 0 0 - - -;
#X obj 505 157 / 100;
#X obj 505 177 sig~;
#X connect 2 0 3 0;
#X connect 3 0 1 0;
#X connect 4 0 12 0;
#X connect 4 0 13 0;
#X connect 5 0 21 0;
#X connect 6 0 5 0;
#X connect 7 0 5 1;
#X connect 8 0 9 0;
#X connect 8 0 1 0;
#X connect 9 0 10 0;
#X connect 9 0 10 1;
#X connect 11 0 8 0;
#X connect 12 0 7 0;
#X connect 13 0 6 0;
#X connect 14 0 6 1;
#X connect 14 0 11 0;
#X connect 15 0 4 0;
#X connect 15 0 25 0;
#X connect 16 0 17 0;
#X connect 17 0 18 1;
#X connect 18 0 23 0;
#X connect 19 0 24 0;
#X connect 20 0 15 0;
#X connect 21 0 11 1;
#X connect 22 0 14 0;
#X connect 23 0 7 1;
#X connect 23 0 14 1;
#X connect 24 0 25 1;
#X connect 25 0 27 0;
#X connect 25 0 31 1;
#X connect 26 0 32 1;
#X connect 26 0 34 0;
#X connect 27 0 26 0;
#X connect 27 0 31 0;
#X connect 28 0 32 0;
#X connect 29 0 30 1;
#X connect 29 0 33 1;
#X connect 30 0 27 1;
#X connect 31 0 28 0;
#X connect 32 0 33 0;
#X connect 33 0 34 1;
#X connect 34 0 18 0;
#X connect 35 0 36 0;
#X connect 36 0 37 0;
#X connect 37 0 30 0;
#X connect 37 0 29 0;
