#N canvas 223 207 114 228 10;
#X obj 8 201 dac~;
#X obj 25 28 osc~ 400;
#X obj 25 65 *~;
#X floatatom 41 48 5 0 0 0 - - -;
#X obj 25 89 *~;
#X obj 8 7 sig~ 1;
#X obj 8 132 /~;
#X obj 25 110 +~ 1;
#X obj 8 155 hip~ 1;
#X obj 8 176 *~ 0.5;
#X connect 1 0 2 0;
#X connect 2 0 4 0;
#X connect 2 0 4 1;
#X connect 3 0 2 1;
#X connect 4 0 7 0;
#X connect 5 0 6 0;
#X connect 6 0 8 0;
#X connect 7 0 6 1;
#X connect 8 0 9 0;
#X connect 9 0 0 0;
#X connect 9 0 0 1;
