#N canvas 173 132 118 212 10;
#X obj 4 49 *~;
#X obj 4 165 dac~;
#X obj 4 93 +~;
#X obj 4 116 osc~;
#X obj 4 140 *~ 0.8;
#X obj 20 71 sig~ 600;
#X obj 4 7 osc~ 200;
#X obj 21 28 sig~ 200;
#X connect 0 0 2 0;
#X connect 2 0 3 0;
#X connect 3 0 4 0;
#X connect 4 0 1 0;
#X connect 4 0 1 1;
#X connect 5 0 2 1;
#X connect 6 0 0 0;
#X connect 7 0 0 1;
