#N canvas 100 113 152 198 10;
#X obj 4 33 hilbert~;
#X obj 4 3 osc~ 440;
#X obj 83 31 hilbert~;
#X obj 4 70 *~;
#X obj 55 70 *~;
#X obj 16 111 -~;
#X obj 16 164 dac~;
#X obj 16 134 *~ 0.5;
#X obj 83 3 osc~ 110;
#X connect 0 0 3 0;
#X connect 0 1 4 0;
#X connect 1 0 0 0;
#X connect 2 0 3 1;
#X connect 2 1 4 1;
#X connect 3 0 5 0;
#X connect 4 0 5 1;
#X connect 5 0 7 0;
#X connect 7 0 6 0;
#X connect 7 0 6 1;
#X connect 8 0 2 0;
