#N canvas 0 0 183 148 10;
#X obj 66 86 vline~;
#X msg 66 65 1 \$1 0 \, 0 \$2 \$1;
#X obj 50 128 throw~ bus;
#X obj 50 107 *~;
#X obj 2 23 *~ \$1;
#X obj 66 45 pack \$2 \$3;
#X obj 66 23 del \$4;
#X obj 66 2 r play;
#X obj 2 3 r~ phase;
#X obj 2 45 cos~;
#X connect 0 0 3 1;
#X connect 1 0 0 0;
#X connect 3 0 2 0;
#X connect 4 0 9 0;
#X connect 5 0 1 0;
#X connect 6 0 5 0;
#X connect 7 0 6 0;
#X connect 8 0 4 0;
#X connect 9 0 3 0;
