#N canvas 0 0 450 300 10;
#X obj 0 232 *~;
#X obj 52 159 +~;
#X obj 52 69 *~;
#X obj 0 161 -~ 0.5;
#X obj 0 181 *~ 0.5;
#X obj 0 201 cos~;
#X obj 51 90 *~ 44100;
#X obj 68 22 r chunk-size;
#X obj 0 254 outlet~;
#X obj 52 180 tabread4~ source-array;
#X obj 0 0 inlet~ phase;
#X obj 68 137 inlet~ position;
#X obj 68 46 sig~;
#X connect 0 0 8 0;
#X connect 1 0 9 0;
#X connect 2 0 6 0;
#X connect 3 0 4 0;
#X connect 4 0 5 0;
#X connect 5 0 0 0;
#X connect 6 0 1 0;
#X connect 7 0 12 0;
#X connect 9 0 0 1;
#X connect 10 0 3 0;
#X connect 10 0 2 0;
#X connect 11 0 1 1;
#X connect 12 0 2 1;
