#N canvas 13 2 524 473 10;
#X obj 201 37 phasor~;
#X obj 178 204 *~;
#N canvas 0 0 450 300 graph3 0;
#X array graph-output 441 float 0;
#X coords 0 1 440 -1 100 100 1;
#X restore 407 210 graph;
#X obj 194 184 +~ 128;
#X obj 178 102 min~;
#X obj 343 324 metro 80;
#X obj 343 300 tgl 15 0 empty empty empty 0 -6 0 8 -262144 -1 -1 1
1;
#X obj 201 62 *~ -1;
#X obj 201 82 +~ 1;
#X obj 343 371 tabwrite~ graph-output;
#X obj 161 430 dac~;
#X obj 161 404 *~ 0.2;
#X obj 351 345 r~ graphme;
#X obj 209 404 s~ graphme;
#X obj 178 122 *~ 2;
#X obj 316 26 openpanel;
#X obj 316 70 soundfiler;
#X obj 316 4 bng 15 250 50 0 empty empty empty 0 -6 0 8 -262144 -1
-1;
#N canvas 0 0 450 300 graph2 0;
#X array source-array 12699 float 2;
#X coords 0 1 12699 -1 100 100 1;
#X restore 406 89 graph;
#X msg 316 47 read -resize \$1 source-array;
#X obj 316 92 s filesize;
#X obj 161 264 tabread4~ source-array;
#X obj 108 155 lop~ 0.5;
#X obj 108 131 sig~;
#X obj 162 243 +~;
#X obj 97 -1 hsl 64 12 0 1 0 0 empty empty position 7 6 1 8 -262144
-1 -1 1100 1;
#X obj 94 36 t b f;
#X obj 108 110 *;
#X obj 94 81 f;
#X obj 110 58 r filesize;
#X obj 92 178 +~;
#X obj 6 79 *~;
#X obj 25 62 hsl 64 12 0 100 0 0 empty empty movement 7 6 1 8 -262144
-1 -1 2500 1;
#X obj 6 40 osc~ 1;
#X obj 9 -1 hsl 64 12 0 10 0 0 empty empty movef 7 6 1 8 -262144 -1
-1 100 1;
#X floatatom 12 15 5 0 0 0 - - -;
#X floatatom 102 16 5 0 0 0 - - -;
#X obj 162 362 vcf~ 1 2;
#X obj 197 148 hsl 64 12 0 1000 0 0 empty empty width 7 6 1 8 -262144
-1 -1 300 1;
#X floatatom 202 165 5 0 0 0 - - -;
#X obj 204 -1 hsl 64 12 0 400 0 0 empty empty fundamental 3 6 1 8 -262144
-1 -1 1000 1;
#X floatatom 209 16 5 0 0 0 - - -;
#X obj 190 285 hsl 64 12 0 5000 0 0 empty empty filter 7 6 1 8 -262144
-1 -1 3500 1;
#X floatatom 195 301 5 0 0 0 - - -;
#X obj 213 320 loadbang;
#X msg 213 342 2;
#X connect 0 0 4 0;
#X connect 0 0 7 0;
#X connect 1 0 24 1;
#X connect 3 0 1 1;
#X connect 4 0 14 0;
#X connect 5 0 9 0;
#X connect 6 0 5 0;
#X connect 7 0 8 0;
#X connect 8 0 4 1;
#X connect 11 0 10 0;
#X connect 11 0 10 1;
#X connect 12 0 9 0;
#X connect 14 0 1 0;
#X connect 15 0 19 0;
#X connect 16 0 20 0;
#X connect 17 0 15 0;
#X connect 19 0 16 0;
#X connect 21 0 37 0;
#X connect 22 0 30 1;
#X connect 23 0 22 0;
#X connect 24 0 21 0;
#X connect 25 0 26 0;
#X connect 25 0 36 0;
#X connect 26 0 28 0;
#X connect 26 1 27 1;
#X connect 27 0 23 0;
#X connect 28 0 27 0;
#X connect 29 0 28 1;
#X connect 30 0 24 0;
#X connect 31 0 30 0;
#X connect 32 0 31 1;
#X connect 33 0 31 0;
#X connect 34 0 33 0;
#X connect 34 0 35 0;
#X connect 37 0 11 0;
#X connect 37 0 13 0;
#X connect 38 0 39 0;
#X connect 38 0 3 0;
#X connect 40 0 41 0;
#X connect 40 0 0 0;
#X connect 42 0 43 0;
#X connect 42 0 37 1;
#X connect 44 0 45 0;
#X connect 45 0 37 2;
