{
	"patcher" : 	{
		"fileversion" : 1,
		"rect" : [ 92.0, 93.0, 579.0, 433.0 ],
		"bglocked" : 0,
		"defrect" : [ 92.0, 93.0, 579.0, 433.0 ],
		"openrect" : [ 0.0, 0.0, 0.0, 0.0 ],
		"openinpresentation" : 0,
		"default_fontsize" : 12.0,
		"default_fontface" : 0,
		"default_fontname" : "Arial",
		"gridonopen" : 0,
		"gridsize" : [ 15.0, 15.0 ],
		"gridsnaponopen" : 0,
		"toolbarvisible" : 0,
		"boxanimatetime" : 200,
		"imprint" : 0,
		"enablehscroll" : 1,
		"enablevscroll" : 1,
		"devicewidth" : 0.0,
		"title" : "CONTINUOUS CRUMPLING #1 Global Frequency Control Mapping",
		"boxes" : [ 			{
				"box" : 				{
					"maxclass" : "newobj",
					"text" : "tosymbol",
					"fontname" : "Arial",
					"numinlets" : 1,
					"id" : "obj-28",
					"numoutlets" : 1,
					"outlettype" : [ "" ],
					"fontsize" : 9.0,
					"hidden" : 1,
					"patching_rect" : [ 730.0, 59.0, 47.0, 17.0 ]
				}

			}
, 			{
				"box" : 				{
					"maxclass" : "newobj",
					"text" : "p readme",
					"fontname" : "Arial",
					"numinlets" : 0,
					"id" : "obj-1",
					"numoutlets" : 0,
					"fontsize" : 9.0,
					"patching_rect" : [ 441.0, 384.0, 51.0, 17.0 ],
					"patcher" : 					{
						"fileversion" : 1,
						"rect" : [ 167.0, 342.0, 455.0, 241.0 ],
						"bglocked" : 0,
						"defrect" : [ 167.0, 342.0, 455.0, 241.0 ],
						"openrect" : [ 0.0, 0.0, 0.0, 0.0 ],
						"openinpresentation" : 0,
						"default_fontsize" : 12.0,
						"default_fontface" : 0,
						"default_fontname" : "Arial",
						"gridonopen" : 0,
						"gridsize" : [ 15.0, 15.0 ],
						"gridsnaponopen" : 0,
						"toolbarvisible" : 1,
						"boxanimatetime" : 200,
						"imprint" : 0,
						"enablehscroll" : 1,
						"enablevscroll" : 1,
						"devicewidth" : 0.0,
						"boxes" : [ 							{
								"box" : 								{
									"maxclass" : "comment",
									"text" : "1) DROP-DOWN MENU: navigate menu items to select the available control mapping. The selected mapping is displayed in the box below",
									"linecount" : 2,
									"fontname" : "Arial",
									"numinlets" : 1,
									"id" : "obj-1",
									"numoutlets" : 0,
									"fontsize" : 10.0,
									"patching_rect" : [ 26.0, 56.0, 378.0, 29.0 ]
								}

							}
, 							{
								"box" : 								{
									"maxclass" : "comment",
									"text" : "3) CLICK TO UPDATE LIST: click on the box to update control mapping menu items in the drop-down menu.",
									"linecount" : 2,
									"fontname" : "Arial",
									"numinlets" : 1,
									"id" : "obj-2",
									"numoutlets" : 0,
									"fontsize" : 10.0,
									"patching_rect" : [ 26.0, 161.0, 378.0, 29.0 ]
								}

							}
, 							{
								"box" : 								{
									"maxclass" : "panel",
									"rounded" : 0,
									"numinlets" : 1,
									"id" : "obj-3",
									"numoutlets" : 0,
									"bgcolor" : [ 0.752941, 0.717647, 0.960784, 1.0 ],
									"patching_rect" : [ 26.0, 56.0, 119.0, 13.0 ]
								}

							}
, 							{
								"box" : 								{
									"maxclass" : "panel",
									"rounded" : 0,
									"numinlets" : 1,
									"id" : "obj-4",
									"numoutlets" : 0,
									"bgcolor" : [ 0.752941, 0.717647, 0.960784, 1.0 ],
									"patching_rect" : [ 26.0, 161.0, 133.0, 13.0 ]
								}

							}
, 							{
								"box" : 								{
									"maxclass" : "comment",
									"text" : "ContinuousCrumpling N GlobalFrequency MIDI control mapping",
									"fontname" : "Arial Black",
									"numinlets" : 1,
									"id" : "obj-5",
									"numoutlets" : 0,
									"fontsize" : 12.0,
									"patching_rect" : [ 17.0, 21.0, 423.0, 23.0 ]
								}

							}
, 							{
								"box" : 								{
									"maxclass" : "comment",
									"text" : "2) DISPLAY BOX (purple color): click on the box to load and edit the correspondent control mapping patch. \"Crumpling frequency\" mapping Max patch must be saved in SDT_contents/Library/Cont_crumpling/MIDI_OSC_contcrump/Ccrump_globfreq.",
									"linecount" : 5,
									"fontname" : "Arial",
									"numinlets" : 1,
									"id" : "obj-6",
									"numoutlets" : 0,
									"fontsize" : 10.0,
									"patching_rect" : [ 27.0, 91.0, 363.0, 64.0 ]
								}

							}
, 							{
								"box" : 								{
									"maxclass" : "panel",
									"rounded" : 0,
									"numinlets" : 1,
									"id" : "obj-7",
									"numoutlets" : 0,
									"bgcolor" : [ 0.67451, 0.945098, 0.611765, 1.0 ],
									"patching_rect" : [ 27.0, 131.0, 382.0, 26.0 ]
								}

							}
, 							{
								"box" : 								{
									"maxclass" : "panel",
									"rounded" : 0,
									"numinlets" : 1,
									"id" : "obj-8",
									"numoutlets" : 0,
									"bgcolor" : [ 0.752941, 0.717647, 0.960784, 1.0 ],
									"patching_rect" : [ 26.0, 91.0, 162.0, 13.0 ]
								}

							}
 ],
						"lines" : [  ]
					}
,
					"saved_object_attributes" : 					{
						"fontname" : "Arial",
						"default_fontsize" : 12.0,
						"fontface" : 0,
						"fontsize" : 12.0,
						"globalpatchername" : "",
						"default_fontface" : 0,
						"default_fontname" : "Arial"
					}

				}

			}
, 			{
				"box" : 				{
					"maxclass" : "message",
					"text" : "title CONTINUOUS CRUMPLING #1 Global Frequency Control Mapping",
					"linecount" : 2,
					"fontname" : "Arial",
					"numinlets" : 2,
					"id" : "obj-2",
					"numoutlets" : 1,
					"outlettype" : [ "" ],
					"fontsize" : 9.0,
					"hidden" : 1,
					"patching_rect" : [ 425.0, -15.0, 164.0, 25.0 ]
				}

			}
, 			{
				"box" : 				{
					"maxclass" : "newobj",
					"text" : "t dump s",
					"fontname" : "Arial",
					"numinlets" : 1,
					"id" : "obj-3",
					"numoutlets" : 2,
					"outlettype" : [ "dump", "" ],
					"fontsize" : 9.0,
					"hidden" : 1,
					"patching_rect" : [ 597.0, 171.0, 48.0, 17.0 ]
				}

			}
, 			{
				"box" : 				{
					"maxclass" : "newobj",
					"text" : "sprintf nsub 1 11 %s",
					"fontname" : "Arial",
					"numinlets" : 1,
					"id" : "obj-4",
					"numoutlets" : 1,
					"outlettype" : [ "" ],
					"fontsize" : 9.0,
					"hidden" : 1,
					"patching_rect" : [ 597.0, 150.0, 105.0, 17.0 ]
				}

			}
, 			{
				"box" : 				{
					"maxclass" : "newobj",
					"text" : "coll Ccrump_glfreq_map_replace",
					"fontname" : "Courier",
					"numinlets" : 1,
					"id" : "obj-5",
					"numoutlets" : 4,
					"outlettype" : [ "", "", "", "" ],
					"fontsize" : 10.0,
					"hidden" : 1,
					"patching_rect" : [ 597.0, 196.0, 190.0, 16.0 ],
					"saved_object_attributes" : 					{
						"embed" : 0
					}

				}

			}
, 			{
				"box" : 				{
					"maxclass" : "newobj",
					"text" : "pcontrol",
					"fontname" : "Arial",
					"numinlets" : 1,
					"id" : "obj-6",
					"numoutlets" : 1,
					"outlettype" : [ "" ],
					"fontsize" : 9.0,
					"hidden" : 1,
					"patching_rect" : [ 426.0, 358.0, 47.0, 17.0 ]
				}

			}
, 			{
				"box" : 				{
					"maxclass" : "message",
					"text" : "Ccrump_glfreq_map.mxb",
					"fontname" : "Arial",
					"numinlets" : 2,
					"id" : "obj-7",
					"numoutlets" : 1,
					"outlettype" : [ "" ],
					"fontsize" : 9.0,
					"bgcolor" : [ 0.6, 0.4, 0.6, 1.0 ],
					"patching_rect" : [ 426.0, 261.0, 128.0, 15.0 ]
				}

			}
, 			{
				"box" : 				{
					"maxclass" : "newobj",
					"text" : "prepend set",
					"fontname" : "Arial",
					"numinlets" : 1,
					"id" : "obj-8",
					"numoutlets" : 1,
					"outlettype" : [ "" ],
					"fontsize" : 9.0,
					"hidden" : 1,
					"patching_rect" : [ 533.0, 150.0, 60.0, 17.0 ]
				}

			}
, 			{
				"box" : 				{
					"maxclass" : "newobj",
					"text" : "strippath",
					"fontname" : "Arial",
					"numinlets" : 1,
					"color" : [ 1.0, 0.890196, 0.090196, 1.0 ],
					"id" : "obj-9",
					"numoutlets" : 2,
					"outlettype" : [ "", "int" ],
					"fontsize" : 9.0,
					"hidden" : 1,
					"patching_rect" : [ 597.0, 127.0, 49.0, 17.0 ]
				}

			}
, 			{
				"box" : 				{
					"maxclass" : "newobj",
					"text" : "prepend load",
					"fontname" : "Arial",
					"numinlets" : 1,
					"id" : "obj-10",
					"numoutlets" : 1,
					"outlettype" : [ "" ],
					"fontsize" : 9.0,
					"hidden" : 1,
					"patching_rect" : [ 426.0, 334.0, 66.0, 17.0 ]
				}

			}
, 			{
				"box" : 				{
					"maxclass" : "newobj",
					"text" : "t bang",
					"fontname" : "Arial",
					"numinlets" : 1,
					"id" : "obj-11",
					"numoutlets" : 1,
					"outlettype" : [ "bang" ],
					"fontsize" : 9.0,
					"hidden" : 1,
					"patching_rect" : [ 525.0, 55.0, 37.0, 17.0 ]
				}

			}
, 			{
				"box" : 				{
					"maxclass" : "newobj",
					"text" : "sprintf %sCcrump_globfreq/",
					"fontname" : "Arial",
					"numinlets" : 1,
					"id" : "obj-12",
					"numoutlets" : 1,
					"outlettype" : [ "" ],
					"fontsize" : 9.0,
					"hidden" : 1,
					"patching_rect" : [ 730.0, 38.0, 141.0, 17.0 ]
				}

			}
, 			{
				"box" : 				{
					"maxclass" : "newobj",
					"text" : "loadbang",
					"fontname" : "Arial",
					"numinlets" : 1,
					"id" : "obj-13",
					"numoutlets" : 1,
					"outlettype" : [ "bang" ],
					"fontsize" : 9.0,
					"hidden" : 1,
					"patching_rect" : [ 601.0, -38.0, 48.0, 17.0 ]
				}

			}
, 			{
				"box" : 				{
					"maxclass" : "newobj",
					"text" : "pack depth 4",
					"fontname" : "Arial",
					"numinlets" : 2,
					"id" : "obj-14",
					"numoutlets" : 1,
					"outlettype" : [ "" ],
					"fontsize" : 9.0,
					"hidden" : 1,
					"patching_rect" : [ 525.0, 76.0, 66.0, 17.0 ]
				}

			}
, 			{
				"box" : 				{
					"maxclass" : "message",
					"text" : "click to update list",
					"fontname" : "Arial",
					"numinlets" : 2,
					"id" : "obj-15",
					"numoutlets" : 1,
					"outlettype" : [ "" ],
					"fontsize" : 9.0,
					"patching_rect" : [ 424.0, 19.0, 93.0, 15.0 ]
				}

			}
, 			{
				"box" : 				{
					"maxclass" : "umenu",
					"fontname" : "Arial",
					"textcolor" : [ 1.0, 1.0, 1.0, 1.0 ],
					"numinlets" : 1,
					"framecolor" : [ 0.015686, 0.015686, 0.015686, 1.0 ],
					"id" : "obj-16",
					"numoutlets" : 3,
					"bgcolor2" : [ 0.647059, 0.647059, 0.647059, 1.0 ],
					"discolor" : [ 0.647059, 0.647059, 0.647059, 1.0 ],
					"depth" : 4,
					"outlettype" : [ "int", "", "" ],
					"fontsize" : 12.0,
					"togcolor" : [ 0.552941, 0.552941, 0.552941, 1.0 ],
					"autopopulate" : 1,
					"bgcolor" : [ 0.411765, 0.090196, 0.090196, 1.0 ],
					"textcolor2" : [ 1.0, 1.0, 1.0, 1.0 ],
					"types" : [  ],
					"patching_rect" : [ 424.0, 100.0, 121.0, 20.0 ],
					"items" : "Ccrump_glfreq_map.maxpat",
					"prefix" : "Macintosh HD:/Users/sdellemo/Documents/01_SoundDesignToolKit/SDT_contents/Library/Cont_crumpling/MIDI_OSC_contcrump/Ccrump_globfreq/",
					"hltcolor" : [ 0.411765, 0.090196, 0.090196, 1.0 ]
				}

			}
, 			{
				"box" : 				{
					"maxclass" : "newobj",
					"text" : "prepend prefix",
					"fontname" : "Arial",
					"numinlets" : 1,
					"id" : "obj-17",
					"numoutlets" : 1,
					"outlettype" : [ "" ],
					"fontsize" : 9.0,
					"hidden" : 1,
					"patching_rect" : [ 730.0, 80.0, 76.0, 17.0 ]
				}

			}
, 			{
				"box" : 				{
					"maxclass" : "message",
					"text" : "autopopulate 1",
					"fontname" : "Arial",
					"numinlets" : 2,
					"id" : "obj-18",
					"numoutlets" : 1,
					"outlettype" : [ "" ],
					"fontsize" : 9.0,
					"hidden" : 1,
					"patching_rect" : [ 601.0, -4.0, 75.0, 15.0 ]
				}

			}
, 			{
				"box" : 				{
					"maxclass" : "message",
					"text" : "path",
					"fontname" : "Arial",
					"numinlets" : 2,
					"id" : "obj-19",
					"numoutlets" : 1,
					"outlettype" : [ "" ],
					"fontsize" : 9.0,
					"hidden" : 1,
					"patching_rect" : [ 681.0, -4.0, 29.0, 15.0 ]
				}

			}
, 			{
				"box" : 				{
					"maxclass" : "newobj",
					"text" : "thispatcher",
					"fontname" : "Arial",
					"numinlets" : 1,
					"id" : "obj-20",
					"numoutlets" : 2,
					"outlettype" : [ "", "" ],
					"fontsize" : 9.0,
					"hidden" : 1,
					"patching_rect" : [ 681.0, 13.0, 61.0, 17.0 ],
					"save" : [ "#N", "thispatcher", ";", "#Q", "end", ";" ]
				}

			}
, 			{
				"box" : 				{
					"maxclass" : "outlet",
					"varname" : "outlet_bottom",
					"numinlets" : 1,
					"id" : "obj-21",
					"numoutlets" : 0,
					"hidden" : 1,
					"patching_rect" : [ 10.0, 487.0, 15.0, 15.0 ],
					"comment" : ""
				}

			}
, 			{
				"box" : 				{
					"maxclass" : "inlet",
					"varname" : "inlet_up",
					"numinlets" : 0,
					"id" : "obj-22",
					"numoutlets" : 1,
					"outlettype" : [ "" ],
					"hidden" : 1,
					"patching_rect" : [ 10.0, -38.0, 15.0, 15.0 ],
					"comment" : "inlet_up"
				}

			}
, 			{
				"box" : 				{
					"maxclass" : "comment",
					"text" : "click to load and edit mapping patch.",
					"linecount" : 2,
					"fontname" : "Arial",
					"numinlets" : 1,
					"id" : "obj-23",
					"numoutlets" : 0,
					"fontsize" : 9.0,
					"patching_rect" : [ 438.0, 227.0, 100.0, 27.0 ]
				}

			}
, 			{
				"box" : 				{
					"maxclass" : "comment",
					"text" : "choose your control mapping patch",
					"linecount" : 2,
					"fontname" : "Arial",
					"numinlets" : 1,
					"id" : "obj-24",
					"numoutlets" : 0,
					"fontsize" : 9.0,
					"patching_rect" : [ 425.0, 124.0, 100.0, 27.0 ]
				}

			}
, 			{
				"box" : 				{
					"maxclass" : "bpatcher",
					"varname" : "Ccrump_glfreq_MIDI_map",
					"numinlets" : 1,
					"id" : "obj-25",
					"numoutlets" : 1,
					"name" : "Ccrump_glfreq_map.maxpat",
					"args" : [  ],
					"outlettype" : [ "float" ],
					"border" : 1,
					"patching_rect" : [ 10.0, 10.0, 410.0, 410.0 ],
					"lockeddragscroll" : 1
				}

			}
 ],
		"lines" : [ 			{
				"patchline" : 				{
					"source" : [ "obj-20", 1 ],
					"destination" : [ "obj-12", 0 ],
					"hidden" : 1,
					"midpoints" : [  ]
				}

			}
, 			{
				"patchline" : 				{
					"source" : [ "obj-5", 0 ],
					"destination" : [ "obj-20", 0 ],
					"hidden" : 1,
					"midpoints" : [ 606.5, 218.0, 807.0, 218.0, 807.0, 11.0, 690.5, 11.0 ]
				}

			}
, 			{
				"patchline" : 				{
					"source" : [ "obj-19", 0 ],
					"destination" : [ "obj-20", 0 ],
					"hidden" : 1,
					"midpoints" : [  ]
				}

			}
, 			{
				"patchline" : 				{
					"source" : [ "obj-2", 0 ],
					"destination" : [ "obj-20", 0 ],
					"hidden" : 1,
					"midpoints" : [ 434.5, 14.0, 690.5, 14.0 ]
				}

			}
, 			{
				"patchline" : 				{
					"source" : [ "obj-13", 0 ],
					"destination" : [ "obj-19", 0 ],
					"hidden" : 1,
					"midpoints" : [ 610.5, -8.0, 690.5, -8.0 ]
				}

			}
, 			{
				"patchline" : 				{
					"source" : [ "obj-13", 0 ],
					"destination" : [ "obj-18", 0 ],
					"hidden" : 1,
					"midpoints" : [  ]
				}

			}
, 			{
				"patchline" : 				{
					"source" : [ "obj-3", 1 ],
					"destination" : [ "obj-5", 0 ],
					"hidden" : 1,
					"midpoints" : [  ]
				}

			}
, 			{
				"patchline" : 				{
					"source" : [ "obj-3", 0 ],
					"destination" : [ "obj-5", 0 ],
					"hidden" : 1,
					"midpoints" : [  ]
				}

			}
, 			{
				"patchline" : 				{
					"source" : [ "obj-4", 0 ],
					"destination" : [ "obj-3", 0 ],
					"hidden" : 1,
					"midpoints" : [  ]
				}

			}
, 			{
				"patchline" : 				{
					"source" : [ "obj-9", 0 ],
					"destination" : [ "obj-4", 0 ],
					"hidden" : 1,
					"midpoints" : [  ]
				}

			}
, 			{
				"patchline" : 				{
					"source" : [ "obj-16", 1 ],
					"destination" : [ "obj-9", 0 ],
					"hidden" : 1,
					"midpoints" : [ 484.5, 125.0, 606.5, 125.0 ]
				}

			}
, 			{
				"patchline" : 				{
					"source" : [ "obj-9", 0 ],
					"destination" : [ "obj-8", 0 ],
					"hidden" : 1,
					"midpoints" : [ 606.5, 148.0, 542.5, 148.0 ]
				}

			}
, 			{
				"patchline" : 				{
					"source" : [ "obj-11", 0 ],
					"destination" : [ "obj-14", 0 ],
					"hidden" : 1,
					"midpoints" : [  ]
				}

			}
, 			{
				"patchline" : 				{
					"source" : [ "obj-15", 0 ],
					"destination" : [ "obj-11", 0 ],
					"hidden" : 1,
					"midpoints" : [ 433.5, 51.0, 460.0, 51.0, 460.0, 51.0, 534.5, 51.0 ]
				}

			}
, 			{
				"patchline" : 				{
					"source" : [ "obj-10", 0 ],
					"destination" : [ "obj-6", 0 ],
					"hidden" : 1,
					"midpoints" : [  ]
				}

			}
, 			{
				"patchline" : 				{
					"source" : [ "obj-7", 0 ],
					"destination" : [ "obj-10", 0 ],
					"hidden" : 1,
					"midpoints" : [ 435.5, 325.0, 435.5, 325.0 ]
				}

			}
, 			{
				"patchline" : 				{
					"source" : [ "obj-8", 0 ],
					"destination" : [ "obj-7", 0 ],
					"hidden" : 1,
					"midpoints" : [ 542.5, 171.0, 435.5, 171.0 ]
				}

			}
, 			{
				"patchline" : 				{
					"source" : [ "obj-13", 0 ],
					"destination" : [ "obj-2", 0 ],
					"hidden" : 1,
					"midpoints" : [ 610.5, -18.0, 434.5, -18.0 ]
				}

			}
, 			{
				"patchline" : 				{
					"source" : [ "obj-17", 0 ],
					"destination" : [ "obj-16", 0 ],
					"hidden" : 1,
					"midpoints" : [ 739.5, 106.0, 433.5, 106.0 ]
				}

			}
, 			{
				"patchline" : 				{
					"source" : [ "obj-18", 0 ],
					"destination" : [ "obj-16", 0 ],
					"hidden" : 1,
					"midpoints" : [  ]
				}

			}
, 			{
				"patchline" : 				{
					"source" : [ "obj-14", 0 ],
					"destination" : [ "obj-16", 0 ],
					"hidden" : 1,
					"midpoints" : [ 534.5, 96.0, 433.5, 96.0 ]
				}

			}
, 			{
				"patchline" : 				{
					"source" : [ "obj-25", 0 ],
					"destination" : [ "obj-21", 0 ],
					"hidden" : 1,
					"midpoints" : [  ]
				}

			}
, 			{
				"patchline" : 				{
					"source" : [ "obj-22", 0 ],
					"destination" : [ "obj-25", 0 ],
					"hidden" : 1,
					"midpoints" : [  ]
				}

			}
, 			{
				"patchline" : 				{
					"source" : [ "obj-12", 0 ],
					"destination" : [ "obj-28", 0 ],
					"hidden" : 1,
					"midpoints" : [  ]
				}

			}
, 			{
				"patchline" : 				{
					"source" : [ "obj-28", 0 ],
					"destination" : [ "obj-17", 0 ],
					"hidden" : 1,
					"midpoints" : [  ]
				}

			}
 ]
	}

}
