#N canvas 0 0 450 300 10;
#X obj -1 152 vline~;
#X msg -1 130 0 0 0 \, 1 \$1 0 \, 0 \$2 \$1;
#X obj -1 108 pack f f;
#X obj -1 45 f \$1;
#X obj 50 45 f \$2;
#X obj -1 21 t b b;
#X obj -1 -2 inlet trigger;
#X obj -1 174 outlet~;
#X obj 125 0 inlet scale;
#X obj 125 21 t f f;
#X obj -1 76 * 1;
#X obj 50 80 * 1;
#X connect 0 0 7 0;
#X connect 1 0 0 0;
#X connect 2 0 1 0;
#X connect 3 0 10 0;
#X connect 4 0 11 0;
#X connect 5 0 3 0;
#X connect 5 1 4 0;
#X connect 6 0 5 0;
#X connect 8 0 9 0;
#X connect 9 0 10 1;
#X connect 9 1 11 1;
#X connect 10 0 2 0;
#X connect 11 0 2 1;
