#N canvas 0 0 450 300 10;
#X obj 103 198 vline~;
#X msg 103 175 0 0 0 \, 1 \$1 0 \, 0 \$2 \$1;
#X obj 103 153 pack f f;
#X obj 103 130 f \$1;
#X obj 154 129 f \$2;
#X obj 103 103 t b b;
#X obj 103 80 inlet trigger;
#X obj 103 222 outlet~;
#X connect 0 0 7 0;
#X connect 1 0 0 0;
#X connect 2 0 1 0;
#X connect 3 0 2 0;
#X connect 4 0 2 1;
#X connect 5 0 3 0;
#X connect 5 1 4 0;
#X connect 6 0 5 0;
