#N canvas 290 60 129 200 10;
#X obj 28 108 vline~;
#X obj 5 174 outlet~ signal;
#X msg 28 84 0 0 0 \, 1 \$1 0;
#X obj 51 39 f \$1;
#X obj 51 18 loadbang;
#X obj 28 -3 inlet trigger;
#X obj 28 62 f 10;
#X obj 5 131 sig~ 2.71828;
#X obj 5 153 pow~;
#X connect 0 0 8 1;
#X connect 2 0 0 0;
#X connect 3 0 6 1;
#X connect 4 0 3 0;
#X connect 5 0 6 0;
#X connect 6 0 2 0;
#X connect 7 0 8 0;
#X connect 8 0 1 0;
