#N canvas 132 129 252 424 10;
#X obj 25 37 t b b;
#X obj -1 254 line;
#X obj -1 276 * 1.5708;
#X obj 25 15 inlet;
#X obj -1 405 outlet;
#X obj -1 363 * 0.5;
#X obj -1 298 cos;
#X obj -1 320 swap 1;
#X obj -1 342 -;
#X obj -1 384 + 0.25;
#X obj 68 15 inlet duration;
#X obj 25 64 f;
#X msg -1 222 1 \$1;
#X obj 68 37 t f f f;
#X obj 39 149 del;
#X obj 174 15 inlet ad;
#X obj 174 36 t f f;
#X obj 25 98 *;
#X obj 204 60 swap 1;
#X obj 205 81 -;
#X obj 39 171 f;
#X obj 39 193 *;
#X msg 39 221 0 \$1;
#X obj 25 119 t f f;
#X connect 0 0 11 0;
#X connect 0 1 14 0;
#X connect 1 0 2 0;
#X connect 2 0 6 0;
#X connect 3 0 0 0;
#X connect 5 0 9 0;
#X connect 6 0 7 0;
#X connect 7 0 8 0;
#X connect 7 1 8 1;
#X connect 8 0 5 0;
#X connect 9 0 4 0;
#X connect 10 0 13 0;
#X connect 11 0 17 0;
#X connect 12 0 1 0;
#X connect 13 0 11 1;
#X connect 13 2 20 1;
#X connect 14 0 20 0;
#X connect 15 0 16 0;
#X connect 16 0 17 1;
#X connect 16 1 18 0;
#X connect 17 0 23 0;
#X connect 18 0 19 0;
#X connect 18 1 19 1;
#X connect 19 0 21 1;
#X connect 20 0 21 0;
#X connect 21 0 22 0;
#X connect 22 0 1 0;
#X connect 23 0 12 0;
#X connect 23 1 14 1;
