#N canvas 309 176 593 431 10;
#X obj 25 323 *~ 0.1;
#X obj 25 412 dac~;
#X obj 530 205 - 0.5;
#X obj 530 225 * 2;
#X obj 25 367 *~;
#X obj 530 185 max 0.5;
#X obj 530 247 sqrt;
#X obj 239 117 bng 15 250 50 0 empty empty roar 0 -6 1 8 -262144 -1
-1;
#X obj 25 388 *~ 8;
#X obj 27 21 hsl 128 12 0.2 0.8 0 1 \$0-risefall empty risefall 40
6 1 8 -262144 -1 -1 8500 1;
#X obj 27 9 hsl 128 12 100 3000 0 1 \$0-dur empty duration 30 6 1 8
-262144 -1 -1 7600 1;
#X obj 239 139 articulate;
#X obj 271 98 r \$0-dur;
#X obj 304 118 r \$0-risefall;
#X obj 27 33 hsl 128 12 5 700 0 1 \$0-frange empty F0-range 40 6 1
8 -262144 -1 -1 1100 1;
#X obj 41 183 r \$0-frange;
#X obj 25 206 *;
#X obj 25 252 +;
#X obj 41 228 r \$0-base;
#X obj 27 45 hsl 128 12 5 300 0 1 \$0-base empty F0-base 40 6 1 8 -262144
-1 -1 2400 1;
#X obj 140 184 r \$0-cordr;
#X obj 124 204 *;
#X obj 27 57 hsl 128 12 0.2 5 0 1 \$0-cordr empty cord-ripple 40 6
1 8 -262144 -1 -1 4400 1;
#X obj 27 93 hsl 128 12 10 500 0 1 \$0-tractb empty tract-base 20 6
1 8 -262144 -1 -1 8500 1;
#X obj 210 206 *;
#X obj 27 105 hsl 128 12 10 500 0 1 \$0-tractbm empty tract-baserise
20 6 1 8 -262144 -1 -1 4400 1;
#X obj 210 247 +;
#X obj 332 223 r \$0-tractl;
#X obj 226 226 r \$0-tracb;
#X obj 226 184 r \$0-tractbm;
#X obj 332 184 r \$0-tractlm;
#X obj 316 205 *;
#X obj 316 243 +;
#X obj 27 117 hsl 128 12 10 100 0 1 \$0-traclm empty tract-lengthmod
20 6 1 8 -262144 -1 -1 4400 1;
#X obj 27 129 hsl 128 12 10 200 0 1 \$0-tractl empty tract-length 20
6 1 8 -262144 -1 -1 7600 1;
#X obj 27 141 hsl 128 12 2 40 0 1 \$0-tracrm empty tract-resmod 20
6 1 8 -262144 -1 -1 8000 1;
#X obj 430 185 r \$0-tractrm;
#X obj 414 205 *;
#X obj 430 225 r \$0-tractres;
#X obj 414 245 +;
#X obj 27 153 hsl 128 12 5 60 0 1 \$0-tractres empty tract-res 20 6
1 8 -262144 -1 -1 9100 1;
#X obj 53 250 r \$0-cordw;
#X obj 27 69 hsl 128 12 1 100 0 1 \$0-cordw empty cord-width 40 6 1
8 -262144 -1 -1 5300 1;
#N canvas 781 270 247 409 cord 0;
#X obj 54 85 cos~;
#X obj 54 43 -~ 0.5;
#X obj 54 108 +~ 1;
#X obj 105 131 cos~;
#X obj 54 159 *~;
#X obj 105 109 *~;
#X obj 54 21 phasor~ 100;
#X obj 54 131 *~ 0.5;
#X obj 121 65 sig~;
#X obj 121 86 lop~ 10;
#X obj 3 275 /~;
#X obj 54 227 *~;
#X obj 54 248 +~ 1;
#X obj 3 249 sig~ 1;
#X obj 3 391 outlet~;
#X obj 3 366 hip~ 1;
#X obj 54 201 *~;
#X obj 70 179 inlet cord width;
#X obj 121 41 inlet cord ripple;
#X obj 54 0 inlet cord freq;
#X obj 49 278 noise~;
#X obj 33 304 *~;
#X obj 3 332 *~;
#X obj 33 332 *~;
#X obj 97 278 sig~ 1;
#X obj 97 302 -~;
#X obj 113 233 inlet noisiness;
#X obj 113 254 sig~;
#X connect 0 0 2 0;
#X connect 1 0 5 0;
#X connect 1 0 0 0;
#X connect 2 0 7 0;
#X connect 3 0 4 1;
#X connect 4 0 16 0;
#X connect 5 0 3 0;
#X connect 6 0 1 0;
#X connect 7 0 4 0;
#X connect 8 0 9 0;
#X connect 9 0 5 1;
#X connect 10 0 21 0;
#X connect 10 0 22 0;
#X connect 11 0 12 0;
#X connect 12 0 10 1;
#X connect 13 0 10 0;
#X connect 15 0 14 0;
#X connect 16 0 11 0;
#X connect 16 0 11 1;
#X connect 17 0 16 1;
#X connect 18 0 8 0;
#X connect 19 0 6 0;
#X connect 20 0 21 1;
#X connect 21 0 23 0;
#X connect 22 0 15 0;
#X connect 23 0 15 0;
#X connect 24 0 25 0;
#X connect 25 0 22 1;
#X connect 26 0 27 0;
#X connect 27 0 23 1;
#X connect 27 0 25 1;
#X restore 25 300 pd cord model;
#X obj 82 270 r \$0-cordnz;
#X obj 27 81 hsl 128 12 0 1 0 1 \$0-cordnz empty cord-noise 40 6 1
8 -262144 -1 -1 3400 1;
#N canvas 0 0 462 479 tract 0;
#X obj 136 100 +;
#X obj 3 420 bp~ 1 1;
#X obj 409 354 inlet;
#X text 410 331 res;
#X obj 60 419 bp~ 1 1;
#X obj 166 144 +;
#X obj 119 418 bp~ 1 1;
#X obj 176 417 bp~ 1 1;
#X obj 196 188 +;
#X obj 235 417 bp~ 1 1;
#X obj 292 416 bp~ 1 1;
#X obj 351 415 bp~ 1 1;
#X obj 408 414 bp~ 1 1;
#X obj 226 229 +;
#X obj 256 270 +;
#X obj 286 312 +;
#X obj 316 355 +;
#X obj 189 460 outlet~;
#X obj 182 61 * 1.414;
#X obj 212 100 * 1.414;
#X obj 242 139 * 1.414;
#X obj 272 178 * 1.414;
#X obj 302 218 * 1.414;
#X obj 332 259 * 1.414;
#X obj 152 42 t f f;
#X obj 182 80 t f f;
#X obj 212 120 t f f;
#X obj 242 158 t f f;
#X obj 272 198 t f f;
#X obj 302 238 t f f;
#X obj 136 122 t f f;
#X obj 166 164 t f f;
#X obj 196 208 t f f;
#X obj 226 249 t f f;
#X obj 256 291 t f f;
#X obj 286 332 t f f;
#X obj 106 78 t f f;
#X obj 152 22 inlet separation;
#X obj 106 1 inlet base;
#X obj 3 20 inlet~ audio;
#X connect 0 0 30 0;
#X connect 1 0 17 0;
#X connect 2 0 12 2;
#X connect 2 0 11 2;
#X connect 2 0 10 2;
#X connect 2 0 9 2;
#X connect 2 0 7 2;
#X connect 2 0 6 2;
#X connect 2 0 4 2;
#X connect 2 0 1 2;
#X connect 4 0 17 0;
#X connect 5 0 31 0;
#X connect 6 0 17 0;
#X connect 7 0 17 0;
#X connect 8 0 32 0;
#X connect 9 0 17 0;
#X connect 10 0 17 0;
#X connect 11 0 17 0;
#X connect 12 0 17 0;
#X connect 13 0 33 0;
#X connect 14 0 34 0;
#X connect 15 0 35 0;
#X connect 16 0 12 1;
#X connect 18 0 25 0;
#X connect 19 0 26 0;
#X connect 20 0 27 0;
#X connect 21 0 28 0;
#X connect 22 0 29 0;
#X connect 23 0 16 1;
#X connect 24 0 0 1;
#X connect 24 1 18 0;
#X connect 25 0 5 1;
#X connect 25 1 19 0;
#X connect 26 0 8 1;
#X connect 26 1 20 0;
#X connect 27 0 13 1;
#X connect 27 1 21 0;
#X connect 28 0 14 1;
#X connect 28 1 22 0;
#X connect 29 0 15 1;
#X connect 29 1 23 0;
#X connect 30 0 4 1;
#X connect 30 1 5 0;
#X connect 31 0 6 1;
#X connect 31 1 8 0;
#X connect 32 0 7 1;
#X connect 32 1 13 0;
#X connect 33 0 9 1;
#X connect 33 1 14 0;
#X connect 34 0 10 1;
#X connect 34 1 15 0;
#X connect 35 0 11 1;
#X connect 35 1 16 0;
#X connect 36 0 1 1;
#X connect 36 1 0 0;
#X connect 37 0 24 0;
#X connect 38 0 36 0;
#X connect 39 0 1 0;
#X connect 39 0 4 0;
#X connect 39 0 6 0;
#X connect 39 0 7 0;
#X connect 39 0 9 0;
#X connect 39 0 10 0;
#X connect 39 0 11 0;
#X connect 39 0 12 0;
#X restore 25 345 pd tract comb filter;
#X connect 0 0 46 0;
#X connect 2 0 3 0;
#X connect 3 0 6 0;
#X connect 4 0 8 0;
#X connect 5 0 2 0;
#X connect 6 0 4 1;
#X connect 7 0 11 0;
#X connect 8 0 1 0;
#X connect 8 0 1 1;
#X connect 11 0 5 0;
#X connect 11 0 16 0;
#X connect 11 0 21 0;
#X connect 11 0 24 0;
#X connect 11 0 31 0;
#X connect 11 0 37 0;
#X connect 12 0 11 1;
#X connect 13 0 11 2;
#X connect 15 0 16 1;
#X connect 16 0 17 0;
#X connect 17 0 43 0;
#X connect 18 0 17 1;
#X connect 20 0 21 1;
#X connect 21 0 43 3;
#X connect 24 0 26 0;
#X connect 26 0 46 1;
#X connect 27 0 32 1;
#X connect 28 0 26 1;
#X connect 29 0 24 1;
#X connect 30 0 31 1;
#X connect 31 0 32 0;
#X connect 32 0 46 2;
#X connect 36 0 37 1;
#X connect 37 0 39 0;
#X connect 38 0 39 1;
#X connect 39 0 46 3;
#X connect 41 0 43 1;
#X connect 43 0 0 0;
#X connect 44 0 43 2;
#X connect 46 0 4 0;
