#N canvas 143 193 76 113 10;
#X obj 1 0 osc~ 350;
#X obj 0 45 +~;
#X obj 0 94 dac~;
#X obj 1 67 *~ 0.125;
#X obj 16 21 osc~ 440;
#X connect 0 0 1 0;
#X connect 1 0 3 0;
#X connect 3 0 2 0;
#X connect 3 0 2 1;
#X connect 4 0 1 1;
