#N canvas 143 193 144 138 10;
#X obj 17 22 osc~ 450;
#X obj 1 1 osc~ 350;
#X obj 1 46 +~;
#X obj 1 117 dac~;
#X msg 82 22 1;
#X msg 114 22 0;
#X obj 1 69 *~;
#N canvas 0 0 185 209 tline 1;
#X obj 43 49 bp~ 2000 12;
#X obj 40 147 hip~ 90;
#X obj 40 167 hip~ 90;
#X obj 43 6 inlet~ thisend;
#X obj 40 188 outlet~ thatend;
#X obj 43 28 clip~ -0.9 0.9;
#X obj 77 92 clip~ -0.4 0.4;
#X obj 77 114 *~ 0.15;
#X obj 5 114 bp~ 400 3;
#X obj 5 94 *~ 0.5;
#X connect 0 0 6 0;
#X connect 0 0 9 0;
#X connect 1 0 2 0;
#X connect 2 0 4 0;
#X connect 3 0 5 0;
#X connect 5 0 0 0;
#X connect 6 0 7 0;
#X connect 7 0 1 0;
#X connect 8 0 1 0;
#X connect 9 0 8 0;
#X restore 1 92 pd tline;
#X connect 0 0 2 1;
#X connect 1 0 2 0;
#X connect 2 0 6 0;
#X connect 4 0 6 1;
#X connect 5 0 6 1;
#X connect 6 0 7 0;
#X connect 7 0 3 0;
#X connect 7 0 3 1;
