#N canvas 84 36 102 340 10;
#X obj 0 261 telephone-line;
#X obj 0 238 sig~;
#X obj 0 313 dac~;
#X obj 36 215 == 0;
#X obj 30 81 delay;
#X msg 30 102 0;
#X msg 0 103 1;
#X obj 0 39 t b f;
#X obj 0 215 + 1;
#X obj 0 163 t b b;
#X obj 0 139 metro 100;
#X obj 30 60 * 100;
#X obj 30 188 del 40;
#X msg 0 0 1;
#X msg 31 0 5;
#X msg 65 0 7;
#X obj 0 284 *~ 0.8;
#X connect 0 0 16 0;
#X connect 1 0 0 0;
#X connect 3 0 8 1;
#X connect 4 0 5 0;
#X connect 5 0 10 0;
#X connect 6 0 10 0;
#X connect 7 0 6 0;
#X connect 7 1 11 0;
#X connect 8 0 3 0;
#X connect 8 0 1 0;
#X connect 9 0 8 0;
#X connect 9 1 12 0;
#X connect 10 0 9 0;
#X connect 11 0 4 0;
#X connect 12 0 8 0;
#X connect 13 0 7 0;
#X connect 14 0 7 0;
#X connect 15 0 7 0;
#X connect 16 0 2 0;
#X connect 16 0 2 1;
