#N canvas 143 193 188 257 10;
#X obj 72 235 dac~;
#N canvas 0 0 185 209 tline 0;
#X obj 43 49 bp~ 2000 12;
#X obj 40 147 hip~ 90;
#X obj 40 167 hip~ 90;
#X obj 43 6 inlet~ thisend;
#X obj 40 188 outlet~ thatend;
#X obj 43 28 clip~ -0.9 0.9;
#X obj 77 92 clip~ -0.4 0.4;
#X obj 77 114 *~ 0.15;
#X obj 5 114 bp~ 400 3;
#X obj 5 94 *~ 0.5;
#X connect 0 0 6 0;
#X connect 0 0 9 0;
#X connect 1 0 2 0;
#X connect 2 0 4 0;
#X connect 3 0 5 0;
#X connect 5 0 0 0;
#X connect 6 0 7 0;
#X connect 7 0 1 0;
#X connect 8 0 1 0;
#X connect 9 0 8 0;
#X restore 72 210 pd tline;
#X obj 3 71 osc~ 480;
#X obj 3 117 +~;
#X obj 72 159 *~;
#X obj 19 91 osc~ 440;
#X obj 88 115 sig~;
#X obj 88 136 lop~ 100;
#X obj 88 45 f;
#X obj 88 67 mod 6;
#X obj 127 46 + 1;
#X obj 88 91 > 2;
#X obj 88 23 metro 1000;
#X obj 88 1 loadbang;
#X obj 72 185 *~;
#X obj 166 136 tgl 15 0 empty empty ring 0 -6 1 8 -262144 -1 -1 1 1
;
#X connect 1 0 0 0;
#X connect 1 0 0 1;
#X connect 2 0 3 0;
#X connect 3 0 4 0;
#X connect 4 0 14 0;
#X connect 5 0 3 1;
#X connect 6 0 7 0;
#X connect 7 0 4 1;
#X connect 8 0 9 0;
#X connect 9 0 10 0;
#X connect 9 0 11 0;
#X connect 10 0 8 1;
#X connect 11 0 6 0;
#X connect 12 0 8 0;
#X connect 13 0 12 0;
#X connect 14 0 1 0;
#X connect 15 0 14 1;
