#N canvas 0 0 874 431 10;
#X obj 26 106 dac~;
#X obj 125 3 noise~;
#N canvas 0 0 175 257 windspeed 0;
#X obj 13 41 +~ 1;
#X obj 12 151 +~;
#X obj 13 64 *~ 0.25;
#X obj 28 129 +~;
#X obj 13 173 clip~ 0 1;
#N canvas 0 0 184 221 squall 0;
#X obj 78 41 noise~;
#X obj 77 108 hip~ 0;
#X obj 78 64 lop~ 3;
#X obj 78 85 lop~ 3;
#X obj 17 112 *~;
#X obj 38 160 *~;
#X obj 16 42 max~ 0.4;
#X obj 16 64 -~ 0.4;
#X obj 16 87 *~ 8;
#X obj 78 129 *~ 20;
#X obj 16 14 inlet~;
#X obj 40 184 outlet~;
#X connect 0 0 2 0;
#X connect 1 0 9 0;
#X connect 2 0 3 0;
#X connect 3 0 1 0;
#X connect 4 0 5 0;
#X connect 5 0 11 0;
#X connect 6 0 7 0;
#X connect 7 0 8 0;
#X connect 8 0 4 0;
#X connect 8 0 4 1;
#X connect 9 0 5 1;
#X connect 10 0 6 0;
#X restore 83 98 pd squall;
#N canvas 0 0 190 244 gust 0;
#X obj 9 15 noise~;
#X obj 8 82 hip~ 0;
#X obj 8 157 *~;
#X obj 76 72 *~;
#X obj 75 49 +~ 0.5;
#X obj 76 96 -~ 0.125;
#X obj 9 59 lop~ 0.5;
#X obj 9 38 lop~ 0.5;
#X obj 9 103 *~ 50;
#X obj 75 9 inlet~;
#X obj 8 182 outlet~;
#X connect 0 0 7 0;
#X connect 1 0 8 0;
#X connect 2 0 10 0;
#X connect 3 0 5 0;
#X connect 4 0 3 0;
#X connect 4 0 3 1;
#X connect 5 0 2 1;
#X connect 6 0 1 0;
#X connect 7 0 6 0;
#X connect 8 0 2 0;
#X connect 9 0 4 0;
#X restore 27 98 pd gust;
#X obj 13 199 outlet~;
#X obj 13 19 osc~ 0.1;
#X connect 0 0 2 0;
#X connect 1 0 4 0;
#X connect 2 0 5 0;
#X connect 2 0 1 0;
#X connect 2 0 6 0;
#X connect 3 0 1 1;
#X connect 4 0 7 0;
#X connect 5 0 3 1;
#X connect 6 0 3 0;
#X connect 8 0 0 0;
#X restore 3 3 pd windspeed;
#X obj 3 25 delwrite~ a 3000;
#X obj 2 47 catch~ l;
#X obj 66 47 catch~ r;
#X obj 125 25 s~ white;
#X obj 67 81 *~ 0.45;
#X obj 3 81 *~ 0.45;
#X obj 488 279 throw~ l;
#X obj 552 279 throw~ r;
#X obj 488 212 *~;
#X obj 503 26 vd~ a 1000;
#X obj 488 254 fcpan 0.21;
#X obj 503 51 lop~ 0.1;
#X obj 447 148 bp~ 3000 2;
#X obj 448 125 r~ white;
#X obj 502 99 clip~ 0 1;
#X obj 446 171 hip~ 1;
#X obj 502 77 -~ 0.3;
#X obj 284 275 throw~ l;
#X obj 349 275 throw~ r;
#X obj 354 38 vd~ a 100;
#X obj 285 203 *~;
#X obj 641 279 throw~ l;
#X obj 705 279 throw~ r;
#X obj 640 75 r~ white;
#X obj 640 103 max~;
#X obj 640 124 -~;
#X obj 640 146 *~;
#X obj 706 51 sig~ 1;
#X obj 706 75 -~;
#X obj 641 212 *~;
#X obj 724 -18 +~ 0.3;
#X obj 723 30 *~ 0.4;
#X obj 724 -40 vd~ a 3000;
#X obj 724 4 lop~ 0.07;
#X obj 641 190 lop~ 9000;
#X obj 640 168 hip~ 1200;
#X obj 286 129 r~ white;
#X obj 771 105 clip~ 0 1;
#X obj 771 30 -~ 0.3;
#X obj 641 254 fcpan 0.16;
#X obj 284 253 fcpan 0.61;
#X obj 137 273 throw~ l;
#X obj 202 273 throw~ r;
#X obj 137 199 *~;
#X obj 138 66 r~ white;
#X obj 204 67 vd~ a 0;
#X obj 286 166 bp~ 160 2;
#X obj 352 111 clip~ 0 1;
#X obj 352 89 -~ 0.3;
#X obj 137 172 cos~;
#X obj 137 151 -~ 0.25;
#X obj 137 129 *~ 2;
#X obj 137 251 fcpan 0.51;
#X obj 285 226 *~ 1;
#X obj 641 233 *~ 0.4;
#X obj 488 233 *~ 0.1;
#X obj 351 134 +~ 0.1;
#X obj 138 103 bp~ 80 5;
#X obj 138 226 *~ 0.2;
#X obj 353 63 lop~ 2;
#X connect 1 0 6 0;
#X connect 2 0 3 0;
#X connect 4 0 8 0;
#X connect 5 0 7 0;
#X connect 7 0 0 1;
#X connect 8 0 0 0;
#X connect 11 0 58 0;
#X connect 12 0 14 0;
#X connect 13 0 9 0;
#X connect 13 1 10 0;
#X connect 14 0 19 0;
#X connect 15 0 18 0;
#X connect 16 0 15 0;
#X connect 17 0 11 1;
#X connect 18 0 11 0;
#X connect 19 0 17 0;
#X connect 22 0 62 0;
#X connect 23 0 56 0;
#X connect 26 0 27 0;
#X connect 27 0 28 0;
#X connect 28 0 29 0;
#X connect 29 0 38 0;
#X connect 30 0 31 0;
#X connect 31 0 27 1;
#X connect 31 0 28 1;
#X connect 31 0 29 1;
#X connect 32 0 57 0;
#X connect 33 0 36 0;
#X connect 34 0 31 1;
#X connect 35 0 33 0;
#X connect 36 0 34 0;
#X connect 36 0 41 0;
#X connect 37 0 32 0;
#X connect 38 0 37 0;
#X connect 39 0 49 0;
#X connect 40 0 32 1;
#X connect 41 0 40 0;
#X connect 42 0 24 0;
#X connect 42 1 25 0;
#X connect 43 0 20 0;
#X connect 43 1 21 0;
#X connect 46 0 61 0;
#X connect 47 0 60 0;
#X connect 48 0 46 1;
#X connect 49 0 23 0;
#X connect 50 0 59 0;
#X connect 51 0 50 0;
#X connect 52 0 46 0;
#X connect 53 0 52 0;
#X connect 54 0 53 0;
#X connect 55 0 44 0;
#X connect 55 1 45 0;
#X connect 56 0 43 0;
#X connect 57 0 42 0;
#X connect 58 0 13 0;
#X connect 59 0 23 1;
#X connect 60 0 54 0;
#X connect 61 0 55 0;
#X connect 62 0 51 0;
