#N canvas 19 177 1213 668 10;
#X obj 39 37 bng 15 250 50 0 empty empty empty 0 -6 0 8 -262144 -1
-1;
#X obj 312 483 dac~;
#X obj 58 -5 tgl 15 0 empty empty empty 0 -6 0 8 -262144 -1 -1 0 1
;
#X obj 167 57 noise~;
#X obj 196 239 bp~ 440 89;
#X obj 108 238 bp~ 170 89;
#X obj 279 240 bp~ 789 89;
#X obj 367 240 bp~ 994 89;
#X obj 290 75 * 1.58;
#X obj 343 74 * 2.24;
#X obj 392 72 * 2.92;
#X obj 445 72 * 2;
#X obj 477 72 * 2.55;
#X obj 524 70 * 3.16;
#X obj 577 69 * 3;
#X obj 612 70 * 3.54;
#X obj 531 241 bp~ 440 89;
#X obj 446 240 bp~ 170 89;
#X obj 614 243 bp~ 789 89;
#X obj 696 243 bp~ 994 89;
#X obj 239 76 * 1;
#X obj 779 244 bp~ 994 89;
#X obj 382 19 hsl 128 15 0 3000 0 0 empty empty empty -2 -6 0 8 -262144
-1 -1 1000 1;
#X obj 708 30 hsl 128 15 0 127 0 0 empty empty empty -2 -6 0 8 -262144
-1 -1 7800 1;
#X obj 672 64 * 1;
#X obj 106 112 hip~ 100;
#X obj 322 339 *~ 1;
#X obj 166 79 lop~ 600;
#X floatatom 1031 95 5 0 0 0 - - -;
#X obj 717 62 * 1.2;
#X obj 761 61 * 1.2;
#X obj 805 61 * 1.2;
#X obj 849 60 * 1.2;
#X obj 894 63 * 1.2;
#X obj 938 62 * 1.2;
#X obj 986 62 * 1.2;
#X obj 1030 61 * 1.2;
#X obj 312 457 *~ 0.4;
#X obj 363 409 *~;
#X obj 376 361 osc~ 600;
#X obj 134 384 hsl 128 15 0 3000 0 0 empty empty empty -2 -6 0 8 -262144
-1 -1 5800 1;
#X obj 71 99 *~ 1;
#X obj 163 316 *~ 100;
#X obj 161 341 +~ 330;
#X obj 111 36 ead~ 0 80;
#X obj 22 136 f;
#X obj 51 138 + 4;
#X obj 28 169 mod 16;
#X obj 61 18 metro 300;
#X obj 29 228 * 3;
#X obj 29 200 + 12;
#X connect 0 0 44 0;
#X connect 0 0 45 0;
#X connect 2 0 48 0;
#X connect 3 0 27 0;
#X connect 4 0 26 0;
#X connect 5 0 26 0;
#X connect 6 0 26 0;
#X connect 7 0 26 0;
#X connect 8 0 4 1;
#X connect 9 0 6 1;
#X connect 10 0 7 1;
#X connect 11 0 17 1;
#X connect 12 0 16 1;
#X connect 13 0 18 1;
#X connect 14 0 19 1;
#X connect 15 0 21 1;
#X connect 16 0 26 0;
#X connect 17 0 26 0;
#X connect 18 0 26 0;
#X connect 19 0 26 0;
#X connect 20 0 5 1;
#X connect 21 0 26 0;
#X connect 22 0 8 0;
#X connect 22 0 9 0;
#X connect 22 0 20 1;
#X connect 22 0 10 0;
#X connect 22 0 11 0;
#X connect 22 0 12 0;
#X connect 22 0 13 0;
#X connect 22 0 14 0;
#X connect 22 0 15 0;
#X connect 23 0 24 0;
#X connect 24 0 5 2;
#X connect 24 0 29 0;
#X connect 25 0 5 0;
#X connect 25 0 4 0;
#X connect 25 0 6 0;
#X connect 25 0 7 0;
#X connect 25 0 17 0;
#X connect 25 0 16 0;
#X connect 25 0 18 0;
#X connect 25 0 19 0;
#X connect 25 0 21 0;
#X connect 26 0 38 0;
#X connect 26 0 37 0;
#X connect 29 0 4 2;
#X connect 29 0 30 0;
#X connect 30 0 6 2;
#X connect 30 0 31 0;
#X connect 31 0 7 2;
#X connect 31 0 32 0;
#X connect 32 0 17 2;
#X connect 32 0 33 0;
#X connect 33 0 16 2;
#X connect 33 0 34 0;
#X connect 34 0 18 2;
#X connect 34 0 35 0;
#X connect 35 0 19 2;
#X connect 35 0 36 0;
#X connect 36 0 21 2;
#X connect 36 0 28 0;
#X connect 37 0 1 0;
#X connect 37 0 1 1;
#X connect 38 0 37 0;
#X connect 39 0 38 1;
#X connect 40 0 42 1;
#X connect 41 0 42 0;
#X connect 42 0 43 0;
#X connect 43 0 39 0;
#X connect 44 0 25 0;
#X connect 44 0 41 0;
#X connect 45 0 46 0;
#X connect 45 0 47 0;
#X connect 46 0 45 1;
#X connect 47 0 50 0;
#X connect 48 0 0 0;
#X connect 49 0 23 0;
#X connect 50 0 49 0;
