#N canvas 108 54 149 209 10;
#X obj 0 0 vd~ a 0;
#X obj 17 40 r~ white;
#X obj 24 191 throw~ l;
#X obj 89 191 throw~ r;
#X obj 0 86 *~;
#X obj 24 169 fcpan 0.51;
#X obj 62 104 clip~ 0 0.99;
#X obj 24 125 rzero~;
#X obj 0 20 +~ 0.2;
#X obj 61 82 *~ 0.6;
#X obj 17 61 bp~ 800 1;
#X obj 24 147 *~ 0.2;
#X connect 0 0 8 0;
#X connect 1 0 10 0;
#X connect 4 0 7 0;
#X connect 5 0 2 0;
#X connect 5 1 3 0;
#X connect 6 0 7 1;
#X connect 7 0 11 0;
#X connect 8 0 4 0;
#X connect 8 0 9 0;
#X connect 9 0 6 0;
#X connect 10 0 4 1;
#X connect 11 0 5 0;
