#N canvas 96 271 173 125 10;
#X obj 0 63 osc~;
#X obj 0 107 dac~;
#X obj 0 21 *~ 200;
#X obj 0 42 +~ 200;
#N canvas 66 152 137 179 windspeed 0;
#X obj 0 22 +~ 1;
#X obj 0 117 +~;
#X obj 0 44 *~ 0.25;
#X obj 16 94 +~;
#X obj 0 139 clip~ 0 1;
#N canvas 72 36 108 172 squall 0;
#X obj 63 20 noise~;
#X obj 63 83 hip~ 0;
#X obj 63 41 lop~ 3;
#X obj 63 62 lop~ 3;
#X obj 0 86 *~;
#X obj 22 130 *~;
#X obj 0 20 max~ 0.4;
#X obj 0 42 -~ 0.4;
#X obj 0 64 *~ 8;
#X obj 63 104 *~ 20;
#X obj 0 0 inlet~;
#X obj 22 154 outlet~;
#X connect 0 0 2 0;
#X connect 1 0 9 0;
#X connect 2 0 3 0;
#X connect 3 0 1 0;
#X connect 4 0 5 0;
#X connect 5 0 11 0;
#X connect 6 0 7 0;
#X connect 7 0 8 0;
#X connect 8 0 4 0;
#X connect 8 0 4 1;
#X connect 9 0 5 1;
#X connect 10 0 6 0;
#X restore 71 70 pd squall;
#N canvas 46 15 126 149 gust 0;
#X obj 0 0 noise~;
#X obj 0 63 hip~ 0;
#X obj 0 106 *~;
#X obj 67 44 *~;
#X obj 67 21 +~ 0.5;
#X obj 67 67 -~ 0.125;
#X obj 0 42 lop~ 0.5;
#X obj 0 21 lop~ 0.5;
#X obj 0 84 *~ 50;
#X obj 67 0 inlet~;
#X obj 0 131 outlet~;
#X connect 0 0 7 0;
#X connect 1 0 8 0;
#X connect 2 0 10 0;
#X connect 3 0 5 0;
#X connect 4 0 3 0;
#X connect 4 0 3 1;
#X connect 5 0 2 1;
#X connect 6 0 1 0;
#X connect 7 0 6 0;
#X connect 8 0 2 0;
#X connect 9 0 4 0;
#X restore 15 70 pd gust;
#X obj 0 161 outlet~;
#X obj 0 0 osc~ 0.1;
#X connect 0 0 2 0;
#X connect 1 0 4 0;
#X connect 2 0 5 0;
#X connect 2 0 1 0;
#X connect 2 0 6 0;
#X connect 3 0 1 1;
#X connect 4 0 7 0;
#X connect 5 0 3 1;
#X connect 6 0 3 0;
#X connect 8 0 0 0;
#X restore 58 0 pd windspeed;
#X obj 58 22 delwrite~ a 3000;
#X obj 0 0 vd~ a 0;
#X obj 0 84 *~ 0.1;
#X connect 0 0 7 0;
#X connect 2 0 3 0;
#X connect 3 0 0 0;
#X connect 4 0 5 0;
#X connect 6 0 2 0;
#X connect 7 0 1 0;
#X connect 7 0 1 1;
