#N canvas 196 102 312 325 10;
#X obj 132 219 *~;
#X obj 132 307 throw~ l;
#X obj 197 307 throw~ r;
#X obj 132 175 r~ white;
#X obj 210 110 cos~;
#X obj 210 44 -~ 0.25;
#X obj 210 22 clip~ 0.25 0.5;
#X obj 210 88 -~ 0.25;
#X obj 210 66 *~ 2;
#X obj 132 197 bp~ 200 40;
#X obj 132 263 *~;
#X obj 210 198 osc~;
#X obj 210 154 *~ 100;
#X obj 210 176 +~ 20;
#X obj 210 132 lop~ 0.1;
#X obj 0 219 *~;
#X obj 0 307 throw~ l;
#X obj 65 307 throw~ r;
#X obj 0 175 r~ white;
#X obj 78 110 cos~;
#X obj 78 88 -~ 0.25;
#X obj 78 66 *~ 2;
#X obj 0 263 *~;
#X obj 78 198 osc~;
#X obj 78 22 clip~ 0.35 0.6;
#X obj 78 44 -~ 0.35;
#X obj 78 132 lop~ 0.5;
#X obj 0 197 bp~ 400 40;
#X obj 78 154 *~ 200;
#X obj 78 176 +~ 30;
#X obj 0 241 *~ 2;
#X obj 132 241 *~ 2;
#X obj 78 0 vd~ a 100;
#X obj 210 0 vd~ a 300;
#X obj 0 285 fcpan 0.91;
#X obj 132 285 fcpan 0.03;
#X connect 0 0 31 0;
#X connect 3 0 9 0;
#X connect 4 0 14 0;
#X connect 5 0 8 0;
#X connect 6 0 5 0;
#X connect 7 0 4 0;
#X connect 8 0 7 0;
#X connect 9 0 0 0;
#X connect 10 0 35 0;
#X connect 11 0 10 1;
#X connect 12 0 13 0;
#X connect 13 0 11 0;
#X connect 14 0 0 1;
#X connect 14 0 12 0;
#X connect 15 0 30 0;
#X connect 18 0 27 0;
#X connect 19 0 26 0;
#X connect 20 0 19 0;
#X connect 21 0 20 0;
#X connect 22 0 34 0;
#X connect 23 0 22 1;
#X connect 24 0 25 0;
#X connect 25 0 21 0;
#X connect 26 0 15 1;
#X connect 26 0 28 0;
#X connect 27 0 15 0;
#X connect 28 0 29 0;
#X connect 29 0 23 0;
#X connect 30 0 22 0;
#X connect 31 0 10 0;
#X connect 32 0 24 0;
#X connect 33 0 6 0;
#X connect 34 0 16 0;
#X connect 34 1 17 0;
#X connect 35 0 1 0;
#X connect 35 1 2 0;
