#N canvas 1066 556 157 320 10;
#X obj -2 210 throw~ l;
#X obj 63 210 throw~ r;
#X obj -2 188 fcpan 0.51;
#X obj 82 -92 vd~ a 2000;
#X obj -2 -12 r~ white;
#X obj -2 34 max~;
#X obj -2 56 -~;
#X obj -2 78 *~;
#X obj 66 -12 sig~ 1;
#X obj 66 12 -~;
#X obj -2 144 *~;
#X obj 82 -32 +~ 0.3;
#X obj 82 -72 lop~ 0.1;
#X obj 82 -52 *~ 0.4;
#X obj -2 100 hip~ 200;
#X obj -2 122 lop~ 4000;
#X obj -2 166 *~ 1.2;
#X connect 2 0 0 0;
#X connect 2 1 1 0;
#X connect 3 0 12 0;
#X connect 4 0 5 0;
#X connect 5 0 6 0;
#X connect 6 0 7 0;
#X connect 7 0 14 0;
#X connect 8 0 9 0;
#X connect 9 0 5 1;
#X connect 9 0 6 1;
#X connect 9 0 7 1;
#X connect 10 0 16 0;
#X connect 11 0 9 1;
#X connect 12 0 10 1;
#X connect 12 0 13 0;
#X connect 13 0 11 0;
#X connect 14 0 15 0;
#X connect 15 0 10 0;
#X connect 16 0 2 0;
