#N canvas 145 633 282 126 10;
#X obj 67 39 dac~;
#X obj -2 -2 noise~;
#N canvas 0 0 175 257 windspeed 0;
#X obj 13 41 +~ 1;
#X obj 12 151 +~;
#X obj 13 64 *~ 0.25;
#X obj 28 129 +~;
#X obj 13 173 clip~ 0 1;
#N canvas 0 0 184 221 squall 0;
#X obj 78 41 noise~;
#X obj 77 108 hip~ 0;
#X obj 78 64 lop~ 3;
#X obj 78 85 lop~ 3;
#X obj 17 112 *~;
#X obj 38 160 *~;
#X obj 16 42 max~ 0.4;
#X obj 16 64 -~ 0.4;
#X obj 16 87 *~ 8;
#X obj 78 129 *~ 20;
#X obj 16 14 inlet~;
#X obj 40 184 outlet~;
#X connect 0 0 2 0;
#X connect 1 0 9 0;
#X connect 2 0 3 0;
#X connect 3 0 1 0;
#X connect 4 0 5 0;
#X connect 5 0 11 0;
#X connect 6 0 7 0;
#X connect 7 0 8 0;
#X connect 8 0 4 0;
#X connect 8 0 4 1;
#X connect 9 0 5 1;
#X connect 10 0 6 0;
#X restore 83 98 pd squall;
#N canvas 0 0 190 244 gust 0;
#X obj 9 15 noise~;
#X obj 8 82 hip~ 0;
#X obj 8 157 *~;
#X obj 76 72 *~;
#X obj 75 49 +~ 0.5;
#X obj 76 96 -~ 0.125;
#X obj 9 59 lop~ 0.5;
#X obj 9 38 lop~ 0.5;
#X obj 9 103 *~ 50;
#X obj 75 9 inlet~;
#X obj 8 182 outlet~;
#X connect 0 0 7 0;
#X connect 1 0 8 0;
#X connect 2 0 10 0;
#X connect 3 0 5 0;
#X connect 4 0 3 0;
#X connect 4 0 3 1;
#X connect 5 0 2 1;
#X connect 6 0 1 0;
#X connect 7 0 6 0;
#X connect 8 0 2 0;
#X connect 9 0 4 0;
#X restore 27 98 pd gust;
#X obj 13 199 outlet~;
#X obj 13 19 osc~ 0.1;
#X connect 0 0 2 0;
#X connect 1 0 4 0;
#X connect 2 0 5 0;
#X connect 2 0 1 0;
#X connect 2 0 6 0;
#X connect 3 0 1 1;
#X connect 4 0 7 0;
#X connect 5 0 3 1;
#X connect 6 0 3 0;
#X connect 8 0 0 0;
#X restore -2 84 pd windspeed;
#X obj -2 106 delwrite~ a 3000;
#X obj 68 -2 catch~ l;
#X obj 90 18 catch~ r;
#X obj -2 20 s~ white;
#X obj 156 -2 vd~ a 0;
#X obj 213 -2 r~ white;
#X obj 156 106 throw~ l;
#X obj 221 106 throw~ r;
#X obj 156 43 *~;
#X obj 156 85 fcpan 0.51;
#X obj 156 20 +~ 0.2;
#X obj 213 19 bp~ 800 1;
#X obj 156 64 *~ 0.3;
#X connect 1 0 6 0;
#X connect 2 0 3 0;
#X connect 4 0 0 0;
#X connect 5 0 0 1;
#X connect 7 0 13 0;
#X connect 8 0 14 0;
#X connect 11 0 15 0;
#X connect 12 0 9 0;
#X connect 12 1 10 0;
#X connect 13 0 11 0;
#X connect 14 0 11 1;
#X connect 15 0 12 0;
