#N canvas 123 70 269 316 10;
#X obj 185 -89 dac~;
#X obj 173 31 +~ 1000;
#X obj 173 11 *~ 1000;
#X obj 149 -16 vd~ a 1000;
#X obj 119 -130 noise~;
#X obj 132 99 *~;
#N canvas 0 0 175 257 windspeed 0;
#X obj 13 41 +~ 1;
#X obj 12 151 +~;
#X obj 13 64 *~ 0.25;
#X obj 28 129 +~;
#X obj 13 173 clip~ 0 1;
#N canvas 0 0 184 221 squall 0;
#X obj 78 41 noise~;
#X obj 77 108 hip~ 0;
#X obj 78 64 lop~ 3;
#X obj 78 85 lop~ 3;
#X obj 17 112 *~;
#X obj 38 160 *~;
#X obj 16 42 max~ 0.4;
#X obj 16 64 -~ 0.4;
#X obj 16 87 *~ 8;
#X obj 78 129 *~ 20;
#X obj 16 14 inlet~;
#X obj 40 184 outlet~;
#X connect 0 0 2 0;
#X connect 1 0 9 0;
#X connect 2 0 3 0;
#X connect 3 0 1 0;
#X connect 4 0 5 0;
#X connect 5 0 11 0;
#X connect 6 0 7 0;
#X connect 7 0 8 0;
#X connect 8 0 4 0;
#X connect 8 0 4 1;
#X connect 9 0 5 1;
#X connect 10 0 6 0;
#X restore 83 98 pd squall;
#N canvas 0 0 190 244 gust 0;
#X obj 9 15 noise~;
#X obj 8 82 hip~ 0;
#X obj 8 157 *~;
#X obj 76 72 *~;
#X obj 75 49 +~ 0.5;
#X obj 76 96 -~ 0.125;
#X obj 9 59 lop~ 0.5;
#X obj 9 38 lop~ 0.5;
#X obj 9 103 *~ 50;
#X obj 75 9 inlet~;
#X obj 8 182 outlet~;
#X connect 0 0 7 0;
#X connect 1 0 8 0;
#X connect 2 0 10 0;
#X connect 3 0 5 0;
#X connect 4 0 3 0;
#X connect 4 0 3 1;
#X connect 5 0 2 1;
#X connect 6 0 1 0;
#X connect 7 0 6 0;
#X connect 8 0 2 0;
#X connect 9 0 4 0;
#X restore 27 98 pd gust;
#X obj 13 199 outlet~;
#X obj 13 19 osc~ 0.1;
#X connect 0 0 2 0;
#X connect 1 0 4 0;
#X connect 2 0 5 0;
#X connect 2 0 1 0;
#X connect 2 0 6 0;
#X connect 3 0 1 1;
#X connect 4 0 7 0;
#X connect 5 0 3 1;
#X connect 6 0 3 0;
#X connect 8 0 0 0;
#X restore -2 -130 pd windspeed;
#X obj -2 -108 delwrite~ a 3000;
#X obj 133 75 vcf~ 1000 60;
#X obj 148 31 *~;
#X obj 132 120 *~ 2;
#X obj 132 168 throw~ l;
#X obj 196 168 throw~ r;
#X obj 185 -130 catch~ l;
#X obj 208 -110 catch~ r;
#X msg 91 6 60;
#X obj -2 98 *~;
#X obj -2 28 vcf~ 1000 60;
#X obj 15 76 *~;
#X obj 91 -71 loadbang;
#X obj -2 168 throw~ l;
#X obj 62 168 throw~ r;
#X obj 37 -14 *~ 400;
#X obj 37 6 +~ 600;
#X obj -2 143 fcpan 0.28;
#X obj 132 143 fcpan 0.64;
#X obj 14 -41 vd~ a 100;
#X obj 119 -108 s~ white;
#X obj 133 -37 r~ white;
#X obj -2 -62 r~ white;
#X obj -2 120 *~ 1.2;
#X obj 14 50 +~ 0.12;
#X connect 1 0 8 1;
#X connect 2 0 1 0;
#X connect 3 0 2 0;
#X connect 3 0 9 0;
#X connect 3 0 9 1;
#X connect 4 0 27 0;
#X connect 5 0 10 0;
#X connect 6 0 7 0;
#X connect 8 0 5 0;
#X connect 9 0 5 1;
#X connect 10 0 25 0;
#X connect 13 0 0 0;
#X connect 14 0 0 1;
#X connect 15 0 17 2;
#X connect 15 0 8 2;
#X connect 16 0 30 0;
#X connect 17 0 16 0;
#X connect 18 0 16 1;
#X connect 19 0 15 0;
#X connect 22 0 23 0;
#X connect 23 0 17 1;
#X connect 24 0 20 0;
#X connect 24 1 21 0;
#X connect 25 0 11 0;
#X connect 25 1 12 0;
#X connect 26 0 22 0;
#X connect 26 0 31 0;
#X connect 28 0 8 0;
#X connect 29 0 17 0;
#X connect 30 0 24 0;
#X connect 31 0 18 0;
#X connect 31 0 18 1;
