{
	"patcher" : 	{
		"fileversion" : 1,
		"rect" : [ 674.0, 139.0, 312.0, 288.0 ],
		"bglocked" : 0,
		"defrect" : [ 674.0, 139.0, 312.0, 288.0 ],
		"openrect" : [ 0.0, 0.0, 0.0, 0.0 ],
		"openinpresentation" : 0,
		"default_fontsize" : 12.0,
		"default_fontface" : 0,
		"default_fontname" : "Arial",
		"gridonopen" : 0,
		"gridsize" : [ 15.0, 15.0 ],
		"gridsnaponopen" : 0,
		"toolbarvisible" : 1,
		"boxanimatetime" : 200,
		"imprint" : 0,
		"enablehscroll" : 1,
		"enablevscroll" : 1,
		"devicewidth" : 0.0,
		"boxes" : [ 			{
				"box" : 				{
					"maxclass" : "inlet",
					"numinlets" : 0,
					"numoutlets" : 1,
					"hidden" : 1,
					"outlettype" : [ "" ],
					"patching_rect" : [ 284.0, -59.0, 15.0, 15.0 ],
					"id" : "obj-1",
					"comment" : "falling height"
				}

			}
, 			{
				"box" : 				{
					"maxclass" : "inlet",
					"numinlets" : 0,
					"numoutlets" : 1,
					"hidden" : 1,
					"outlettype" : [ "" ],
					"patching_rect" : [ 244.0, -59.0, 15.0, 15.0 ],
					"id" : "obj-2",
					"comment" : "weight"
				}

			}
, 			{
				"box" : 				{
					"maxclass" : "inlet",
					"numinlets" : 0,
					"numoutlets" : 1,
					"hidden" : 1,
					"outlettype" : [ "" ],
					"patching_rect" : [ 204.0, -59.0, 15.0, 15.0 ],
					"id" : "obj-3",
					"comment" : "shape regularity"
				}

			}
, 			{
				"box" : 				{
					"maxclass" : "inlet",
					"numinlets" : 0,
					"numoutlets" : 1,
					"hidden" : 1,
					"outlettype" : [ "" ],
					"patching_rect" : [ 164.0, -59.0, 15.0, 15.0 ],
					"id" : "obj-4",
					"comment" : "elasticity"
				}

			}
, 			{
				"box" : 				{
					"maxclass" : "outlet",
					"numinlets" : 1,
					"numoutlets" : 0,
					"hidden" : 1,
					"patching_rect" : [ 110.0, 516.0, 15.0, 15.0 ],
					"id" : "obj-5",
					"comment" : "falling height"
				}

			}
, 			{
				"box" : 				{
					"maxclass" : "message",
					"text" : "0.",
					"numinlets" : 2,
					"fontsize" : 9.0,
					"numoutlets" : 1,
					"ignoreclick" : 1,
					"outlettype" : [ "" ],
					"patching_rect" : [ 246.0, 360.0, 69.0, 15.0 ],
					"bgcolor" : [ 0.6, 0.4, 0.6, 1.0 ],
					"id" : "obj-6",
					"fontname" : "Arial"
				}

			}
, 			{
				"box" : 				{
					"maxclass" : "multislider",
					"slidercolor" : [ 1.0, 1.0, 1.0, 1.0 ],
					"candicane2" : [ 0.145098, 0.203922, 0.356863, 1.0 ],
					"candicane7" : [ 0.878431, 0.243137, 0.145098, 1.0 ],
					"numinlets" : 1,
					"bordercolor" : [ 1.0, 1.0, 1.0, 1.0 ],
					"candicane6" : [ 0.733333, 0.035294, 0.788235, 1.0 ],
					"numoutlets" : 2,
					"candicane5" : [ 0.584314, 0.827451, 0.431373, 1.0 ],
					"setminmax" : [ 0.0, 100.0 ],
					"outlettype" : [ "", "" ],
					"patching_rect" : [ 261.0, 233.0, 14.0, 125.0 ],
					"candicane4" : [ 0.439216, 0.619608, 0.070588, 1.0 ],
					"contdata" : 1,
					"bgcolor" : [ 0.611765, 0.517647, 0.776471, 1.0 ],
					"peakcolor" : [ 0.498039, 0.498039, 0.498039, 1.0 ],
					"candicane3" : [ 0.290196, 0.411765, 0.713726, 1.0 ],
					"id" : "obj-7",
					"candicane8" : [ 0.027451, 0.447059, 0.501961, 1.0 ]
				}

			}
, 			{
				"box" : 				{
					"maxclass" : "comment",
					"text" : "Falling height",
					"linecount" : 2,
					"numinlets" : 1,
					"fontsize" : 10.0,
					"numoutlets" : 0,
					"patching_rect" : [ 250.0, 200.0, 47.0, 29.0 ],
					"id" : "obj-8",
					"fontname" : "Arial"
				}

			}
, 			{
				"box" : 				{
					"maxclass" : "outlet",
					"numinlets" : 1,
					"numoutlets" : 0,
					"hidden" : 1,
					"patching_rect" : [ 91.0, 516.0, 15.0, 15.0 ],
					"id" : "obj-9",
					"comment" : "weight"
				}

			}
, 			{
				"box" : 				{
					"maxclass" : "outlet",
					"numinlets" : 1,
					"numoutlets" : 0,
					"hidden" : 1,
					"patching_rect" : [ 71.0, 516.0, 15.0, 15.0 ],
					"id" : "obj-10",
					"comment" : "shape regularity"
				}

			}
, 			{
				"box" : 				{
					"maxclass" : "outlet",
					"numinlets" : 1,
					"numoutlets" : 0,
					"hidden" : 1,
					"patching_rect" : [ 51.0, 516.0, 15.0, 15.0 ],
					"id" : "obj-11",
					"comment" : "elasticity"
				}

			}
, 			{
				"box" : 				{
					"maxclass" : "message",
					"text" : "0.",
					"numinlets" : 2,
					"fontsize" : 9.0,
					"numoutlets" : 1,
					"ignoreclick" : 1,
					"outlettype" : [ "" ],
					"patching_rect" : [ 161.0, 360.0, 69.0, 15.0 ],
					"bgcolor" : [ 0.6, 0.4, 0.6, 1.0 ],
					"id" : "obj-12",
					"fontname" : "Arial"
				}

			}
, 			{
				"box" : 				{
					"maxclass" : "message",
					"text" : "0.",
					"numinlets" : 2,
					"fontsize" : 9.0,
					"numoutlets" : 1,
					"ignoreclick" : 1,
					"outlettype" : [ "" ],
					"patching_rect" : [ 81.0, 360.0, 65.0, 15.0 ],
					"bgcolor" : [ 0.6, 0.4, 0.6, 1.0 ],
					"id" : "obj-13",
					"fontname" : "Arial"
				}

			}
, 			{
				"box" : 				{
					"maxclass" : "message",
					"text" : "0.",
					"numinlets" : 2,
					"fontsize" : 9.0,
					"numoutlets" : 1,
					"ignoreclick" : 1,
					"outlettype" : [ "" ],
					"patching_rect" : [ 9.0, 360.0, 66.0, 15.0 ],
					"bgcolor" : [ 0.6, 0.4, 0.6, 1.0 ],
					"id" : "obj-14",
					"fontname" : "Arial"
				}

			}
, 			{
				"box" : 				{
					"maxclass" : "multislider",
					"slidercolor" : [ 1.0, 1.0, 1.0, 1.0 ],
					"candicane2" : [ 0.145098, 0.203922, 0.356863, 1.0 ],
					"candicane7" : [ 0.878431, 0.243137, 0.145098, 1.0 ],
					"numinlets" : 1,
					"bordercolor" : [ 1.0, 1.0, 1.0, 1.0 ],
					"candicane6" : [ 0.733333, 0.035294, 0.788235, 1.0 ],
					"numoutlets" : 2,
					"candicane5" : [ 0.584314, 0.827451, 0.431373, 1.0 ],
					"setminmax" : [ 0.0, 100.0 ],
					"outlettype" : [ "", "" ],
					"patching_rect" : [ 178.0, 233.0, 14.0, 125.0 ],
					"candicane4" : [ 0.439216, 0.619608, 0.070588, 1.0 ],
					"contdata" : 1,
					"bgcolor" : [ 0.611765, 0.517647, 0.776471, 1.0 ],
					"peakcolor" : [ 0.498039, 0.498039, 0.498039, 1.0 ],
					"candicane3" : [ 0.290196, 0.411765, 0.713726, 1.0 ],
					"id" : "obj-15",
					"candicane8" : [ 0.027451, 0.447059, 0.501961, 1.0 ]
				}

			}
, 			{
				"box" : 				{
					"maxclass" : "multislider",
					"slidercolor" : [ 1.0, 1.0, 1.0, 1.0 ],
					"candicane2" : [ 0.145098, 0.203922, 0.356863, 1.0 ],
					"candicane7" : [ 0.878431, 0.243137, 0.145098, 1.0 ],
					"numinlets" : 1,
					"bordercolor" : [ 1.0, 1.0, 1.0, 1.0 ],
					"candicane6" : [ 0.733333, 0.035294, 0.788235, 1.0 ],
					"numoutlets" : 2,
					"candicane5" : [ 0.584314, 0.827451, 0.431373, 1.0 ],
					"setminmax" : [ 0.0, 100.0 ],
					"outlettype" : [ "", "" ],
					"patching_rect" : [ 100.0, 233.0, 14.0, 125.0 ],
					"candicane4" : [ 0.439216, 0.619608, 0.070588, 1.0 ],
					"contdata" : 1,
					"bgcolor" : [ 0.611765, 0.517647, 0.776471, 1.0 ],
					"peakcolor" : [ 0.498039, 0.498039, 0.498039, 1.0 ],
					"candicane3" : [ 0.290196, 0.411765, 0.713726, 1.0 ],
					"id" : "obj-16",
					"candicane8" : [ 0.027451, 0.447059, 0.501961, 1.0 ]
				}

			}
, 			{
				"box" : 				{
					"maxclass" : "multislider",
					"slidercolor" : [ 1.0, 1.0, 1.0, 1.0 ],
					"candicane2" : [ 0.145098, 0.203922, 0.356863, 1.0 ],
					"candicane7" : [ 0.878431, 0.243137, 0.145098, 1.0 ],
					"numinlets" : 1,
					"bordercolor" : [ 1.0, 1.0, 1.0, 1.0 ],
					"candicane6" : [ 0.733333, 0.035294, 0.788235, 1.0 ],
					"numoutlets" : 2,
					"candicane5" : [ 0.584314, 0.827451, 0.431373, 1.0 ],
					"setminmax" : [ 0.0, 100.0 ],
					"outlettype" : [ "", "" ],
					"patching_rect" : [ 28.0, 233.0, 14.0, 125.0 ],
					"candicane4" : [ 0.439216, 0.619608, 0.070588, 1.0 ],
					"contdata" : 1,
					"bgcolor" : [ 0.611765, 0.517647, 0.776471, 1.0 ],
					"peakcolor" : [ 0.498039, 0.498039, 0.498039, 1.0 ],
					"candicane3" : [ 0.290196, 0.411765, 0.713726, 1.0 ],
					"id" : "obj-17",
					"candicane8" : [ 0.027451, 0.447059, 0.501961, 1.0 ]
				}

			}
, 			{
				"box" : 				{
					"maxclass" : "comment",
					"text" : "Shape Regularity",
					"linecount" : 2,
					"numinlets" : 1,
					"fontsize" : 10.0,
					"numoutlets" : 0,
					"patching_rect" : [ 87.0, 199.0, 64.0, 29.0 ],
					"id" : "obj-18",
					"fontname" : "Arial"
				}

			}
, 			{
				"box" : 				{
					"maxclass" : "comment",
					"text" : "Weight",
					"numinlets" : 1,
					"fontsize" : 10.0,
					"numoutlets" : 0,
					"patching_rect" : [ 166.0, 199.0, 47.0, 18.0 ],
					"id" : "obj-19",
					"fontname" : "Arial"
				}

			}
, 			{
				"box" : 				{
					"maxclass" : "comment",
					"text" : "Elasticity",
					"numinlets" : 1,
					"fontsize" : 10.0,
					"numoutlets" : 0,
					"patching_rect" : [ 19.0, 200.0, 58.0, 18.0 ],
					"id" : "obj-20",
					"fontname" : "Arial"
				}

			}
, 			{
				"box" : 				{
					"maxclass" : "newobj",
					"text" : "p set_display_physical_parameters",
					"numinlets" : 15,
					"fontsize" : 9.0,
					"numoutlets" : 17,
					"hidden" : 1,
					"outlettype" : [ "", "", "", "", "", "", "", "", "", "", "", "", "", "", "", "", "" ],
					"patching_rect" : [ 24.0, -31.0, 301.0, 17.0 ],
					"id" : "obj-21",
					"fontname" : "Arial",
					"patcher" : 					{
						"fileversion" : 1,
						"rect" : [ 247.0, 614.0, 1019.0, 284.0 ],
						"bglocked" : 0,
						"defrect" : [ 247.0, 614.0, 1019.0, 284.0 ],
						"openrect" : [ 0.0, 0.0, 0.0, 0.0 ],
						"openinpresentation" : 0,
						"default_fontsize" : 12.0,
						"default_fontface" : 0,
						"default_fontname" : "Arial",
						"gridonopen" : 0,
						"gridsize" : [ 15.0, 15.0 ],
						"gridsnaponopen" : 0,
						"toolbarvisible" : 1,
						"boxanimatetime" : 200,
						"imprint" : 0,
						"enablehscroll" : 1,
						"enablevscroll" : 1,
						"devicewidth" : 0.0,
						"boxes" : [ 							{
								"box" : 								{
									"maxclass" : "inlet",
									"numinlets" : 0,
									"numoutlets" : 1,
									"outlettype" : [ "" ],
									"patching_rect" : [ 825.0, 42.0, 15.0, 15.0 ],
									"id" : "obj-1",
									"comment" : ""
								}

							}
, 							{
								"box" : 								{
									"maxclass" : "inlet",
									"numinlets" : 0,
									"numoutlets" : 1,
									"outlettype" : [ "" ],
									"patching_rect" : [ 744.0, 42.0, 15.0, 15.0 ],
									"id" : "obj-2",
									"comment" : ""
								}

							}
, 							{
								"box" : 								{
									"maxclass" : "inlet",
									"numinlets" : 0,
									"numoutlets" : 1,
									"outlettype" : [ "" ],
									"patching_rect" : [ 646.0, 42.0, 15.0, 15.0 ],
									"id" : "obj-3",
									"comment" : ""
								}

							}
, 							{
								"box" : 								{
									"maxclass" : "inlet",
									"numinlets" : 0,
									"numoutlets" : 1,
									"outlettype" : [ "" ],
									"patching_rect" : [ 559.0, 42.0, 15.0, 15.0 ],
									"id" : "obj-4",
									"comment" : ""
								}

							}
, 							{
								"box" : 								{
									"maxclass" : "inlet",
									"numinlets" : 0,
									"numoutlets" : 1,
									"outlettype" : [ "" ],
									"patching_rect" : [ 801.0, 42.0, 15.0, 15.0 ],
									"id" : "obj-5",
									"comment" : "falling height"
								}

							}
, 							{
								"box" : 								{
									"maxclass" : "inlet",
									"numinlets" : 0,
									"numoutlets" : 1,
									"outlettype" : [ "" ],
									"patching_rect" : [ 721.0, 42.0, 15.0, 15.0 ],
									"id" : "obj-6",
									"comment" : "weight"
								}

							}
, 							{
								"box" : 								{
									"maxclass" : "inlet",
									"numinlets" : 0,
									"numoutlets" : 1,
									"outlettype" : [ "" ],
									"patching_rect" : [ 622.0, 42.0, 15.0, 15.0 ],
									"id" : "obj-7",
									"comment" : "shape granularity"
								}

							}
, 							{
								"box" : 								{
									"maxclass" : "newobj",
									"text" : "prepend set",
									"numinlets" : 1,
									"fontsize" : 9.0,
									"numoutlets" : 1,
									"outlettype" : [ "" ],
									"patching_rect" : [ 825.0, 117.0, 62.0, 17.0 ],
									"id" : "obj-8",
									"fontname" : "Arial"
								}

							}
, 							{
								"box" : 								{
									"maxclass" : "newobj",
									"text" : "prepend set",
									"numinlets" : 1,
									"fontsize" : 9.0,
									"numoutlets" : 1,
									"outlettype" : [ "" ],
									"patching_rect" : [ 744.0, 117.0, 62.0, 17.0 ],
									"id" : "obj-9",
									"fontname" : "Arial"
								}

							}
, 							{
								"box" : 								{
									"maxclass" : "newobj",
									"text" : "prepend set",
									"numinlets" : 1,
									"fontsize" : 9.0,
									"numoutlets" : 1,
									"outlettype" : [ "" ],
									"patching_rect" : [ 647.0, 117.0, 62.0, 17.0 ],
									"id" : "obj-10",
									"fontname" : "Arial"
								}

							}
, 							{
								"box" : 								{
									"maxclass" : "newobj",
									"text" : "prepend set",
									"numinlets" : 1,
									"fontsize" : 9.0,
									"numoutlets" : 1,
									"outlettype" : [ "" ],
									"patching_rect" : [ 559.0, 117.0, 62.0, 17.0 ],
									"id" : "obj-11",
									"fontname" : "Arial"
								}

							}
, 							{
								"box" : 								{
									"maxclass" : "outlet",
									"numinlets" : 1,
									"numoutlets" : 0,
									"patching_rect" : [ 825.0, 151.0, 15.0, 15.0 ],
									"id" : "obj-12",
									"comment" : ""
								}

							}
, 							{
								"box" : 								{
									"maxclass" : "outlet",
									"numinlets" : 1,
									"numoutlets" : 0,
									"patching_rect" : [ 801.0, 151.0, 15.0, 15.0 ],
									"id" : "obj-13",
									"comment" : "falling height"
								}

							}
, 							{
								"box" : 								{
									"maxclass" : "newobj",
									"text" : "prepend set 1",
									"numinlets" : 1,
									"fontsize" : 9.0,
									"numoutlets" : 1,
									"outlettype" : [ "" ],
									"patching_rect" : [ 801.0, 79.0, 71.0, 17.0 ],
									"id" : "obj-14",
									"fontname" : "Arial"
								}

							}
, 							{
								"box" : 								{
									"maxclass" : "outlet",
									"numinlets" : 1,
									"numoutlets" : 0,
									"patching_rect" : [ 744.0, 151.0, 15.0, 15.0 ],
									"id" : "obj-15",
									"comment" : ""
								}

							}
, 							{
								"box" : 								{
									"maxclass" : "outlet",
									"numinlets" : 1,
									"numoutlets" : 0,
									"patching_rect" : [ 721.0, 151.0, 15.0, 15.0 ],
									"id" : "obj-16",
									"comment" : "weight"
								}

							}
, 							{
								"box" : 								{
									"maxclass" : "newobj",
									"text" : "prepend set 1",
									"numinlets" : 1,
									"fontsize" : 9.0,
									"numoutlets" : 1,
									"outlettype" : [ "" ],
									"patching_rect" : [ 721.0, 79.0, 71.0, 17.0 ],
									"id" : "obj-17",
									"fontname" : "Arial"
								}

							}
, 							{
								"box" : 								{
									"maxclass" : "outlet",
									"numinlets" : 1,
									"numoutlets" : 0,
									"patching_rect" : [ 647.0, 151.0, 15.0, 15.0 ],
									"id" : "obj-18",
									"comment" : ""
								}

							}
, 							{
								"box" : 								{
									"maxclass" : "outlet",
									"numinlets" : 1,
									"numoutlets" : 0,
									"patching_rect" : [ 559.0, 151.0, 15.0, 15.0 ],
									"id" : "obj-19",
									"comment" : ""
								}

							}
, 							{
								"box" : 								{
									"maxclass" : "outlet",
									"numinlets" : 1,
									"numoutlets" : 0,
									"patching_rect" : [ 622.0, 151.0, 15.0, 15.0 ],
									"id" : "obj-20",
									"comment" : "shape regularity"
								}

							}
, 							{
								"box" : 								{
									"maxclass" : "outlet",
									"numinlets" : 1,
									"numoutlets" : 0,
									"patching_rect" : [ 536.0, 151.0, 15.0, 15.0 ],
									"id" : "obj-21",
									"comment" : "elasticity"
								}

							}
, 							{
								"box" : 								{
									"maxclass" : "newobj",
									"text" : "prepend set 1",
									"numinlets" : 1,
									"fontsize" : 9.0,
									"numoutlets" : 1,
									"outlettype" : [ "" ],
									"patching_rect" : [ 622.0, 79.0, 71.0, 17.0 ],
									"id" : "obj-22",
									"fontname" : "Arial"
								}

							}
, 							{
								"box" : 								{
									"maxclass" : "newobj",
									"text" : "prepend set 1",
									"numinlets" : 1,
									"fontsize" : 9.0,
									"numoutlets" : 1,
									"outlettype" : [ "" ],
									"patching_rect" : [ 536.0, 79.0, 71.0, 17.0 ],
									"id" : "obj-23",
									"fontname" : "Arial"
								}

							}
, 							{
								"box" : 								{
									"maxclass" : "inlet",
									"numinlets" : 0,
									"numoutlets" : 1,
									"outlettype" : [ "" ],
									"patching_rect" : [ 536.0, 42.0, 15.0, 15.0 ],
									"id" : "obj-24",
									"comment" : "elasticity"
								}

							}
, 							{
								"box" : 								{
									"maxclass" : "inlet",
									"numinlets" : 0,
									"numoutlets" : 1,
									"outlettype" : [ "" ],
									"patching_rect" : [ 243.0, 48.0, 15.0, 15.0 ],
									"id" : "obj-25",
									"comment" : ""
								}

							}
, 							{
								"box" : 								{
									"maxclass" : "inlet",
									"numinlets" : 0,
									"numoutlets" : 1,
									"outlettype" : [ "" ],
									"patching_rect" : [ 168.0, 49.0, 15.0, 15.0 ],
									"id" : "obj-26",
									"comment" : ""
								}

							}
, 							{
								"box" : 								{
									"maxclass" : "inlet",
									"numinlets" : 0,
									"numoutlets" : 1,
									"outlettype" : [ "" ],
									"patching_rect" : [ 65.0, 48.0, 15.0, 15.0 ],
									"id" : "obj-27",
									"comment" : ""
								}

							}
, 							{
								"box" : 								{
									"maxclass" : "newobj",
									"text" : "prepend set",
									"numinlets" : 1,
									"fontsize" : 9.0,
									"numoutlets" : 1,
									"outlettype" : [ "" ],
									"patching_rect" : [ 150.0, 117.0, 62.0, 17.0 ],
									"id" : "obj-28",
									"fontname" : "Arial"
								}

							}
, 							{
								"box" : 								{
									"maxclass" : "newobj",
									"text" : "prepend set",
									"numinlets" : 1,
									"fontsize" : 9.0,
									"numoutlets" : 1,
									"outlettype" : [ "" ],
									"patching_rect" : [ 217.0, 117.0, 62.0, 17.0 ],
									"id" : "obj-29",
									"fontname" : "Arial"
								}

							}
, 							{
								"box" : 								{
									"maxclass" : "newobj",
									"text" : "unpack 0. 0. 0.",
									"numinlets" : 1,
									"fontsize" : 9.0,
									"numoutlets" : 3,
									"outlettype" : [ "float", "float", "float" ],
									"patching_rect" : [ 325.0, 79.0, 76.0, 17.0 ],
									"id" : "obj-30",
									"fontname" : "Arial"
								}

							}
, 							{
								"box" : 								{
									"maxclass" : "outlet",
									"numinlets" : 1,
									"numoutlets" : 0,
									"patching_rect" : [ 217.0, 151.0, 15.0, 15.0 ],
									"id" : "obj-31",
									"comment" : "set control surface m.box value (0-100)"
								}

							}
, 							{
								"box" : 								{
									"maxclass" : "outlet",
									"numinlets" : 1,
									"numoutlets" : 0,
									"patching_rect" : [ 150.0, 151.0, 15.0, 15.0 ],
									"id" : "obj-32",
									"comment" : "set elasticity m.box) value (0 - 100)"
								}

							}
, 							{
								"box" : 								{
									"maxclass" : "inlet",
									"numinlets" : 0,
									"numoutlets" : 1,
									"outlettype" : [ "" ],
									"patching_rect" : [ 325.0, 48.0, 15.0, 15.0 ],
									"id" : "obj-33",
									"comment" : "set global freq/dec/gain value (list)"
								}

							}
, 							{
								"box" : 								{
									"maxclass" : "inlet",
									"numinlets" : 0,
									"numoutlets" : 1,
									"outlettype" : [ "" ],
									"patching_rect" : [ 199.0, 48.0, 15.0, 15.0 ],
									"id" : "obj-34",
									"comment" : "set contact surface"
								}

							}
, 							{
								"box" : 								{
									"maxclass" : "inlet",
									"numinlets" : 0,
									"numoutlets" : 1,
									"outlettype" : [ "" ],
									"patching_rect" : [ 127.0, 48.0, 15.0, 15.0 ],
									"id" : "obj-35",
									"comment" : "set material elasticity"
								}

							}
, 							{
								"box" : 								{
									"maxclass" : "outlet",
									"numinlets" : 1,
									"numoutlets" : 0,
									"patching_rect" : [ 430.0, 151.0, 15.0, 15.0 ],
									"id" : "obj-36",
									"comment" : "set global gain value"
								}

							}
, 							{
								"box" : 								{
									"maxclass" : "outlet",
									"numinlets" : 1,
									"numoutlets" : 0,
									"patching_rect" : [ 358.0, 151.0, 15.0, 15.0 ],
									"id" : "obj-37",
									"comment" : "set global decay value"
								}

							}
, 							{
								"box" : 								{
									"maxclass" : "outlet",
									"numinlets" : 1,
									"numoutlets" : 0,
									"patching_rect" : [ 287.0, 151.0, 15.0, 15.0 ],
									"id" : "obj-38",
									"comment" : "set global frequency value"
								}

							}
, 							{
								"box" : 								{
									"maxclass" : "outlet",
									"numinlets" : 1,
									"numoutlets" : 0,
									"patching_rect" : [ 199.0, 151.0, 15.0, 15.0 ],
									"id" : "obj-39",
									"comment" : "set control surface slid value"
								}

							}
, 							{
								"box" : 								{
									"maxclass" : "outlet",
									"numinlets" : 1,
									"numoutlets" : 0,
									"patching_rect" : [ 127.0, 151.0, 15.0, 15.0 ],
									"id" : "obj-40",
									"comment" : "set elasticity slid value"
								}

							}
, 							{
								"box" : 								{
									"maxclass" : "newobj",
									"text" : "prepend set",
									"numinlets" : 1,
									"fontsize" : 9.0,
									"numoutlets" : 1,
									"outlettype" : [ "" ],
									"patching_rect" : [ 430.0, 117.0, 62.0, 17.0 ],
									"id" : "obj-41",
									"fontname" : "Arial"
								}

							}
, 							{
								"box" : 								{
									"maxclass" : "newobj",
									"text" : "prepend set",
									"numinlets" : 1,
									"fontsize" : 9.0,
									"numoutlets" : 1,
									"outlettype" : [ "" ],
									"patching_rect" : [ 358.0, 117.0, 62.0, 17.0 ],
									"id" : "obj-42",
									"fontname" : "Arial"
								}

							}
, 							{
								"box" : 								{
									"maxclass" : "newobj",
									"text" : "prepend set",
									"numinlets" : 1,
									"fontsize" : 9.0,
									"numoutlets" : 1,
									"outlettype" : [ "" ],
									"patching_rect" : [ 287.0, 117.0, 62.0, 17.0 ],
									"id" : "obj-43",
									"fontname" : "Arial"
								}

							}
, 							{
								"box" : 								{
									"maxclass" : "newobj",
									"text" : "prepend set 1",
									"numinlets" : 1,
									"fontsize" : 9.0,
									"numoutlets" : 1,
									"outlettype" : [ "" ],
									"patching_rect" : [ 199.0, 79.0, 71.0, 17.0 ],
									"id" : "obj-44",
									"fontname" : "Arial"
								}

							}
, 							{
								"box" : 								{
									"maxclass" : "newobj",
									"text" : "prepend set 1",
									"numinlets" : 1,
									"fontsize" : 9.0,
									"numoutlets" : 1,
									"outlettype" : [ "" ],
									"patching_rect" : [ 127.0, 79.0, 71.0, 17.0 ],
									"id" : "obj-45",
									"fontname" : "Arial"
								}

							}
, 							{
								"box" : 								{
									"maxclass" : "newobj",
									"text" : "prepend set 1",
									"numinlets" : 1,
									"fontsize" : 9.0,
									"numoutlets" : 1,
									"outlettype" : [ "" ],
									"patching_rect" : [ 53.0, 117.0, 71.0, 17.0 ],
									"id" : "obj-46",
									"fontname" : "Arial"
								}

							}
, 							{
								"box" : 								{
									"maxclass" : "newobj",
									"text" : "p ham_calc",
									"numinlets" : 1,
									"fontsize" : 9.0,
									"numoutlets" : 1,
									"outlettype" : [ "" ],
									"patching_rect" : [ 33.0, 79.0, 75.0, 17.0 ],
									"id" : "obj-47",
									"fontname" : "Arial",
									"patcher" : 									{
										"fileversion" : 1,
										"rect" : [ 372.0, 277.0, 267.0, 280.0 ],
										"bglocked" : 0,
										"defrect" : [ 372.0, 277.0, 267.0, 280.0 ],
										"openrect" : [ 0.0, 0.0, 0.0, 0.0 ],
										"openinpresentation" : 0,
										"default_fontsize" : 12.0,
										"default_fontface" : 0,
										"default_fontname" : "Arial",
										"gridonopen" : 0,
										"gridsize" : [ 15.0, 15.0 ],
										"gridsnaponopen" : 0,
										"toolbarvisible" : 1,
										"boxanimatetime" : 200,
										"imprint" : 0,
										"enablehscroll" : 1,
										"enablevscroll" : 1,
										"devicewidth" : 0.0,
										"boxes" : [ 											{
												"box" : 												{
													"maxclass" : "newobj",
													"text" : "prepend set",
													"numinlets" : 1,
													"fontsize" : 9.0,
													"numoutlets" : 1,
													"outlettype" : [ "" ],
													"patching_rect" : [ 60.0, 137.0, 62.0, 17.0 ],
													"id" : "obj-1",
													"fontname" : "Arial"
												}

											}
, 											{
												"box" : 												{
													"maxclass" : "inlet",
													"numinlets" : 0,
													"numoutlets" : 1,
													"outlettype" : [ "" ],
													"patching_rect" : [ 60.0, 39.0, 15.0, 15.0 ],
													"id" : "obj-2",
													"comment" : ""
												}

											}
, 											{
												"box" : 												{
													"maxclass" : "outlet",
													"numinlets" : 1,
													"numoutlets" : 0,
													"patching_rect" : [ 60.0, 159.0, 15.0, 15.0 ],
													"id" : "obj-3",
													"comment" : "Hammer mass displayed value"
												}

											}
, 											{
												"box" : 												{
													"maxclass" : "newobj",
													"text" : "scale 0. 100. 0.001 1.",
													"numinlets" : 6,
													"fontsize" : 9.0,
													"numoutlets" : 1,
													"outlettype" : [ "" ],
													"patching_rect" : [ 60.0, 59.0, 111.0, 17.0 ],
													"id" : "obj-4",
													"fontname" : "Arial"
												}

											}
 ],
										"lines" : [ 											{
												"patchline" : 												{
													"source" : [ "obj-2", 0 ],
													"destination" : [ "obj-4", 0 ],
													"hidden" : 0,
													"midpoints" : [  ]
												}

											}
, 											{
												"patchline" : 												{
													"source" : [ "obj-4", 0 ],
													"destination" : [ "obj-1", 0 ],
													"hidden" : 0,
													"midpoints" : [  ]
												}

											}
, 											{
												"patchline" : 												{
													"source" : [ "obj-1", 0 ],
													"destination" : [ "obj-3", 0 ],
													"hidden" : 0,
													"midpoints" : [  ]
												}

											}
 ]
									}
,
									"saved_object_attributes" : 									{
										"default_fontsize" : 12.0,
										"globalpatchername" : "",
										"fontface" : 0,
										"fontsize" : 12.0,
										"default_fontface" : 0,
										"fontname" : "Arial",
										"default_fontname" : "Arial"
									}

								}

							}
, 							{
								"box" : 								{
									"maxclass" : "inlet",
									"numinlets" : 0,
									"numoutlets" : 1,
									"outlettype" : [ "" ],
									"patching_rect" : [ 33.0, 48.0, 15.0, 15.0 ],
									"id" : "obj-48",
									"comment" : "hammer mass slid value"
								}

							}
, 							{
								"box" : 								{
									"maxclass" : "outlet",
									"numinlets" : 1,
									"numoutlets" : 0,
									"patching_rect" : [ 33.0, 151.0, 15.0, 15.0 ],
									"id" : "obj-49",
									"comment" : "set message box - Hammer mass value in kg"
								}

							}
, 							{
								"box" : 								{
									"maxclass" : "outlet",
									"numinlets" : 1,
									"numoutlets" : 0,
									"patching_rect" : [ 53.0, 151.0, 15.0, 15.0 ],
									"id" : "obj-50",
									"comment" : "set hammer mass slid value"
								}

							}
 ],
						"lines" : [ 							{
								"patchline" : 								{
									"source" : [ "obj-48", 0 ],
									"destination" : [ "obj-47", 0 ],
									"hidden" : 0,
									"midpoints" : [  ]
								}

							}
, 							{
								"patchline" : 								{
									"source" : [ "obj-27", 0 ],
									"destination" : [ "obj-47", 0 ],
									"hidden" : 0,
									"midpoints" : [  ]
								}

							}
, 							{
								"patchline" : 								{
									"source" : [ "obj-47", 0 ],
									"destination" : [ "obj-49", 0 ],
									"hidden" : 0,
									"midpoints" : [  ]
								}

							}
, 							{
								"patchline" : 								{
									"source" : [ "obj-48", 0 ],
									"destination" : [ "obj-46", 0 ],
									"hidden" : 0,
									"midpoints" : [ 42.0, 74.0, 62.5, 74.0 ]
								}

							}
, 							{
								"patchline" : 								{
									"source" : [ "obj-46", 0 ],
									"destination" : [ "obj-50", 0 ],
									"hidden" : 0,
									"midpoints" : [  ]
								}

							}
, 							{
								"patchline" : 								{
									"source" : [ "obj-35", 0 ],
									"destination" : [ "obj-45", 0 ],
									"hidden" : 0,
									"midpoints" : [  ]
								}

							}
, 							{
								"patchline" : 								{
									"source" : [ "obj-45", 0 ],
									"destination" : [ "obj-40", 0 ],
									"hidden" : 0,
									"midpoints" : [  ]
								}

							}
, 							{
								"patchline" : 								{
									"source" : [ "obj-35", 0 ],
									"destination" : [ "obj-28", 0 ],
									"hidden" : 0,
									"midpoints" : [ 136.0, 76.0, 159.5, 76.0 ]
								}

							}
, 							{
								"patchline" : 								{
									"source" : [ "obj-26", 0 ],
									"destination" : [ "obj-28", 0 ],
									"hidden" : 0,
									"midpoints" : [  ]
								}

							}
, 							{
								"patchline" : 								{
									"source" : [ "obj-28", 0 ],
									"destination" : [ "obj-32", 0 ],
									"hidden" : 0,
									"midpoints" : [  ]
								}

							}
, 							{
								"patchline" : 								{
									"source" : [ "obj-34", 0 ],
									"destination" : [ "obj-44", 0 ],
									"hidden" : 0,
									"midpoints" : [  ]
								}

							}
, 							{
								"patchline" : 								{
									"source" : [ "obj-44", 0 ],
									"destination" : [ "obj-39", 0 ],
									"hidden" : 0,
									"midpoints" : [  ]
								}

							}
, 							{
								"patchline" : 								{
									"source" : [ "obj-34", 0 ],
									"destination" : [ "obj-29", 0 ],
									"hidden" : 0,
									"midpoints" : [ 208.0, 77.0, 226.5, 77.0 ]
								}

							}
, 							{
								"patchline" : 								{
									"source" : [ "obj-25", 0 ],
									"destination" : [ "obj-29", 0 ],
									"hidden" : 0,
									"midpoints" : [  ]
								}

							}
, 							{
								"patchline" : 								{
									"source" : [ "obj-29", 0 ],
									"destination" : [ "obj-31", 0 ],
									"hidden" : 0,
									"midpoints" : [ 226.5, 125.0 ]
								}

							}
, 							{
								"patchline" : 								{
									"source" : [ "obj-30", 0 ],
									"destination" : [ "obj-43", 0 ],
									"hidden" : 0,
									"midpoints" : [ 334.5, 100.0, 296.5, 100.0 ]
								}

							}
, 							{
								"patchline" : 								{
									"source" : [ "obj-43", 0 ],
									"destination" : [ "obj-38", 0 ],
									"hidden" : 0,
									"midpoints" : [  ]
								}

							}
, 							{
								"patchline" : 								{
									"source" : [ "obj-33", 0 ],
									"destination" : [ "obj-30", 0 ],
									"hidden" : 0,
									"midpoints" : [  ]
								}

							}
, 							{
								"patchline" : 								{
									"source" : [ "obj-30", 1 ],
									"destination" : [ "obj-42", 0 ],
									"hidden" : 0,
									"midpoints" : [  ]
								}

							}
, 							{
								"patchline" : 								{
									"source" : [ "obj-42", 0 ],
									"destination" : [ "obj-37", 0 ],
									"hidden" : 0,
									"midpoints" : [  ]
								}

							}
, 							{
								"patchline" : 								{
									"source" : [ "obj-30", 2 ],
									"destination" : [ "obj-41", 0 ],
									"hidden" : 0,
									"midpoints" : [ 391.5, 100.0, 439.5, 100.0 ]
								}

							}
, 							{
								"patchline" : 								{
									"source" : [ "obj-41", 0 ],
									"destination" : [ "obj-36", 0 ],
									"hidden" : 0,
									"midpoints" : [  ]
								}

							}
, 							{
								"patchline" : 								{
									"source" : [ "obj-24", 0 ],
									"destination" : [ "obj-23", 0 ],
									"hidden" : 0,
									"midpoints" : [  ]
								}

							}
, 							{
								"patchline" : 								{
									"source" : [ "obj-23", 0 ],
									"destination" : [ "obj-21", 0 ],
									"hidden" : 0,
									"midpoints" : [  ]
								}

							}
, 							{
								"patchline" : 								{
									"source" : [ "obj-24", 0 ],
									"destination" : [ "obj-11", 0 ],
									"hidden" : 0,
									"midpoints" : [ 545.0, 69.0, 568.5, 69.0 ]
								}

							}
, 							{
								"patchline" : 								{
									"source" : [ "obj-4", 0 ],
									"destination" : [ "obj-11", 0 ],
									"hidden" : 0,
									"midpoints" : [  ]
								}

							}
, 							{
								"patchline" : 								{
									"source" : [ "obj-11", 0 ],
									"destination" : [ "obj-19", 0 ],
									"hidden" : 0,
									"midpoints" : [  ]
								}

							}
, 							{
								"patchline" : 								{
									"source" : [ "obj-7", 0 ],
									"destination" : [ "obj-22", 0 ],
									"hidden" : 0,
									"midpoints" : [  ]
								}

							}
, 							{
								"patchline" : 								{
									"source" : [ "obj-22", 0 ],
									"destination" : [ "obj-20", 0 ],
									"hidden" : 0,
									"midpoints" : [  ]
								}

							}
, 							{
								"patchline" : 								{
									"source" : [ "obj-7", 0 ],
									"destination" : [ "obj-10", 0 ],
									"hidden" : 0,
									"midpoints" : [ 631.0, 73.0, 656.5, 73.0 ]
								}

							}
, 							{
								"patchline" : 								{
									"source" : [ "obj-3", 0 ],
									"destination" : [ "obj-10", 0 ],
									"hidden" : 0,
									"midpoints" : [  ]
								}

							}
, 							{
								"patchline" : 								{
									"source" : [ "obj-10", 0 ],
									"destination" : [ "obj-18", 0 ],
									"hidden" : 0,
									"midpoints" : [  ]
								}

							}
, 							{
								"patchline" : 								{
									"source" : [ "obj-6", 0 ],
									"destination" : [ "obj-17", 0 ],
									"hidden" : 0,
									"midpoints" : [  ]
								}

							}
, 							{
								"patchline" : 								{
									"source" : [ "obj-17", 0 ],
									"destination" : [ "obj-16", 0 ],
									"hidden" : 0,
									"midpoints" : [  ]
								}

							}
, 							{
								"patchline" : 								{
									"source" : [ "obj-6", 0 ],
									"destination" : [ "obj-9", 0 ],
									"hidden" : 0,
									"midpoints" : [ 730.0, 67.0, 753.5, 67.0 ]
								}

							}
, 							{
								"patchline" : 								{
									"source" : [ "obj-2", 0 ],
									"destination" : [ "obj-9", 0 ],
									"hidden" : 0,
									"midpoints" : [  ]
								}

							}
, 							{
								"patchline" : 								{
									"source" : [ "obj-9", 0 ],
									"destination" : [ "obj-15", 0 ],
									"hidden" : 0,
									"midpoints" : [  ]
								}

							}
, 							{
								"patchline" : 								{
									"source" : [ "obj-5", 0 ],
									"destination" : [ "obj-14", 0 ],
									"hidden" : 0,
									"midpoints" : [  ]
								}

							}
, 							{
								"patchline" : 								{
									"source" : [ "obj-14", 0 ],
									"destination" : [ "obj-13", 0 ],
									"hidden" : 0,
									"midpoints" : [  ]
								}

							}
, 							{
								"patchline" : 								{
									"source" : [ "obj-5", 0 ],
									"destination" : [ "obj-8", 0 ],
									"hidden" : 0,
									"midpoints" : [ 810.0, 70.0, 834.5, 70.0 ]
								}

							}
, 							{
								"patchline" : 								{
									"source" : [ "obj-1", 0 ],
									"destination" : [ "obj-8", 0 ],
									"hidden" : 0,
									"midpoints" : [  ]
								}

							}
, 							{
								"patchline" : 								{
									"source" : [ "obj-8", 0 ],
									"destination" : [ "obj-12", 0 ],
									"hidden" : 0,
									"midpoints" : [  ]
								}

							}
 ]
					}
,
					"saved_object_attributes" : 					{
						"default_fontsize" : 12.0,
						"globalpatchername" : "",
						"fontface" : 0,
						"fontsize" : 12.0,
						"default_fontface" : 0,
						"fontname" : "Arial",
						"default_fontname" : "Arial"
					}

				}

			}
, 			{
				"box" : 				{
					"maxclass" : "outlet",
					"numinlets" : 1,
					"numoutlets" : 0,
					"hidden" : 1,
					"patching_rect" : [ 33.0, 516.0, 15.0, 15.0 ],
					"id" : "obj-22",
					"comment" : "global gain factor"
				}

			}
, 			{
				"box" : 				{
					"maxclass" : "outlet",
					"numinlets" : 1,
					"numoutlets" : 0,
					"hidden" : 1,
					"patching_rect" : [ 16.0, 516.0, 15.0, 15.0 ],
					"id" : "obj-23",
					"comment" : "global decay factor"
				}

			}
, 			{
				"box" : 				{
					"maxclass" : "outlet",
					"numinlets" : 1,
					"numoutlets" : 0,
					"hidden" : 1,
					"patching_rect" : [ -1.0, 516.0, 15.0, 15.0 ],
					"id" : "obj-24",
					"comment" : "global frequency factor"
				}

			}
, 			{
				"box" : 				{
					"maxclass" : "outlet",
					"numinlets" : 1,
					"numoutlets" : 0,
					"hidden" : 1,
					"patching_rect" : [ -21.0, 516.0, 15.0, 15.0 ],
					"id" : "obj-25",
					"comment" : "contact surface - slider"
				}

			}
, 			{
				"box" : 				{
					"maxclass" : "outlet",
					"numinlets" : 1,
					"numoutlets" : 0,
					"hidden" : 1,
					"patching_rect" : [ -38.0, 516.0, 15.0, 15.0 ],
					"id" : "obj-26",
					"comment" : "contact stiffness - slider"
				}

			}
, 			{
				"box" : 				{
					"maxclass" : "outlet",
					"numinlets" : 1,
					"numoutlets" : 0,
					"hidden" : 1,
					"patching_rect" : [ -54.0, 516.0, 15.0, 15.0 ],
					"id" : "obj-27",
					"comment" : "Hammer mass - slider"
				}

			}
, 			{
				"box" : 				{
					"maxclass" : "inlet",
					"numinlets" : 0,
					"numoutlets" : 1,
					"hidden" : 1,
					"outlettype" : [ "" ],
					"patching_rect" : [ 144.0, -59.0, 15.0, 15.0 ],
					"id" : "obj-28",
					"comment" : "global factors list"
				}

			}
, 			{
				"box" : 				{
					"maxclass" : "inlet",
					"numinlets" : 0,
					"numoutlets" : 1,
					"hidden" : 1,
					"outlettype" : [ "" ],
					"patching_rect" : [ 24.0, -59.0, 15.0, 15.0 ],
					"id" : "obj-29",
					"comment" : "hammer mass slider"
				}

			}
, 			{
				"box" : 				{
					"maxclass" : "inlet",
					"numinlets" : 0,
					"numoutlets" : 1,
					"hidden" : 1,
					"outlettype" : [ "" ],
					"patching_rect" : [ 104.0, -59.0, 15.0, 15.0 ],
					"id" : "obj-30",
					"comment" : "contact surface - slider"
				}

			}
, 			{
				"box" : 				{
					"maxclass" : "inlet",
					"numinlets" : 0,
					"numoutlets" : 1,
					"hidden" : 1,
					"outlettype" : [ "" ],
					"patching_rect" : [ 64.0, -59.0, 15.0, 15.0 ],
					"id" : "obj-31",
					"comment" : "Material elasticity - slider"
				}

			}
, 			{
				"box" : 				{
					"maxclass" : "flonum",
					"varname" : "Mo2_Gfreq_fact",
					"maximum" : 2.0,
					"numinlets" : 1,
					"triscale" : 0.9,
					"fontsize" : 12.0,
					"numoutlets" : 2,
					"htextcolor" : [ 0.870588, 0.870588, 0.870588, 1.0 ],
					"outlettype" : [ "float", "bang" ],
					"patching_rect" : [ 166.0, 40.0, 48.0, 20.0 ],
					"minimum" : 0.01,
					"bgcolor" : [ 1.0, 0.890196, 0.090196, 1.0 ],
					"id" : "obj-32",
					"fontname" : "Arial"
				}

			}
, 			{
				"box" : 				{
					"maxclass" : "comment",
					"text" : "Hammer Mass",
					"linecount" : 2,
					"numinlets" : 1,
					"fontsize" : 10.0,
					"numoutlets" : 0,
					"patching_rect" : [ 250.0, 11.0, 52.0, 29.0 ],
					"id" : "obj-33",
					"fontname" : "Arial"
				}

			}
, 			{
				"box" : 				{
					"maxclass" : "comment",
					"text" : "Frequency",
					"numinlets" : 1,
					"fontsize" : 10.0,
					"numoutlets" : 0,
					"patching_rect" : [ 166.0, 22.0, 58.0, 18.0 ],
					"id" : "obj-34",
					"fontname" : "Arial"
				}

			}
, 			{
				"box" : 				{
					"maxclass" : "comment",
					"text" : "Gain",
					"numinlets" : 1,
					"fontsize" : 10.0,
					"numoutlets" : 0,
					"patching_rect" : [ 165.0, 147.0, 42.0, 18.0 ],
					"id" : "obj-35",
					"fontname" : "Arial"
				}

			}
, 			{
				"box" : 				{
					"maxclass" : "flonum",
					"varname" : "Mo2_Ggain_fact",
					"maximum" : 2.0,
					"numinlets" : 1,
					"triscale" : 0.9,
					"fontsize" : 12.0,
					"numoutlets" : 2,
					"htextcolor" : [ 0.870588, 0.870588, 0.870588, 1.0 ],
					"outlettype" : [ "float", "bang" ],
					"patching_rect" : [ 166.0, 164.0, 50.0, 20.0 ],
					"minimum" : 0.1,
					"bgcolor" : [ 1.0, 0.360784, 0.682353, 1.0 ],
					"id" : "obj-36",
					"fontname" : "Arial"
				}

			}
, 			{
				"box" : 				{
					"maxclass" : "comment",
					"text" : "Decay",
					"numinlets" : 1,
					"fontsize" : 10.0,
					"numoutlets" : 0,
					"patching_rect" : [ 165.0, 84.0, 51.0, 18.0 ],
					"id" : "obj-37",
					"fontname" : "Arial"
				}

			}
, 			{
				"box" : 				{
					"maxclass" : "flonum",
					"varname" : "Mo2_Gdec_fact",
					"maximum" : 2.0,
					"numinlets" : 1,
					"triscale" : 0.9,
					"fontsize" : 12.0,
					"numoutlets" : 2,
					"htextcolor" : [ 0.870588, 0.870588, 0.870588, 1.0 ],
					"outlettype" : [ "float", "bang" ],
					"patching_rect" : [ 166.0, 102.0, 49.0, 20.0 ],
					"minimum" : 0.001,
					"bgcolor" : [ 0.611765, 0.701961, 1.0, 1.0 ],
					"id" : "obj-38",
					"fontname" : "Arial"
				}

			}
, 			{
				"box" : 				{
					"maxclass" : "multislider",
					"slidercolor" : [ 1.0, 1.0, 1.0, 1.0 ],
					"candicane2" : [ 0.145098, 0.203922, 0.356863, 1.0 ],
					"candicane7" : [ 0.878431, 0.243137, 0.145098, 1.0 ],
					"numinlets" : 1,
					"bordercolor" : [ 1.0, 1.0, 1.0, 1.0 ],
					"candicane6" : [ 0.733333, 0.035294, 0.788235, 1.0 ],
					"numoutlets" : 2,
					"candicane5" : [ 0.584314, 0.827451, 0.431373, 1.0 ],
					"setminmax" : [ 0.0, 100.0 ],
					"outlettype" : [ "", "" ],
					"patching_rect" : [ 100.0, 40.0, 13.0, 124.0 ],
					"candicane4" : [ 0.439216, 0.619608, 0.070588, 1.0 ],
					"contdata" : 1,
					"bgcolor" : [ 0.313726, 0.854902, 0.486275, 1.0 ],
					"peakcolor" : [ 0.498039, 0.498039, 0.498039, 1.0 ],
					"candicane3" : [ 0.290196, 0.411765, 0.713726, 1.0 ],
					"id" : "obj-39",
					"candicane8" : [ 0.027451, 0.447059, 0.501961, 1.0 ]
				}

			}
, 			{
				"box" : 				{
					"maxclass" : "comment",
					"text" : "Kg",
					"numinlets" : 1,
					"fontsize" : 10.0,
					"numoutlets" : 0,
					"patching_rect" : [ 293.0, 165.0, 22.0, 18.0 ],
					"id" : "obj-40",
					"fontname" : "Arial"
				}

			}
, 			{
				"box" : 				{
					"maxclass" : "multislider",
					"slidercolor" : [ 1.0, 1.0, 1.0, 1.0 ],
					"candicane2" : [ 0.145098, 0.203922, 0.356863, 1.0 ],
					"candicane7" : [ 0.878431, 0.243137, 0.145098, 1.0 ],
					"numinlets" : 1,
					"bordercolor" : [ 1.0, 1.0, 1.0, 1.0 ],
					"candicane6" : [ 0.733333, 0.035294, 0.788235, 1.0 ],
					"numoutlets" : 2,
					"candicane5" : [ 0.584314, 0.827451, 0.431373, 1.0 ],
					"setminmax" : [ 0.0, 100.0 ],
					"outlettype" : [ "", "" ],
					"patching_rect" : [ 28.0, 40.0, 13.0, 124.0 ],
					"candicane4" : [ 0.439216, 0.619608, 0.070588, 1.0 ],
					"contdata" : 1,
					"bgcolor" : [ 0.313726, 0.854902, 0.486275, 1.0 ],
					"peakcolor" : [ 0.498039, 0.498039, 0.498039, 1.0 ],
					"candicane3" : [ 0.290196, 0.411765, 0.713726, 1.0 ],
					"id" : "obj-41",
					"candicane8" : [ 0.027451, 0.447059, 0.501961, 1.0 ]
				}

			}
, 			{
				"box" : 				{
					"maxclass" : "multislider",
					"slidercolor" : [ 1.0, 1.0, 1.0, 1.0 ],
					"candicane2" : [ 0.145098, 0.203922, 0.356863, 1.0 ],
					"candicane7" : [ 0.878431, 0.243137, 0.145098, 1.0 ],
					"numinlets" : 1,
					"bordercolor" : [ 1.0, 1.0, 1.0, 1.0 ],
					"candicane6" : [ 0.733333, 0.035294, 0.788235, 1.0 ],
					"numoutlets" : 2,
					"candicane5" : [ 0.584314, 0.827451, 0.431373, 1.0 ],
					"setminmax" : [ 0.0, 100.0 ],
					"outlettype" : [ "", "" ],
					"patching_rect" : [ 261.0, 40.0, 13.0, 122.0 ],
					"candicane4" : [ 0.439216, 0.619608, 0.070588, 1.0 ],
					"contdata" : 1,
					"bgcolor" : [ 0.964706, 0.568627, 0.568627, 1.0 ],
					"peakcolor" : [ 0.498039, 0.498039, 0.498039, 1.0 ],
					"candicane3" : [ 0.290196, 0.411765, 0.713726, 1.0 ],
					"id" : "obj-42",
					"candicane8" : [ 0.027451, 0.447059, 0.501961, 1.0 ]
				}

			}
, 			{
				"box" : 				{
					"maxclass" : "message",
					"text" : "0.",
					"numinlets" : 2,
					"fontsize" : 9.0,
					"numoutlets" : 1,
					"ignoreclick" : 1,
					"outlettype" : [ "" ],
					"patching_rect" : [ 9.0, 169.0, 64.0, 15.0 ],
					"id" : "obj-43",
					"fontname" : "Arial"
				}

			}
, 			{
				"box" : 				{
					"maxclass" : "message",
					"text" : "0.",
					"numinlets" : 2,
					"fontsize" : 9.0,
					"numoutlets" : 1,
					"ignoreclick" : 1,
					"outlettype" : [ "" ],
					"patching_rect" : [ 81.0, 169.0, 63.0, 15.0 ],
					"id" : "obj-44",
					"fontname" : "Arial"
				}

			}
, 			{
				"box" : 				{
					"maxclass" : "comment",
					"text" : "Contact Surface",
					"linecount" : 2,
					"numinlets" : 1,
					"fontsize" : 10.0,
					"numoutlets" : 0,
					"patching_rect" : [ 87.0, 11.0, 53.0, 29.0 ],
					"id" : "obj-45",
					"fontname" : "Arial"
				}

			}
, 			{
				"box" : 				{
					"maxclass" : "comment",
					"text" : "Contact Stiffness",
					"linecount" : 2,
					"numinlets" : 1,
					"fontsize" : 10.0,
					"numoutlets" : 0,
					"patching_rect" : [ 11.0, 11.0, 58.0, 29.0 ],
					"id" : "obj-46",
					"fontname" : "Arial"
				}

			}
, 			{
				"box" : 				{
					"maxclass" : "message",
					"text" : "0.001",
					"numinlets" : 2,
					"fontsize" : 9.0,
					"numoutlets" : 1,
					"ignoreclick" : 1,
					"outlettype" : [ "" ],
					"patching_rect" : [ 243.0, 164.0, 50.0, 15.0 ],
					"id" : "obj-47",
					"fontname" : "Arial"
				}

			}
, 			{
				"box" : 				{
					"maxclass" : "panel",
					"numinlets" : 1,
					"bordercolor" : [ 0.745098, 0.745098, 0.745098, 1.0 ],
					"numoutlets" : 0,
					"patching_rect" : [ 1.0, 1.0, 150.0, 189.0 ],
					"rounded" : 3,
					"border" : 1,
					"bgcolor" : [ 0.890196, 0.870588, 1.0, 1.0 ],
					"id" : "obj-48"
				}

			}
, 			{
				"box" : 				{
					"maxclass" : "panel",
					"numinlets" : 1,
					"bordercolor" : [ 0.745098, 0.745098, 0.745098, 1.0 ],
					"numoutlets" : 0,
					"patching_rect" : [ 154.0, 1.0, 81.0, 189.0 ],
					"rounded" : 3,
					"border" : 1,
					"bgcolor" : [ 0.890196, 0.870588, 1.0, 1.0 ],
					"id" : "obj-49"
				}

			}
, 			{
				"box" : 				{
					"maxclass" : "panel",
					"numinlets" : 1,
					"bordercolor" : [ 0.745098, 0.745098, 0.745098, 1.0 ],
					"numoutlets" : 0,
					"patching_rect" : [ 238.0, 1.0, 80.0, 189.0 ],
					"rounded" : 3,
					"border" : 1,
					"bgcolor" : [ 0.890196, 0.870588, 1.0, 1.0 ],
					"id" : "obj-50"
				}

			}
, 			{
				"box" : 				{
					"maxclass" : "panel",
					"numinlets" : 1,
					"bordercolor" : [ 0.745098, 0.745098, 0.745098, 1.0 ],
					"numoutlets" : 0,
					"patching_rect" : [ 1.0, 193.0, 317.0, 190.0 ],
					"rounded" : 3,
					"border" : 1,
					"bgcolor" : [ 0.890196, 0.870588, 1.0, 1.0 ],
					"id" : "obj-51"
				}

			}
 ],
		"lines" : [ 			{
				"patchline" : 				{
					"source" : [ "obj-42", 0 ],
					"destination" : [ "obj-27", 0 ],
					"hidden" : 1,
					"midpoints" : [ 265.5, 173.0, -7.0, 173.0, -7.0, 418.0, -45.0, 418.0 ]
				}

			}
, 			{
				"patchline" : 				{
					"source" : [ "obj-41", 0 ],
					"destination" : [ "obj-26", 0 ],
					"hidden" : 1,
					"midpoints" : [ 32.5, 173.0, -32.0, 173.0, -32.0, 506.0, -29.0, 506.0 ]
				}

			}
, 			{
				"patchline" : 				{
					"source" : [ "obj-39", 0 ],
					"destination" : [ "obj-25", 0 ],
					"hidden" : 1,
					"midpoints" : [ 104.5, 173.0, -32.0, 173.0, -32.0, 506.0, -12.0, 506.0 ]
				}

			}
, 			{
				"patchline" : 				{
					"source" : [ "obj-32", 0 ],
					"destination" : [ "obj-24", 0 ],
					"hidden" : 1,
					"color" : [ 1.0, 0.890196, 0.090196, 1.0 ],
					"midpoints" : [ 175.5, 65.0, 8.0, 65.0 ]
				}

			}
, 			{
				"patchline" : 				{
					"source" : [ "obj-21", 3 ],
					"destination" : [ "obj-43", 0 ],
					"hidden" : 1,
					"midpoints" : [ 86.375, -7.0, 18.5, -7.0 ]
				}

			}
, 			{
				"patchline" : 				{
					"source" : [ "obj-21", 10 ],
					"destination" : [ "obj-14", 0 ],
					"hidden" : 1,
					"midpoints" : [ 209.75, -7.0, 18.5, -7.0 ]
				}

			}
, 			{
				"patchline" : 				{
					"source" : [ "obj-38", 0 ],
					"destination" : [ "obj-23", 0 ],
					"hidden" : 1,
					"color" : [ 0.611765, 0.701961, 1.0, 1.0 ],
					"midpoints" : [ 175.5, 188.0, 0.0, 188.0, 0.0, 245.0, 25.0, 245.0 ]
				}

			}
, 			{
				"patchline" : 				{
					"source" : [ "obj-29", 0 ],
					"destination" : [ "obj-21", 0 ],
					"hidden" : 1,
					"midpoints" : [  ]
				}

			}
, 			{
				"patchline" : 				{
					"source" : [ "obj-21", 2 ],
					"destination" : [ "obj-41", 0 ],
					"hidden" : 1,
					"midpoints" : [ 68.75, -7.0, 35.0, -7.0 ]
				}

			}
, 			{
				"patchline" : 				{
					"source" : [ "obj-21", 9 ],
					"destination" : [ "obj-17", 0 ],
					"hidden" : 1,
					"midpoints" : [ 192.125, -7.0, 36.0, -7.0 ]
				}

			}
, 			{
				"patchline" : 				{
					"source" : [ "obj-36", 0 ],
					"destination" : [ "obj-22", 0 ],
					"hidden" : 1,
					"color" : [ 1.0, 0.360784, 0.682353, 1.0 ],
					"midpoints" : [ 175.5, 188.0, 42.0, 188.0 ]
				}

			}
, 			{
				"patchline" : 				{
					"source" : [ "obj-42", 0 ],
					"destination" : [ "obj-21", 1 ],
					"hidden" : 1,
					"midpoints" : [ 265.5, 167.0, -59.0, 167.0, -59.0, -37.0, 53.642857, -37.0 ]
				}

			}
, 			{
				"patchline" : 				{
					"source" : [ "obj-17", 0 ],
					"destination" : [ "obj-11", 0 ],
					"hidden" : 1,
					"color" : [ 0.6, 0.4, 0.6, 1.0 ],
					"midpoints" : [ 33.0, 389.0, 56.0, 389.0, 56.0, 492.0, 60.0, 492.0 ]
				}

			}
, 			{
				"patchline" : 				{
					"source" : [ "obj-31", 0 ],
					"destination" : [ "obj-21", 2 ],
					"hidden" : 1,
					"midpoints" : [  ]
				}

			}
, 			{
				"patchline" : 				{
					"source" : [ "obj-16", 0 ],
					"destination" : [ "obj-10", 0 ],
					"hidden" : 1,
					"color" : [ 0.6, 0.4, 0.6, 1.0 ],
					"midpoints" : [ 105.0, 418.0, 76.0, 418.0, 76.0, 495.0, 80.0, 495.0 ]
				}

			}
, 			{
				"patchline" : 				{
					"source" : [ "obj-21", 5 ],
					"destination" : [ "obj-44", 0 ],
					"hidden" : 1,
					"midpoints" : [ 121.625, -7.0, 90.5, -7.0 ]
				}

			}
, 			{
				"patchline" : 				{
					"source" : [ "obj-21", 12 ],
					"destination" : [ "obj-13", 0 ],
					"hidden" : 1,
					"midpoints" : [ 245.0, -7.0, 90.5, -7.0 ]
				}

			}
, 			{
				"patchline" : 				{
					"source" : [ "obj-41", 0 ],
					"destination" : [ "obj-21", 3 ],
					"hidden" : 1,
					"midpoints" : [ 32.5, 167.0, -59.0, 167.0, -59.0, -37.0, 93.928574, -37.0 ]
				}

			}
, 			{
				"patchline" : 				{
					"source" : [ "obj-15", 0 ],
					"destination" : [ "obj-9", 0 ],
					"hidden" : 1,
					"color" : [ 0.6, 0.4, 0.6, 1.0 ],
					"midpoints" : [ 183.0, 424.0, 96.0, 424.0, 96.0, 495.0, 100.0, 495.0 ]
				}

			}
, 			{
				"patchline" : 				{
					"source" : [ "obj-21", 4 ],
					"destination" : [ "obj-39", 0 ],
					"hidden" : 1,
					"midpoints" : [ 104.0, -7.0, 107.0, -7.0 ]
				}

			}
, 			{
				"patchline" : 				{
					"source" : [ "obj-21", 11 ],
					"destination" : [ "obj-16", 0 ],
					"hidden" : 1,
					"midpoints" : [ 227.375, -7.0, 108.0, -7.0 ]
				}

			}
, 			{
				"patchline" : 				{
					"source" : [ "obj-30", 0 ],
					"destination" : [ "obj-21", 4 ],
					"hidden" : 1,
					"midpoints" : [  ]
				}

			}
, 			{
				"patchline" : 				{
					"source" : [ "obj-7", 0 ],
					"destination" : [ "obj-5", 0 ],
					"hidden" : 1,
					"color" : [ 0.6, 0.4, 0.6, 1.0 ],
					"midpoints" : [ 266.0, 444.0, 119.0, 444.0 ]
				}

			}
, 			{
				"patchline" : 				{
					"source" : [ "obj-39", 0 ],
					"destination" : [ "obj-21", 5 ],
					"hidden" : 1,
					"midpoints" : [ 104.5, 167.0, -59.0, 167.0, -59.0, -37.0, 134.214279, -37.0 ]
				}

			}
, 			{
				"patchline" : 				{
					"source" : [ "obj-28", 0 ],
					"destination" : [ "obj-21", 6 ],
					"hidden" : 1,
					"midpoints" : [  ]
				}

			}
, 			{
				"patchline" : 				{
					"source" : [ "obj-21", 14 ],
					"destination" : [ "obj-12", 0 ],
					"hidden" : 1,
					"midpoints" : [ 280.25, -7.0, 170.5, -7.0 ]
				}

			}
, 			{
				"patchline" : 				{
					"source" : [ "obj-4", 0 ],
					"destination" : [ "obj-21", 7 ],
					"hidden" : 1,
					"midpoints" : [  ]
				}

			}
, 			{
				"patchline" : 				{
					"source" : [ "obj-21", 6 ],
					"destination" : [ "obj-32", 0 ],
					"hidden" : 1,
					"midpoints" : [ 139.25, -7.0, 175.5, -7.0 ]
				}

			}
, 			{
				"patchline" : 				{
					"source" : [ "obj-21", 7 ],
					"destination" : [ "obj-38", 0 ],
					"hidden" : 1,
					"midpoints" : [ 156.875, -7.0, 175.5, -7.0 ]
				}

			}
, 			{
				"patchline" : 				{
					"source" : [ "obj-21", 8 ],
					"destination" : [ "obj-36", 0 ],
					"hidden" : 1,
					"midpoints" : [ 174.5, -7.0, 175.5, -7.0 ]
				}

			}
, 			{
				"patchline" : 				{
					"source" : [ "obj-21", 13 ],
					"destination" : [ "obj-15", 0 ],
					"hidden" : 1,
					"midpoints" : [ 262.625, -7.0, 186.0, -7.0 ]
				}

			}
, 			{
				"patchline" : 				{
					"source" : [ "obj-17", 0 ],
					"destination" : [ "obj-21", 8 ],
					"hidden" : 1,
					"color" : [ 0.6, 0.4, 0.6, 1.0 ],
					"midpoints" : [ 33.0, 384.0, 346.0, 384.0, 346.0, -37.0, 194.642853, -37.0 ]
				}

			}
, 			{
				"patchline" : 				{
					"source" : [ "obj-3", 0 ],
					"destination" : [ "obj-21", 9 ],
					"hidden" : 1,
					"midpoints" : [  ]
				}

			}
, 			{
				"patchline" : 				{
					"source" : [ "obj-16", 0 ],
					"destination" : [ "obj-21", 10 ],
					"hidden" : 1,
					"color" : [ 0.6, 0.4, 0.6, 1.0 ],
					"midpoints" : [ 105.0, 384.0, 346.0, 384.0, 346.0, -37.0, 234.928574, -37.0 ]
				}

			}
, 			{
				"patchline" : 				{
					"source" : [ "obj-21", 0 ],
					"destination" : [ "obj-47", 0 ],
					"hidden" : 1,
					"midpoints" : [ 33.5, -7.0, -29.0, -7.0, -29.0, 167.0, 252.5, 167.0 ]
				}

			}
, 			{
				"patchline" : 				{
					"source" : [ "obj-2", 0 ],
					"destination" : [ "obj-21", 11 ],
					"hidden" : 1,
					"midpoints" : [  ]
				}

			}
, 			{
				"patchline" : 				{
					"source" : [ "obj-21", 16 ],
					"destination" : [ "obj-6", 0 ],
					"hidden" : 1,
					"midpoints" : [ 315.5, -7.0, 255.5, -7.0 ]
				}

			}
, 			{
				"patchline" : 				{
					"source" : [ "obj-21", 1 ],
					"destination" : [ "obj-42", 0 ],
					"hidden" : 1,
					"midpoints" : [ 51.125, -7.0, 267.0, -7.0, 267.0, 37.0, 268.0, 37.0 ]
				}

			}
, 			{
				"patchline" : 				{
					"source" : [ "obj-21", 15 ],
					"destination" : [ "obj-7", 0 ],
					"hidden" : 1,
					"midpoints" : [ 297.875, -7.0, 269.0, -7.0 ]
				}

			}
, 			{
				"patchline" : 				{
					"source" : [ "obj-15", 0 ],
					"destination" : [ "obj-21", 12 ],
					"hidden" : 1,
					"color" : [ 0.6, 0.4, 0.6, 1.0 ],
					"midpoints" : [ 183.0, 384.0, 346.0, 384.0, 346.0, -37.0, 275.214294, -37.0 ]
				}

			}
, 			{
				"patchline" : 				{
					"source" : [ "obj-1", 0 ],
					"destination" : [ "obj-21", 13 ],
					"hidden" : 1,
					"midpoints" : [  ]
				}

			}
, 			{
				"patchline" : 				{
					"source" : [ "obj-7", 0 ],
					"destination" : [ "obj-21", 14 ],
					"hidden" : 1,
					"color" : [ 0.6, 0.4, 0.6, 1.0 ],
					"midpoints" : [ 266.0, 384.0, 346.0, 384.0, 346.0, -37.0, 315.5, -37.0 ]
				}

			}
 ]
	}

}
