{
	"patcher" : 	{
		"fileversion" : 1,
		"rect" : [ 4.0, 44.0, 588.0, 294.0 ],
		"bglocked" : 0,
		"defrect" : [ 4.0, 44.0, 588.0, 294.0 ],
		"openrect" : [ 0.0, 0.0, 0.0, 0.0 ],
		"openinpresentation" : 0,
		"default_fontsize" : 12.0,
		"default_fontface" : 0,
		"default_fontname" : "Arial",
		"gridonopen" : 0,
		"gridsize" : [ 15.0, 15.0 ],
		"gridsnaponopen" : 0,
		"toolbarvisible" : 0,
		"boxanimatetime" : 200,
		"imprint" : 0,
		"enablehscroll" : 1,
		"enablevscroll" : 1,
		"devicewidth" : 0.0,
		"boxes" : [ 			{
				"box" : 				{
					"maxclass" : "comment",
					"text" : "project SOb - http://www.soundobject.org",
					"patching_rect" : [ 381.0, 4.0, 202.0, 17.0 ],
					"id" : "obj-5",
					"fontname" : "Arial",
					"textcolor" : [ 1.0, 1.0, 1.0, 1.0 ],
					"frgb" : [ 1.0, 1.0, 1.0, 1.0 ],
					"numinlets" : 1,
					"fontsize" : 9.0,
					"numoutlets" : 0
				}

			}
, 			{
				"box" : 				{
					"maxclass" : "comment",
					"text" : "project NIW - http://www.niwproject.eu",
					"patching_rect" : [ 381.0, 36.0, 202.0, 17.0 ],
					"id" : "obj-6",
					"fontname" : "Arial",
					"textcolor" : [ 1.0, 1.0, 1.0, 1.0 ],
					"frgb" : [ 1.0, 1.0, 1.0, 1.0 ],
					"numinlets" : 1,
					"fontsize" : 9.0,
					"numoutlets" : 0
				}

			}
, 			{
				"box" : 				{
					"maxclass" : "comment",
					"text" : "(C) 2001-2011",
					"patching_rect" : [ 295.0, 4.0, 75.0, 17.0 ],
					"id" : "obj-8",
					"fontname" : "Arial",
					"textcolor" : [ 1.0, 1.0, 1.0, 1.0 ],
					"frgb" : [ 1.0, 1.0, 1.0, 1.0 ],
					"numinlets" : 1,
					"fontsize" : 9.0,
					"numoutlets" : 0
				}

			}
, 			{
				"box" : 				{
					"maxclass" : "comment",
					"text" : "project CLOSED - http://closed.ircam.fr",
					"patching_rect" : [ 381.0, 20.0, 202.0, 17.0 ],
					"id" : "obj-80",
					"fontname" : "Arial",
					"textcolor" : [ 1.0, 1.0, 1.0, 1.0 ],
					"frgb" : [ 1.0, 1.0, 1.0, 1.0 ],
					"numinlets" : 1,
					"fontsize" : 9.0,
					"numoutlets" : 0
				}

			}
, 			{
				"box" : 				{
					"maxclass" : "newobj",
					"text" : "t open",
					"outlettype" : [ "open" ],
					"patching_rect" : [ 501.0, 298.0, 44.0, 20.0 ],
					"id" : "obj-84",
					"fontname" : "Arial",
					"hidden" : 1,
					"numinlets" : 1,
					"fontsize" : 12.0,
					"numoutlets" : 1
				}

			}
, 			{
				"box" : 				{
					"maxclass" : "newobj",
					"text" : "pcontrol",
					"outlettype" : [ "" ],
					"patching_rect" : [ 498.0, 312.0, 47.0, 17.0 ],
					"id" : "obj-83",
					"fontname" : "Arial",
					"hidden" : 1,
					"numinlets" : 1,
					"fontsize" : 9.0,
					"numoutlets" : 1
				}

			}
, 			{
				"box" : 				{
					"maxclass" : "newobj",
					"text" : "p contacts",
					"patching_rect" : [ 500.0, 326.0, 65.0, 20.0 ],
					"id" : "obj-82",
					"fontname" : "Arial",
					"hidden" : 1,
					"numinlets" : 1,
					"fontsize" : 12.0,
					"numoutlets" : 0,
					"patcher" : 					{
						"fileversion" : 1,
						"rect" : [ 5.0, 46.0, 194.0, 81.0 ],
						"bglocked" : 0,
						"defrect" : [ 5.0, 46.0, 194.0, 81.0 ],
						"openrect" : [ 0.0, 0.0, 0.0, 0.0 ],
						"openinpresentation" : 0,
						"default_fontsize" : 9.0,
						"default_fontface" : 0,
						"default_fontname" : "Arial",
						"gridonopen" : 0,
						"gridsize" : [ 15.0, 15.0 ],
						"gridsnaponopen" : 0,
						"toolbarvisible" : 0,
						"boxanimatetime" : 200,
						"imprint" : 0,
						"enablehscroll" : 1,
						"enablevscroll" : 1,
						"devicewidth" : 0.0,
						"boxes" : [ 							{
								"box" : 								{
									"maxclass" : "inlet",
									"outlettype" : [ "" ],
									"patching_rect" : [ 19.0, -6.0, 25.0, 25.0 ],
									"id" : "obj-4",
									"hidden" : 1,
									"numinlets" : 0,
									"numoutlets" : 1,
									"comment" : ""
								}

							}
, 							{
								"box" : 								{
									"maxclass" : "comment",
									"text" : "http://www.soundobject.org/BasicSID/",
									"patching_rect" : [ 19.0, 56.0, 160.0, 17.0 ],
									"id" : "obj-3",
									"fontname" : "Arial",
									"numinlets" : 1,
									"fontsize" : 9.0,
									"numoutlets" : 0
								}

							}
, 							{
								"box" : 								{
									"maxclass" : "comment",
									"text" : "mail to: stefano.dellemonache@gmail.com",
									"linecount" : 2,
									"patching_rect" : [ 19.0, 23.0, 150.0, 27.0 ],
									"id" : "obj-2",
									"fontname" : "Arial",
									"numinlets" : 1,
									"fontsize" : 9.0,
									"numoutlets" : 0
								}

							}
 ],
						"lines" : [  ]
					}
,
					"saved_object_attributes" : 					{
						"default_fontface" : 0,
						"default_fontname" : "Arial",
						"fontname" : "Arial",
						"default_fontsize" : 9.0,
						"globalpatchername" : "",
						"fontface" : 0,
						"fontsize" : 9.0
					}

				}

			}
, 			{
				"box" : 				{
					"maxclass" : "button",
					"outlettype" : [ "bang" ],
					"patching_rect" : [ 560.0, 13.0, 18.0, 18.0 ],
					"id" : "obj-81",
					"numinlets" : 1,
					"numoutlets" : 1
				}

			}
, 			{
				"box" : 				{
					"maxclass" : "newobj",
					"text" : "loadbang",
					"outlettype" : [ "bang" ],
					"patching_rect" : [ 335.0, 137.0, 48.0, 17.0 ],
					"id" : "obj-1",
					"fontname" : "Arial",
					"hidden" : 1,
					"numinlets" : 1,
					"fontsize" : 9.0,
					"numoutlets" : 1
				}

			}
, 			{
				"box" : 				{
					"maxclass" : "message",
					"text" : "window flags close, window flags grow, window exec",
					"linecount" : 2,
					"outlettype" : [ "" ],
					"patching_rect" : [ 324.0, 197.0, 146.0, 25.0 ],
					"id" : "obj-2",
					"fontname" : "Arial",
					"hidden" : 1,
					"numinlets" : 2,
					"fontsize" : 9.0,
					"numoutlets" : 1
				}

			}
, 			{
				"box" : 				{
					"maxclass" : "message",
					"text" : "window flags close, window flags nogrow, window exec",
					"linecount" : 2,
					"outlettype" : [ "" ],
					"patching_rect" : [ 324.0, 157.0, 132.0, 25.0 ],
					"id" : "obj-3",
					"fontname" : "Arial",
					"hidden" : 1,
					"numinlets" : 2,
					"fontsize" : 9.0,
					"numoutlets" : 1
				}

			}
, 			{
				"box" : 				{
					"maxclass" : "newobj",
					"text" : "thispatcher",
					"outlettype" : [ "", "" ],
					"patching_rect" : [ 74.0, 302.0, 61.0, 17.0 ],
					"id" : "obj-4",
					"fontname" : "Arial",
					"hidden" : 1,
					"numinlets" : 1,
					"fontsize" : 9.0,
					"numoutlets" : 2,
					"save" : [ "#N", "thispatcher", ";", "#Q", "end", ";" ]
				}

			}
, 			{
				"box" : 				{
					"maxclass" : "comment",
					"text" : "Sound Design ToolKit",
					"patching_rect" : [ 7.0, 12.0, 279.0, 36.0 ],
					"id" : "obj-7",
					"fontname" : "Verdana",
					"textcolor" : [ 1.0, 1.0, 1.0, 1.0 ],
					"frgb" : [ 1.0, 1.0, 1.0, 1.0 ],
					"numinlets" : 1,
					"fontsize" : 24.0,
					"numoutlets" : 0
				}

			}
, 			{
				"box" : 				{
					"maxclass" : "newobj",
					"text" : "p model_load",
					"outlettype" : [ "" ],
					"patching_rect" : [ 258.0, 315.0, 183.0, 17.0 ],
					"id" : "obj-9",
					"fontname" : "Arial",
					"hidden" : 1,
					"numinlets" : 11,
					"fontsize" : 9.0,
					"numoutlets" : 1,
					"patcher" : 					{
						"fileversion" : 1,
						"rect" : [ 329.0, 394.0, 857.0, 259.0 ],
						"bglocked" : 0,
						"defrect" : [ 329.0, 394.0, 857.0, 259.0 ],
						"openrect" : [ 0.0, 0.0, 0.0, 0.0 ],
						"openinpresentation" : 0,
						"default_fontsize" : 12.0,
						"default_fontface" : 0,
						"default_fontname" : "Arial",
						"gridonopen" : 0,
						"gridsize" : [ 15.0, 15.0 ],
						"gridsnaponopen" : 0,
						"toolbarvisible" : 1,
						"boxanimatetime" : 200,
						"imprint" : 0,
						"enablehscroll" : 1,
						"enablevscroll" : 1,
						"devicewidth" : 0.0,
						"boxes" : [ 							{
								"box" : 								{
									"maxclass" : "newobj",
									"text" : "p load_vacuumcleaner",
									"outlettype" : [ "" ],
									"patching_rect" : [ 629.0, 91.0, 109.0, 17.0 ],
									"id" : "obj-1",
									"fontname" : "Arial",
									"numinlets" : 1,
									"fontsize" : 9.0,
									"numoutlets" : 1,
									"patcher" : 									{
										"fileversion" : 1,
										"rect" : [ 10.0, 59.0, 600.0, 426.0 ],
										"bglocked" : 0,
										"defrect" : [ 10.0, 59.0, 600.0, 426.0 ],
										"openrect" : [ 0.0, 0.0, 0.0, 0.0 ],
										"openinpresentation" : 0,
										"default_fontsize" : 12.0,
										"default_fontface" : 0,
										"default_fontname" : "Arial",
										"gridonopen" : 0,
										"gridsize" : [ 15.0, 15.0 ],
										"gridsnaponopen" : 0,
										"toolbarvisible" : 1,
										"boxanimatetime" : 200,
										"imprint" : 0,
										"enablehscroll" : 1,
										"enablevscroll" : 1,
										"devicewidth" : 0.0,
										"boxes" : [ 											{
												"box" : 												{
													"maxclass" : "message",
													"text" : "load Vacuum_cleaner.maxpat",
													"outlettype" : [ "" ],
													"patching_rect" : [ 50.0, 70.0, 128.0, 15.0 ],
													"id" : "obj-1",
													"fontname" : "Arial",
													"numinlets" : 2,
													"fontsize" : 9.0,
													"numoutlets" : 1
												}

											}
, 											{
												"box" : 												{
													"maxclass" : "button",
													"outlettype" : [ "bang" ],
													"patching_rect" : [ 50.0, 50.0, 15.0, 15.0 ],
													"id" : "obj-2",
													"numinlets" : 1,
													"numoutlets" : 1
												}

											}
, 											{
												"box" : 												{
													"maxclass" : "inlet",
													"outlettype" : [ "bang" ],
													"patching_rect" : [ 50.0, 30.0, 15.0, 15.0 ],
													"id" : "obj-3",
													"numinlets" : 0,
													"numoutlets" : 1,
													"comment" : ""
												}

											}
, 											{
												"box" : 												{
													"maxclass" : "outlet",
													"patching_rect" : [ 50.0, 114.0, 15.0, 15.0 ],
													"id" : "obj-4",
													"numinlets" : 1,
													"numoutlets" : 0,
													"comment" : ""
												}

											}
 ],
										"lines" : [ 											{
												"patchline" : 												{
													"source" : [ "obj-1", 0 ],
													"destination" : [ "obj-4", 0 ],
													"hidden" : 0,
													"midpoints" : [  ]
												}

											}
, 											{
												"patchline" : 												{
													"source" : [ "obj-2", 0 ],
													"destination" : [ "obj-1", 0 ],
													"hidden" : 0,
													"midpoints" : [  ]
												}

											}
, 											{
												"patchline" : 												{
													"source" : [ "obj-3", 0 ],
													"destination" : [ "obj-2", 0 ],
													"hidden" : 0,
													"midpoints" : [  ]
												}

											}
 ]
									}
,
									"saved_object_attributes" : 									{
										"default_fontface" : 0,
										"default_fontname" : "Arial",
										"fontname" : "Arial",
										"default_fontsize" : 12.0,
										"globalpatchername" : "",
										"fontface" : 0,
										"fontsize" : 12.0
									}

								}

							}
, 							{
								"box" : 								{
									"maxclass" : "newobj",
									"text" : "p load_breaking",
									"outlettype" : [ "" ],
									"patching_rect" : [ 510.0, 98.0, 80.0, 17.0 ],
									"id" : "obj-2",
									"fontname" : "Arial",
									"numinlets" : 1,
									"fontsize" : 9.0,
									"numoutlets" : 1,
									"patcher" : 									{
										"fileversion" : 1,
										"rect" : [ 10.0, 59.0, 600.0, 426.0 ],
										"bglocked" : 0,
										"defrect" : [ 10.0, 59.0, 600.0, 426.0 ],
										"openrect" : [ 0.0, 0.0, 0.0, 0.0 ],
										"openinpresentation" : 0,
										"default_fontsize" : 12.0,
										"default_fontface" : 0,
										"default_fontname" : "Arial",
										"gridonopen" : 0,
										"gridsize" : [ 15.0, 15.0 ],
										"gridsnaponopen" : 0,
										"toolbarvisible" : 1,
										"boxanimatetime" : 200,
										"imprint" : 0,
										"enablehscroll" : 1,
										"enablevscroll" : 1,
										"devicewidth" : 0.0,
										"boxes" : [ 											{
												"box" : 												{
													"maxclass" : "message",
													"text" : "load BREAKING.maxpat",
													"outlettype" : [ "" ],
													"patching_rect" : [ 50.0, 70.0, 109.0, 15.0 ],
													"id" : "obj-1",
													"fontname" : "Arial",
													"numinlets" : 2,
													"fontsize" : 9.0,
													"numoutlets" : 1
												}

											}
, 											{
												"box" : 												{
													"maxclass" : "button",
													"outlettype" : [ "bang" ],
													"patching_rect" : [ 50.0, 50.0, 15.0, 15.0 ],
													"id" : "obj-2",
													"numinlets" : 1,
													"numoutlets" : 1
												}

											}
, 											{
												"box" : 												{
													"maxclass" : "inlet",
													"outlettype" : [ "bang" ],
													"patching_rect" : [ 50.0, 30.0, 15.0, 15.0 ],
													"id" : "obj-3",
													"numinlets" : 0,
													"numoutlets" : 1,
													"comment" : ""
												}

											}
, 											{
												"box" : 												{
													"maxclass" : "outlet",
													"patching_rect" : [ 50.0, 114.0, 15.0, 15.0 ],
													"id" : "obj-4",
													"numinlets" : 1,
													"numoutlets" : 0,
													"comment" : ""
												}

											}
 ],
										"lines" : [ 											{
												"patchline" : 												{
													"source" : [ "obj-1", 0 ],
													"destination" : [ "obj-4", 0 ],
													"hidden" : 0,
													"midpoints" : [  ]
												}

											}
, 											{
												"patchline" : 												{
													"source" : [ "obj-2", 0 ],
													"destination" : [ "obj-1", 0 ],
													"hidden" : 0,
													"midpoints" : [  ]
												}

											}
, 											{
												"patchline" : 												{
													"source" : [ "obj-3", 0 ],
													"destination" : [ "obj-2", 0 ],
													"hidden" : 0,
													"midpoints" : [  ]
												}

											}
 ]
									}
,
									"saved_object_attributes" : 									{
										"default_fontface" : 0,
										"default_fontname" : "Arial",
										"fontname" : "Arial",
										"default_fontsize" : 12.0,
										"globalpatchername" : "",
										"fontface" : 0,
										"fontsize" : 12.0
									}

								}

							}
, 							{
								"box" : 								{
									"maxclass" : "newobj",
									"text" : "p load_bouncing",
									"outlettype" : [ "" ],
									"patching_rect" : [ 387.0, 102.0, 80.0, 17.0 ],
									"id" : "obj-3",
									"fontname" : "Arial",
									"numinlets" : 1,
									"fontsize" : 9.0,
									"numoutlets" : 1,
									"patcher" : 									{
										"fileversion" : 1,
										"rect" : [ 10.0, 59.0, 600.0, 426.0 ],
										"bglocked" : 0,
										"defrect" : [ 10.0, 59.0, 600.0, 426.0 ],
										"openrect" : [ 0.0, 0.0, 0.0, 0.0 ],
										"openinpresentation" : 0,
										"default_fontsize" : 12.0,
										"default_fontface" : 0,
										"default_fontname" : "Arial",
										"gridonopen" : 0,
										"gridsize" : [ 15.0, 15.0 ],
										"gridsnaponopen" : 0,
										"toolbarvisible" : 1,
										"boxanimatetime" : 200,
										"imprint" : 0,
										"enablehscroll" : 1,
										"enablevscroll" : 1,
										"devicewidth" : 0.0,
										"boxes" : [ 											{
												"box" : 												{
													"maxclass" : "message",
													"text" : "load BOUNCING.maxpat",
													"outlettype" : [ "" ],
													"patching_rect" : [ 50.0, 70.0, 111.0, 15.0 ],
													"id" : "obj-1",
													"fontname" : "Arial",
													"numinlets" : 2,
													"fontsize" : 9.0,
													"numoutlets" : 1
												}

											}
, 											{
												"box" : 												{
													"maxclass" : "button",
													"outlettype" : [ "bang" ],
													"patching_rect" : [ 50.0, 50.0, 15.0, 15.0 ],
													"id" : "obj-2",
													"numinlets" : 1,
													"numoutlets" : 1
												}

											}
, 											{
												"box" : 												{
													"maxclass" : "inlet",
													"outlettype" : [ "bang" ],
													"patching_rect" : [ 50.0, 30.0, 15.0, 15.0 ],
													"id" : "obj-3",
													"numinlets" : 0,
													"numoutlets" : 1,
													"comment" : ""
												}

											}
, 											{
												"box" : 												{
													"maxclass" : "outlet",
													"patching_rect" : [ 50.0, 114.0, 15.0, 15.0 ],
													"id" : "obj-4",
													"numinlets" : 1,
													"numoutlets" : 0,
													"comment" : ""
												}

											}
 ],
										"lines" : [ 											{
												"patchline" : 												{
													"source" : [ "obj-1", 0 ],
													"destination" : [ "obj-4", 0 ],
													"hidden" : 0,
													"midpoints" : [  ]
												}

											}
, 											{
												"patchline" : 												{
													"source" : [ "obj-2", 0 ],
													"destination" : [ "obj-1", 0 ],
													"hidden" : 0,
													"midpoints" : [  ]
												}

											}
, 											{
												"patchline" : 												{
													"source" : [ "obj-3", 0 ],
													"destination" : [ "obj-2", 0 ],
													"hidden" : 0,
													"midpoints" : [  ]
												}

											}
 ]
									}
,
									"saved_object_attributes" : 									{
										"default_fontface" : 0,
										"default_fontname" : "Arial",
										"fontname" : "Arial",
										"default_fontsize" : 12.0,
										"globalpatchername" : "",
										"fontface" : 0,
										"fontsize" : 12.0
									}

								}

							}
, 							{
								"box" : 								{
									"maxclass" : "newobj",
									"text" : "p load_splash",
									"outlettype" : [ "" ],
									"patching_rect" : [ 265.0, 98.0, 70.0, 17.0 ],
									"id" : "obj-4",
									"fontname" : "Arial",
									"numinlets" : 1,
									"fontsize" : 9.0,
									"numoutlets" : 1,
									"patcher" : 									{
										"fileversion" : 1,
										"rect" : [ 10.0, 59.0, 600.0, 426.0 ],
										"bglocked" : 0,
										"defrect" : [ 10.0, 59.0, 600.0, 426.0 ],
										"openrect" : [ 0.0, 0.0, 0.0, 0.0 ],
										"openinpresentation" : 0,
										"default_fontsize" : 12.0,
										"default_fontface" : 0,
										"default_fontname" : "Arial",
										"gridonopen" : 0,
										"gridsize" : [ 15.0, 15.0 ],
										"gridsnaponopen" : 0,
										"toolbarvisible" : 1,
										"boxanimatetime" : 200,
										"imprint" : 0,
										"enablehscroll" : 1,
										"enablevscroll" : 1,
										"devicewidth" : 0.0,
										"boxes" : [ 											{
												"box" : 												{
													"maxclass" : "message",
													"text" : "load SPLASH.maxpat",
													"outlettype" : [ "" ],
													"patching_rect" : [ 50.0, 70.0, 99.0, 15.0 ],
													"id" : "obj-1",
													"fontname" : "Arial",
													"numinlets" : 2,
													"fontsize" : 9.0,
													"numoutlets" : 1
												}

											}
, 											{
												"box" : 												{
													"maxclass" : "button",
													"outlettype" : [ "bang" ],
													"patching_rect" : [ 50.0, 50.0, 15.0, 15.0 ],
													"id" : "obj-2",
													"numinlets" : 1,
													"numoutlets" : 1
												}

											}
, 											{
												"box" : 												{
													"maxclass" : "inlet",
													"outlettype" : [ "bang" ],
													"patching_rect" : [ 50.0, 30.0, 15.0, 15.0 ],
													"id" : "obj-3",
													"numinlets" : 0,
													"numoutlets" : 1,
													"comment" : ""
												}

											}
, 											{
												"box" : 												{
													"maxclass" : "outlet",
													"patching_rect" : [ 50.0, 114.0, 15.0, 15.0 ],
													"id" : "obj-4",
													"numinlets" : 1,
													"numoutlets" : 0,
													"comment" : ""
												}

											}
 ],
										"lines" : [ 											{
												"patchline" : 												{
													"source" : [ "obj-1", 0 ],
													"destination" : [ "obj-4", 0 ],
													"hidden" : 0,
													"midpoints" : [  ]
												}

											}
, 											{
												"patchline" : 												{
													"source" : [ "obj-2", 0 ],
													"destination" : [ "obj-1", 0 ],
													"hidden" : 0,
													"midpoints" : [  ]
												}

											}
, 											{
												"patchline" : 												{
													"source" : [ "obj-3", 0 ],
													"destination" : [ "obj-2", 0 ],
													"hidden" : 0,
													"midpoints" : [  ]
												}

											}
 ]
									}
,
									"saved_object_attributes" : 									{
										"default_fontface" : 0,
										"default_fontname" : "Arial",
										"fontname" : "Arial",
										"default_fontsize" : 12.0,
										"globalpatchername" : "",
										"fontface" : 0,
										"fontsize" : 12.0
									}

								}

							}
, 							{
								"box" : 								{
									"maxclass" : "newobj",
									"text" : "p load_bubblestream",
									"outlettype" : [ "" ],
									"patching_rect" : [ 141.0, 93.0, 102.0, 17.0 ],
									"id" : "obj-5",
									"fontname" : "Arial",
									"numinlets" : 1,
									"fontsize" : 9.0,
									"numoutlets" : 1,
									"patcher" : 									{
										"fileversion" : 1,
										"rect" : [ 10.0, 59.0, 600.0, 426.0 ],
										"bglocked" : 0,
										"defrect" : [ 10.0, 59.0, 600.0, 426.0 ],
										"openrect" : [ 0.0, 0.0, 0.0, 0.0 ],
										"openinpresentation" : 0,
										"default_fontsize" : 12.0,
										"default_fontface" : 0,
										"default_fontname" : "Arial",
										"gridonopen" : 0,
										"gridsize" : [ 15.0, 15.0 ],
										"gridsnaponopen" : 0,
										"toolbarvisible" : 1,
										"boxanimatetime" : 200,
										"imprint" : 0,
										"enablehscroll" : 1,
										"enablevscroll" : 1,
										"devicewidth" : 0.0,
										"boxes" : [ 											{
												"box" : 												{
													"maxclass" : "message",
													"text" : "load BUBBLESTREAM.maxpat",
													"outlettype" : [ "" ],
													"patching_rect" : [ 50.0, 70.0, 135.0, 15.0 ],
													"id" : "obj-1",
													"fontname" : "Arial",
													"numinlets" : 2,
													"fontsize" : 9.0,
													"numoutlets" : 1
												}

											}
, 											{
												"box" : 												{
													"maxclass" : "button",
													"outlettype" : [ "bang" ],
													"patching_rect" : [ 50.0, 50.0, 15.0, 15.0 ],
													"id" : "obj-2",
													"numinlets" : 1,
													"numoutlets" : 1
												}

											}
, 											{
												"box" : 												{
													"maxclass" : "inlet",
													"outlettype" : [ "bang" ],
													"patching_rect" : [ 50.0, 30.0, 15.0, 15.0 ],
													"id" : "obj-3",
													"numinlets" : 0,
													"numoutlets" : 1,
													"comment" : ""
												}

											}
, 											{
												"box" : 												{
													"maxclass" : "outlet",
													"patching_rect" : [ 50.0, 114.0, 15.0, 15.0 ],
													"id" : "obj-4",
													"numinlets" : 1,
													"numoutlets" : 0,
													"comment" : ""
												}

											}
 ],
										"lines" : [ 											{
												"patchline" : 												{
													"source" : [ "obj-1", 0 ],
													"destination" : [ "obj-4", 0 ],
													"hidden" : 0,
													"midpoints" : [  ]
												}

											}
, 											{
												"patchline" : 												{
													"source" : [ "obj-2", 0 ],
													"destination" : [ "obj-1", 0 ],
													"hidden" : 0,
													"midpoints" : [  ]
												}

											}
, 											{
												"patchline" : 												{
													"source" : [ "obj-3", 0 ],
													"destination" : [ "obj-2", 0 ],
													"hidden" : 0,
													"midpoints" : [  ]
												}

											}
 ]
									}
,
									"saved_object_attributes" : 									{
										"default_fontface" : 0,
										"default_fontname" : "Arial",
										"fontname" : "Arial",
										"default_fontsize" : 12.0,
										"globalpatchername" : "",
										"fontface" : 0,
										"fontsize" : 12.0
									}

								}

							}
, 							{
								"box" : 								{
									"maxclass" : "newobj",
									"text" : "p load_continuous_crumpling",
									"outlettype" : [ "" ],
									"patching_rect" : [ 669.0, 53.0, 139.0, 17.0 ],
									"id" : "obj-6",
									"fontname" : "Arial",
									"numinlets" : 1,
									"fontsize" : 9.0,
									"numoutlets" : 1,
									"patcher" : 									{
										"fileversion" : 1,
										"rect" : [ 89.0, 67.0, 600.0, 426.0 ],
										"bglocked" : 0,
										"defrect" : [ 89.0, 67.0, 600.0, 426.0 ],
										"openrect" : [ 0.0, 0.0, 0.0, 0.0 ],
										"openinpresentation" : 0,
										"default_fontsize" : 12.0,
										"default_fontface" : 0,
										"default_fontname" : "Arial",
										"gridonopen" : 0,
										"gridsize" : [ 15.0, 15.0 ],
										"gridsnaponopen" : 0,
										"toolbarvisible" : 1,
										"boxanimatetime" : 200,
										"imprint" : 0,
										"enablehscroll" : 1,
										"enablevscroll" : 1,
										"devicewidth" : 0.0,
										"boxes" : [ 											{
												"box" : 												{
													"maxclass" : "message",
													"text" : "load CONTINUOUS_CRUMPLING.maxpat",
													"outlettype" : [ "" ],
													"patching_rect" : [ 50.0, 100.0, 182.0, 15.0 ],
													"id" : "obj-1",
													"fontname" : "Arial",
													"numinlets" : 2,
													"fontsize" : 9.0,
													"numoutlets" : 1
												}

											}
, 											{
												"box" : 												{
													"maxclass" : "button",
													"outlettype" : [ "bang" ],
													"patching_rect" : [ 50.0, 50.0, 15.0, 15.0 ],
													"id" : "obj-2",
													"numinlets" : 1,
													"numoutlets" : 1
												}

											}
, 											{
												"box" : 												{
													"maxclass" : "inlet",
													"outlettype" : [ "bang" ],
													"patching_rect" : [ 50.0, 30.0, 15.0, 15.0 ],
													"id" : "obj-3",
													"numinlets" : 0,
													"numoutlets" : 1,
													"comment" : ""
												}

											}
, 											{
												"box" : 												{
													"maxclass" : "outlet",
													"patching_rect" : [ 50.0, 144.0, 15.0, 15.0 ],
													"id" : "obj-4",
													"numinlets" : 1,
													"numoutlets" : 0,
													"comment" : ""
												}

											}
 ],
										"lines" : [ 											{
												"patchline" : 												{
													"source" : [ "obj-1", 0 ],
													"destination" : [ "obj-4", 0 ],
													"hidden" : 0,
													"midpoints" : [  ]
												}

											}
, 											{
												"patchline" : 												{
													"source" : [ "obj-2", 0 ],
													"destination" : [ "obj-1", 0 ],
													"hidden" : 0,
													"midpoints" : [  ]
												}

											}
, 											{
												"patchline" : 												{
													"source" : [ "obj-3", 0 ],
													"destination" : [ "obj-2", 0 ],
													"hidden" : 0,
													"midpoints" : [  ]
												}

											}
 ]
									}
,
									"saved_object_attributes" : 									{
										"default_fontface" : 0,
										"default_fontname" : "Arial",
										"fontname" : "Arial",
										"default_fontsize" : 12.0,
										"globalpatchername" : "",
										"fontface" : 0,
										"fontsize" : 12.0
									}

								}

							}
, 							{
								"box" : 								{
									"maxclass" : "newobj",
									"text" : "p load_crumpling",
									"outlettype" : [ "" ],
									"patching_rect" : [ 545.0, 53.0, 86.0, 17.0 ],
									"id" : "obj-7",
									"fontname" : "Arial",
									"numinlets" : 1,
									"fontsize" : 9.0,
									"numoutlets" : 1,
									"patcher" : 									{
										"fileversion" : 1,
										"rect" : [ 10.0, 59.0, 600.0, 426.0 ],
										"bglocked" : 0,
										"defrect" : [ 10.0, 59.0, 600.0, 426.0 ],
										"openrect" : [ 0.0, 0.0, 0.0, 0.0 ],
										"openinpresentation" : 0,
										"default_fontsize" : 12.0,
										"default_fontface" : 0,
										"default_fontname" : "Arial",
										"gridonopen" : 0,
										"gridsize" : [ 15.0, 15.0 ],
										"gridsnaponopen" : 0,
										"toolbarvisible" : 1,
										"boxanimatetime" : 200,
										"imprint" : 0,
										"enablehscroll" : 1,
										"enablevscroll" : 1,
										"devicewidth" : 0.0,
										"boxes" : [ 											{
												"box" : 												{
													"maxclass" : "message",
													"text" : "load CRUMPLING.maxpat",
													"outlettype" : [ "" ],
													"patching_rect" : [ 50.0, 100.0, 116.0, 15.0 ],
													"id" : "obj-1",
													"fontname" : "Arial",
													"numinlets" : 2,
													"fontsize" : 9.0,
													"numoutlets" : 1
												}

											}
, 											{
												"box" : 												{
													"maxclass" : "button",
													"outlettype" : [ "bang" ],
													"patching_rect" : [ 50.0, 50.0, 15.0, 15.0 ],
													"id" : "obj-2",
													"numinlets" : 1,
													"numoutlets" : 1
												}

											}
, 											{
												"box" : 												{
													"maxclass" : "inlet",
													"outlettype" : [ "bang" ],
													"patching_rect" : [ 50.0, 30.0, 15.0, 15.0 ],
													"id" : "obj-3",
													"numinlets" : 0,
													"numoutlets" : 1,
													"comment" : ""
												}

											}
, 											{
												"box" : 												{
													"maxclass" : "outlet",
													"patching_rect" : [ 50.0, 144.0, 15.0, 15.0 ],
													"id" : "obj-4",
													"numinlets" : 1,
													"numoutlets" : 0,
													"comment" : ""
												}

											}
 ],
										"lines" : [ 											{
												"patchline" : 												{
													"source" : [ "obj-1", 0 ],
													"destination" : [ "obj-4", 0 ],
													"hidden" : 0,
													"midpoints" : [  ]
												}

											}
, 											{
												"patchline" : 												{
													"source" : [ "obj-2", 0 ],
													"destination" : [ "obj-1", 0 ],
													"hidden" : 0,
													"midpoints" : [  ]
												}

											}
, 											{
												"patchline" : 												{
													"source" : [ "obj-3", 0 ],
													"destination" : [ "obj-2", 0 ],
													"hidden" : 0,
													"midpoints" : [  ]
												}

											}
 ]
									}
,
									"saved_object_attributes" : 									{
										"default_fontface" : 0,
										"default_fontname" : "Arial",
										"fontname" : "Arial",
										"default_fontsize" : 12.0,
										"globalpatchername" : "",
										"fontface" : 0,
										"fontsize" : 12.0
									}

								}

							}
, 							{
								"box" : 								{
									"maxclass" : "newobj",
									"text" : "p load_rolling",
									"outlettype" : [ "" ],
									"patching_rect" : [ 426.0, 53.0, 71.0, 17.0 ],
									"id" : "obj-8",
									"fontname" : "Arial",
									"numinlets" : 1,
									"fontsize" : 9.0,
									"numoutlets" : 1,
									"patcher" : 									{
										"fileversion" : 1,
										"rect" : [ 874.0, 618.0, 600.0, 426.0 ],
										"bglocked" : 0,
										"defrect" : [ 874.0, 618.0, 600.0, 426.0 ],
										"openrect" : [ 0.0, 0.0, 0.0, 0.0 ],
										"openinpresentation" : 0,
										"default_fontsize" : 12.0,
										"default_fontface" : 0,
										"default_fontname" : "Arial",
										"gridonopen" : 0,
										"gridsize" : [ 15.0, 15.0 ],
										"gridsnaponopen" : 0,
										"toolbarvisible" : 1,
										"boxanimatetime" : 200,
										"imprint" : 0,
										"enablehscroll" : 1,
										"enablevscroll" : 1,
										"devicewidth" : 0.0,
										"boxes" : [ 											{
												"box" : 												{
													"maxclass" : "message",
													"text" : "load ROLLING.maxpat",
													"outlettype" : [ "" ],
													"patching_rect" : [ 50.0, 100.0, 102.0, 15.0 ],
													"id" : "obj-1",
													"fontname" : "Arial",
													"numinlets" : 2,
													"fontsize" : 9.0,
													"numoutlets" : 1
												}

											}
, 											{
												"box" : 												{
													"maxclass" : "button",
													"outlettype" : [ "bang" ],
													"patching_rect" : [ 50.0, 50.0, 15.0, 15.0 ],
													"id" : "obj-2",
													"numinlets" : 1,
													"numoutlets" : 1
												}

											}
, 											{
												"box" : 												{
													"maxclass" : "inlet",
													"outlettype" : [ "bang" ],
													"patching_rect" : [ 50.0, 30.0, 15.0, 15.0 ],
													"id" : "obj-3",
													"numinlets" : 0,
													"numoutlets" : 1,
													"comment" : ""
												}

											}
, 											{
												"box" : 												{
													"maxclass" : "outlet",
													"patching_rect" : [ 50.0, 132.0, 15.0, 15.0 ],
													"id" : "obj-4",
													"numinlets" : 1,
													"numoutlets" : 0,
													"comment" : ""
												}

											}
 ],
										"lines" : [ 											{
												"patchline" : 												{
													"source" : [ "obj-1", 0 ],
													"destination" : [ "obj-4", 0 ],
													"hidden" : 0,
													"midpoints" : [  ]
												}

											}
, 											{
												"patchline" : 												{
													"source" : [ "obj-2", 0 ],
													"destination" : [ "obj-1", 0 ],
													"hidden" : 0,
													"midpoints" : [  ]
												}

											}
, 											{
												"patchline" : 												{
													"source" : [ "obj-3", 0 ],
													"destination" : [ "obj-2", 0 ],
													"hidden" : 0,
													"midpoints" : [  ]
												}

											}
 ]
									}
,
									"saved_object_attributes" : 									{
										"default_fontface" : 0,
										"default_fontname" : "Arial",
										"fontname" : "Arial",
										"default_fontsize" : 12.0,
										"globalpatchername" : "",
										"fontface" : 0,
										"fontsize" : 12.0
									}

								}

							}
, 							{
								"box" : 								{
									"maxclass" : "newobj",
									"text" : "p load_one bubble",
									"outlettype" : [ "" ],
									"patching_rect" : [ 303.0, 53.0, 88.0, 17.0 ],
									"id" : "obj-9",
									"fontname" : "Arial",
									"numinlets" : 1,
									"fontsize" : 9.0,
									"numoutlets" : 1,
									"patcher" : 									{
										"fileversion" : 1,
										"rect" : [ 1291.0, 789.0, 600.0, 426.0 ],
										"bglocked" : 0,
										"defrect" : [ 1291.0, 789.0, 600.0, 426.0 ],
										"openrect" : [ 0.0, 0.0, 0.0, 0.0 ],
										"openinpresentation" : 0,
										"default_fontsize" : 12.0,
										"default_fontface" : 0,
										"default_fontname" : "Arial",
										"gridonopen" : 0,
										"gridsize" : [ 15.0, 15.0 ],
										"gridsnaponopen" : 0,
										"toolbarvisible" : 1,
										"boxanimatetime" : 200,
										"imprint" : 0,
										"enablehscroll" : 1,
										"enablevscroll" : 1,
										"devicewidth" : 0.0,
										"boxes" : [ 											{
												"box" : 												{
													"maxclass" : "message",
													"text" : "load ONEBUBBLE.maxpat",
													"outlettype" : [ "" ],
													"patching_rect" : [ 50.0, 100.0, 122.0, 15.0 ],
													"id" : "obj-1",
													"fontname" : "Arial",
													"numinlets" : 2,
													"fontsize" : 9.0,
													"numoutlets" : 1
												}

											}
, 											{
												"box" : 												{
													"maxclass" : "button",
													"outlettype" : [ "bang" ],
													"patching_rect" : [ 50.0, 50.0, 15.0, 15.0 ],
													"id" : "obj-2",
													"numinlets" : 1,
													"numoutlets" : 1
												}

											}
, 											{
												"box" : 												{
													"maxclass" : "inlet",
													"outlettype" : [ "bang" ],
													"patching_rect" : [ 50.0, 30.0, 15.0, 15.0 ],
													"id" : "obj-3",
													"numinlets" : 0,
													"numoutlets" : 1,
													"comment" : ""
												}

											}
, 											{
												"box" : 												{
													"maxclass" : "outlet",
													"patching_rect" : [ 50.0, 132.0, 15.0, 15.0 ],
													"id" : "obj-4",
													"numinlets" : 1,
													"numoutlets" : 0,
													"comment" : ""
												}

											}
 ],
										"lines" : [ 											{
												"patchline" : 												{
													"source" : [ "obj-1", 0 ],
													"destination" : [ "obj-4", 0 ],
													"hidden" : 0,
													"midpoints" : [  ]
												}

											}
, 											{
												"patchline" : 												{
													"source" : [ "obj-2", 0 ],
													"destination" : [ "obj-1", 0 ],
													"hidden" : 0,
													"midpoints" : [  ]
												}

											}
, 											{
												"patchline" : 												{
													"source" : [ "obj-3", 0 ],
													"destination" : [ "obj-2", 0 ],
													"hidden" : 0,
													"midpoints" : [  ]
												}

											}
 ]
									}
,
									"saved_object_attributes" : 									{
										"default_fontface" : 0,
										"default_fontname" : "Arial",
										"fontname" : "Arial",
										"default_fontsize" : 12.0,
										"globalpatchername" : "",
										"fontface" : 0,
										"fontsize" : 12.0
									}

								}

							}
, 							{
								"box" : 								{
									"maxclass" : "newobj",
									"text" : "p load friction",
									"outlettype" : [ "" ],
									"patching_rect" : [ 181.0, 53.0, 73.0, 17.0 ],
									"id" : "obj-10",
									"fontname" : "Arial",
									"numinlets" : 1,
									"fontsize" : 9.0,
									"numoutlets" : 1,
									"patcher" : 									{
										"fileversion" : 1,
										"rect" : [ 10.0, 59.0, 600.0, 426.0 ],
										"bglocked" : 0,
										"defrect" : [ 10.0, 59.0, 600.0, 426.0 ],
										"openrect" : [ 0.0, 0.0, 0.0, 0.0 ],
										"openinpresentation" : 0,
										"default_fontsize" : 12.0,
										"default_fontface" : 0,
										"default_fontname" : "Arial",
										"gridonopen" : 0,
										"gridsize" : [ 15.0, 15.0 ],
										"gridsnaponopen" : 0,
										"toolbarvisible" : 1,
										"boxanimatetime" : 200,
										"imprint" : 0,
										"enablehscroll" : 1,
										"enablevscroll" : 1,
										"devicewidth" : 0.0,
										"boxes" : [ 											{
												"box" : 												{
													"maxclass" : "newobj",
													"text" : "r Fric_closeall",
													"outlettype" : [ "" ],
													"patching_rect" : [ 95.0, 51.0, 76.0, 17.0 ],
													"id" : "obj-1",
													"fontname" : "Arial",
													"numinlets" : 0,
													"fontsize" : 9.0,
													"numoutlets" : 1
												}

											}
, 											{
												"box" : 												{
													"maxclass" : "newobj",
													"text" : "onebang 1",
													"outlettype" : [ "bang", "bang" ],
													"patching_rect" : [ 50.0, 73.0, 54.0, 17.0 ],
													"id" : "obj-2",
													"fontname" : "Arial",
													"numinlets" : 2,
													"fontsize" : 9.0,
													"numoutlets" : 2
												}

											}
, 											{
												"box" : 												{
													"maxclass" : "message",
													"text" : "load FRICTION.maxpat",
													"outlettype" : [ "" ],
													"patching_rect" : [ 50.0, 100.0, 105.0, 15.0 ],
													"id" : "obj-3",
													"fontname" : "Arial",
													"numinlets" : 2,
													"fontsize" : 9.0,
													"numoutlets" : 1
												}

											}
, 											{
												"box" : 												{
													"maxclass" : "button",
													"outlettype" : [ "bang" ],
													"patching_rect" : [ 50.0, 50.0, 15.0, 15.0 ],
													"id" : "obj-4",
													"numinlets" : 1,
													"numoutlets" : 1
												}

											}
, 											{
												"box" : 												{
													"maxclass" : "inlet",
													"outlettype" : [ "bang" ],
													"patching_rect" : [ 50.0, 30.0, 15.0, 15.0 ],
													"id" : "obj-5",
													"numinlets" : 0,
													"numoutlets" : 1,
													"comment" : ""
												}

											}
, 											{
												"box" : 												{
													"maxclass" : "outlet",
													"patching_rect" : [ 50.0, 132.0, 15.0, 15.0 ],
													"id" : "obj-6",
													"numinlets" : 1,
													"numoutlets" : 0,
													"comment" : ""
												}

											}
 ],
										"lines" : [ 											{
												"patchline" : 												{
													"source" : [ "obj-1", 0 ],
													"destination" : [ "obj-2", 1 ],
													"hidden" : 0,
													"midpoints" : [  ]
												}

											}
, 											{
												"patchline" : 												{
													"source" : [ "obj-3", 0 ],
													"destination" : [ "obj-6", 0 ],
													"hidden" : 0,
													"midpoints" : [  ]
												}

											}
, 											{
												"patchline" : 												{
													"source" : [ "obj-2", 0 ],
													"destination" : [ "obj-3", 0 ],
													"hidden" : 0,
													"midpoints" : [  ]
												}

											}
, 											{
												"patchline" : 												{
													"source" : [ "obj-4", 0 ],
													"destination" : [ "obj-2", 0 ],
													"hidden" : 0,
													"midpoints" : [  ]
												}

											}
, 											{
												"patchline" : 												{
													"source" : [ "obj-5", 0 ],
													"destination" : [ "obj-4", 0 ],
													"hidden" : 0,
													"midpoints" : [  ]
												}

											}
 ]
									}
,
									"saved_object_attributes" : 									{
										"default_fontface" : 0,
										"default_fontname" : "Arial",
										"fontname" : "Arial",
										"default_fontsize" : 12.0,
										"globalpatchername" : "",
										"fontface" : 0,
										"fontsize" : 12.0
									}

								}

							}
, 							{
								"box" : 								{
									"maxclass" : "newobj",
									"text" : "p load_impact",
									"outlettype" : [ "" ],
									"patching_rect" : [ 57.0, 52.0, 72.0, 17.0 ],
									"id" : "obj-11",
									"fontname" : "Arial",
									"numinlets" : 1,
									"fontsize" : 9.0,
									"numoutlets" : 1,
									"patcher" : 									{
										"fileversion" : 1,
										"rect" : [ 1059.0, 701.0, 600.0, 426.0 ],
										"bglocked" : 0,
										"defrect" : [ 1059.0, 701.0, 600.0, 426.0 ],
										"openrect" : [ 0.0, 0.0, 0.0, 0.0 ],
										"openinpresentation" : 0,
										"default_fontsize" : 12.0,
										"default_fontface" : 0,
										"default_fontname" : "Arial",
										"gridonopen" : 0,
										"gridsize" : [ 15.0, 15.0 ],
										"gridsnaponopen" : 0,
										"toolbarvisible" : 1,
										"boxanimatetime" : 200,
										"imprint" : 0,
										"enablehscroll" : 1,
										"enablevscroll" : 1,
										"devicewidth" : 0.0,
										"boxes" : [ 											{
												"box" : 												{
													"maxclass" : "newobj",
													"text" : "r imp_closeall",
													"outlettype" : [ "" ],
													"patching_rect" : [ 98.0, 50.0, 74.0, 17.0 ],
													"id" : "obj-1",
													"fontname" : "Arial",
													"numinlets" : 0,
													"fontsize" : 9.0,
													"numoutlets" : 1
												}

											}
, 											{
												"box" : 												{
													"maxclass" : "newobj",
													"text" : "onebang 1",
													"outlettype" : [ "bang", "bang" ],
													"patching_rect" : [ 50.0, 72.0, 54.0, 17.0 ],
													"id" : "obj-2",
													"fontname" : "Arial",
													"numinlets" : 2,
													"fontsize" : 9.0,
													"numoutlets" : 2
												}

											}
, 											{
												"box" : 												{
													"maxclass" : "message",
													"text" : "load IMPACT.maxpat",
													"outlettype" : [ "" ],
													"patching_rect" : [ 50.0, 101.0, 94.0, 15.0 ],
													"id" : "obj-3",
													"fontname" : "Arial",
													"numinlets" : 2,
													"fontsize" : 9.0,
													"numoutlets" : 1
												}

											}
, 											{
												"box" : 												{
													"maxclass" : "button",
													"outlettype" : [ "bang" ],
													"patching_rect" : [ 50.0, 51.0, 15.0, 15.0 ],
													"id" : "obj-4",
													"numinlets" : 1,
													"numoutlets" : 1
												}

											}
, 											{
												"box" : 												{
													"maxclass" : "inlet",
													"outlettype" : [ "bang" ],
													"patching_rect" : [ 50.0, 31.0, 15.0, 15.0 ],
													"id" : "obj-5",
													"numinlets" : 0,
													"numoutlets" : 1,
													"comment" : ""
												}

											}
, 											{
												"box" : 												{
													"maxclass" : "outlet",
													"patching_rect" : [ 50.0, 145.0, 15.0, 15.0 ],
													"id" : "obj-6",
													"numinlets" : 1,
													"numoutlets" : 0,
													"comment" : ""
												}

											}
 ],
										"lines" : [ 											{
												"patchline" : 												{
													"source" : [ "obj-1", 0 ],
													"destination" : [ "obj-2", 1 ],
													"hidden" : 0,
													"midpoints" : [  ]
												}

											}
, 											{
												"patchline" : 												{
													"source" : [ "obj-3", 0 ],
													"destination" : [ "obj-6", 0 ],
													"hidden" : 0,
													"midpoints" : [  ]
												}

											}
, 											{
												"patchline" : 												{
													"source" : [ "obj-2", 0 ],
													"destination" : [ "obj-3", 0 ],
													"hidden" : 0,
													"midpoints" : [  ]
												}

											}
, 											{
												"patchline" : 												{
													"source" : [ "obj-4", 0 ],
													"destination" : [ "obj-2", 0 ],
													"hidden" : 0,
													"midpoints" : [  ]
												}

											}
, 											{
												"patchline" : 												{
													"source" : [ "obj-5", 0 ],
													"destination" : [ "obj-4", 0 ],
													"hidden" : 0,
													"midpoints" : [  ]
												}

											}
 ]
									}
,
									"saved_object_attributes" : 									{
										"default_fontface" : 0,
										"default_fontname" : "Arial",
										"fontname" : "Arial",
										"default_fontsize" : 12.0,
										"globalpatchername" : "",
										"fontface" : 0,
										"fontsize" : 12.0
									}

								}

							}
, 							{
								"box" : 								{
									"maxclass" : "outlet",
									"patching_rect" : [ 402.0, 174.0, 15.0, 15.0 ],
									"id" : "obj-12",
									"numinlets" : 1,
									"numoutlets" : 0,
									"comment" : ""
								}

							}
, 							{
								"box" : 								{
									"maxclass" : "inlet",
									"outlettype" : [ "bang" ],
									"patching_rect" : [ 669.0, 32.0, 15.0, 15.0 ],
									"id" : "obj-13",
									"numinlets" : 0,
									"numoutlets" : 1,
									"comment" : "Continuous crumpling"
								}

							}
, 							{
								"box" : 								{
									"maxclass" : "inlet",
									"outlettype" : [ "bang" ],
									"patching_rect" : [ 629.0, 32.0, 15.0, 15.0 ],
									"id" : "obj-14",
									"numinlets" : 0,
									"numoutlets" : 1,
									"comment" : "Vacuum cleaner"
								}

							}
, 							{
								"box" : 								{
									"maxclass" : "inlet",
									"outlettype" : [ "bang" ],
									"patching_rect" : [ 545.0, 32.0, 15.0, 15.0 ],
									"id" : "obj-15",
									"numinlets" : 0,
									"numoutlets" : 1,
									"comment" : "crumpling"
								}

							}
, 							{
								"box" : 								{
									"maxclass" : "inlet",
									"outlettype" : [ "bang" ],
									"patching_rect" : [ 510.0, 32.0, 15.0, 15.0 ],
									"id" : "obj-16",
									"numinlets" : 0,
									"numoutlets" : 1,
									"comment" : "breaking"
								}

							}
, 							{
								"box" : 								{
									"maxclass" : "inlet",
									"outlettype" : [ "bang" ],
									"patching_rect" : [ 426.0, 32.0, 15.0, 15.0 ],
									"id" : "obj-17",
									"numinlets" : 0,
									"numoutlets" : 1,
									"comment" : "eolling"
								}

							}
, 							{
								"box" : 								{
									"maxclass" : "inlet",
									"outlettype" : [ "bang" ],
									"patching_rect" : [ 387.0, 32.0, 15.0, 15.0 ],
									"id" : "obj-18",
									"numinlets" : 0,
									"numoutlets" : 1,
									"comment" : "Bouncing"
								}

							}
, 							{
								"box" : 								{
									"maxclass" : "inlet",
									"outlettype" : [ "bang" ],
									"patching_rect" : [ 303.0, 32.0, 15.0, 15.0 ],
									"id" : "obj-19",
									"numinlets" : 0,
									"numoutlets" : 1,
									"comment" : "onebubble"
								}

							}
, 							{
								"box" : 								{
									"maxclass" : "inlet",
									"outlettype" : [ "bang" ],
									"patching_rect" : [ 265.0, 32.0, 15.0, 15.0 ],
									"id" : "obj-20",
									"numinlets" : 0,
									"numoutlets" : 1,
									"comment" : "Splash"
								}

							}
, 							{
								"box" : 								{
									"maxclass" : "inlet",
									"outlettype" : [ "bang" ],
									"patching_rect" : [ 181.0, 32.0, 15.0, 15.0 ],
									"id" : "obj-21",
									"numinlets" : 0,
									"numoutlets" : 1,
									"comment" : "Friction"
								}

							}
, 							{
								"box" : 								{
									"maxclass" : "inlet",
									"outlettype" : [ "bang" ],
									"patching_rect" : [ 141.0, 32.0, 15.0, 15.0 ],
									"id" : "obj-22",
									"numinlets" : 0,
									"numoutlets" : 1,
									"comment" : "bubblestream"
								}

							}
, 							{
								"box" : 								{
									"maxclass" : "inlet",
									"outlettype" : [ "bang" ],
									"patching_rect" : [ 57.0, 32.0, 15.0, 15.0 ],
									"id" : "obj-23",
									"numinlets" : 0,
									"numoutlets" : 1,
									"comment" : "Impact"
								}

							}
 ],
						"lines" : [ 							{
								"patchline" : 								{
									"source" : [ "obj-13", 0 ],
									"destination" : [ "obj-6", 0 ],
									"hidden" : 0,
									"midpoints" : [  ]
								}

							}
, 							{
								"patchline" : 								{
									"source" : [ "obj-14", 0 ],
									"destination" : [ "obj-1", 0 ],
									"hidden" : 0,
									"midpoints" : [  ]
								}

							}
, 							{
								"patchline" : 								{
									"source" : [ "obj-15", 0 ],
									"destination" : [ "obj-7", 0 ],
									"hidden" : 0,
									"midpoints" : [  ]
								}

							}
, 							{
								"patchline" : 								{
									"source" : [ "obj-16", 0 ],
									"destination" : [ "obj-2", 0 ],
									"hidden" : 0,
									"midpoints" : [  ]
								}

							}
, 							{
								"patchline" : 								{
									"source" : [ "obj-17", 0 ],
									"destination" : [ "obj-8", 0 ],
									"hidden" : 0,
									"midpoints" : [  ]
								}

							}
, 							{
								"patchline" : 								{
									"source" : [ "obj-1", 0 ],
									"destination" : [ "obj-12", 0 ],
									"hidden" : 0,
									"midpoints" : [  ]
								}

							}
, 							{
								"patchline" : 								{
									"source" : [ "obj-2", 0 ],
									"destination" : [ "obj-12", 0 ],
									"hidden" : 0,
									"midpoints" : [  ]
								}

							}
, 							{
								"patchline" : 								{
									"source" : [ "obj-3", 0 ],
									"destination" : [ "obj-12", 0 ],
									"hidden" : 0,
									"midpoints" : [  ]
								}

							}
, 							{
								"patchline" : 								{
									"source" : [ "obj-4", 0 ],
									"destination" : [ "obj-12", 0 ],
									"hidden" : 0,
									"midpoints" : [  ]
								}

							}
, 							{
								"patchline" : 								{
									"source" : [ "obj-5", 0 ],
									"destination" : [ "obj-12", 0 ],
									"hidden" : 0,
									"midpoints" : [  ]
								}

							}
, 							{
								"patchline" : 								{
									"source" : [ "obj-6", 0 ],
									"destination" : [ "obj-12", 0 ],
									"hidden" : 0,
									"midpoints" : [  ]
								}

							}
, 							{
								"patchline" : 								{
									"source" : [ "obj-7", 0 ],
									"destination" : [ "obj-12", 0 ],
									"hidden" : 0,
									"midpoints" : [  ]
								}

							}
, 							{
								"patchline" : 								{
									"source" : [ "obj-8", 0 ],
									"destination" : [ "obj-12", 0 ],
									"hidden" : 0,
									"midpoints" : [  ]
								}

							}
, 							{
								"patchline" : 								{
									"source" : [ "obj-9", 0 ],
									"destination" : [ "obj-12", 0 ],
									"hidden" : 0,
									"midpoints" : [  ]
								}

							}
, 							{
								"patchline" : 								{
									"source" : [ "obj-10", 0 ],
									"destination" : [ "obj-12", 0 ],
									"hidden" : 0,
									"midpoints" : [  ]
								}

							}
, 							{
								"patchline" : 								{
									"source" : [ "obj-11", 0 ],
									"destination" : [ "obj-12", 0 ],
									"hidden" : 0,
									"midpoints" : [  ]
								}

							}
, 							{
								"patchline" : 								{
									"source" : [ "obj-18", 0 ],
									"destination" : [ "obj-3", 0 ],
									"hidden" : 0,
									"midpoints" : [  ]
								}

							}
, 							{
								"patchline" : 								{
									"source" : [ "obj-19", 0 ],
									"destination" : [ "obj-9", 0 ],
									"hidden" : 0,
									"midpoints" : [  ]
								}

							}
, 							{
								"patchline" : 								{
									"source" : [ "obj-20", 0 ],
									"destination" : [ "obj-4", 0 ],
									"hidden" : 0,
									"midpoints" : [  ]
								}

							}
, 							{
								"patchline" : 								{
									"source" : [ "obj-21", 0 ],
									"destination" : [ "obj-10", 0 ],
									"hidden" : 0,
									"midpoints" : [  ]
								}

							}
, 							{
								"patchline" : 								{
									"source" : [ "obj-22", 0 ],
									"destination" : [ "obj-5", 0 ],
									"hidden" : 0,
									"midpoints" : [  ]
								}

							}
, 							{
								"patchline" : 								{
									"source" : [ "obj-23", 0 ],
									"destination" : [ "obj-11", 0 ],
									"hidden" : 0,
									"midpoints" : [  ]
								}

							}
 ]
					}
,
					"saved_object_attributes" : 					{
						"default_fontface" : 0,
						"default_fontname" : "Arial",
						"fontname" : "Arial",
						"default_fontsize" : 12.0,
						"globalpatchername" : "",
						"fontface" : 0,
						"fontsize" : 12.0
					}

				}

			}
, 			{
				"box" : 				{
					"maxclass" : "newobj",
					"text" : "pcontrol",
					"outlettype" : [ "" ],
					"patching_rect" : [ 257.0, 334.0, 47.0, 17.0 ],
					"id" : "obj-10",
					"fontname" : "Arial",
					"hidden" : 1,
					"numinlets" : 1,
					"fontsize" : 9.0,
					"numoutlets" : 1
				}

			}
, 			{
				"box" : 				{
					"maxclass" : "message",
					"text" : "shadow 1",
					"outlettype" : [ "" ],
					"patching_rect" : [ 511.0, 72.0, 62.0, 15.0 ],
					"id" : "obj-11",
					"fontname" : "Arial",
					"hidden" : 1,
					"numinlets" : 2,
					"fontsize" : 9.0,
					"numoutlets" : 1
				}

			}
, 			{
				"box" : 				{
					"maxclass" : "message",
					"text" : "shadow -2",
					"outlettype" : [ "" ],
					"patching_rect" : [ 495.0, 72.0, 67.0, 15.0 ],
					"id" : "obj-12",
					"fontname" : "Arial",
					"hidden" : 1,
					"numinlets" : 2,
					"fontsize" : 9.0,
					"numoutlets" : 1
				}

			}
, 			{
				"box" : 				{
					"maxclass" : "ubutton",
					"outlettype" : [ "bang", "bang", "", "int" ],
					"handoff" : "",
					"patching_rect" : [ 491.0, 64.0, 73.0, 31.0 ],
					"id" : "obj-13",
					"numinlets" : 1,
					"numoutlets" : 4,
					"hilite" : 0
				}

			}
, 			{
				"box" : 				{
					"maxclass" : "message",
					"text" : "shadow 1",
					"outlettype" : [ "" ],
					"patching_rect" : [ 149.0, 122.0, 62.0, 15.0 ],
					"id" : "obj-14",
					"fontname" : "Arial",
					"hidden" : 1,
					"numinlets" : 2,
					"fontsize" : 9.0,
					"numoutlets" : 1
				}

			}
, 			{
				"box" : 				{
					"maxclass" : "message",
					"text" : "shadow -2",
					"outlettype" : [ "" ],
					"patching_rect" : [ 128.0, 121.0, 67.0, 15.0 ],
					"id" : "obj-15",
					"fontname" : "Arial",
					"hidden" : 1,
					"numinlets" : 2,
					"fontsize" : 9.0,
					"numoutlets" : 1
				}

			}
, 			{
				"box" : 				{
					"maxclass" : "ubutton",
					"outlettype" : [ "bang", "bang", "", "int" ],
					"handoff" : "",
					"patching_rect" : [ 128.0, 117.0, 70.0, 28.0 ],
					"id" : "obj-16",
					"numinlets" : 1,
					"numoutlets" : 4,
					"hilite" : 0
				}

			}
, 			{
				"box" : 				{
					"maxclass" : "message",
					"text" : "shadow 1",
					"outlettype" : [ "" ],
					"patching_rect" : [ 253.0, 122.0, 62.0, 15.0 ],
					"id" : "obj-17",
					"fontname" : "Arial",
					"hidden" : 1,
					"numinlets" : 2,
					"fontsize" : 9.0,
					"numoutlets" : 1
				}

			}
, 			{
				"box" : 				{
					"maxclass" : "message",
					"text" : "shadow -2",
					"outlettype" : [ "" ],
					"patching_rect" : [ 237.0, 122.0, 67.0, 15.0 ],
					"id" : "obj-18",
					"fontname" : "Arial",
					"hidden" : 1,
					"numinlets" : 2,
					"fontsize" : 9.0,
					"numoutlets" : 1
				}

			}
, 			{
				"box" : 				{
					"maxclass" : "ubutton",
					"outlettype" : [ "bang", "bang", "", "int" ],
					"handoff" : "",
					"patching_rect" : [ 237.0, 117.0, 72.0, 28.0 ],
					"id" : "obj-19",
					"numinlets" : 1,
					"numoutlets" : 4,
					"hilite" : 0
				}

			}
, 			{
				"box" : 				{
					"maxclass" : "message",
					"text" : "shadow 1",
					"outlettype" : [ "" ],
					"patching_rect" : [ 446.0, 123.0, 62.0, 15.0 ],
					"id" : "obj-20",
					"fontname" : "Arial",
					"hidden" : 1,
					"numinlets" : 2,
					"fontsize" : 9.0,
					"numoutlets" : 1
				}

			}
, 			{
				"box" : 				{
					"maxclass" : "message",
					"text" : "shadow -2",
					"outlettype" : [ "" ],
					"patching_rect" : [ 430.0, 123.0, 67.0, 15.0 ],
					"id" : "obj-21",
					"fontname" : "Arial",
					"hidden" : 1,
					"numinlets" : 2,
					"fontsize" : 9.0,
					"numoutlets" : 1
				}

			}
, 			{
				"box" : 				{
					"maxclass" : "ubutton",
					"outlettype" : [ "bang", "bang", "", "int" ],
					"handoff" : "",
					"patching_rect" : [ 430.0, 116.0, 68.0, 28.0 ],
					"id" : "obj-22",
					"numinlets" : 1,
					"numoutlets" : 4,
					"hilite" : 0
				}

			}
, 			{
				"box" : 				{
					"maxclass" : "message",
					"text" : "shadow 1",
					"outlettype" : [ "" ],
					"patching_rect" : [ 487.0, 185.0, 62.0, 15.0 ],
					"id" : "obj-23",
					"fontname" : "Arial",
					"hidden" : 1,
					"numinlets" : 2,
					"fontsize" : 9.0,
					"numoutlets" : 1
				}

			}
, 			{
				"box" : 				{
					"maxclass" : "message",
					"text" : "shadow -2",
					"outlettype" : [ "" ],
					"patching_rect" : [ 471.0, 185.0, 67.0, 15.0 ],
					"id" : "obj-24",
					"fontname" : "Arial",
					"hidden" : 1,
					"numinlets" : 2,
					"fontsize" : 9.0,
					"numoutlets" : 1
				}

			}
, 			{
				"box" : 				{
					"maxclass" : "ubutton",
					"outlettype" : [ "bang", "bang", "", "int" ],
					"handoff" : "",
					"patching_rect" : [ 465.0, 183.0, 93.0, 26.0 ],
					"id" : "obj-25",
					"numinlets" : 1,
					"numoutlets" : 4,
					"hilite" : 0
				}

			}
, 			{
				"box" : 				{
					"maxclass" : "message",
					"text" : "shadow 1",
					"outlettype" : [ "" ],
					"patching_rect" : [ 276.0, 179.0, 52.0, 15.0 ],
					"id" : "obj-26",
					"fontname" : "Arial",
					"hidden" : 1,
					"numinlets" : 2,
					"fontsize" : 9.0,
					"numoutlets" : 1
				}

			}
, 			{
				"box" : 				{
					"maxclass" : "message",
					"text" : "shadow -2",
					"outlettype" : [ "" ],
					"patching_rect" : [ 260.0, 179.0, 67.0, 15.0 ],
					"id" : "obj-27",
					"fontname" : "Arial",
					"hidden" : 1,
					"numinlets" : 2,
					"fontsize" : 9.0,
					"numoutlets" : 1
				}

			}
, 			{
				"box" : 				{
					"maxclass" : "ubutton",
					"outlettype" : [ "bang", "bang", "", "int" ],
					"handoff" : "",
					"patching_rect" : [ 231.0, 169.0, 82.0, 35.0 ],
					"id" : "obj-28",
					"numinlets" : 1,
					"numoutlets" : 4,
					"hilite" : 0
				}

			}
, 			{
				"box" : 				{
					"maxclass" : "message",
					"text" : "shadow 1",
					"outlettype" : [ "" ],
					"patching_rect" : [ 144.0, 182.0, 62.0, 15.0 ],
					"id" : "obj-29",
					"fontname" : "Arial",
					"hidden" : 1,
					"numinlets" : 2,
					"fontsize" : 9.0,
					"numoutlets" : 1
				}

			}
, 			{
				"box" : 				{
					"maxclass" : "message",
					"text" : "shadow -2",
					"outlettype" : [ "" ],
					"patching_rect" : [ 121.0, 182.0, 67.0, 15.0 ],
					"id" : "obj-30",
					"fontname" : "Arial",
					"hidden" : 1,
					"numinlets" : 2,
					"fontsize" : 9.0,
					"numoutlets" : 1
				}

			}
, 			{
				"box" : 				{
					"maxclass" : "ubutton",
					"outlettype" : [ "bang", "bang", "", "int" ],
					"handoff" : "",
					"patching_rect" : [ 128.0, 171.0, 74.0, 27.0 ],
					"id" : "obj-31",
					"numinlets" : 1,
					"numoutlets" : 4,
					"hilite" : 0
				}

			}
, 			{
				"box" : 				{
					"maxclass" : "message",
					"text" : "shadow 1",
					"outlettype" : [ "" ],
					"patching_rect" : [ 149.0, 210.0, 62.0, 15.0 ],
					"id" : "obj-32",
					"fontname" : "Arial",
					"hidden" : 1,
					"numinlets" : 2,
					"fontsize" : 9.0,
					"numoutlets" : 1
				}

			}
, 			{
				"box" : 				{
					"maxclass" : "message",
					"text" : "shadow -2",
					"outlettype" : [ "" ],
					"patching_rect" : [ 133.0, 210.0, 67.0, 15.0 ],
					"id" : "obj-33",
					"fontname" : "Arial",
					"hidden" : 1,
					"numinlets" : 2,
					"fontsize" : 9.0,
					"numoutlets" : 1
				}

			}
, 			{
				"box" : 				{
					"maxclass" : "ubutton",
					"outlettype" : [ "bang", "bang", "", "int" ],
					"handoff" : "",
					"patching_rect" : [ 128.0, 206.0, 67.0, 30.0 ],
					"id" : "obj-34",
					"numinlets" : 1,
					"numoutlets" : 4,
					"hilite" : 0
				}

			}
, 			{
				"box" : 				{
					"maxclass" : "message",
					"text" : "shadow 1",
					"outlettype" : [ "" ],
					"patching_rect" : [ 441.0, 256.0, 73.0, 15.0 ],
					"id" : "obj-35",
					"fontname" : "Arial",
					"hidden" : 1,
					"numinlets" : 2,
					"fontsize" : 9.0,
					"numoutlets" : 1
				}

			}
, 			{
				"box" : 				{
					"maxclass" : "message",
					"text" : "shadow -2",
					"outlettype" : [ "" ],
					"patching_rect" : [ 425.0, 256.0, 78.0, 15.0 ],
					"id" : "obj-36",
					"fontname" : "Arial",
					"hidden" : 1,
					"numinlets" : 2,
					"fontsize" : 9.0,
					"numoutlets" : 1
				}

			}
, 			{
				"box" : 				{
					"maxclass" : "ubutton",
					"outlettype" : [ "bang", "bang", "", "int" ],
					"handoff" : "",
					"patching_rect" : [ 425.0, 252.0, 74.0, 27.0 ],
					"id" : "obj-37",
					"numinlets" : 1,
					"numoutlets" : 4,
					"hilite" : 0
				}

			}
, 			{
				"box" : 				{
					"maxclass" : "message",
					"text" : "shadow 1",
					"outlettype" : [ "" ],
					"patching_rect" : [ 342.0, 259.0, 62.0, 15.0 ],
					"id" : "obj-38",
					"fontname" : "Arial",
					"hidden" : 1,
					"numinlets" : 2,
					"fontsize" : 9.0,
					"numoutlets" : 1
				}

			}
, 			{
				"box" : 				{
					"maxclass" : "message",
					"text" : "shadow -2",
					"outlettype" : [ "" ],
					"patching_rect" : [ 326.0, 259.0, 67.0, 15.0 ],
					"id" : "obj-39",
					"fontname" : "Arial",
					"hidden" : 1,
					"numinlets" : 2,
					"fontsize" : 9.0,
					"numoutlets" : 1
				}

			}
, 			{
				"box" : 				{
					"maxclass" : "ubutton",
					"outlettype" : [ "bang", "bang", "", "int" ],
					"handoff" : "",
					"patching_rect" : [ 325.0, 253.0, 63.0, 26.0 ],
					"id" : "obj-40",
					"numinlets" : 1,
					"numoutlets" : 4,
					"hilite" : 0
				}

			}
, 			{
				"box" : 				{
					"maxclass" : "message",
					"text" : "shadow 1",
					"outlettype" : [ "" ],
					"patching_rect" : [ 194.0, 260.0, 52.0, 15.0 ],
					"id" : "obj-41",
					"fontname" : "Arial",
					"hidden" : 1,
					"numinlets" : 2,
					"fontsize" : 9.0,
					"numoutlets" : 1
				}

			}
, 			{
				"box" : 				{
					"maxclass" : "message",
					"text" : "shadow -2",
					"outlettype" : [ "" ],
					"patching_rect" : [ 199.0, 254.0, 57.0, 15.0 ],
					"id" : "obj-42",
					"fontname" : "Arial",
					"hidden" : 1,
					"numinlets" : 2,
					"fontsize" : 9.0,
					"numoutlets" : 1
				}

			}
, 			{
				"box" : 				{
					"maxclass" : "ubutton",
					"outlettype" : [ "bang", "bang", "", "int" ],
					"handoff" : "",
					"patching_rect" : [ 190.0, 253.0, 53.0, 27.0 ],
					"id" : "obj-43",
					"numinlets" : 1,
					"numoutlets" : 4,
					"hilite" : 0
				}

			}
, 			{
				"box" : 				{
					"maxclass" : "comment",
					"text" : "Vacuum cleaner",
					"linecount" : 2,
					"patching_rect" : [ 500.0, 64.0, 76.0, 34.0 ],
					"id" : "obj-44",
					"fontname" : "Arial",
					"numinlets" : 1,
					"fontsize" : 12.0,
					"numoutlets" : 0
				}

			}
, 			{
				"box" : 				{
					"maxclass" : "comment",
					"text" : "Breaking",
					"patching_rect" : [ 243.0, 122.0, 70.0, 20.0 ],
					"id" : "obj-45",
					"fontname" : "Arial",
					"numinlets" : 1,
					"fontsize" : 12.0,
					"numoutlets" : 0
				}

			}
, 			{
				"box" : 				{
					"maxclass" : "comment",
					"text" : "Bouncing",
					"patching_rect" : [ 134.0, 122.0, 70.0, 20.0 ],
					"id" : "obj-46",
					"fontname" : "Arial",
					"numinlets" : 1,
					"fontsize" : 12.0,
					"numoutlets" : 0
				}

			}
, 			{
				"box" : 				{
					"maxclass" : "comment",
					"text" : "Splashing",
					"patching_rect" : [ 435.0, 122.0, 76.0, 20.0 ],
					"id" : "obj-47",
					"fontname" : "Arial",
					"numinlets" : 1,
					"fontsize" : 12.0,
					"numoutlets" : 0
				}

			}
, 			{
				"box" : 				{
					"maxclass" : "comment",
					"text" : "Bubblestream",
					"patching_rect" : [ 469.0, 184.0, 94.0, 20.0 ],
					"id" : "obj-48",
					"fontname" : "Arial",
					"numinlets" : 1,
					"fontsize" : 12.0,
					"numoutlets" : 0
				}

			}
, 			{
				"box" : 				{
					"maxclass" : "comment",
					"text" : "Rolling",
					"patching_rect" : [ 139.0, 211.0, 50.0, 20.0 ],
					"id" : "obj-49",
					"fontname" : "Arial",
					"numinlets" : 1,
					"fontsize" : 12.0,
					"numoutlets" : 0
				}

			}
, 			{
				"box" : 				{
					"maxclass" : "comment",
					"text" : "Continuous Crumpling",
					"linecount" : 2,
					"patching_rect" : [ 236.0, 170.0, 74.0, 34.0 ],
					"id" : "obj-50",
					"fontname" : "Arial",
					"numinlets" : 1,
					"fontsize" : 12.0,
					"numoutlets" : 0
				}

			}
, 			{
				"box" : 				{
					"maxclass" : "comment",
					"text" : "Crumpling",
					"patching_rect" : [ 132.0, 176.0, 70.0, 20.0 ],
					"id" : "obj-51",
					"fontname" : "Arial",
					"numinlets" : 1,
					"fontsize" : 12.0,
					"numoutlets" : 0
				}

			}
, 			{
				"box" : 				{
					"maxclass" : "comment",
					"text" : "Onebubble",
					"patching_rect" : [ 429.0, 258.0, 83.0, 20.0 ],
					"id" : "obj-52",
					"fontname" : "Arial",
					"numinlets" : 1,
					"fontsize" : 12.0,
					"numoutlets" : 0
				}

			}
, 			{
				"box" : 				{
					"maxclass" : "comment",
					"text" : "Friction",
					"patching_rect" : [ 331.0, 258.0, 56.0, 20.0 ],
					"id" : "obj-53",
					"fontname" : "Arial",
					"numinlets" : 1,
					"fontsize" : 12.0,
					"numoutlets" : 0
				}

			}
, 			{
				"box" : 				{
					"maxclass" : "comment",
					"text" : "Impact",
					"patching_rect" : [ 192.0, 257.0, 56.0, 20.0 ],
					"id" : "obj-54",
					"fontname" : "Arial",
					"numinlets" : 1,
					"fontsize" : 12.0,
					"numoutlets" : 0
				}

			}
, 			{
				"box" : 				{
					"maxclass" : "comment",
					"text" : "Simulation examples",
					"linecount" : 2,
					"patching_rect" : [ 12.0, 62.0, 100.0, 39.0 ],
					"id" : "obj-55",
					"fontname" : "Arial",
					"numinlets" : 1,
					"fontsize" : 14.0,
					"numoutlets" : 0
				}

			}
, 			{
				"box" : 				{
					"maxclass" : "comment",
					"text" : "Derived processes",
					"linecount" : 2,
					"patching_rect" : [ 12.0, 113.0, 100.0, 39.0 ],
					"id" : "obj-56",
					"fontname" : "Arial",
					"numinlets" : 1,
					"fontsize" : 14.0,
					"numoutlets" : 0
				}

			}
, 			{
				"box" : 				{
					"maxclass" : "comment",
					"text" : "Basic events and textures",
					"linecount" : 2,
					"patching_rect" : [ 12.0, 177.0, 100.0, 39.0 ],
					"id" : "obj-57",
					"fontname" : "Arial",
					"numinlets" : 1,
					"fontsize" : 14.0,
					"numoutlets" : 0
				}

			}
, 			{
				"box" : 				{
					"maxclass" : "comment",
					"text" : "Low-level models",
					"linecount" : 2,
					"patching_rect" : [ 12.0, 246.0, 100.0, 39.0 ],
					"id" : "obj-58",
					"fontname" : "Arial",
					"numinlets" : 1,
					"fontsize" : 14.0,
					"numoutlets" : 0
				}

			}
, 			{
				"box" : 				{
					"maxclass" : "panel",
					"bgcolor" : [ 0.815686, 0.94902, 1.0, 1.0 ],
					"patching_rect" : [ 424.0, 252.0, 76.0, 29.0 ],
					"shadow" : 1,
					"id" : "obj-59",
					"rounded" : 4,
					"numinlets" : 1,
					"numoutlets" : 0
				}

			}
, 			{
				"box" : 				{
					"maxclass" : "panel",
					"bgcolor" : [ 0.976471, 0.992157, 0.501961, 1.0 ],
					"patching_rect" : [ 324.0, 252.0, 65.0, 29.0 ],
					"shadow" : 1,
					"id" : "obj-60",
					"rounded" : 4,
					"numinlets" : 1,
					"numoutlets" : 0
				}

			}
, 			{
				"box" : 				{
					"maxclass" : "panel",
					"bgcolor" : [ 0.952941, 0.72549, 0.662745, 1.0 ],
					"patching_rect" : [ 189.0, 252.0, 54.0, 29.0 ],
					"shadow" : 1,
					"id" : "obj-61",
					"rounded" : 4,
					"numinlets" : 1,
					"numoutlets" : 0
				}

			}
, 			{
				"box" : 				{
					"maxclass" : "panel",
					"bgcolor" : [ 0.929412, 0.52549, 0.494118, 1.0 ],
					"patching_rect" : [ 128.0, 206.0, 66.0, 27.0 ],
					"shadow" : 1,
					"id" : "obj-62",
					"rounded" : 4,
					"numinlets" : 1,
					"numoutlets" : 0
				}

			}
, 			{
				"box" : 				{
					"maxclass" : "panel",
					"bgcolor" : [ 0.929412, 0.52549, 0.494118, 1.0 ],
					"patching_rect" : [ 231.0, 168.0, 83.0, 39.0 ],
					"shadow" : 1,
					"id" : "obj-63",
					"rounded" : 4,
					"numinlets" : 1,
					"numoutlets" : 0
				}

			}
, 			{
				"box" : 				{
					"maxclass" : "panel",
					"bgcolor" : [ 0.929412, 0.52549, 0.494118, 1.0 ],
					"patching_rect" : [ 128.0, 169.0, 76.0, 31.0 ],
					"shadow" : 1,
					"id" : "obj-64",
					"rounded" : 4,
					"numinlets" : 1,
					"numoutlets" : 0
				}

			}
, 			{
				"box" : 				{
					"maxclass" : "panel",
					"bgcolor" : [ 0.894118, 0.278431, 0.278431, 1.0 ],
					"patching_rect" : [ 129.0, 117.0, 69.0, 29.0 ],
					"shadow" : 1,
					"id" : "obj-65",
					"rounded" : 4,
					"numinlets" : 1,
					"numoutlets" : 0
				}

			}
, 			{
				"box" : 				{
					"maxclass" : "panel",
					"bgcolor" : [ 0.019608, 0.780392, 0.952941, 1.0 ],
					"patching_rect" : [ 431.0, 117.0, 69.0, 29.0 ],
					"shadow" : 1,
					"id" : "obj-66",
					"rounded" : 4,
					"numinlets" : 1,
					"numoutlets" : 0
				}

			}
, 			{
				"box" : 				{
					"maxclass" : "panel",
					"bgcolor" : [ 0.894118, 0.278431, 0.278431, 1.0 ],
					"patching_rect" : [ 237.0, 117.0, 69.0, 29.0 ],
					"shadow" : 1,
					"id" : "obj-67",
					"rounded" : 4,
					"numinlets" : 1,
					"numoutlets" : 0
				}

			}
, 			{
				"box" : 				{
					"maxclass" : "panel",
					"bgcolor" : [ 0.694118, 0.45098, 0.843137, 1.0 ],
					"patching_rect" : [ 492.0, 62.0, 73.0, 39.0 ],
					"shadow" : 1,
					"id" : "obj-68",
					"rounded" : 4,
					"numinlets" : 1,
					"numoutlets" : 0
				}

			}
, 			{
				"box" : 				{
					"maxclass" : "panel",
					"bgcolor" : [ 0.427451, 0.886275, 0.992157, 1.0 ],
					"patching_rect" : [ 466.0, 179.0, 93.0, 29.0 ],
					"shadow" : 1,
					"id" : "obj-69",
					"rounded" : 4,
					"numinlets" : 1,
					"numoutlets" : 0
				}

			}
, 			{
				"box" : 				{
					"maxclass" : "panel",
					"bgcolor" : [ 0.909804, 0.960784, 0.854902, 1.0 ],
					"patching_rect" : [ 4.0, 245.0, 110.0, 40.0 ],
					"shadow" : 1,
					"id" : "obj-70",
					"rounded" : 0,
					"numinlets" : 1,
					"numoutlets" : 0
				}

			}
, 			{
				"box" : 				{
					"maxclass" : "panel",
					"bgcolor" : [ 0.909804, 0.960784, 0.854902, 1.0 ],
					"patching_rect" : [ 1.0, 242.0, 583.0, 47.0 ],
					"id" : "obj-71",
					"rounded" : 0,
					"numinlets" : 1,
					"numoutlets" : 0
				}

			}
, 			{
				"box" : 				{
					"maxclass" : "panel",
					"bgcolor" : [ 0.745098, 0.901961, 0.65098, 1.0 ],
					"patching_rect" : [ 4.0, 163.0, 110.0, 70.0 ],
					"shadow" : 1,
					"id" : "obj-72",
					"rounded" : 0,
					"numinlets" : 1,
					"numoutlets" : 0
				}

			}
, 			{
				"box" : 				{
					"maxclass" : "panel",
					"bgcolor" : [ 0.745098, 0.901961, 0.65098, 1.0 ],
					"patching_rect" : [ 1.0, 160.0, 583.0, 77.0 ],
					"id" : "obj-73",
					"rounded" : 0,
					"numinlets" : 1,
					"numoutlets" : 0
				}

			}
, 			{
				"box" : 				{
					"maxclass" : "panel",
					"bgcolor" : [ 0.631373, 0.843137, 0.45098, 1.0 ],
					"patching_rect" : [ 4.0, 112.0, 110.0, 40.0 ],
					"shadow" : 1,
					"id" : "obj-74",
					"rounded" : 0,
					"numinlets" : 1,
					"numoutlets" : 0
				}

			}
, 			{
				"box" : 				{
					"maxclass" : "panel",
					"bgcolor" : [ 0.631373, 0.843137, 0.45098, 1.0 ],
					"patching_rect" : [ 1.0, 109.0, 583.0, 47.0 ],
					"id" : "obj-75",
					"rounded" : 0,
					"numinlets" : 1,
					"numoutlets" : 0
				}

			}
, 			{
				"box" : 				{
					"maxclass" : "panel",
					"bgcolor" : [ 0.407843, 0.705882, 0.203922, 1.0 ],
					"patching_rect" : [ 4.0, 62.0, 110.0, 40.0 ],
					"shadow" : 1,
					"id" : "obj-76",
					"rounded" : 0,
					"numinlets" : 1,
					"numoutlets" : 0
				}

			}
, 			{
				"box" : 				{
					"maxclass" : "panel",
					"bgcolor" : [ 0.407843, 0.705882, 0.203922, 1.0 ],
					"patching_rect" : [ 1.0, 58.0, 583.0, 47.0 ],
					"id" : "obj-77",
					"rounded" : 0,
					"numinlets" : 1,
					"numoutlets" : 0
				}

			}
, 			{
				"box" : 				{
					"maxclass" : "panel",
					"bordercolor" : [ 1.0, 1.0, 1.0, 1.0 ],
					"bgcolor" : [ 0.4, 0.4, 0.8, 1.0 ],
					"patching_rect" : [ 4.0, 9.0, 278.0, 40.0 ],
					"shadow" : 1,
					"id" : "obj-78",
					"rounded" : 4,
					"numinlets" : 1,
					"numoutlets" : 0
				}

			}
, 			{
				"box" : 				{
					"maxclass" : "panel",
					"bordercolor" : [ 1.0, 1.0, 1.0, 1.0 ],
					"bgcolor" : [ 0.4, 0.4, 0.8, 1.0 ],
					"patching_rect" : [ 1.0, 1.0, 583.0, 55.0 ],
					"id" : "obj-79",
					"rounded" : 1,
					"numinlets" : 1,
					"numoutlets" : 0
				}

			}
 ],
		"lines" : [ 			{
				"patchline" : 				{
					"source" : [ "obj-13", 0 ],
					"destination" : [ "obj-11", 0 ],
					"hidden" : 1,
					"midpoints" : [  ]
				}

			}
, 			{
				"patchline" : 				{
					"source" : [ "obj-13", 1 ],
					"destination" : [ "obj-12", 0 ],
					"hidden" : 1,
					"midpoints" : [  ]
				}

			}
, 			{
				"patchline" : 				{
					"source" : [ "obj-11", 0 ],
					"destination" : [ "obj-68", 0 ],
					"hidden" : 1,
					"midpoints" : [  ]
				}

			}
, 			{
				"patchline" : 				{
					"source" : [ "obj-12", 0 ],
					"destination" : [ "obj-68", 0 ],
					"hidden" : 1,
					"midpoints" : [  ]
				}

			}
, 			{
				"patchline" : 				{
					"source" : [ "obj-25", 0 ],
					"destination" : [ "obj-23", 0 ],
					"hidden" : 1,
					"midpoints" : [  ]
				}

			}
, 			{
				"patchline" : 				{
					"source" : [ "obj-25", 1 ],
					"destination" : [ "obj-24", 0 ],
					"hidden" : 1,
					"midpoints" : [  ]
				}

			}
, 			{
				"patchline" : 				{
					"source" : [ "obj-23", 0 ],
					"destination" : [ "obj-69", 0 ],
					"hidden" : 1,
					"midpoints" : [  ]
				}

			}
, 			{
				"patchline" : 				{
					"source" : [ "obj-24", 0 ],
					"destination" : [ "obj-69", 0 ],
					"hidden" : 1,
					"midpoints" : [  ]
				}

			}
, 			{
				"patchline" : 				{
					"source" : [ "obj-22", 0 ],
					"destination" : [ "obj-20", 0 ],
					"hidden" : 1,
					"midpoints" : [  ]
				}

			}
, 			{
				"patchline" : 				{
					"source" : [ "obj-37", 0 ],
					"destination" : [ "obj-35", 0 ],
					"hidden" : 1,
					"midpoints" : [  ]
				}

			}
, 			{
				"patchline" : 				{
					"source" : [ "obj-20", 0 ],
					"destination" : [ "obj-66", 0 ],
					"hidden" : 1,
					"midpoints" : [  ]
				}

			}
, 			{
				"patchline" : 				{
					"source" : [ "obj-21", 0 ],
					"destination" : [ "obj-66", 0 ],
					"hidden" : 1,
					"midpoints" : [  ]
				}

			}
, 			{
				"patchline" : 				{
					"source" : [ "obj-22", 1 ],
					"destination" : [ "obj-21", 0 ],
					"hidden" : 1,
					"midpoints" : [  ]
				}

			}
, 			{
				"patchline" : 				{
					"source" : [ "obj-28", 0 ],
					"destination" : [ "obj-9", 10 ],
					"hidden" : 1,
					"midpoints" : [ 240.5, 307.0, 431.5, 307.0 ]
				}

			}
, 			{
				"patchline" : 				{
					"source" : [ "obj-37", 1 ],
					"destination" : [ "obj-36", 0 ],
					"hidden" : 1,
					"midpoints" : [  ]
				}

			}
, 			{
				"patchline" : 				{
					"source" : [ "obj-36", 0 ],
					"destination" : [ "obj-59", 0 ],
					"hidden" : 1,
					"midpoints" : [  ]
				}

			}
, 			{
				"patchline" : 				{
					"source" : [ "obj-35", 0 ],
					"destination" : [ "obj-59", 0 ],
					"hidden" : 1,
					"midpoints" : [  ]
				}

			}
, 			{
				"patchline" : 				{
					"source" : [ "obj-13", 0 ],
					"destination" : [ "obj-9", 9 ],
					"hidden" : 1,
					"midpoints" : [ 500.5, 307.0, 415.100006, 307.0 ]
				}

			}
, 			{
				"patchline" : 				{
					"source" : [ "obj-31", 0 ],
					"destination" : [ "obj-9", 8 ],
					"hidden" : 1,
					"midpoints" : [ 137.5, 307.0, 398.700012, 307.0 ]
				}

			}
, 			{
				"patchline" : 				{
					"source" : [ "obj-19", 0 ],
					"destination" : [ "obj-9", 7 ],
					"hidden" : 1,
					"midpoints" : [ 246.5, 307.0, 382.299988, 307.0 ]
				}

			}
, 			{
				"patchline" : 				{
					"source" : [ "obj-34", 0 ],
					"destination" : [ "obj-9", 6 ],
					"hidden" : 1,
					"midpoints" : [ 137.5, 307.0, 365.899994, 307.0 ]
				}

			}
, 			{
				"patchline" : 				{
					"source" : [ "obj-16", 0 ],
					"destination" : [ "obj-9", 5 ],
					"hidden" : 1,
					"midpoints" : [ 137.5, 307.0, 349.5, 307.0 ]
				}

			}
, 			{
				"patchline" : 				{
					"source" : [ "obj-40", 0 ],
					"destination" : [ "obj-38", 0 ],
					"hidden" : 1,
					"midpoints" : [  ]
				}

			}
, 			{
				"patchline" : 				{
					"source" : [ "obj-37", 0 ],
					"destination" : [ "obj-9", 4 ],
					"hidden" : 1,
					"midpoints" : [ 434.5, 307.0, 333.100006, 307.0 ]
				}

			}
, 			{
				"patchline" : 				{
					"source" : [ "obj-40", 1 ],
					"destination" : [ "obj-39", 0 ],
					"hidden" : 1,
					"midpoints" : [  ]
				}

			}
, 			{
				"patchline" : 				{
					"source" : [ "obj-39", 0 ],
					"destination" : [ "obj-60", 0 ],
					"hidden" : 1,
					"midpoints" : [  ]
				}

			}
, 			{
				"patchline" : 				{
					"source" : [ "obj-38", 0 ],
					"destination" : [ "obj-60", 0 ],
					"hidden" : 1,
					"midpoints" : [  ]
				}

			}
, 			{
				"patchline" : 				{
					"source" : [ "obj-22", 0 ],
					"destination" : [ "obj-9", 3 ],
					"hidden" : 1,
					"midpoints" : [ 439.5, 307.0, 316.700012, 307.0 ]
				}

			}
, 			{
				"patchline" : 				{
					"source" : [ "obj-40", 0 ],
					"destination" : [ "obj-9", 2 ],
					"hidden" : 1,
					"midpoints" : [ 334.5, 307.0, 300.299988, 307.0 ]
				}

			}
, 			{
				"patchline" : 				{
					"source" : [ "obj-28", 0 ],
					"destination" : [ "obj-26", 0 ],
					"hidden" : 1,
					"midpoints" : [  ]
				}

			}
, 			{
				"patchline" : 				{
					"source" : [ "obj-25", 0 ],
					"destination" : [ "obj-9", 1 ],
					"hidden" : 1,
					"midpoints" : [ 474.5, 307.0, 283.899994, 307.0 ]
				}

			}
, 			{
				"patchline" : 				{
					"source" : [ "obj-28", 1 ],
					"destination" : [ "obj-27", 0 ],
					"hidden" : 1,
					"midpoints" : [  ]
				}

			}
, 			{
				"patchline" : 				{
					"source" : [ "obj-43", 0 ],
					"destination" : [ "obj-9", 0 ],
					"hidden" : 1,
					"midpoints" : [ 199.5, 307.0, 267.5, 307.0 ]
				}

			}
, 			{
				"patchline" : 				{
					"source" : [ "obj-9", 0 ],
					"destination" : [ "obj-10", 0 ],
					"hidden" : 1,
					"midpoints" : [  ]
				}

			}
, 			{
				"patchline" : 				{
					"source" : [ "obj-1", 0 ],
					"destination" : [ "obj-3", 0 ],
					"hidden" : 1,
					"midpoints" : [  ]
				}

			}
, 			{
				"patchline" : 				{
					"source" : [ "obj-19", 0 ],
					"destination" : [ "obj-17", 0 ],
					"hidden" : 1,
					"midpoints" : [  ]
				}

			}
, 			{
				"patchline" : 				{
					"source" : [ "obj-19", 1 ],
					"destination" : [ "obj-18", 0 ],
					"hidden" : 1,
					"midpoints" : [  ]
				}

			}
, 			{
				"patchline" : 				{
					"source" : [ "obj-17", 0 ],
					"destination" : [ "obj-67", 0 ],
					"hidden" : 1,
					"midpoints" : [  ]
				}

			}
, 			{
				"patchline" : 				{
					"source" : [ "obj-18", 0 ],
					"destination" : [ "obj-67", 0 ],
					"hidden" : 1,
					"midpoints" : [  ]
				}

			}
, 			{
				"patchline" : 				{
					"source" : [ "obj-26", 0 ],
					"destination" : [ "obj-63", 0 ],
					"hidden" : 1,
					"midpoints" : [  ]
				}

			}
, 			{
				"patchline" : 				{
					"source" : [ "obj-27", 0 ],
					"destination" : [ "obj-63", 0 ],
					"hidden" : 1,
					"midpoints" : [  ]
				}

			}
, 			{
				"patchline" : 				{
					"source" : [ "obj-43", 1 ],
					"destination" : [ "obj-42", 0 ],
					"hidden" : 1,
					"midpoints" : [  ]
				}

			}
, 			{
				"patchline" : 				{
					"source" : [ "obj-43", 0 ],
					"destination" : [ "obj-41", 0 ],
					"hidden" : 1,
					"midpoints" : [  ]
				}

			}
, 			{
				"patchline" : 				{
					"source" : [ "obj-42", 0 ],
					"destination" : [ "obj-61", 0 ],
					"hidden" : 1,
					"midpoints" : [  ]
				}

			}
, 			{
				"patchline" : 				{
					"source" : [ "obj-41", 0 ],
					"destination" : [ "obj-61", 0 ],
					"hidden" : 1,
					"midpoints" : [  ]
				}

			}
, 			{
				"patchline" : 				{
					"source" : [ "obj-34", 0 ],
					"destination" : [ "obj-32", 0 ],
					"hidden" : 1,
					"midpoints" : [  ]
				}

			}
, 			{
				"patchline" : 				{
					"source" : [ "obj-16", 0 ],
					"destination" : [ "obj-14", 0 ],
					"hidden" : 1,
					"midpoints" : [  ]
				}

			}
, 			{
				"patchline" : 				{
					"source" : [ "obj-31", 0 ],
					"destination" : [ "obj-29", 0 ],
					"hidden" : 1,
					"midpoints" : [  ]
				}

			}
, 			{
				"patchline" : 				{
					"source" : [ "obj-34", 1 ],
					"destination" : [ "obj-33", 0 ],
					"hidden" : 1,
					"midpoints" : [  ]
				}

			}
, 			{
				"patchline" : 				{
					"source" : [ "obj-14", 0 ],
					"destination" : [ "obj-65", 0 ],
					"hidden" : 1,
					"midpoints" : [  ]
				}

			}
, 			{
				"patchline" : 				{
					"source" : [ "obj-15", 0 ],
					"destination" : [ "obj-65", 0 ],
					"hidden" : 1,
					"midpoints" : [  ]
				}

			}
, 			{
				"patchline" : 				{
					"source" : [ "obj-32", 0 ],
					"destination" : [ "obj-62", 0 ],
					"hidden" : 1,
					"midpoints" : [  ]
				}

			}
, 			{
				"patchline" : 				{
					"source" : [ "obj-33", 0 ],
					"destination" : [ "obj-62", 0 ],
					"hidden" : 1,
					"midpoints" : [  ]
				}

			}
, 			{
				"patchline" : 				{
					"source" : [ "obj-29", 0 ],
					"destination" : [ "obj-64", 0 ],
					"hidden" : 1,
					"midpoints" : [  ]
				}

			}
, 			{
				"patchline" : 				{
					"source" : [ "obj-30", 0 ],
					"destination" : [ "obj-64", 0 ],
					"hidden" : 1,
					"midpoints" : [  ]
				}

			}
, 			{
				"patchline" : 				{
					"source" : [ "obj-16", 1 ],
					"destination" : [ "obj-15", 0 ],
					"hidden" : 1,
					"midpoints" : [  ]
				}

			}
, 			{
				"patchline" : 				{
					"source" : [ "obj-31", 1 ],
					"destination" : [ "obj-30", 0 ],
					"hidden" : 1,
					"midpoints" : [  ]
				}

			}
, 			{
				"patchline" : 				{
					"source" : [ "obj-3", 0 ],
					"destination" : [ "obj-4", 0 ],
					"hidden" : 1,
					"midpoints" : [  ]
				}

			}
, 			{
				"patchline" : 				{
					"source" : [ "obj-2", 0 ],
					"destination" : [ "obj-4", 0 ],
					"hidden" : 1,
					"midpoints" : [  ]
				}

			}
, 			{
				"patchline" : 				{
					"source" : [ "obj-81", 0 ],
					"destination" : [ "obj-84", 0 ],
					"hidden" : 1,
					"midpoints" : [  ]
				}

			}
, 			{
				"patchline" : 				{
					"source" : [ "obj-84", 0 ],
					"destination" : [ "obj-83", 0 ],
					"hidden" : 1,
					"midpoints" : [  ]
				}

			}
, 			{
				"patchline" : 				{
					"source" : [ "obj-83", 0 ],
					"destination" : [ "obj-82", 0 ],
					"hidden" : 1,
					"midpoints" : [  ]
				}

			}
 ]
	}

}
