#N canvas 496 193 474 506 10;
#X obj 28 282 abs-bubble;
#X obj 49 303 abs-bubble;
#X obj 72 324 abs-bubble;
#X obj 93 345 abs-bubble;
#X obj 30 426 dac~;
#X obj 79 187 random 200;
#X obj 28 258 route 0 1 2 3;
#X obj 28 233 pack f f;
#X obj 79 209 + 20;
#X obj 49 55 f;
#X obj 78 54 + 1;
#X obj 49 13 tgl 15 0 empty empty empty 0 -6 0 8 -262144 -1 -1 1 1
;
#X obj 49 77 mod 4;
#X obj 28 208 spigot;
#X obj 71 126 random 6;
#X obj 71 147 == 0;
#X obj 49 33 metro 20;
#X obj 29 398 *~ 0.5;
#X obj 49 102 t f b b;
#X connect 0 0 17 0;
#X connect 1 0 17 0;
#X connect 2 0 17 0;
#X connect 3 0 17 0;
#X connect 5 0 8 0;
#X connect 6 0 0 0;
#X connect 6 1 1 0;
#X connect 6 2 2 0;
#X connect 6 3 3 0;
#X connect 7 0 6 0;
#X connect 8 0 7 1;
#X connect 9 0 10 0;
#X connect 9 0 12 0;
#X connect 10 0 9 1;
#X connect 11 0 16 0;
#X connect 12 0 18 0;
#X connect 13 0 7 0;
#X connect 14 0 15 0;
#X connect 15 0 13 1;
#X connect 16 0 9 0;
#X connect 17 0 4 0;
#X connect 17 0 4 1;
#X connect 18 0 13 0;
#X connect 18 1 14 0;
#X connect 18 2 5 0;
