#N canvas 29 279 723 509 10;
#X obj 60 151 env-4pow-up;
#X obj 60 237 osc~;
#X obj 61 291 dac~;
#X obj 111 189 sig~ 1;
#X obj 111 213 -~;
#X obj 61 263 *~;
#X obj 60 189 *~ 230;
#X obj 111 236 lop~ 40;
#X obj 60 25 bng 15 250 50 0 empty empty empty 0 -6 0 8 -262144 -1
-1;
#X obj 60 68 + 20;
#X obj 61 212 +~ 120;
#X obj 60 47 random 120;
#X obj 97 105 * 6;
#X connect 0 0 4 1;
#X connect 0 0 6 0;
#X connect 1 0 5 0;
#X connect 3 0 4 0;
#X connect 4 0 7 0;
#X connect 5 0 2 1;
#X connect 5 0 2 0;
#X connect 6 0 10 0;
#X connect 7 0 5 1;
#X connect 8 0 11 0;
#X connect 9 0 0 0;
#X connect 9 0 12 0;
#X connect 10 0 1 0;
#X connect 11 0 9 0;
#X connect 12 0 6 1;
