#N canvas 29 279 723 509 10;
#X obj 210 157 vline~;
#X obj 209 183 *~;
#X obj 209 208 *~;
#X obj 161 245 -~;
#X obj 161 269 outlet~;
#X msg 210 130 1 0 0 \, 0 \$1 0;
#X msg 161 212 1;
#X obj 180 103 t b f;
#X obj 180 74 inlet;
#X connect 0 0 1 0;
#X connect 0 0 1 1;
#X connect 1 0 2 0;
#X connect 1 0 2 1;
#X connect 2 0 3 1;
#X connect 3 0 4 0;
#X connect 5 0 0 0;
#X connect 6 0 3 0;
#X connect 7 0 6 0;
#X connect 7 1 5 0;
#X connect 8 0 7 0;
