#N canvas 152 306 149 135 10;
#X obj -3 -2 inlet;
#X obj 57 45 + 1;
#X msg -3 45 bang;
#X obj 57 21 moses 10;
#X msg 108 46 0;
#X obj 101 94 outlet;
#X obj 57 -2 float;
#X obj 57 72 t f b f;
#X obj 79 115 del \$1;
#X connect 0 0 2 0;
#X connect 1 0 7 0;
#X connect 2 0 6 0;
#X connect 3 0 1 0;
#X connect 3 1 4 0;
#X connect 4 0 6 1;
#X connect 6 0 3 0;
#X connect 7 0 6 1;
#X connect 7 1 8 0;
#X connect 7 2 5 0;
#X connect 8 0 2 0;
