#N canvas 0 0 135 92 10;
#X obj 69 27 * 10000;
#X obj 36 0 inlet;
#X obj 0 74 outlet ms;
#X obj 69 51 outlet Hz;
#X obj 0 51 /;
#X obj 0 26 swap 1;
#X connect 0 0 3 0;
#X connect 1 0 0 0;
#X connect 1 0 5 0;
#X connect 4 0 2 0;
#X connect 5 0 4 0;
#X connect 5 1 4 1;
