#N canvas 0 0 450 300 10;
#X obj 17 202 delwrite~ \$0-clockbodyl 100;
#X obj 16 97 delread~ \$0-clockbodyl 50;
#X obj 16 118 bp~ 1200 3;
#X obj 221 192 bp~ 1200 3;
#X obj 220 116 delread~ \$0-clockbodyw 50;
#X obj 223 247 delwrite~ \$0-clockbodyw 100;
#X obj 220 62 + 0.02;
#X obj 157 15 inlet;
#X obj 107 132 inlet~;
#X obj 69 248 outlet~;
#X obj 17 143 *~ 0.3;
#X obj 222 217 *~ 0.3;
#X obj 16 64 bodyscale;
#X obj 220 85 bodyscale;
#X connect 1 0 2 0;
#X connect 2 0 9 0;
#X connect 2 0 10 0;
#X connect 3 0 9 0;
#X connect 3 0 11 0;
#X connect 4 0 3 0;
#X connect 6 0 13 0;
#X connect 7 0 6 0;
#X connect 7 0 12 0;
#X connect 8 0 0 0;
#X connect 8 0 5 0;
#X connect 10 0 0 0;
#X connect 10 0 3 0;
#X connect 11 0 5 0;
#X connect 12 0 1 0;
#X connect 12 1 2 1;
#X connect 13 0 4 0;
#X connect 13 1 3 1;
