#N canvas 0 0 300 121 10;
#X obj 205 51 inlet~ noise;
#X obj 0 102 outlet~;
#X obj 0 22 bangburst 3;
#X obj 0 44 sel 1 2 3 4 5 6 7 8;
#X obj 0 1 inlet trigger;
#X obj 0 80 mclick 6543 30 3245 20 1356 10;
#X connect 0 0 5 1;
#X connect 2 0 3 0;
#X connect 3 0 5 0;
#X connect 3 3 5 0;
#X connect 3 4 5 0;
#X connect 3 7 5 0;
#X connect 4 0 2 0;
#X connect 5 0 1 0;
