#N canvas 0 0 300 121 10;
#X obj 204 57 inlet~ noise;
#X obj -1 102 outlet~;
#X obj -1 22 bangburst 3;
#X obj -1 44 sel 1 2 3 4 5 6 7 8;
#X obj -1 1 inlet trigger;
#X obj -1 80 mclick 7543 30 3988 20 2765 10;
#X connect 0 0 5 1;
#X connect 2 0 3 0;
#X connect 3 0 5 0;
#X connect 3 1 5 0;
#X connect 3 3 5 0;
#X connect 3 5 5 0;
#X connect 3 7 5 0;
#X connect 4 0 2 0;
#X connect 5 0 1 0;
