#N canvas 170 172 325 417 10;
#X obj 102 276 *~;
#X obj 189 273 *~;
#X obj 189 66 ead~ 1 10;
#X obj 13 68 ead~ 1 30;
#X obj 14 274 *~;
#X obj 29 172 bp~ 6666 40;
#X obj 117 171 bp~ 7012 40;
#X obj 204 170 bp~ 1500 35;
#X obj 102 24 bng 15 250 50 0 empty empty empty 0 -6 0 8 -262144 -1
-1;
#X text 60 23 cog1;
#X obj 102 337 *~ 1;
#X obj 103 365 dac~;
#X obj 102 69 ead~ 1 20;
#X obj 118 116 noise~;
#X connect 0 0 10 0;
#X connect 1 0 10 0;
#X connect 2 0 1 0;
#X connect 3 0 4 0;
#X connect 4 0 10 0;
#X connect 5 0 4 1;
#X connect 6 0 0 1;
#X connect 7 0 1 1;
#X connect 8 0 2 0;
#X connect 8 0 3 0;
#X connect 8 0 12 0;
#X connect 10 0 11 0;
#X connect 10 0 11 1;
#X connect 12 0 0 0;
#X connect 13 0 5 0;
#X connect 13 0 6 0;
#X connect 13 0 7 0;
