#N canvas 119 450 296 301 10;
#X obj 69 76 select 0 1 2 3 4 5 6 7;
#X obj 69 11 metro 125;
#X obj 111 274 dac~;
#X obj 69 -9 tgl 15 0 empty empty empty 0 -6 0 8 -262144 -1 -1 0 1
;
#X obj 69 33 f;
#X obj 100 33 + 1;
#X obj 69 54 mod 8;
#X obj 111 247 *~ 1;
#X obj 214 178 loadbang;
#X obj 220 124 escapement;
#X obj 163 14 noise~;
#X obj 163 38 hip~ 200;
#X obj 69 125 clocktick;
#X obj 139 124 clocktick2;
#X msg 214 197 0.09;
#X obj -3 125 clockhand;
#X obj 111 192 *~ 0.3;
#X obj 69 148 *~ 0.1;
#X obj 139 147 *~ 0.1;
#X obj 220 147 *~ 0.06;
#X obj -3 148 *~ 0.3;
#X obj 121 219 bodyresonance~;
#X connect 0 0 9 0;
#X connect 0 0 12 0;
#X connect 0 0 15 0;
#X connect 0 1 9 0;
#X connect 0 2 9 0;
#X connect 0 2 13 0;
#X connect 0 3 9 0;
#X connect 0 4 9 0;
#X connect 0 4 12 0;
#X connect 0 5 9 0;
#X connect 0 6 9 0;
#X connect 0 6 13 0;
#X connect 0 7 9 0;
#X connect 1 0 4 0;
#X connect 3 0 1 0;
#X connect 4 0 5 0;
#X connect 4 0 6 0;
#X connect 5 0 4 1;
#X connect 6 0 0 0;
#X connect 7 0 2 0;
#X connect 7 0 2 1;
#X connect 8 0 14 0;
#X connect 9 0 19 0;
#X connect 10 0 11 0;
#X connect 11 0 12 1;
#X connect 11 0 13 1;
#X connect 11 0 15 1;
#X connect 12 0 17 0;
#X connect 13 0 18 0;
#X connect 14 0 21 1;
#X connect 15 0 20 0;
#X connect 16 0 7 0;
#X connect 16 0 21 0;
#X connect 17 0 16 0;
#X connect 18 0 16 0;
#X connect 19 0 16 0;
#X connect 20 0 16 0;
#X connect 21 0 7 0;
