#N canvas 0 0 234 325 10;
#N canvas 0 0 472 536 delaychain 0;
#X obj 357 113 del 1;
#X obj 357 157 del 2;
#X obj 357 202 del 3;
#X obj 357 246 del 4;
#X obj 357 284 del 5;
#X obj 357 326 del 6;
#X obj 357 370 del 7;
#X obj 187 229 +;
#X obj 164 254 +;
#X obj 210 204 +;
#X obj 302 104 +;
#X obj 279 129 +;
#X obj 256 154 +;
#X obj 233 179 +;
#X floatatom 399 114 5 0 0 0 - - -;
#X floatatom 327 30 5 0 0 0 - - -;
#X floatatom 397 159 5 0 0 0 - - -;
#X obj 314 50 + 0;
#X floatatom 400 204 5 0 0 0 - - -;
#X floatatom 399 247 5 0 0 0 - - -;
#X floatatom 400 284 5 0 0 0 - - -;
#X floatatom 400 329 5 0 0 0 - - -;
#X floatatom 403 374 5 0 0 0 - - -;
#X floatatom 402 417 5 0 0 0 - - -;
#X obj 357 416 del 8;
#X obj 314 9 inlet diff;
#X obj 222 8 inlet ctrl;
#X obj 4 470 outlet;
#X obj 54 470 outlet;
#X obj 104 470 outlet;
#X obj 154 470 outlet;
#X obj 204 469 outlet;
#X obj 254 469 outlet;
#X obj 304 469 outlet;
#X obj 354 469 outlet;
#X obj 325 79 + 0;
#X connect 0 0 1 0;
#X connect 0 0 27 0;
#X connect 1 0 2 0;
#X connect 1 0 28 0;
#X connect 2 0 3 0;
#X connect 2 0 29 0;
#X connect 3 0 4 0;
#X connect 3 0 30 0;
#X connect 4 0 5 0;
#X connect 4 0 31 0;
#X connect 5 0 6 0;
#X connect 5 0 32 0;
#X connect 6 0 24 0;
#X connect 6 0 33 0;
#X connect 7 0 8 1;
#X connect 7 0 6 1;
#X connect 7 0 22 0;
#X connect 8 0 24 0;
#X connect 8 0 23 0;
#X connect 9 0 7 1;
#X connect 9 0 5 1;
#X connect 9 0 21 0;
#X connect 10 0 11 1;
#X connect 10 0 16 0;
#X connect 10 0 1 1;
#X connect 11 0 12 1;
#X connect 11 0 2 1;
#X connect 11 0 18 0;
#X connect 12 0 13 1;
#X connect 12 0 3 1;
#X connect 12 0 19 0;
#X connect 13 0 9 1;
#X connect 13 0 4 1;
#X connect 13 0 20 0;
#X connect 17 0 10 0;
#X connect 17 0 11 0;
#X connect 17 0 12 0;
#X connect 17 0 13 0;
#X connect 17 0 9 0;
#X connect 17 0 7 0;
#X connect 17 0 8 0;
#X connect 17 0 35 0;
#X connect 24 0 34 0;
#X connect 25 0 17 0;
#X connect 25 0 15 0;
#X connect 26 0 0 0;
#X connect 35 0 10 1;
#X connect 35 0 14 0;
#X connect 35 0 0 1;
#X restore 60 101 pd delaychain;
#X msg 60 140 1;
#X msg 96 141 2;
#X msg 137 140 3;
#X obj 59 216 hip~ 100;
#X obj 59 240 dac~;
#X obj 146 75 init 2;
#X obj 60 72 bng 15 250 50 0 empty empty empty 0 -6 0 8 -262144 -1
-1;
#N canvas 0 0 1255 942 3cogs 0;
#X obj 100 328 *~;
#X obj 100 121 ead~ 1 10;
#X obj 187 325 *~;
#X obj 187 118 ead~ 1 10;
#X obj 320 325 *~;
#X obj 408 325 *~;
#X obj 508 327 *~;
#X obj 651 324 *~;
#X obj 751 326 *~;
#X obj 752 77 bng 15 250 50 0 empty empty empty 0 -6 0 8 -262144 -1
-1;
#X obj 351 143 noise~;
#X obj 351 164 hip~ 300;
#X obj 11 120 ead~ 1 30;
#X obj 12 326 *~;
#X obj 407 518 outlet~;
#X obj 27 224 bp~ 6666 40;
#X obj 115 223 bp~ 7012 40;
#X obj 202 222 bp~ 1500 35;
#X obj 335 222 bp~ 4535 45;
#X obj 422 223 bp~ 8325 40;
#X obj 524 223 bp~ 11023 46;
#X obj 668 223 bp~ 3567 40;
#X obj 100 389 *~ 0.33;
#X obj 855 327 *~;
#X obj 408 385 *~ 0.33;
#X obj 750 379 *~ 0.33;
#X obj 767 224 bp~ 4290 20;
#X obj 871 225 bp~ 6470 20;
#X obj 855 120 ead~ 1 8;
#X obj 651 117 ead~ 1 40;
#X obj 751 119 ead~ 1 22;
#X obj 408 75 bng 15 250 50 0 empty empty empty 0 -6 0 8 -262144 -1
-1;
#X obj 508 120 ead~ 1 11;
#X obj 408 118 ead~ 1 45;
#X obj 320 118 ead~ 1 70;
#X obj 100 76 bng 15 250 50 0 empty empty empty 0 -6 0 8 -262144 -1
-1;
#X text 58 75 cog1;
#X text 368 73 cog2;
#X text 705 78 cog3;
#X obj 422 11 inlet;
#X obj 422 37 sel 1 2 3;
#X obj 407 477 *~ 1;
#X connect 0 0 22 0;
#X connect 1 0 0 0;
#X connect 2 0 22 0;
#X connect 3 0 2 0;
#X connect 4 0 24 0;
#X connect 5 0 24 0;
#X connect 6 0 24 0;
#X connect 7 0 25 0;
#X connect 8 0 25 0;
#X connect 9 0 28 0;
#X connect 9 0 29 0;
#X connect 9 0 30 0;
#X connect 10 0 11 0;
#X connect 11 0 15 0;
#X connect 11 0 16 0;
#X connect 11 0 17 0;
#X connect 11 0 18 0;
#X connect 11 0 19 0;
#X connect 11 0 20 0;
#X connect 11 0 21 0;
#X connect 11 0 26 0;
#X connect 11 0 27 0;
#X connect 12 0 13 0;
#X connect 13 0 22 0;
#X connect 15 0 13 1;
#X connect 16 0 0 1;
#X connect 17 0 2 1;
#X connect 18 0 4 1;
#X connect 19 0 5 1;
#X connect 20 0 6 1;
#X connect 21 0 7 1;
#X connect 22 0 41 0;
#X connect 23 0 25 0;
#X connect 24 0 41 0;
#X connect 25 0 41 0;
#X connect 26 0 8 1;
#X connect 27 0 23 1;
#X connect 28 0 23 0;
#X connect 29 0 7 0;
#X connect 30 0 8 0;
#X connect 31 0 32 0;
#X connect 31 0 33 0;
#X connect 31 0 34 0;
#X connect 32 0 6 0;
#X connect 33 0 5 0;
#X connect 34 0 4 0;
#X connect 35 0 3 0;
#X connect 35 0 1 0;
#X connect 35 0 12 0;
#X connect 39 0 40 0;
#X connect 40 0 35 0;
#X connect 40 1 31 0;
#X connect 40 2 9 0;
#X connect 41 0 14 0;
#X restore 60 190 pd 3cogs;
#X text 85 36 A tock;
#X connect 0 0 1 0;
#X connect 0 3 2 0;
#X connect 0 4 3 0;
#X connect 1 0 8 0;
#X connect 2 0 8 0;
#X connect 3 0 8 0;
#X connect 4 0 5 0;
#X connect 6 0 0 1;
#X connect 7 0 0 0;
#X connect 8 0 4 0;
