#N canvas 0 0 186 186 10;
#X obj 4 123 *~;
#X obj 20 101 osc~ 10000;
#X obj 104 125 *~;
#X obj 46 161 outlet~;
#X obj 120 103 osc~ 8000;
#X obj 4 38 sel 1 2 3 4 5 6 7 8;
#X obj 4 -5 inlet trigger;
#X obj 4 16 bangburst 3;
#X obj 4 79 sqdec 10;
#X obj 104 80 sqdec 10;
#X connect 0 0 3 0;
#X connect 1 0 0 1;
#X connect 2 0 3 0;
#X connect 4 0 2 1;
#X connect 5 0 8 0;
#X connect 5 1 9 0;
#X connect 5 2 8 0;
#X connect 5 3 9 0;
#X connect 5 4 9 0;
#X connect 5 5 8 0;
#X connect 5 6 9 0;
#X connect 5 7 8 0;
#X connect 6 0 7 0;
#X connect 7 0 5 0;
#X connect 8 0 0 0;
#X connect 9 0 2 0;
