#N canvas 0 0 122 152 10;
#X obj 0 64 vline~;
#X obj -1 131 outlet~ signal;
#X obj 0 -1 inlet trigger;
#X obj 0 20 f \$1;
#X msg 0 41 1 1 0 \, 0 \$1 1;
#X obj -1 108 *~;
#X connect 0 0 5 0;
#X connect 0 0 5 1;
#X connect 2 0 3 0;
#X connect 3 0 4 0;
#X connect 4 0 0 0;
#X connect 5 0 1 0;
