#N canvas 21 4 246 219 10;
#X obj 80 146 *~;
#X obj 161 143 *~;
#X obj -2 145 *~;
#X obj 96 73 inlet~ noise;
#X obj 58 -1 inlet trigger;
#X obj 58 22 t b b b;
#X obj 80 200 outlet~;
#X obj 80 178 *~ 3;
#X obj 13 110 bp~ \$1 30;
#X obj 95 108 bp~ \$3 30;
#X obj 177 107 bp~ \$5 30;
#X obj -2 48 sqdec \$2;
#X obj 80 48 sqdec \$4;
#X obj 161 48 sqdec \$6;
#X connect 0 0 7 0;
#X connect 1 0 7 0;
#X connect 2 0 7 0;
#X connect 3 0 8 0;
#X connect 3 0 9 0;
#X connect 3 0 10 0;
#X connect 4 0 5 0;
#X connect 5 0 11 0;
#X connect 5 1 12 0;
#X connect 5 2 13 0;
#X connect 7 0 6 0;
#X connect 8 0 2 1;
#X connect 9 0 0 1;
#X connect 10 0 1 1;
#X connect 11 0 2 0;
#X connect 12 0 0 0;
#X connect 13 0 1 0;
