{
	"patcher" : 	{
		"fileversion" : 1,
		"rect" : [ 636.0, 52.0, 326.0, 238.0 ],
		"bglocked" : 0,
		"defrect" : [ 636.0, 52.0, 326.0, 238.0 ],
		"openrect" : [ 0.0, 0.0, 0.0, 0.0 ],
		"openinpresentation" : 0,
		"default_fontsize" : 12.0,
		"default_fontface" : 0,
		"default_fontname" : "Arial",
		"gridonopen" : 0,
		"gridsize" : [ 15.0, 15.0 ],
		"gridsnaponopen" : 0,
		"toolbarvisible" : 1,
		"boxanimatetime" : 200,
		"imprint" : 0,
		"enablehscroll" : 1,
		"enablevscroll" : 1,
		"devicewidth" : 0.0,
		"boxes" : [ 			{
				"box" : 				{
					"maxclass" : "newobj",
					"text" : "p display",
					"numinlets" : 5,
					"numoutlets" : 10,
					"id" : "obj-1",
					"fontname" : "Arial",
					"hidden" : 1,
					"outlettype" : [ "", "", "", "", "", "", "", "", "", "" ],
					"patching_rect" : [ 34.0, 211.0, 135.0, 17.0 ],
					"fontsize" : 9.0,
					"patcher" : 					{
						"fileversion" : 1,
						"rect" : [ 10.0, 59.0, 795.0, 244.0 ],
						"bglocked" : 0,
						"defrect" : [ 10.0, 59.0, 795.0, 244.0 ],
						"openrect" : [ 0.0, 0.0, 0.0, 0.0 ],
						"openinpresentation" : 0,
						"default_fontsize" : 12.0,
						"default_fontface" : 0,
						"default_fontname" : "Arial",
						"gridonopen" : 0,
						"gridsize" : [ 15.0, 15.0 ],
						"gridsnaponopen" : 0,
						"toolbarvisible" : 1,
						"boxanimatetime" : 200,
						"imprint" : 0,
						"enablehscroll" : 1,
						"enablevscroll" : 1,
						"devicewidth" : 0.0,
						"boxes" : [ 							{
								"box" : 								{
									"maxclass" : "outlet",
									"numinlets" : 1,
									"numoutlets" : 0,
									"id" : "obj-1",
									"patching_rect" : [ 212.0, 155.0, 15.0, 15.0 ],
									"comment" : ""
								}

							}
, 							{
								"box" : 								{
									"maxclass" : "outlet",
									"numinlets" : 1,
									"numoutlets" : 0,
									"id" : "obj-2",
									"patching_rect" : [ 168.0, 155.0, 15.0, 15.0 ],
									"comment" : ""
								}

							}
, 							{
								"box" : 								{
									"maxclass" : "outlet",
									"numinlets" : 1,
									"numoutlets" : 0,
									"id" : "obj-3",
									"patching_rect" : [ 123.0, 155.0, 15.0, 15.0 ],
									"comment" : ""
								}

							}
, 							{
								"box" : 								{
									"maxclass" : "outlet",
									"numinlets" : 1,
									"numoutlets" : 0,
									"id" : "obj-4",
									"patching_rect" : [ 77.0, 155.0, 15.0, 15.0 ],
									"comment" : ""
								}

							}
, 							{
								"box" : 								{
									"maxclass" : "outlet",
									"numinlets" : 1,
									"numoutlets" : 0,
									"id" : "obj-5",
									"patching_rect" : [ 32.0, 155.0, 15.0, 15.0 ],
									"comment" : ""
								}

							}
, 							{
								"box" : 								{
									"maxclass" : "outlet",
									"numinlets" : 1,
									"numoutlets" : 0,
									"id" : "obj-6",
									"patching_rect" : [ 652.0, 155.0, 15.0, 15.0 ],
									"comment" : "tail ampl"
								}

							}
, 							{
								"box" : 								{
									"maxclass" : "outlet",
									"numinlets" : 1,
									"numoutlets" : 0,
									"id" : "obj-7",
									"patching_rect" : [ 556.0, 155.0, 15.0, 15.0 ],
									"comment" : "bubble ampl"
								}

							}
, 							{
								"box" : 								{
									"maxclass" : "outlet",
									"numinlets" : 1,
									"numoutlets" : 0,
									"id" : "obj-8",
									"patching_rect" : [ 460.0, 155.0, 15.0, 15.0 ],
									"comment" : "head ampl"
								}

							}
, 							{
								"box" : 								{
									"maxclass" : "outlet",
									"numinlets" : 1,
									"numoutlets" : 0,
									"id" : "obj-9",
									"patching_rect" : [ 364.0, 155.0, 15.0, 15.0 ],
									"comment" : "blasting slope"
								}

							}
, 							{
								"box" : 								{
									"maxclass" : "outlet",
									"numinlets" : 1,
									"numoutlets" : 0,
									"id" : "obj-10",
									"patching_rect" : [ 268.0, 155.0, 15.0, 15.0 ],
									"comment" : "radius"
								}

							}
, 							{
								"box" : 								{
									"maxclass" : "inlet",
									"numinlets" : 0,
									"numoutlets" : 1,
									"id" : "obj-11",
									"outlettype" : [ "" ],
									"patching_rect" : [ 652.0, 78.0, 15.0, 15.0 ],
									"comment" : "tail ampl"
								}

							}
, 							{
								"box" : 								{
									"maxclass" : "inlet",
									"numinlets" : 0,
									"numoutlets" : 1,
									"id" : "obj-12",
									"outlettype" : [ "" ],
									"patching_rect" : [ 556.0, 78.0, 15.0, 15.0 ],
									"comment" : "bubble ampl"
								}

							}
, 							{
								"box" : 								{
									"maxclass" : "inlet",
									"numinlets" : 0,
									"numoutlets" : 1,
									"id" : "obj-13",
									"outlettype" : [ "" ],
									"patching_rect" : [ 460.0, 78.0, 15.0, 15.0 ],
									"comment" : "head ampl"
								}

							}
, 							{
								"box" : 								{
									"maxclass" : "inlet",
									"numinlets" : 0,
									"numoutlets" : 1,
									"id" : "obj-14",
									"outlettype" : [ "" ],
									"patching_rect" : [ 364.0, 78.0, 15.0, 15.0 ],
									"comment" : "blasting slope"
								}

							}
, 							{
								"box" : 								{
									"maxclass" : "inlet",
									"numinlets" : 0,
									"numoutlets" : 1,
									"id" : "obj-15",
									"outlettype" : [ "" ],
									"patching_rect" : [ 268.0, 78.0, 15.0, 15.0 ],
									"comment" : "radius"
								}

							}
, 							{
								"box" : 								{
									"maxclass" : "newobj",
									"text" : "prepend set",
									"linecount" : 2,
									"numinlets" : 1,
									"numoutlets" : 1,
									"id" : "obj-16",
									"fontname" : "Arial",
									"hidden" : 1,
									"outlettype" : [ "" ],
									"patching_rect" : [ 212.0, 108.0, 41.0, 27.0 ],
									"fontsize" : 9.0
								}

							}
, 							{
								"box" : 								{
									"maxclass" : "newobj",
									"text" : "prepend set",
									"linecount" : 2,
									"numinlets" : 1,
									"numoutlets" : 1,
									"id" : "obj-17",
									"fontname" : "Arial",
									"hidden" : 1,
									"outlettype" : [ "" ],
									"patching_rect" : [ 168.0, 108.0, 41.0, 27.0 ],
									"fontsize" : 9.0
								}

							}
, 							{
								"box" : 								{
									"maxclass" : "newobj",
									"text" : "prepend set",
									"linecount" : 2,
									"numinlets" : 1,
									"numoutlets" : 1,
									"id" : "obj-18",
									"fontname" : "Arial",
									"hidden" : 1,
									"outlettype" : [ "" ],
									"patching_rect" : [ 123.0, 108.0, 41.0, 27.0 ],
									"fontsize" : 9.0
								}

							}
, 							{
								"box" : 								{
									"maxclass" : "newobj",
									"text" : "prepend set",
									"linecount" : 2,
									"numinlets" : 1,
									"numoutlets" : 1,
									"id" : "obj-19",
									"fontname" : "Arial",
									"hidden" : 1,
									"outlettype" : [ "" ],
									"patching_rect" : [ 77.0, 108.0, 41.0, 27.0 ],
									"fontsize" : 9.0
								}

							}
, 							{
								"box" : 								{
									"maxclass" : "newobj",
									"text" : "prepend set",
									"linecount" : 2,
									"numinlets" : 1,
									"numoutlets" : 1,
									"id" : "obj-20",
									"fontname" : "Arial",
									"hidden" : 1,
									"outlettype" : [ "" ],
									"patching_rect" : [ 32.0, 108.0, 41.0, 27.0 ],
									"fontsize" : 9.0
								}

							}
, 							{
								"box" : 								{
									"maxclass" : "newobj",
									"text" : "scale 0. 100. 0. 2.",
									"numinlets" : 6,
									"numoutlets" : 1,
									"id" : "obj-21",
									"fontname" : "Arial",
									"hidden" : 1,
									"outlettype" : [ "" ],
									"patching_rect" : [ 556.0, 105.0, 93.0, 17.0 ],
									"fontsize" : 9.0
								}

							}
, 							{
								"box" : 								{
									"maxclass" : "newobj",
									"text" : "scale 0. 100. 0. 2.",
									"numinlets" : 6,
									"numoutlets" : 1,
									"id" : "obj-22",
									"fontname" : "Arial",
									"hidden" : 1,
									"outlettype" : [ "" ],
									"patching_rect" : [ 652.0, 105.0, 93.0, 17.0 ],
									"fontsize" : 9.0
								}

							}
, 							{
								"box" : 								{
									"maxclass" : "newobj",
									"text" : "scale 0. 100. 0. 2.",
									"numinlets" : 6,
									"numoutlets" : 1,
									"id" : "obj-23",
									"fontname" : "Arial",
									"hidden" : 1,
									"outlettype" : [ "" ],
									"patching_rect" : [ 460.0, 105.0, 93.0, 17.0 ],
									"fontsize" : 9.0
								}

							}
, 							{
								"box" : 								{
									"maxclass" : "newobj",
									"text" : "scale 0. 100. 0. 1.",
									"numinlets" : 6,
									"numoutlets" : 1,
									"id" : "obj-24",
									"fontname" : "Arial",
									"hidden" : 1,
									"outlettype" : [ "" ],
									"patching_rect" : [ 364.0, 105.0, 93.0, 17.0 ],
									"fontsize" : 9.0
								}

							}
, 							{
								"box" : 								{
									"maxclass" : "newobj",
									"text" : "scale 0. 100. 2. 8.",
									"numinlets" : 6,
									"numoutlets" : 1,
									"id" : "obj-25",
									"fontname" : "Arial",
									"hidden" : 1,
									"outlettype" : [ "" ],
									"patching_rect" : [ 268.0, 105.0, 93.0, 17.0 ],
									"fontsize" : 9.0
								}

							}
 ],
						"lines" : [ 							{
								"patchline" : 								{
									"source" : [ "obj-22", 0 ],
									"destination" : [ "obj-6", 0 ],
									"hidden" : 0,
									"midpoints" : [  ]
								}

							}
, 							{
								"patchline" : 								{
									"source" : [ "obj-11", 0 ],
									"destination" : [ "obj-22", 0 ],
									"hidden" : 0,
									"midpoints" : [  ]
								}

							}
, 							{
								"patchline" : 								{
									"source" : [ "obj-21", 0 ],
									"destination" : [ "obj-7", 0 ],
									"hidden" : 0,
									"midpoints" : [  ]
								}

							}
, 							{
								"patchline" : 								{
									"source" : [ "obj-12", 0 ],
									"destination" : [ "obj-21", 0 ],
									"hidden" : 0,
									"midpoints" : [  ]
								}

							}
, 							{
								"patchline" : 								{
									"source" : [ "obj-23", 0 ],
									"destination" : [ "obj-8", 0 ],
									"hidden" : 0,
									"midpoints" : [  ]
								}

							}
, 							{
								"patchline" : 								{
									"source" : [ "obj-13", 0 ],
									"destination" : [ "obj-23", 0 ],
									"hidden" : 0,
									"midpoints" : [  ]
								}

							}
, 							{
								"patchline" : 								{
									"source" : [ "obj-24", 0 ],
									"destination" : [ "obj-9", 0 ],
									"hidden" : 0,
									"midpoints" : [  ]
								}

							}
, 							{
								"patchline" : 								{
									"source" : [ "obj-14", 0 ],
									"destination" : [ "obj-24", 0 ],
									"hidden" : 0,
									"midpoints" : [  ]
								}

							}
, 							{
								"patchline" : 								{
									"source" : [ "obj-25", 0 ],
									"destination" : [ "obj-10", 0 ],
									"hidden" : 0,
									"midpoints" : [  ]
								}

							}
, 							{
								"patchline" : 								{
									"source" : [ "obj-15", 0 ],
									"destination" : [ "obj-25", 0 ],
									"hidden" : 0,
									"midpoints" : [  ]
								}

							}
, 							{
								"patchline" : 								{
									"source" : [ "obj-16", 0 ],
									"destination" : [ "obj-1", 0 ],
									"hidden" : 0,
									"midpoints" : [  ]
								}

							}
, 							{
								"patchline" : 								{
									"source" : [ "obj-11", 0 ],
									"destination" : [ "obj-16", 0 ],
									"hidden" : 0,
									"midpoints" : [ 661.0, 97.0, 221.5, 97.0 ]
								}

							}
, 							{
								"patchline" : 								{
									"source" : [ "obj-17", 0 ],
									"destination" : [ "obj-2", 0 ],
									"hidden" : 0,
									"midpoints" : [  ]
								}

							}
, 							{
								"patchline" : 								{
									"source" : [ "obj-12", 0 ],
									"destination" : [ "obj-17", 0 ],
									"hidden" : 0,
									"midpoints" : [ 565.0, 97.0, 177.5, 97.0 ]
								}

							}
, 							{
								"patchline" : 								{
									"source" : [ "obj-18", 0 ],
									"destination" : [ "obj-3", 0 ],
									"hidden" : 0,
									"midpoints" : [  ]
								}

							}
, 							{
								"patchline" : 								{
									"source" : [ "obj-13", 0 ],
									"destination" : [ "obj-18", 0 ],
									"hidden" : 0,
									"midpoints" : [ 469.0, 97.0, 132.5, 97.0 ]
								}

							}
, 							{
								"patchline" : 								{
									"source" : [ "obj-19", 0 ],
									"destination" : [ "obj-4", 0 ],
									"hidden" : 0,
									"midpoints" : [  ]
								}

							}
, 							{
								"patchline" : 								{
									"source" : [ "obj-14", 0 ],
									"destination" : [ "obj-19", 0 ],
									"hidden" : 0,
									"midpoints" : [ 373.0, 97.0, 86.5, 97.0 ]
								}

							}
, 							{
								"patchline" : 								{
									"source" : [ "obj-20", 0 ],
									"destination" : [ "obj-5", 0 ],
									"hidden" : 0,
									"midpoints" : [  ]
								}

							}
, 							{
								"patchline" : 								{
									"source" : [ "obj-15", 0 ],
									"destination" : [ "obj-20", 0 ],
									"hidden" : 0,
									"midpoints" : [ 277.0, 97.0, 41.5, 97.0 ]
								}

							}
 ]
					}
,
					"saved_object_attributes" : 					{
						"default_fontface" : 0,
						"default_fontname" : "Arial",
						"fontname" : "Arial",
						"default_fontsize" : 12.0,
						"globalpatchername" : "",
						"fontface" : 0,
						"fontsize" : 12.0
					}

				}

			}
, 			{
				"box" : 				{
					"maxclass" : "inlet",
					"numinlets" : 0,
					"numoutlets" : 1,
					"id" : "obj-2",
					"hidden" : 1,
					"outlettype" : [ "" ],
					"patching_rect" : [ 174.0, -30.0, 15.0, 15.0 ],
					"comment" : "head ampl"
				}

			}
, 			{
				"box" : 				{
					"maxclass" : "message",
					"text" : "94.308945",
					"numinlets" : 2,
					"numoutlets" : 1,
					"id" : "obj-3",
					"bgcolor" : [ 0.8, 0.611765, 0.380392, 1.0 ],
					"fontname" : "Arial",
					"outlettype" : [ "" ],
					"patching_rect" : [ 300.0, 183.0, 60.0, 15.0 ],
					"fontsize" : 9.0
				}

			}
, 			{
				"box" : 				{
					"maxclass" : "message",
					"text" : "74.796745",
					"numinlets" : 2,
					"numoutlets" : 1,
					"id" : "obj-4",
					"bgcolor" : [ 0.8, 0.611765, 0.380392, 1.0 ],
					"fontname" : "Arial",
					"outlettype" : [ "" ],
					"patching_rect" : [ 229.0, 183.0, 58.0, 15.0 ],
					"fontsize" : 9.0
				}

			}
, 			{
				"box" : 				{
					"maxclass" : "message",
					"text" : "78.861786",
					"numinlets" : 2,
					"numoutlets" : 1,
					"id" : "obj-5",
					"bgcolor" : [ 0.8, 0.611765, 0.380392, 1.0 ],
					"fontname" : "Arial",
					"outlettype" : [ "" ],
					"patching_rect" : [ 157.0, 183.0, 58.0, 15.0 ],
					"fontsize" : 9.0
				}

			}
, 			{
				"box" : 				{
					"maxclass" : "message",
					"text" : "69.918701",
					"numinlets" : 2,
					"numoutlets" : 1,
					"id" : "obj-6",
					"bgcolor" : [ 0.611765, 0.701961, 1.0, 1.0 ],
					"fontname" : "Arial",
					"outlettype" : [ "" ],
					"patching_rect" : [ 78.0, 183.0, 58.0, 15.0 ],
					"fontsize" : 9.0
				}

			}
, 			{
				"box" : 				{
					"maxclass" : "message",
					"text" : "84.552849",
					"numinlets" : 2,
					"numoutlets" : 1,
					"id" : "obj-7",
					"bgcolor" : [ 0.156863, 0.8, 0.54902, 1.0 ],
					"fontname" : "Arial",
					"outlettype" : [ "" ],
					"patching_rect" : [ 16.0, 183.0, 58.0, 15.0 ],
					"fontsize" : 9.0
				}

			}
, 			{
				"box" : 				{
					"maxclass" : "outlet",
					"numinlets" : 1,
					"numoutlets" : 0,
					"id" : "obj-8",
					"hidden" : 1,
					"patching_rect" : [ 151.0, 236.0, 13.0, 13.0 ],
					"comment" : "bubbles frequency"
				}

			}
, 			{
				"box" : 				{
					"maxclass" : "outlet",
					"numinlets" : 1,
					"numoutlets" : 0,
					"id" : "obj-9",
					"hidden" : 1,
					"patching_rect" : [ 138.0, 236.0, 13.0, 13.0 ],
					"comment" : "envelope smoothness"
				}

			}
, 			{
				"box" : 				{
					"maxclass" : "outlet",
					"numinlets" : 1,
					"numoutlets" : 0,
					"id" : "obj-10",
					"hidden" : 1,
					"patching_rect" : [ 125.0, 236.0, 13.0, 13.0 ],
					"comment" : "ampl var"
				}

			}
, 			{
				"box" : 				{
					"maxclass" : "outlet",
					"numinlets" : 1,
					"numoutlets" : 0,
					"id" : "obj-11",
					"hidden" : 1,
					"patching_rect" : [ 112.0, 236.0, 13.0, 13.0 ],
					"comment" : "blasting slope"
				}

			}
, 			{
				"box" : 				{
					"maxclass" : "outlet",
					"numinlets" : 1,
					"numoutlets" : 0,
					"id" : "obj-12",
					"hidden" : 1,
					"patching_rect" : [ 99.0, 236.0, 13.0, 13.0 ],
					"comment" : "bubble radius"
				}

			}
, 			{
				"box" : 				{
					"maxclass" : "newobj",
					"varname" : "u607001505",
					"text" : "autopattr @autorestore 0",
					"numinlets" : 1,
					"numoutlets" : 4,
					"id" : "obj-13",
					"fontname" : "Arial",
					"hidden" : 1,
					"outlettype" : [ "", "", "", "" ],
					"patching_rect" : [ 264.0, -9.0, 125.0, 17.0 ],
					"fontsize" : 9.0,
					"restore" : 					{
						"splash_bubble" : [ 0.0 ],
						"splash_head" : [ 0.0 ],
						"splash_radius" : [ 0.0 ],
						"splash_slope" : [ 0.0 ],
						"splash_tail" : [ 0.0 ]
					}

				}

			}
, 			{
				"box" : 				{
					"maxclass" : "inlet",
					"numinlets" : 0,
					"numoutlets" : 1,
					"id" : "obj-14",
					"hidden" : 1,
					"outlettype" : [ "" ],
					"patching_rect" : [ 321.0, -30.0, 15.0, 15.0 ],
					"comment" : "tail ampl"
				}

			}
, 			{
				"box" : 				{
					"maxclass" : "inlet",
					"numinlets" : 0,
					"numoutlets" : 1,
					"id" : "obj-15",
					"hidden" : 1,
					"outlettype" : [ "" ],
					"patching_rect" : [ 245.0, -30.0, 15.0, 15.0 ],
					"comment" : "bubble ampl"
				}

			}
, 			{
				"box" : 				{
					"maxclass" : "inlet",
					"numinlets" : 0,
					"numoutlets" : 1,
					"id" : "obj-16",
					"hidden" : 1,
					"outlettype" : [ "" ],
					"patching_rect" : [ 96.0, -30.0, 15.0, 15.0 ],
					"comment" : "slope -mean"
				}

			}
, 			{
				"box" : 				{
					"maxclass" : "inlet",
					"numinlets" : 0,
					"numoutlets" : 1,
					"id" : "obj-17",
					"hidden" : 1,
					"outlettype" : [ "" ],
					"patching_rect" : [ 34.0, -30.0, 15.0, 15.0 ],
					"comment" : "radius - mean bubble"
				}

			}
, 			{
				"box" : 				{
					"maxclass" : "comment",
					"text" : "bubble amplitude",
					"linecount" : 2,
					"numinlets" : 1,
					"numoutlets" : 0,
					"id" : "obj-18",
					"fontname" : "Arial",
					"patching_rect" : [ 227.0, 26.0, 61.0, 27.0 ],
					"fontsize" : 9.0
				}

			}
, 			{
				"box" : 				{
					"maxclass" : "comment",
					"text" : "head amplitude",
					"linecount" : 2,
					"numinlets" : 1,
					"numoutlets" : 0,
					"id" : "obj-19",
					"fontname" : "Arial",
					"patching_rect" : [ 161.0, 26.0, 52.0, 27.0 ],
					"fontsize" : 9.0
				}

			}
, 			{
				"box" : 				{
					"maxclass" : "comment",
					"text" : "blasting slope",
					"linecount" : 2,
					"numinlets" : 1,
					"numoutlets" : 0,
					"id" : "obj-20",
					"fontname" : "Arial",
					"patching_rect" : [ 84.0, 26.0, 42.0, 27.0 ],
					"fontsize" : 9.0
				}

			}
, 			{
				"box" : 				{
					"maxclass" : "comment",
					"text" : "bubblesradius",
					"linecount" : 2,
					"numinlets" : 1,
					"numoutlets" : 0,
					"id" : "obj-21",
					"fontname" : "Arial",
					"patching_rect" : [ 22.0, 26.0, 42.0, 27.0 ],
					"fontsize" : 9.0
				}

			}
, 			{
				"box" : 				{
					"maxclass" : "comment",
					"text" : "tail amplitude",
					"linecount" : 2,
					"numinlets" : 1,
					"numoutlets" : 0,
					"id" : "obj-22",
					"fontname" : "Arial",
					"patching_rect" : [ 302.0, 26.0, 51.0, 27.0 ],
					"fontsize" : 9.0
				}

			}
, 			{
				"box" : 				{
					"maxclass" : "multislider",
					"varname" : "splash_radius",
					"slidercolor" : [ 1.0, 1.0, 1.0, 1.0 ],
					"candicane4" : [ 0.439216, 0.619608, 0.070588, 1.0 ],
					"numinlets" : 1,
					"peakcolor" : [ 0.498039, 0.498039, 0.498039, 1.0 ],
					"candicane3" : [ 0.290196, 0.411765, 0.713726, 1.0 ],
					"bordercolor" : [ 1.0, 1.0, 1.0, 1.0 ],
					"numoutlets" : 2,
					"candicane8" : [ 0.027451, 0.447059, 0.501961, 1.0 ],
					"setminmax" : [ 0.0, 100.0 ],
					"id" : "obj-23",
					"bgcolor" : [ 0.156863, 0.8, 0.54902, 1.0 ],
					"candicane2" : [ 0.145098, 0.203922, 0.356863, 1.0 ],
					"candicane7" : [ 0.878431, 0.243137, 0.145098, 1.0 ],
					"outlettype" : [ "", "" ],
					"contdata" : 1,
					"candicane6" : [ 0.733333, 0.035294, 0.788235, 1.0 ],
					"patching_rect" : [ 34.0, 52.0, 14.0, 125.0 ],
					"candicane5" : [ 0.584314, 0.827451, 0.431373, 1.0 ]
				}

			}
, 			{
				"box" : 				{
					"maxclass" : "multislider",
					"varname" : "splash_slope",
					"slidercolor" : [ 1.0, 1.0, 1.0, 1.0 ],
					"candicane4" : [ 0.439216, 0.619608, 0.070588, 1.0 ],
					"numinlets" : 1,
					"peakcolor" : [ 0.498039, 0.498039, 0.498039, 1.0 ],
					"candicane3" : [ 0.290196, 0.411765, 0.713726, 1.0 ],
					"bordercolor" : [ 1.0, 1.0, 1.0, 1.0 ],
					"numoutlets" : 2,
					"candicane8" : [ 0.027451, 0.447059, 0.501961, 1.0 ],
					"setminmax" : [ 0.0, 100.0 ],
					"id" : "obj-24",
					"bgcolor" : [ 0.611765, 0.701961, 1.0, 1.0 ],
					"candicane2" : [ 0.145098, 0.203922, 0.356863, 1.0 ],
					"candicane7" : [ 0.878431, 0.243137, 0.145098, 1.0 ],
					"outlettype" : [ "", "" ],
					"contdata" : 1,
					"candicane6" : [ 0.733333, 0.035294, 0.788235, 1.0 ],
					"patching_rect" : [ 96.0, 52.0, 14.0, 125.0 ],
					"candicane5" : [ 0.584314, 0.827451, 0.431373, 1.0 ]
				}

			}
, 			{
				"box" : 				{
					"maxclass" : "multislider",
					"varname" : "splash_head",
					"slidercolor" : [ 1.0, 1.0, 1.0, 1.0 ],
					"candicane4" : [ 0.439216, 0.619608, 0.070588, 1.0 ],
					"numinlets" : 1,
					"peakcolor" : [ 0.498039, 0.498039, 0.498039, 1.0 ],
					"candicane3" : [ 0.290196, 0.411765, 0.713726, 1.0 ],
					"bordercolor" : [ 1.0, 1.0, 1.0, 1.0 ],
					"numoutlets" : 2,
					"candicane8" : [ 0.027451, 0.447059, 0.501961, 1.0 ],
					"setminmax" : [ 0.0, 100.0 ],
					"id" : "obj-25",
					"bgcolor" : [ 0.8, 0.611765, 0.380392, 1.0 ],
					"candicane2" : [ 0.145098, 0.203922, 0.356863, 1.0 ],
					"candicane7" : [ 0.878431, 0.243137, 0.145098, 1.0 ],
					"outlettype" : [ "", "" ],
					"contdata" : 1,
					"candicane6" : [ 0.733333, 0.035294, 0.788235, 1.0 ],
					"patching_rect" : [ 174.0, 52.0, 14.0, 125.0 ],
					"candicane5" : [ 0.584314, 0.827451, 0.431373, 1.0 ]
				}

			}
, 			{
				"box" : 				{
					"maxclass" : "multislider",
					"varname" : "splash_bubble",
					"slidercolor" : [ 1.0, 1.0, 1.0, 1.0 ],
					"candicane4" : [ 0.439216, 0.619608, 0.070588, 1.0 ],
					"numinlets" : 1,
					"peakcolor" : [ 0.498039, 0.498039, 0.498039, 1.0 ],
					"candicane3" : [ 0.290196, 0.411765, 0.713726, 1.0 ],
					"bordercolor" : [ 1.0, 1.0, 1.0, 1.0 ],
					"numoutlets" : 2,
					"candicane8" : [ 0.027451, 0.447059, 0.501961, 1.0 ],
					"setminmax" : [ 0.0, 100.0 ],
					"id" : "obj-26",
					"bgcolor" : [ 0.8, 0.611765, 0.380392, 1.0 ],
					"candicane2" : [ 0.145098, 0.203922, 0.356863, 1.0 ],
					"candicane7" : [ 0.878431, 0.243137, 0.145098, 1.0 ],
					"outlettype" : [ "", "" ],
					"contdata" : 1,
					"candicane6" : [ 0.733333, 0.035294, 0.788235, 1.0 ],
					"patching_rect" : [ 245.0, 52.0, 14.0, 125.0 ],
					"candicane5" : [ 0.584314, 0.827451, 0.431373, 1.0 ]
				}

			}
, 			{
				"box" : 				{
					"maxclass" : "multislider",
					"varname" : "splash_tail",
					"slidercolor" : [ 1.0, 1.0, 1.0, 1.0 ],
					"candicane4" : [ 0.439216, 0.619608, 0.070588, 1.0 ],
					"numinlets" : 1,
					"peakcolor" : [ 0.498039, 0.498039, 0.498039, 1.0 ],
					"candicane3" : [ 0.290196, 0.411765, 0.713726, 1.0 ],
					"bordercolor" : [ 1.0, 1.0, 1.0, 1.0 ],
					"numoutlets" : 2,
					"candicane8" : [ 0.027451, 0.447059, 0.501961, 1.0 ],
					"setminmax" : [ 0.0, 100.0 ],
					"id" : "obj-27",
					"bgcolor" : [ 0.8, 0.611765, 0.380392, 1.0 ],
					"candicane2" : [ 0.145098, 0.203922, 0.356863, 1.0 ],
					"candicane7" : [ 0.878431, 0.243137, 0.145098, 1.0 ],
					"outlettype" : [ "", "" ],
					"contdata" : 1,
					"candicane6" : [ 0.733333, 0.035294, 0.788235, 1.0 ],
					"patching_rect" : [ 321.0, 52.0, 14.0, 125.0 ],
					"candicane5" : [ 0.584314, 0.827451, 0.431373, 1.0 ]
				}

			}
, 			{
				"box" : 				{
					"maxclass" : "panel",
					"rounded" : 3,
					"numinlets" : 1,
					"bordercolor" : [ 0.745098, 0.745098, 0.745098, 1.0 ],
					"numoutlets" : 0,
					"id" : "obj-28",
					"bgcolor" : [ 0.890196, 0.870588, 1.0, 1.0 ],
					"border" : 1,
					"patching_rect" : [ 1.0, 1.0, 380.0, 215.0 ]
				}

			}
 ],
		"lines" : [ 			{
				"patchline" : 				{
					"source" : [ "obj-14", 0 ],
					"destination" : [ "obj-27", 0 ],
					"hidden" : 1,
					"midpoints" : [  ]
				}

			}
, 			{
				"patchline" : 				{
					"source" : [ "obj-1", 4 ],
					"destination" : [ "obj-3", 0 ],
					"hidden" : 1,
					"midpoints" : [ 95.055557, 231.0, -2.0, 231.0, -2.0, 180.0, 309.5, 180.0 ]
				}

			}
, 			{
				"patchline" : 				{
					"source" : [ "obj-15", 0 ],
					"destination" : [ "obj-26", 0 ],
					"hidden" : 1,
					"midpoints" : [  ]
				}

			}
, 			{
				"patchline" : 				{
					"source" : [ "obj-1", 3 ],
					"destination" : [ "obj-4", 0 ],
					"hidden" : 1,
					"midpoints" : [ 82.166664, 231.0, -3.0, 231.0, -3.0, 180.0, 238.5, 180.0 ]
				}

			}
, 			{
				"patchline" : 				{
					"source" : [ "obj-2", 0 ],
					"destination" : [ "obj-25", 0 ],
					"hidden" : 1,
					"midpoints" : [  ]
				}

			}
, 			{
				"patchline" : 				{
					"source" : [ "obj-27", 0 ],
					"destination" : [ "obj-1", 4 ],
					"hidden" : 1,
					"midpoints" : [ 326.0, 205.0, 159.5, 205.0 ]
				}

			}
, 			{
				"patchline" : 				{
					"source" : [ "obj-1", 2 ],
					"destination" : [ "obj-5", 0 ],
					"hidden" : 1,
					"midpoints" : [ 69.277779, 231.0, -3.0, 231.0, -3.0, 180.0, 166.5, 180.0 ]
				}

			}
, 			{
				"patchline" : 				{
					"source" : [ "obj-1", 9 ],
					"destination" : [ "obj-8", 0 ],
					"hidden" : 1,
					"midpoints" : [  ]
				}

			}
, 			{
				"patchline" : 				{
					"source" : [ "obj-1", 8 ],
					"destination" : [ "obj-9", 0 ],
					"hidden" : 1,
					"midpoints" : [  ]
				}

			}
, 			{
				"patchline" : 				{
					"source" : [ "obj-26", 0 ],
					"destination" : [ "obj-1", 3 ],
					"hidden" : 1,
					"midpoints" : [ 250.0, 205.0, 130.5, 205.0 ]
				}

			}
, 			{
				"patchline" : 				{
					"source" : [ "obj-1", 7 ],
					"destination" : [ "obj-10", 0 ],
					"hidden" : 1,
					"midpoints" : [  ]
				}

			}
, 			{
				"patchline" : 				{
					"source" : [ "obj-1", 6 ],
					"destination" : [ "obj-11", 0 ],
					"hidden" : 1,
					"midpoints" : [  ]
				}

			}
, 			{
				"patchline" : 				{
					"source" : [ "obj-1", 5 ],
					"destination" : [ "obj-12", 0 ],
					"hidden" : 1,
					"midpoints" : [  ]
				}

			}
, 			{
				"patchline" : 				{
					"source" : [ "obj-25", 0 ],
					"destination" : [ "obj-1", 2 ],
					"hidden" : 1,
					"midpoints" : [ 179.0, 205.0, 101.5, 205.0 ]
				}

			}
, 			{
				"patchline" : 				{
					"source" : [ "obj-16", 0 ],
					"destination" : [ "obj-24", 0 ],
					"hidden" : 1,
					"midpoints" : [  ]
				}

			}
, 			{
				"patchline" : 				{
					"source" : [ "obj-1", 1 ],
					"destination" : [ "obj-6", 0 ],
					"hidden" : 1,
					"midpoints" : [ 56.388889, 231.0, -2.0, 231.0, -2.0, 180.0, 87.5, 180.0 ]
				}

			}
, 			{
				"patchline" : 				{
					"source" : [ "obj-24", 0 ],
					"destination" : [ "obj-1", 1 ],
					"hidden" : 1,
					"midpoints" : [ 101.0, 204.0, 72.5, 204.0 ]
				}

			}
, 			{
				"patchline" : 				{
					"source" : [ "obj-23", 0 ],
					"destination" : [ "obj-1", 0 ],
					"hidden" : 1,
					"midpoints" : [  ]
				}

			}
, 			{
				"patchline" : 				{
					"source" : [ "obj-17", 0 ],
					"destination" : [ "obj-23", 0 ],
					"hidden" : 1,
					"midpoints" : [  ]
				}

			}
, 			{
				"patchline" : 				{
					"source" : [ "obj-1", 0 ],
					"destination" : [ "obj-7", 0 ],
					"hidden" : 1,
					"midpoints" : [ 43.5, 231.0, -2.0, 231.0, -2.0, 180.0, 25.5, 180.0 ]
				}

			}
 ]
	}

}
