#N canvas 29 130 205 269 10;
#X obj 0 171 *~;
#X obj 53 96 vline~;
#X obj 133 162 osc~;
#X obj 133 96 vline~;
#X obj 117 187 *~;
#X obj 133 140 +~ 20;
#X obj 133 118 *~ 7000;
#X obj 53 121 *~;
#X obj 53 145 *~;
#X obj 0 192 *~ 0.5;
#X obj 0 144 noise~;
#X obj 53 4 inlet;
#X obj 43 249 outlet~;
#X obj 43 225 spark6formant \$1;
#X obj 53 25 f \$2;
#X obj 53 50 * 50;
#X msg 53 73 1 \, 0 \$1 0;
#X msg 133 73 1 \, 0 \$1 0;
#X connect 0 0 9 0;
#X connect 1 0 7 0;
#X connect 1 0 7 1;
#X connect 2 0 4 1;
#X connect 3 0 4 0;
#X connect 3 0 6 0;
#X connect 4 0 13 0;
#X connect 5 0 2 0;
#X connect 6 0 5 0;
#X connect 7 0 8 0;
#X connect 7 0 8 1;
#X connect 8 0 0 1;
#X connect 9 0 13 0;
#X connect 10 0 0 0;
#X connect 11 0 14 0;
#X connect 13 0 12 0;
#X connect 14 0 15 0;
#X connect 14 0 17 0;
#X connect 15 0 16 0;
#X connect 16 0 1 0;
#X connect 17 0 3 0;
