#N canvas 198 374 275 355 10;
#X obj 0 0 inlet;
#X obj 0 134 soundfiler;
#X obj 0 21 openpanel;
#X obj 93 202 t b;
#X obj 0 226 outlet~;
#X msg 0 111 read -resize \$1 \$2;
#X obj 0 89 pack s s;
#X obj 0 42 t a b;
#X msg 51 67 symbol #0-a;
#X obj 61 157 table #0-a;
#X obj 0 180 tabplay~ #0-a;
#X msg 0 156 bang;
#X obj 72 1 loadbang;
#X obj 134 125 tgl 15 1 empty empty empty 0 -6 0 8 -262144 -1 -1 1
1;
#X obj 0 203 *~;
#X connect 0 0 2 0;
#X connect 1 0 11 0;
#X connect 2 0 7 0;
#X connect 3 0 10 0;
#X connect 5 0 1 0;
#X connect 6 0 5 0;
#X connect 7 0 6 0;
#X connect 7 1 8 0;
#X connect 8 0 6 1;
#X connect 10 0 14 0;
#X connect 10 1 3 0;
#X connect 11 0 10 0;
#X connect 12 0 11 0;
#X connect 13 0 14 1;
#X connect 14 0 4 0;
#X coords 0 -1 1 1 85 60 1 100 100;
