#N canvas 0 0 925 526 10;
#X obj 247 128 +~;
#X obj 375 129 +~;
#X obj 297 128 -~;
#X obj 423 128 -~;
#X obj 246 184 +~;
#X obj 298 185 +~;
#X obj 358 186 -~;
#X obj 407 186 -~;
#X obj 246 255 *~;
#X obj 299 255 *~;
#X obj 358 255 *~;
#X obj 407 256 *~;
#X obj 459 184 sig~ \$1;
#X obj 5 357 outlet~;
#X obj 5 -26 inlet~;
#X obj 247 357 delwrite~ \$0-a 1000;
#X obj 300 335 delwrite~ \$0-b 1000;
#X obj 359 312 delwrite~ \$0-c 1000;
#X obj 406 289 delwrite~ \$0-d 1000;
#X obj 247 11 delread~ \$0-a \$2;
#X obj 313 31 delread~ \$0-b \$3;
#X obj 375 51 delread~ \$0-c \$4;
#X obj 439 70 delread~ \$0-d \$5;
#X obj 65 357 outlet~;
#X obj 125 357 outlet~;
#X obj 185 357 outlet~;
#X obj 65 -26 inlet~;
#X obj 125 -26 inlet~;
#X obj 185 -26 inlet~;
#X connect 0 0 4 0;
#X connect 0 0 6 0;
#X connect 1 0 6 1;
#X connect 1 0 4 1;
#X connect 2 0 5 0;
#X connect 2 0 7 0;
#X connect 3 0 5 1;
#X connect 3 0 7 1;
#X connect 4 0 8 0;
#X connect 4 0 13 0;
#X connect 5 0 9 0;
#X connect 5 0 23 0;
#X connect 6 0 10 0;
#X connect 6 0 24 0;
#X connect 7 0 11 0;
#X connect 7 0 25 0;
#X connect 8 0 15 0;
#X connect 9 0 16 0;
#X connect 10 0 17 0;
#X connect 11 0 18 0;
#X connect 12 0 11 1;
#X connect 12 0 10 1;
#X connect 12 0 9 1;
#X connect 12 0 8 1;
#X connect 14 0 0 0;
#X connect 19 0 0 0;
#X connect 19 0 2 0;
#X connect 20 0 0 1;
#X connect 20 0 2 1;
#X connect 21 0 3 0;
#X connect 21 0 1 0;
#X connect 22 0 3 1;
#X connect 22 0 1 1;
#X connect 26 0 2 0;
#X connect 27 0 1 0;
#X connect 28 0 3 0;
