#N canvas 26 148 543 392 10;
#X obj 157 71 sd 60 7 5000;
#X obj 179 93 crack 1.8 7;
#X obj 157 49 bng 15 250 50 0 empty empty empty 0 -6 0 8 -262144 -1
-1;
#X obj 180 49 bng 15 250 50 0 empty empty empty 0 -6 0 8 -262144 -1
-1;
#X obj 87 49 bng 15 250 50 0 empty empty empty 0 -6 0 8 -262144 -1
-1;
#X obj 121 342 +~;
#X obj 70 344 +~;
#X obj 70 373 dac~ 1 2;
#X obj 85 305 *~;
#X obj 137 306 *~;
#X obj 90 6 hsl 64 12 0 1 0 1 \$0-rev empty rev 20 6 1 8 -262144 -1
-1 1700 1;
#X obj 89 24 hsl 64 12 0 1 0 1 \$0-dir empty direct 20 6 1 8 -262144
-1 -1 6300 1;
#X obj 22 302 *~;
#X obj 153 281 r \$0-rev;
#X obj 22 280 r \$0-dir;
#X obj 92 135 s~ \$0-dir;
#X obj 38 261 r~ \$0-dir;
#N canvas 0 0 450 300 loop 0;
#X obj 48 17 inlet;
#X obj 48 151 soundfiler;
#X obj 48 38 openpanel;
#X obj 141 219 t b;
#X obj 48 243 outlet~;
#X msg 48 128 read -resize \$1 \$2;
#X obj 48 106 pack s s;
#X obj 48 59 t a b;
#X msg 48 173 bang;
#X obj 120 18 loadbang;
#X obj 48 220 *~;
#X obj 48 197 tabplay~ a;
#X msg 99 84 symbol a;
#X obj 201 77 inlet;
#N canvas 0 0 450 300 graph10 0;
#X array a 422562 float 2;
#X coords 0 1 422562 -1 80 80 1;
#X restore 201 139 graph;
#X connect 0 0 2 0;
#X connect 1 0 8 0;
#X connect 2 0 7 0;
#X connect 3 0 11 0;
#X connect 5 0 1 0;
#X connect 6 0 5 0;
#X connect 7 0 6 0;
#X connect 7 1 12 0;
#X connect 8 0 11 0;
#X connect 9 0 8 0;
#X connect 10 0 4 0;
#X connect 11 0 10 0;
#X connect 11 1 3 0;
#X connect 12 0 6 1;
#X connect 13 0 10 1;
#X restore 87 68 pd loop;
#X obj 131 49 tgl 15 1 empty empty empty 0 -6 0 8 -262144 -1 -1 1 1
;
#X obj 86 204 revxp 18 61 74 12 55 41 72 82 0.42 93 107 119 121 111
127 33 49 55 61 79 87 99 5 18 24 0.5 0.5;
#X obj 86 113 *~ 1;
#X obj 86 181 *~ 0.3;
#X obj 86 159 hip~ 40;
#X connect 0 0 20 0;
#X connect 1 0 20 0;
#X connect 2 0 0 0;
#X connect 3 0 1 0;
#X connect 4 0 17 0;
#X connect 5 0 7 1;
#X connect 6 0 7 0;
#X connect 8 0 6 1;
#X connect 9 0 5 1;
#X connect 12 0 6 0;
#X connect 12 0 5 0;
#X connect 13 0 9 1;
#X connect 13 0 8 1;
#X connect 14 0 12 0;
#X connect 16 0 12 1;
#X connect 17 0 20 0;
#X connect 18 0 17 1;
#X connect 19 0 8 0;
#X connect 19 1 9 0;
#X connect 20 0 15 0;
#X connect 20 0 22 0;
#X connect 21 0 19 0;
#X connect 22 0 21 0;
