#N canvas 506 127 708 534 10;
#X obj 74 424 outlet~;
#X obj 255 424 outlet~;
#X obj 323 -23 revx-img+ 5 0.2;
#X obj 323 -3 revx-img- 7 0.2;
#X obj 323 18 revx-img+ 9 0.2;
#X obj 323 38 revx-img- 11 0.2;
#X obj 323 59 revx-img+ 13 0.2;
#X obj 323 79 revx-img- 17 0.2;
#X obj 323 100 revx-img+ 23 0.2;
#X obj 323 120 revx-img- 29 0.2;
#X obj 323 -48 inlet~;
#X obj 74 207 revx-comb 31 0.2;
#X obj 84 227 revx-comb 37 0.2;
#X obj 94 247 revx-comb 41 0.2;
#X obj 104 267 revx-comb 43 0.2;
#X obj 254 207 revx-comb 31.5 0.2;
#X obj 264 227 revx-comb 37.5 0.2;
#X obj 274 247 revx-comb 41.5 0.2;
#X obj 284 267 revx-comb 43.5 0.2;
#X obj 74 315 revx-allpass 7 0.2;
#X obj 74 335 revx-allpass 27 0.2;
#X obj 254 315 revx-allpass 9 0.2;
#X obj 254 335 revx-allpass 29 0.2;
#X obj 109 153 revx-circ 0.4 97 114 153 211;
#X obj 396 166 s~ \$0-er1;
#X obj 468 166 s~ \$0-er2;
#X obj 91 364 r~ \$0-er1;
#X obj 269 364 r~ \$0-er2;
#X obj 74 402 +~;
#X obj 254 402 +~;
#X obj 269 383 *~ 0.2;
#X obj 90 383 *~ 0.2;
#X connect 2 0 3 0;
#X connect 2 0 25 0;
#X connect 3 0 4 0;
#X connect 3 0 25 0;
#X connect 4 0 5 0;
#X connect 4 0 25 0;
#X connect 5 0 6 0;
#X connect 5 0 25 0;
#X connect 6 0 7 0;
#X connect 6 0 23 0;
#X connect 6 0 24 0;
#X connect 7 0 8 0;
#X connect 7 0 23 1;
#X connect 7 0 24 0;
#X connect 8 0 9 0;
#X connect 8 0 23 2;
#X connect 8 0 24 0;
#X connect 9 0 23 3;
#X connect 9 0 24 0;
#X connect 10 0 2 0;
#X connect 11 0 19 0;
#X connect 12 0 19 0;
#X connect 13 0 19 0;
#X connect 14 0 19 0;
#X connect 15 0 21 0;
#X connect 16 0 21 0;
#X connect 17 0 21 0;
#X connect 18 0 21 0;
#X connect 19 0 20 0;
#X connect 20 0 28 0;
#X connect 21 0 22 0;
#X connect 22 0 29 0;
#X connect 23 0 11 0;
#X connect 23 0 15 0;
#X connect 23 1 12 0;
#X connect 23 1 16 0;
#X connect 23 2 13 0;
#X connect 23 2 17 0;
#X connect 23 3 14 0;
#X connect 23 3 18 0;
#X connect 26 0 31 0;
#X connect 27 0 30 0;
#X connect 28 0 0 0;
#X connect 29 0 1 0;
#X connect 30 0 29 1;
#X connect 31 0 28 1;
