#N canvas 558 101 708 534 10;
#X obj 74 424 outlet~;
#X obj 255 424 outlet~;
#X obj 323 -48 inlet~;
#X obj 396 166 s~ \$0-er1;
#X obj 468 166 s~ \$0-er2;
#X obj 91 364 r~ \$0-er1;
#X obj 269 364 r~ \$0-er2;
#X obj 74 402 +~;
#X obj 254 402 +~;
#X obj 323 -24 revx-img+ \$1 0.2;
#X obj 323 -3 revx-img- \$2 0.2;
#X obj 109 153 revx-circ \$9 \$10 \$11 \$12 \$13;
#X obj 74 207 revx-comb \$14 0.2;
#X obj 74 335 revx-allpass \$23 0.2;
#X obj 90 383 *~ \$26;
#X obj 269 383 *~ \$27;
#X obj 323 18 revx-img+ \$3 0.2;
#X obj 323 59 revx-img+ \$5 0.2;
#X obj 323 100 revx-img+ \$7 0.2;
#X obj 323 38 revx-img- \$4 0.2;
#X obj 323 79 revx-img- \$6 0.2;
#X obj 323 120 revx-img- \$8 0.2;
#X obj 84 227 revx-comb \$15 0.2;
#X obj 94 247 revx-comb \$16 0.2;
#X obj 104 267 revx-comb \$17 0.2;
#X obj 254 207 revx-comb \$18 0.2;
#X obj 264 227 revx-comb \$19 0.2;
#X obj 274 247 revx-comb \$20 0.2;
#X obj 284 267 revx-comb \$21 0.2;
#X obj 74 314 revx-allpass \$22 0.2;
#X obj 254 315 revx-allpass \$24 0.2;
#X obj 254 335 revx-allpass \$25 0.2;
#X connect 2 0 9 0;
#X connect 5 0 14 0;
#X connect 6 0 15 0;
#X connect 7 0 0 0;
#X connect 8 0 1 0;
#X connect 9 0 4 0;
#X connect 9 0 10 0;
#X connect 10 0 4 0;
#X connect 10 0 16 0;
#X connect 11 0 12 0;
#X connect 11 0 25 0;
#X connect 11 1 22 0;
#X connect 11 1 26 0;
#X connect 11 2 23 0;
#X connect 11 2 27 0;
#X connect 11 3 24 0;
#X connect 11 3 28 0;
#X connect 12 0 29 0;
#X connect 13 0 7 0;
#X connect 14 0 7 1;
#X connect 15 0 8 1;
#X connect 16 0 4 0;
#X connect 16 0 19 0;
#X connect 17 0 3 0;
#X connect 17 0 11 0;
#X connect 17 0 20 0;
#X connect 18 0 3 0;
#X connect 18 0 11 2;
#X connect 18 0 21 0;
#X connect 19 0 4 0;
#X connect 19 0 17 0;
#X connect 20 0 3 0;
#X connect 20 0 11 1;
#X connect 20 0 18 0;
#X connect 21 0 3 0;
#X connect 21 0 11 3;
#X connect 22 0 29 0;
#X connect 23 0 29 0;
#X connect 24 0 29 0;
#X connect 25 0 30 0;
#X connect 26 0 30 0;
#X connect 27 0 30 0;
#X connect 28 0 30 0;
#X connect 29 0 13 0;
#X connect 30 0 31 0;
#X connect 31 0 8 0;
