#N canvas 676 195 450 300 10;
#X obj 115 12 inlet~;
#X obj 132 58 delread~ \$0-a \$1;
#X obj 132 83 *~ \$2;
#X obj 114 133 outlet~;
#X obj 115 110 -~;
#X obj 133 39 delwrite~ \$0-a 500;
#X connect 0 0 4 0;
#X connect 0 0 5 0;
#X connect 1 0 2 0;
#X connect 2 0 4 1;
#X connect 4 0 3 0;
