#N canvas 0 0 450 300 10;
#X obj 90 38 inlet~;
#X obj 20 270 outlet~;
#X obj 90 213 +~;
#X obj 106 134 *~;
#X obj 106 161 lop~ 1000;
#X obj 20 11 delread~ \$0-a \$1;
#X obj 122 58 sig~ \$2;
#X obj 90 267 delwrite~ \$0-a 500;
#X connect 0 0 2 0;
#X connect 2 0 7 0;
#X connect 3 0 4 0;
#X connect 4 0 2 1;
#X connect 5 0 1 0;
#X connect 5 0 3 0;
#X connect 6 0 3 1;
