#N canvas 0 0 502 461 10;
#X obj 159 45 inlet~;
#X obj 143 321 outlet~;
#X obj 204 294 +~;
#X obj 219 272 *~;
#X obj 143 230 +~;
#X obj 160 205 *~;
#X obj 44 155 delread~ \$0-a \$1;
#X obj 177 96 -~;
#X obj 235 48 inlet~;
#X obj 176 70 sig~ \$2;
#X obj 203 320 delwrite~ \$0-a 500;
#X connect 0 0 2 0;
#X connect 0 0 5 0;
#X connect 2 0 10 0;
#X connect 3 0 2 1;
#X connect 4 0 3 0;
#X connect 4 0 1 0;
#X connect 5 0 4 1;
#X connect 6 0 4 0;
#X connect 7 0 5 1;
#X connect 8 0 3 1;
#X connect 8 0 7 1;
#X connect 9 0 7 0;
