#N canvas 211 269 134 206 10;
#X obj 3 185 dac~;
#X obj 3 104 sig~ 1;
#X obj 3 132 /~;
#X obj 52 82 *~;
#X obj 52 52 *~;
#X obj 68 33 nbx 5 14 1 10 0 1 empty empty pulsewidth 0 -6 1 8 -262144
-1 -1 6 256;
#X obj 52 104 +~ 1;
#X obj 3 155 *~ 0.2;
#X obj 52 3 osc~ 12;
#X connect 1 0 2 0;
#X connect 2 0 7 0;
#X connect 3 0 6 0;
#X connect 4 0 3 0;
#X connect 4 0 3 1;
#X connect 5 0 4 1;
#X connect 6 0 2 1;
#X connect 7 0 0 1;
#X connect 7 0 0 0;
#X connect 8 0 4 0;
