#N canvas 376 321 145 318 10;
#X obj 38 176 noise~;
#X obj 22 220 *~;
#X obj 6 295 dac~;
#X obj 6 104 sig~ 1;
#X obj 6 132 /~;
#X obj 55 82 *~;
#X obj 55 52 *~;
#X obj 71 33 nbx 5 14 1 10 0 1 empty empty pulsewidth 0 -6 1 8 -262144
-1 -1 4 256;
#X obj 6 244 +~;
#X obj 55 104 +~ 1;
#X obj 6 267 *~ 0.2;
#X obj 22 155 *~ 0.4;
#X obj 38 198 bp~ 700 1;
#X obj 55 3 osc~ 12;
#X connect 0 0 12 0;
#X connect 1 0 8 1;
#X connect 3 0 4 0;
#X connect 4 0 8 0;
#X connect 4 0 11 0;
#X connect 5 0 9 0;
#X connect 6 0 5 0;
#X connect 6 0 5 1;
#X connect 7 0 6 1;
#X connect 8 0 10 0;
#X connect 9 0 4 1;
#X connect 10 0 2 1;
#X connect 10 0 2 0;
#X connect 11 0 1 0;
#X connect 12 0 1 1;
#X connect 13 0 6 0;
