#N canvas 226 220 221 368 10;
#X obj 80 144 noise~;
#X obj 26 342 dac~;
#X obj 2 107 sig~ 1;
#X obj 2 135 /~;
#X obj 59 84 *~;
#X obj 59 54 *~;
#X obj 59 12 nbx 5 14 1 10 0 1 empty empty pulsewidth 0 -6 1 8 -262144
-1 -1 7 256;
#X obj 59 106 +~ 1;
#X obj 26 309 +~;
#X obj 2 279 *~ 0.1;
#X obj 80 221 vcf~ 1 12;
#X obj 64 248 *~;
#X msg 158 198 5;
#X obj 109 197 +~ 100;
#X obj 109 175 *~ 500;
#X obj 158 175 loadbang;
#X obj 109 14 osc~ 12;
#X obj 64 278 *~ 0.3;
#X connect 0 0 10 0;
#X connect 2 0 3 0;
#X connect 3 0 9 0;
#X connect 3 0 11 0;
#X connect 4 0 7 0;
#X connect 5 0 4 0;
#X connect 5 0 4 1;
#X connect 6 0 5 0;
#X connect 7 0 3 1;
#X connect 8 0 1 0;
#X connect 8 0 1 1;
#X connect 9 0 8 0;
#X connect 10 0 11 1;
#X connect 11 0 17 0;
#X connect 12 0 10 2;
#X connect 13 0 10 1;
#X connect 14 0 13 0;
#X connect 15 0 12 0;
#X connect 16 0 5 1;
#X connect 16 0 14 0;
#X connect 17 0 8 1;
