#N canvas 226 220 251 421 10;
#X obj 112 207 noise~;
#X obj 168 195 dac~;
#X obj 7 169 sig~ 1;
#X obj 34 198 /~;
#X obj 82 148 *~;
#X obj 82 118 *~;
#X obj 82 80 nbx 5 14 1 10 0 1 empty empty pulsewidth 0 -6 1 8 -262144
-1 -1 8 256;
#X obj 82 170 +~ 1;
#X obj 58 372 +~;
#X obj 34 342 *~ 0.1;
#X obj 96 311 *~;
#X obj 58 400 delwrite~ a 400;
#X obj 168 165 vd~ a;
#X obj 168 141 +~ 200;
#X obj 168 62 cos~;
#X obj 112 236 lop~ 200;
#X obj 96 341 *~ 0.3;
#X obj 184 97 nbx 5 14 1 20 0 1 empty empty chop 0 -6 1 8 -262144 -1
-1 10 256;
#X obj 168 117 *~;
#X obj 168 36 phasor~;
#X obj 168 14 nbx 5 14 1 20 0 1 empty empty speed 0 -6 1 8 -262144
-1 -1 16 256;
#X connect 0 0 15 0;
#X connect 2 0 3 0;
#X connect 3 0 9 0;
#X connect 3 0 10 0;
#X connect 4 0 7 0;
#X connect 5 0 4 0;
#X connect 5 0 4 1;
#X connect 6 0 5 0;
#X connect 7 0 3 1;
#X connect 8 0 11 0;
#X connect 9 0 8 0;
#X connect 10 0 16 0;
#X connect 12 0 1 1;
#X connect 12 0 1 0;
#X connect 13 0 12 0;
#X connect 14 0 5 1;
#X connect 14 0 18 0;
#X connect 15 0 10 1;
#X connect 16 0 8 1;
#X connect 17 0 18 1;
#X connect 18 0 13 0;
#X connect 19 0 14 0;
#X connect 20 0 19 0;
